<svg width="124" height="115" viewBox="0 0 124 115" fill="none" xmlns="http://www.w3.org/2000/svg">
<path d="M40.6617 94.6372C35.9724 91.5293 33.4897 87.2141 33.2693 83.3719C32.9429 77.683 34.5145 71.0865 37.9838 63.5818C38.3855 63.5159 38.7905 63.4652 39.1976 63.4296C47.978 62.6575 55.9729 69.0107 57.0549 77.6194C58.1364 86.2281 51.8961 93.8324 43.1162 94.604C42.3009 94.676 41.4794 94.6871 40.6617 94.6372Z" fill="white"/>
<path d="M42.2602 109.441H47.8501C48.9628 109.441 50.0495 109.16 50.9672 108.634C51.885 108.108 52.5908 107.361 52.9919 106.493L60.8523 89.4858C60.9637 89.2456 61.0502 88.9972 61.1119 88.7446C61.7199 86.2502 59.7945 83.8158 56.8113 83.3073L46.9197 81.6206L46.8155 81.604C43.8213 81.144 40.9478 82.8007 40.3977 85.3043L36.9228 101.116L28.961 102.384C27.8949 102.554 26.9331 103.029 26.2412 103.729C25.5494 104.428 25.1708 105.307 25.1708 106.215C25.1708 107.07 25.5773 107.891 26.3009 108.496C27.0245 109.101 28.006 109.441 29.0293 109.441H42.2602Z" fill="#F497B1"/>
<path d="M35.5006 99.9348L38.771 85.0549C39.4865 81.7995 43.2215 79.6459 47.1142 80.2442L47.2498 80.2659L57.142 81.9521C61.0199 82.6132 63.523 85.7778 62.7331 89.0207C62.6525 89.3492 62.5397 89.6716 62.3957 89.9846L54.5342 106.993C54.0124 108.121 53.0948 109.091 51.9018 109.774C50.7089 110.458 49.2964 110.824 47.8501 110.824H29.0293C25.9849 110.824 23.5171 108.76 23.5171 106.215C23.5171 103.678 25.6724 101.5 28.6517 101.025L35.5006 99.9348ZM47.8501 108.059C48.629 108.059 49.3897 107.862 50.0321 107.493C50.6745 107.125 51.1684 106.602 51.449 105.995L59.31 88.9871C59.5123 88.5493 59.5981 88.0798 59.5612 87.6115C59.5243 87.1431 59.3657 86.6872 59.0964 86.2753C58.8271 85.8635 58.4537 85.5058 58.0021 85.2271C57.5505 84.9484 57.0316 84.7555 56.4817 84.6617L46.5895 82.9764C44.4204 82.6422 42.4096 83.802 42.0237 85.5546L38.3443 102.297L29.2707 103.742C28.5827 103.852 27.9619 104.159 27.5154 104.61C27.0688 105.062 26.8245 105.629 26.8244 106.215C26.8244 106.704 27.0567 107.173 27.4702 107.518C27.8837 107.864 28.4445 108.059 29.0293 108.059H47.8501Z" fill="#754F50"/>
<path d="M27.1551 107.555L30.5384 106.84C30.749 106.796 30.947 106.717 31.1212 106.608C31.2954 106.5 31.4423 106.364 31.5535 106.208C31.6648 106.052 31.7382 105.879 31.7696 105.699C31.801 105.519 31.7898 105.336 31.7365 105.16C31.6833 104.984 31.5891 104.818 31.4593 104.673C31.3295 104.527 31.1667 104.404 30.9802 104.311C30.7936 104.218 30.587 104.157 30.3721 104.13C30.1572 104.104 29.9382 104.114 29.7276 104.158L26.3442 104.874C26.1337 104.918 25.9357 104.997 25.7616 105.105C25.5874 105.214 25.4405 105.35 25.3293 105.506C25.2181 105.662 25.1447 105.835 25.1133 106.015C25.0819 106.194 25.0932 106.377 25.1464 106.553C25.1997 106.729 25.2938 106.895 25.4236 107.041C25.5534 107.186 25.7161 107.309 25.9027 107.402C26.0892 107.495 26.2958 107.557 26.5107 107.583C26.7256 107.609 26.9445 107.6 27.1551 107.555Z" fill="#754F50"/>
<path d="M66.5122 109.441H71.3872C72.7652 109.441 74.0932 109.01 75.1095 108.232C76.1258 107.453 76.7567 106.385 76.8779 105.237L78.0376 94.2463C78.109 93.5654 77.9987 92.8797 77.7146 92.2388C76.6563 89.8519 73.4845 88.6344 70.6303 89.519L63.4931 91.7317C62.4378 92.0589 61.5276 92.6485 60.8848 93.4212C60.242 94.1938 59.8975 95.1126 59.8975 96.0538V101.407L53.7658 102.384C52.6997 102.554 51.7379 103.029 51.0461 103.729C50.3542 104.428 49.9756 105.307 49.9756 106.215C49.9756 107.07 50.3821 107.891 51.1057 108.496C51.8293 109.102 52.8108 109.441 53.8341 109.441H66.5122Z" fill="#F497B1"/>
<path d="M58.2439 100.263V96.0538C58.2439 93.5475 60.1086 91.3058 62.9182 90.435L70.0548 88.2223C73.7656 87.0717 77.8893 88.6547 79.2646 91.7585C79.6345 92.5919 79.7778 93.483 79.6846 94.3681L78.5249 105.359C78.3674 106.851 77.5472 108.24 76.2261 109.251C74.9049 110.263 73.1785 110.824 71.3871 110.824H53.8341C50.7897 110.824 48.3219 108.76 48.3219 106.215C48.3219 103.678 50.4772 101.5 53.4565 101.025L58.2439 100.263ZM71.3871 108.059C72.3518 108.059 73.2815 107.756 73.9929 107.212C74.7044 106.667 75.146 105.919 75.2308 105.115L76.39 94.1247C76.4472 93.5824 76.3395 93.0368 76.0768 92.5387C75.814 92.0406 75.4049 91.6062 74.8874 91.2759C74.3699 90.9456 73.761 90.7301 73.1171 90.6496C72.4733 90.5691 71.8156 90.6261 71.2052 90.8153L64.0691 93.028C63.3302 93.257 62.6928 93.6697 62.2426 94.2106C61.7925 94.7516 61.5512 95.3948 61.5512 96.0538V102.552L54.0755 103.742C53.3875 103.852 52.7667 104.159 52.3202 104.61C51.8736 105.062 51.6293 105.629 51.6292 106.215C51.6292 106.704 51.8615 107.173 52.275 107.518C52.6885 107.864 53.2493 108.059 53.8341 108.059H71.3871Z" fill="#754F50"/>
<path d="M51.96 107.555L55.3434 106.84C55.5539 106.796 55.752 106.717 55.9261 106.608C56.1003 106.5 56.2472 106.364 56.3585 106.208C56.4697 106.052 56.5431 105.879 56.5745 105.699C56.6059 105.519 56.5947 105.336 56.5415 105.16C56.4882 104.984 56.394 104.818 56.2642 104.673C56.1345 104.527 55.9717 104.404 55.7851 104.311C55.5986 104.218 55.3919 104.157 55.177 104.13C54.9621 104.104 54.7431 104.114 54.5325 104.158L51.1491 104.874C50.9386 104.918 50.7406 104.997 50.5665 105.105C50.3923 105.214 50.2455 105.35 50.1342 105.506C50.023 105.662 49.9496 105.835 49.9182 106.015C49.8869 106.194 49.8981 106.377 49.9513 106.553C50.0046 106.729 50.0988 106.895 50.2285 107.041C50.3583 107.186 50.5211 107.309 50.7076 107.402C50.8941 107.495 51.1007 107.557 51.3156 107.583C51.5305 107.609 51.7495 107.6 51.96 107.555Z" fill="#754F50"/>
<path d="M8.2792 67.7066L8.89215 70.9136C9.0758 71.8737 9.61771 72.7606 10.4404 73.4476C11.2631 74.1346 12.3245 74.5866 13.4728 74.7388C15.0895 74.9531 16.2978 75.0398 17.0987 74.9992C18.2982 74.9383 19.9987 74.4008 22.1997 73.3867C22.4696 73.2625 22.6926 73.0776 22.8435 72.8529C22.9944 72.6282 23.0671 72.3728 23.0535 72.1153L23.0078 71.2399C27.2246 71.8406 30.9867 72.2905 34.294 72.5906C38.1294 72.9391 44.2782 74.3386 52.7411 76.7896C52.9902 76.8618 53.2563 76.8831 53.5173 76.8518C53.7783 76.8205 54.0265 76.7374 54.2413 76.6096C54.4561 76.4818 54.6312 76.3128 54.752 76.1169C54.8729 75.921 54.936 75.7037 54.9361 75.4832V61.009C54.9361 60.814 54.8867 60.6211 54.7913 60.4431C54.6958 60.2651 54.5564 60.1061 54.3822 59.9763C54.208 59.8466 54.003 59.7491 53.7806 59.6904C53.5582 59.6316 53.3234 59.6128 53.0917 59.6353L21.7648 62.6787L19.6657 62.091L19.507 59.799C19.4687 59.248 19.18 58.7301 18.7 58.3513C18.22 57.9725 17.585 57.7615 16.9251 57.7615C16.2469 57.7614 15.5913 57.9653 15.078 58.336C14.5647 58.7067 14.228 59.2194 14.1293 59.7806L13.7225 62.0905C13.2473 62.0905 12.7865 62.1403 12.3461 62.2343L4.64556 62.5547C3.86965 62.587 3.13826 62.8675 2.6027 63.3381C2.06713 63.8087 1.76836 64.4335 1.76819 65.0831C1.76816 65.7307 2.06786 66.3531 2.60448 66.8199C3.1411 67.2867 3.87296 67.5617 4.64665 67.5872L8.2792 67.7066Z" fill="#F497B1"/>
<path d="M4.58207 68.9691C3.38136 68.9296 2.24557 68.5029 1.41279 67.7784C0.580013 67.054 0.114914 66.088 0.11499 65.0831C0.115062 64.0785 0.576927 63.1123 1.40502 62.3845C2.23312 61.6568 3.36407 61.223 4.56388 61.1731L12.1101 60.8592C12.1646 60.8491 12.2187 60.8389 12.2732 60.8297L12.4932 59.5786C12.6498 58.6892 13.1836 57.8765 13.9972 57.289C14.8108 56.7014 15.85 56.3781 16.925 56.3781C18.0069 56.3781 19.0479 56.724 19.8349 57.3449C20.6218 57.9659 21.0951 58.815 21.1578 59.7183L21.2521 61.0759L21.9405 61.2685L52.9014 58.2611C53.3648 58.2161 53.8344 58.2536 54.2792 58.3712C54.7241 58.4887 55.1341 58.6836 55.4825 58.9431C55.8309 59.2026 56.1097 59.5207 56.3006 59.8767C56.4915 60.2327 56.5902 60.6184 56.5902 61.0085V75.4827C56.5901 75.9237 56.464 76.3583 56.2223 76.7502C55.9807 77.1422 55.6304 77.4801 55.2008 77.7358C54.7712 77.9915 54.2748 78.1576 53.7528 78.2203C53.2308 78.283 52.6985 78.2403 52.2003 78.096C43.8471 75.6763 37.7958 74.2989 34.1159 73.9647C31.2727 73.707 28.1026 73.3401 24.6051 72.8635C24.4929 73.229 24.2924 73.5714 24.016 73.8696C23.7396 74.1679 23.393 74.4156 22.9978 74.5977C20.6 75.7021 18.6999 76.3028 17.1984 76.3793C16.2519 76.4273 14.9389 76.3323 13.2136 76.1037C11.7208 75.9059 10.341 75.3185 9.27147 74.4254C8.20194 73.5323 7.49748 72.3792 7.2588 71.1311L6.85971 69.0434L4.58207 68.9691ZM21.3562 71.2998C21.3455 71.0937 21.3901 70.8882 21.4866 70.6984C21.5832 70.5085 21.7293 70.3392 21.9143 70.2027C22.0993 70.0662 22.3184 69.9661 22.5557 69.9096C22.7929 69.8531 23.0423 69.8418 23.2855 69.8763C27.4709 70.4728 31.2005 70.9191 34.4725 71.2155C38.4633 71.5778 44.7103 72.9999 53.2829 75.4832V61.009L21.956 64.0519C21.7149 64.0755 21.4705 64.0541 21.2405 63.9892L19.1414 63.4024C18.8281 63.3146 18.5533 63.1504 18.3526 62.9309C18.1519 62.7113 18.0344 62.4466 18.0153 62.1707L17.856 59.8787C17.8422 59.68 17.7381 59.4932 17.565 59.3566C17.3919 59.22 17.163 59.1439 16.925 59.1439C16.3434 59.1439 15.8501 59.5002 15.7652 59.9815L15.359 62.2924C15.3012 62.6207 15.1041 62.9206 14.8037 63.1374C14.5033 63.3543 14.1197 63.4735 13.7229 63.4734C13.3922 63.4734 13.0681 63.5075 12.755 63.5743C12.6481 63.5974 12.5389 63.6112 12.4287 63.6158L4.7276 63.9357C4.37545 63.9503 4.04348 64.0775 3.8004 64.2911C3.55732 64.5047 3.42175 64.7883 3.42176 65.0831C3.42164 65.3733 3.5559 65.6522 3.79638 65.8614C4.03687 66.0706 4.36488 66.1938 4.71161 66.2051L8.34415 66.325C8.72601 66.3374 9.09094 66.46 9.37685 66.6721C9.66276 66.8841 9.852 67.1725 9.91237 67.488L10.5253 70.695C10.6539 71.3671 11.0333 71.988 11.6092 72.4689C12.185 72.9498 12.928 73.2662 13.7318 73.3728C15.2394 73.5729 16.344 73.6517 16.9988 73.6185C17.8973 73.5734 19.3977 73.099 21.4014 72.1757L21.3562 71.2998Z" fill="#754F50"/>
<path d="M8.31724 69.1504H12.7281C13.1667 69.1504 13.5873 69.0047 13.8974 68.7453C14.2075 68.486 14.3818 68.1342 14.3818 67.7674C14.3818 67.4007 14.2075 67.0489 13.8974 66.7896C13.5873 66.5302 13.1667 66.3845 12.7281 66.3845H8.31724C7.87866 66.3845 7.45805 66.5302 7.14792 66.7896C6.8378 67.0489 6.66357 67.4007 6.66357 67.7674C6.66357 68.1342 6.8378 68.486 7.14792 68.7453C7.45805 69.0047 7.87866 69.1504 8.31724 69.1504Z" fill="#754F50"/>
<path d="M76.6293 21.3583C77.8326 23.3331 74.9673 27.1062 68.0352 32.6776L60.8644 20.907C70.1717 19.2332 75.4265 19.3835 76.6293 21.3583Z" fill="#FFC48B"/>
<path d="M75.2446 22.1202C74.6636 21.0789 70.6469 20.7599 63.4248 21.6896L68.2276 30.3025C73.6003 26.0731 75.8377 23.1846 75.2446 22.1202ZM78.2416 20.9516C79.8307 23.8014 76.5438 27.8137 68.786 33.6275C68.5937 33.7716 68.3637 33.8761 68.1145 33.9325C67.8653 33.989 67.6038 33.9958 67.3508 33.9525C67.0979 33.9092 66.8605 33.817 66.6579 33.6833C66.4552 33.5495 66.2928 33.3779 66.1837 33.1822L59.5078 21.2098C59.4008 21.0178 59.3479 20.8078 59.3533 20.596C59.3587 20.3842 59.4222 20.1762 59.5389 19.9882C59.6556 19.8002 59.8224 19.6371 60.0264 19.5115C60.2304 19.386 60.4662 19.3013 60.7156 19.264C70.896 17.7414 76.637 18.0738 78.2416 20.9516Z" fill="#754F50"/>
<path d="M80.4619 32.6516C81.5158 34.4587 78.8457 37.8436 72.4521 42.806L66.1704 32.0335C74.6438 30.6386 79.4079 30.8446 80.4619 32.6516Z" fill="#FFC48B"/>
<path d="M72.1793 40.2596C74.6912 38.6559 76.5515 37.2573 77.7515 36.0785C78.9824 34.8689 79.3694 34.0521 79.2178 33.6838C79.0717 33.3302 78.2024 32.9195 76.384 32.6521C74.5842 32.388 72.1026 32.3133 68.9574 32.435L72.1793 40.2596ZM82.3448 32.783C83.4892 35.5618 80.0402 38.949 72.3204 43.6164C72.1111 43.7429 71.8693 43.8267 71.6144 43.861C71.3595 43.8953 71.0985 43.8792 70.8524 43.814C70.6062 43.7488 70.3818 43.6363 70.197 43.4855C70.0121 43.3347 69.8721 43.1499 69.7881 42.9457L65.122 31.6135C65.0395 31.4133 65.0131 31.1998 65.0449 30.9897C65.0767 30.7796 65.1658 30.5783 65.3053 30.4016C65.4448 30.2248 65.631 30.0771 65.8495 29.97C66.068 29.863 66.313 29.7993 66.5656 29.7839C76.0009 29.2132 81.1889 29.9748 82.3448 32.783Z" fill="#754F50"/>
<path d="M83.5377 44.7578C84.3204 46.6594 81.1768 49.7465 74.108 54.0202L69.4419 42.6881C78.0558 42.1667 82.755 42.8568 83.5377 44.7578Z" fill="#FFC48B"/>
<path d="M80.3219 47.9206C81.7424 46.8663 82.2611 46.1025 82.1723 45.7199C82.0869 45.353 81.2937 44.845 79.5381 44.3688C77.8006 43.8977 75.3554 43.5349 72.2201 43.2892L74.1085 51.4129C76.8619 50.1171 78.9372 48.9486 80.3219 47.9206ZM85.4185 45.1921C86.0893 48.0769 82.1101 51.0303 73.6891 54.7536C73.4608 54.8545 73.2074 54.9093 72.9492 54.9137C72.691 54.918 72.4352 54.8717 72.2023 54.7785C71.9693 54.6853 71.7657 54.5478 71.6077 54.377C71.4497 54.2062 71.3417 54.0068 71.2924 53.7948L68.5578 42.0298C68.5095 41.8219 68.519 41.6075 68.5855 41.4032C68.652 41.1988 68.7737 41.01 68.9412 40.8512C69.1088 40.6924 69.3177 40.5679 69.5519 40.4873C69.7861 40.4067 70.0392 40.3722 70.2919 40.3864C79.7299 40.9188 84.741 42.2769 85.4185 45.1921Z" fill="#754F50"/>
<path d="M85.3164 53.8386C86.539 55.4746 84.6395 58.8014 79.6196 63.8182L72.333 54.0672C79.7662 52.2786 84.0938 52.2026 85.3164 53.8386Z" fill="#FFC48B"/>
<path d="M83.336 56.888C84.0134 55.5871 84.0873 54.7942 83.8326 54.4785C83.589 54.1761 82.7274 53.9617 81.0875 54.0382C79.5061 54.1125 77.4225 54.46 74.8543 55.0837L80.0022 61.4659C81.5825 59.652 82.6943 58.1211 83.336 56.888ZM86.5744 52.9324C88.4628 55.2727 86.5044 59.0357 81.2314 64.696C81.0708 64.8682 80.8638 65.0062 80.6272 65.0987C80.3906 65.1912 80.1313 65.2355 79.8703 65.228C79.6093 65.2205 79.3541 65.1615 79.1257 65.0557C78.8972 64.95 78.7019 64.8005 78.5558 64.6195L70.8668 55.0865C70.7237 54.909 70.6318 54.7061 70.5984 54.4938C70.565 54.2816 70.5909 54.0657 70.6742 53.8633C70.7575 53.6609 70.8959 53.4774 71.0785 53.3272C71.261 53.1771 71.4827 53.0645 71.7262 52.9983C79.8181 50.7925 84.666 50.5657 86.5744 52.9324Z" fill="#754F50"/>
<path d="M91.746 59.6819C93.5573 60.5919 93.6615 63.9676 92.0585 69.8086L81.2634 64.3839C86.441 60.3388 89.9347 58.7715 91.746 59.6819Z" fill="#FFC48B"/>
<path d="M91.5497 62.9972C91.5624 61.7332 91.3011 61.0787 91.0007 60.915C90.7157 60.7606 89.9451 60.833 88.6343 61.3728C87.377 61.8904 85.8269 62.7686 84.0013 64.0049L90.746 67.6678C91.2697 65.7474 91.5365 64.1861 91.5497 62.9972ZM92.8015 58.5958C95.4705 60.0452 95.4297 63.8394 93.3891 70.241C93.3219 70.452 93.1958 70.6467 93.0212 70.8092C92.8466 70.9716 92.6285 71.0972 92.3848 71.1756C92.141 71.2539 91.8785 71.2829 91.6188 71.2601C91.359 71.2374 91.1095 71.1635 90.8904 71.0445L80.328 65.3086C80.1133 65.192 79.9339 65.0354 79.8039 64.851C79.6739 64.6666 79.5969 64.4594 79.5789 64.2459C79.5609 64.0324 79.6025 63.8183 79.7004 63.6205C79.7982 63.4226 79.9497 63.2465 80.1428 63.106C86.0711 58.7881 90.1017 57.1295 92.8015 58.5958Z" fill="#754F50"/>
<path d="M102.48 59.7488C104.436 59.9497 106.056 62.7921 107.34 68.2768L95.6821 67.0797C98.2585 61.9914 100.524 59.5478 102.48 59.7488Z" fill="#FFC48B"/>
<path d="M103.623 62.581C102.988 61.5604 102.456 61.1386 102.17 61.1174C102.088 61.1114 101.956 61.1455 101.739 61.27C101.399 61.465 100.998 61.8148 100.561 62.3219C99.8197 63.1816 99.0276 64.4267 98.1958 66.0498L105.356 66.574C104.796 64.8684 104.215 63.5343 103.623 62.581ZM102.458 58.3617C105.486 58.5834 107.454 61.7475 109.138 67.8075C109.197 68.0203 109.195 68.2418 109.132 68.4538C109.069 68.6658 108.947 68.8623 108.776 69.0273C108.604 69.1922 108.389 69.3209 108.147 69.4028C107.905 69.4847 107.643 69.5174 107.382 69.4984L95.6811 68.6424C95.4262 68.6237 95.1799 68.5558 94.9616 68.444C94.7434 68.3322 94.5591 68.1795 94.4234 67.998C94.2877 67.8166 94.2042 67.6112 94.1795 67.3982C94.1548 67.1852 94.1895 66.9702 94.281 66.7703C96.9214 61.0035 99.3925 58.1376 102.458 58.3617Z" fill="#754F50"/>
<path d="M26.7516 17.3662C33.3271 15.1121 40.87 14.5635 49.5296 17.3662C58.1893 20.169 68.1603 32.1387 71.5735 42.8872C72.6186 46.1786 73.1262 49.2713 73.0965 52.1657C73.0039 61.0257 81.0186 68.4769 91.5634 69.3339C95.3845 69.6446 105.41 66.775 112.407 61.5627C114.873 59.1804 116.421 58.1174 117.052 58.3742C117.998 58.7591 117.34 61.2788 117.228 61.5627C113.565 70.9399 110.235 74.2502 106.007 77.3885C101.779 80.5268 96.9334 83.3719 91.5634 85.2827C89.4082 90.3645 80.727 94.9553 73.8318 96.7896C66.9366 98.6238 61.0815 99.377 51.0141 98.3315C40.9466 97.286 33.6694 90.3649 33.2687 83.3724C32.842 75.9327 35.5595 67.0861 41.4217 56.8322C41.5371 56.6309 41.5925 56.4092 41.583 56.1861C41.5736 55.963 41.4997 55.7451 41.3676 55.5511C41.2355 55.3571 41.0492 55.1927 40.8246 55.0721C40.6 54.9514 40.3438 54.8781 40.0779 54.8583C28.3821 53.9788 21.2427 52.7392 18.6602 51.1392C12.8421 47.5334 10.839 42.4548 10.839 36.11C10.839 27.0108 20.1761 19.6199 26.7516 17.3662Z" fill="#F497B1"/>
<path d="M26.7517 17.3662C20.1762 19.6199 10.8391 27.0108 10.8391 36.1099C10.8391 42.4548 12.8422 47.5334 18.6603 51.1387C21.2428 52.7387 28.3822 53.9787 40.0779 54.8578C40.3437 54.8778 40.5998 54.9513 40.8243 55.072C41.0487 55.1927 41.2349 55.357 41.367 55.551C41.499 55.7449 41.573 55.9627 41.5825 56.1857C41.5921 56.4087 41.5369 56.6304 41.4218 56.8317C35.5596 67.0857 32.8421 75.9327 33.2687 83.3719C33.67 90.3645 40.9472 97.2856 51.0141 98.331C61.0811 99.3765 66.9367 98.6233 73.8319 96.7891C80.7271 94.9549 89.4082 90.364 91.5635 85.2822C96.9335 83.3715 101.779 80.5263 106.007 77.388C110.236 74.2497 113.565 70.9394 117.228 61.5623C117.339 61.2783 117.998 58.7586 117.052 58.3737C116.421 58.1169 114.873 59.1799 112.407 61.5623C105.41 66.775 95.384 69.6441 91.5635 69.3334C81.0187 68.4764 73.0039 61.0252 73.0965 52.1653C73.1269 49.2708 72.6186 46.1781 71.5735 42.8868C68.1604 32.1386 58.1894 20.169 49.5297 17.3662C40.87 14.5635 33.3272 15.1121 26.7517 17.3662ZM113.32 56.8409C113.918 56.4302 114.481 56.1172 115.069 55.8996C116.146 55.5014 117.308 55.4022 118.5 55.8872C119.843 56.4334 120.485 57.3775 120.74 58.4594C120.87 59.0108 120.888 59.5828 120.837 60.2015C120.769 60.998 120.559 61.9458 120.372 62.4215C116.961 71.1542 113.815 75.292 108.203 79.4573C103.701 82.7976 99.005 85.4772 94.0958 87.3691C91.1016 92.5191 83.0229 97.2473 74.8345 99.425C66.7217 101.583 60.3777 102.091 50.6068 101.076C39.3261 99.9039 30.4614 92.1531 29.9653 83.5042C29.5348 75.9986 32.0478 67.3162 37.4393 57.4268C26.4733 56.5118 19.7506 55.2561 16.6914 53.3606C10.2862 49.392 7.53174 43.7548 7.53174 36.1099C7.53174 31.2107 9.82591 26.5014 13.7572 22.4328C17.0838 18.9898 21.4533 16.193 25.4971 14.8069C33.4776 12.071 41.865 11.9193 50.7236 14.7866C60.3468 17.9014 71.0361 30.4192 74.7706 42.1773C75.889 45.6992 76.4364 49.0366 76.4039 52.1902C76.3261 59.6165 83.045 65.8622 91.8838 66.5814C95.3399 66.8621 104.412 63.7482 110.055 59.6114C111.334 58.3829 112.408 57.4669 113.32 56.8409Z" fill="#754F50"/>
<path d="M16.9024 39.3732C17.341 39.3732 17.7616 39.5189 18.0717 39.7782C18.3819 40.0376 18.5561 40.3893 18.5561 40.7561V43.522C18.5561 43.8887 18.3819 44.2405 18.0717 44.4998C17.7616 44.7592 17.341 44.9049 16.9024 44.9049C16.4639 44.9049 16.0432 44.7592 15.7331 44.4998C15.423 44.2405 15.2488 43.8887 15.2488 43.522V40.7561C15.2488 40.3893 15.423 40.0376 15.7331 39.7782C16.0432 39.5189 16.4639 39.3732 16.9024 39.3732ZM24.6195 39.3732C25.0581 39.3732 25.4787 39.5189 25.7888 39.7782C26.0989 40.0376 26.2732 40.3893 26.2732 40.7561V43.522C26.2732 43.8887 26.0989 44.2405 25.7888 44.4998C25.4787 44.7592 25.0581 44.9049 24.6195 44.9049C24.1809 44.9049 23.7603 44.7592 23.4502 44.4998C23.1401 44.2405 22.9659 43.8887 22.9659 43.522V40.7561C22.9659 40.3893 23.1401 40.0376 23.4502 39.7782C23.7603 39.5189 24.1809 39.3732 24.6195 39.3732Z" fill="#44756A"/>
<path d="M37.4001 57.4305C39.8083 57.6407 41.7789 57.6407 43.335 57.4185C48.0937 56.7377 49.5831 56.2721 52.4643 54.223C52.6298 54.1054 52.7659 53.9616 52.8649 53.8C52.9639 53.6384 53.0239 53.462 53.0414 53.281C53.0589 53.0999 53.0336 52.9178 52.9669 52.7449C52.9003 52.5721 52.7935 52.4119 52.6528 52.2736C52.5122 52.1352 52.3403 52.0214 52.147 51.9386C51.9537 51.8558 51.7428 51.8056 51.5263 51.791C51.3099 51.7764 51.0921 51.7975 50.8854 51.8533C50.6787 51.909 50.4872 51.9983 50.3217 52.1159C47.978 53.7828 47.0034 54.0871 42.7766 54.6919C41.5607 54.8656 39.8756 54.8656 37.7429 54.6794C37.3067 54.6414 36.8702 54.7498 36.5296 54.9809C36.189 55.212 35.9721 55.5468 35.9266 55.9116C35.8812 56.2764 36.0109 56.6414 36.2872 56.9262C36.5635 57.2111 36.9638 57.3925 37.4001 57.4305Z" fill="#754F50"/>
<path d="M40.6616 94.6373C35.9724 91.5294 33.4891 87.2142 33.2686 83.3719C32.9429 77.683 34.5139 71.0865 37.9832 63.5823C38.3849 63.5164 38.7899 63.4657 39.197 63.4301C47.9774 62.658 55.9723 69.0112 57.0543 77.6199C58.1358 86.2286 51.8955 93.8329 43.1156 94.6045C42.2888 94.6769 41.4691 94.6866 40.6616 94.6373Z" fill="white"/>
<path d="M37.3163 15.1996L28.3413 14.6142C32.7004 6.48443 39.6501 3.06353 49.189 4.35149C58.7284 5.639 63.1894 11.1666 62.5715 20.9342H50.2991C50.1724 14.6921 48.5077 11.238 45.304 10.571C42.1003 9.90441 39.4379 11.4468 37.3163 15.1996Z" fill="#FFF185"/>
<path d="M45.7031 9.22901C49.5975 10.0394 51.5394 13.57 51.8988 19.5512H60.9724C61.0992 11.285 57.1415 6.82548 48.9255 5.71637C40.8766 4.63031 34.9615 7.12465 30.9018 13.3939L36.3401 13.7489C38.7147 10.0661 41.8898 8.43521 45.7031 9.22901ZM25.8713 15.8399L26.8321 14.048C31.4883 5.36603 39.148 1.59525 49.4525 2.98601C59.8921 4.39522 64.8822 10.5792 64.2224 21.0074L64.1392 22.317H48.6731L48.6455 20.9576C48.5303 15.2802 47.1308 12.3765 44.9044 11.9128C42.5959 11.4325 40.6319 12.5702 38.8118 15.7905L38.3245 16.6526L25.8713 15.8399Z" fill="#754F50"/>
<path d="M47.7708 23.2391C47.7706 24.3894 48.0413 25.5284 48.5675 26.5912C49.0938 27.654 49.8652 28.6197 50.8377 29.4331C51.8103 30.2465 52.9649 30.8918 54.2357 31.332C55.5064 31.7723 56.8684 31.9989 58.2439 31.9989C59.6194 31.9989 60.9814 31.7723 62.2522 31.332C63.5229 30.8918 64.6776 30.2465 65.6501 29.4331C66.6227 28.6197 67.3941 27.654 67.9203 26.5912C68.4465 25.5284 68.7173 24.3894 68.7171 23.2391C68.7173 22.0888 68.4465 20.9497 67.9203 19.8869C67.3941 18.8241 66.6227 17.8585 65.6501 17.045C64.6776 16.2316 63.5229 15.5863 62.2522 15.1461C60.9814 14.7058 59.6194 14.4792 58.2439 14.4792C56.8684 14.4792 55.5064 14.7058 54.2357 15.1461C52.9649 15.5863 51.8103 16.2316 50.8377 17.045C49.8652 17.8585 49.0938 18.8241 48.5675 19.8869C48.0413 20.9497 47.7706 22.0888 47.7708 23.2391Z" fill="#FFF185"/>
<path d="M58.2439 33.3805C51.5466 33.3805 46.1171 28.8399 46.1171 23.239C46.1171 17.6381 51.5466 13.0975 58.2439 13.0975C64.9412 13.0975 70.3707 17.6381 70.3707 23.239C70.3707 28.8399 64.9412 33.3805 58.2439 33.3805ZM58.2439 30.6146C63.1145 30.6146 67.0634 27.3122 67.0634 23.239C67.0634 19.1658 63.1145 15.8634 58.2439 15.8634C53.3733 15.8634 49.4244 19.1658 49.4244 23.239C49.4244 27.3122 53.3733 30.6146 58.2439 30.6146Z" fill="#754F50"/>
<path d="M54.3854 21.8561C54.3854 23.0787 54.9661 24.2512 55.9999 25.1157C57.0336 25.9802 58.4356 26.4659 59.8976 26.4659C61.3595 26.4659 62.7615 25.9802 63.7953 25.1157C64.829 24.2512 65.4098 23.0787 65.4098 21.8561C65.4098 20.6335 64.829 19.461 63.7953 18.5965C62.7615 17.732 61.3595 17.2463 59.8976 17.2463C58.4356 17.2463 57.0336 17.732 55.9999 18.5965C54.9661 19.461 54.3854 20.6335 54.3854 21.8561Z" fill="#FFFBDC"/>
<path d="M8.63416 22.778C8.63416 24.6119 9.50528 26.3707 11.0559 27.6674C12.6065 28.9642 14.7096 29.6927 16.9024 29.6927C19.0953 29.6927 21.1984 28.9642 22.749 27.6674C24.2996 26.3707 25.1707 24.6119 25.1707 22.778C25.1707 20.9442 24.2996 19.1854 22.749 17.8887C21.1984 16.5919 19.0953 15.8634 16.9024 15.8634C14.7096 15.8634 12.6065 16.5919 11.0559 17.8887C9.50528 19.1854 8.63416 20.9442 8.63416 22.778Z" fill="white"/>
<path d="M16.9024 31.0756C11.4228 31.0756 6.98047 27.3606 6.98047 22.778C6.98047 18.1955 11.4228 14.4805 16.9024 14.4805C22.3821 14.4805 26.8244 18.1955 26.8244 22.778C26.8244 27.3606 22.3821 31.0756 16.9024 31.0756ZM16.9024 28.3097C20.5554 28.3097 23.5171 25.8329 23.5171 22.778C23.5171 19.7231 20.5554 17.2463 16.9024 17.2463C13.2495 17.2463 10.2878 19.7231 10.2878 22.778C10.2878 25.8329 13.2495 28.3097 16.9024 28.3097Z" fill="#754F50"/>
<path d="M12.5439 24.3643C12.9226 24.7311 13.443 24.9754 14.0146 25.0549C14.5863 25.1344 15.1732 25.044 15.6734 24.7993C16.1737 24.5547 16.5558 24.1713 16.7533 23.7157C16.9509 23.2601 16.9514 22.761 16.7549 22.3051C16.5584 21.8492 16.1771 21.4652 15.6774 21.2198C15.1777 20.9744 14.591 20.8831 14.0192 20.9617C13.4473 21.0402 12.9265 21.2838 12.5469 21.65C12.1674 22.0163 11.9531 22.4821 11.9414 22.9666L13.7803 23.1902L12.5439 24.3643Z" fill="#232323"/>
<path d="M58.0113 54.2175C59.7024 51.1875 60.769 48.6171 61.2111 46.5058C61.4658 42.9287 61.4658 40.5173 61.2111 39.2717C61.1433 38.9412 60.6599 38.3839 59.7609 37.5998C56.7545 36.9148 54.7889 34.4292 55.2949 31.7984C55.9211 28.5416 59.4026 26.2151 63.3394 26.4225L68.087 26.6728C71.5002 26.8531 74.2078 29.0501 74.6107 31.8132C75.6635 32.3244 76.7268 33.1869 76.696 34.2845C76.6287 36.6843 74.8047 37.6565 72.698 37.905L69.7308 38.2544L71.3547 44.7647C71.783 46.9525 72.698 49.0998 72.698 51.8011L71.3547 60.2277" fill="#F497B1"/>
<path d="M69.8884 45.7471C69.9501 46.008 70.0184 46.279 70.1039 46.6013C70.1364 46.7257 70.17 46.852 70.2158 47.0221L70.3277 47.4402C70.8315 49.3284 71.0349 50.4177 71.0443 51.7112L69.7164 60.0452C69.6847 60.2263 69.6964 60.411 69.7507 60.5883C69.805 60.7657 69.9009 60.9323 70.0328 61.0785C70.1647 61.2246 70.33 61.3474 70.5191 61.4397C70.7082 61.532 70.9173 61.5919 71.1343 61.6161C71.3514 61.6403 71.572 61.6282 71.7834 61.5805C71.9948 61.5328 72.1927 61.4505 72.3658 61.3383C72.5388 61.2261 72.6835 61.0863 72.7914 60.927C72.8993 60.7677 72.9684 60.592 72.9945 60.4103L74.3373 51.9836C74.3472 51.9232 74.3521 51.8619 74.3521 51.8011C74.3521 50.2153 74.1206 48.9532 73.5556 46.8378L73.4432 46.4173L73.334 46.0066C73.2634 45.7416 73.1965 45.4759 73.1334 45.2096C73.0808 44.9874 73.0321 44.7646 72.9873 44.5412L71.7118 39.4179L72.9294 39.2745C76.1326 38.8974 78.2697 37.2112 78.3501 34.3172C78.3882 32.9536 77.4935 31.8169 76.1194 30.9848C75.7171 29.4445 74.7257 28.0557 73.2952 27.0288C71.8648 26.0018 70.0732 25.3925 68.1917 25.2931L63.4441 25.0428C58.6567 24.7897 54.4234 27.6188 53.6621 31.579C53.0525 34.7528 55.286 37.7952 58.8546 38.8135C59.1142 39.0509 59.3165 39.2538 59.4593 39.4183C59.5221 39.4907 59.5684 39.5502 59.5982 39.5935C59.806 40.7257 59.8016 43.0034 59.5662 46.344C59.1423 48.3069 58.127 50.7422 56.513 53.633C56.3324 53.9647 56.3157 54.3426 56.4665 54.6845C56.6173 55.0265 56.9234 55.3048 57.3182 55.459C57.7131 55.6133 58.1648 55.6309 58.5751 55.5081C58.9854 55.3854 59.3212 55.1321 59.5095 54.8034C61.2574 51.6725 62.3697 48.9919 62.8399 46.7456C62.8509 46.6939 62.8581 46.6418 62.862 46.5893C63.1244 42.9089 63.1244 40.4228 62.841 39.0399C62.6966 38.3337 62.0897 37.6334 60.9548 36.6437C60.7474 36.463 60.4852 36.3326 60.1963 36.2667C57.9809 35.7619 56.5604 33.9314 56.9281 32.0188C57.1649 30.7863 57.9421 29.6718 59.1081 28.8925C60.2742 28.1132 61.7455 27.725 63.2352 27.8036L67.9828 28.0539C69.2311 28.1198 70.4127 28.5484 71.3232 29.2655C72.2338 29.9827 72.8162 30.9433 72.9697 31.9814C73.0005 32.1936 73.0898 32.397 73.2305 32.5754C73.3712 32.7539 73.5595 32.9026 73.7805 33.0099C74.5963 33.4058 75.0533 33.8899 75.0434 34.2527C75.0037 35.6812 74.1735 36.3353 72.4675 36.5363L69.5009 36.8857C69.2768 36.9121 69.0615 36.9767 68.8684 37.0754C68.6753 37.1742 68.5086 37.305 68.3784 37.4598C68.2482 37.6147 68.1575 37.7902 68.1117 37.9755C68.0659 38.1609 68.0661 38.3521 68.1123 38.5374L69.7291 45.0192C69.7754 45.252 69.8283 45.4922 69.8884 45.7471Z" fill="#754F50"/>
<path d="M68.717 64.4963C68.717 64.9243 68.9203 65.3346 69.2821 65.6372C69.6439 65.9398 70.1346 66.1098 70.6463 66.1098C71.158 66.1098 71.6487 65.9398 72.0105 65.6372C72.3723 65.3346 72.5756 64.9243 72.5756 64.4963C72.5756 64.0684 72.3723 63.6581 72.0105 63.3555C71.6487 63.0529 71.158 62.8829 70.6463 62.8829C70.1346 62.8829 69.6439 63.0529 69.2821 63.3555C68.9203 63.6581 68.717 64.0684 68.717 64.4963Z" fill="#754F50"/>
<path d="M61.4542 27.2961L60.9377 30.2058C60.9016 30.387 60.9089 30.5723 60.9594 30.7511C61.0099 30.9299 61.1025 31.0984 61.2317 31.247C61.361 31.3955 61.5243 31.521 61.7122 31.6162C61.9 31.7113 62.1087 31.7742 62.326 31.8012C62.5432 31.8282 62.7647 31.8187 62.9776 31.7733C63.1904 31.7279 63.3903 31.6475 63.5656 31.5367C63.7408 31.426 63.888 31.2872 63.9984 31.1284C64.1088 30.9696 64.1803 30.794 64.2086 30.6119L64.7257 27.7022C64.7576 27.5226 64.7468 27.3394 64.6941 27.1633C64.6413 26.9871 64.5476 26.8213 64.4183 26.6754C64.2889 26.5296 64.1265 26.4064 63.9402 26.313C63.754 26.2197 63.5476 26.1579 63.3327 26.1312C63.1179 26.1045 62.8989 26.1135 62.6883 26.1576C62.4776 26.2017 62.2794 26.2801 62.105 26.3883C61.9305 26.4964 61.7833 26.6323 61.6716 26.7881C61.5599 26.9438 61.4861 27.1164 61.4542 27.2961ZM66.9664 27.7571L66.4499 30.6667C66.4137 30.8479 66.4212 31.0333 66.4716 31.2121C66.5221 31.3909 66.6147 31.5594 66.7439 31.7079C66.8732 31.8565 67.0365 31.982 67.2244 32.0771C67.4122 32.1723 67.6209 32.2352 67.8382 32.2622C68.0554 32.2891 68.277 32.2796 68.4898 32.2342C68.7026 32.1888 68.9025 32.1084 69.0777 31.9977C69.253 31.887 69.4001 31.7482 69.5106 31.5894C69.621 31.4306 69.6925 31.255 69.7208 31.0729L70.2379 28.1632C70.2698 27.9835 70.259 27.8004 70.2063 27.6242C70.1535 27.4481 70.0598 27.2823 69.9305 27.1364C69.8011 26.9905 69.6387 26.8674 69.4524 26.774C69.2662 26.6806 69.0597 26.6188 68.8449 26.5922C68.6301 26.5655 68.4111 26.5745 68.2005 26.6186C67.9898 26.6627 67.7916 26.7411 67.6172 26.8493C67.4427 26.9574 67.2955 27.0933 67.1838 27.249C67.0722 27.4048 66.9983 27.5774 66.9664 27.7571Z" fill="#754F50"/>
<path d="M23.5171 20.4732C23.5169 21.6235 23.7876 22.7625 24.3139 23.8253C24.8401 24.8881 25.6115 25.8538 26.5841 26.6672C27.5566 27.4807 28.7112 28.1259 29.982 28.5662C31.2528 29.0064 32.6148 29.233 33.9903 29.233C35.3657 29.233 36.7278 29.0064 37.9985 28.5662C39.2693 28.1259 40.4239 27.4807 41.3964 26.6672C42.369 25.8538 43.1404 24.8881 43.6666 23.8253C44.1929 22.7625 44.4636 21.6235 44.4634 20.4732C44.4636 19.3229 44.1929 18.1838 43.6666 17.1211C43.1404 16.0583 42.369 15.0926 41.3964 14.2791C40.4239 13.4657 39.2693 12.8204 37.9985 12.3802C36.7278 11.94 35.3657 11.7134 33.9903 11.7134C32.6148 11.7134 31.2528 11.94 29.982 12.3802C28.7112 12.8204 27.5566 13.4657 26.5841 14.2791C25.6115 15.0926 24.8401 16.0583 24.3139 17.1211C23.7876 18.1838 23.5169 19.3229 23.5171 20.4732Z" fill="white"/>
<path d="M33.9902 30.6146C27.2929 30.6146 21.8634 26.074 21.8634 20.4731C21.8634 14.8723 27.2929 10.3317 33.9902 10.3317C40.6875 10.3317 46.1171 14.8723 46.1171 20.4731C46.1171 26.074 40.6875 30.6146 33.9902 30.6146ZM33.9902 27.8487C38.8608 27.8487 42.8097 24.5463 42.8097 20.4731C42.8097 16.3999 38.8608 13.0975 33.9902 13.0975C29.1197 13.0975 25.1707 16.3999 25.1707 20.4731C25.1707 24.5463 29.1197 27.8487 33.9902 27.8487Z" fill="#754F50"/>
<path d="M28.7306 22.7416C29.2356 23.2306 29.9295 23.5563 30.6917 23.6622C31.4539 23.7681 32.2364 23.6474 32.9033 23.3212C33.5703 22.9949 34.0796 22.4837 34.3429 21.8762C34.6062 21.2687 34.6068 20.6033 34.3447 19.9954C34.0826 19.3876 33.5743 18.8757 32.9079 18.5485C32.2416 18.2214 31.4594 18.0997 30.6969 18.2045C29.9345 18.3093 29.24 18.6341 28.734 19.1224C28.2281 19.6108 27.9425 20.2319 27.9269 20.8779L30.3787 21.1761L28.7306 22.7416Z" fill="#232323"/>
</svg>
