<svg width="145" height="143" viewBox="0 0 145 143" fill="none" xmlns="http://www.w3.org/2000/svg">
<path d="M54.8994 114.308C48.5503 110.444 45.1888 105.078 44.8902 100.301C44.4484 93.2275 46.5762 85.0254 51.2737 75.6942C51.8176 75.6124 52.3659 75.5492 52.9171 75.505C64.8056 74.545 75.6306 82.4444 77.0956 93.1484C78.5599 103.852 70.1106 113.307 58.2229 114.267C57.1189 114.356 56.0066 114.37 54.8994 114.308Z" fill="#FFE9BC"/>
<path d="M57.0637 132.715H64.6324C66.139 132.715 67.6103 132.365 68.8529 131.711C70.0955 131.057 71.0511 130.129 71.5943 129.05L82.2371 107.903C82.3879 107.604 82.505 107.295 82.5886 106.981C83.4118 103.88 80.8049 100.853 76.7657 100.221L63.3726 98.1235L63.2315 98.1028C59.1774 97.5308 55.2867 99.5908 54.5419 102.704L49.8369 122.363L39.0568 123.94C37.6133 124.151 36.3111 124.743 35.3743 125.612C34.4376 126.482 33.925 127.575 33.9249 128.703C33.9249 129.767 34.4754 130.788 35.4551 131.54C36.4349 132.293 37.7637 132.715 39.1493 132.715H57.0637Z" fill="#F09636"/>
<path d="M47.9114 120.895L52.3394 102.394C53.3082 98.3458 58.3654 95.668 63.636 96.4119L63.8196 96.4389L77.2135 98.5355C82.464 99.3574 85.8531 103.292 84.7836 107.325C84.6746 107.733 84.5218 108.134 84.3269 108.523L73.6825 129.671C72.9761 131.073 71.7336 132.279 70.1183 133.129C68.5031 133.98 66.5907 134.435 64.6324 134.435H39.1493C35.0273 134.435 31.6859 131.868 31.6859 128.703C31.6859 125.55 34.6041 122.841 38.6381 122.251L47.9114 120.895ZM64.6324 130.996C65.687 130.996 66.717 130.751 67.5867 130.293C68.4565 129.835 69.1254 129.185 69.5053 128.43L80.1488 107.283C80.4229 106.738 80.5389 106.155 80.489 105.572C80.4391 104.99 80.2243 104.423 79.8597 103.911C79.4951 103.399 78.9894 102.954 78.378 102.608C77.7665 102.261 77.064 102.021 76.3194 101.905L62.9255 99.8091C59.9887 99.3936 57.266 100.836 56.7436 103.015L51.7617 123.832L39.4762 125.629C38.5446 125.766 37.7041 126.147 37.0995 126.708C36.4949 127.269 36.164 127.975 36.164 128.703C36.164 129.311 36.4785 129.894 37.0384 130.324C37.5982 130.754 38.3576 130.996 39.1493 130.996H64.6324Z" fill="#754F50"/>
<path d="M36.6117 130.37L41.1928 129.481C41.4779 129.426 41.746 129.328 41.9818 129.193C42.2177 129.058 42.4166 128.889 42.5672 128.695C42.7178 128.501 42.8172 128.286 42.8598 128.062C42.9023 127.839 42.887 127.611 42.8149 127.392C42.7429 127.173 42.6153 126.967 42.4396 126.786C42.2639 126.605 42.0435 126.452 41.7909 126.337C41.5383 126.221 41.2585 126.145 40.9675 126.112C40.6765 126.079 40.38 126.091 40.0949 126.146L35.5139 127.036C35.2288 127.091 34.9607 127.189 34.7249 127.324C34.4892 127.459 34.2903 127.628 34.1397 127.822C33.9891 128.016 33.8897 128.231 33.8472 128.454C33.8047 128.678 33.82 128.906 33.8921 129.125C33.9641 129.343 34.0917 129.549 34.2674 129.73C34.4431 129.911 34.6635 130.064 34.916 130.18C35.1686 130.296 35.4483 130.372 35.7392 130.404C36.0302 130.437 36.3267 130.425 36.6117 130.37Z" fill="#754F50"/>
<path d="M89.9005 132.715H96.5011C98.367 132.715 100.165 132.179 101.541 131.211C102.917 130.243 103.771 128.915 103.935 127.488L105.506 113.822C105.602 112.975 105.453 112.123 105.068 111.326C103.635 108.358 99.341 106.844 95.4764 107.944L85.8128 110.695C84.3839 111.102 83.1514 111.835 82.2811 112.796C81.4108 113.757 80.9443 114.899 80.9444 116.069V122.726L72.6421 123.94C71.1987 124.151 69.8964 124.743 68.9596 125.612C68.0229 126.482 67.5103 127.575 67.5103 128.703C67.5103 129.767 68.0607 130.788 69.0404 131.54C70.0202 132.293 71.3491 132.715 72.7346 132.715H89.9005Z" fill="#F09636"/>
<path d="M78.7054 121.303V116.069C78.7054 112.953 81.2303 110.166 85.0344 109.083L94.6972 106.332C99.7216 104.901 105.305 106.87 107.167 110.729C107.668 111.765 107.862 112.873 107.736 113.973L106.166 127.639C105.952 129.494 104.842 131.221 103.053 132.479C101.264 133.737 98.9266 134.435 96.5012 134.435H72.7347C68.6126 134.435 65.2712 131.868 65.2712 128.703C65.2712 125.55 68.1894 122.841 72.2234 122.251L78.7054 121.303ZM96.5012 130.996C97.8073 130.996 99.0661 130.62 100.029 129.943C100.993 129.265 101.591 128.335 101.705 127.336L103.275 113.671C103.352 112.996 103.207 112.318 102.851 111.699C102.495 111.079 101.941 110.539 101.24 110.129C100.54 109.718 99.7153 109.45 98.8436 109.35C97.9719 109.25 97.0813 109.321 96.2549 109.556L86.5927 112.307C85.5922 112.592 84.7291 113.105 84.1196 113.778C83.5101 114.45 83.1834 115.25 83.1834 116.069V124.149L73.0616 125.629C72.13 125.766 71.2894 126.147 70.6848 126.708C70.0802 127.27 69.7494 127.975 69.7493 128.703C69.7493 129.311 70.0638 129.895 70.6237 130.324C71.1835 130.754 71.9429 130.996 72.7347 130.996H96.5012Z" fill="#754F50"/>
<path d="M70.1972 130.37L74.7782 129.481C75.0633 129.426 75.3315 129.328 75.5673 129.193C75.8031 129.058 76.002 128.889 76.1526 128.695C76.3033 128.501 76.4027 128.286 76.4452 128.062C76.4877 127.839 76.4725 127.611 76.4004 127.392C76.3283 127.173 76.2008 126.967 76.0251 126.786C75.8493 126.605 75.6289 126.452 75.3763 126.337C75.1238 126.221 74.844 126.145 74.553 126.112C74.262 126.079 73.9655 126.091 73.6804 126.146L69.0993 127.036C68.8142 127.091 68.5462 127.189 68.3104 127.324C68.0746 127.459 67.8757 127.628 67.7251 127.822C67.5745 128.016 67.4752 128.231 67.4327 128.454C67.3902 128.678 67.4054 128.906 67.4775 129.125C67.5496 129.343 67.6771 129.549 67.8528 129.73C68.0285 129.911 68.2489 130.064 68.5015 130.18C68.754 130.296 69.0337 130.372 69.3247 130.404C69.6156 130.437 69.9121 130.425 70.1972 130.37Z" fill="#754F50"/>
<path d="M11.0541 80.8229L11.884 84.8104C12.1327 86.0042 12.8664 87.107 13.9803 87.9612C15.0942 88.8154 16.5313 89.3773 18.0861 89.5666C20.2751 89.8331 21.9111 89.9409 22.9955 89.8904C24.6196 89.8148 26.922 89.1464 29.9022 87.8855C30.2677 87.731 30.5696 87.5011 30.7739 87.2217C30.9782 86.9424 31.0767 86.6247 31.0583 86.3047L30.9963 85.2162C36.7058 85.9631 41.7996 86.5225 46.2777 86.8956C51.4707 87.3289 59.7961 89.0691 71.2547 92.1166C71.592 92.2063 71.9523 92.2328 72.3057 92.1939C72.659 92.155 72.9951 92.0517 73.2859 91.8928C73.5767 91.7338 73.8138 91.5238 73.9775 91.2801C74.1411 91.0365 74.2266 90.7664 74.2266 90.4922V72.4953C74.2266 72.2527 74.1598 72.0129 74.0306 71.7916C73.9014 71.5703 73.7126 71.3725 73.4768 71.2112C73.2409 71.0499 72.9633 70.9287 72.6621 70.8556C72.361 70.7826 72.0431 70.7592 71.7294 70.7872L29.3133 74.5713L26.4712 73.8405L26.2563 70.9907C26.2045 70.3056 25.8136 69.6616 25.1637 69.1906C24.5138 68.7197 23.654 68.4573 22.7604 68.4573C21.8422 68.4572 20.9545 68.7108 20.2595 69.1717C19.5646 69.6326 19.1086 70.2701 18.975 70.9678L18.4242 73.8399C17.7808 73.8399 17.1569 73.9018 16.5606 74.0188L6.13419 74.4171C5.08362 74.4573 4.09334 74.806 3.36819 75.3911C2.64305 75.9763 2.23851 76.7531 2.23828 77.5609C2.23824 78.3661 2.64404 79.14 3.37061 79.7204C4.09717 80.3008 5.0881 80.6427 6.13567 80.6744L11.0541 80.8229Z" fill="#F09636"/>
<path d="M6.04835 82.3928C4.4226 82.3436 2.88476 81.813 1.7572 80.9122C0.629632 80.0115 -0.000103288 78.8104 1.27069e-08 77.5609C9.75517e-05 76.3118 0.625454 75.1105 1.74668 74.2056C2.86791 73.3007 4.3992 72.7614 6.02372 72.6993L16.2411 72.309C16.315 72.2964 16.3882 72.2838 16.4621 72.2723L16.7598 70.7167C16.9719 69.6108 17.6947 68.6004 18.7963 67.8698C19.8979 67.1392 21.3049 66.7372 22.7604 66.7372C24.2254 66.7372 25.6349 67.1673 26.7004 67.9394C27.7658 68.7115 28.4066 69.7672 28.4916 70.8904L28.6192 72.5784L29.5514 72.8179L71.4719 69.0786C72.0993 69.0226 72.7351 69.0693 73.3374 69.2154C73.9397 69.3615 74.4949 69.6039 74.9666 69.9265C75.4383 70.2491 75.8158 70.6447 76.0743 71.0874C76.3328 71.53 76.4664 72.0096 76.4664 72.4947V90.4917C76.4664 91.04 76.2956 91.5803 75.9684 92.0677C75.6411 92.555 75.1669 92.9751 74.5852 93.2931C74.0036 93.6111 73.3314 93.8176 72.6246 93.8955C71.9179 93.9734 71.1972 93.9205 70.5225 93.741C59.2125 90.7324 51.0192 89.0198 46.0366 88.6042C42.187 88.2838 37.8947 87.8276 33.1592 87.2349C33.0073 87.6894 32.7358 88.1151 32.3615 88.486C31.9872 88.8568 31.5181 89.1649 30.9829 89.3912C27.7363 90.7645 25.1636 91.5113 23.1306 91.6065C21.8491 91.6661 20.0714 91.548 17.7353 91.2637C15.7141 91.0179 13.8458 90.2875 12.3977 89.177C10.9496 88.0665 9.99576 86.6328 9.67259 85.0809L9.13223 82.4851L6.04835 82.3928ZM28.7603 85.2907C28.7457 85.0345 28.8061 84.7789 28.9368 84.5429C29.0675 84.3068 29.2654 84.0963 29.5159 83.9266C29.7663 83.7568 30.063 83.6323 30.3843 83.5621C30.7055 83.4919 31.0432 83.4778 31.3725 83.5208C37.0394 84.2624 42.0892 84.8173 46.5195 85.1858C51.923 85.6363 60.3813 87.4046 71.9884 90.4922V72.4953L29.5723 76.2788C29.2458 76.3081 28.915 76.2815 28.6035 76.2008L25.7615 75.4712C25.3372 75.362 24.9652 75.1578 24.6934 74.8849C24.4217 74.6119 24.2626 74.2827 24.2367 73.9397L24.021 71.0898C24.0023 70.8428 23.8614 70.6106 23.627 70.4407C23.3927 70.2709 23.0827 70.1762 22.7604 70.1762C21.973 70.1762 21.3051 70.6193 21.1901 71.2177L20.6401 74.091C20.5618 74.4992 20.2949 74.8721 19.8883 75.1417C19.4816 75.4113 18.9622 75.5596 18.4249 75.5594C17.9771 75.5594 17.5383 75.6018 17.1144 75.6849C16.9696 75.7136 16.8218 75.7308 16.6725 75.7365L6.24539 76.1343C5.76858 76.1524 5.3191 76.3106 4.98998 76.5762C4.66085 76.8417 4.4773 77.1943 4.47731 77.5609C4.47714 77.9217 4.65893 78.2686 4.98454 78.5287C5.31015 78.7888 5.75428 78.942 6.22375 78.956L11.1421 79.1051C11.6592 79.1205 12.1533 79.273 12.5404 79.5366C12.9275 79.8003 13.1837 80.1588 13.2655 80.5512L14.0954 84.5387C14.2695 85.3743 14.7832 86.1463 15.5629 86.7443C16.3426 87.3423 17.3485 87.7357 18.4369 87.8683C20.4781 88.117 21.9738 88.215 22.8604 88.1738C24.077 88.1176 26.1085 87.5278 28.8215 86.3797L28.7603 85.2907Z" fill="#754F50"/>
<path d="M11.1056 82.6181H17.0778C17.6717 82.6181 18.2412 82.4369 18.6611 82.1145C19.081 81.792 19.3169 81.3546 19.3169 80.8986C19.3169 80.4425 19.081 80.0052 18.6611 79.6827C18.2412 79.3602 17.6717 79.1791 17.0778 79.1791H11.1056C10.5118 79.1791 9.94228 79.3602 9.52238 79.6827C9.10248 80.0052 8.86658 80.4425 8.86658 80.8986C8.86658 81.3546 9.10248 81.792 9.52238 82.1145C9.94228 82.4369 10.5118 82.6181 11.1056 82.6181Z" fill="#754F50"/>
<path d="M103.599 23.1941C105.228 25.6495 101.349 30.3409 91.9627 37.2683L82.2535 22.6329C94.8555 20.5517 101.97 20.7386 103.599 23.1941Z" fill="#FFC48B"/>
<path d="M101.724 24.1414C100.937 22.8466 95.4989 22.45 85.7203 23.6061L92.2232 34.3152C99.4978 29.0564 102.527 25.4649 101.724 24.1414ZM105.782 22.6884C107.934 26.2318 103.483 31.2207 92.9792 38.4495C92.7189 38.6287 92.4075 38.7585 92.0701 38.8287C91.7327 38.8989 91.3785 38.9074 91.0361 38.8536C90.6936 38.7998 90.3722 38.6851 90.0978 38.5188C89.8234 38.3525 89.6035 38.1391 89.4557 37.8958L80.4168 23.0094C80.2719 22.7707 80.2003 22.5096 80.2075 22.2462C80.2148 21.9829 80.3008 21.7243 80.4588 21.4906C80.6168 21.2568 80.8427 21.054 81.1189 20.8979C81.3951 20.7417 81.7144 20.6364 82.052 20.5901C95.8362 18.6969 103.609 19.1101 105.782 22.6884Z" fill="#754F50"/>
<path d="M108.788 37.2361C110.215 39.4829 106.6 43.6917 97.9432 49.8619L89.4379 36.4675C100.911 34.7331 107.361 34.9893 108.788 37.2361Z" fill="#FFC48B"/>
<path d="M97.5737 46.6957C100.975 44.7016 103.494 42.9626 105.118 41.497C106.785 39.993 107.309 38.9773 107.104 38.5194C106.906 38.0798 105.729 37.5691 103.267 37.2366C100.83 36.9082 97.47 36.8153 93.2113 36.9667L97.5737 46.6957ZM111.338 37.3994C112.887 40.8545 108.217 45.0661 97.7648 50.8695C97.4814 51.0268 97.1541 51.1309 96.8089 51.1736C96.4638 51.2162 96.1104 51.1962 95.7771 51.1151C95.4439 51.0341 95.1399 50.8942 94.8897 50.7067C94.6394 50.5193 94.4498 50.2894 94.3361 50.0355L88.0183 35.9453C87.9066 35.6963 87.8709 35.4309 87.9139 35.1696C87.957 34.9083 88.0776 34.6581 88.2664 34.4383C88.4553 34.2185 88.7074 34.0349 89.0033 33.9018C89.2992 33.7686 89.6309 33.6895 89.973 33.6704C102.748 32.9608 109.773 33.9077 111.338 37.3994Z" fill="#754F50"/>
<path d="M112.953 52.2888C114.013 54.6531 109.756 58.4916 100.185 63.8055L93.8673 49.7152C105.53 49.067 111.893 49.925 112.953 52.2888Z" fill="#FFC48B"/>
<path d="M108.599 56.2213C110.522 54.9104 111.224 53.9607 111.104 53.4849C110.988 53.0287 109.914 52.3971 107.537 51.805C105.185 51.2192 101.874 50.7681 97.6289 50.4626L100.186 60.5636C103.914 58.9524 106.724 57.4994 108.599 56.2213ZM115.499 52.8287C116.408 56.4156 111.02 60.0879 99.6179 64.7174C99.3087 64.8428 98.9657 64.911 98.6161 64.9163C98.2665 64.9217 97.9202 64.8642 97.6048 64.7483C97.2893 64.6324 97.0136 64.4614 96.7997 64.249C96.5858 64.0366 96.4396 63.7887 96.3728 63.5252L92.6702 48.8967C92.6048 48.6382 92.6177 48.3716 92.7077 48.1176C92.7977 47.8635 92.9625 47.6287 93.1894 47.4312C93.4162 47.2338 93.6991 47.079 94.0162 46.9788C94.3333 46.8786 94.6761 46.8357 95.0182 46.8534C107.797 47.5154 114.582 49.2039 115.499 52.8287Z" fill="#754F50"/>
<path d="M115.361 63.5796C117.017 65.6138 114.445 69.7504 107.648 75.9882L97.7819 63.8639C107.846 61.64 113.706 61.5454 115.361 63.5796Z" fill="#FFC48B"/>
<path d="M112.68 67.3712C113.597 65.7537 113.697 64.7678 113.352 64.3752C113.022 63.9992 111.856 63.7327 109.635 63.8278C107.494 63.9201 104.673 64.3523 101.196 65.1278L108.166 73.0633C110.306 70.8079 111.811 68.9044 112.68 67.3712ZM117.064 62.4528C119.621 65.3628 116.97 70.0416 109.83 77.0795C109.613 77.2937 109.332 77.4653 109.012 77.5802C108.692 77.6952 108.341 77.7503 107.987 77.741C107.634 77.7318 107.288 77.6584 106.979 77.5269C106.67 77.3953 106.405 77.2095 106.207 76.9844L95.7967 65.1312C95.6029 64.9105 95.4785 64.6583 95.4332 64.3943C95.388 64.1304 95.4231 63.862 95.5359 63.6103C95.6487 63.3586 95.8361 63.1304 96.0832 62.9438C96.3304 62.7572 96.6306 62.6171 96.9602 62.5348C107.917 59.7921 114.481 59.5101 117.064 62.4528Z" fill="#754F50"/>
<path d="M124.067 70.8452C126.519 71.9766 126.66 76.1739 124.49 83.4366L109.873 76.6915C116.884 71.6619 121.614 69.7132 124.067 70.8452Z" fill="#FFC48B"/>
<path d="M123.801 74.9674C123.818 73.3958 123.464 72.5819 123.057 72.3784C122.672 72.1864 121.628 72.2764 119.853 72.9476C118.151 73.5912 116.052 74.6831 113.58 76.2204L122.713 80.7748C123.422 78.387 123.783 76.4456 123.801 74.9674ZM125.496 69.4948C129.11 71.2969 129.054 76.0146 126.291 83.9742C126.2 84.2366 126.03 84.4787 125.793 84.6807C125.557 84.8827 125.262 85.0388 124.931 85.1362C124.601 85.2337 124.246 85.2697 123.894 85.2414C123.543 85.2131 123.205 85.1212 122.908 84.9733L108.607 77.8413C108.316 77.6964 108.073 77.5016 107.897 77.2724C107.721 77.0431 107.617 76.7855 107.593 76.52C107.568 76.2545 107.625 75.9883 107.757 75.7423C107.89 75.4964 108.095 75.2774 108.356 75.1027C116.383 69.7338 121.84 67.6715 125.496 69.4948Z" fill="#754F50"/>
<path d="M138.601 70.9282C141.249 71.1781 143.442 74.7122 145.181 81.5318L129.396 80.0433C132.885 73.7167 135.952 70.6783 138.601 70.9282Z" fill="#FFC48B"/>
<path d="M140.147 74.4499C139.287 73.1809 138.568 72.6564 138.18 72.6301C138.069 72.6226 137.891 72.665 137.597 72.8198C137.137 73.0622 136.594 73.4973 136.001 74.1277C134.998 75.1967 133.926 76.7448 132.8 78.763L142.494 79.4147C141.736 77.2939 140.95 75.6352 140.147 74.4499ZM138.57 69.2036C142.671 69.4793 145.335 73.4136 147.615 80.9485C147.695 81.2131 147.692 81.4884 147.607 81.752C147.522 82.0156 147.356 82.26 147.125 82.4651C146.893 82.6702 146.601 82.8302 146.273 82.932C145.945 83.0338 145.59 83.0746 145.238 83.0509L129.395 81.9865C129.05 81.9633 128.716 81.8788 128.421 81.7398C128.125 81.6008 127.876 81.411 127.692 81.1854C127.508 80.9597 127.395 80.7044 127.362 80.4395C127.328 80.1746 127.375 79.9074 127.499 79.6588C131.074 72.4885 134.42 68.9251 138.57 69.2036Z" fill="#754F50"/>
<path d="M36.0654 18.2304C44.9685 15.4276 55.1814 14.7455 66.9065 18.2304C78.6315 21.7153 92.1321 36.5982 96.7534 49.9628C98.1685 54.0553 98.8559 57.9007 98.8156 61.4996C98.6902 72.5159 109.542 81.7807 123.819 82.8462C128.993 83.2325 142.567 79.6645 152.042 73.1837C155.381 70.2215 157.477 68.8998 158.331 69.2191C159.612 69.6977 158.72 72.8306 158.569 73.1837C153.609 84.8431 149.1 88.9591 143.376 92.8612C137.651 96.7634 131.09 100.301 123.819 102.677C120.901 108.995 109.147 114.704 99.8112 116.984C90.4752 119.265 82.5475 120.201 68.9164 118.901C55.2852 117.602 45.432 108.996 44.8894 100.302C44.3117 91.0511 47.9912 80.0514 55.9285 67.3018C56.0848 67.0515 56.1597 66.7758 56.1469 66.4984C56.1342 66.221 56.0341 65.9501 55.8553 65.7089C55.6764 65.4677 55.4241 65.2633 55.12 65.1133C54.8159 64.9633 54.469 64.8721 54.109 64.8475C38.2731 63.7539 28.6065 62.2126 25.1099 60.2232C17.2322 55.7398 14.52 49.4252 14.52 41.5361C14.52 30.2223 27.1623 21.0326 36.0654 18.2304Z" fill="#F09636"/>
<path d="M36.0654 18.2303C27.1623 21.0325 14.52 30.2222 14.52 41.536C14.52 49.4251 17.2323 55.7397 25.1099 60.2225C28.6065 62.212 38.2731 63.7538 54.109 64.8468C54.4689 64.8717 54.8156 64.963 55.1195 65.1131C55.4234 65.2632 55.6755 65.4675 55.8543 65.7087C56.0331 65.9498 56.1332 66.2206 56.1461 66.4979C56.1591 66.7752 56.0844 67.0508 55.9286 67.3012C47.9912 80.0508 44.3118 91.0511 44.8894 100.301C45.4328 108.995 55.286 117.601 68.9164 118.901C82.5468 120.201 90.4752 119.264 99.8112 116.984C109.147 114.703 120.901 108.995 123.82 102.676C131.09 100.3 137.651 96.7627 143.376 92.8606C149.101 88.9584 153.61 84.8425 158.569 73.183C158.719 72.83 159.611 69.697 158.331 69.2184C157.477 68.8992 155.381 70.2209 152.042 73.183C142.567 79.6644 128.992 83.2319 123.82 82.8455C109.542 81.78 98.6902 72.5153 98.8156 61.4989C98.8566 57.9 98.1685 54.0546 96.7534 49.9622C92.1321 36.5981 78.6315 21.7152 66.9065 18.2303C55.1815 14.7454 44.9685 15.4275 36.0654 18.2303ZM153.278 67.3126C154.087 66.8019 154.849 66.4127 155.646 66.1422C157.103 65.647 158.677 65.5238 160.291 66.1267C162.109 66.8059 162.979 67.9798 163.323 69.325C163.499 70.0105 163.525 70.7218 163.455 71.491C163.363 72.4815 163.079 73.6599 162.826 74.2514C158.208 85.1096 153.948 90.2543 146.349 95.4335C140.254 99.5867 133.895 102.919 127.248 105.271C123.194 111.674 112.256 117.553 101.169 120.261C90.1841 122.945 81.5945 123.576 68.3648 122.314C53.091 120.857 41.0883 111.219 40.4166 100.465C39.8337 91.133 43.2363 80.3373 50.5362 68.0411C35.6885 66.9034 26.5861 65.3421 22.444 62.9852C13.7715 58.0508 10.042 51.0414 10.042 41.536C10.042 35.4443 13.1483 29.5888 18.4712 24.53C22.9753 20.249 28.8916 16.7716 34.3668 15.048C45.1723 11.6463 56.5286 11.4577 68.5231 15.0228C81.5527 18.8957 96.0257 34.4602 101.082 49.0801C102.597 53.4591 103.338 57.6088 103.294 61.5299C103.188 70.7637 112.286 78.5296 124.253 79.4237C128.933 79.7728 141.216 75.901 148.856 70.7574C150.589 69.2299 152.042 68.091 153.278 67.3126Z" fill="#754F50"/>
<path d="M22.7299 45.5935C23.3237 45.5935 23.8932 45.7747 24.3131 46.0971C24.733 46.4196 24.9689 46.857 24.9689 47.313V50.752C24.9689 51.2081 24.733 51.6455 24.3131 51.9679C23.8932 52.2904 23.3237 52.4716 22.7299 52.4716C22.136 52.4716 21.5665 52.2904 21.1466 51.9679C20.7267 51.6455 20.4908 51.2081 20.4908 50.752V47.313C20.4908 46.857 20.7267 46.4196 21.1466 46.0971C21.5665 45.7747 22.136 45.5935 22.7299 45.5935ZM33.1786 45.5935C33.7725 45.5935 34.342 45.7747 34.7619 46.0971C35.1818 46.4196 35.4177 46.857 35.4177 47.313V50.752C35.4177 51.2081 35.1818 51.6455 34.7619 51.9679C34.342 52.2904 33.7725 52.4716 33.1786 52.4716C32.5848 52.4716 32.0153 52.2904 31.5954 51.9679C31.1755 51.6455 30.9396 51.2081 30.9396 50.752V47.313C30.9396 46.857 31.1755 46.4196 31.5954 46.0971C32.0153 45.7747 32.5848 45.5935 33.1786 45.5935Z" fill="#44756A"/>
<path d="M50.4832 68.0458C53.744 68.3071 56.4122 68.3071 58.5191 68.0309C64.9623 67.1843 66.9789 66.6054 70.88 64.0576C71.104 63.9114 71.2883 63.7326 71.4224 63.5316C71.5564 63.3306 71.6376 63.1113 71.6613 62.8863C71.685 62.6612 71.6508 62.4347 71.5605 62.2198C71.4702 62.0049 71.3257 61.8057 71.1353 61.6337C70.9448 61.4617 70.712 61.3201 70.4503 61.2172C70.1886 61.1142 69.9031 61.0519 69.61 61.0337C69.3169 61.0155 69.022 61.0418 68.7422 61.1111C68.4623 61.1804 68.203 61.2914 67.979 61.4377C64.8055 63.5103 63.486 63.8886 57.7631 64.6406C56.1166 64.8566 53.8351 64.8566 50.9475 64.6251C50.3568 64.5778 49.7659 64.7127 49.3047 65C48.8435 65.2873 48.5498 65.7036 48.4883 66.1572C48.4267 66.6108 48.6023 67.0646 48.9764 67.4188C49.3506 67.773 49.8926 67.9985 50.4832 68.0458Z" fill="#754F50"/>
<path d="M54.8994 114.308C48.5503 110.444 45.188 105.078 44.8895 100.301C44.4484 93.2274 46.5754 85.0253 51.2729 75.6947C51.8168 75.6128 52.3651 75.5497 52.9164 75.5055C64.8048 74.5455 75.6298 82.4449 77.0948 93.1489C78.5592 103.853 70.1098 113.308 58.2221 114.267C57.1026 114.357 55.9928 114.369 54.8994 114.308Z" fill="#FFE9BC"/>
<path d="M50.3698 15.5364L38.2179 14.8085C44.12 4.70006 53.5298 0.446562 66.4453 2.048C79.3615 3.64887 85.4016 10.5218 84.565 22.6667H67.9484C67.7768 14.9054 65.5228 10.6106 61.1851 9.78122C56.8473 8.95242 53.2425 10.8702 50.3698 15.5364Z" fill="#FF7173"/>
<path d="M61.7254 8.11267C66.9983 9.12031 69.6277 13.5102 70.1143 20.9471H82.3998C82.5715 10.669 77.2127 5.12416 66.0885 3.74511C55.1904 2.39472 47.1814 5.49615 41.6846 13.2913L49.048 13.7326C52.2633 9.15355 56.5622 7.12568 61.7254 8.11267ZM34.8735 16.3325L36.1744 14.1046C42.4788 3.3095 52.8499 -1.37903 66.802 0.350222C80.937 2.1024 87.6936 9.79149 86.8002 22.7578L86.6875 24.3861H65.7467L65.7094 22.6959C65.5534 15.6367 63.6584 12.0263 60.644 11.4497C57.5183 10.8524 54.8591 12.267 52.3946 16.2712L51.7349 17.343L34.8735 16.3325Z" fill="#754F50"/>
<path d="M64.5249 25.5326C64.5246 26.9628 64.8912 28.3791 65.6037 29.7006C66.3163 31.022 67.3607 32.2227 68.6775 33.2342C69.9944 34.2456 71.5577 35.0479 73.2783 35.5953C74.9989 36.1427 76.843 36.4244 78.7054 36.4244C80.5678 36.4244 82.4119 36.1427 84.1325 35.5953C85.8531 35.0479 87.4164 34.2456 88.7332 33.2342C90.05 32.2227 91.0945 31.022 91.807 29.7006C92.5196 28.3791 92.8862 26.9628 92.8859 25.5326C92.8862 24.1023 92.5196 22.686 91.807 21.3646C91.0945 20.0431 90.05 18.8424 88.7332 17.831C87.4164 16.8196 85.8531 16.0173 84.1325 15.4699C82.4119 14.9225 80.5678 14.6407 78.7054 14.6407C76.843 14.6407 74.9989 14.9225 73.2783 15.4699C71.5577 16.0173 69.9944 16.8196 68.6775 17.831C67.3607 18.8424 66.3163 20.0431 65.6037 21.3646C64.8912 22.686 64.5246 24.1023 64.5249 25.5326Z" fill="#FF7173"/>
<path d="M78.7054 38.1422C69.6374 38.1422 62.2859 32.4965 62.2859 25.5325C62.2859 18.5685 69.6374 12.9227 78.7054 12.9227C87.7734 12.9227 95.1249 18.5685 95.1249 25.5325C95.1249 32.4965 87.7734 38.1422 78.7054 38.1422ZM78.7054 34.7032C85.3001 34.7032 90.6469 30.597 90.6469 25.5325C90.6469 20.468 85.3001 16.3618 78.7054 16.3618C72.1107 16.3618 66.7639 20.468 66.7639 25.5325C66.7639 30.597 72.1107 34.7032 78.7054 34.7032Z" fill="#754F50"/>
<path d="M73.4811 23.813C73.4811 25.3332 74.2674 26.791 75.6671 27.8659C77.0667 28.9408 78.9651 29.5447 80.9445 29.5447C82.9239 29.5447 84.8223 28.9408 86.2219 27.8659C87.6216 26.791 88.4079 25.3332 88.4079 23.813C88.4079 22.2929 87.6216 20.835 86.2219 19.7601C84.8223 18.6852 82.9239 18.0813 80.9445 18.0813C78.9651 18.0813 77.0667 18.6852 75.6671 19.7601C74.2674 20.835 73.4811 22.2929 73.4811 23.813Z" fill="#FFFBDC"/>
<path d="M11.5347 24.9594C11.5347 27.2396 12.7142 29.4264 14.8136 31.0388C16.9131 32.6511 19.7607 33.5569 22.7298 33.5569C25.6989 33.5569 28.5464 32.6511 30.6459 31.0388C32.7454 29.4264 33.9249 27.2396 33.9249 24.9594C33.9249 22.6792 32.7454 20.4923 30.6459 18.88C28.5464 17.2676 25.6989 16.3618 22.7298 16.3618C19.7607 16.3618 16.9131 17.2676 14.8136 18.88C12.7142 20.4923 11.5347 22.6792 11.5347 24.9594Z" fill="#FFE9BC"/>
<path d="M22.7298 35.2765C15.3104 35.2765 9.29565 30.6573 9.29565 24.9594C9.29565 19.2615 15.3104 14.6423 22.7298 14.6423C30.1492 14.6423 36.1639 19.2615 36.1639 24.9594C36.1639 30.6573 30.1492 35.2765 22.7298 35.2765ZM22.7298 31.8375C27.6758 31.8375 31.6859 28.7578 31.6859 24.9594C31.6859 21.161 27.6758 18.0814 22.7298 18.0814C17.7838 18.0814 13.7737 21.161 13.7737 24.9594C13.7737 28.7578 17.7838 31.8375 22.7298 31.8375Z" fill="#754F50"/>
<path d="M16.8284 26.9316C17.3412 27.3877 18.0458 27.6916 18.8198 27.7904C19.5938 27.8892 20.3885 27.7768 21.0658 27.4726C21.7432 27.1684 22.2605 26.6917 22.5279 26.1252C22.7954 25.5587 22.7961 24.9382 22.5301 24.3713C22.264 23.8045 21.7478 23.327 21.0712 23.0219C20.3946 22.7167 19.6002 22.6032 18.826 22.7009C18.0517 22.7986 17.3464 23.1014 16.8325 23.5568C16.3187 24.0121 16.0286 24.5913 16.0127 25.1938L18.5025 25.4718L16.8284 26.9316Z" fill="#232323"/>
<path d="M78.3905 64.0507C80.6802 60.2833 82.1244 57.0873 82.723 54.4622C83.0678 50.0144 83.0678 47.0161 82.723 45.4674C82.6312 45.0564 81.9766 44.3635 80.7593 43.3885C76.6888 42.5368 74.0273 39.4462 74.7125 36.1751C75.5603 32.1257 80.2742 29.2329 85.6046 29.4908L92.0328 29.8021C96.6542 30.0262 100.32 32.7579 100.866 36.1935C102.291 36.8291 103.731 37.9015 103.689 39.2663C103.598 42.2502 101.128 43.459 98.276 43.7679L94.2584 44.2024L96.4571 52.2973C97.037 55.0176 98.276 57.6874 98.276 61.0462L96.4571 71.5237" fill="#F09636"/>
<path d="M94.4719 53.5188C94.5555 53.8432 94.648 54.1802 94.7637 54.5809C94.8077 54.7356 94.8533 54.8927 94.9152 55.1042L95.0667 55.6241C95.7489 57.9718 96.0243 59.3262 96.037 60.9345L94.239 71.2968C94.1961 71.5221 94.2119 71.7517 94.2854 71.9722C94.359 72.1928 94.4888 72.3999 94.6674 72.5816C94.846 72.7633 95.0698 72.916 95.3259 73.0308C95.5819 73.1455 95.8651 73.2201 96.1589 73.2501C96.4528 73.2802 96.7515 73.2651 97.0377 73.2058C97.3239 73.1465 97.5919 73.0442 97.8262 72.9047C98.0605 72.7652 98.2564 72.5914 98.4026 72.3933C98.5487 72.1952 98.6422 71.9768 98.6775 71.7508L100.496 61.2732C100.509 61.1981 100.516 61.1219 100.516 61.0462C100.516 59.0745 100.202 57.5052 99.4373 54.8749L99.285 54.3522L99.1373 53.8415C99.0416 53.512 98.951 53.1816 98.8656 52.8505C98.7943 52.5742 98.7284 52.2971 98.6678 52.0194L96.9408 45.6492L98.5894 45.4709C102.926 45.0021 105.82 42.9054 105.929 39.307C105.98 37.6116 104.769 36.1981 102.909 35.1636C102.364 33.2484 101.022 31.5216 99.0847 30.2447C97.148 28.9677 94.7222 28.2102 92.1747 28.0866L85.7464 27.7754C79.2644 27.4607 73.5325 30.9783 72.5018 35.9024C71.6764 39.8487 74.7006 43.6316 79.5324 44.8977C79.8839 45.1929 80.1578 45.4451 80.3511 45.6497C80.4362 45.7397 80.4989 45.8137 80.5392 45.8675C80.8206 47.2753 80.8146 50.1073 80.4959 54.2611C79.922 56.7016 78.5472 59.7297 76.3619 63.324C76.1174 63.7364 76.0948 64.2063 76.2989 64.6315C76.5031 65.0567 76.9175 65.4027 77.4521 65.5945C77.9868 65.7863 78.5983 65.8082 79.1539 65.6556C79.7095 65.5029 80.1641 65.188 80.419 64.7793C82.7857 60.8863 84.2918 57.5534 84.9284 54.7603C84.9433 54.6961 84.953 54.6313 84.9583 54.566C85.3135 49.9898 85.3135 46.8987 84.9299 45.1792C84.7344 44.3011 83.9126 43.4304 82.3759 42.1998C82.0952 41.9751 81.7402 41.813 81.349 41.731C78.3494 41.1033 76.4261 38.8273 76.9239 36.4492C77.2445 34.9168 78.2968 33.531 79.8756 32.562C81.4544 31.5931 83.4465 31.1104 85.4635 31.2081L91.8918 31.5194C93.582 31.6013 95.1818 32.1342 96.4147 33.0259C97.6476 33.9175 98.4361 35.112 98.6439 36.4028C98.6857 36.6666 98.8065 36.9194 98.997 37.1413C99.1875 37.3632 99.4425 37.5481 99.7418 37.6815C100.846 38.1739 101.465 38.7757 101.452 39.2268C101.398 41.003 100.274 41.8164 97.964 42.0663L93.9472 42.5007C93.6438 42.5335 93.3523 42.6138 93.0909 42.7366C92.8295 42.8593 92.6036 43.022 92.4274 43.2145C92.2512 43.4071 92.1283 43.6253 92.0663 43.8558C92.0043 44.0862 92.0046 44.324 92.0672 44.5544L94.2562 52.6138C94.3189 52.9032 94.3905 53.2018 94.4719 53.5188Z" fill="#754F50"/>
<path d="M92.8859 76.8313C92.8859 77.3633 93.1611 77.8736 93.651 78.2498C94.1408 78.626 94.8053 78.8374 95.4981 78.8374C96.1909 78.8374 96.8553 78.626 97.3452 78.2498C97.835 77.8736 98.1102 77.3633 98.1102 76.8313C98.1102 76.2992 97.835 75.789 97.3452 75.4128C96.8553 75.0365 96.1909 74.8252 95.4981 74.8252C94.8053 74.8252 94.1408 75.0365 93.651 75.4128C93.1611 75.789 92.8859 76.2992 92.8859 76.8313Z" fill="#754F50"/>
<path d="M83.0521 30.577L82.3528 34.1949C82.3038 34.4202 82.3139 34.6507 82.3822 34.873C82.4506 35.0952 82.5759 35.3048 82.7509 35.4895C82.9259 35.6742 83.147 35.8302 83.4014 35.9485C83.6558 36.0669 83.9383 36.1451 84.2325 36.1786C84.5267 36.2122 84.8266 36.2004 85.1147 36.1439C85.4029 36.0874 85.6736 35.9875 85.9109 35.8498C86.1482 35.7121 86.3474 35.5395 86.4969 35.3421C86.6464 35.1447 86.7432 34.9263 86.7816 34.6998L87.4816 31.082C87.5248 30.8586 87.5103 30.6309 87.4388 30.4119C87.3674 30.1928 87.2405 29.9867 87.0654 29.8053C86.8903 29.6239 86.6703 29.4708 86.4182 29.3547C86.166 29.2386 85.8865 29.1618 85.5956 29.1286C85.3048 29.0955 85.0083 29.1066 84.723 29.1615C84.4378 29.2163 84.1694 29.3138 83.9333 29.4483C83.6971 29.5828 83.4977 29.7517 83.3465 29.9453C83.1953 30.139 83.0953 30.3537 83.0521 30.577ZM90.5155 31.1502L89.8162 34.7681C89.7673 34.9933 89.7773 35.2238 89.8456 35.4461C89.914 35.6684 90.0393 35.878 90.2143 36.0627C90.3893 36.2473 90.6104 36.4034 90.8648 36.5217C91.1192 36.64 91.4017 36.7182 91.6959 36.7518C91.9901 36.7853 92.29 36.7735 92.5782 36.7171C92.8663 36.6606 93.137 36.5606 93.3743 36.423C93.6116 36.2853 93.8108 36.1127 93.9603 35.9153C94.1098 35.7178 94.2066 35.4995 94.245 35.273L94.945 31.6552C94.9882 31.4318 94.9737 31.2041 94.9023 30.985C94.8309 30.766 94.704 30.5599 94.5288 30.3785C94.3537 30.1971 94.1337 30.044 93.8816 29.9279C93.6294 29.8118 93.3499 29.7349 93.059 29.7018C92.7682 29.6686 92.4717 29.6798 92.1865 29.7346C91.9012 29.7895 91.6328 29.8869 91.3967 30.0214C91.1605 30.1559 90.9611 30.3248 90.8099 30.5185C90.6587 30.7122 90.5587 30.9268 90.5155 31.1502Z" fill="#754F50"/>
<path d="M31.6859 22.0935C31.6856 23.5237 32.0522 24.94 32.7647 26.2615C33.4773 27.5829 34.5217 28.7837 35.8386 29.7951C37.1554 30.8065 38.7187 31.6088 40.4393 32.1562C42.1599 32.7036 44.004 32.9853 45.8664 32.9853C47.7288 32.9853 49.5729 32.7036 51.2935 32.1562C53.0141 31.6088 54.5774 30.8065 55.8942 29.7951C57.2111 28.7837 58.2555 27.5829 58.9681 26.2615C59.6806 24.94 60.0472 23.5237 60.0469 22.0935C60.0472 20.6632 59.6806 19.2469 58.9681 17.9255C58.2555 16.604 57.2111 15.4033 55.8942 14.3919C54.5774 13.3805 53.0141 12.5782 51.2935 12.0308C49.5729 11.4834 47.7288 11.2017 45.8664 11.2017C44.004 11.2017 42.1599 11.4834 40.4393 12.0308C38.7187 12.5782 37.1554 13.3805 35.8386 14.3919C34.5217 15.4033 33.4773 16.604 32.7647 17.9255C32.0522 19.2469 31.6856 20.6632 31.6859 22.0935Z" fill="#FFE9BC"/>
<path d="M45.8664 34.7033C36.7984 34.7033 29.4469 29.0575 29.4469 22.0935C29.4469 15.1295 36.7984 9.48376 45.8664 9.48376C54.9345 9.48376 62.2859 15.1295 62.2859 22.0935C62.2859 29.0575 54.9345 34.7033 45.8664 34.7033ZM45.8664 31.2642C52.4611 31.2642 57.8079 27.1581 57.8079 22.0935C57.8079 17.029 52.4611 12.9228 45.8664 12.9228C39.2717 12.9228 33.925 17.029 33.925 22.0935C33.925 27.1581 39.2717 31.2642 45.8664 31.2642Z" fill="#754F50"/>
<path d="M38.7448 24.9141C39.4286 25.5222 40.3681 25.9271 41.4001 26.0588C42.4322 26.1904 43.4916 26.0404 44.3947 25.6347C45.2977 25.2291 45.9873 24.5934 46.3438 23.8381C46.7003 23.0827 46.7012 22.2553 46.3463 21.4996C45.9914 20.7438 45.3031 20.1073 44.4009 19.7005C43.4987 19.2937 42.4395 19.1424 41.4072 19.2727C40.3749 19.4031 39.4346 19.8069 38.7495 20.4141C38.0644 21.0213 37.6777 21.7935 37.6566 22.5968L40.9763 22.9676L38.7448 24.9141Z" fill="#232323"/>
</svg>
