<svg width="162" height="145" viewBox="0 0 162 145" fill="none" xmlns="http://www.w3.org/2000/svg">
<path d="M84.8707 112.085C99.9751 106.869 110.614 102.921 116.786 100.243C120.273 98.7286 124.518 96.3503 129.522 93.104C135.18 89.4342 143.669 89.9553 148.483 94.2683C149.217 94.9236 149.838 95.6472 150.332 96.4217C154.306 102.638 150.915 110.132 142.76 113.161C142.168 113.381 141.56 113.573 140.939 113.738C132.964 115.842 126.195 117.324 120.631 118.184C111.409 119.609 100.021 119.331 86.4641 117.348L84.8707 112.086V112.085Z" fill="#E0DBD8"/>
<path d="M84.8708 112.085L86.4649 117.349C100.021 119.331 111.408 119.609 120.631 118.184C126.194 117.325 132.963 115.843 140.939 113.738C141.561 113.574 142.168 113.382 142.759 113.162C150.916 110.133 154.305 102.639 150.332 96.4222C149.837 95.6478 149.216 94.9242 148.483 94.2689C143.668 89.9558 135.179 89.4348 129.522 93.1046C124.518 96.3503 120.273 98.7286 116.785 100.243C110.615 102.921 99.9752 106.869 84.8708 112.085ZM83.0168 108.966C98.0044 103.79 108.543 99.8797 114.563 97.2658C117.771 95.8743 121.804 93.6142 126.611 90.4969C134.159 85.6011 145.484 86.2963 151.906 92.0493C152.883 92.9244 153.711 93.8897 154.372 94.9223C159.432 102.838 155.115 112.383 144.728 116.241C143.975 116.52 143.201 116.765 142.409 116.974C134.26 119.125 127.306 120.648 121.523 121.541C111.663 123.065 99.7056 122.771 85.6181 120.712L82.745 120.292L79.666 110.123L83.0168 108.966Z" fill="#754F50"/>
<path d="M137.595 90.671C141.614 90.526 145.675 91.7514 148.483 94.2683C149.216 94.9237 149.837 95.6473 150.332 96.4217C153.305 101.072 152.156 106.439 147.974 110.115C145.537 107.724 143.487 105.117 141.868 102.352C139.823 98.8513 138.399 94.9578 137.595 90.671ZM97.9041 107.501C102.269 105.932 106.066 104.524 109.3 103.277C109.563 105.763 110.121 108.227 110.969 110.636C111.987 113.535 113.39 116.259 115.177 118.809C111.148 119.123 106.773 119.163 102.047 118.927C100.926 117.052 100.011 115.109 99.311 113.119C98.6672 111.274 98.1972 109.397 97.9048 107.501H97.9041ZM116.779 100.246L116.787 100.242C119.819 98.9261 123.423 96.9559 127.601 94.3317C128.068 98.2475 129.203 101.995 131.006 105.575C132.668 108.876 134.828 111.894 137.485 114.629C133.141 115.725 129.188 116.617 125.628 117.308C123.189 114.684 121.23 111.906 119.753 108.973C118.394 106.273 117.402 103.364 116.779 100.246V100.246Z" fill="#CBC4BF"/>
<path d="M29.6227 63.0065H90.9561L94.6641 85.148V97.4079C94.6641 102.102 94.1099 107.849 93.001 114.65C79.6817 117.233 71.0011 118.525 66.9592 118.525H50.2636C45.6054 118.525 35.0237 116.914 18.5183 113.691C21.2117 107.06 22.5587 101.632 22.5587 97.4079C22.5789 92.023 22.7871 87.6535 23.1832 84.2377C24.0181 77.0425 26.1641 69.9648 29.6227 63.0065Z" fill="#E0DBD8"/>
<path d="M31.4004 127.69L29.8459 121.724C29.8268 121.651 29.8295 121.576 29.854 121.504C29.8784 121.432 29.9239 121.365 29.9871 121.308C30.0503 121.251 30.1294 121.206 30.2187 121.176C30.308 121.146 30.405 121.132 30.5026 121.134L36.9578 121.098C37.2723 121.105 42.1723 120.852 41.9207 121.621C41.5149 127.689 38.4591 130.929 38.5273 131.041L40.2173 133.839C40.3902 134.126 40.4786 134.437 40.4748 134.75C40.4614 135.925 39.1914 136.852 37.637 136.821C22.6351 136.892 14.3102 136.924 12.6614 136.917C12.4749 135.032 13.0537 133.756 14.3963 133.088C16.4098 132.086 23.3098 130.719 25.8317 130.518C26.3985 130.472 27.2753 130.445 28.4622 130.436C28.9059 130.433 29.3434 130.356 29.7434 130.209C30.1435 130.063 30.4963 129.851 30.7768 129.589C31.0573 129.327 31.2586 129.021 31.3663 128.693C31.4741 128.364 31.4857 128.022 31.4004 127.69Z" fill="#E1D6CF"/>
<path d="M33.6033 127.356C33.667 127.601 33.7006 127.849 33.7037 128.098C33.7321 130.313 31.3937 132.126 28.4839 132.148C27.3622 132.157 26.5461 132.182 26.0646 132.221C23.4431 132.429 17.0845 133.795 15.6236 134.522C15.3638 134.651 15.1594 134.869 15.0291 135.202C18.7243 135.193 26.2758 135.162 37.6954 135.109C37.9979 135.114 38.2256 134.949 38.2278 134.735C38.228 134.673 38.2101 134.611 38.1754 134.555L36.4854 131.757C36.1499 131.202 36.2121 130.89 36.4068 130.46C36.4464 130.372 36.4869 130.3 36.5356 130.224C36.5797 130.154 36.6217 130.092 36.7033 129.977C37.365 129.066 37.9132 128.11 38.3409 127.121C38.9144 125.807 39.3322 124.366 39.5494 122.785C39.0079 122.773 38.466 122.774 37.9245 122.787C37.7149 122.792 37.0844 122.81 36.9961 122.811L32.4262 122.837L33.6033 127.356ZM37.0163 119.386L36.9624 119.386H36.9571H37.0163V119.386ZM39.4648 119.356C40.3536 119.372 41.0964 119.423 41.7134 119.532C42.2285 119.622 42.6718 119.751 43.0821 119.975C43.8317 120.386 44.2869 121.057 44.1566 121.807C43.9882 124.163 43.4386 126.29 42.6044 128.201C42.2028 129.129 41.7126 130.034 41.1376 130.907L41.0237 131.079L42.2577 133.123C42.5692 133.638 42.7272 134.199 42.7212 134.764C42.6973 136.9 40.3835 138.588 37.6512 138.533C22.6292 138.603 14.311 138.636 12.6487 138.628C12.0844 138.626 11.5419 138.462 11.1291 138.168C10.7163 137.875 10.4636 137.474 10.4211 137.045C10.1792 134.598 11.0313 132.717 13.1676 131.655C15.3308 130.578 22.3297 129.075 25.5981 128.815C26.251 128.762 27.1878 128.733 28.4382 128.723C28.5517 128.723 28.6637 128.703 28.7663 128.666C28.8689 128.629 28.9595 128.576 29.0318 128.509C29.1042 128.442 29.1564 128.364 29.1849 128.28C29.2134 128.197 29.2175 128.109 29.1967 128.024L27.6423 122.058C27.5581 121.736 27.5693 121.404 27.6748 121.086C27.7804 120.768 27.9778 120.472 28.2526 120.219C28.5273 119.967 28.8726 119.764 29.2631 119.626C29.6537 119.488 30.0797 119.419 30.5101 119.422L36.9017 119.387C36.594 119.384 38.6224 119.341 39.4648 119.356Z" fill="#754F50"/>
<path d="M54.3602 114.524C51.6864 120.54 48.5759 124.075 45.0304 125.129C41.485 126.184 37.7216 126.71 33.7418 126.71C24.3446 126.71 17.4708 119.87 17.4708 114.342C17.4708 111.996 19.3675 105.983 23.1616 96.3007" fill="#E0DBD8"/>
<path d="M52.2329 113.974C49.753 119.553 46.9728 122.714 44.2143 123.534C40.9316 124.51 37.446 124.999 33.7426 124.999C26.3154 124.999 19.7179 119.523 19.7179 114.342C19.7179 112.235 21.5959 106.28 25.3143 96.7903C25.4024 96.5741 25.4333 96.3467 25.4053 96.1212C25.3773 95.8958 25.2909 95.6769 25.1512 95.4771C25.0114 95.2773 24.821 95.1006 24.5911 94.9572C24.3611 94.8139 24.0961 94.7067 23.8115 94.642C23.5268 94.5772 23.2281 94.5561 22.9327 94.5799C22.6373 94.6037 22.351 94.672 22.0904 94.7807C21.8298 94.8894 21.6001 95.0365 21.4146 95.2133C21.2291 95.3901 21.0914 95.5933 21.0096 95.811C17.1406 105.685 15.2252 111.757 15.2252 114.343C15.2252 121.353 23.7441 128.424 33.7426 128.424C37.9986 128.424 42.0383 127.858 45.8473 126.725C50.1805 125.436 53.6204 121.527 56.4883 115.073C56.5829 114.86 56.6216 114.635 56.6021 114.411C56.5826 114.186 56.5054 113.967 56.3747 113.766C56.2441 113.564 56.0626 113.384 55.8407 113.236C55.6187 113.088 55.3607 112.974 55.0813 112.902C54.517 112.756 53.8999 112.788 53.3657 112.989C52.8316 113.19 52.4241 113.544 52.2329 113.974Z" fill="#754F50"/>
<path d="M79.3732 129.059L80.3923 122.999C80.4052 122.926 80.396 122.851 80.3653 122.78C80.3347 122.71 80.2835 122.645 80.2155 122.592C80.1475 122.539 80.0645 122.498 79.9728 122.473C79.8811 122.448 79.7831 122.439 79.6862 122.446L72.4979 122.763C72.1849 122.786 67.1696 122.78 67.1299 123.017C70.3144 129.411 71.8779 132.665 71.821 132.781L71.1418 135.668C70.9953 135.963 70.9355 136.278 70.9666 136.592C70.994 136.87 71.0943 137.141 71.2616 137.389C71.4289 137.636 71.6598 137.856 71.9406 138.035C72.2215 138.213 72.5465 138.347 72.8963 138.428C73.2462 138.509 73.6139 138.535 73.9775 138.506C88.9276 137.758 97.2234 137.336 98.8647 137.239C98.8819 135.347 98.193 134.103 96.7951 133.509C94.7 132.617 87.7049 131.628 85.1747 131.565C84.6027 131.551 83.7206 131.572 82.5285 131.628C82.0883 131.649 81.6475 131.595 81.2375 131.471C80.8276 131.347 80.4587 131.155 80.1573 130.91C79.8558 130.664 79.6292 130.371 79.4936 130.051C79.3581 129.731 79.317 129.392 79.3732 129.059Z" fill="#E1D6CF"/>
<path d="M69.4287 132.66C69.2475 132.253 68.9622 131.647 68.5773 130.844C67.7986 129.224 66.614 126.817 65.0251 123.626C64.8946 123.363 64.8509 123.08 64.8978 122.801C64.9659 122.369 65.2479 121.973 65.6863 121.694C65.8884 121.564 66.0854 121.476 66.2913 121.408C66.4957 121.339 66.6866 121.298 66.8978 121.264C67.1757 121.223 67.4565 121.194 67.7387 121.178C68.2329 121.143 68.8693 121.119 69.6451 121.101L69.8697 121.095C70.6559 121.078 72.316 121.058 72.2733 121.061L79.5223 120.74C79.951 120.714 80.3818 120.762 80.7834 120.879C81.185 120.996 81.5472 121.18 81.8436 121.418C82.1399 121.656 82.363 121.941 82.4965 122.252C82.6301 122.564 82.6707 122.894 82.6155 123.219L81.5971 129.278C81.5831 129.361 81.5934 129.446 81.6274 129.526C81.6613 129.606 81.718 129.679 81.7934 129.741C81.8688 129.802 81.9611 129.85 82.0635 129.881C82.166 129.912 82.2763 129.925 82.3863 129.92C83.6428 129.861 84.5855 129.839 85.2437 129.855C88.5233 129.937 95.6323 131.057 97.8853 132.015C100.112 132.962 101.129 134.795 101.107 137.252C101.103 137.682 100.887 138.094 100.503 138.408C100.119 138.722 99.5947 138.914 99.0332 138.947C97.3769 139.046 89.0894 139.467 74.1924 140.212C71.3965 140.421 68.936 138.857 68.7211 136.724C68.6703 136.221 68.7502 135.715 68.9562 135.235L69.5148 132.859C69.4875 132.792 69.4588 132.725 69.4287 132.659V132.66ZM79.9019 124.152L79.8367 124.155C79.8592 124.155 79.8817 124.153 79.9019 124.152ZM72.6237 124.474C72.2501 124.484 70.9487 124.501 70.2726 124.512C74.7899 133.583 74.3609 132.756 73.9805 133.283L73.3478 135.971C73.3238 136.075 73.2864 136.177 73.2385 136.275C73.2081 136.335 73.1955 136.399 73.2018 136.462C73.2227 136.675 73.4579 136.825 73.8263 136.798C85.1606 136.231 92.6753 135.851 96.3496 135.659C96.1909 135.329 95.9677 135.121 95.6981 135.005C94.1796 134.359 87.7259 133.343 85.0977 133.277C84.6125 133.265 83.791 133.285 82.6641 133.338C81.8937 133.374 81.1222 133.28 80.4049 133.063C79.6875 132.846 79.042 132.51 78.5144 132.081C77.9868 131.651 77.5901 131.138 77.3527 130.578C77.1153 130.019 77.0431 129.426 77.1411 128.842L77.9154 124.24L72.623 124.474H72.6237Z" fill="#754F50"/>
<path d="M55.0393 115.015C57.7132 121.798 60.8236 125.716 64.3691 126.77C67.9146 127.825 71.6772 128.351 75.6577 128.351C85.0549 128.351 90.2739 121.762 92.223 116.386C93.1627 113.798 93.913 108.927 94.4731 101.777" fill="#E0DBD8"/>
<path d="M57.1905 114.522C59.6795 120.836 62.4874 124.373 65.186 125.175C68.4687 126.151 71.955 126.639 75.6577 126.639C82.5712 126.639 87.782 122.2 90.0575 115.929C90.9426 113.491 91.6794 108.71 92.2305 101.674C92.2718 101.224 92.5444 100.805 92.9891 100.507C93.4338 100.209 94.0146 100.058 94.6054 100.084C95.1961 100.111 95.7491 100.315 96.1441 100.651C96.5391 100.987 96.7442 101.428 96.7149 101.878C96.1459 109.144 95.3821 114.102 94.3877 116.842C91.6352 124.427 85.019 130.063 75.657 130.063C71.4009 130.063 67.3612 129.498 63.5522 128.365C59.1591 127.058 55.7461 122.759 52.8873 115.507C52.7159 115.073 52.7782 114.604 53.0606 114.204C53.3429 113.804 53.8221 113.506 54.3927 113.375C54.9634 113.244 55.5787 113.292 56.1034 113.507C56.6281 113.722 57.0192 114.087 57.1905 114.522Z" fill="#754F50"/>
<path d="M52.5804 68.954C64.0644 68.954 73.3748 76.0505 73.3748 84.8038V94.3236C73.3748 103.078 64.0644 110.173 52.5804 110.173C41.0963 110.173 31.786 103.078 31.786 94.3236V84.8038C31.786 76.05 41.0963 68.954 52.5804 68.954Z" fill="white"/>
<path d="M56.4837 116.21C56.7114 115.373 56.8708 114.687 56.9629 114.143C57.1419 113.087 57.2318 112.072 57.2318 111.098C57.2318 110.644 56.9951 110.208 56.5738 109.887C56.1526 109.566 55.5812 109.386 54.9854 109.386C54.3897 109.386 53.8183 109.566 53.397 109.887C52.9757 110.208 52.7391 110.644 52.7391 111.098C52.7391 111.922 52.662 112.791 52.507 113.703C52.4313 114.15 52.2898 114.756 52.0839 115.514C51.9754 115.955 52.0983 116.411 52.426 116.784C52.7537 117.156 53.2601 117.416 53.8364 117.507C54.4127 117.598 55.0129 117.513 55.5079 117.271C56.0029 117.028 56.3533 116.647 56.4837 116.21Z" fill="#754F50"/>
<path d="M52.4156 106.382C52.4155 106.682 52.4929 106.979 52.6434 107.256C52.7938 107.533 53.0144 107.785 53.2926 107.997C53.5707 108.209 53.9009 108.377 54.2644 108.492C54.6278 108.607 55.0174 108.666 55.4108 108.666C55.8042 108.666 56.1937 108.607 56.5572 108.492C56.9206 108.377 57.2508 108.209 57.529 107.997C57.8071 107.785 58.0277 107.533 58.1782 107.256C58.3286 106.979 58.406 106.682 58.4059 106.382C58.406 106.082 58.3286 105.785 58.1782 105.508C58.0277 105.231 57.8071 104.979 57.529 104.767C57.2508 104.555 56.9206 104.387 56.5572 104.272C56.1937 104.157 55.8042 104.098 55.4108 104.098C55.0174 104.098 54.6278 104.157 54.2644 104.272C53.9009 104.387 53.5707 104.555 53.2926 104.767C53.0144 104.979 52.7938 105.231 52.6434 105.508C52.4929 105.785 52.4155 106.082 52.4156 106.382Z" fill="#754F50"/>
<path d="M36.9353 83.3046C34.5549 83.6887 31.3778 84.2668 27.4041 85.039C26.9301 85.1309 26.4339 85.1329 25.9586 85.045C25.4834 84.957 25.0436 84.7817 24.6777 84.5345C24.3117 84.2872 24.0308 83.9754 23.8593 83.6263C23.6878 83.2772 23.631 82.9014 23.6939 82.5318L25.7867 70.2936L12.9541 80.5445C11.1768 81.9642 9.88405 83.6948 9.18935 85.5844C8.49466 87.4739 8.41928 89.4646 8.96984 91.3815L9.78077 94.2049C9.93877 94.7557 10.1799 95.2899 10.4981 95.799C12.7916 99.4603 18.5452 101.012 23.3487 99.2628L41.6429 92.6052C43.0007 93.1573 44.5514 93.3712 46.0769 93.2169C47.6025 93.0626 49.0263 92.5479 50.1483 91.7451L52.6282 89.9713C52.9113 89.7687 53.1741 89.5501 53.4152 89.3172C56.0973 86.7284 55.5178 82.9718 52.1206 80.9275L50.6904 80.0662C49.0891 79.1026 47.0941 78.5988 45.0547 78.643C43.0153 78.6873 41.0612 79.2767 39.5343 80.3082C38.3383 81.116 37.442 82.1494 36.9353 83.3046Z" fill="#E0DBD8"/>
<path d="M38.0466 79.0269C39.968 77.7291 42.4269 76.9875 44.9932 76.9318C47.5594 76.8762 50.0697 77.5102 52.0847 78.7227L53.5149 79.5834C57.8855 82.2139 58.6313 87.0474 55.1802 90.3788C54.8703 90.6779 54.5316 90.9591 54.1671 91.22L51.6871 92.9938C50.3709 93.9357 48.7332 94.5758 46.9617 94.841C45.1901 95.1062 43.3564 94.9856 41.6707 94.4932L24.3169 100.808C18.3941 102.964 11.3001 101.051 8.47199 96.537C8.07929 95.9097 7.78233 95.2502 7.58693 94.5713L6.776 91.7474C6.14651 89.5566 6.23251 87.2816 7.02644 85.1221C7.82038 82.9627 9.29794 80.9849 11.3293 79.3625L28.901 65.3248L25.9208 82.7538C25.9051 82.8462 25.9192 82.9401 25.9621 83.0273C26.0049 83.1145 26.0751 83.1925 26.1665 83.2543C26.2579 83.3161 26.3678 83.3599 26.4866 83.3819C26.6054 83.4039 26.7294 83.4034 26.8478 83.3804C30.233 82.723 33.0485 82.2036 35.297 81.8241C35.9545 80.7589 36.8901 79.8071 38.0466 79.0269ZM22.6711 75.2618L14.5798 81.7259C13.0566 82.9428 11.9486 84.4262 11.3532 86.0457C10.7577 87.6653 10.693 89.3715 11.1646 91.0145L11.9755 93.8385C12.0968 94.2603 12.2818 94.6707 12.5259 95.061C14.2848 97.869 18.6973 99.0584 22.3813 97.7178L41.7006 90.6869L42.7017 91.095C43.6454 91.4784 44.7228 91.6269 45.7829 91.5196C46.8429 91.4124 47.8322 91.0547 48.6119 90.4969L51.0918 88.7231C51.6779 88.3034 52.1384 87.7924 52.4418 87.2248C52.7453 86.6572 52.8846 86.0465 52.8503 85.4341C52.8159 84.8218 52.6088 84.2223 52.2429 83.6765C51.877 83.1307 51.3611 82.6515 50.7302 82.2715L49.3 81.4108C48.1123 80.6962 46.6328 80.3226 45.1203 80.3554C43.6078 80.3881 42.1585 80.8252 41.026 81.5901C40.1232 82.1983 39.447 82.9773 39.0657 83.8484L38.6576 84.7776L37.3996 84.9802C35.0544 85.358 31.9051 85.931 27.9583 86.6987C27.1288 86.8596 26.2602 86.8633 25.4285 86.7095C24.5967 86.5557 23.827 86.2489 23.1865 85.8161C22.5461 85.3833 22.0544 84.8376 21.7544 84.2265C21.4544 83.6155 21.3553 82.9578 21.4656 82.3109L22.6711 75.2618Z" fill="#754F50"/>
<path d="M47.9806 80.0708L44.4801 82.5317C44.3333 82.6329 44.2144 82.7553 44.1301 82.8917C44.0458 83.0282 43.9978 83.176 43.9889 83.3267C43.9799 83.4773 44.0103 83.6278 44.0781 83.7695C44.146 83.9112 44.25 84.0412 44.3841 84.1521C44.5183 84.2629 44.6799 84.3524 44.8597 84.4154C45.0395 84.4783 45.2339 84.5135 45.4317 84.5188C45.6294 84.5242 45.8266 84.4996 46.0118 84.4466C46.197 84.3935 46.3666 84.313 46.5107 84.2097L50.0105 81.7487C50.293 81.5418 50.4578 81.2587 50.4696 80.9602C50.4814 80.6617 50.3393 80.3715 50.0737 80.152C49.8081 79.9324 49.4402 79.801 49.0489 79.7858C48.6576 79.7706 48.2741 79.8729 47.9806 80.0708ZM51.0064 82.9444L47.5059 85.4054C47.3592 85.5066 47.2402 85.6289 47.1559 85.7654C47.0716 85.9018 47.0236 86.0496 47.0147 86.2003C47.0058 86.3509 47.0361 86.5015 47.104 86.6431C47.1718 86.7848 47.2758 86.9148 47.41 87.0257C47.5441 87.1365 47.7058 87.226 47.8856 87.289C48.0654 87.3519 48.2598 87.3871 48.4575 87.3925C48.6552 87.3978 48.8524 87.3733 49.0376 87.3202C49.2228 87.2671 49.3924 87.1866 49.5366 87.0833L53.0364 84.6223C53.181 84.5208 53.2979 84.3985 53.3805 84.2625C53.463 84.1265 53.5096 83.9794 53.5175 83.8297C53.5254 83.6799 53.4946 83.5305 53.4267 83.3898C53.3587 83.2492 53.2551 83.1201 53.1217 83.01C52.9886 82.8998 52.8282 82.8106 52.6498 82.7476C52.4713 82.6846 52.2784 82.6491 52.0819 82.643C51.8855 82.6369 51.6894 82.6604 51.5048 82.7121C51.3203 82.7638 51.1509 82.8427 51.0064 82.9444ZM26.7766 83.3051C22.4404 84.1623 19.8616 84.821 18.6786 85.4373C18.1868 85.6935 17.8486 86.0881 17.7385 86.5344C17.6284 86.9806 17.7554 87.4419 18.0915 87.8167C18.4276 88.1916 18.9454 88.4493 19.5308 88.5332C20.1162 88.6172 20.7214 88.5204 21.2132 88.2642C21.4348 88.1489 22.12 87.9257 23.1683 87.6581C24.3446 87.3579 25.926 87.0103 27.905 86.6193C28.1943 86.5655 28.4667 86.4684 28.7063 86.3337C28.9459 86.199 29.148 86.0293 29.3007 85.8345C29.4535 85.6397 29.554 85.4236 29.5962 85.199C29.6385 84.9743 29.6217 84.7455 29.547 84.5258C29.4722 84.3061 29.3408 84.1 29.1606 83.9194C28.9803 83.7387 28.7547 83.5872 28.4969 83.4736C28.2391 83.36 27.9543 83.2866 27.659 83.2577C27.3637 83.2288 27.0637 83.2449 26.7766 83.3051Z" fill="#754F50"/>
<path d="M24.6621 26.515C22.88 22.5393 21.789 19.3392 21.3899 16.9141C21.1713 15.5775 21.0725 13.9338 21.0949 11.983C21.1316 8.73727 23.488 5.77802 27.2042 4.30896C30.5251 2.99627 33.464 3.74907 35.5471 6.15356L47.115 16.9141" fill="#E0DBD8"/>
<path d="M37.3547 5.1337C34.6164 2.03406 30.4502 1.09692 26.1694 2.78914C21.7111 4.55155 18.8927 8.09123 18.8478 11.9682C18.8246 13.9897 18.9272 15.7065 19.1608 17.1276C19.5816 19.6874 20.7078 22.9925 22.5363 27.0692C22.6317 27.282 22.7812 27.4784 22.9762 27.6471C23.1712 27.8159 23.4079 27.9537 23.6728 28.0527C23.9377 28.1517 24.2255 28.21 24.52 28.2242C24.8144 28.2385 25.1096 28.2084 25.3888 28.1356C25.6679 28.0629 25.9256 27.9489 26.147 27.8003C26.3684 27.6517 26.5492 27.4713 26.6791 27.2694C26.809 27.0675 26.8855 26.8481 26.9042 26.6236C26.9228 26.3992 26.8833 26.1742 26.7879 25.9614C25.0507 22.0873 23.9949 18.9922 23.6198 16.7013C23.4139 15.4485 23.3195 13.8785 23.3412 11.9979C23.3712 9.38223 25.2649 7.00399 28.2383 5.82828C30.4434 4.95677 32.1634 5.35286 33.6729 7.09531L33.7366 7.1695L45.3771 17.9986C45.5625 18.1762 45.7923 18.3239 46.0533 18.4332C46.3142 18.5424 46.6011 18.6111 46.8971 18.6351C47.1932 18.6591 47.4926 18.6381 47.7778 18.5731C48.0631 18.5082 48.3286 18.4006 48.5589 18.2568C48.7892 18.1129 48.9796 17.9356 49.1192 17.7352C49.2588 17.5347 49.3447 17.3151 49.3719 17.0891C49.3991 16.8631 49.3671 16.6352 49.2778 16.4188C49.1884 16.2023 49.0435 16.0015 48.8514 15.8281L37.3539 5.1337H37.3547Z" fill="#754F50"/>
<path d="M29.1158 11.8986C29.5807 11.6342 30.1145 11.449 30.6812 11.3552C31.248 11.2615 31.8345 11.2615 32.4013 11.3552C32.9681 11.4488 33.5019 11.634 33.9668 11.8983C34.4317 12.1626 34.8169 12.4997 35.0963 12.8871L38.3528 17.4004C38.6828 17.8576 38.8819 18.363 38.9369 18.8832C38.9919 19.4034 38.9015 19.9266 38.6718 20.4182C38.442 20.9098 38.0781 21.3587 37.604 21.7352C37.1299 22.1118 36.5565 22.4074 35.9215 22.6026C34.5755 23.0167 33.0692 23.0083 31.7313 22.5792C30.3934 22.1502 29.3324 21.3353 28.7796 20.3123L27.1548 17.3068C26.6469 16.3674 26.564 15.3258 26.9191 14.3465C27.2742 13.3671 28.0471 12.5058 29.1158 11.8986Z" fill="white"/>
<path d="M54.8649 14.0262H69.3965C85.1209 14.0262 98.5465 22.6842 101.149 34.5052L105.509 54.3051H17.3218L23.4273 33.2679C26.689 22.0279 39.7627 14.0262 54.8649 14.0262Z" fill="#E0DBD8"/>
<path d="M98.065 28.7654C100.178 24.0158 101.471 20.1924 101.944 17.2948C102.204 15.6979 102.321 13.734 102.294 11.4032C102.249 7.52561 99.4562 3.98992 95.0527 2.23435C91.1171 0.665981 86.3099 2.87985 83.8427 5.75348L71.4541 17.2954" fill="#E0DBD8"/>
<path d="M96.0935 0.716777C101.238 2.76742 104.487 6.88296 104.54 11.3883C104.567 13.7894 104.446 15.8263 104.172 17.506C103.678 20.5371 102.35 24.4649 100.193 29.315C100.1 29.5293 99.9518 29.7274 99.7576 29.898C99.5634 30.0685 99.327 30.2081 99.0617 30.3086C98.7965 30.4092 98.5078 30.4688 98.2123 30.484C97.9167 30.4992 97.6201 30.4697 97.3396 30.3972C97.0591 30.3247 96.8001 30.2106 96.5776 30.0615C96.3552 29.9124 96.1736 29.7312 96.0434 29.5284C95.9132 29.3256 95.8369 29.1052 95.8189 28.8798C95.8009 28.6544 95.8415 28.4286 95.9385 28.2152C98.0066 23.566 99.2631 19.8466 99.7138 17.0837C99.9609 15.5695 100.073 13.6787 100.048 11.418C100.01 8.16768 97.6757 5.21186 94.0111 3.75136C91.615 2.79652 87.934 4.11434 85.7214 6.69062L85.6555 6.76653L73.1913 18.3786C72.814 18.7301 72.2689 18.9529 71.6761 18.9981C71.0832 19.0433 70.4911 18.9071 70.0299 18.6195C69.5688 18.3319 69.2765 17.9165 69.2172 17.4646C69.1579 17.0127 69.3366 16.5613 69.714 16.2099L82.0306 4.73644C85.3792 0.903975 91.3028 -1.19232 96.0927 0.716777H96.0935Z" fill="#754F50"/>
<path d="M92.897 10.0169C92.3601 9.70328 91.7401 9.48243 91.0801 9.36964C90.4201 9.25685 89.7358 9.25481 89.0746 9.36367C88.4135 9.47253 87.7913 9.68967 87.2512 10.0001C86.7111 10.3104 86.266 10.7066 85.9468 11.1612L82.0674 16.6853C81.6853 17.2287 81.4569 17.827 81.3968 18.4418C81.3366 19.0565 81.4461 19.6741 81.7182 20.2546C81.9903 20.8352 82.4189 21.3658 82.9765 21.8124C83.534 22.259 84.2082 22.6116 84.9554 22.8475C86.5041 23.3366 88.2443 23.3367 89.7931 22.8479C91.342 22.3591 92.5726 21.4213 93.2144 20.241C93.2242 20.2244 93.2324 20.2067 93.2414 20.1902L95.2107 16.4479C95.7988 15.3304 95.8911 14.0969 95.4733 12.9357C95.0555 11.7745 94.1507 10.7494 92.897 10.0169Z" fill="white"/>
<path d="M38.5108 22.7088C43.6788 22.2762 47.0012 22.4446 50.9038 23.8297C55.6331 21.9885 60.3939 21.3025 70.8663 21.5257C84.0299 21.8065 98.0972 29.9771 104.609 35.6696C109.871 40.2691 113.904 47.1652 116.062 48.3769C114.26 49.3043 113.26 52.3943 107.981 54.0505C105.363 54.8724 109.88 56.5521 107.981 57.5097C106.852 58.0793 85.7251 71.3934 56.3856 71.5663C23.1263 71.7621 8.45995 54.768 7.51499 54.0511C6.75872 53.4775 9.60183 51.9617 9.09641 51.2094C8.59098 50.4572 3.17131 47.2925 2.24731 46.5488C4.45921 45.9969 13.6198 35.2672 16.5984 32.9523C22.5363 28.3391 29.4992 23.4633 38.5108 22.7088Z" fill="white"/>
<path d="M111.157 46.1733C110.765 45.6859 109.315 43.8476 109.175 43.6718C108.454 42.7569 107.711 41.8514 106.949 40.9557C105.536 39.304 104.222 37.9359 102.916 36.7945C94.8071 29.7066 81.4317 23.4633 70.802 23.2373C61.0611 23.0296 56.4696 23.5849 51.9245 25.3547C51.6204 25.4731 51.2849 25.537 50.9436 25.5418C50.6022 25.5465 50.2639 25.4919 49.9544 25.3821C46.6613 24.2133 43.8616 23.9833 38.7549 24.4108C31.81 24.9923 26.2248 27.9168 18.2009 34.1514C17.2327 34.9036 16.5229 35.6228 11.7831 40.555L11.4611 40.8901C8.78871 43.6655 7.02084 45.4445 5.68876 46.5608C6.25184 46.9181 6.93623 47.3507 7.06202 47.4312L7.27767 47.5682C9.70822 49.1183 10.6614 49.7832 11.095 50.4287C11.5892 51.1638 11.4649 51.8795 11.0291 52.5604C10.8187 52.8891 10.5701 53.1665 10.168 53.5672L10.0227 53.711C10.7153 54.3605 11.6633 55.2337 12.3739 55.8312C14.8345 57.8983 17.5638 59.7698 20.5199 61.417C30.0968 66.7705 41.9447 69.9392 56.3677 69.8541C69.0333 69.7799 81.0767 67.2259 92.1729 62.9979C95.7181 61.6501 99.1448 60.1282 102.431 58.4418C103.565 57.8503 104.686 57.2441 105.792 56.6234C105.657 56.4716 105.53 56.3148 105.414 56.1537C105.16 55.8016 104.988 55.4597 104.922 55.0716C104.719 53.8833 105.619 52.9411 107.125 52.4679C108.699 51.9742 109.887 51.3185 110.918 50.4584C111.382 50.0714 112.406 49.011 113.03 48.3666C112.502 47.8142 111.903 47.1036 111.157 46.1733ZM4.39561 50.1936L4.18521 50.0594C4.00176 49.943 2.48997 48.9865 2.10584 48.7405C1.34733 48.2542 0.900305 47.954 0.616517 47.7257C-0.517137 46.8137 -0.0184483 45.3121 1.54875 44.9211C1.51356 44.8892 1.67455 44.7779 1.86998 44.6289C2.29379 44.3047 2.83441 43.8362 3.48061 43.2335C4.59779 42.1913 5.90516 40.8735 7.84076 38.8634L8.16048 38.5306C13.2155 33.2708 13.7861 32.6926 14.9953 31.7532C23.6999 24.99 29.9822 21.7003 38.2659 21.0063C43.6482 20.5555 47.1225 20.7683 50.8537 21.9423C55.869 20.1571 61.1352 19.6046 70.93 19.8135C83.0258 20.0715 97.4488 26.8027 106.304 34.5435C107.765 35.8208 109.196 37.3104 110.714 39.0848C111.441 39.9341 112.154 40.8073 113.02 41.8985C113.169 42.0852 114.609 43.9121 114.99 44.3858C116.25 45.9547 117.046 46.8017 117.396 46.998C118.646 47.6995 118.606 49.1331 117.32 49.7952C117.248 49.8323 117.131 49.9179 116.97 50.064C116.937 50.0931 115.111 52.0393 114.235 52.7693C113.028 53.7845 111.584 54.621 109.978 55.2365C110.333 55.6646 110.523 55.9773 110.641 56.4134C110.909 57.4053 110.385 58.3505 109.221 58.9377C109.603 58.7454 106.813 60.3195 104.945 61.2806C101.497 63.05 97.9022 64.6467 94.1826 66.0605C82.5129 70.507 69.8166 73.1986 56.4037 73.2779C40.9706 73.3687 28.1919 69.9517 17.8639 64.1782C14.6634 62.3945 11.7086 60.3679 9.04479 58.1296C8.10526 57.3401 7.2063 56.5232 6.34993 55.6806L6.07064 55.4072C4.88457 54.4689 4.9557 53.5163 5.5375 52.6591C5.76438 52.3247 5.93736 52.1415 6.4967 51.5901C5.93062 51.1849 5.27843 50.7574 4.39561 50.1936Z" fill="#754F50"/>
<path d="M28.2225 31.9421C30.6044 31.0397 34.0008 30.0296 38.4119 28.9104C46.4793 27.6331 53.7874 28.718 58.4013 33.204C62.6724 37.3566 61.6488 43.3225 56.1146 46.5271C56.0427 46.5688 55.9708 46.6093 55.8982 46.6498C51.0543 49.3328 47.8196 50.9258 46.1955 51.4286C44.6477 51.9074 41.2408 52.6984 35.9754 53.8011C28.2577 55.4174 20.0391 53.0529 15.7396 47.9796L11.9193 43.7014C9.7995 41.1999 13.4775 39.4683 16.6606 37.8041C20.4262 35.8362 23.3921 33.7713 28.2225 31.9421Z" fill="#B2B0C5"/>
<path d="M77.3987 31.1779C73.7588 30.0376 68.8439 28.9195 60.3677 28.4954C52.1543 28.0845 46.4965 29.0821 41.6931 33.866C37.6242 37.9182 38.5999 43.7385 43.8713 46.8662C44.1064 47.0054 44.3482 47.1384 44.5961 47.2639C52.0465 51.0439 56.6956 53.227 58.5444 53.8125C60.3707 54.3918 65.6825 55.394 74.4777 56.8191C82.5083 58.1204 90.3968 55.902 94.8003 50.5788L101.162 44.0439C103.302 41.4562 99.0527 40.6703 95.8134 38.9678C92.4327 37.19 81.0392 32.3182 77.3987 31.1779Z" fill="#B2B0C5"/>
<path d="M43.0401 50.581C45.2542 50.3585 46.1408 50.2666 47.0947 50.278C48.0487 50.2894 49.1509 50.4281 50.8484 50.593C52.5459 50.7574 53.7065 51.9605 53.4706 53.2464C53.4549 53.3325 53.4332 53.4181 53.4047 53.5026C52.9075 54.9905 49.8787 56.0315 47.8682 56.0315H46.1408C45.0483 56.0312 43.9787 55.793 43.0578 55.345C42.1369 54.897 41.4031 54.2578 40.9428 53.5026C40.6393 53.0063 40.6066 52.4385 40.8519 51.9238C41.0971 51.4091 41.6003 50.9896 42.2509 50.7574C42.4164 50.698 42.6799 50.6393 43.0401 50.581Z" fill="#8B674F"/>
<path d="M43.0401 50.5811C42.68 50.6393 42.4164 50.6981 42.2502 50.7574C41.5997 50.9898 41.0967 51.4093 40.8515 51.9239C40.6062 52.4386 40.6388 53.0063 40.9421 53.5027C41.4026 54.2577 42.1364 54.8969 43.0572 55.3449C43.9781 55.7929 45.0476 56.0311 46.1401 56.0316H47.869C49.8795 56.0316 52.9076 54.9906 53.4055 53.5027C53.434 53.4182 53.4557 53.3332 53.4714 53.2464C53.7065 51.9606 52.5467 50.7574 50.8492 50.5931C49.1509 50.4281 48.0495 50.2894 47.0955 50.278C46.1416 50.2666 45.2543 50.3585 43.0401 50.5811ZM42.4516 47.1864C45.3194 46.8976 45.881 46.8514 46.963 46.8531L47.1637 46.8542C47.7919 46.8616 48.4149 46.9022 49.2385 46.9792C49.5995 47.0129 51.0611 47.1618 51.4145 47.1961C55.6054 47.6019 58.4995 50.5526 57.9199 53.7201C57.881 53.9313 57.8271 54.1413 57.7582 54.3485C56.7099 57.4852 51.9806 59.4565 47.8683 59.4565H46.1408C44.1927 59.4561 42.2853 59.0316 40.6429 58.2331C39.0005 57.4345 37.6913 56.2952 36.8694 54.9489C35.1922 52.2031 36.7474 48.9385 40.3475 47.6561C40.8911 47.4626 41.4445 47.3393 42.1116 47.232L42.2809 47.2046L42.4516 47.1864Z" fill="#754F50"/>
<path d="M28.3551 38.062C28.3551 40.0743 29.3603 42.0042 31.1496 43.4271C32.9389 44.85 35.3656 45.6493 37.8961 45.6493C40.4265 45.6493 42.8533 44.85 44.6425 43.4271C46.4318 42.0042 47.437 40.0743 47.437 38.062C47.437 36.0498 46.4318 34.1199 44.6425 32.697C42.8533 31.2741 40.4265 30.4747 37.8961 30.4747C35.3656 30.4747 32.9389 31.2741 31.1496 32.697C29.3603 34.1199 28.3551 36.0498 28.3551 38.062Z" fill="white"/>
<path d="M37.8961 47.361C31.3645 47.361 26.1088 43.1821 26.1088 38.0621C26.1088 32.942 31.3645 28.7626 37.8961 28.7626C44.4277 28.7626 49.6834 32.942 49.6834 38.0621C49.6834 43.1821 44.4277 47.361 37.8961 47.361ZM37.8961 43.9366C41.9028 43.9366 45.1907 41.3221 45.1907 38.0621C45.1907 34.8021 41.9028 32.187 37.8961 32.187C33.8893 32.187 30.6014 34.8015 30.6014 38.0621C30.6014 41.3227 33.8893 43.9366 37.8961 43.9366Z" fill="#754F50"/>
<path d="M31.5126 39.9518C31.8106 40.216 32.18 40.428 32.5955 40.5732C33.011 40.7184 33.4628 40.7934 33.9199 40.793C34.3379 40.7928 34.7518 40.7298 35.1379 40.6077C35.5239 40.4856 35.8747 40.3067 36.17 40.0812C36.4654 39.8558 36.6996 39.5882 36.8593 39.2937C37.019 38.9993 37.101 38.6838 37.1008 38.3652C37.1011 38.0465 37.0192 37.7309 36.8595 37.4365C36.6999 37.142 36.4657 36.8744 36.1703 36.6489C35.8749 36.4234 35.5241 36.2445 35.138 36.1224C34.7519 36.0003 34.338 35.9374 33.9199 35.9373C33.0869 35.9377 32.2873 36.1871 31.6928 36.6318C31.0982 37.0766 30.7561 37.6812 30.7399 38.3161L33.0978 38.5775L31.5126 39.9518Z" fill="#232323"/>
<path d="M48.9795 36.9103C48.9795 39.374 50.2614 41.7367 52.5433 43.4788C54.8252 45.2209 57.9201 46.1996 61.1472 46.1996C64.3743 46.1996 67.4691 45.2209 69.751 43.4788C72.0329 41.7367 73.3148 39.374 73.3148 36.9103C73.3148 34.4467 72.0329 32.0839 69.751 30.3418C67.4691 28.5998 64.3743 27.6211 61.1472 27.6211C57.9201 27.6211 54.8252 28.5998 52.5433 30.3418C50.2614 32.0839 48.9795 34.4467 48.9795 36.9103Z" fill="white"/>
<path d="M61.1472 47.9124C53.1854 47.9124 46.7324 42.9858 46.7324 36.9104C46.7324 30.8349 53.1854 25.9089 61.1472 25.9089C69.109 25.9089 75.5612 30.8349 75.5612 36.9104C75.5612 42.9858 69.109 47.9124 61.1472 47.9124ZM61.1472 44.488C66.626 44.488 71.0685 41.0961 71.0685 36.9109C71.0685 32.7258 66.626 29.3333 61.1472 29.3333C55.6684 29.3333 51.2251 32.7252 51.2251 36.9104C51.2251 41.0955 55.6684 44.488 61.1472 44.488Z" fill="#754F50"/>
<path d="M53.2528 40.6058C53.9455 41.285 54.969 41.7153 56.1117 41.7153C58.1978 41.7153 59.8885 40.2811 59.8885 38.5124C59.8885 36.7431 58.1978 35.3088 56.1117 35.3088C54.0518 35.3088 52.3768 36.7083 52.3356 38.4473L55.1353 38.7926L53.2528 40.6058Z" fill="#232323"/>
<path d="M106.802 52.6186C104.25 53.5443 102.12 54.1219 100.44 54.3587C99.8543 54.4413 99.3355 54.6979 98.9979 55.072C98.6602 55.4462 98.5314 55.9072 98.6397 56.3537C98.748 56.8003 99.0847 57.1957 99.5755 57.4531C100.066 57.7104 100.671 57.8086 101.257 57.7261C103.372 57.4281 105.855 56.7541 108.731 55.7108C109.001 55.6158 109.243 55.481 109.444 55.3141C109.645 55.1473 109.8 54.9517 109.901 54.7388C110.002 54.5258 110.047 54.2997 110.033 54.0736C110.018 53.8474 109.945 53.6257 109.817 53.4212C109.69 53.2167 109.51 53.0335 109.289 52.8823C109.068 52.7311 108.81 52.6148 108.529 52.5401C108.249 52.4655 107.952 52.434 107.655 52.4474C107.359 52.4609 107.069 52.5191 106.802 52.6186ZM7.16682 52.0986C11.0919 54.2326 14.2668 55.5687 16.7849 56.1063C17.0702 56.1701 17.3692 56.19 17.6646 56.165C17.96 56.14 18.246 56.0706 18.506 55.9607C18.7659 55.8509 18.9947 55.7028 19.1791 55.5251C19.3634 55.3473 19.4996 55.1435 19.5798 54.9253C19.66 54.7071 19.6826 54.479 19.6463 54.2542C19.61 54.0293 19.5155 53.8121 19.3683 53.6153C19.2211 53.4185 19.0241 53.2459 18.7888 53.1075C18.5534 52.9691 18.2843 52.8677 17.9972 52.8092C16.0855 52.4006 13.3136 51.2346 9.77482 49.3106C9.53488 49.1768 9.26247 49.0806 8.97338 49.0276C8.68429 48.9746 8.38428 48.9659 8.09075 49.002C7.79721 49.0381 7.51598 49.1182 7.26337 49.2377C7.01077 49.3573 6.79182 49.5138 6.61921 49.6984C6.4466 49.8829 6.32376 50.0917 6.25783 50.3127C6.1919 50.5337 6.18418 50.7624 6.23512 50.9857C6.28606 51.209 6.39464 51.4223 6.55458 51.6134C6.71451 51.8044 6.92262 51.9694 7.16682 52.0986Z" fill="#754F50"/>
<path d="M61.5815 63.5954C67.4407 65.6695 77.8757 70.874 92.8872 79.2084C93.0022 79.2722 93.1387 79.3098 93.2806 79.3167C93.4226 79.3236 93.5642 79.2996 93.6889 79.2474C93.8136 79.1951 93.9161 79.1169 93.9846 79.0219C94.0531 78.9268 94.0846 78.8189 94.0756 78.7107L91.7506 66.3178C95.2856 69.3741 97.9033 71.7426 99.6038 73.4234C100.706 74.5118 102.293 76.2976 104.365 78.7803C108.386 83.1835 107.116 89.0192 102.65 93.1662L99.6038 96.3275C98.9913 96.897 98.2725 97.5682 97.514 98.0248C91.6727 101.541 80.7892 96.1283 76.176 91.6754L54.4344 74.5963L37.4079 70.4362C35.6752 68.6715 34.9586 66.8115 35.2581 64.8562C35.5584 62.9008 36.999 61.6338 39.5793 61.0557L54.4336 62.1971L56.7563 59.2396C56.9852 58.9484 57.3224 58.7156 57.7251 58.5708C58.1279 58.426 58.5781 58.3757 59.0184 58.4263L60.9323 58.646C61.3288 58.6915 61.706 58.8066 62.0341 58.9824C62.3622 59.1581 62.6321 59.3896 62.8226 59.6585C63.013 59.9275 63.1188 60.2266 63.1314 60.532C63.1441 60.8375 63.0634 61.1411 62.8956 61.4187L61.5815 63.5954Z" fill="#E0DBD8"/>
<path d="M96.298 78.4687C96.3069 78.5132 96.3129 78.5577 96.3167 78.6028C96.3526 79.0355 96.2262 79.467 95.9522 79.8469C95.6782 80.2268 95.2679 80.5394 94.7694 80.7481C94.2709 80.9567 93.7047 81.0529 93.1371 81.0254C92.5695 80.9978 92.0239 80.8476 91.5642 80.5924C76.6687 72.3225 66.319 67.1602 60.635 65.1478C60.0958 64.9569 59.6779 64.6109 59.4729 64.1855C59.2678 63.7602 59.2923 63.2902 59.5411 62.8786L60.8559 60.7018C60.9113 60.4912 60.7833 60.3594 60.5984 60.3383L58.6845 60.1185L56.3618 63.0755C56.1426 63.3545 55.8238 63.5802 55.4426 63.7261C55.0613 63.8721 54.6335 63.9323 54.209 63.8996L39.8242 62.7947C38.3633 63.1988 37.6684 63.8888 37.4895 65.0542C37.2821 66.4086 37.7051 67.6984 38.8103 68.9803L55.1203 72.9646C55.4715 73.0502 55.7897 73.2008 56.0465 73.4035L77.7881 90.4837C77.8405 90.5248 77.8914 90.5688 77.9386 90.6144C83.0805 95.5764 92.3407 98.9574 96.1213 96.6813C96.4395 96.4901 96.8086 96.2008 97.2714 95.7881C97.4301 95.6472 97.5365 95.5478 97.8285 95.2767L100.839 92.1526C105.016 88.271 105.751 83.2942 102.521 79.7585C100.43 77.257 98.876 75.5083 97.8255 74.469C96.9256 73.5877 96.0037 72.7197 95.0602 71.8653L96.298 78.4687ZM91.3418 76.2406L89.526 66.5615C89.21 64.8779 91.9595 63.911 93.4346 65.1872C96.9988 68.2686 99.645 70.6628 101.381 72.3796C102.53 73.5136 104.141 75.3263 106.235 77.834C110.654 82.7041 109.682 89.308 104.424 94.2175L101.414 97.3428C100.999 97.732 100.879 97.8422 100.688 98.0123C100.052 98.5813 99.5005 99.0128 98.9052 99.3706C95.3987 101.481 90.5878 101.273 85.4129 99.3849C81.2991 97.8827 77.1374 95.3418 74.4845 92.8089L53.2131 76.0962L36.7212 72.0668C36.2769 71.9578 35.8881 71.7462 35.6086 71.4613C33.5412 69.3564 32.6576 67.0621 33.0268 64.657C33.4326 62.0105 35.512 60.1819 38.9459 59.4125C39.2243 59.3501 39.5159 59.3294 39.8047 59.3515L53.2393 60.3839L54.829 58.3601C55.2867 57.7777 55.9611 57.3121 56.7666 57.0224C57.5721 56.7327 58.4724 56.6319 59.3531 56.733L61.267 56.9527C62.008 57.0377 62.7129 57.253 63.3259 57.5814C63.939 57.9099 64.4435 58.3425 64.7994 58.8451C65.1554 59.3477 65.3531 59.9065 65.3769 60.4774C65.4008 61.0482 65.2501 61.6155 64.9368 62.1344L64.5339 62.801C70.328 65.1136 79.2407 69.5853 91.3418 76.2406Z" fill="#754F50"/>
<path d="M37.303 65.9571L42.5444 66.3247C42.7403 66.3384 42.9378 66.3226 43.1257 66.2781C43.3135 66.2336 43.488 66.1614 43.6393 66.0655C43.7905 65.9697 43.9155 65.852 44.0071 65.7193C44.0986 65.5866 44.155 65.4415 44.173 65.2922C44.191 65.1429 44.1703 64.9924 44.1119 64.8492C44.0536 64.706 43.9588 64.573 43.833 64.4577C43.7073 64.3424 43.5529 64.2472 43.3788 64.1774C43.2048 64.1076 43.0144 64.0646 42.8185 64.0509L37.577 63.6833C37.3811 63.6696 37.1836 63.6854 36.9958 63.7299C36.8079 63.7743 36.6334 63.8466 36.4822 63.9425C36.331 64.0383 36.206 64.156 36.1144 64.2887C36.0228 64.4213 35.9664 64.5665 35.9484 64.7158C35.9304 64.8651 35.9512 65.0156 36.0095 65.1588C36.0679 65.302 36.1626 65.435 36.2884 65.5503C36.4142 65.6655 36.5685 65.7608 36.7426 65.8306C36.9167 65.9004 37.1071 65.9434 37.303 65.9571ZM37.303 68.8108L42.5444 69.1783C42.7403 69.192 42.9378 69.1762 43.1257 69.1317C43.3135 69.0873 43.488 69.0151 43.6393 68.9192C43.7905 68.8233 43.9155 68.7057 44.0071 68.573C44.0986 68.4403 44.155 68.2952 44.173 68.1459C44.191 67.9966 44.1703 67.846 44.1119 67.7028C44.0536 67.5597 43.9588 67.4266 43.833 67.3114C43.7073 67.1961 43.5529 67.1008 43.3788 67.031C43.2048 66.9612 43.0144 66.9182 42.8185 66.9045L37.577 66.537C37.3811 66.5233 37.1836 66.5391 36.9958 66.5835C36.8079 66.628 36.6334 66.7002 36.4822 66.7961C36.331 66.892 36.206 67.0096 36.1144 67.1423C36.0228 67.275 35.9664 67.4201 35.9484 67.5694C35.9304 67.7187 35.9512 67.8693 36.0095 68.0124C36.0679 68.1556 36.1626 68.2887 36.2884 68.4039C36.4142 68.5192 36.5685 68.6145 36.7426 68.6843C36.9167 68.7541 37.1071 68.7971 37.303 68.8108ZM90.7906 79.9366L93.9205 81.9913C94.6543 82.473 95.1283 82.9084 95.4503 83.3347C95.5356 83.4478 95.6083 83.5573 95.6831 83.6818C95.7206 83.7428 95.8568 83.9831 95.892 84.0419C96.1479 84.4452 96.601 84.756 97.154 84.9077C97.707 85.0594 98.316 85.04 98.8504 84.8535C99.3848 84.667 99.8021 84.3283 100.013 83.9101C100.223 83.4919 100.211 83.0274 99.9774 82.6162C99.9669 82.5985 99.8314 82.3611 99.7715 82.2595C99.6425 82.0433 99.5001 81.8319 99.3447 81.626C98.7696 80.8652 97.9714 80.1284 96.8505 79.3939C96.1624 78.9435 95.1208 78.2592 93.7258 77.3426C93.2747 77.0463 92.6876 76.8986 92.0936 76.9321C91.4997 76.9656 90.9475 77.1776 90.5585 77.5213C90.3654 77.6914 90.2183 77.8889 90.1254 78.1024C90.0326 78.3159 89.9959 78.5413 90.0175 78.7656C90.039 78.99 90.1184 79.2089 90.2511 79.4098C90.3837 79.6107 90.5671 79.7897 90.7906 79.9366Z" fill="#754F50"/>
</svg>
