<svg width="149" height="158" viewBox="0 0 149 158" fill="none" xmlns="http://www.w3.org/2000/svg">
<path d="M80.3921 65.3554C80.7148 50.9889 82.9394 38.4071 87.0667 27.6112C90.2475 19.2865 94.7065 12.6369 101.872 6.57113C105.661 3.36476 111.575 0.525366 116.958 1.86544C121.915 3.09937 121.732 10.0469 121.075 14.4957C119.071 28.0717 115.847 35.8183 111.833 42.2459C106.924 50.1048 104.075 55.9879 95.0075 69.0805" fill="#FAF1E1"/>
<path d="M81.9212 65.1476C82.5666 50.9318 85.0481 38.5304 89.3588 27.9456C92.7433 19.634 97.2892 13.3674 104.142 7.76738C108.212 4.44116 113.212 2.72554 116.956 3.7129C119.52 4.38922 120.289 8.71594 119.291 14.5568C117.216 26.6894 114.27 34.5307 109.631 41.6369C108.546 43.3029 107.485 44.9778 106.447 46.661L105.61 48.0137C100.209 56.7653 97.7152 60.5943 92.2364 68.181C92.0881 68.3783 91.9928 68.5961 91.9561 68.8217C91.9195 69.0473 91.9421 69.2763 92.0227 69.4951C92.1033 69.714 92.2403 69.9185 92.4257 70.0966C92.6111 70.2747 92.8412 70.4228 93.1025 70.5324C93.3639 70.642 93.6512 70.7108 93.9478 70.7349C94.2444 70.7589 94.5443 70.7377 94.83 70.6725C95.1157 70.6073 95.3815 70.4993 95.612 70.3549C95.8424 70.2106 96.0327 70.0327 96.172 69.8316C101.706 62.1684 104.237 58.2828 109.675 49.4707L110.508 48.1227C111.534 46.4612 112.582 44.8079 113.653 43.163C118.526 35.6978 121.61 27.4919 123.746 14.9986C124.246 12.0764 124.375 9.34888 123.963 7.02886C123.371 3.69578 121.673 1.33295 118.425 0.476856C112.633 -1.05099 106.007 1.22337 100.858 5.43138C93.5198 11.4286 88.6452 18.1473 85.0691 26.9308C80.6325 37.8267 78.0904 50.5249 77.4315 65.03C77.4177 65.2564 77.463 65.4825 77.5647 65.6954C77.6664 65.9083 77.8225 66.1037 78.024 66.2703C78.2255 66.4368 78.4684 66.5712 78.7386 66.6657C79.0088 66.7602 79.3008 66.8129 79.5979 66.8207C79.895 66.8285 80.1911 66.7913 80.4692 66.7113C80.7473 66.6312 81.0018 66.5099 81.2179 66.3543C81.434 66.1987 81.6074 66.012 81.7281 65.805C81.8489 65.5979 81.9145 65.3747 81.9212 65.1482V65.1476Z" fill="#754F50"/>
<path d="M82.4805 120.744L93.6598 118.961C103.201 117.439 112.554 122.1 114.551 129.373C114.801 130.279 114.926 131.203 114.926 132.129C114.926 141.275 105.198 148.69 93.1985 148.69H83.054C73.859 148.69 66.4049 143.009 66.4049 135.999V135.827C66.4049 128.533 73.114 122.238 82.4805 120.744Z" fill="#FAF1E1"/>
<path d="M82.9402 122.42C74.6145 123.749 68.6512 129.344 68.6512 135.828V135.999C68.6512 142.062 75.0998 146.977 83.0541 146.977H93.1985C103.958 146.977 112.68 140.33 112.68 132.129C112.68 131.32 112.57 130.514 112.352 129.723C110.61 123.376 102.447 119.307 94.1195 120.636L82.9402 122.42ZM82.02 119.068L93.1993 117.285C103.955 115.569 114.499 120.824 116.75 129.022C117.031 130.044 117.171 131.085 117.171 132.129C117.171 142.221 106.438 150.402 93.1978 150.402H83.0541C72.6183 150.402 64.1586 143.954 64.1586 135.999V135.827C64.1586 127.723 71.6134 120.729 82.02 119.068Z" fill="#754F50"/>
<path d="M78.0477 142C89.7286 140.221 98.1277 139.194 103.246 138.92C107.597 138.688 113.098 138.81 119.752 139.287C121.75 139.43 123.606 140.136 124.957 141.267C126.308 142.398 127.056 143.872 127.056 145.402C127.056 148.436 123.829 150.895 119.848 150.895H78.13C77.4335 150.895 76.7439 150.791 76.1004 150.588C75.457 150.385 74.8723 150.087 74.3798 149.711C73.8873 149.336 73.4967 148.89 73.2301 148.4C72.9636 147.91 72.8264 147.384 72.8264 146.853C72.8267 145.709 73.3471 144.6 74.299 143.715C75.2509 142.83 76.5756 142.224 78.0477 142Z" fill="#FAF1E1"/>
<path d="M75.0735 146.853C75.0735 147.471 75.3956 148.064 75.969 148.501C76.5423 148.938 77.3199 149.183 78.1308 149.183H119.849C121.165 149.183 122.427 148.785 123.357 148.075C124.287 147.366 124.81 146.405 124.81 145.402C124.81 144.299 124.27 143.235 123.296 142.419C122.321 141.604 120.983 141.094 119.542 140.991C113.001 140.522 107.616 140.403 103.404 140.627C98.4048 140.896 90.0813 141.913 78.4879 143.679C77.5251 143.826 76.6587 144.222 76.0361 144.801C75.4136 145.379 75.0734 146.105 75.0735 146.853ZM103.089 137.212C107.577 136.971 113.196 137.096 119.963 137.581C122.518 137.765 124.891 138.668 126.618 140.114C128.345 141.56 129.303 143.446 129.302 145.402C129.302 149.381 125.07 152.608 119.848 152.608H78.13C73.9608 152.608 70.5801 150.031 70.5801 146.853C70.5802 145.313 71.2804 143.821 72.5615 142.63C73.8426 141.439 75.6254 140.623 77.6066 140.322C89.3752 138.528 97.8507 137.492 103.089 137.212Z" fill="#754F50"/>
<path d="M124.661 143.679H117.934C117.348 143.691 116.791 143.876 116.382 144.196C115.974 144.516 115.745 144.945 115.745 145.391C115.745 145.838 115.974 146.267 116.382 146.587C116.791 146.907 117.348 147.092 117.934 147.104H124.661C125.257 147.104 125.828 146.923 126.249 146.602C126.67 146.281 126.907 145.845 126.907 145.391C126.907 144.937 126.67 144.502 126.249 144.181C125.828 143.86 125.257 143.679 124.661 143.679Z" fill="#754F50"/>
<path d="M95.6073 113.731L110.163 112.122C114.055 111.779 117.574 113.912 118.024 116.887C118.054 117.093 118.07 117.301 118.07 117.508C118.07 120.503 114.894 122.93 110.975 122.93C110.704 122.93 110.432 122.918 110.162 122.895L96.69 122.015" fill="#FAF1E1"/>
<path d="M95.9301 115.426L110.486 113.817C113.079 113.589 115.485 115.047 115.792 117.082C115.814 117.224 115.824 117.366 115.824 117.508C115.824 119.558 113.653 121.218 110.976 121.218C110.791 121.218 110.606 121.21 110.422 121.193L96.8825 120.309C96.5886 120.29 96.2926 120.315 96.0115 120.383C95.7303 120.451 95.4695 120.56 95.2439 120.705C95.0183 120.85 94.8324 121.027 94.6967 121.227C94.5611 121.427 94.4785 121.645 94.4535 121.869C94.4282 122.093 94.4611 122.318 94.5502 122.532C94.6394 122.747 94.783 122.945 94.973 123.117C95.163 123.289 95.3955 123.431 95.6574 123.534C95.9193 123.638 96.2053 123.701 96.4991 123.72L109.971 124.6C110.261 124.626 110.618 124.642 110.976 124.642C116.137 124.642 120.317 121.447 120.317 117.508C120.317 117.234 120.297 116.962 120.256 116.69C119.665 112.777 115.031 109.969 109.906 110.421L95.2854 112.037C94.6957 112.102 94.1643 112.343 93.8078 112.707C93.4513 113.071 93.2991 113.527 93.3846 113.977C93.4701 114.426 93.7863 114.831 94.2637 115.103C94.741 115.375 95.3405 115.491 95.9301 115.426Z" fill="#754F50"/>
<path d="M19.6061 124.071H21.1037C26.2725 124.071 30.4634 127.265 30.4634 131.205C30.4634 135.145 26.2725 138.339 21.1037 138.339H19.6061C14.4373 138.339 10.2463 135.145 10.2463 131.205C10.2463 127.265 14.4373 124.071 19.6061 124.071Z" fill="#FAF1E1"/>
<path d="M19.6061 125.783C17.7195 125.783 15.9102 126.355 14.5762 127.371C13.2421 128.388 12.4927 129.767 12.4927 131.205C12.4927 132.643 13.2421 134.022 14.5762 135.039C15.9102 136.056 17.7195 136.627 19.6061 136.627H21.1037C22.9902 136.627 24.7996 136.056 26.1336 135.039C27.4676 134.022 28.2171 132.643 28.2171 131.205C28.2171 129.767 27.4676 128.388 26.1336 127.371C24.7996 126.355 22.9902 125.783 21.1037 125.783H19.6061ZM19.6061 122.359H21.1037C27.514 122.359 32.7098 126.319 32.7098 131.205C32.7098 136.091 27.514 140.052 21.1037 140.052H19.6061C13.1958 140.052 8 136.091 8 131.205C8 126.319 13.1958 122.359 19.6061 122.359Z" fill="#754F50"/>
<path d="M97.6679 110.913H114.003C116.454 110.913 118.892 110.659 121.252 110.156C135.523 107.112 143.086 96.2371 141.913 85.3629L140.59 80.0551C135.98 67.5669 119.526 58.2263 106.563 55.0131C93.5998 51.7999 83.0473 51.5454 69.7893 53.7021C56.5314 55.8589 38.0575 64.7795 34.259 80.8564L34.0688 81.6606C33.7263 83.1105 33.5539 84.5808 33.5536 86.0541C33.5536 91.924 39.4742 100.074 45.7475 104.604C35.6023 107.78 25.5604 113.788 22.3212 122.15C21.7619 123.593 21.4779 125.09 21.478 126.595C21.478 135.288 30.7487 142.334 42.1841 142.334H87.3048C89.4426 142.334 91.5676 142.078 93.5991 141.573C104.235 138.93 110.039 130.234 106.562 122.151C104.754 117.939 101.713 114.096 97.6679 110.913Z" fill="#FAF1E1"/>
<path d="M108.697 121.617C112.56 130.601 106.111 140.265 94.2954 143.2C92.0382 143.76 89.6789 144.046 87.3048 144.046H42.1841C29.5095 144.047 19.2317 136.235 19.2317 126.596C19.2317 124.927 19.5462 123.266 20.1669 121.665C23.0752 114.158 31.2698 107.933 41.9085 104.033C35.9153 98.8727 31.308 91.4812 31.308 86.0541C31.308 84.4789 31.4922 82.9071 31.8584 81.3575L32.0478 80.5528C33.9063 72.6859 39.2092 65.9729 46.9957 60.7718C53.6037 56.3584 61.7459 53.2599 69.3199 52.0276C83.1993 49.7698 94.1315 50.1311 107.258 53.3848C123.037 57.2966 138.38 67.7462 142.752 79.5911L144.142 85.1318C145.471 97.451 136.602 108.66 121.857 111.804C119.301 112.349 116.658 112.625 114.003 112.625H102.539C105.227 115.343 107.308 118.382 108.697 121.617ZM138.401 80.4484C134.438 69.8385 120.29 60.2159 105.868 56.6414C93.507 53.5772 83.3767 53.2422 70.2581 55.3767C63.4315 56.4873 55.9856 59.3199 49.9571 63.347C42.9059 68.0572 38.1399 74.0904 36.4701 81.1595L36.2799 81.9637C35.961 83.3136 35.8006 84.6825 35.8007 86.0541C35.8007 91.1153 41.0504 98.8539 47.293 103.361L49.8149 105.182L46.6011 106.188C35.6764 109.607 27.2152 115.562 24.4754 122.635C23.9774 123.92 23.7245 125.254 23.7244 126.595C23.7244 134.341 31.9879 140.622 42.1841 140.622H87.3048C89.2067 140.622 91.0959 140.393 92.9035 139.944C102.36 137.595 107.518 129.867 104.429 122.684C102.727 118.718 99.8625 115.101 96.0536 112.105L92.3658 109.201H114.003C116.25 109.201 118.484 108.968 120.647 108.506C133.155 105.839 140.784 96.2348 139.683 85.5924L138.401 80.4484Z" fill="#754F50"/>
<path d="M93.4898 118.364C98.592 118.364 102.773 121.453 102.933 125.34L103.088 129.126C103.29 134.058 98.2079 138.181 91.7377 138.335C91.6164 138.338 91.4936 138.34 91.3723 138.34C85.8583 138.34 81.3881 134.933 81.3881 130.73C81.3881 130.246 81.448 129.764 81.5685 129.289L82.5988 125.218C83.0866 123.289 84.4405 121.549 86.428 120.299C88.4155 119.048 90.9125 118.364 93.4898 118.364ZM108.385 86.9735H120.343C126.133 86.9735 130.826 90.5509 130.826 94.9638C130.826 95.502 130.754 96.0396 130.613 96.5681L130.584 96.676C129.848 99.4156 127.893 101.877 125.05 103.645C122.207 105.413 118.651 106.379 114.982 106.378H113.827C110.143 106.378 106.57 105.415 103.706 103.649C100.842 101.883 98.8591 99.4218 98.0889 96.676C96.8736 92.3418 100.498 88.0773 106.184 87.151C106.907 87.033 107.645 86.9735 108.385 86.9735Z" fill="white"/>
<path d="M118.966 88.115C120.321 88.123 121.884 88.3239 123.657 88.7194C125.501 89.1149 127.056 89.9533 127.056 91.4989C127.056 91.6096 127.046 91.7215 127.028 91.8322C126.72 93.6191 124.546 94.9638 121.964 94.9638H117.433C114.666 94.9638 112.233 93.6865 111.469 91.8322C110.932 90.5292 112.013 89.1708 113.881 88.7959C114.397 88.6914 116.331 88.1007 118.966 88.115Z" fill="#8B674F"/>
<path d="M115.913 90.1217C115.491 90.2044 114.492 90.4436 114.454 90.451C113.786 90.5851 113.472 90.9801 113.612 91.3191C114.074 92.4394 115.621 93.2522 117.433 93.2522H121.964C123.454 93.2522 124.645 92.5153 124.801 91.6096C124.807 91.5731 124.811 91.5363 124.81 91.4994C124.81 91.0018 124.315 90.6393 123.028 90.3631C121.442 90.0098 120.079 89.8346 118.951 89.8278C117.925 89.8239 116.904 89.9227 115.913 90.1217ZM124.267 87.0706C127.265 87.7149 129.302 89.2028 129.302 91.4989C129.302 91.6843 129.287 91.8704 129.255 92.0548C128.796 94.7235 125.639 96.6765 121.964 96.6765H117.433C113.711 96.6765 110.393 94.9341 109.326 92.3453C108.393 90.0795 110.24 87.7566 113.309 87.1402C113.8 87.0183 114.295 86.9066 114.793 86.8052C116.161 86.5323 117.569 86.3973 118.983 86.4034C120.563 86.4119 122.328 86.6391 124.267 87.0706Z" fill="#754F50"/>
<path d="M115.827 76.9058C115.827 78.057 116.124 79.197 116.702 80.2606C117.28 81.3242 118.127 82.2906 119.195 83.1046C120.263 83.9187 121.531 84.5644 122.927 85.005C124.322 85.4455 125.818 85.6723 127.328 85.6723C128.838 85.6723 130.334 85.4455 131.729 85.005C133.125 84.5644 134.393 83.9187 135.461 83.1046C136.529 82.2906 137.376 81.3242 137.954 80.2606C138.532 79.197 138.829 78.057 138.829 76.9058C138.829 75.7546 138.532 74.6146 137.954 73.551C137.376 72.4875 136.529 71.521 135.461 70.707C134.393 69.893 133.125 69.2472 131.729 68.8067C130.334 68.3661 128.838 68.1394 127.328 68.1394C125.818 68.1394 124.322 68.3661 122.927 68.8067C121.531 69.2472 120.263 69.893 119.195 70.707C118.127 71.521 117.28 72.4875 116.702 73.551C116.124 74.6146 115.827 75.7546 115.827 76.9058Z" fill="white"/>
<path d="M127.328 87.385C119.734 87.385 113.578 82.693 113.578 76.9058C113.578 71.1186 119.734 66.4272 127.328 66.4272C134.921 66.4272 141.078 71.1186 141.078 76.9058C141.078 82.693 134.922 87.385 127.328 87.385ZM127.328 83.9606C132.441 83.9606 136.585 80.8022 136.585 76.9064C136.585 73.0106 132.441 69.8516 127.328 69.8516C122.215 69.8516 118.071 73.01 118.071 76.9058C118.071 80.8016 122.215 83.9606 127.328 83.9606Z" fill="#754F50"/>
<path d="M130.2 79.6476C130.765 80.1459 131.54 80.4777 132.393 80.5856C133.245 80.6935 134.12 80.5705 134.865 80.2381C135.611 79.9057 136.18 79.3848 136.475 78.7658C136.769 78.1468 136.77 77.4688 136.477 76.8494C136.184 76.2301 135.615 75.7085 134.87 75.3751C134.126 75.0417 133.251 74.9177 132.399 75.0244C131.546 75.1312 130.77 75.4621 130.204 75.9596C129.639 76.4572 129.319 77.09 129.302 77.7482L132.043 78.0519L130.2 79.6476Z" fill="#232323"/>
<path d="M91.8657 77.0354C91.8657 79.5461 93.1742 81.954 95.5035 83.7293C97.8327 85.5047 100.992 86.5021 104.286 86.5021C107.58 86.5021 110.739 85.5047 113.068 83.7293C115.397 81.954 116.706 79.5461 116.706 77.0354C116.706 74.5246 115.397 72.1167 113.068 70.3414C110.739 68.566 107.58 67.5686 104.286 67.5686C100.992 67.5686 97.8327 68.566 95.5035 70.3414C93.1742 72.1167 91.8657 74.5246 91.8657 77.0354Z" fill="white"/>
<path d="M104.286 88.2143C96.1846 88.2143 89.6171 83.209 89.6171 77.0348C89.6171 70.8612 96.1846 65.8564 104.286 65.8564C112.387 65.8564 118.954 70.8612 118.954 77.0348C118.954 83.209 112.387 88.2143 104.286 88.2143ZM104.286 84.7899C109.906 84.7899 114.462 81.3176 114.462 77.0354C114.462 72.7532 109.906 69.2808 104.286 69.2808C98.6653 69.2808 94.1097 72.7526 94.1097 77.0348C94.1097 81.317 98.6653 84.7899 104.286 84.7899Z" fill="#754F50"/>
<path d="M105.238 80.4837C105.606 80.809 106.062 81.0699 106.575 81.2486C107.087 81.4272 107.644 81.5195 108.208 81.519C109.248 81.519 110.246 81.2041 110.981 80.6434C111.717 80.0828 112.13 79.3224 112.13 78.5295C112.13 77.7367 111.717 76.9763 110.981 76.4156C110.246 75.855 109.248 75.54 108.208 75.54C107.181 75.54 106.196 75.8467 105.462 76.3943C104.729 76.9419 104.307 77.6867 104.286 78.469L107.195 78.7909L105.238 80.4837Z" fill="#232323"/>
<path d="M117.322 97.2467V101.242C117.337 101.688 117.58 102.113 118 102.424C118.42 102.736 118.982 102.91 119.568 102.91C120.154 102.91 120.717 102.736 121.137 102.424C121.556 102.113 121.799 101.688 121.815 101.242V97.2467C121.799 96.8002 121.556 96.3759 121.137 96.0643C120.717 95.7526 120.154 95.5781 119.568 95.5781C118.982 95.5781 118.42 95.7526 118 96.0643C117.58 96.3759 117.337 96.8002 117.322 97.2467Z" fill="#754F50"/>
<path d="M70.3869 129.826C70.6265 130.706 70.747 131.602 70.747 132.5C70.747 141.466 61.1522 148.734 49.3154 148.734H38.6378C29.5746 148.734 22.2268 143.168 22.2268 136.302V135.743C22.2268 130.988 25.2556 126.683 30.0531 123.999" fill="#FAF1E1"/>
<path d="M68.1877 130.174C68.3966 130.94 68.5014 131.719 68.5014 132.5C68.5014 140.518 59.9152 147.021 49.3162 147.021H38.6378C30.8116 147.021 24.4732 142.22 24.4732 136.302V135.743C24.4732 131.625 27.0624 127.796 31.3822 125.38C31.6249 125.248 31.8309 125.081 31.9881 124.888C32.1454 124.696 32.2508 124.481 32.2982 124.257C32.3456 124.033 32.3341 123.804 32.2643 123.583C32.1945 123.362 32.0678 123.154 31.8916 122.971C31.7154 122.788 31.4933 122.634 31.238 122.517C30.9828 122.4 30.6996 122.323 30.4049 122.29C30.1102 122.257 29.8099 122.269 29.5215 122.326C29.233 122.382 28.9622 122.482 28.7247 122.619C23.2609 125.675 19.9805 130.524 19.9805 135.742V136.302C19.9805 144.115 28.3369 150.445 38.6378 150.445H49.3162C62.3899 150.445 72.9941 142.413 72.9941 132.5C72.9941 131.485 72.8579 130.471 72.5868 129.478C72.4657 129.033 72.1177 128.643 71.6196 128.394C71.1214 128.145 70.5138 128.057 69.9305 128.149C69.3471 128.242 68.8358 128.507 68.509 128.886C68.1821 129.266 68.0666 129.729 68.1877 130.174Z" fill="#754F50"/>
<path d="M54.4244 110.944C54.4243 111.244 54.5017 111.541 54.6522 111.818C54.8026 112.095 55.0232 112.347 55.3014 112.559C55.5795 112.771 55.9097 112.939 56.2732 113.054C56.6366 113.169 57.0262 113.228 57.4196 113.228C57.813 113.228 58.2025 113.169 58.566 113.054C58.9294 112.939 59.2596 112.771 59.5378 112.559C59.8159 112.347 60.0365 112.095 60.187 111.818C60.3374 111.541 60.4148 111.244 60.4147 110.944C60.4148 110.644 60.3374 110.347 60.187 110.07C60.0365 109.793 59.8159 109.542 59.5378 109.329C59.2596 109.117 58.9294 108.949 58.566 108.834C58.2025 108.72 57.813 108.661 57.4196 108.661C57.0262 108.661 56.6366 108.72 56.2732 108.834C55.9097 108.949 55.5795 109.117 55.3014 109.329C55.0232 109.542 54.8026 109.793 54.6522 110.07C54.5017 110.347 54.4243 110.644 54.4244 110.944Z" fill="#754F50"/>
<path d="M33.7693 142.191C45.502 140.438 53.9355 139.426 59.0691 139.157C63.4517 138.927 69.0039 139.05 75.725 139.527C77.6809 139.665 79.4984 140.356 80.8215 141.463C82.1446 142.569 82.878 144.013 82.8781 145.51C82.8781 146.217 82.6953 146.918 82.3403 147.571C81.9852 148.224 81.4647 148.818 80.8087 149.318C80.1526 149.818 79.3737 150.215 78.5164 150.486C77.6592 150.756 76.7405 150.895 75.8126 150.895H33.8472C33.1646 150.895 32.4887 150.793 31.858 150.594C31.2273 150.395 30.6543 150.103 30.1716 149.735C29.689 149.367 29.3061 148.93 29.0448 148.45C28.7836 147.969 28.6492 147.454 28.6492 146.933C28.649 145.813 29.1596 144.728 30.0936 143.863C31.0276 142.997 32.3269 142.407 33.7693 142.191Z" fill="#FAF1E1"/>
<path d="M30.8955 146.933C30.8954 147.229 30.9717 147.522 31.12 147.795C31.2683 148.068 31.4857 148.316 31.7598 148.524C32.0339 148.733 32.3594 148.899 32.7175 149.012C33.0757 149.125 33.4596 149.183 33.8472 149.183H75.8126C76.4455 149.183 77.0721 149.088 77.6568 148.904C78.2415 148.719 78.7728 148.448 79.2203 148.107C79.6678 147.766 80.0227 147.361 80.2649 146.916C80.5071 146.47 80.6318 145.992 80.6318 145.51C80.632 144.439 80.1076 143.407 79.1613 142.615C78.215 141.824 76.915 141.33 75.5161 141.231C68.9059 140.763 63.4697 140.642 59.2226 140.864C54.2065 141.128 45.8487 142.13 34.2006 143.871C33.2694 144.01 32.4306 144.392 31.8277 144.95C31.2248 145.509 30.8953 146.21 30.8955 146.933ZM58.9141 137.448C63.4323 137.211 69.0998 137.337 75.9324 137.821C81.1409 138.191 85.1245 141.522 85.1245 145.51C85.1245 149.43 80.9552 152.608 75.8126 152.608H33.8472C29.7357 152.608 26.4028 150.067 26.4028 146.933C26.4028 143.805 29.3081 141.113 33.3373 140.511C45.1553 138.745 53.6637 137.724 58.9141 137.448Z" fill="#754F50"/>
<path d="M80.4828 143.789H73.7557C73.16 143.789 72.5886 143.969 72.1673 144.29C71.7461 144.611 71.5094 145.047 71.5094 145.501C71.5094 145.955 71.7461 146.391 72.1673 146.712C72.5886 147.033 73.16 147.213 73.7557 147.213H80.4828C81.0685 147.202 81.6252 147.016 82.0341 146.696C82.443 146.376 82.6719 145.948 82.6719 145.501C82.6719 145.054 82.443 144.625 82.0341 144.306C81.6252 143.986 81.0685 143.8 80.4828 143.789Z" fill="#754F50"/>
<path d="M45.3072 106.608C46.6468 107.441 47.576 108.015 48.1024 108.333C49.3192 109.068 50.4109 109.577 51.427 109.853C51.7057 109.932 52.0022 109.968 52.2992 109.958C52.5962 109.949 52.8879 109.895 53.1573 109.799C53.4267 109.704 53.6685 109.568 53.8687 109.401C54.0688 109.233 54.2234 109.037 54.3234 108.824C54.4233 108.61 54.4668 108.384 54.4511 108.157C54.4355 107.931 54.3611 107.71 54.2322 107.505C54.1034 107.301 53.9226 107.119 53.7005 106.968C53.4783 106.817 53.2192 106.702 52.938 106.628C52.4558 106.498 51.7587 106.172 50.8939 105.65C49.974 105.089 49.0587 104.524 48.1481 103.954C47.6865 103.667 47.0941 103.532 46.5013 103.578C45.9085 103.623 45.3638 103.847 44.9871 104.198C44.6104 104.55 44.4325 105.002 44.4925 105.454C44.5525 105.906 44.8456 106.321 45.3072 106.608Z" fill="#754F50"/>
<path d="M61.2457 72.6618L60.5449 71.9496L61.2457 72.6618ZM57.1319 68.3876C48.0762 59.2348 41.0766 50.3811 36.1331 41.8258C31.5498 33.8938 29.4548 25.8476 29.8486 17.6884C30.056 13.3737 33.5925 9.54919 38.8692 7.93174C43.7288 6.44213 49.29 7.53222 52.5771 10.6187C63.2884 20.6785 70.136 31.0721 71.8492 37.6811C73.5894 44.3975 75.4883 50.792 78.6519 61.911" fill="#FAF1E1"/>
<path d="M63.1103 71.6197L62.4102 70.908C62.2341 70.7261 62.0126 70.5726 61.7583 70.4563C61.5041 70.34 61.2221 70.2632 60.9287 70.2304C60.6353 70.1976 60.3363 70.2093 60.0489 70.265C59.7615 70.3207 59.4914 70.4193 59.2542 70.5549C59.0171 70.6906 58.8175 70.8607 58.667 71.0554C58.5165 71.2502 58.418 71.4657 58.3774 71.6896C58.3367 71.9135 58.3546 72.1413 58.43 72.3599C58.5054 72.5785 58.6369 72.7835 58.8168 72.9632L59.5184 73.6749C59.694 73.8576 59.9153 74.0119 60.1697 74.1289C60.424 74.2459 60.7063 74.3232 61.0002 74.3565C61.294 74.3897 61.5936 74.3782 61.8816 74.3226C62.1696 74.2669 62.4402 74.1683 62.6778 74.0324C62.9154 73.8965 63.1153 73.726 63.2658 73.5308C63.4164 73.3355 63.5146 73.1195 63.5548 72.8952C63.595 72.6708 63.5765 72.4426 63.5002 72.2238C63.4238 72.0049 63.2913 71.7998 63.1103 71.6203V71.6197ZM58.9935 67.3421C50.0381 58.2908 43.1283 49.5495 38.259 41.1215C33.8113 33.4223 31.7821 25.6341 32.1624 17.7369C32.3384 14.0991 35.3223 10.8722 39.7775 9.50697C43.7251 8.29702 48.2373 9.18165 50.9029 11.6843C60.8228 21.0004 67.9654 31.2416 69.7153 37.9985C69.8036 38.342 69.8942 38.6873 69.9848 39.0343C70.2821 40.1644 70.5914 41.3173 70.9231 42.5295C71.573 44.9066 72.2709 47.3807 73.3499 51.1533L74.8197 56.2841C75.4599 58.5208 75.9826 60.3523 76.5262 62.2597C76.584 62.4829 76.6995 62.6951 76.8661 62.8839C77.0327 63.0727 77.247 63.2342 77.4965 63.3592C77.7459 63.4841 78.0256 63.5699 78.319 63.6115C78.6125 63.6532 78.9139 63.6498 79.2056 63.6016C79.4973 63.5535 79.7735 63.4615 80.0181 63.331C80.2626 63.2006 80.4706 63.0343 80.6299 62.8419C80.7892 62.6494 80.8965 62.4347 80.9457 62.2103C80.9949 61.9859 80.9849 61.7563 80.9163 61.5349C80.3734 59.6258 79.85 57.792 79.2091 55.5547L77.7392 50.4239C76.9154 47.5625 76.1097 44.6982 75.3222 41.8309C74.9927 40.6267 74.6857 39.4829 74.3907 38.3615C74.3001 38.0179 74.211 37.6754 74.1226 37.3347C72.2132 29.9626 64.7366 19.2408 54.3922 9.52638C50.4821 5.85543 43.8741 4.55987 38.101 6.32856C32.0022 8.19828 27.9139 12.6197 27.6728 17.6108C27.2669 26.0331 29.4286 34.3361 34.1467 42.5015C39.1643 51.1847 46.2522 60.1508 55.4068 69.4036C55.5844 69.5831 55.8067 69.7341 56.0608 69.8482C56.315 69.9622 56.5962 70.037 56.8883 70.0682C57.1804 70.0994 57.4777 70.0865 57.7632 70.0301C58.0488 69.9738 58.317 69.8751 58.5525 69.7397C58.788 69.6044 58.9862 69.435 59.1358 69.2412C59.2854 69.0475 59.3835 68.8332 59.4245 68.6105C59.4654 68.3879 59.4484 68.1613 59.3745 67.9436C59.3005 67.726 59.1711 67.5216 58.9935 67.3421Z" fill="#754F50"/>
<path d="M45.3656 23.9567C46.5882 23.5484 47.9652 23.4975 49.2339 23.8137C50.5026 24.1299 51.5741 24.7912 52.2439 25.6712C57.8822 33.0765 61.3528 38.7946 62.6595 42.8257C64.0649 47.1644 66.7029 54.2278 70.5718 64.0147C70.7623 64.4968 70.7209 65.0149 70.4551 65.4759C70.1892 65.9368 69.7163 66.3104 69.1214 66.5293C68.4874 66.7627 67.7754 66.8438 67.0796 66.7619C66.3838 66.6801 65.737 66.4392 65.2248 66.071C55.8905 59.3666 49.4383 52.9242 45.8666 46.7426C42.7239 41.3047 41.0631 35.4946 40.8834 29.3119C40.8506 28.1813 41.259 27.0687 42.057 26.1152C42.855 25.1618 44.0066 24.4105 45.3656 23.9567Z" fill="#FFB8A8"/>
<path d="M77.0623 97.2901C80.6879 95.3553 85.6852 96.027 88.2236 98.7905C88.4557 99.0416 88.6609 99.307 88.8398 99.5815L101.707 119.372C102.142 120.041 102.248 120.808 102.005 121.532C101.763 122.256 101.188 122.89 100.385 123.319C99.5874 123.744 98.6135 123.934 97.6456 123.852C96.6777 123.77 95.7819 123.423 95.1258 122.874L75.7025 106.62C72.652 104.068 72.8931 100.114 76.2416 97.79C76.5022 97.6102 76.7755 97.4424 77.0623 97.2901Z" fill="#FF7E3C"/>
<path d="M77.9204 98.2255C77.14 98.6419 76.4849 99.1803 75.999 99.8048C75.5131 100.429 75.2075 101.126 75.1025 101.847C74.9975 102.569 75.0955 103.299 75.3901 103.99C75.6846 104.68 76.1689 105.315 76.8107 105.852L96.2341 122.105C96.6445 122.448 97.2051 122.666 97.8109 122.717C98.4168 122.769 99.0264 122.65 99.5257 122.383C100.036 122.112 100.401 121.709 100.555 121.25C100.709 120.79 100.641 120.304 100.365 119.879L87.498 100.088C87.0814 99.4473 86.4879 98.8824 85.7582 98.4323C85.0286 97.9822 84.1799 97.6576 83.2704 97.4807C82.3609 97.3038 81.412 97.2788 80.4886 97.4073C79.5652 97.5359 78.6891 97.815 77.9204 98.2255ZM76.2027 96.3547C80.5052 94.0586 86.4378 94.8553 89.4508 98.1353C89.7249 98.4338 89.9698 98.7483 90.1817 99.0748L103.049 118.865C103.643 119.779 103.788 120.826 103.457 121.814C103.126 122.803 102.34 123.669 101.243 124.254C100.147 124.839 98.8095 125.099 97.4799 124.987C96.1502 124.874 94.9199 124.396 94.0192 123.642L74.5958 107.39C70.9889 104.371 71.2742 99.6951 75.2345 96.9459C75.5408 96.7325 75.8635 96.535 76.2027 96.3547Z" fill="#754F50"/>
<path d="M58.2207 93.1448C58.481 92.7881 58.8366 92.4771 59.2646 92.2318C59.6926 91.9865 60.1834 91.8124 60.7052 91.7209C61.227 91.6293 61.7682 91.6223 62.2938 91.7002C62.8195 91.7782 63.3177 91.9394 63.7564 92.1734L74.9387 98.1342L73.7272 100.175L60.2035 96.9368C59.7144 96.8194 59.2658 96.6206 58.8901 96.3547C58.5143 96.0889 58.2209 95.7626 58.0311 95.3996C57.8413 95.0365 57.7598 94.6459 57.7926 94.2559C57.8254 93.8659 57.9716 93.4864 58.2207 93.1448Z" fill="#62CCA3"/>
<path d="M62.8129 93.1642C62.5427 93.0255 62.2372 92.9315 61.9163 92.8884C61.5955 92.8453 61.2663 92.854 60.9501 92.914C60.6339 92.974 60.3377 93.0839 60.0808 93.2366C59.8238 93.3893 59.6118 93.5815 59.4584 93.8006C59.322 93.9958 59.2442 94.2118 59.2307 94.4327C59.2173 94.6537 59.2684 94.8742 59.3805 95.0782C59.4926 95.2822 59.6628 95.4647 59.8788 95.6124C60.0949 95.7601 60.3513 95.8694 60.6295 95.9323L74.2251 98.9903L72.4273 99.6329L73.5916 97.5771L74.1293 98.9754L62.8129 93.1642ZM64.0185 91.0577C64.1795 91.1227 64.3352 91.1941 64.4865 91.2717L76.8339 97.6125L74.6519 101.467L59.7826 98.1227C59.0777 97.9641 58.4279 97.6879 57.8804 97.3141C57.3329 96.9402 56.9015 96.4782 56.6175 95.9614C56.3334 95.4447 56.2039 94.8863 56.2382 94.3266C56.2725 93.767 56.4699 93.2202 56.816 92.7259C57.481 91.7767 58.6135 91.0677 59.9644 90.7548C61.3152 90.442 62.7738 90.5509 64.0192 91.0577H64.0185Z" fill="#754F50"/>
<path d="M77.2457 82.2376C76.717 82.3019 76.2119 82.4502 75.7631 82.6728C75.3143 82.8954 74.9319 83.1873 74.6405 83.5297C74.3491 83.8721 74.1553 84.2573 74.0716 84.6604C73.988 85.0635 74.0163 85.4755 74.1548 85.8697L77.6785 95.9169L80.6085 95.7474L81.242 84.9537C81.2648 84.5633 81.1732 84.1739 80.974 83.8139C80.7748 83.4538 80.473 83.132 80.0904 82.8719C79.7078 82.6118 79.254 82.4199 78.7619 82.3101C78.2699 82.2003 77.752 82.1753 77.2457 82.237V82.2376Z" fill="#62CCA3"/>
<path d="M79.9129 85.138C79.9129 85.0775 79.9085 85.017 79.8987 84.9571C79.8353 84.489 79.5304 84.0593 79.0513 83.7625C78.5722 83.4657 77.958 83.3261 77.3439 83.3745C77.0549 83.3971 76.7762 83.4685 76.528 83.5835C76.2798 83.6986 76.0683 83.8543 75.909 84.0395C75.7498 84.2246 75.6466 84.4345 75.6072 84.6539C75.5677 84.8732 75.5928 85.0965 75.6808 85.3075L79.9579 95.6081L78.2536 94.8308L81.1409 94.417L79.9204 95.539L79.9129 85.138ZM77.0361 81.1035C77.7773 81.0449 78.5263 81.1055 79.2348 81.2815C79.9432 81.4575 80.5953 81.745 81.1488 82.1252C81.7022 82.5055 82.1448 82.9701 82.4477 83.489C82.7506 84.0079 82.9072 84.5695 82.9073 85.1375L82.9148 96.4853L77.5019 97.261L72.8257 85.9958C72.604 85.4617 72.541 84.8967 72.6414 84.3417C72.7418 83.7867 73.003 83.2558 73.4062 82.7873C73.8093 82.3189 74.3442 81.9247 74.9721 81.6335C75.6 81.3423 76.305 81.1612 77.0361 81.1035Z" fill="#754F50"/>
<path d="M64.3944 85.255C64.9716 84.8991 65.6468 84.6469 66.3696 84.5174C67.0924 84.3878 67.8442 84.3843 68.569 84.5069C69.2939 84.6296 69.9731 84.8753 70.5561 85.2258C71.1391 85.5763 71.6108 86.0225 71.9362 86.5312L78.291 96.4705L76.0971 97.959L64.4813 91.1193C63.8955 90.7744 63.4198 90.3329 63.0897 89.8278C62.7597 89.3228 62.5839 88.7674 62.5755 88.2032C62.5672 87.639 62.7264 87.0807 63.0415 86.5702C63.3565 86.0596 63.819 85.61 64.3944 85.255Z" fill="#62CCA3"/>
<path d="M70.5876 87.0329C70.3316 86.6325 69.946 86.2886 69.4672 86.0334C68.9884 85.7782 68.4322 85.6203 67.851 85.5745C67.2699 85.5286 66.683 85.5965 66.1458 85.7716C65.6086 85.9467 65.1388 86.2232 64.7808 86.5751C64.229 87.1201 63.9837 87.8098 64.0989 88.4926C64.214 89.1754 64.6801 89.7955 65.3948 90.2164L76.0275 96.4779L76.446 96.1937L70.5876 87.0329ZM63.4517 84.3675C64.2042 83.9039 65.0842 83.5756 66.0261 83.4071C66.9681 83.2386 67.9478 83.2342 68.8923 83.3943C69.8369 83.5543 70.7218 83.8747 71.4814 84.3316C72.241 84.7884 72.8556 85.37 73.2795 86.0329L80.1323 96.749L76.1608 99.4417L63.5633 92.0233C62.7986 91.573 62.1776 90.9966 61.7468 90.3373C61.316 89.678 61.0866 88.9529 61.0758 88.2165C61.065 87.48 61.2731 86.7512 61.6844 86.0847C62.0958 85.4182 62.6997 84.8313 63.451 84.3681L63.4517 84.3675Z" fill="#754F50"/>
<path d="M74.1384 112.409L88.8466 112.555C92.7613 112.68 95.7991 115.206 95.6321 118.198C95.6205 118.405 95.5935 118.612 95.5512 118.817C94.9372 121.775 91.3011 123.794 87.4315 123.326C87.1633 123.294 86.8978 123.249 86.6362 123.194L73.5101 120.719" fill="#FAF1E1"/>
<path d="M74.0342 114.258L88.7425 114.209C91.3528 114.258 93.4688 115.957 93.4007 118.005C93.3962 118.148 93.3812 118.29 93.355 118.431C92.9806 120.461 90.5269 121.873 87.8769 121.59C87.6932 121.57 87.5112 121.542 87.3318 121.506L74.0866 119.194C73.7974 119.14 73.4969 119.131 73.2027 119.166C72.9086 119.201 72.6266 119.281 72.3731 119.4C72.1197 119.519 71.8999 119.676 71.7265 119.86C71.5531 120.045 71.4295 120.254 71.3631 120.475C71.2966 120.696 71.2885 120.926 71.3393 121.149C71.3901 121.373 71.4987 121.587 71.6588 121.778C71.819 121.969 72.0274 122.135 72.2721 122.264C72.5168 122.393 72.7928 122.484 73.084 122.532L86.2648 124.832C86.5464 124.889 86.8975 124.943 87.2524 124.981C92.3614 125.528 97.0847 122.807 97.8043 118.907C97.8537 118.636 97.8829 118.364 97.8919 118.09C98.0222 114.153 93.9465 110.88 88.7882 110.784L74.0148 110.833C73.4188 110.835 72.8483 111.017 72.4287 111.34C72.0091 111.662 71.7748 112.099 71.7774 112.553C71.78 113.007 72.0192 113.442 72.4424 113.762C72.8657 114.082 73.4383 114.26 74.0342 114.258Z" fill="#754F50"/>
</svg>
