<svg width="207" height="162" viewBox="0 0 207 162" fill="none" xmlns="http://www.w3.org/2000/svg">
<path d="M27.619 126.344C35.0227 135.876 34.5458 141.198 31.5813 144.989C28.6169 148.779 27.4108 153.381 32.8964 154.156C38.382 154.931 52.6961 152.832 57.8563 146.821C63.0165 140.811 60.0498 133.864 70.1612 128.685" fill="#54C6D5"/>
<path d="M29.5438 125.47C36.5602 134.503 37.4745 140.791 33.5024 145.868C32.1068 147.652 31.2985 149.428 31.3089 150.693C31.3179 151.764 31.8269 152.263 33.3032 152.471C35.8221 152.828 40.4912 152.441 44.8274 151.399C49.9212 150.175 53.9537 148.248 55.9852 145.881C57.3384 144.305 58.084 142.74 59.0027 139.934C59.0646 139.745 59.1087 139.61 59.2281 139.24C60.208 136.206 60.7745 134.82 61.9261 133.116C63.4755 130.823 65.7019 128.908 68.9149 127.262C69.4083 127.012 70.0111 126.922 70.5915 127.011C71.1719 127.099 71.6827 127.361 72.0121 127.737C72.3415 128.113 72.4628 128.573 72.3494 129.018C72.236 129.462 71.8971 129.854 71.4069 130.107C66.7796 132.477 65.3339 134.617 63.5755 140.061C63.4546 140.434 63.4106 140.572 63.3464 140.766C62.315 143.916 61.4238 145.785 59.7274 147.76C57.0376 150.893 52.1587 153.227 46.1686 154.666C41.1883 155.862 35.8079 156.307 32.4889 155.839C28.8333 155.322 26.8518 153.381 26.8302 150.713C26.8145 148.726 27.8795 146.384 29.6595 144.11C32.6718 140.26 31.9456 135.269 25.6942 127.218C25.5392 127.025 25.436 126.81 25.3905 126.586C25.3451 126.362 25.3584 126.133 25.4296 125.912C25.5008 125.692 25.6286 125.485 25.8054 125.303C25.9822 125.121 26.2046 124.967 26.4597 124.851C26.7147 124.736 26.9973 124.66 27.2911 124.628C27.5848 124.596 27.8839 124.61 28.1708 124.667C28.4578 124.725 28.7269 124.825 28.9626 124.963C29.1983 125.101 29.3959 125.273 29.5438 125.47Z" fill="#524F75"/>
<path d="M178.729 108.4C173.051 124.561 152.206 145.26 104.812 146.32H67.9849C47.7478 146.32 31.5544 141.663 21.4676 133.337C19.407 131.637 15.8163 127.471 14.6244 124.732C13.4325 121.993 12.7743 120.355 13.752 118.351C11.3308 117.053 7.29536 114.518 5.71312 111.031C3.93832 107.118 4.55629 103.535 4.72347 101.636C4.89065 99.7382 5.10261 97.2954 5.71312 94.7311C10.5569 74.3794 35.3623 59.5684 63.262 59.5684H70.5262C93.9956 59.5684 120.538 75.7657 125.407 97.8428C125.97 100.399 128.44 110.387 130.614 112.23C137.427 118.009 153.076 118.451 160.601 113.219C161.646 112.492 163.052 111.453 164.818 110.102C165.564 109.532 166.099 108.82 166.368 108.04C166.638 107.261 166.633 106.44 166.353 105.662C165.975 104.61 165.652 103.857 165.385 103.403C164.9 102.636 164.172 100.28 161.141 98.038C158.111 95.795 148.201 92.2856 150.137 91.1818C150.449 91.0037 151.959 90.3006 154.47 89.9187C164.941 88.3241 170.916 94.1085 173.051 96.336C173.284 96.5792 173.509 96.8212 173.726 97.0609C173.938 96.8206 174.159 96.5735 174.388 96.3189C176.328 94.1627 182.767 88.5655 193.058 89.9587C195.188 90.2463 197.122 90.9957 197.538 91.1823C199.706 92.1571 186.997 98.0385 184.875 99.886C182.752 101.733 180.158 104.388 178.729 108.4Z" fill="#6ED8E6"/>
<path d="M178.729 108.4C180.159 104.389 182.752 101.734 184.874 99.8861C186.996 98.0386 199.705 92.1572 197.537 91.1824C197.121 90.9958 195.188 90.2464 193.058 89.9588C182.766 88.5656 176.328 94.1628 174.387 96.319C174.158 96.573 173.283 96.5793 173.05 96.3361C170.916 94.1091 164.941 88.3242 154.469 89.9188C151.959 90.3006 150.448 91.0043 150.136 91.1818C148.2 92.2856 158.111 95.7951 161.14 98.038C164.171 100.281 164.899 102.636 165.384 103.403C165.65 103.857 165.974 104.61 166.353 105.662C166.632 106.44 166.638 107.261 166.368 108.041C166.098 108.82 165.563 109.532 164.817 110.102C163.051 111.453 161.645 112.492 160.6 113.219C153.075 118.451 137.426 118.009 130.613 112.23C128.44 110.388 125.969 100.399 125.406 97.8428C120.539 75.7658 93.9956 59.5684 70.5262 59.5684H63.262C35.3623 59.5684 10.5569 74.3795 5.71313 94.7312C5.10337 97.2949 4.89141 99.7377 4.72348 101.636C4.55555 103.535 3.93758 107.118 5.71313 111.031C7.29537 114.518 11.3316 117.053 13.752 118.352C12.7743 120.355 13.4333 121.993 14.6244 124.732C15.8156 127.471 19.407 131.637 21.4677 133.337C31.5552 141.663 47.7478 146.32 67.9849 146.32H104.811C152.206 145.26 173.05 124.561 178.729 108.4ZM173.575 92.5647L173.726 97.0604C174.421 93.9761 174.426 92.1601 173.739 91.6139C172.555 92.5071 173.795 92.3147 173.575 92.5647ZM1.48212 112.153C0.00884479 108.906 -0.211328 106.084 0.155872 102.4C0.149155 102.467 0.238714 101.59 0.255133 101.406C0.54546 98.1134 0.76862 96.3801 1.30673 94.1182C6.51321 72.2432 33.0442 56.144 63.262 56.144H70.5262C97.3795 56.144 124.798 74.4868 129.822 97.2733C130.927 102.285 133.118 109.241 133.939 109.937C139.05 114.272 151.853 114.674 157.588 110.686C158.571 110.002 159.932 108.997 161.651 107.681C161.838 107.539 161.972 107.361 162.039 107.166C162.107 106.971 162.106 106.766 162.036 106.571C161.713 105.676 161.451 105.063 161.301 104.807C161.088 104.429 160.513 103.289 160.289 102.926C159.737 102.017 158.971 101.194 158.028 100.498C157.446 100.066 156.232 99.4221 153.93 98.3108C150.541 96.678 149.615 96.2123 148.464 95.5068C147.451 94.8853 146.707 94.3089 146.16 93.588C144.89 91.9112 145.154 89.7516 147.462 88.4366C148.73 87.7135 150.968 86.9607 153.597 86.5606C159.494 85.6623 164.787 86.5663 169.328 88.823C170.936 89.6189 172.416 90.5557 173.74 91.6144C175.099 90.586 176.603 89.6761 178.225 88.9012C182.795 86.725 188.07 85.8061 193.84 86.5869C196.097 86.8928 198.422 87.6073 199.808 88.2306C202.47 89.4274 202.811 91.6453 201.646 93.3923C201.177 94.0966 200.508 94.7055 199.59 95.3784C198.422 96.2357 196.867 97.1797 194.536 98.4969L193.83 98.8941C189.091 101.55 188.594 101.837 188.241 102.146C185.725 104.336 184.064 106.457 183.051 109.3C179.614 119.084 171.828 128.512 160.232 135.685C146.386 144.249 127.871 149.229 104.944 149.742L67.9849 149.744C46.7627 149.744 29.2841 144.828 18.1823 135.665C15.4215 133.386 11.6742 128.8 10.3748 125.813C9.18362 123.075 8.62983 121.372 8.76865 119.752C5.44221 117.643 2.85166 115.173 1.48212 112.153Z" fill="#524F75"/>
<path d="M8.21411 104.085C8.21411 104.54 8.45001 104.975 8.8699 105.296C9.2898 105.617 9.85931 105.798 10.4531 105.798C11.047 105.798 11.6165 105.617 12.0364 105.296C12.4563 104.975 12.6922 104.54 12.6922 104.085C12.6922 103.631 12.4563 103.196 12.0364 102.875C11.6165 102.554 11.047 102.373 10.4531 102.373C9.85931 102.373 9.2898 102.554 8.8699 102.875C8.45001 103.196 8.21411 103.631 8.21411 104.085Z" fill="#754F50"/>
<path d="M70.9069 65.2757C70.9069 65.7298 71.1428 66.1653 71.5627 66.4864C71.9826 66.8075 72.5521 66.9879 73.1459 66.9879C73.7397 66.9879 74.3092 66.8075 74.7291 66.4864C75.149 66.1653 75.3849 65.7298 75.3849 65.2757C75.3849 64.8216 75.149 64.3861 74.7291 64.065C74.3092 63.7439 73.7397 63.5635 73.1459 63.5635C72.5521 63.5635 71.9826 63.7439 71.5627 64.065C71.1428 64.3861 70.9069 64.8216 70.9069 65.2757Z" fill="#754F50"/>
<path d="M87.3263 77.2609C87.3262 77.4858 87.384 77.7085 87.4965 77.9163C87.609 78.1241 87.7739 78.313 87.9818 78.472C88.1897 78.6311 88.4366 78.7573 88.7083 78.8433C88.98 78.9294 89.2712 78.9737 89.5653 78.9737C89.8594 78.9737 90.1506 78.9294 90.4223 78.8433C90.6941 78.7573 90.9409 78.6311 91.1488 78.472C91.3568 78.313 91.5217 78.1241 91.6341 77.9163C91.7466 77.7085 91.8045 77.4858 91.8043 77.2609C91.8045 77.036 91.7466 76.8133 91.6341 76.6055C91.5217 76.3977 91.3568 76.2089 91.1488 76.0498C90.9409 75.8907 90.6941 75.7646 90.4223 75.6785C90.1506 75.5924 89.8594 75.5481 89.5653 75.5481C89.2712 75.5481 88.98 75.5924 88.7083 75.6785C88.4366 75.7646 88.1897 75.8907 87.9818 76.0498C87.7739 76.2089 87.609 76.3977 87.4965 76.6055C87.384 76.8133 87.3262 77.036 87.3263 77.2609Z" fill="#754F50"/>
<path d="M86.58 69.2709C86.58 69.5736 86.7372 69.8639 87.0172 70.078C87.2971 70.2921 87.6768 70.4123 88.0726 70.4123C88.4685 70.4123 88.8482 70.2921 89.1281 70.078C89.4081 69.8639 89.5653 69.5736 89.5653 69.2709C89.5653 68.9681 89.4081 68.6778 89.1281 68.4637C88.8482 68.2497 88.4685 68.1294 88.0726 68.1294C87.6768 68.1294 87.2971 68.2497 87.0172 68.4637C86.7372 68.6778 86.58 68.9681 86.58 69.2709Z" fill="#754F50"/>
<path d="M102.253 81.827C102.253 82.1297 102.41 82.4201 102.69 82.6341C102.97 82.8482 103.35 82.9685 103.746 82.9685C104.142 82.9685 104.521 82.8482 104.801 82.6341C105.081 82.4201 105.239 82.1297 105.239 81.827C105.239 81.5243 105.081 81.2339 104.801 81.0199C104.521 80.8058 104.142 80.6855 103.746 80.6855C103.35 80.6855 102.97 80.8058 102.69 81.0199C102.41 81.2339 102.253 81.5243 102.253 81.827Z" fill="#754F50"/>
<path d="M62.697 62.422C62.697 62.7247 62.8543 63.0151 63.1342 63.2291C63.4142 63.4432 63.7938 63.5634 64.1897 63.5634C64.5856 63.5634 64.9653 63.4432 65.2452 63.2291C65.5251 63.0151 65.6824 62.7247 65.6824 62.422C65.6824 62.1192 65.5251 61.8289 65.2452 61.6148C64.9653 61.4008 64.5856 61.2805 64.1897 61.2805C63.7938 61.2805 63.4142 61.4008 63.1342 61.6148C62.8543 61.8289 62.697 62.1192 62.697 62.422Z" fill="#754F50"/>
<path d="M108.97 80.9708C108.97 81.3492 109.167 81.7121 109.517 81.9797C109.867 82.2473 110.341 82.3976 110.836 82.3976C111.331 82.3976 111.806 82.2473 112.155 81.9797C112.505 81.7121 112.702 81.3492 112.702 80.9708C112.702 80.5924 112.505 80.2294 112.155 79.9619C111.806 79.6943 111.331 79.5439 110.836 79.5439C110.341 79.5439 109.867 79.6943 109.517 79.9619C109.167 80.2294 108.97 80.5924 108.97 80.9708Z" fill="#754F50"/>
<path d="M114.195 90.6732C114.195 91.0516 114.391 91.4145 114.741 91.6821C115.091 91.9497 115.566 92.1 116.06 92.1C116.555 92.1 117.03 91.9497 117.38 91.6821C117.73 91.4145 117.926 91.0516 117.926 90.6732C117.926 90.2947 117.73 89.9318 117.38 89.6642C117.03 89.3967 116.555 89.2463 116.06 89.2463C115.566 89.2463 115.091 89.3967 114.741 89.6642C114.391 89.9318 114.195 90.2947 114.195 90.6732Z" fill="#754F50"/>
<path d="M163.453 113.503C163.453 113.73 163.571 113.947 163.781 114.108C163.991 114.268 164.276 114.359 164.573 114.359C164.87 114.359 165.154 114.268 165.364 114.108C165.574 113.947 165.692 113.73 165.692 113.503C165.692 113.276 165.574 113.058 165.364 112.897C165.154 112.737 164.87 112.646 164.573 112.646C164.276 112.646 163.991 112.737 163.781 112.897C163.571 113.058 163.453 113.276 163.453 113.503Z" fill="#754F50"/>
<path d="M119.419 103.8C119.419 103.987 119.467 104.173 119.561 104.346C119.655 104.519 119.792 104.677 119.966 104.809C120.139 104.942 120.345 105.047 120.571 105.118C120.797 105.19 121.04 105.227 121.285 105.227C121.53 105.227 121.773 105.19 121.999 105.118C122.225 105.047 122.431 104.942 122.604 104.809C122.778 104.677 122.915 104.519 123.009 104.346C123.103 104.173 123.151 103.987 123.151 103.8C123.151 103.613 123.103 103.427 123.009 103.254C122.915 103.081 122.778 102.924 122.604 102.791C122.431 102.659 122.225 102.554 121.999 102.482C121.773 102.41 121.53 102.373 121.285 102.373C121.04 102.373 120.797 102.41 120.571 102.482C120.345 102.554 120.139 102.659 119.966 102.791C119.792 102.924 119.655 103.081 119.561 103.254C119.467 103.427 119.419 103.613 119.419 103.8Z" fill="#754F50"/>
<path d="M41.0531 66.4171C41.0531 66.7198 41.2104 67.0102 41.4903 67.2242C41.7702 67.4383 42.1499 67.5586 42.5458 67.5586C42.9417 67.5586 43.3213 67.4383 43.6013 67.2242C43.8812 67.0102 44.0385 66.7198 44.0385 66.4171C44.0385 66.1144 43.8812 65.824 43.6013 65.61C43.3213 65.3959 42.9417 65.2756 42.5458 65.2756C42.1499 65.2756 41.7702 65.3959 41.4903 65.61C41.2104 65.824 41.0531 66.1144 41.0531 66.4171Z" fill="#754F50"/>
<path d="M17.1702 110.363C17.1702 110.513 17.2088 110.662 17.2838 110.8C17.3588 110.939 17.4688 111.065 17.6074 111.171C17.746 111.277 17.9105 111.361 18.0916 111.418C18.2727 111.475 18.4668 111.505 18.6629 111.505C18.8589 111.505 19.053 111.475 19.2341 111.418C19.4152 111.361 19.5797 111.277 19.7183 111.171C19.8569 111.065 19.9669 110.939 20.0419 110.8C20.1169 110.662 20.1555 110.513 20.1555 110.363C20.1555 110.213 20.1169 110.065 20.0419 109.927C19.9669 109.788 19.8569 109.662 19.7183 109.556C19.5797 109.45 19.4152 109.366 19.2341 109.309C19.053 109.251 18.8589 109.222 18.6629 109.222C18.4668 109.222 18.2727 109.251 18.0916 109.309C17.9105 109.366 17.746 109.45 17.6074 109.556C17.4688 109.662 17.3588 109.788 17.2838 109.927C17.2088 110.065 17.1702 110.213 17.1702 110.363Z" fill="#754F50"/>
<path d="M124.643 112.646C124.643 112.796 124.682 112.945 124.757 113.083C124.832 113.222 124.942 113.347 125.081 113.453C125.219 113.559 125.384 113.644 125.565 113.701C125.746 113.758 125.94 113.788 126.136 113.788C126.332 113.788 126.526 113.758 126.707 113.701C126.888 113.644 127.053 113.559 127.192 113.453C127.33 113.347 127.44 113.222 127.515 113.083C127.59 112.945 127.629 112.796 127.629 112.646C127.629 112.496 127.59 112.348 127.515 112.21C127.44 112.071 127.33 111.945 127.192 111.839C127.053 111.733 126.888 111.649 126.707 111.592C126.526 111.534 126.332 111.505 126.136 111.505C125.94 111.505 125.746 111.534 125.565 111.592C125.384 111.649 125.219 111.733 125.081 111.839C124.942 111.945 124.832 112.071 124.757 112.21C124.682 112.348 124.643 112.496 124.643 112.646Z" fill="#754F50"/>
<path d="M147.78 120.066C147.78 120.216 147.819 120.364 147.894 120.503C147.969 120.641 148.079 120.767 148.217 120.873C148.356 120.979 148.52 121.063 148.701 121.121C148.883 121.178 149.077 121.207 149.273 121.207C149.469 121.207 149.663 121.178 149.844 121.121C150.025 121.063 150.19 120.979 150.328 120.873C150.467 120.767 150.577 120.641 150.652 120.503C150.727 120.364 150.765 120.216 150.765 120.066C150.765 119.916 150.727 119.768 150.652 119.629C150.577 119.491 150.467 119.365 150.328 119.259C150.19 119.153 150.025 119.069 149.844 119.011C149.663 118.954 149.469 118.925 149.273 118.925C149.077 118.925 148.883 118.954 148.701 119.011C148.52 119.069 148.356 119.153 148.217 119.259C148.079 119.365 147.969 119.491 147.894 119.629C147.819 119.768 147.78 119.916 147.78 120.066Z" fill="#754F50"/>
<path d="M9.70679 95.5245C9.70679 95.8273 9.86405 96.1176 10.144 96.3317C10.4239 96.5457 10.8036 96.666 11.1995 96.666C11.5954 96.666 11.975 96.5457 12.255 96.3317C12.5349 96.1176 12.6922 95.8273 12.6922 95.5245C12.6922 95.2218 12.5349 94.9315 12.255 94.7174C11.975 94.5033 11.5954 94.3831 11.1995 94.3831C10.8036 94.3831 10.4239 94.5033 10.144 94.7174C9.86405 94.9315 9.70679 95.2218 9.70679 95.5245Z" fill="#754F50"/>
<path d="M8.21411 110.649C8.21411 110.876 8.33206 111.094 8.54201 111.254C8.75196 111.415 9.03671 111.505 9.33362 111.505C9.63054 111.505 9.91529 111.415 10.1252 111.254C10.3352 111.094 10.4531 110.876 10.4531 110.649C10.4531 110.422 10.3352 110.204 10.1252 110.043C9.91529 109.883 9.63054 109.793 9.33362 109.793C9.03671 109.793 8.75196 109.883 8.54201 110.043C8.33206 110.204 8.21411 110.422 8.21411 110.649Z" fill="#754F50"/>
<path d="M14.9312 83.8244C14.9312 84.0514 15.0491 84.2692 15.259 84.4297C15.469 84.5903 15.7538 84.6805 16.0507 84.6805C16.3476 84.6805 16.6323 84.5903 16.8423 84.4297C17.0522 84.2692 17.1702 84.0514 17.1702 83.8244C17.1702 83.5973 17.0522 83.3796 16.8423 83.219C16.6323 83.0585 16.3476 82.9683 16.0507 82.9683C15.7538 82.9683 15.469 83.0585 15.259 83.219C15.0491 83.3796 14.9312 83.5973 14.9312 83.8244Z" fill="#754F50"/>
<path d="M26.1263 78.4025C26.1263 78.5539 26.205 78.6991 26.3449 78.8061C26.4849 78.9131 26.6747 78.9733 26.8727 78.9733C27.0706 78.9733 27.2605 78.9131 27.4004 78.8061C27.5404 78.6991 27.619 78.5539 27.619 78.4025C27.619 78.2512 27.5404 78.106 27.4004 77.999C27.2605 77.8919 27.0706 77.8318 26.8727 77.8318C26.6747 77.8318 26.4849 77.8919 26.3449 77.999C26.205 78.106 26.1263 78.2512 26.1263 78.4025Z" fill="#754F50"/>
<path d="M21.6483 77.8317C21.6483 77.9831 21.7269 78.1283 21.8669 78.2353C22.0069 78.3423 22.1967 78.4024 22.3947 78.4024C22.5926 78.4024 22.7824 78.3423 22.9224 78.2353C23.0624 78.1283 23.141 77.9831 23.141 77.8317C23.141 77.6804 23.0624 77.5352 22.9224 77.4282C22.7824 77.3211 22.5926 77.261 22.3947 77.261C22.1967 77.261 22.0069 77.3211 21.8669 77.4282C21.7269 77.5352 21.6483 77.6804 21.6483 77.8317Z" fill="#754F50"/>
<path d="M82.1019 66.988C82.1019 67.1393 82.1806 67.2845 82.3205 67.3915C82.4605 67.4986 82.6503 67.5587 82.8483 67.5587C83.0462 67.5587 83.236 67.4986 83.376 67.3915C83.516 67.2845 83.5946 67.1393 83.5946 66.988C83.5946 66.8366 83.516 66.6914 83.376 66.5844C83.236 66.4774 83.0462 66.4172 82.8483 66.4172C82.6503 66.4172 82.4605 66.4774 82.3205 66.5844C82.1806 66.6914 82.1019 66.8366 82.1019 66.988Z" fill="#754F50"/>
<path d="M100.76 76.6904C100.76 76.7653 100.78 76.8395 100.817 76.9088C100.855 76.978 100.91 77.0409 100.979 77.0939C101.048 77.1469 101.131 77.189 101.221 77.2177C101.312 77.2463 101.409 77.2611 101.507 77.2611C101.605 77.2611 101.702 77.2463 101.792 77.2177C101.883 77.189 101.965 77.1469 102.035 77.0939C102.104 77.0409 102.159 76.978 102.196 76.9088C102.234 76.8395 102.253 76.7653 102.253 76.6904C102.253 76.6154 102.234 76.5412 102.196 76.4719C102.159 76.4027 102.104 76.3398 102.035 76.2868C101.965 76.2338 101.883 76.1918 101.792 76.1631C101.702 76.1344 101.605 76.1196 101.507 76.1196C101.409 76.1196 101.312 76.1344 101.221 76.1631C101.131 76.1918 101.048 76.2338 100.979 76.2868C100.91 76.3398 100.855 76.4027 100.817 76.4719C100.78 76.5412 100.76 76.6154 100.76 76.6904Z" fill="#754F50"/>
<path d="M113.448 85.822C113.448 85.9733 113.527 86.1185 113.667 86.2255C113.807 86.3326 113.997 86.3927 114.195 86.3927C114.393 86.3927 114.582 86.3326 114.722 86.2255C114.862 86.1185 114.941 85.9733 114.941 85.822C114.941 85.6706 114.862 85.5254 114.722 85.4184C114.582 85.3114 114.393 85.2512 114.195 85.2512C113.997 85.2512 113.807 85.3114 113.667 85.4184C113.527 85.5254 113.448 85.6706 113.448 85.822Z" fill="#754F50"/>
<path d="M155.99 117.783C155.99 117.934 156.068 118.079 156.208 118.186C156.348 118.293 156.538 118.354 156.736 118.354C156.934 118.354 157.124 118.293 157.264 118.186C157.404 118.079 157.482 117.934 157.482 117.783C157.482 117.632 157.404 117.486 157.264 117.379C157.124 117.272 156.934 117.212 156.736 117.212C156.538 117.212 156.348 117.272 156.208 117.379C156.068 117.486 155.99 117.632 155.99 117.783Z" fill="#754F50"/>
<path d="M120.912 94.9537C120.912 95.0286 120.931 95.1029 120.968 95.1722C121.006 95.2415 121.061 95.3044 121.13 95.3575C121.199 95.4105 121.282 95.4526 121.372 95.4813C121.463 95.51 121.56 95.5248 121.658 95.5248C121.756 95.5248 121.853 95.51 121.944 95.4813C122.034 95.4526 122.117 95.4105 122.186 95.3575C122.255 95.3044 122.31 95.2415 122.348 95.1722C122.385 95.1029 122.404 95.0286 122.404 94.9537C122.404 94.8787 122.385 94.8044 122.348 94.7351C122.31 94.6659 122.255 94.6029 122.186 94.5499C122.117 94.4968 122.034 94.4548 121.944 94.4261C121.853 94.3974 121.756 94.3826 121.658 94.3826C121.56 94.3826 121.463 94.3974 121.372 94.4261C121.282 94.4548 121.199 94.4968 121.13 94.5499C121.061 94.6029 121.006 94.6659 120.968 94.7351C120.931 94.8044 120.912 94.8787 120.912 94.9537Z" fill="#754F50"/>
<path d="M29.858 74.4074C29.858 74.5588 29.9367 74.7039 30.0766 74.811C30.2166 74.918 30.4064 74.9781 30.6044 74.9781C30.8023 74.9781 30.9922 74.918 31.1321 74.811C31.2721 74.7039 31.3507 74.5588 31.3507 74.4074C31.3507 74.256 31.2721 74.1109 31.1321 74.0038C30.9922 73.8968 30.8023 73.8367 30.6044 73.8367C30.4064 73.8367 30.2166 73.8968 30.0766 74.0038C29.9367 74.1109 29.858 74.256 29.858 74.4074Z" fill="#754F50"/>
<path d="M35.0824 70.4123C35.0824 70.4872 35.1017 70.5615 35.1392 70.6307C35.1767 70.6999 35.2317 70.7629 35.301 70.8159C35.3703 70.8689 35.4526 70.9109 35.5431 70.9396C35.6337 70.9683 35.7307 70.983 35.8287 70.983C35.9267 70.983 36.0238 70.9683 36.1143 70.9396C36.2049 70.9109 36.2872 70.8689 36.3565 70.8159C36.4258 70.7629 36.4808 70.6999 36.5183 70.6307C36.5558 70.5615 36.5751 70.4872 36.5751 70.4123C36.5751 70.3373 36.5558 70.2631 36.5183 70.1939C36.4808 70.1246 36.4258 70.0617 36.3565 70.0087C36.2872 69.9557 36.2049 69.9137 36.1143 69.885C36.0238 69.8563 35.9267 69.8416 35.8287 69.8416C35.7307 69.8416 35.6337 69.8563 35.5431 69.885C35.4526 69.9137 35.3703 69.9557 35.301 70.0087C35.2317 70.0617 35.1767 70.1246 35.1392 70.1939C35.1017 70.2631 35.0824 70.3373 35.0824 70.4123Z" fill="#754F50"/>
<path d="M47.7703 68.7001C47.7703 68.7751 47.7896 68.8493 47.8271 68.9185C47.8646 68.9878 47.9196 69.0507 47.9889 69.1037C48.0582 69.1567 48.1404 69.1987 48.231 69.2274C48.3215 69.2561 48.4186 69.2709 48.5166 69.2709C48.6146 69.2709 48.7117 69.2561 48.8022 69.2274C48.8928 69.1987 48.975 69.1567 49.0444 69.1037C49.1137 69.0507 49.1686 68.9878 49.2061 68.9185C49.2436 68.8493 49.2629 68.7751 49.2629 68.7001C49.2629 68.6252 49.2436 68.551 49.2061 68.4817C49.1686 68.4125 49.1137 68.3496 49.0444 68.2966C48.975 68.2436 48.8928 68.2015 48.8022 68.1728C48.7117 68.1442 48.6146 68.1294 48.5166 68.1294C48.4186 68.1294 48.3215 68.1442 48.231 68.1728C48.1404 68.2015 48.0582 68.2436 47.9889 68.2966C47.9196 68.3496 47.8646 68.4125 47.8271 68.4817C47.7896 68.551 47.7703 68.6252 47.7703 68.7001Z" fill="#754F50"/>
<path d="M68.6678 67.5585C68.6678 67.7099 68.7465 67.8551 68.8864 67.9621C69.0264 68.0691 69.2162 68.1293 69.4142 68.1293C69.6121 68.1293 69.802 68.0691 69.9419 67.9621C70.0819 67.8551 70.1605 67.7099 70.1605 67.5585C70.1605 67.4072 70.0819 67.262 69.9419 67.155C69.802 67.0479 69.6121 66.9878 69.4142 66.9878C69.2162 66.9878 69.0264 67.0479 68.8864 67.155C68.7465 67.262 68.6678 67.4072 68.6678 67.5585Z" fill="#754F50"/>
<path d="M82.8483 64.1342C82.8483 64.2856 82.9269 64.4307 83.0669 64.5378C83.2068 64.6448 83.3967 64.7049 83.5946 64.7049C83.7925 64.7049 83.9824 64.6448 84.1223 64.5378C84.2623 64.4307 84.3409 64.2856 84.3409 64.1342C84.3409 63.9828 84.2623 63.8377 84.1223 63.7306C83.9824 63.6236 83.7925 63.5635 83.5946 63.5635C83.3967 63.5635 83.2068 63.6236 83.0669 63.7306C82.9269 63.8377 82.8483 63.9828 82.8483 64.1342Z" fill="#754F50"/>
<path d="M98.5215 69.8415C98.5215 69.9164 98.5408 69.9906 98.5783 70.0599C98.6158 70.1291 98.6708 70.1921 98.7401 70.2451C98.8094 70.2981 98.8917 70.3401 98.9822 70.3688C99.0728 70.3975 99.1698 70.4122 99.2678 70.4122C99.3658 70.4122 99.4629 70.3975 99.5534 70.3688C99.644 70.3401 99.7263 70.2981 99.7956 70.2451C99.8649 70.1921 99.9199 70.1291 99.9574 70.0599C99.9949 69.9906 100.014 69.9164 100.014 69.8415C100.014 69.7665 99.9949 69.6923 99.9574 69.6231C99.9199 69.5538 99.8649 69.4909 99.7956 69.4379C99.7263 69.3849 99.644 69.3429 99.5534 69.3142C99.4629 69.2855 99.3658 69.2708 99.2678 69.2708C99.1698 69.2708 99.0728 69.2855 98.9822 69.3142C98.8917 69.3429 98.8094 69.3849 98.7401 69.4379C98.6708 69.4909 98.6158 69.5538 98.5783 69.6231C98.5408 69.6923 98.5215 69.7665 98.5215 69.8415Z" fill="#754F50"/>
<path d="M108.224 77.8317C108.224 77.9831 108.303 78.1283 108.442 78.2353C108.582 78.3423 108.772 78.4024 108.97 78.4024C109.168 78.4024 109.358 78.3423 109.498 78.2353C109.638 78.1283 109.717 77.9831 109.717 77.8317C109.717 77.6804 109.638 77.5352 109.498 77.4282C109.358 77.3211 109.168 77.261 108.97 77.261C108.772 77.261 108.582 77.3211 108.442 77.4282C108.303 77.5352 108.224 77.6804 108.224 77.8317Z" fill="#754F50"/>
<path d="M51.502 62.9929C51.502 63.1442 51.5806 63.2894 51.7206 63.3964C51.8605 63.5035 52.0504 63.5636 52.2483 63.5636C52.4462 63.5636 52.6361 63.5035 52.776 63.3964C52.916 63.2894 52.9946 63.1442 52.9946 62.9929C52.9946 62.8415 52.916 62.6963 52.776 62.5893C52.6361 62.4823 52.4462 62.4221 52.2483 62.4221C52.0504 62.4221 51.8605 62.4823 51.7206 62.5893C51.5806 62.6963 51.502 62.8415 51.502 62.9929Z" fill="#754F50"/>
<path d="M29.858 70.9831C29.858 71.1345 29.9367 71.2796 30.0766 71.3867C30.2166 71.4937 30.4064 71.5538 30.6044 71.5538C30.8023 71.5538 30.9922 71.4937 31.1321 71.3867C31.2721 71.2796 31.3507 71.1345 31.3507 70.9831C31.3507 70.8317 31.2721 70.6866 31.1321 70.5795C30.9922 70.4725 30.8023 70.4124 30.6044 70.4124C30.4064 70.4124 30.2166 70.4725 30.0766 70.5795C29.9367 70.6866 29.858 70.8317 29.858 70.9831Z" fill="#754F50"/>
<path d="M34.3361 75.5488C34.3361 75.7001 34.4147 75.8453 34.5547 75.9523C34.6946 76.0594 34.8845 76.1195 35.0824 76.1195C35.2804 76.1195 35.4702 76.0594 35.6101 75.9523C35.7501 75.8453 35.8288 75.7001 35.8288 75.5488C35.8288 75.3974 35.7501 75.2522 35.6101 75.1452C35.4702 75.0382 35.2804 74.978 35.0824 74.978C34.8845 74.978 34.6946 75.0382 34.5547 75.1452C34.4147 75.2522 34.3361 75.3974 34.3361 75.5488Z" fill="#754F50"/>
<path d="M173.826 118.183C164.074 131.791 142.822 145.599 104.571 146.436H68.6357C48.4106 146.436 31.5544 141.45 21.4736 133.309C19.4144 131.646 15.8522 127.611 14.661 124.932C14.089 123.659 13.6043 122.365 13.2086 121.055C29.8617 123.271 41.4748 124.155 48.0471 123.706C59.8751 122.9 70.3261 121.055 76.0804 116.668C94.9569 150.953 151.608 138.161 173.826 118.183Z" fill="white"/>
<path d="M135.092 128.627C127.689 137.434 131.184 142.892 131.345 146.417C131.505 149.943 129.326 154.914 123.555 155.403C117.786 155.891 109.749 152.646 104.856 147.547C99.9619 142.448 102.662 135.574 92.5508 130.79" fill="#6ED8E6"/>
<path d="M133.209 127.701C128.201 133.659 127.43 138.007 128.654 143.873C129.071 145.868 129.08 145.924 129.107 146.477C129.272 150.119 126.933 153.394 123.308 153.701C118.323 154.123 111.042 151.1 106.66 146.534C105.35 145.17 104.712 143.877 103.657 140.873C103.475 140.346 103.286 139.821 103.091 139.297C101.364 134.701 98.9648 131.812 93.7285 129.334C93.2239 129.107 92.6229 129.04 92.0544 129.147C91.4858 129.254 90.9949 129.528 90.6867 129.909C90.3786 130.289 90.2778 130.747 90.406 131.184C90.5341 131.622 90.881 132.003 91.3723 132.247C95.5309 134.214 97.3415 136.395 98.7879 140.244C98.9417 140.653 99.035 140.914 99.3328 141.761C100.528 145.163 101.308 146.746 103.05 148.56C108.31 154.04 117.064 157.675 123.802 157.105C130.257 156.558 133.82 151.572 133.582 146.358C133.547 145.59 133.539 145.555 133.076 143.334C132.01 138.232 132.634 134.717 136.975 129.553C137.141 129.364 137.256 129.151 137.314 128.928C137.371 128.704 137.369 128.474 137.309 128.251C137.249 128.028 137.131 127.817 136.962 127.629C136.794 127.441 136.578 127.281 136.327 127.158C136.077 127.035 135.797 126.951 135.503 126.912C135.21 126.872 134.909 126.878 134.619 126.929C134.329 126.979 134.054 127.074 133.812 127.206C133.57 127.339 133.365 127.507 133.209 127.701Z" fill="#524F75"/>
<path d="M84.3409 126.915C84.3409 127.52 84.6555 128.101 85.2153 128.529C85.7752 128.957 86.5345 129.198 87.3263 129.198C88.1181 129.198 88.8774 128.957 89.4373 128.529C89.9971 128.101 90.3117 127.52 90.3117 126.915C90.3117 126.309 89.9971 125.729 89.4373 125.3C88.8774 124.872 88.1181 124.632 87.3263 124.632C86.5345 124.632 85.7752 124.872 85.2153 125.3C84.6555 125.729 84.3409 126.309 84.3409 126.915Z" fill="#524F75"/>
<path d="M14.558 96.0952C20.1228 96.0952 24.6336 92.3615 24.6336 87.7563C24.6336 83.1505 20.1228 79.0298 14.558 79.0298C8.99331 79.0298 4.48242 83.1505 4.48242 87.7563C4.48242 92.3615 8.99331 96.0952 14.558 96.0952Z" fill="white"/>
<path d="M14.558 97.8075C7.71559 97.8075 2.24341 93.2781 2.24341 87.7563C2.24341 82.1803 7.76484 77.3176 14.558 77.3176C21.3512 77.3176 26.8727 82.1803 26.8727 87.7563C26.8727 93.2781 21.4005 97.8075 14.558 97.8075ZM14.558 94.3831C18.845 94.3831 22.3946 91.4449 22.3946 87.7563C22.3946 83.9729 18.7264 80.742 14.558 80.742C10.3897 80.742 6.72146 83.9729 6.72146 87.7563C6.72146 91.4449 10.2711 94.3831 14.558 94.3831Z" fill="#524F75"/>
<path d="M8.93955 90.0688C9.48662 90.6139 10.2964 90.9586 11.1995 90.9586C12.8481 90.9586 14.1848 89.8086 14.1848 88.3903C14.1848 86.9721 12.8481 85.822 11.1995 85.822C9.57096 85.822 8.2462 86.9441 8.21411 88.3384L10.4278 88.6152L8.93955 90.0688Z" fill="#232323"/>
<path d="M41.4263 96.6659C49.0517 96.6659 55.2337 91.9836 55.2337 86.2078C55.2337 80.432 48.3315 75.5488 40.7061 75.5488C33.0807 75.5488 27.619 80.432 27.619 86.2078C27.619 91.9836 33.801 96.6659 41.4263 96.6659Z" fill="white"/>
<path d="M41.4263 98.3781C32.5688 98.3781 25.38 92.9328 25.38 86.2078C25.38 79.3659 31.9792 73.8367 40.7061 73.8367C49.6272 73.8367 57.4727 79.5269 57.4727 86.2078C57.4727 92.9328 50.2839 98.3781 41.4263 98.3781ZM41.4263 94.9537C47.8203 94.9537 52.9946 91.0345 52.9946 86.2078C52.9946 81.4599 47.2053 77.2611 40.7061 77.2611C34.5481 77.2611 29.8581 81.1911 29.8581 86.2078C29.8581 91.0345 35.0324 94.9537 41.4263 94.9537Z" fill="#524F75"/>
<path d="M34.5794 89.1111C35.0541 89.5619 35.6703 89.9133 36.3707 90.1325C37.071 90.3518 37.8326 90.4318 38.5843 90.3649C39.336 90.2981 40.0533 90.0867 40.6692 89.7505C41.2851 89.4142 41.7796 88.9641 42.1064 88.4421C42.4331 87.9202 42.5816 87.3434 42.5379 86.7657C42.4942 86.1879 42.2597 85.6281 41.8564 85.1384C41.4531 84.6487 40.894 84.2452 40.2315 83.9655C39.569 83.6859 38.8246 83.5391 38.0678 83.5391C37.4621 83.539 36.8626 83.633 36.3057 83.8152C35.7488 83.9974 35.246 84.2642 34.8278 84.5993C34.4096 84.9344 34.0846 85.3309 33.8726 85.7649C33.6606 86.1988 33.5659 86.6611 33.5943 87.1238L36.5752 87.4429L34.5794 89.1111Z" fill="#232323"/>
<path d="M63.0232 50.46C63.1314 50.9019 63.4625 51.2936 63.9451 51.5505C64.4277 51.8073 65.023 51.9087 65.6025 51.8327C66.182 51.7567 66.6992 51.5094 67.0423 51.1443C67.3854 50.7792 67.5269 50.3255 67.4363 49.8813L64.0405 34.7489C62.5702 29.4468 55.8882 26.0892 49.0913 27.1941C42.2943 28.2991 37.9745 33.4448 39.4299 38.6801C39.491 38.9 39.6081 39.1086 39.7747 39.2939C39.9412 39.4792 40.1538 39.6377 40.4004 39.7601C40.647 39.8826 40.9227 39.9668 41.2118 40.0078C41.5009 40.0487 41.7977 40.0458 42.0854 39.9991C42.373 39.9523 42.6457 39.8627 42.8881 39.7354C43.1304 39.6081 43.3376 39.4455 43.4977 39.2569C43.6579 39.0683 43.7679 38.8575 43.8215 38.6364C43.8751 38.4153 43.8713 38.1883 43.8102 37.9684C42.8668 34.5743 45.6536 31.2537 50.0212 30.5437C54.3754 29.836 58.6743 31.9877 59.6356 35.3636L63.024 50.46H63.0232Z" fill="#524F75"/>
<path d="M54.5918 36.2158C54.6538 36.4401 54.6933 36.6656 54.7082 36.8899C54.8575 38.9759 53.0185 40.8451 50.3638 41.2765C47.3919 41.7599 44.4535 40.2835 43.8102 37.9686L43.702 37.5782L39.3209 38.2899L39.4299 38.6808C40.5852 42.8375 45.8932 45.5045 51.2945 44.6262C56.1233 43.8414 59.4468 40.4621 59.1803 36.7044C59.1511 36.3008 59.0812 35.8995 58.9714 35.5042L54.5911 36.2158H54.5918Z" fill="#524F75"/>
<path d="M54.6268 36.3161L54.5805 36.1506C54.4499 35.6809 53.9409 35.4098 53.5013 35.4817C53.061 35.5531 52.7401 35.9594 52.8707 36.428L52.9169 36.5941C52.978 36.814 52.9819 37.041 52.9283 37.2621C52.8747 37.4832 52.7647 37.694 52.6045 37.8826C52.4444 38.0711 52.2372 38.2337 51.9949 38.3611C51.7525 38.4884 51.4798 38.578 51.1921 38.6247C50.9045 38.6715 50.6077 38.6744 50.3186 38.6334C50.0295 38.5924 49.7538 38.5083 49.5072 38.3858C49.2606 38.2634 49.048 38.1049 48.8815 37.9196C48.7149 37.7343 48.5978 37.5257 48.5367 37.3058L48.4904 37.1403C47.859 34.8676 49.6465 32.607 52.5706 32.1321C55.4948 31.6567 58.3294 33.1651 58.9616 35.4383L59.0078 35.6039C59.069 35.8238 59.0729 36.0509 59.0193 36.272C58.9657 36.4931 58.8557 36.704 58.6956 36.8926C58.5354 37.0813 58.3282 37.2439 58.0859 37.3713C57.8435 37.4987 57.5707 37.5883 57.283 37.6351C56.9954 37.6819 56.6985 37.6848 56.4093 37.6439C56.1201 37.6029 55.8444 37.5188 55.5977 37.3963C55.3511 37.2738 55.1384 37.1154 54.9718 36.9301C54.8052 36.7447 54.688 36.5361 54.6268 36.3161Z" fill="#524F75"/>
<path d="M98.0289 25.9397C107.307 27.4482 113.206 34.4756 111.218 41.6291C111.09 42.0702 110.74 42.455 110.243 42.6996C109.747 42.9442 109.144 43.0288 108.566 42.935C107.988 42.8412 107.482 42.5765 107.159 42.1987C106.835 41.8209 106.719 41.3606 106.837 40.918C108.314 35.6051 103.947 30.4028 97.0982 29.2893C90.2498 28.1758 83.4924 31.5711 82.0162 36.8829L73.1534 57.4293C72.9636 57.8571 72.5605 58.2102 72.0317 58.4117C71.503 58.6132 70.8916 58.6468 70.3306 58.5051C69.7697 58.3634 69.3047 58.0579 69.037 57.6552C68.7693 57.2525 68.7206 56.7852 68.9014 56.3551L77.6628 36.0759C79.7055 28.9766 88.7915 24.4387 98.0297 25.9397H98.0289Z" fill="#524F75"/>
<path d="M92.9142 38.5825C92.8373 38.8588 92.791 39.1362 92.7724 39.4135C92.6007 42.0047 94.9726 44.3544 98.4035 44.912C102.24 45.5358 105.988 43.7049 106.785 40.8369L106.912 40.3786L111.293 41.0903L111.166 41.5492C109.852 46.2772 103.715 49.2763 97.4736 48.2616C91.8947 47.3547 88.0182 43.5142 88.301 39.2406C88.3309 38.7817 88.4085 38.3246 88.5346 37.8708L92.9142 38.5825Z" fill="#524F75"/>
<path d="M92.9015 38.5654L92.9701 38.3188C93.2911 37.1631 94.5673 36.4582 95.7241 36.6466C96.8817 36.8349 97.6721 37.8754 97.3504 39.0305L97.2817 39.2777C97.2206 39.4976 97.2168 39.7246 97.2704 39.9457C97.324 40.1667 97.434 40.3776 97.5942 40.5662C97.7543 40.7547 97.9615 40.9173 98.2038 41.0447C98.4462 41.172 98.7189 41.2616 99.0065 41.3083C99.2941 41.355 99.591 41.358 99.8801 41.317C100.169 41.276 100.445 41.1919 100.691 41.0694C100.938 40.9469 101.151 40.7885 101.317 40.6032C101.484 40.4179 101.601 40.2093 101.662 39.9894L101.731 39.7428C102.546 36.8081 100.336 33.8957 96.6556 33.297C92.9746 32.6988 89.4056 34.6724 88.5898 37.6071L88.5212 37.8537C88.4601 38.0736 88.4562 38.3006 88.5098 38.5217C88.5634 38.7428 88.6734 38.9536 88.8336 39.1422C88.9938 39.3307 89.2009 39.4933 89.4433 39.6207C89.6856 39.748 89.9584 39.8376 90.246 39.8843C90.5336 39.9311 90.8304 39.934 91.1195 39.893C91.4086 39.852 91.6844 39.7679 91.9309 39.6454C92.1775 39.523 92.3901 39.3645 92.5567 39.1792C92.7232 38.9939 92.8403 38.7853 92.9015 38.5654Z" fill="#524F75"/>
<path d="M80.5771 10.9499C80.577 11.3951 80.6911 11.8359 80.913 12.2471C81.1349 12.6584 81.4603 13.0321 81.8704 13.3469C82.2806 13.6617 82.7675 13.9114 83.3035 14.0818C83.8394 14.2521 84.4139 14.3398 84.994 14.3398C85.5741 14.3398 86.1486 14.2521 86.6845 14.0818C87.2205 13.9114 87.7074 13.6617 88.1176 13.3469C88.5277 13.0321 88.8531 12.6584 89.075 12.2471C89.2969 11.8359 89.411 11.3951 89.4108 10.9499C89.411 10.5048 89.2969 10.064 89.075 9.65276C88.8531 9.24149 88.5277 8.86778 88.1176 8.55299C87.7074 8.2382 87.2205 7.98849 86.6845 7.81812C86.1486 7.64775 85.5741 7.56006 84.994 7.56006C84.4139 7.56006 83.8394 7.64775 83.3035 7.81812C82.7675 7.98849 82.2806 8.2382 81.8704 8.55299C81.4603 8.86778 81.1349 9.24149 80.913 9.65276C80.6911 10.064 80.577 10.5048 80.5771 10.9499Z" fill="#7BFFFB"/>
<path d="M84.994 15.4811C81.7288 15.4811 79.0845 13.4516 79.0845 10.9506C79.0845 8.44912 81.7295 6.7666 84.994 6.7666C88.2593 6.7666 90.9035 8.44912 90.9035 10.9506C90.9035 13.4516 88.2593 15.4811 84.994 15.4811ZM84.994 13.1982C86.6083 13.1982 87.9182 12.1926 87.9182 10.9506C87.9182 9.70816 86.6076 8.81325 84.994 8.81325C83.3804 8.81325 82.0698 9.70816 82.0698 10.9506C82.0688 11.2451 82.1435 11.5368 82.2899 11.8091C82.4363 12.0814 82.6514 12.329 82.923 12.5377C83.1945 12.7464 83.5172 12.9122 83.8726 13.0255C84.2279 13.1388 84.609 13.1975 84.994 13.1982Z" fill="#524F75"/>
<path d="M63.6538 22.3048C63.6538 23.7757 64.4154 25.1863 65.7709 26.2263C67.1265 27.2663 68.9651 27.8506 70.8821 27.8506C72.7992 27.8506 74.6377 27.2663 75.9933 26.2263C77.3489 25.1863 78.1105 23.7757 78.1105 22.3048C78.1105 20.834 77.3489 19.4234 75.9933 18.3834C74.6377 17.3433 72.7992 16.759 70.8821 16.759C68.9651 16.759 67.1265 17.3433 65.7709 18.3834C64.4154 19.4234 63.6538 20.834 63.6538 22.3048Z" fill="#7BFFFB"/>
<path d="M70.8821 29.278C65.8585 29.278 61.788 26.155 61.788 22.3054C61.788 18.4558 65.8578 15.3328 70.8821 15.3328C75.9065 15.3328 79.9763 18.4558 79.9763 22.3054C79.9763 26.155 75.9058 29.278 70.8821 29.278ZM70.8821 26.1282C73.8421 26.1282 76.2446 24.5809 76.2446 22.3048C76.2446 20.0287 73.8421 18.49 70.8821 18.49C67.9222 18.49 65.5197 20.0287 65.5197 22.3048C65.5197 24.5809 67.9214 26.1282 70.8821 26.1282Z" fill="#524F75"/>
<path d="M60.4983 3.55566C60.4983 3.91984 60.5918 4.28045 60.7734 4.61691C60.955 4.95337 61.2212 5.25908 61.5567 5.51659C61.8923 5.77411 62.2907 5.97838 62.7291 6.11775C63.1676 6.25711 63.6375 6.32884 64.1121 6.32884C64.5866 6.32884 65.0566 6.25711 65.495 6.11775C65.9335 5.97838 66.3318 5.77411 66.6674 5.51659C67.003 5.25908 67.2692 4.95337 67.4508 4.61691C67.6324 4.28045 67.7259 3.91984 67.7259 3.55566C67.7259 3.19148 67.6324 2.83086 67.4508 2.4944C67.2692 2.15794 67.003 1.85223 66.6674 1.59472C66.3318 1.3372 65.9335 1.13293 65.495 0.993566C65.0566 0.8542 64.5866 0.782471 64.1121 0.782471C63.6375 0.782471 63.1676 0.8542 62.7291 0.993566C62.2907 1.13293 61.8923 1.3372 61.5567 1.59472C61.2212 1.85223 60.955 2.15794 60.7734 2.4944C60.5918 2.83086 60.4983 3.19148 60.4983 3.55566Z" fill="#7BFFFB"/>
<path d="M64.1121 7.47031C61.2902 7.47031 59.0049 5.71702 59.0049 3.55566C59.0049 1.39487 61.2902 0 64.1121 0C66.9333 0 69.2186 1.39487 69.2186 3.55566C69.2193 5.71702 66.934 7.47031 64.1121 7.47031ZM64.1121 5.18738C64.3915 5.18678 64.668 5.1441 64.9258 5.06176C65.1836 4.97943 65.4177 4.85906 65.6147 4.70754C65.8116 4.55601 65.9677 4.37629 66.0738 4.17865C66.1799 3.98101 66.2341 3.76931 66.2332 3.55566C66.234 3.34205 66.1797 3.13042 66.0736 2.93284C65.9674 2.73526 65.8114 2.55562 65.6144 2.40415C65.4174 2.25268 65.1834 2.13237 64.9256 2.05007C64.6679 1.96777 64.3914 1.92511 64.1121 1.92451C63.8327 1.92503 63.5562 1.96764 63.2983 2.04991C63.0405 2.13217 62.8063 2.25247 62.6093 2.40395C62.4122 2.55542 62.2562 2.7351 62.1499 2.93271C62.0437 3.13033 61.9895 3.342 61.9902 3.55566C61.9889 3.98716 62.2116 4.40143 62.6095 4.7074C63.0073 5.01338 63.5478 5.18602 64.1121 5.18738Z" fill="#524F75"/>
<path d="M11.7906 120.752C19.66 123.398 30.5305 124.443 44.4319 123.938C58.4325 123.429 68.7044 121.29 75.2588 117.427C75.4916 117.289 75.6869 117.118 75.8333 116.923C75.9797 116.728 76.0745 116.513 76.1122 116.29C76.1499 116.067 76.1298 115.841 76.053 115.624C75.9762 115.407 75.8443 115.203 75.6648 115.025C75.4852 114.847 75.2615 114.698 75.0065 114.586C74.7515 114.474 74.4702 114.401 74.1785 114.373C73.8869 114.344 73.5907 114.359 73.3069 114.418C73.023 114.476 72.757 114.577 72.5242 114.715C66.8266 118.073 57.3876 120.038 44.2184 120.517C30.9492 121 20.7303 120.017 13.5915 117.617C13.3218 117.524 13.0305 117.473 12.7345 117.466C12.4385 117.459 12.1437 117.498 11.8672 117.579C11.5907 117.66 11.338 117.782 11.1236 117.938C10.9093 118.094 10.7376 118.281 10.6185 118.489C10.4994 118.696 10.4353 118.919 10.4298 119.146C10.4244 119.372 10.4777 119.597 10.5867 119.808C10.6957 120.018 10.8582 120.21 11.0649 120.372C11.2715 120.534 11.5182 120.664 11.7906 120.752Z" fill="#524F75"/>
<path d="M71.5263 114.356C74.9005 114.502 76.0737 115.272 76.1312 117.813C76.135 118.039 76.1971 118.261 76.3138 118.469C76.4305 118.676 76.5996 118.863 76.8113 119.02C77.023 119.177 77.2732 119.301 77.5475 119.383C77.8217 119.466 78.1147 119.507 78.4096 119.503C78.7044 119.499 78.9954 119.45 79.2656 119.36C79.5359 119.27 79.7802 119.14 79.9846 118.977C80.1889 118.815 80.3492 118.623 80.4563 118.413C80.5633 118.202 80.6151 117.978 80.6085 117.753C80.5062 113.263 77.3313 111.177 71.7793 110.937C71.4837 110.922 71.1871 110.951 70.9066 111.024C70.626 111.097 70.3672 111.212 70.1451 111.361C69.9229 111.511 69.7419 111.693 69.6125 111.897C69.483 112.101 69.4078 112.322 69.391 112.549C69.3743 112.775 69.4164 113.001 69.515 113.215C69.6135 113.428 69.7665 113.625 69.9651 113.793C70.1637 113.961 70.404 114.098 70.672 114.194C70.9399 114.291 71.2303 114.346 71.5263 114.356Z" fill="#524F75"/>
<path d="M125.764 129.583C122.526 132.382 121.27 137.259 122.325 141.59C123.31 145.634 123.146 147.121 121.82 147.552C121.64 147.61 121.476 147.695 121.339 147.802C121.201 147.909 121.093 148.036 121.019 148.175C120.871 148.456 120.875 148.77 121.03 149.049C121.184 149.327 121.478 149.548 121.845 149.661C122.212 149.774 122.623 149.771 122.987 149.653C124.8 149.064 125.72 147.864 125.906 146.182C126.044 144.953 125.829 143.51 125.26 141.171C124.361 137.481 125.434 133.314 128 131.095C128.13 130.983 128.229 130.852 128.293 130.711C128.357 130.569 128.383 130.419 128.371 130.269C128.359 130.12 128.309 129.973 128.223 129.839C128.137 129.704 128.017 129.584 127.87 129.485C127.723 129.385 127.552 129.309 127.367 129.26C127.182 129.211 126.986 129.19 126.79 129.199C126.594 129.209 126.403 129.247 126.227 129.313C126.051 129.379 125.893 129.471 125.764 129.583Z" fill="#52C7D7"/>
<path d="M171.779 93.0453C172.211 94.2587 172.1 95.4578 171.432 96.6906C171.255 97.0383 171.263 97.4252 171.455 97.7683C171.647 98.1114 172.006 98.3835 172.457 98.5264C172.908 98.6692 173.414 98.6713 173.867 98.5324C174.319 98.3934 174.683 98.1244 174.88 97.783C175.86 95.972 176.032 94.1268 175.38 92.2965C175.306 92.0871 175.17 91.8934 174.983 91.7302C174.796 91.567 174.563 91.4386 174.301 91.3548C174.127 91.2989 173.933 91.6213 173.742 91.6076C173.527 91.5928 173.312 91.2481 173.091 91.2943C172.854 91.3434 172.633 91.4276 172.439 91.5422C172.245 91.6567 172.082 91.7994 171.961 91.962C171.839 92.1246 171.76 92.304 171.729 92.4899C171.698 92.6757 171.715 92.8645 171.779 93.0453ZM127.936 107.013C128.024 107.271 128.142 107.723 128.315 108.444C128.358 108.625 128.714 110.141 128.829 110.612C129.167 112.008 129.441 112.998 129.719 113.755C129.776 113.91 129.834 114.055 129.891 114.19C130.28 115.088 130.771 115.959 131.358 116.792C131.705 117.289 132.898 118.829 133.091 119.123C133.357 119.528 133.823 119.836 134.387 119.979C134.951 120.122 135.565 120.088 136.096 119.885C136.627 119.681 137.03 119.325 137.217 118.894C137.403 118.463 137.359 117.993 137.093 117.587C136.813 117.161 135.581 115.572 135.309 115.181C134.842 114.521 134.452 113.832 134.144 113.12C134.107 113.036 134.069 112.938 134.029 112.828C133.798 112.2 133.545 111.287 133.231 109.989C133.12 109.529 132.764 108.018 132.719 107.828C132.527 107.027 132.394 106.524 132.273 106.161C132.115 105.729 131.743 105.362 131.235 105.138C130.728 104.914 130.126 104.851 129.558 104.962C128.991 105.074 128.503 105.351 128.2 105.734C127.897 106.118 127.802 106.577 127.936 107.013Z" fill="#524F75"/>
</svg>
