<svg width="170" height="150" viewBox="0 0 170 150" fill="none" xmlns="http://www.w3.org/2000/svg">
<path d="M135.968 41.5086C138.968 42.9599 140.61 44.0489 142.7 44.8502C144.791 45.652 148.237 45.914 152.333 45.836L155.224 45.7862C155.718 45.6807 156.7 45.4732 156.882 44.8937C157.031 44.422 156.675 43.7835 156.332 43.3147C156.103 43.0017 155.653 42.5277 154.982 41.892C151.081 38.3825 149.328 37.0487 147.845 36.0572C146.137 34.9177 143.521 33.7381 139.997 32.5219" fill="#E1975C"/>
<path d="M153.243 42.9765C149.871 39.9427 148.051 38.4748 146.374 37.3554C144.859 36.3432 142.418 35.2438 139.078 34.0901C138.81 33.9974 138.568 33.8651 138.366 33.7007C138.165 33.5363 138.007 33.343 137.903 33.1318C137.799 32.9207 137.749 32.6958 137.758 32.4701C137.767 32.2444 137.834 32.0222 137.954 31.8163C138.075 31.6104 138.247 31.4247 138.461 31.2699C138.676 31.1151 138.927 30.9942 139.202 30.9141C139.477 30.834 139.77 30.7962 140.064 30.803C140.358 30.8098 140.647 30.861 140.915 30.9537C144.622 32.2336 147.413 33.4922 149.313 34.7607C151.183 36.0102 153.146 37.5921 156.682 40.7767C157.466 41.5149 157.978 42.0548 158.284 42.4733C158.995 43.4465 159.36 44.3389 159.057 45.2978C158.733 46.3318 157.801 46.9027 156.584 47.2575C156.334 47.3296 156.079 47.3915 155.82 47.4432C155.642 47.481 155.459 47.5018 155.274 47.5051L152.383 47.555C147.661 47.6444 144.086 47.3028 141.7 46.3886C141.293 46.2321 140.893 46.0646 140.502 45.8865C139.571 45.4635 135.909 43.5124 134.774 42.9633C134.277 42.7182 133.927 42.3325 133.799 41.8901C133.671 41.4476 133.776 40.9843 134.09 40.6008C134.404 40.2173 134.903 39.9446 135.478 39.8421C136.053 39.7396 136.657 39.8155 137.16 40.0533C138.43 40.6672 142.022 42.581 142.781 42.9261C143.096 43.0688 143.398 43.1954 143.699 43.3112C145.262 43.9102 148.226 44.1933 152.277 44.1165L154.321 44.0816C154.142 43.8603 153.775 43.4797 153.243 42.9765Z" fill="#754F50"/>
<path d="M145.589 38.0415C145.035 37.7578 143.885 37.2803 142.137 36.6103C141.534 36.3786 140.84 36.3277 140.19 36.4673C139.54 36.6069 138.982 36.9272 138.622 37.3657C137.889 38.2622 138.102 39.8877 138.939 40.5904C140.105 41.5699 141.649 42.2904 142.137 42.5105C142.522 42.6848 143.924 42.9312 146.346 43.2499C147.432 43.4322 148.761 43.1049 149.222 42.5111C149.454 42.2128 149.555 41.8652 149.51 41.5195C149.466 41.1738 149.277 40.8483 148.973 40.591C147.351 39.2153 146.222 38.3665 145.589 38.0415Z" fill="#FFE8A9"/>
<path d="M149.444 2.2281C147.046 7.76378 144.293 11.8539 141.184 14.5003C137.776 17.3994 133.254 19.3923 127.618 20.4807C128.559 23.1494 129.721 25.304 131.105 26.9449C132.489 28.5859 134.927 30.2091 138.42 31.814C143.424 29.538 147.55 25.688 150.799 20.2641C153.816 15.2276 153.837 9.21677 150.862 2.23097C150.813 2.11619 150.718 2.01615 150.591 1.94511C150.464 1.87407 150.311 1.83565 150.154 1.83533C149.997 1.83501 149.844 1.87281 149.716 1.94334C149.588 2.01387 149.493 2.11352 149.444 2.2281Z" fill="#EAE6DB"/>
<path d="M149.163 19.5275C146.455 24.2642 143.074 27.7101 139.04 29.9025C136.417 28.6473 134.583 27.4035 133.532 26.2027C132.543 25.0735 131.649 23.6337 130.858 21.8838C135.862 20.5753 139.974 18.5182 143.156 15.7148C145.754 13.425 148.045 10.2353 150.054 6.14171C151.662 11.2555 151.348 15.7051 149.163 19.5275ZM139.78 13.4554C136.742 16.1327 132.653 18.0086 127.456 19.0862C127.169 19.1458 126.9 19.2487 126.666 19.389C126.431 19.5292 126.235 19.704 126.089 19.903C125.943 20.1021 125.85 20.3215 125.816 20.5484C125.782 20.7754 125.806 21.0053 125.889 21.2247C126.951 24.0395 128.252 26.338 129.816 28.1228C131.455 29.9948 134.182 31.7464 137.982 33.4246C138.332 33.579 138.729 33.6581 139.132 33.6535C139.535 33.6488 139.929 33.5606 140.273 33.3983C145.645 30.8557 149.966 26.6767 153.263 20.9112C156.411 15.4041 156.286 8.95369 152.98 1.62627C152.774 1.17054 152.386 0.776241 151.872 0.499485C151.358 0.222728 150.743 0.0776129 150.115 0.0847875C149.487 0.0919621 148.878 0.251062 148.374 0.539447C147.871 0.827832 147.499 1.23081 147.311 1.69104C145.125 7.04904 142.596 10.9741 139.78 13.4554Z" fill="#754F50"/>
<path d="M141.796 98.4296L138.322 124.927C138.081 126.764 136.96 128.468 135.176 129.707C133.392 130.945 131.073 131.631 128.668 131.631H121.645C116.286 131.631 111.942 128.295 111.942 124.18V99.8734" fill="#E1975C"/>
<path d="M139.569 98.2571L136.094 124.754C135.909 126.168 135.046 127.478 133.674 128.431C132.302 129.384 130.518 129.912 128.669 129.912H121.645C117.523 129.912 114.181 127.345 114.181 124.18V99.8734C114.181 99.4174 113.945 98.98 113.526 98.6575C113.106 98.3351 112.536 98.1539 111.942 98.1539C111.348 98.1539 110.779 98.3351 110.359 98.6575C109.939 98.98 109.703 99.4174 109.703 99.8734V124.18C109.703 129.245 115.05 133.351 121.645 133.351H128.668C134.8 133.351 139.935 129.784 140.55 125.099L144.023 98.6021C144.068 98.1545 143.883 97.7112 143.508 97.3669C143.132 97.0227 142.597 96.8047 142.015 96.7597C141.434 96.7146 140.852 96.846 140.395 97.1258C139.938 97.4056 139.641 97.8116 139.569 98.2571Z" fill="#754F50"/>
<path d="M112.577 128.855C117.167 130.193 121.019 130.862 124.128 130.862C127.238 130.862 131.749 129.965 137.66 128.17L135.576 137.405H115.052L112.577 128.855Z" fill="#EAE6DB"/>
<path d="M116.847 135.686H133.691L134.788 130.824C130.391 131.992 126.855 132.581 124.127 132.581C121.656 132.581 118.827 132.209 115.627 131.471L116.847 135.686ZM113.371 127.248C117.729 128.518 121.325 129.142 124.127 129.142C126.893 129.142 131.165 128.293 136.836 126.571C138.461 126.078 140.163 127.141 139.865 128.463L137.783 137.699C137.693 138.098 137.422 138.46 137.018 138.721C136.614 138.982 136.104 139.125 135.576 139.125H115.052C114.542 139.125 114.048 138.991 113.651 138.746C113.254 138.502 112.977 138.16 112.866 137.778L110.391 129.228C110.003 127.893 111.705 126.763 113.371 127.248Z" fill="#754F50"/>
<path d="M32.9144 91.8376C27.9274 93.7886 25.1913 93.9067 21.6365 93.7686C18.1167 93.6316 14.9254 93.3909 14.5731 90.1639C14.4179 88.7373 14.8075 86.773 15.3583 85.0684C16.2106 82.4295 16.7494 80.1621 19.4109 76.2124C19.7848 75.657 21.2767 73.4726 21.6365 72.9378C22.4843 71.6786 23.1127 70.7025 23.6531 69.7842C25.0965 67.3328 24.0994 64.616 22.6724 62.8575L19.4109 63.4777C19.7699 64.4738 20.1886 65.709 19.0661 68.3507C18.6825 69.2529 16.3718 72.175 14.3947 74.2326C10.9646 77.8029 8.82628 81.1141 7.81573 84.2431C7.09924 86.4618 6.82086 88.5671 7.04252 90.5932C7.68065 96.4401 12.2094 99.6659 19.0661 99.9325C24.0285 100.125 30.2814 101.436 36.5618 101.869L32.9144 91.8376Z" fill="#E1975C"/>
<path d="M31.8979 90.3055L34.3347 89.3517L39.5904 103.803L36.3625 103.581C33.9317 103.414 31.7001 103.154 28.0027 102.65C22.4544 101.894 21.0886 101.732 18.9533 101.649C10.819 101.333 5.52889 97.3182 4.81091 90.7365C4.57208 88.5482 4.85644 86.2618 5.64233 83.8287C6.74319 80.4212 9.04267 76.9065 12.593 73.2113C14.4163 71.3135 16.6471 68.5015 16.9375 67.8171C17.7189 65.9778 17.7099 65.2006 17.2532 63.9362L16.6382 62.2322L23.7128 60.8875L24.5725 61.9473C26.6571 64.5168 27.3168 67.7335 25.6928 70.4921C25.1495 71.4144 24.5181 72.4014 23.6247 73.7283L22.5037 75.3778C21.8133 76.3924 21.5514 76.7764 21.3991 77.0028C19.628 79.6313 18.8474 81.3417 17.9786 84.0717L17.8532 84.4689L17.6957 84.9693L17.5323 85.4828C16.9703 87.2236 16.6859 88.9287 16.8054 90.0201C16.9763 91.5871 17.8055 91.8978 21.7506 92.0514C25.6906 92.2044 27.8512 91.8886 31.8979 90.3055ZM21.1946 68.8838C20.7117 70.021 18.2906 73.0731 16.1963 75.2529C12.9751 78.6059 10.9369 81.72 9.98903 84.6563C9.31583 86.7409 9.07775 88.6542 9.27403 90.4482C9.80692 95.3305 13.3058 97.9854 19.1802 98.2141C21.5849 98.3075 23.0067 98.4761 28.7856 99.2636C30.6903 99.5232 32.1852 99.7152 33.5085 99.8608L31.4702 94.2564C28.0199 95.3752 25.3577 95.6343 21.5245 95.4858C18.813 95.3804 17.3927 95.2164 15.9359 94.6702C13.8125 93.8735 12.5721 92.4039 12.3437 90.3078C12.1766 88.7746 12.5169 86.7278 13.1863 84.6546C13.2722 84.3904 13.2722 84.3892 13.5021 83.6607L13.6297 83.2555C14.5775 80.2796 15.4717 78.3194 17.4233 75.4231C17.5808 75.1898 17.8413 74.807 18.5369 73.785C18.9089 73.2403 19.2796 72.695 19.6489 72.1492C20.508 70.8721 21.108 69.9362 21.614 69.0764C22.1283 68.2023 22.2335 67.1907 21.9984 66.179C21.8976 66.9677 21.6402 67.8338 21.1946 68.8838ZM21.8954 64.1168C21.8107 63.7465 21.7016 63.3798 21.5685 63.018L19.4108 63.4771L19.9489 65.1462L23.2105 64.526L20.7722 63.766C21.0543 64.1145 21.2968 64.479 21.4939 64.8521C21.7237 65.286 21.8932 65.732 21.9969 66.1779C22.0856 65.4905 22.0514 64.797 21.8954 64.1168Z" fill="#754F50"/>
<path d="M2.25623 55.2716C6.79025 55.7427 9.31065 55.7341 9.81741 55.2458C9.94056 55.1272 8.41802 53.951 6.78055 51.1597C6.36558 50.4524 5.87076 49.1054 5.29682 47.1182C7.67616 47.7567 9.30841 48.2749 10.1943 48.6732C12.8334 49.8597 14.3104 51.1407 14.853 51.1322C15.6695 51.119 16.4367 49.7674 17.1547 47.0775C19.8945 49.1673 21.8365 50.8628 22.9806 52.1639C23.5299 52.7886 24.1337 53.7619 24.7928 55.083C26.2817 58.0698 24.339 61.4188 20.4513 62.5663C18.4572 63.1551 16.2858 63.2949 14.1919 62.9695C12.0979 62.644 10.1683 61.8667 8.62924 60.7288L7.76497 60.0902C7.76572 60.0897 5.92897 58.4836 2.25623 55.2716Z" fill="#FFE8A9"/>
<path d="M7.94325 57.6009L9.26502 58.8419L7.53201 59.9309L9.14038 58.7347L9.97479 59.3961C11.1649 60.3396 12.6807 61.0029 14.3443 61.3083C16.0079 61.6137 17.7504 61.5484 19.3675 61.1202C20.6976 60.7681 21.7913 60.0249 22.4084 59.0539C23.0255 58.0829 23.1156 56.9636 22.6589 55.9416C22.111 54.7168 21.6132 53.8364 21.1998 53.3291C20.5937 52.5851 19.6944 51.6732 18.504 50.6002C17.6703 52.1684 16.6523 52.905 14.9932 52.8878C14.2222 52.8797 13.7438 52.6849 13.1012 52.314C12.843 52.165 12.7616 52.1123 12.063 51.6554C10.9809 50.947 10.2412 50.5068 9.27994 50.0391C9.12358 49.9642 8.96376 49.8937 8.80079 49.8276C8.8799 50.0305 8.95529 50.1979 9.02544 50.3291C9.17546 50.6106 9.3292 50.8828 9.48594 51.1453C9.99867 52.0051 10.4957 52.6929 11.0562 53.375C11.148 53.4862 11.5011 53.9051 11.5757 53.9986C11.6869 54.1373 11.7668 54.2473 11.8414 54.3792C11.9265 54.5288 11.9907 54.6812 12.0265 54.8721C12.1116 55.3289 11.9989 55.819 11.504 56.2626C10.7211 56.9659 9.50907 57.2387 7.51186 57.1974C7.64247 57.3184 7.78502 57.4525 7.94325 57.6009ZM6.09381 53.6541C5.859 53.2984 5.63282 52.9393 5.41539 52.5771C5.22874 52.2642 5.05058 51.9483 4.88101 51.6297C4.4235 50.7705 3.96301 49.3249 3.45326 47.2134C3.13308 45.8888 4.83175 44.8089 6.46698 45.2978C8.9426 46.0372 10.654 46.635 11.6772 47.1331C12.7273 47.6438 13.5438 48.1178 14.5805 48.785C14.8193 48.2686 15.073 47.5951 15.3313 46.7732C15.7492 45.4446 17.9218 45.0038 19.1399 46C21.8752 48.2365 23.8209 50.0603 24.9972 51.5047C25.6248 52.2762 26.2458 53.3732 26.8943 54.8245C28.6482 58.7467 25.9331 63.0186 20.8281 64.3707C18.4059 65.012 15.7959 65.1098 13.304 64.6524C10.8121 64.1951 8.54163 63.2016 6.7588 61.7885L5.92439 61.1271C5.88087 61.0926 5.83929 61.0566 5.79975 61.0193L0.513417 56.0563C-0.797905 54.8257 0.582825 53.0047 2.62407 53.2729C3.97793 53.4506 5.13775 53.5779 6.09381 53.6541Z" fill="#754F50"/>
<path d="M144.149 79.9271V45.2199C144.149 28.4724 126.853 14.7433 105.057 14.1896C104.641 14.1788 104.224 14.1734 103.807 14.1735C82.9096 14.1735 65.9692 27.1834 65.9692 43.2327V57.4754C61.8457 59.1379 57.7488 60.8388 53.6792 62.5778C36.2648 70.0004 26.678 84.9435 29.6261 100.071C32.395 114.281 48.2883 124.795 66.9984 124.795H96.6572C120.867 124.795 141.248 110.885 144.092 92.4222L144.455 90.0676C144.978 86.6933 144.875 83.2792 144.149 79.9271Z" fill="#E1975C"/>
<path d="M146.797 89.4102C146.762 89.6968 146.722 89.9834 146.678 90.2694L146.316 92.624C143.338 111.953 122.002 126.515 96.6572 126.515H66.9984C47.18 126.515 30.3455 115.377 27.4117 100.325C24.3255 84.489 34.3616 68.8454 52.5925 61.075C56.2832 59.4982 59.9959 57.9521 63.7301 56.4369V43.2327C63.7301 26.2342 81.6729 12.454 103.807 12.454C104.249 12.454 104.691 12.4598 105.132 12.4707C128.134 13.0553 146.388 27.5445 146.388 45.2199V79.7861C147.06 82.9675 147.198 86.202 146.797 89.4102ZM141.91 45.2199C141.91 29.3998 125.572 16.4307 104.983 15.908C104.591 15.8981 104.199 15.8932 103.807 15.8931C84.147 15.8931 68.2082 28.1331 68.2082 43.2327V58.5169L67.0073 58.9995C62.9 60.6552 58.8192 62.3495 54.7658 64.0818C38.1679 71.1565 29.0312 85.3986 31.8404 99.8167C34.4459 113.184 49.3974 123.076 66.9984 123.076H96.6572C119.733 123.076 139.158 109.818 141.869 92.2199L142.231 89.8653C142.729 86.6524 142.632 83.4015 141.941 80.2097L141.91 45.2199Z" fill="#754F50"/>
<path d="M133.411 88.1217C134.276 88.0795 135.142 88.1876 135.944 88.4378C136.747 88.6881 137.465 89.074 138.047 89.5671C138.628 90.0601 139.057 90.6475 139.302 91.2855C139.547 91.9235 139.602 92.5957 139.462 93.2521L137.593 102.027C136.958 105.008 135.043 107.74 132.153 109.788C129.263 111.837 125.564 113.084 121.645 113.332L125.187 93.9749C125.471 92.4213 126.444 90.9905 127.943 89.9241C129.441 88.8578 131.373 88.2211 133.411 88.1217Z" fill="#FFE6A2"/>
<path d="M85.8203 19.8559C90.6103 14.3266 87.254 10.3453 88.2504 10.3453C89.2468 10.3453 97.7909 12.1439 98.6395 15.0883C104.797 12.885 112.402 9.58817 113.612 9.58817C114.82 9.58817 110.547 15.0883 109.323 16.1796C117.123 15.3176 122.113 11.1518 124.006 11.1518C125.899 11.1518 126.222 14.2595 126.102 19.8565L125.018 22.7711" fill="#E1975C"/>
<path d="M92.5814 13.1808C94.8481 13.9638 96.2788 14.8551 96.4534 15.4603C96.5259 15.7117 96.6709 15.9473 96.8777 16.1498C97.0846 16.3524 97.348 16.5167 97.6486 16.6306C97.9491 16.7446 98.2792 16.8052 98.6143 16.8081C98.9495 16.811 99.2812 16.7561 99.5851 16.6474C100.78 16.2177 101.967 15.7762 103.147 15.3228C103.547 15.1697 103.96 15.011 104.396 14.8419C104.708 14.7209 107.62 13.5803 109.531 12.8392C108.764 13.8302 107.987 14.7358 107.625 15.058C106.275 16.2628 107.593 18.1078 109.641 17.882C112.983 17.5123 116.002 16.609 119.115 15.2334C119.831 14.9152 120.537 14.584 121.232 14.24C121.429 14.1438 122.607 13.558 122.899 13.4158C123.115 13.3115 123.302 13.2238 123.465 13.1499C123.511 13.2983 123.555 13.4726 123.596 13.672C123.843 14.8814 123.923 16.7345 123.866 19.6026L122.864 22.2994C122.701 22.738 122.772 23.2083 123.061 23.6068C123.349 24.0054 123.832 24.2996 124.403 24.4247C124.974 24.5498 125.587 24.4956 126.106 24.2739C126.625 24.0523 127.008 23.6814 127.171 23.2428L128.254 20.3277C128.307 20.1832 128.335 20.0342 128.339 19.8846C128.407 16.6978 128.324 14.6327 128.019 13.1378C127.553 10.8641 126.44 9.43171 124.005 9.43171C122.93 9.43171 122.089 9.74295 120.511 10.5064C120.19 10.6612 118.995 11.2555 118.818 11.3421C118.182 11.6571 117.536 11.9604 116.881 12.2517C116.069 12.6128 115.235 12.9433 114.382 13.2422C114.987 12.3841 115.451 11.6361 115.728 11.0469C115.933 10.609 116.052 10.2364 116.061 9.85701C116.084 8.85052 115.241 7.8681 113.61 7.8681C112.662 7.8681 111.564 8.22462 108.967 9.20703C107.767 9.66155 102.765 11.6201 102.377 11.7708C101.459 12.1258 100.539 12.4767 99.6164 12.8237C98.4835 11.7313 96.6863 10.8285 94.4167 10.0439C92.1448 9.25919 89.3266 8.62526 88.2474 8.62526C87.7557 8.62314 87.2751 8.73699 86.8704 8.95144C86.4657 9.16588 86.1564 9.47057 85.9845 9.82434C85.8099 10.1786 85.7875 10.48 85.8255 10.8348C85.8434 11.0011 85.8733 11.161 85.9278 11.4051C85.9024 11.2894 86.0226 11.823 86.0524 11.964C86.5435 14.3077 86.1539 16.3636 83.9537 18.9034C83.6285 19.283 83.5122 19.7462 83.6302 20.1915C83.7483 20.6368 84.0911 21.0282 84.5838 21.2799C85.0765 21.5317 85.6789 21.6235 86.2594 21.5351C86.8399 21.4468 87.3512 21.1856 87.6817 20.8086C90.211 17.8888 90.9529 15.2953 90.6626 12.5979C91.3111 12.7699 91.9627 12.967 92.5814 13.1808Z" fill="#754F50"/>
<path d="M67.1372 109.159L67.9141 125.134C68.0835 128.613 64.5474 131.539 60.0156 131.669C59.9136 131.672 59.8116 131.673 59.7096 131.674H52.3648C45.7731 131.674 39.4606 127.276 37.8127 122.343L30.5911 103.015" fill="#E1975C"/>
<path d="M64.8996 109.222L65.6766 125.197C65.7066 125.813 65.5745 126.428 65.2882 127.004C65.0019 127.58 64.5672 128.106 64.0103 128.55C63.4533 128.994 62.7854 129.347 62.0466 129.588C61.3078 129.83 60.5132 129.954 59.7103 129.954H52.3656C47.0292 129.954 41.4391 126.276 39.9823 121.915L32.745 102.541C32.667 102.321 32.5329 102.116 32.3506 101.936C32.1683 101.757 31.9413 101.607 31.683 101.495C31.4246 101.383 31.1399 101.312 30.8455 101.286C30.551 101.259 30.2527 101.278 29.9677 101.341C29.6827 101.404 29.4168 101.509 29.1854 101.651C28.954 101.794 28.7617 101.97 28.6197 102.17C28.4776 102.37 28.3887 102.589 28.358 102.816C28.3273 103.042 28.3555 103.271 28.4409 103.489L35.6617 122.817C37.588 128.589 44.888 133.393 52.3641 133.393H59.7088C59.8387 133.393 59.9686 133.391 60.0984 133.387C65.8654 133.222 70.3651 129.498 70.1502 125.069L69.374 109.094C69.3423 108.644 69.0815 108.221 68.6476 107.917C68.2137 107.612 67.6416 107.451 67.0546 107.468C66.4676 107.485 65.9127 107.678 65.5096 108.007C65.1064 108.335 64.8874 108.771 64.8996 109.222Z" fill="#754F50"/>
<path d="M123.32 102.274L121.834 124.625C121.571 128.588 117.311 131.696 112.145 131.696H105.245C99.8866 131.696 95.5428 128.361 95.5428 124.246V104.047" fill="#E1975C"/>
<path d="M121.084 102.186L119.598 124.538C119.501 126.006 118.673 127.388 117.286 128.4C115.899 129.413 114.059 129.977 112.145 129.977H105.245C101.124 129.977 97.7819 127.411 97.7819 124.246V104.047C97.7819 103.591 97.546 103.154 97.1261 102.831C96.7062 102.509 96.1367 102.328 95.5429 102.328C94.949 102.328 94.3795 102.509 93.9596 102.831C93.5397 103.154 93.3038 103.591 93.3038 104.047V124.246C93.3038 129.31 98.6499 133.416 105.245 133.416H112.145C118.504 133.416 123.747 129.589 124.071 124.712L125.557 102.361C125.572 102.136 125.529 101.91 125.43 101.697C125.332 101.485 125.18 101.289 124.983 101.121C124.786 100.954 124.548 100.818 124.282 100.721C124.017 100.624 123.729 100.568 123.435 100.557C123.141 100.545 122.848 100.578 122.57 100.654C122.293 100.729 122.038 100.846 121.82 100.997C121.602 101.149 121.424 101.331 121.298 101.536C121.172 101.74 121.099 101.961 121.084 102.186Z" fill="#754F50"/>
<path d="M64.1764 103.588C64.1764 104.196 64.4909 104.779 65.0508 105.209C65.6106 105.639 66.37 105.881 67.1618 105.881C67.9535 105.881 68.7129 105.639 69.2727 105.209C69.8326 104.779 70.1471 104.196 70.1471 103.588C70.1471 102.98 69.8326 102.397 69.2727 101.967C68.7129 101.537 67.9535 101.295 67.1618 101.295C66.37 101.295 65.6106 101.537 65.0508 101.967C64.4909 102.397 64.1764 102.98 64.1764 103.588Z" fill="#754F50"/>
<path d="M92.5374 98.4296C92.5374 99.0377 92.8519 99.6208 93.4118 100.051C93.9716 100.481 94.7309 100.722 95.5227 100.722C96.3145 100.722 97.0738 100.481 97.6337 100.051C98.1936 99.6208 98.5081 99.0377 98.5081 98.4296C98.5081 97.8216 98.1936 97.2384 97.6337 96.8085C97.0738 96.3785 96.3145 96.137 95.5227 96.137C94.7309 96.137 93.9716 96.3785 93.4118 96.8085C92.8519 97.2384 92.5374 97.8216 92.5374 98.4296Z" fill="#754F50"/>
<path d="M95.4182 128.921C100.067 130.259 103.966 130.927 107.116 130.927C110.264 130.927 114.832 130.03 120.818 128.236L118.709 137.469H97.9252L95.4182 128.921Z" fill="#EAE6DB"/>
<path d="M99.7165 135.75H116.829L117.941 130.88C113.472 132.054 109.881 132.647 107.116 132.647C104.607 132.647 101.732 132.272 98.4783 131.529L99.7165 135.75ZM96.2034 127.311C100.622 128.582 104.271 129.208 107.116 129.208C109.925 129.208 114.255 128.358 120.004 126.635C121.631 126.147 123.325 127.213 123.024 128.534L120.915 137.767C120.824 138.165 120.553 138.526 120.149 138.786C119.746 139.046 119.236 139.189 118.709 139.189H97.9253C97.417 139.189 96.9239 139.056 96.527 138.812C96.1301 138.568 95.8531 138.228 95.7415 137.847L93.2345 129.299C92.8434 127.966 94.5376 126.832 96.2034 127.311Z" fill="#754F50"/>
<path d="M95.4921 109.823C95.6862 113.118 95.1891 118.487 94.0009 125.93C93.3755 129.846 88.8848 132.708 83.7582 132.459L76.8067 132.122C71.7219 131.875 67.7529 128.65 67.717 124.737L67.4625 116.249" fill="#E1975C"/>
<path d="M93.2561 109.9C93.4427 113.076 92.9531 118.366 91.7791 125.721C91.5478 127.172 90.6031 128.5 89.1384 129.434C87.6737 130.367 85.7997 130.836 83.8999 130.743L76.9485 130.406C75.0634 130.314 73.2935 129.677 71.9959 128.623C70.6982 127.569 69.9693 126.176 69.956 124.726L69.7008 116.21C69.6802 115.758 69.4284 115.33 69 115.02C68.5717 114.709 68.0013 114.541 67.4124 114.551C66.8235 114.561 66.2636 114.749 65.854 115.075C65.4444 115.4 65.2182 115.836 65.2242 116.288L65.478 124.777C65.5213 129.564 70.4068 133.533 76.6649 133.837L83.6163 134.175C89.9267 134.482 95.454 130.958 96.2235 126.138C97.4259 118.608 97.9304 113.16 97.7289 109.745C97.7206 109.516 97.6531 109.292 97.5305 109.084C97.408 108.876 97.2327 108.689 97.0149 108.533C96.7972 108.378 96.5413 108.257 96.2623 108.179C95.9832 108.1 95.6866 108.065 95.3896 108.075C95.0927 108.085 94.8014 108.141 94.5327 108.239C94.264 108.336 94.0234 108.474 93.8248 108.644C93.6262 108.814 93.4736 109.012 93.376 109.228C93.2783 109.444 93.2376 109.672 93.2561 109.9Z" fill="#754F50"/>
<path d="M68.7059 129.242C73.4504 130.3 77.3702 130.829 80.4638 130.829C83.5574 130.829 87.7212 130.076 92.9553 128.569L90.673 137.405H70.2553L68.7059 129.242Z" fill="#EAE6DB"/>
<path d="M72.1914 135.686H88.8341L89.9999 131.174C86.2271 132.087 83.0581 132.548 80.4646 132.548C77.9114 132.548 74.8984 132.222 71.4122 131.576L72.1914 135.686ZM69.3299 127.591C73.8886 128.606 77.6106 129.109 80.4639 129.109C83.241 129.109 87.1645 128.399 92.1702 126.958C93.8129 126.485 95.4937 127.581 95.1526 128.903L92.8681 137.74C92.7676 138.13 92.4939 138.482 92.0935 138.734C91.6932 138.987 91.1911 139.125 90.6731 139.125H70.2554C69.7175 139.125 69.1976 138.976 68.7907 138.706C68.3838 138.436 68.1171 138.062 68.0395 137.653L66.4909 129.49C66.2558 128.252 67.7656 127.242 69.3299 127.591Z" fill="#754F50"/>
<path d="M44.0251 129.954C49.0771 130.721 53.182 131.105 56.3398 131.105C59.4976 131.105 63.6024 130.721 68.6544 129.954L66.7595 137.405H45.9201L44.0251 129.954Z" fill="#EAE6DB"/>
<path d="M47.7636 135.686H64.9153L65.8265 132.101C62.0956 132.583 58.9378 132.825 56.339 132.825C53.7403 132.825 50.5825 132.583 46.8516 132.101L47.7636 135.686ZM44.4595 128.267C49.3802 129.015 53.3492 129.386 56.3398 129.386C59.3304 129.386 63.2994 129.015 68.2201 128.267C69.7814 128.03 71.1569 129.085 70.8517 130.284L68.9567 137.735C68.8572 138.127 68.5836 138.479 68.1827 138.733C67.7819 138.987 67.2788 139.125 66.7595 139.125H45.9201C45.4008 139.125 44.8977 138.987 44.4969 138.733C44.096 138.479 43.8224 138.127 43.7229 137.735L41.8279 130.284C41.5227 129.084 42.8982 128.03 44.4595 128.267Z" fill="#754F50"/>
<path d="M53.9149 2.5823C54.062 2.75024 54.1761 2.89812 54.256 3.02536C57.6832 8.49972 60.5036 12.4936 64.1853 14.9456C68.2969 17.6848 73.8587 19.4169 80.8705 20.1414C79.4323 24.0458 78.13 26.5792 76.9649 27.7422C75.7999 28.9052 73.4482 30.498 69.9105 32.5213C64.3174 30.9611 59.3341 27.4625 54.9598 22.026C50.896 16.9746 49.0943 10.7477 51.0661 3.02479C51.1263 2.79056 51.2754 2.57526 51.4947 2.40603C51.714 2.23681 51.9937 2.12125 52.2984 2.07392C52.6031 2.02659 52.9192 2.04962 53.2069 2.14009C53.4946 2.23057 53.741 2.38444 53.9149 2.5823Z" fill="#EAE6DB"/>
<path d="M56.2735 20.9387C59.7708 25.8421 63.7928 29.1367 68.3172 30.8797C71.254 29.335 73.2288 28.1044 74.1946 27.2384C75.0156 26.5024 76.0978 24.7973 77.3524 22.1933C71.1846 21.0395 66.2058 19.0816 62.4509 16.3029C59.2237 13.9145 56.875 10.7253 53.4471 4.53911C51.8118 10.7259 52.8537 16.143 56.2735 20.9387ZM56.5108 1.41991C56.6981 1.65949 56.8504 1.8836 56.9675 2.09912C60.503 8.59715 62.73 11.7341 65.5587 13.8268C69.1396 16.4771 74.1789 18.2878 80.7273 19.2352C81.0426 19.2808 81.3415 19.3779 81.6036 19.5199C81.8658 19.6619 82.0852 19.8455 82.2469 20.0583C82.4086 20.2711 82.5089 20.5081 82.541 20.7532C82.573 20.9984 82.5361 21.2459 82.4327 21.4792C80.6408 25.5217 79.0816 28.144 77.5949 29.4772C76.1836 30.7422 73.5953 32.3184 69.7666 34.2786C69.1396 34.5996 68.3448 34.6569 67.6514 34.4311C61.6605 32.4818 56.5675 28.512 52.3462 22.5917C48.1062 16.6462 47.0464 9.85698 49.5452 2.21547C49.7285 1.65415 50.1243 1.14714 50.6827 0.758491C51.241 0.36984 51.9368 0.116982 52.6822 0.0318523C53.4275 -0.053277 54.189 0.0331412 54.8704 0.280195C55.5519 0.527248 56.1227 0.923851 56.5108 1.41991Z" fill="#754F50"/>
<path d="M75.3715 43.1806C71.3114 43.8787 68.9425 44.5734 66.2184 44.837C63.495 45.1007 59.5319 44.4117 55.0143 43.1806L51.8244 42.3162C51.3266 42.0658 50.3392 41.5711 50.4251 40.9045C50.4952 40.3617 51.2095 39.7851 51.8244 39.3839C52.2342 39.1162 52.9716 38.7396 54.0366 38.2536C60.123 35.6239 62.7382 34.7011 64.8817 34.0654C67.3491 33.3346 70.8457 32.8176 75.3715 32.515" fill="#E1975C"/>
<path d="M53.2753 40.6936C53.5649 40.5044 54.2164 40.172 55.1807 39.7318C60.4678 37.4483 63.2419 36.3948 65.6884 35.6697C67.9275 35.0066 71.2315 34.5177 75.5663 34.2282C76.1484 34.1795 76.6825 33.9576 77.0542 33.6101C77.4259 33.2626 77.6057 32.8172 77.5549 32.3692C77.5042 31.9212 77.227 31.5062 76.7827 31.2133C76.3385 30.9203 75.7625 30.7726 75.1782 30.8018C70.4605 31.117 66.7721 31.6621 64.0771 32.4611C61.3977 33.255 58.4444 34.3761 52.9394 36.7547C51.7274 37.3067 50.9042 37.7274 50.3743 38.0736C49.1473 38.8749 48.333 39.6831 48.1972 40.7348C48.0516 41.8651 48.7569 42.6813 49.8697 43.3588C50.1048 43.5021 50.2839 43.5973 50.5982 43.7549C50.7489 43.8305 50.9101 43.8919 51.0795 43.9377L54.2694 44.8021C59.408 46.2029 63.4897 46.8339 66.4982 46.5428C67.0169 46.4922 67.5332 46.428 68.0461 46.3502C69.2709 46.1662 74.3079 45.1253 75.8603 44.8582C76.1479 44.8094 76.4201 44.7175 76.6614 44.5877C76.9026 44.4579 77.1082 44.2929 77.2662 44.102C77.4243 43.9112 77.5318 43.6982 77.5825 43.4754C77.6332 43.2526 77.6262 43.0243 77.5618 42.8035C77.4975 42.5828 77.3771 42.374 77.2075 42.1891C77.0378 42.0042 76.8224 41.8467 76.5734 41.7259C76.3245 41.605 76.0469 41.523 75.7567 41.4847C75.4664 41.4463 75.1691 41.4523 74.8819 41.5023C73.1795 41.7952 68.2223 42.8195 67.1856 42.9754C66.7535 43.0401 66.3437 43.0917 65.9385 43.1307C63.8009 43.3376 60.2976 42.796 55.7636 41.5596L53.073 40.8306C53.1365 40.7859 53.2036 40.74 53.2753 40.6936Z" fill="#754F50"/>
<path d="M66.2445 36.8407C66.9707 36.6911 68.4179 36.5037 70.5867 36.2779C71.3597 36.1975 72.1438 36.3419 72.7852 36.6827C73.4266 37.0235 73.879 37.5362 74.0535 38.12C74.4117 39.3197 73.6109 40.6798 72.0764 41.0346C70.1001 41.4914 68.3149 41.6164 67.6894 41.7161C66.9476 41.8342 64.9877 41.9442 62.5195 41.7161C61.5023 41.6221 60.3992 41.4725 60.1887 40.6878C59.9715 39.8756 60.8895 38.8222 61.8314 38.4169C64.2182 37.4804 65.6892 36.9548 66.2445 36.8407Z" fill="#FFE8A9"/>
<path d="M119.406 41.3705C119.406 43.111 120.307 44.7803 121.912 46.0111C123.516 47.2419 125.692 47.9333 127.962 47.9333C130.231 47.9333 132.407 47.2419 134.012 46.0111C135.616 44.7803 136.518 43.111 136.518 41.3705C136.518 39.6299 135.616 37.9606 134.012 36.7299C132.407 35.4991 130.231 34.8077 127.962 34.8077C125.692 34.8077 123.516 35.4991 121.912 36.7299C120.307 37.9606 119.406 39.6299 119.406 41.3705Z" fill="white"/>
<path d="M127.962 49.6528C122.001 49.6528 117.167 45.945 117.167 41.3705C117.167 36.796 122.001 33.0882 127.962 33.0882C133.923 33.0882 138.757 36.796 138.757 41.3705C138.757 45.945 133.923 49.6528 127.962 49.6528ZM127.962 46.2138C131.451 46.2138 134.279 44.0449 134.279 41.3705C134.279 38.6961 131.451 36.5272 127.962 36.5272C124.473 36.5272 121.645 38.6961 121.645 41.3705C121.645 44.0449 124.473 46.2138 127.962 46.2138Z" fill="#754F50"/>
<path d="M123.375 43.3662C123.633 43.5959 123.952 43.78 124.312 43.9061C124.671 44.0323 125.061 44.0974 125.456 44.097C126.185 44.0973 126.885 43.8753 127.401 43.4796C127.917 43.0839 128.207 42.5471 128.207 41.9872C128.207 40.8225 126.976 39.8779 125.456 39.8779C124.737 39.8775 124.046 40.0937 123.532 40.4801C123.018 40.8666 122.721 41.3924 122.706 41.9448L124.745 42.1718L123.375 43.3662Z" fill="#232323"/>
<path d="M94.03 38.2467C94.0298 39.4511 94.3385 40.6438 94.9385 41.7566C95.5385 42.8695 96.4181 43.8806 97.5269 44.7323C98.6358 45.5841 99.9523 46.2597 101.401 46.7207C102.85 47.1816 104.403 47.4189 105.971 47.4189C107.54 47.4189 109.093 47.1816 110.542 46.7207C111.991 46.2597 113.307 45.5841 114.416 44.7323C115.525 43.8806 116.405 42.8695 117.005 41.7566C117.605 40.6438 117.913 39.4511 117.913 38.2467C117.913 37.0423 117.605 35.8496 117.005 34.7368C116.405 33.624 115.525 32.6128 114.416 31.7611C113.307 30.9093 111.991 30.2337 110.542 29.7727C109.093 29.3118 107.54 29.0745 105.971 29.0745C104.403 29.0745 102.85 29.3118 101.401 29.7727C99.9523 30.2337 98.6358 30.9093 97.5269 31.7611C96.4181 32.6128 95.5385 33.624 94.9385 34.7368C94.3385 35.8496 94.0298 37.0423 94.03 38.2467Z" fill="white"/>
<path d="M105.972 49.1369C98.1394 49.1369 91.791 44.261 91.791 38.2467C91.791 32.2324 98.1394 27.3564 105.972 27.3564C113.804 27.3564 120.152 32.2324 120.152 38.2467C120.152 44.261 113.804 49.1369 105.972 49.1369ZM105.972 45.6979C111.33 45.6979 115.674 42.3621 115.674 38.2467C115.674 34.1313 111.33 30.7955 105.972 30.7955C100.613 30.7955 96.2691 34.1313 96.2691 38.2467C96.2691 42.3621 100.613 45.6979 105.972 45.6979Z" fill="#754F50"/>
<path d="M106.878 41.8393C107.376 42.282 108.038 42.5972 108.775 42.7426C109.513 42.888 110.291 42.8567 111.004 42.6528C111.718 42.4489 112.333 42.0822 112.768 41.602C113.202 41.1218 113.435 40.551 113.435 39.9662C113.44 39.5899 113.348 39.2164 113.165 38.8673C112.983 38.5181 112.712 38.2 112.369 37.9312C112.026 37.6624 111.617 37.448 111.166 37.3005C110.716 37.1529 110.231 37.075 109.741 37.0711C109.251 37.0673 108.765 37.1376 108.31 37.2781C107.856 37.4186 107.442 37.6264 107.091 37.8898C106.741 38.1533 106.462 38.467 106.27 38.8133C106.078 39.1595 105.977 39.5314 105.972 39.9078L108.738 40.2167L106.878 41.8393Z" fill="#232323"/>
<path d="M106.768 49.3943C111.541 48.8045 115.063 48.5288 117.33 48.5678C119.611 48.6067 122.968 48.9243 127.4 49.5204C132.125 50.1556 136.505 51.8364 140.003 54.3563C143.501 56.8762 145.965 60.1257 147.092 63.7058L148.001 66.594C150.356 74.075 144.37 81.6059 134.629 83.4148C134.164 83.5009 133.694 83.573 133.222 83.6309C124.788 84.6643 119.491 85.202 117.33 85.245C115.204 85.2862 110.168 84.7985 102.223 83.7794C91.6141 82.4187 84.4045 74.7565 86.0539 66.5934L86.342 65.1679C87.1403 61.2187 89.5469 57.5652 93.2164 54.7314C96.886 51.8976 101.63 50.0292 106.768 49.3943Z" fill="#FFE6A2"/>
<path d="M107.124 51.092C102.453 51.6692 98.1401 53.3677 94.8041 55.944C91.468 58.5203 89.2804 61.8419 88.5549 65.4322L88.2668 66.8571C86.8055 74.0894 93.1934 80.8774 102.592 82.0834C110.381 83.0818 115.347 83.5633 117.273 83.5255C119.294 83.4859 124.546 82.9523 132.869 81.9332C133.283 81.8823 133.694 81.8191 134.102 81.7435C142.641 80.157 147.89 73.5557 145.824 66.9981L144.915 64.1099C143.89 60.8553 141.65 57.9013 138.47 55.6105C135.29 53.3196 131.309 51.7917 127.014 51.2141C122.683 50.6318 119.425 50.3234 117.279 50.2867C115.18 50.2506 111.774 50.5172 107.124 51.092ZM106.413 47.6966C111.31 47.0913 114.946 46.807 117.38 46.8483C119.797 46.8896 123.252 47.2168 127.786 47.8261C132.94 48.5191 137.718 50.3527 141.534 53.1017C145.35 55.8507 148.038 59.3956 149.268 63.3011L150.177 66.1894C152.824 74.5932 146.098 83.0532 135.155 85.0856C134.633 85.1825 134.106 85.2639 133.575 85.3287C125.029 86.3753 119.689 86.9175 117.388 86.9634C115.063 87.0092 109.957 86.5146 101.855 85.4754C90.0364 83.9594 82.005 75.4237 83.8425 66.3298L84.1306 64.9043C85.9159 56.066 94.9138 49.1175 106.413 47.6966Z" fill="#754F50"/>
<path d="M116.708 70.3242C118.406 69.2168 119.406 67.6406 119.406 65.9412C119.406 62.3743 116.353 59.9126 111.13 60.0312C105.939 60.1493 102.986 62.4563 102.986 65.9412C102.986 66.3972 103.222 66.8346 103.642 67.1571C104.062 67.4795 104.631 67.6607 105.225 67.6607C105.819 67.6607 106.389 67.4795 106.808 67.1571C107.228 66.8346 107.464 66.3972 107.464 65.9412C107.464 64.326 108.48 63.5321 111.262 63.4691C113.88 63.4095 114.928 64.2549 114.928 65.9412C114.928 66.6043 114.529 67.2331 113.81 67.702C113.357 67.9971 113.075 68.4183 113.027 68.8728C112.978 69.3274 113.167 69.7782 113.551 70.1259C113.936 70.4736 114.484 70.6899 115.076 70.7271C115.668 70.7643 116.255 70.6194 116.708 70.3242Z" fill="#754F50"/>
<path d="M110.532 67.3896C111.632 67.3896 113.436 66.9184 113.422 65.7325C113.408 64.5461 111.632 64.0749 110.532 64.0749C109.433 64.0749 108.542 65.2213 108.542 65.9928C108.542 66.7642 109.434 67.3896 110.532 67.3896Z" fill="#F9D679"/>
<path d="M129.567 70.3242C127.869 69.2168 126.869 67.6406 126.869 65.9412C126.869 62.3743 129.922 59.9126 135.145 60.0312C140.335 60.1493 143.289 62.4563 143.289 65.9412C143.289 66.3972 143.053 66.8346 142.633 67.1571C142.213 67.4795 141.643 67.6607 141.05 67.6607C140.456 67.6607 139.886 67.4795 139.466 67.1571C139.046 66.8346 138.811 66.3972 138.811 65.9412C138.811 64.326 137.795 63.5321 135.012 63.4691C132.395 63.4095 131.347 64.2549 131.347 65.9412C131.347 66.6043 131.746 67.2331 132.465 67.702C132.918 67.9971 133.2 68.4183 133.248 68.8728C133.296 69.3274 133.108 69.7782 132.723 70.1259C132.339 70.4736 131.791 70.6899 131.199 70.7271C130.607 70.7643 130.02 70.6194 129.567 70.3242Z" fill="#754F50"/>
<path d="M134.996 67.3896C133.897 67.3896 132.092 66.9184 132.106 65.7325C132.12 64.5461 133.897 64.0749 134.996 64.0749C136.095 64.0749 136.986 65.2213 136.986 65.9928C136.986 66.7642 136.095 67.3896 134.996 67.3896Z" fill="#F9D679"/>
</svg>
