<svg width="208" height="140" viewBox="0 0 208 140" fill="none" xmlns="http://www.w3.org/2000/svg">
<path d="M89.8091 114.573C90.1798 112.995 88.7773 111.489 86.677 111.21L83.3307 110.766C81.2304 110.488 79.2281 111.542 78.8575 113.122L77.0993 120.618C76.9957 121.061 76.7787 121.484 76.4606 121.863C76.1425 122.242 75.7296 122.569 75.2455 122.826C74.7614 123.083 74.2156 123.265 73.6392 123.362C73.0628 123.458 72.4672 123.467 71.8863 123.388L71.8684 123.385L65.8706 122.548C63.789 122.273 61.8354 123.3 61.4738 124.842C61.1084 126.399 62.4816 127.888 64.5505 128.177L78.0525 130.061C78.2809 130.127 78.5213 130.178 78.7714 130.211L82.1177 130.654C82.6702 130.728 83.2373 130.71 83.78 130.602C85.1794 130.339 86.3131 129.481 86.5804 128.344C86.5841 128.323 87.6609 123.733 89.8091 114.573Z" fill="#1FA31B"/>
<path d="M64.1454 129.86C60.8657 129.403 58.6778 127.031 59.2618 124.54C59.8429 122.06 62.969 120.426 66.2742 120.864L72.2719 121.702C72.5629 121.742 72.8614 121.738 73.1504 121.69C73.4395 121.642 73.7133 121.552 73.9562 121.423C74.1991 121.295 74.4064 121.131 74.5662 120.941C74.726 120.751 74.8351 120.54 74.8874 120.318L76.6455 112.821C77.2348 110.309 80.4029 108.641 83.7148 109.08L87.0611 109.523C90.3811 109.963 92.6103 112.357 92.0195 114.874L88.7907 128.644C88.5869 129.509 88.0591 130.31 87.271 130.951C86.483 131.592 85.4684 132.045 84.3497 132.256C83.495 132.427 82.6018 132.456 81.7312 132.34L78.3849 131.896C78.0739 131.855 77.7675 131.796 77.4684 131.719L64.1454 129.86ZM86.2921 112.897L82.9458 112.454C82.057 112.337 81.2206 112.777 81.0686 113.423L79.3104 120.92C79.1548 121.584 78.8291 122.219 78.3519 122.787C77.8746 123.355 77.2553 123.846 76.5291 124.231C75.803 124.617 74.9843 124.889 74.1198 125.034C73.2554 125.178 72.3621 125.191 71.4909 125.072L65.4857 124.235C64.6179 124.119 63.8286 124.533 63.6856 125.142C63.5389 125.768 64.0967 126.372 64.9556 126.491L78.6582 128.404L78.8492 128.459C78.9465 128.487 79.0499 128.509 79.1569 128.522L82.5032 128.965C82.7443 128.999 82.9824 128.989 83.2445 128.937C83.8256 128.828 84.2674 128.479 84.3692 128.043L87.5987 114.272C87.7477 113.633 87.1719 113.014 86.2921 112.897Z" fill="#754F50"/>
<path d="M131.181 110.469C130.529 108.926 128.378 108.082 126.374 108.583L123.182 109.382C121.179 109.883 120.082 111.539 120.733 113.081L123.888 120.555C124.251 121.415 124.153 122.35 123.615 123.156C123.077 123.962 122.143 124.573 121.017 124.856L115.673 126.199C113.701 126.694 112.624 128.326 113.264 129.844C113.907 131.363 116.025 132.19 117.992 131.696L134.446 127.561C136.419 127.066 137.495 125.435 136.855 123.916C136.848 123.897 134.956 119.414 131.181 110.469Z" fill="#1FA31B"/>
<path d="M138.995 123.392C140.011 125.803 138.299 128.396 135.15 129.187L118.696 133.321C115.539 134.115 112.152 132.788 111.126 130.368C110.109 127.956 111.823 125.362 114.97 124.573L120.314 123.23C120.878 123.088 121.344 122.782 121.613 122.379C121.882 121.976 121.931 121.509 121.75 121.078L118.595 113.604C117.567 111.168 119.3 108.549 122.481 107.754L125.673 106.955C128.865 106.158 132.287 107.5 133.319 109.943L138.995 123.392ZM127.074 110.211L123.882 111.008C123.056 111.215 122.597 111.909 122.87 112.557L126.025 120.031C127.161 122.719 125.235 125.599 121.72 126.483L116.374 127.827C115.579 128.027 115.138 128.695 115.4 129.319C115.663 129.937 116.508 130.267 117.288 130.07L133.742 125.937C134.538 125.736 134.979 125.068 134.716 124.444L129.039 110.995C128.771 110.352 127.891 110.006 127.074 110.211Z" fill="#754F50"/>
<path d="M90.7047 65.802C81.1278 68.0484 73.9343 69.6059 69.1211 70.474C64.3109 71.3438 58.88 72.0646 52.8291 72.6399C52.3544 74.0976 51.3952 75.0952 49.9553 75.6334C47.7958 76.4404 43.9516 78.0077 41.253 77.5225C38.5521 77.0385 36.651 76.4964 35.2485 73.5034C33.8453 70.5117 34.7438 67.4069 36.4091 66.0582C38.0752 64.7096 41.6087 63.7536 43.8153 63.4009C45.2867 63.1663 46.9857 63.5248 48.9123 64.4773C56.2301 61.8845 61.8931 60.0233 65.9021 58.8944C69.9111 57.7655 77.0499 56.0202 87.3217 53.6597" fill="#0EB50A"/>
<path d="M50.9467 77.1703C50.8494 77.2056 50.7475 77.2445 50.606 77.2981L50.2301 77.4396C49.9067 77.5606 49.6536 77.6559 49.396 77.7495C48.2601 78.1662 47.2844 78.4852 46.308 78.7426C44.2309 79.2905 42.4016 79.4874 40.7386 79.1884C36.6547 78.4555 34.6405 77.2935 33.1332 74.0786C31.5645 70.733 32.3178 66.8703 34.7738 64.883C36.6031 63.4025 40.1201 62.2416 43.3533 61.7245C45.1556 61.4363 47.0546 61.7342 49.0373 62.5441C55.8902 60.1305 61.2462 58.3795 65.1211 57.2877C69.1863 56.1439 76.3596 54.3912 86.6718 52.021C86.9542 51.956 87.2507 51.9341 87.5443 51.9565C87.8378 51.9789 88.1227 52.0451 88.3827 52.1515C88.6427 52.2578 88.8727 52.4021 89.0595 52.5761C89.2463 52.7502 89.3863 52.9506 89.4715 53.1659C89.5567 53.3811 89.5854 53.6071 89.556 53.8309C89.5267 54.0546 89.4398 54.2718 89.3003 54.4699C89.1608 54.6681 88.9715 54.8434 88.7431 54.9858C88.5148 55.1282 88.2519 55.2349 87.9694 55.2998C77.7396 57.6512 70.6337 59.388 66.6801 60.5009C62.7393 61.611 57.1257 63.455 49.8587 66.0307C49.5138 66.1528 49.1339 66.2062 48.7545 66.1859C48.3752 66.1657 48.0087 66.0724 47.6895 65.9149C46.2174 65.1872 45.0868 64.9486 44.2758 65.0776C41.8595 65.4634 39.1063 66.3732 38.0445 67.2321C36.8225 68.2218 36.3335 70.7278 37.3653 72.928C38.3081 74.937 39.0591 75.3707 41.7697 75.8564C42.4376 75.9763 43.4934 75.8621 44.8397 75.5083C45.6274 75.3005 46.4578 75.0289 47.4529 74.6636C47.9592 74.476 48.4643 74.2867 48.9684 74.0957C49.7756 73.7944 50.3275 73.2202 50.6517 72.226C50.7615 71.8905 51.002 71.5882 51.3414 71.3588C51.6809 71.1294 52.1035 70.9836 52.5536 70.9407C58.5266 70.3728 63.8774 69.6611 68.6075 68.8085C73.3592 67.9495 80.5131 66.4005 90.048 64.1644C90.6175 64.0309 91.2332 64.0753 91.7597 64.2878C92.2862 64.5003 92.6804 64.8636 92.8556 65.2976C93.0307 65.7317 92.9725 66.201 92.6937 66.6023C92.4149 67.0036 91.9383 67.3041 91.3689 67.4376C81.7486 69.6942 74.5123 71.2603 69.6423 72.1398C65.1249 72.956 60.0848 73.642 54.5169 74.2013C53.7756 75.546 52.5798 76.559 50.946 77.1703H50.9467Z" fill="#754F50"/>
<path d="M35.5053 69.4878L41.1302 68.0404C41.271 68.0007 41.4209 67.983 41.5709 67.9882C41.7209 67.9934 41.868 68.0215 42.0035 68.0709C42.139 68.1202 42.2601 68.1897 42.3598 68.2753C42.4594 68.3609 42.5355 68.4609 42.5836 68.5693C42.6316 68.6778 42.6507 68.7924 42.6396 68.9066C42.6285 69.0207 42.5875 69.132 42.5191 69.2339C42.4506 69.3357 42.356 69.4261 42.2409 69.4996C42.1258 69.5731 41.9926 69.6283 41.849 69.6618L36.2242 71.1098C36.0839 71.1474 35.9352 71.1634 35.7868 71.1569C35.6384 71.1504 35.4931 71.1215 35.3594 71.0719C35.2257 71.0222 35.1063 70.9528 35.0081 70.8678C34.9099 70.7827 34.8348 70.6836 34.7872 70.5762C34.7396 70.4688 34.7205 70.3553 34.7309 70.2423C34.7413 70.1292 34.7811 70.0189 34.8479 69.9176C34.9147 69.8164 35.0072 69.7262 35.1201 69.6524C35.2329 69.5786 35.3639 69.5227 35.5053 69.4878ZM37.2238 72.8311L42.8494 71.3832C43.1285 71.3185 43.4297 71.3392 43.6892 71.4408C43.9487 71.5424 44.1462 71.717 44.2398 71.9276C44.3334 72.1382 44.3158 72.3683 44.1907 72.5692C44.0657 72.7702 43.8429 72.9261 43.5697 73.004L37.9441 74.4531C37.6618 74.5256 37.3533 74.5098 37.0863 74.4091C36.8193 74.3084 36.6156 74.1311 36.5199 73.9161C36.4726 73.8096 36.4533 73.6971 36.4631 73.5849C36.4729 73.4728 36.5115 73.3632 36.5769 73.2624C36.6423 73.1616 36.733 73.0717 36.844 72.9977C36.955 72.9237 37.0841 72.8671 37.2238 72.8311Z" fill="#754F50"/>
<path d="M154.835 82.5831C157.63 83.4016 158.548 87.9492 157.587 96.2271L140.811 91.317C147.363 84.6766 152.039 81.7653 154.835 82.5831Z" fill="#E2FF29"/>
<path d="M155.428 86.9132C155.12 85.1805 154.567 84.3467 154.12 84.2091C153.673 84.0716 152.516 84.3786 150.715 85.4613C148.947 86.5234 146.829 88.1865 144.382 90.4432L155.443 93.8499C155.74 90.9312 155.732 88.6135 155.428 86.9132ZM155.803 81.0341C160.001 82.328 160.904 87.3778 159.635 96.4804C159.598 96.7439 159.482 96.9972 159.295 97.2206C159.108 97.4439 158.856 97.6311 158.558 97.7675C158.26 97.9039 157.924 97.9857 157.578 98.0064C157.231 98.0272 156.883 97.9864 156.561 97.8873L139.899 92.7564C139.576 92.6572 139.289 92.5023 139.058 92.3039C138.828 92.1055 138.661 91.8691 138.571 91.6132C138.481 91.3573 138.47 91.089 138.539 90.8293C138.608 90.5696 138.755 90.3257 138.969 90.1168C146.354 82.8964 151.604 79.7409 155.803 81.0341Z" fill="#754F50"/>
<path d="M170.404 86.3242C172.704 86.7626 173.977 90.3371 174.226 97.0506L160.421 94.4269C164.776 88.5883 168.102 85.8871 170.404 86.3242Z" fill="#E2FF29"/>
<path d="M171.001 89.8668C170.641 88.6004 170.215 88.0644 170.068 88.0296C169.922 87.9948 169.175 88.2579 167.949 89.1551C166.744 90.0357 165.335 91.3593 163.738 93.1194L171.583 94.9475C171.549 92.8078 171.354 91.1099 171.001 89.8668ZM171.381 84.7548C175.132 85.6286 176.293 89.7236 176.052 97.2977C176.043 97.5618 175.955 97.8207 175.793 98.0544C175.631 98.288 175.401 98.4899 175.12 98.6445C174.839 98.799 174.515 98.902 174.173 98.9453C173.831 98.9885 173.481 98.971 173.149 98.8941L159.543 95.7231C159.212 95.6458 158.908 95.5111 158.657 95.3296C158.405 95.1481 158.212 94.9246 158.092 94.6768C157.973 94.4289 157.93 94.1633 157.968 93.9008C158.005 93.6382 158.122 93.3858 158.308 93.1634C163.665 86.7814 167.633 83.8821 171.381 84.7548Z" fill="#754F50"/>
<path d="M184.33 89.0495C186.443 89.1911 188.23 92.1754 189.691 98.002L177.009 97.1562C179.776 91.6115 182.216 88.9091 184.33 89.0495Z" fill="#E2FF29"/>
<path d="M183.903 90.8524C183.569 91.0545 183.157 91.4277 182.702 91.9716C181.959 92.8608 181.165 94.1227 180.336 95.7465L186.991 96.0124C186.389 94.3311 185.774 93.0127 185.155 92.0698C184.778 91.4934 184.42 91.0887 184.114 90.8616C184.082 90.8373 184.048 90.8141 184.014 90.7919C183.976 90.811 183.939 90.8312 183.903 90.8524ZM184.25 87.331C187.907 87.4771 190.117 90.8502 192.093 97.4638C192.422 98.571 191.271 99.6137 189.785 99.5538L177.071 99.0453C176.725 99.0312 176.387 98.9561 176.085 98.8259C175.782 98.6957 175.524 98.5139 175.329 98.2947C175.134 98.0756 175.009 97.825 174.962 97.5627C174.916 97.3005 174.95 97.0335 175.062 96.7829C177.935 90.3633 180.596 87.1843 184.25 87.331Z" fill="#754F50"/>
<path d="M79.4176 113.316C65.5247 113.675 55.0126 107.245 54.5453 96.5929C54.5004 95.5747 55.0567 85.0344 56.454 77.3193C57.1863 73.2762 58.6411 65.0976 60.8186 52.7869C61.8961 46.6961 56.4525 41.0487 48.5049 40.0111C38.141 38.6585 31.0344 37.6437 27.1849 36.9668C19.0636 35.5383 13.4927 31.183 13.4927 24.9295C13.4927 18.6617 20.9146 15.3104 29.0711 14.8898C54.1005 14.8333 66.9361 14.8333 67.5778 14.8898L97.231 14.839C116.384 14.839 131.909 26.7433 131.909 41.4282V75.3166C131.909 84.1321 139.491 91.9055 150.567 94.4452C156.474 95.7996 159.941 96.5449 160.967 96.6802C175.947 98.6532 183.609 96.8463 193.396 98.4124C195.713 98.7822 203.409 101.563 191.792 104.315C180.352 107.024 156.074 111.498 129.757 113.316C112.21 114.528 95.4325 114.528 79.4176 113.316Z" fill="#0EB50A"/>
<path d="M79.4176 113.316C95.4317 114.528 112.21 114.528 129.757 113.316C156.073 111.497 180.35 107.024 191.792 104.315C203.409 101.564 195.711 98.7833 193.396 98.4123C183.611 96.8462 175.947 98.6532 160.967 96.6802C159.941 96.5449 156.474 95.7995 150.567 94.4452C139.491 91.9066 131.909 84.1332 131.909 75.3165V41.4282C131.909 26.7433 116.384 14.8389 97.231 14.8389L67.5771 14.8897C66.9354 14.8332 54.099 14.8332 29.0703 14.8897C20.9146 15.3098 13.4927 18.6611 13.4927 24.9295C13.4927 31.183 19.0651 35.5382 27.1864 36.9668C31.0359 37.6437 38.1425 38.6584 48.5064 40.0111C56.454 41.0481 61.8976 46.696 60.8201 52.7869C58.6427 65.0981 57.1878 73.2762 56.4555 77.3192C55.0582 85.0344 54.5019 95.5735 54.5468 96.5928C55.0141 107.245 65.5254 113.675 79.4176 113.316ZM50.0564 96.7064C49.9478 94.2351 50.8643 83.147 52.0047 76.8512C52.7363 72.8127 54.1904 64.6376 56.3679 52.3297C57.1219 48.0658 53.3113 44.1129 47.7479 43.3869C37.3032 42.0235 30.1343 40.9996 26.1755 40.3038C15.8274 38.4832 9 32.6737 9 24.9295C9 17.0517 17.5923 12.0492 28.7678 11.4733C53.3181 11.4111 64.9391 11.406 67.5674 11.4671L97.231 11.4146C118.87 11.4146 136.402 24.8564 136.402 41.4282V75.3165C136.402 78.8739 137.906 82.3365 140.691 85.1913C143.475 88.0462 147.392 90.1413 151.861 91.1663C157.503 92.4602 160.974 93.205 161.732 93.3054C167.965 94.1261 172.065 94.2922 179.965 94.2717C183.658 94.262 185.225 94.2762 187.267 94.3664C189.747 94.4754 192.025 94.6923 194.32 95.0598C197.13 95.5102 200.367 96.84 201.781 98.8547C203.172 100.837 202.611 103.09 200.412 104.73C198.861 105.888 196.487 106.787 193.125 107.583C177.148 111.367 152.875 115.157 130.163 116.727C112.449 117.95 95.4819 117.957 79.2656 116.745C62.7969 117.068 50.5955 109.011 50.0564 96.7064Z" fill="#754F50"/>
<path d="M71.9372 63.3512H77.8496C80.0904 63.3512 82.2723 63.8986 84.0751 64.913C85.8779 65.9274 87.2068 67.3555 87.8667 68.9877C90.5092 75.5215 92.0502 79.8516 92.4905 81.977C92.8326 83.6282 93.2654 87.593 93.7888 93.8734C94.4186 101.424 86.8993 107.933 76.9937 108.412C76.6143 108.431 76.2342 108.44 75.854 108.44H75.7649C66.188 108.44 58.4247 102.523 58.4247 95.2231C58.4247 94.7939 58.4524 94.3648 58.5063 93.9378L61.5029 70.5664C62.0278 66.472 66.543 63.3512 71.9372 63.3512Z" fill="white"/>
<path d="M35.9561 15.8321L36.1769 13.1554C36.1762 11.5636 37.965 10.2732 40.1694 10.2732C42.3746 10.2732 44.1372 11.4329 44.8044 13.1554L44.9414 15.9805" fill="#1FA31B"/>
<path d="M42.6951 16.0433C42.7059 16.268 42.7747 16.4889 42.8975 16.6933C43.0203 16.8978 43.1947 17.0818 43.4108 17.2348C43.6269 17.3879 43.8804 17.507 44.1569 17.5854C44.4334 17.6638 44.7275 17.6998 45.0223 17.6916C45.3171 17.6834 45.6069 17.6309 45.8751 17.5373C46.1433 17.4437 46.3847 17.3108 46.5855 17.146C46.7863 16.9813 46.9426 16.7881 47.0454 16.5773C47.1482 16.3666 47.1956 16.1425 47.1848 15.9178L47.0387 12.8775L46.9586 12.6709C46.0107 10.2207 43.3824 8.56103 40.1694 8.56104C36.7774 8.56104 33.9748 10.5649 33.9306 13.0949L33.7127 15.7243C33.6942 15.9487 33.7338 16.1737 33.8294 16.3865C33.9249 16.5993 34.0745 16.7956 34.2696 16.9643C34.4647 17.133 34.7015 17.2707 34.9665 17.3697C35.2314 17.4686 35.5193 17.5268 35.8138 17.5409C36.1082 17.5551 36.4034 17.5248 36.6826 17.452C36.9617 17.3792 37.2193 17.2651 37.4406 17.1164C37.6619 16.9677 37.8426 16.7872 37.9724 16.5853C38.1023 16.3833 38.1786 16.1639 38.1971 15.9395L38.418 13.2633L38.4225 13.1554C38.4225 12.531 39.1788 11.9854 40.1694 11.9854C41.2275 11.9854 42.1282 12.5145 42.5708 13.4562L42.6951 16.0433Z" fill="#754F50"/>
<path d="M39.8071 13.3865C40.5162 13.3865 41.0905 13.8248 41.0905 14.3647V15.0022C41.0903 15.2616 40.955 15.5103 40.7144 15.6936C40.4737 15.877 40.1474 15.98 39.8071 15.98C39.4668 15.98 39.1405 15.877 38.8998 15.6936C38.6591 15.5103 38.5238 15.2616 38.5237 15.0022V14.3647C38.5235 14.2362 38.5565 14.1089 38.621 13.9902C38.6854 13.8714 38.7799 13.7635 38.8991 13.6727C39.0184 13.5818 39.1599 13.5097 39.3157 13.4606C39.4715 13.4115 39.6385 13.3863 39.8071 13.3865Z" fill="#045601"/>
<path d="M21.7292 15.8321L21.9674 13.1554C21.9666 11.5636 23.8925 10.2732 26.2676 10.2732C28.6427 10.2732 30.5679 11.5636 30.5679 13.1554L30.7146 15.9805" fill="#1FA31B"/>
<path d="M26.2677 8.56104C22.7417 8.56104 19.7705 10.5323 19.7211 13.0904L19.4875 15.7163C19.4647 15.9418 19.5008 16.1685 19.5936 16.3833C19.6864 16.5981 19.8341 16.7968 20.0282 16.9678C20.2223 17.1388 20.459 17.2789 20.7245 17.3798C20.99 17.4808 21.2791 17.5406 21.5752 17.5559C21.8712 17.5712 22.1683 17.5417 22.4492 17.469C22.7302 17.3963 22.9895 17.2819 23.2121 17.1324C23.4348 16.9829 23.6163 16.8013 23.7463 16.598C23.8764 16.3947 23.9523 16.1738 23.9697 15.948L24.2078 13.2713L24.213 13.1554C24.213 12.5619 25.0726 11.9854 26.2677 11.9854C27.462 11.9854 28.3216 12.5619 28.3216 13.1554L28.3231 13.2228L28.4698 16.0479C28.4814 16.2726 28.5509 16.4933 28.6745 16.6975C28.798 16.9017 28.9731 17.0853 29.1898 17.2379C29.4065 17.3905 29.6604 17.5091 29.9373 17.5868C30.2141 17.6646 30.5083 17.7 30.803 17.691C31.0978 17.6822 31.3874 17.6292 31.6553 17.5351C31.9232 17.4409 32.1641 17.3074 32.3643 17.1423C32.5645 16.9771 32.72 16.7835 32.822 16.5725C32.924 16.3615 32.9705 16.1373 32.9588 15.9126L32.8142 13.1172C32.785 10.546 29.8064 8.56104 26.2677 8.56104Z" fill="#754F50"/>
<path d="M25.876 13.3865C26.6398 13.3865 27.2583 13.8585 27.2583 14.44V14.9274C27.258 15.2068 27.1122 15.4746 26.853 15.6721C26.5937 15.8695 26.2422 15.9804 25.8757 15.9803C25.5091 15.9803 25.1577 15.8692 24.8985 15.6717C24.6394 15.4741 24.4938 15.2062 24.4938 14.9269V14.44C24.4937 14.3017 24.5294 14.1646 24.5988 14.0368C24.6682 13.9089 24.77 13.7927 24.8984 13.6949C25.0268 13.597 25.1792 13.5194 25.3469 13.4665C25.5147 13.4136 25.6945 13.3864 25.876 13.3865Z" fill="#045601"/>
<path d="M57.6707 11.9854C57.6707 14.1045 58.7751 16.1369 60.741 17.6353C62.707 19.1338 65.3733 19.9756 68.1536 19.9756C70.9338 19.9756 73.6002 19.1338 75.5661 17.6353C77.5321 16.1369 78.6365 14.1045 78.6365 11.9854C78.6365 9.86622 77.5321 7.83387 75.5661 6.33541C73.6002 4.83695 70.9338 3.99512 68.1536 3.99512C65.3733 3.99512 62.707 4.83695 60.741 6.33541C58.7751 7.83387 57.6707 9.86622 57.6707 11.9854Z" fill="white"/>
<path d="M68.1536 21.6878C61.1225 21.6878 55.4243 17.344 55.4243 11.9854C55.4243 6.6268 61.1225 2.28296 68.1536 2.28296C75.1846 2.28296 80.8829 6.6268 80.8829 11.9854C80.8829 17.344 75.1831 21.6878 68.1536 21.6878ZM68.1536 18.2634C72.7024 18.2634 76.3902 15.4526 76.3902 11.9854C76.3902 8.5182 72.7024 5.70735 68.1536 5.70735C63.6047 5.70735 59.917 8.5182 59.917 11.9854C59.917 15.4526 63.6033 18.2634 68.1536 18.2634Z" fill="#754F50"/>
<path d="M62.6276 13.8185C62.972 14.1224 63.411 14.3555 63.9044 14.4965C64.3977 14.6374 64.9297 14.6816 65.4513 14.6249C65.9729 14.5683 66.4675 14.4127 66.8896 14.1724C67.3117 13.9322 67.6479 13.6149 67.8673 13.2497C68.0866 12.8846 68.1821 12.4833 68.1449 12.0827C68.1078 11.6822 67.9392 11.2951 67.6546 10.9571C67.37 10.6192 66.9786 10.3411 66.5163 10.1485C66.054 9.95585 65.5356 9.85485 65.0088 9.85474C64.1856 9.85461 63.3952 10.1005 62.8072 10.5396C62.2192 10.9787 61.8806 11.576 61.8639 12.2033L64.1956 12.4613L62.6276 13.8185Z" fill="#232323"/>
<path d="M78.6366 11.7C78.6366 13.0116 78.9755 14.3104 79.634 15.5221C80.2926 16.7339 81.2578 17.835 82.4746 18.7624C83.6914 19.6899 85.1359 20.4256 86.7257 20.9275C88.3155 21.4294 90.0195 21.6878 91.7403 21.6878C93.461 21.6878 95.165 21.4294 96.7548 20.9275C98.3446 20.4256 99.7891 19.6899 101.006 18.7624C102.223 17.835 103.188 16.7339 103.846 15.5221C104.505 14.3104 104.844 13.0116 104.844 11.7C104.844 10.3883 104.505 9.08957 103.846 7.87779C103.188 6.66602 102.223 5.56497 101.006 4.63752C99.7891 3.71006 98.3446 2.97437 96.7548 2.47243C95.165 1.9705 93.461 1.71216 91.7403 1.71216C90.0195 1.71216 88.3155 1.9705 86.7257 2.47243C85.1359 2.97437 83.6914 3.71006 82.4746 4.63752C81.2578 5.56497 80.2926 6.66602 79.634 7.87779C78.9755 9.08957 78.6366 10.3883 78.6366 11.7Z" fill="white"/>
<path d="M91.7403 23.4C83.2626 23.4 76.3903 18.1618 76.3903 11.7C76.3903 5.23817 83.2626 0 91.7403 0C100.218 0 107.09 5.23817 107.09 11.7C107.09 18.1618 100.216 23.4 91.7403 23.4ZM91.7403 19.9756C97.7357 19.9756 102.598 16.2704 102.598 11.7C102.598 7.12958 97.7357 3.42439 91.7403 3.42439C85.7448 3.42439 80.8829 7.12958 80.8829 11.7C80.8829 16.2704 85.7433 19.9756 91.7403 19.9756Z" fill="#754F50"/>
<path d="M85.1584 14.2871C85.7902 14.8449 86.6582 15.2164 87.6118 15.3373C88.5655 15.4581 89.5446 15.3207 90.3791 14.9487C91.2136 14.5768 91.851 13.9939 92.1805 13.3011C92.51 12.6084 92.5109 11.8496 92.183 11.1564C91.8551 10.4632 91.2191 9.87942 90.3854 9.50636C89.5517 9.13329 88.573 8.9945 87.6191 9.11407C86.6651 9.23364 85.7963 9.60403 85.1632 10.1609C84.5302 10.7179 84.173 11.4261 84.1536 12.1628L87.2213 12.503L85.1584 14.2871Z" fill="#232323"/>
<path d="M65.3914 26.8266C66.9257 26.9208 68.8448 29.9639 71.1488 35.956L60.6659 34.9453C62.2795 29.4388 63.855 26.7324 65.3914 26.8266Z" fill="#FFF660"/>
<path d="M64.4262 29.2489C63.8032 30.3184 63.1578 31.8971 62.4988 33.9717L69.0454 34.6029C68.1731 32.4843 67.3659 30.8389 66.6314 29.6741C66.2008 28.992 65.8062 28.4926 65.4663 28.1839C65.4206 28.142 65.3726 28.1016 65.3225 28.0629C65.0627 28.2883 64.7534 28.6861 64.4262 29.2489ZM72.5849 35.6353C72.6549 35.8172 72.6643 36.0094 72.6125 36.1947C72.5606 36.38 72.449 36.5526 72.2878 36.6968C72.1266 36.8411 71.9208 36.9524 71.689 37.0209C71.4572 37.0894 71.2067 37.1128 70.9601 37.089L60.4771 36.0782C60.2703 36.0583 60.0712 36.0057 59.8926 35.9237C59.7139 35.8417 59.5598 35.7322 59.4399 35.6022C59.32 35.4722 59.237 35.3245 59.1963 35.1687C59.1556 35.0128 59.158 34.8522 59.2035 34.6971C61.0417 28.4293 62.7347 25.5197 65.5104 25.6898C68.0496 25.8444 70.0278 28.9812 72.5849 35.6353Z" fill="#754F50"/>
<path d="M51.9695 26.8347C53.8332 27.023 55.4842 29.6832 56.9219 34.8147L45.6902 34.3136C48.0122 29.1387 50.105 26.6458 51.9695 26.8347Z" fill="white"/>
<path d="M53.2522 29.4589C52.6224 28.4442 52.0691 27.9961 51.7726 27.9659C51.1009 27.898 49.5569 29.6416 47.7741 33.2629L55.0185 33.5859C54.4525 31.8178 53.8602 30.4394 53.2522 29.4589ZM52.1657 25.703C54.9811 25.9877 56.8021 28.923 58.3858 34.5767C58.4339 34.7486 58.4293 34.9266 58.3724 35.0969C58.3154 35.2672 58.2076 35.4252 58.0574 35.5586C57.9071 35.6919 57.7185 35.797 57.5062 35.8657C57.294 35.9343 57.0638 35.9647 56.8336 35.9544L45.6019 35.4533C45.3713 35.4431 45.147 35.3924 44.9465 35.3051C44.7459 35.2178 44.5746 35.0964 44.4458 34.9503C44.3171 34.8042 44.2344 34.6373 44.2042 34.4628C44.1741 34.2883 44.1973 34.1108 44.272 33.9443C46.8591 28.1811 49.1915 25.4022 52.1657 25.703Z" fill="#754F50"/>
<path d="M37.828 26.8278C39.0949 26.9254 40.2181 29.2072 41.1975 33.6732L32.9609 32.9027C34.9392 28.7552 36.5618 26.7302 37.828 26.8278Z" fill="white"/>
<path d="M36.9385 28.8681C36.3672 29.581 35.73 30.6094 35.0351 31.9466L39.36 32.3513C38.9924 30.925 38.6098 29.8098 38.2174 29.0131C38.0227 28.617 37.8318 28.3145 37.6603 28.1119C37.4551 28.2774 37.2095 28.5302 36.9385 28.8681ZM37.9793 25.692C40.3312 25.8729 41.5487 28.3482 42.6741 33.4848C42.7126 33.6599 42.6969 33.8395 42.6282 34.0092C42.5596 34.1789 42.44 34.3341 42.2789 34.4623C42.1178 34.5906 41.9197 34.6885 41.7002 34.7481C41.4808 34.8078 41.2461 34.8276 41.0149 34.806L32.7783 34.0349C32.5547 34.014 32.3403 33.9549 32.1508 33.8621C31.9614 33.7692 31.8019 33.645 31.6842 33.4987C31.5664 33.3523 31.4935 33.1876 31.4709 33.0169C31.4482 32.8461 31.4764 32.6736 31.5533 32.5122C33.8348 27.7284 35.6131 25.5099 37.9793 25.692Z" fill="#754F50"/>
<path d="M15.5076 32.8062C45.461 35.6308 63.3674 37.1421 69.3464 37.3487C75.55 37.5627 81.1681 36.77 86.1752 34.963C86.6239 34.8011 86.9699 34.5099 87.1369 34.1535C87.3039 33.7971 87.2784 33.4048 87.0659 33.0628C86.8534 32.7208 86.4714 32.4571 86.0038 32.3298C85.5363 32.2025 85.0216 32.2219 84.5728 32.3839C80.1378 33.9848 75.127 34.6914 69.5156 34.4979C63.6796 34.2958 45.7905 32.7857 15.9673 29.9743C15.7224 29.9497 15.4734 29.9623 15.2349 30.0113C14.9964 30.0604 14.773 30.145 14.5775 30.2602C14.3821 30.3754 14.2185 30.519 14.0962 30.6826C13.9739 30.8463 13.8953 31.0267 13.865 31.2136C13.8347 31.4005 13.8532 31.5902 13.9194 31.7716C13.9857 31.953 14.0984 32.1226 14.2511 32.2707C14.4038 32.4187 14.5935 32.5423 14.8091 32.6342C15.0248 32.7261 15.2621 32.7846 15.5076 32.8062Z" fill="#754F50"/>
<path d="M106.276 70.6394C110.619 71.1831 117.115 71.5268 125.764 71.6706C126.371 73.0992 127.418 74.0425 128.904 74.5036C131.131 75.1929 135.11 76.5517 137.759 75.9254C140.406 75.2989 142.255 74.6555 143.381 71.5964C144.506 68.5374 143.326 65.4871 141.541 64.2308C139.757 62.9746 136.144 62.209 133.911 61.9749C132.422 61.8189 130.76 62.2673 128.924 63.3196C120.647 60.9783 114.332 59.311 109.983 58.3161L98.9996 55.1604" fill="#0EB50A"/>
<path d="M128.057 76.089L128.408 76.1981L128.796 76.3197C129.13 76.4247 129.39 76.5049 129.657 76.5854C130.83 76.9393 131.83 77.2073 132.829 77.4116C134.951 77.8476 136.793 77.9458 138.425 77.5604C142.432 76.6116 144.335 75.3458 145.543 72.0581C146.803 68.637 145.698 64.8237 143.065 62.9723C141.106 61.593 137.49 60.6214 134.217 60.2782C132.389 60.0864 130.519 60.4866 128.61 61.4042C120.872 59.2267 114.907 57.6569 110.701 56.6935L99.7918 53.5589C99.515 53.4768 99.2196 53.4374 98.9227 53.4429C98.6257 53.4484 98.3332 53.4987 98.0619 53.5909C97.7907 53.6832 97.5462 53.8155 97.3424 53.9802C97.1387 54.145 96.9799 54.3389 96.8752 54.5507C96.7704 54.7626 96.7218 54.9881 96.7322 55.2144C96.7426 55.4406 96.8117 55.6631 96.9356 55.8688C97.0595 56.0746 97.2357 56.2595 97.454 56.413C97.6723 56.5665 97.9284 56.6855 98.2074 56.7631L109.19 59.9193L109.338 59.9571C113.632 60.9386 119.907 62.5958 128.144 64.9247C128.497 65.0248 128.877 65.0555 129.249 65.014C129.622 64.9725 129.975 64.8602 130.276 64.6875C131.678 63.8832 132.784 63.5851 133.605 63.6712C136.05 63.9274 138.879 64.6881 140.018 65.489C141.328 66.4109 142.044 68.8858 141.219 71.1343C140.462 73.1887 139.753 73.6608 137.092 74.2904C136.436 74.4455 135.372 74.3886 133.997 74.1058C133.192 73.9401 132.339 73.7126 131.314 73.4029C130.925 73.284 129.617 72.8753 129.75 72.9171C128.918 72.6597 128.314 72.115 127.9 71.1427C127.756 70.8047 127.478 70.5092 127.104 70.2971C126.73 70.085 126.279 69.9668 125.813 69.9589C117.26 69.8174 110.856 69.4783 106.64 68.95C106.052 68.8764 105.45 68.9838 104.966 69.2487C104.482 69.5135 104.156 69.9141 104.059 70.3622C103.962 70.8104 104.103 71.2694 104.451 71.6383C104.798 72.0073 105.324 72.2559 105.912 72.3295C110.128 72.8566 116.23 73.1973 124.251 73.3569C125.112 74.6381 126.387 75.5712 128.057 76.089Z" fill="#754F50"/>
<path d="M96.1806 69.9776C96.1258 70.2745 96.1482 70.5767 96.2467 70.867C96.3451 71.1573 96.5176 71.4299 96.7544 71.6694C96.9911 71.9089 97.2873 72.1104 97.6263 72.2626C97.9652 72.4148 98.3401 72.5146 98.7296 72.5564C99.1192 72.5981 99.5157 72.5809 99.8965 72.5058C100.277 72.4307 100.635 72.2992 100.949 72.1188C101.263 71.9383 101.528 71.7125 101.727 71.4541C101.927 71.1958 102.058 70.91 102.113 70.613C102.167 70.3161 102.145 70.0139 102.046 69.7236C101.948 69.4334 101.775 69.1607 101.539 68.9212C101.302 68.6818 101.006 68.4802 100.667 68.328C100.328 68.1758 99.953 68.076 99.5634 68.0343C99.1739 67.9926 98.7774 68.0097 98.3966 68.0848C98.0158 68.1599 97.6581 68.2914 97.3439 68.4719C97.0298 68.6523 96.7654 68.8782 96.5658 69.1365C96.3662 69.3949 96.2353 69.6807 96.1806 69.9776Z" fill="#754F50"/>
<path d="M142.758 67.6037L137.014 66.4587C136.726 66.4012 136.419 66.4333 136.162 66.5479C135.905 66.6625 135.718 66.8503 135.642 67.07C135.567 67.2897 135.609 67.5232 135.759 67.7192C135.91 67.9152 136.156 68.0577 136.444 68.1152L142.188 69.2602C142.472 69.3097 142.771 69.273 143.021 69.1577C143.27 69.0424 143.451 68.8576 143.526 68.6424C143.6 68.4272 143.561 68.1985 143.418 68.0046C143.274 67.8108 143.038 67.667 142.758 67.6037ZM141.349 71.0313L135.605 69.8858C135.321 69.8366 135.022 69.8736 134.773 69.9889C134.524 70.1043 134.343 70.289 134.269 70.5041C134.195 70.7192 134.234 70.9477 134.377 71.1414C134.52 71.3351 134.756 71.4789 135.036 71.5423L140.779 72.6878C141.068 72.7448 141.374 72.7123 141.631 72.5975C141.888 72.4826 142.075 72.2947 142.151 72.075C142.188 71.9664 142.197 71.8532 142.177 71.7419C142.157 71.6306 142.109 71.5234 142.034 71.4265C141.96 71.3295 141.861 71.2447 141.743 71.1769C141.626 71.1091 141.492 71.0596 141.349 71.0313Z" fill="#754F50"/>
</svg>
