<svg width="176" height="158" viewBox="0 0 176 158" fill="none" xmlns="http://www.w3.org/2000/svg">
<path d="M22.8942 111.184L44.2493 109.103C50.9096 108.453 57.1737 111.664 58.9201 116.622C59.509 118.295 60.0351 119.518 60.4979 120.292C61.5569 122.062 64.7445 124.27 70.0607 126.915C75.5919 131.059 75.5911 134.036 70.0592 135.845C65.7178 137.265 60.6792 137.973 54.9443 137.972C52.0768 137.97 49.2316 137.586 46.5368 136.837C38.4435 134.586 33.5176 133.027 31.76 132.161C19.7782 126.257 15.7219 121.543 15.2181 120.296C13.7105 116.559 16.4495 112.596 21.3358 111.443C21.8441 111.322 22.3658 111.235 22.8942 111.184Z" fill="#F58B50"/>
<path d="M58.3871 120.806C57.8416 119.934 57.252 118.64 56.5929 116.892C55.8438 114.904 54.1786 113.191 51.9052 112.069C49.6319 110.947 46.9042 110.493 44.2268 110.791L22.9232 113.157C21.9101 113.269 20.9413 113.55 20.085 113.979C19.2286 114.408 18.5053 114.975 17.9659 115.641C17.4264 116.306 17.0837 117.054 16.9619 117.831C16.8401 118.608 16.9421 119.397 17.2607 120.141C17.3279 120.297 17.6235 120.7 18.1026 121.214C18.7564 121.915 19.658 122.726 20.7902 123.606C23.7196 125.883 27.8185 128.347 33.122 130.861C34.6968 131.608 39.5935 133.082 47.5525 135.177C50.0175 135.825 52.6117 136.14 55.2182 136.106C60.6627 136.035 65.3871 135.305 69.4046 133.927C73.1662 132.638 73.1766 131.166 68.7374 127.92C63.1383 125.222 59.7082 122.915 58.3871 120.806ZM22.2784 109.768L43.582 107.402C51.3335 106.541 58.7267 110.188 60.8956 115.944C61.4912 117.526 62.0099 118.663 62.4249 119.327C63.2869 120.704 66.2692 122.698 71.3063 125.11C71.4317 125.17 71.5489 125.24 71.6563 125.317C78.3092 130.131 78.41 134.592 71.2361 137.052C66.6357 138.631 61.3165 139.452 55.2936 139.53C52.1658 139.571 49.0528 139.194 46.0949 138.415C37.7657 136.223 32.7414 134.711 30.7621 133.773C20.5879 128.949 14.191 123.978 13.0043 121.208C11.0265 116.593 14.3149 111.627 20.3491 110.114C20.978 109.956 21.6235 109.841 22.2784 109.768Z" fill="#754F50"/>
<path d="M60.8061 124.361C64.078 123.991 64.5893 123.69 67.4239 123.452C84.5815 122.009 93.9884 122.852 98.8381 124.361C107.316 126.998 97.5156 130.558 92.1703 130.877C104.246 132.133 112.71 136.764 113.68 139.825C114.507 142.436 94.6862 142.716 89.0237 139.825C94.3638 144.372 99.4412 151.561 89.0237 151.233C82.079 151.015 71.2541 145.102 55.4899 131.749" fill="#F58B50"/>
<path d="M103.804 143.6C106.796 143.581 109.52 143.374 111.513 142.994C112.69 142.77 113.642 142.484 114.368 142.099C115.543 141.474 116.205 140.524 115.855 139.421C114.802 136.098 108.632 132.619 100.578 130.603C101.134 130.357 101.643 130.097 102.086 129.826C105.858 127.518 105.034 124.44 99.6807 122.775C93.5935 120.882 82.944 120.425 67.1783 121.75C65.9655 121.852 65.1273 121.961 64.0287 122.146C61.8524 122.51 61.8113 122.516 60.4776 122.667C60.1868 122.7 59.9072 122.776 59.655 122.892C59.4028 123.007 59.1827 123.16 59.0075 123.34C58.8323 123.521 58.7052 123.726 58.6337 123.944C58.5621 124.162 58.5475 124.389 58.5905 124.611C58.6335 124.833 58.7334 125.047 58.8845 125.24C59.0355 125.433 59.2348 125.601 59.4709 125.735C59.7069 125.869 59.9752 125.966 60.2604 126.021C60.5456 126.076 60.842 126.087 61.1329 126.054C62.1804 125.938 63.2217 125.791 64.2548 125.615L64.9863 125.49C65.8706 125.338 66.7661 125.225 67.6679 125.154C82.7604 123.885 92.7427 124.313 97.9947 125.947C100.305 126.666 100.275 126.548 99.2881 127.151C97.6969 128.125 94.3921 129.027 91.9956 129.169C89.3207 129.328 89.2088 132.296 91.8672 132.573C97.2252 133.131 102.138 134.421 105.947 136.147C108.481 137.295 110.288 138.548 111.089 139.528C110.898 139.576 110.677 139.624 110.431 139.671C108.826 139.977 106.434 140.159 103.765 140.176C98.2694 140.211 92.9121 139.555 90.5783 138.547C90.4718 138.501 90.3675 138.452 90.2656 138.4C88.0751 137.282 85.5972 139.47 87.3571 140.968C90.141 143.339 92.2576 145.942 92.7405 147.707C93.1353 149.153 92.5188 149.629 89.1155 149.522C82.729 149.321 71.9981 143.178 57.1512 130.602C56.7533 130.265 56.1967 130.063 55.6037 130.04C55.0107 130.017 54.43 130.175 53.9893 130.479C53.5486 130.783 53.284 131.209 53.2537 131.662C53.2234 132.116 53.4298 132.56 53.8277 132.897C69.471 146.147 80.9012 152.691 88.9311 152.944C95.0914 153.138 98.1522 150.775 97.1245 147.007C96.7976 145.808 96.0467 144.475 94.9907 143.101C97.6663 143.451 100.707 143.62 103.804 143.6Z" fill="#754F50"/>
<path d="M49.5199 127.273C49.5199 127.573 49.5971 127.87 49.7471 128.147C49.8972 128.424 50.1171 128.676 50.3943 128.888C50.6715 129.1 51.0006 129.268 51.3628 129.382C51.725 129.497 52.1132 129.556 52.5053 129.556C52.8973 129.556 53.2855 129.497 53.6477 129.382C54.0099 129.268 54.339 129.1 54.6162 128.888C54.8935 128.676 55.1134 128.424 55.2634 128.147C55.4134 127.87 55.4906 127.573 55.4906 127.273C55.4906 126.973 55.4134 126.677 55.2634 126.4C55.1134 126.123 54.8935 125.871 54.6162 125.659C54.339 125.447 54.0099 125.279 53.6477 125.164C53.2855 125.049 52.8973 124.99 52.5053 124.99C52.1132 124.99 51.725 125.049 51.3628 125.164C51.0006 125.279 50.6715 125.447 50.3943 125.659C50.1171 125.871 49.8972 126.123 49.7471 126.4C49.5971 126.677 49.5199 126.973 49.5199 127.273Z" fill="#754F50"/>
<path d="M69.6972 127.553C78.5085 127.042 83.347 127.252 85.8391 128.011C90.1955 129.338 85.1592 131.13 82.4126 131.291C88.617 131.922 92.9666 134.253 93.4652 135.794C93.8906 137.109 83.706 137.249 80.796 135.794C83.5403 138.083 86.1488 141.701 80.796 141.536C77.2278 141.427 69.1539 135.906 63.5653 131.73C57.9767 127.553 66.4932 127.739 69.6972 127.553Z" fill="#FFC19F"/>
<path d="M53.1993 118.126C51.7029 119.92 47.4532 121.432 40.4511 122.663C39.2718 122.809 35.6357 122.758 29.5433 122.51C21.4096 122.18 14.2291 118.312 11.0609 112.554C10.6175 111.748 10.3026 111.115 10.1182 110.658C9.9003 110.119 9.65103 109.296 9.36891 108.19C8.14043 103.374 12.2334 98.7133 18.5116 97.7807C18.9851 97.7103 19.464 97.6627 19.9453 97.638L42.7587 96.4754C48.3384 96.1912 53.3941 99.0049 54.7748 103.162L56.4713 108.271C57.0829 110.1 57.0496 112.019 56.375 113.835" fill="#F58B50"/>
<path d="M29.1396 120.692C21.8807 120.203 15.6181 116.572 13.0193 111.345C12.6365 110.576 12.373 109.985 12.232 109.587C12.064 109.114 11.8655 108.337 11.6453 107.278C10.8318 103.365 14.3038 99.6955 19.3968 99.0791C19.7804 99.0328 20.1685 99.0049 20.5566 98.9958L43.4096 98.4421C47.9183 98.3331 51.8933 100.712 52.8546 104.098L54.3174 109.248C54.761 110.797 54.6598 112.409 54.0241 113.918C53.9311 114.133 53.8946 114.359 53.9167 114.585C53.9388 114.81 54.0191 115.03 54.1529 115.232C54.2867 115.433 54.4713 115.612 54.6962 115.759C54.9211 115.906 55.1818 116.017 55.4632 116.086C55.7446 116.156 56.0411 116.182 56.3357 116.163C56.6303 116.144 56.9171 116.081 57.1796 115.977C57.4421 115.873 57.675 115.73 57.865 115.557C58.055 115.384 58.1982 115.183 58.2864 114.968C59.1644 112.884 59.3048 110.66 58.6932 108.521L57.2304 103.37C55.8116 98.3719 49.9379 94.8574 43.2678 95.0189L20.4156 95.5725C19.8398 95.5863 19.2657 95.6278 18.6968 95.6969C11.1557 96.6101 6.02089 102.036 7.2225 107.816C7.46581 108.985 7.69121 109.866 7.90914 110.481C8.09572 111.008 8.40247 111.696 8.83311 112.562C12.0409 119.014 19.7767 123.498 28.7455 124.103C35.0386 124.527 38.698 124.677 40.1168 124.54C47.8615 123.398 52.6105 121.859 54.6279 119.618C54.9581 119.244 55.0818 118.785 54.972 118.342C54.8622 117.898 54.5278 117.506 54.0416 117.25C53.5554 116.994 52.9567 116.895 52.3757 116.975C51.7948 117.055 51.2786 117.307 50.9395 117.676C49.8073 118.934 45.9531 120.186 39.4943 121.148C38.4561 121.228 34.8819 121.08 29.1396 120.692Z" fill="#754F50"/>
<path d="M39.8659 108.57L46.3539 107.241C47.8835 106.927 49.5132 107.091 50.8846 107.697C52.256 108.302 53.2567 109.299 53.6665 110.469C54.0764 111.639 53.8618 112.885 53.07 113.934C52.2782 114.983 50.9741 115.748 49.4445 116.061L42.9565 117.391C42.1992 117.546 41.4092 117.586 40.6318 117.507C39.8544 117.429 39.1048 117.235 38.4258 116.935C37.0544 116.329 36.0537 115.332 35.6439 114.162C35.234 112.993 35.4486 111.746 36.2404 110.698C37.0322 109.649 38.3363 108.884 39.8659 108.57Z" fill="#FFC19F"/>
<path d="M40.4533 106.834L28.9858 107.191C27.6958 107.097 26.4109 106.965 25.1339 106.796C23.539 106.578 21.7806 106.15 19.8603 105.513C10.7042 102.47 5.54246 95.0326 7.45533 87.6399C7.59415 87.104 7.72476 86.6708 7.84791 86.3403C8.13152 85.5761 8.76143 84.3148 9.73689 82.5564C12.167 78.1749 18.7982 76.0883 24.6615 77.8598L46.5636 84.478C52.0351 86.1309 55.0279 90.6123 53.5248 94.9007L52.6247 97.4696C51.3014 101.246 47.919 104.269 43.5387 105.937" fill="#F58B50"/>
<path d="M39.4868 108.957L28.0103 108.854C27.9054 108.853 27.8006 108.847 27.6969 108.835C26.3589 108.682 25.029 108.49 23.7099 108.26C21.9493 107.947 20.0618 107.403 18.04 106.633C8.16661 102.869 3.0273 94.4253 5.70368 86.3358C5.85653 85.8585 6.0343 85.3862 6.23657 84.9198C6.60974 84.0831 7.35534 82.7967 8.48828 81.02C11.7505 75.9022 19.8237 73.7318 26.6572 76.1203L48.0765 83.606C54.4569 85.8358 57.661 91.3251 55.5138 96.3795L54.439 98.909C52.6881 103.03 48.7086 106.33 43.5484 108.042C42.8767 108.266 42.1401 108.217 41.549 107.96C41.368 108.26 41.0769 108.515 40.7109 108.692C40.345 108.869 39.9198 108.961 39.4868 108.957ZM41.7647 104.901C45.7583 103.575 48.8288 101.029 50.1797 97.8497L51.2536 95.3208C52.6948 91.9295 50.5349 88.2301 46.2143 86.7199L24.7944 79.2342C20.1596 77.6144 14.7038 79.0807 12.5118 82.5199C11.455 84.1773 10.7706 85.3598 10.4728 86.0265C10.3105 86.4052 10.1673 86.7887 10.0437 87.1759C7.88598 93.6977 12.0386 100.52 20.0364 103.568C21.7627 104.226 23.3278 104.677 24.7234 104.926C25.7415 105.106 26.908 105.276 28.2208 105.432L39.5391 105.533C39.9189 105.536 40.2914 105.613 40.6213 105.757C40.8507 105.373 41.2581 105.068 41.7647 104.901ZM79.4221 55.9312C135.875 54.9969 165.532 47.191 167.925 31.6974C169.505 21.467 163.962 13.531 153.314 7.78085C146.04 3.85308 137.151 1.32759 128.905 0.0348838C128.616 -0.0102733 128.32 -0.0116015 128.031 0.030975C127.742 0.0735516 127.467 0.159199 127.222 0.283027C126.976 0.406855 126.765 0.566442 126.6 0.75267C126.436 0.938899 126.32 1.14812 126.261 1.3684C126.202 1.58868 126.201 1.81569 126.256 2.03648C126.312 2.25727 126.424 2.46751 126.586 2.6552C126.748 2.84289 126.956 3.00436 127.2 3.13037C127.444 3.25639 127.717 3.34449 128.005 3.38964C135.699 4.5956 144.041 6.96585 150.731 10.578C160.125 15.6507 164.85 22.4156 163.478 31.2956C161.474 44.2672 133.578 51.6102 79.325 52.5079C78.7432 52.5307 78.1958 52.7259 77.799 53.0522C77.4023 53.3785 77.1875 53.8102 77.2001 54.2556C77.2127 54.701 77.4518 55.1252 77.8667 55.438C78.2815 55.7509 78.8394 55.9278 79.4221 55.9312Z" fill="#754F50"/>
<path d="M55.904 60.468C108.832 52.8607 137.371 45.5194 142.621 37.6621C146.458 31.92 143.636 26.4409 136.007 21.7803C130.258 18.2681 121.829 15.2848 113.473 13.4545C97.6708 9.99359 72.2392 12.6572 58.4461 20.1326C58.2024 20.2614 57.9945 20.426 57.8345 20.6166C57.6745 20.8073 57.5656 21.0204 57.5141 21.2435C57.4626 21.4666 57.4695 21.6953 57.5344 21.9163C57.5993 22.1374 57.721 22.3464 57.8923 22.5312C58.0635 22.716 58.2811 22.873 58.5323 22.9931C58.7836 23.1132 59.0634 23.1939 59.3558 23.2307C59.6481 23.2675 59.9471 23.2595 60.2353 23.2072C60.5236 23.155 60.7955 23.0595 61.0351 22.9264C73.6729 16.0776 97.6962 13.5612 112.239 16.7465C120.072 18.4621 127.985 21.2627 133.212 24.4559C139.356 28.2091 141.338 32.0569 138.634 36.104C134.357 42.5042 106.139 49.7639 55.0771 57.1024C54.4935 57.1862 53.9773 57.4439 53.6421 57.8188C53.307 58.1937 53.1803 58.655 53.29 59.1013C53.3996 59.5477 53.7367 59.9424 54.2269 60.1987C54.7171 60.4549 55.3204 60.5518 55.904 60.468Z" fill="#754F50"/>
<path d="M36.3111 94.8643L43.0028 94.4174C44.5699 94.3264 46.1207 94.7116 47.3187 95.4894C48.5168 96.2672 49.2656 97.3748 49.4027 98.5721C49.5397 99.7693 49.0539 100.96 48.0507 101.885C47.0476 102.81 45.6078 103.395 44.0439 103.514L37.3522 103.961C35.7774 104.063 34.214 103.683 33.0047 102.905C31.7955 102.127 31.0391 101.014 30.9013 99.8096C30.7635 98.6056 31.2556 97.409 32.2696 96.482C33.2837 95.555 34.737 94.9732 36.3111 94.8643Z" fill="#FFC19F"/>
<path d="M34.105 94.0384C32.6556 93.6303 28.0731 91.284 28.0731 91.284C28.0731 91.284 24.4615 89.3013 22.5367 87.7854C22.3695 87.6536 21.5097 86.7918 19.9566 85.1989C14.8568 79.9687 14.3172 72.9687 18.5863 67.4229C19.4573 66.2911 20.1484 65.4647 20.6589 64.9442C21.4426 64.1452 23.0278 62.8153 25.4146 60.9548C29.7449 57.58 36.8642 57.4744 41.49 60.7156L62.5384 75.4633C66.8843 78.5082 67.5889 83.5169 64.1751 87.1097L61.3278 90.1066C57.9222 93.6908 52.6964 95.8145 47.1496 96.1489L38.0225 95.0857" fill="#F58B50"/>
<path d="M32.5653 95.4618C31.8346 95.2341 30.7614 94.7375 29.2993 93.9944C28.5804 93.6276 27.8676 93.254 27.161 92.8735C26.9087 92.7382 26.6759 92.6115 26.4662 92.498C26.3573 92.4385 26.2488 92.3786 26.1408 92.3182C25.6961 92.0536 25.256 91.7845 24.8205 91.5112C24.0176 91.0103 23.2313 90.4942 22.462 89.9633C21.6829 89.4234 21.0134 88.9229 20.4753 88.4686C20.2096 88.2432 19.4588 87.4339 17.834 85.6406C12.4655 79.7124 12.2222 71.9568 17.2272 65.9441C18.1907 64.7867 18.9602 63.934 19.5573 63.3667C20.4574 62.5129 22.1538 61.1853 24.6929 59.3402C30.0538 55.4438 38.5502 55.5442 43.8805 59.5496L64.243 74.8504C69.2547 78.6166 69.8226 84.619 65.5424 88.8082L62.56 91.7275C58.6484 95.5554 52.7613 97.8326 46.4487 98.0438C46.2771 98.05 46.1054 98.0403 45.936 98.0158L36.8627 96.7088C36.3555 96.6359 35.8969 96.4312 35.5643 96.1293C35.2318 95.8275 35.0459 95.4472 35.0379 95.0526C34.7278 95.3035 34.3257 95.4769 33.8844 95.5499C33.4431 95.623 32.9833 95.5922 32.5653 95.4618ZM37.6926 93.3444L46.5032 94.6137C51.4238 94.3945 55.9862 92.6007 59.032 89.6192L62.0144 86.7005C64.8841 83.8908 64.502 79.8454 61.1046 77.2931L40.7429 61.9918C37.1239 59.2723 31.3801 59.2043 27.7782 61.8217C25.3765 63.5676 23.7838 64.8129 23.0442 65.5149C22.5732 65.9618 21.8866 66.7232 21.0052 67.7819C16.9727 72.6268 17.169 78.89 21.5157 83.6899C22.8494 85.1629 23.7383 86.1212 23.795 86.1691C24.2204 86.5281 24.7906 86.955 25.4698 87.4253C26.1445 87.8933 26.8916 88.3807 27.6581 88.8613C28.1477 89.1678 28.5604 89.4189 28.85 89.5901L29.0672 89.7094L29.7351 90.0706C30.4277 90.4428 31.1248 90.8097 31.7801 91.1431C32.9735 91.7492 33.9094 92.1818 34.2572 92.2908C34.6638 92.4177 35.0127 92.6333 35.2604 92.9106C35.5082 93.1879 35.6439 93.5148 35.6506 93.8506C35.9082 93.642 36.2302 93.4863 36.587 93.3978C36.9438 93.3094 37.3241 93.291 37.6926 93.3444Z" fill="#754F50"/>
<path d="M44.2881 83.7469L50.6006 85.5036C52.0813 85.922 53.2851 86.7716 53.9488 87.8669C54.6125 88.9621 54.682 90.2138 54.1421 91.3481C53.6023 92.4824 52.497 93.4071 51.068 93.9199C49.639 94.4327 48.0026 94.4919 46.5166 94.0846L40.2041 92.3279C39.4637 92.1249 38.783 91.8121 38.2012 91.4074C37.6194 91.0027 37.1479 90.514 36.8137 89.9695C36.4796 89.4251 36.2894 88.8354 36.2542 88.2346C36.2189 87.6337 36.3392 87.0335 36.6082 86.4683C36.8772 85.9031 37.2896 85.3841 37.8216 84.9412C38.3537 84.4982 38.9949 84.14 39.7086 83.8872C40.4222 83.6343 41.1941 83.4917 41.98 83.4676C42.7659 83.4436 43.5503 83.5385 44.2881 83.7469Z" fill="#FFC19F"/>
<path d="M133.856 52.5371C110.934 51.0623 94.3033 49.3193 83.9635 47.3081C68.4538 44.2912 34.5184 47.3081 28.685 60.0959C25.5712 66.9224 31.8539 73.9059 40.4802 79.0094C45.3202 81.8727 50.8976 84.1442 55.9675 85.4643C58.7887 86.1983 61.4516 86.6389 63.7429 86.7211C77.4927 87.2205 68.7657 81.3385 92.1001 77.57C107.657 75.0576 121.575 66.7135 133.856 52.5371Z" fill="#F58B50"/>
<path d="M91.6442 75.8949C86.1056 76.7892 81.9455 77.8582 78.7683 79.1269C76.9606 79.8489 75.5068 80.6165 74.188 81.4989C73.6763 81.8435 73.1807 82.2017 72.702 82.573L72.39 82.8138L72.0967 83.0416C71.8728 83.2145 71.7124 83.3372 71.5579 83.4508C69.7592 84.7812 68.2605 85.1715 63.8556 85.0112C61.8189 84.9375 59.3649 84.538 56.696 83.8434C51.7358 82.5519 46.3935 80.3391 41.8572 77.655C32.7063 72.241 28.3619 66.0178 30.8054 60.6597C33.172 55.4724 41.3803 51.5383 53.2076 49.4432C63.6295 47.5968 75.7068 47.4679 83.418 48.9672C93.3152 50.8922 108.778 52.5628 129.849 53.9902C118.415 66.3574 105.679 73.6279 91.6442 75.8949ZM134.051 50.8306C111.242 49.3633 94.7146 47.6311 84.5226 45.6484C76.0785 44.0064 63.2832 44.1433 52.197 46.1072C39.0271 48.4404 29.5694 52.9726 26.5774 59.5314C23.3502 66.6068 28.6164 74.1513 39.1166 80.3631C44.0403 83.2761 49.8199 85.6703 55.2525 87.0846C58.2939 87.8768 61.1509 88.3408 63.6437 88.431C69.2338 88.6336 71.9437 87.9287 74.6709 85.9118C74.8545 85.7765 75.0366 85.6378 75.2814 85.4478L75.5777 85.2183L75.874 84.9895C76.2801 84.6735 76.7008 84.3688 77.1353 84.0757C78.1921 83.3686 79.3527 82.7556 80.8394 82.1621C83.624 81.0503 87.4042 80.0789 92.5689 79.2451C108.761 76.63 123.147 68.0056 135.728 53.4822C136.669 52.3978 135.745 50.9396 134.051 50.8306Z" fill="#754F50"/>
<path d="M44.2954 59.0708C44.2954 59.6006 44.5706 60.1087 45.0605 60.4833C45.5504 60.8579 46.2148 61.0684 46.9076 61.0684C47.6004 61.0684 48.2648 60.8579 48.7547 60.4833C49.2446 60.1087 49.5198 59.6006 49.5198 59.0708C49.5198 58.541 49.2446 58.0329 48.7547 57.6583C48.2648 57.2837 47.6004 57.0732 46.9076 57.0732C46.2148 57.0732 45.5504 57.2837 45.0605 57.6583C44.5706 58.0329 44.2954 58.541 44.2954 59.0708Z" fill="#EA7737"/>
<path d="M42.0564 64.4928C42.0564 64.7955 42.2137 65.0859 42.4936 65.2999C42.7735 65.514 43.1532 65.6342 43.5491 65.6342C43.945 65.6342 44.3246 65.514 44.6046 65.2999C44.8845 65.0859 45.0418 64.7955 45.0418 64.4928C45.0418 64.19 44.8845 63.8997 44.6046 63.6856C44.3246 63.4716 43.945 63.3513 43.5491 63.3513C43.1532 63.3513 42.7735 63.4716 42.4936 63.6856C42.2137 63.8997 42.0564 64.19 42.0564 64.4928Z" fill="#EA7737"/>
<path d="M52.5052 61.3537C52.5052 61.7321 52.7018 62.095 53.0517 62.3626C53.4017 62.6302 53.8762 62.7805 54.3711 62.7805C54.866 62.7805 55.3405 62.6302 55.6905 62.3626C56.0404 62.095 56.237 61.7321 56.237 61.3537C56.237 60.9753 56.0404 60.6124 55.6905 60.3448C55.3405 60.0772 54.866 59.9269 54.3711 59.9269C53.8762 59.9269 53.4017 60.0772 53.0517 60.3448C52.7018 60.6124 52.5052 60.9753 52.5052 61.3537Z" fill="#EA7737"/>
<path d="M36.0857 58.2147C36.0857 58.5174 36.243 58.8078 36.5229 59.0218C36.8028 59.2359 37.1825 59.3562 37.5784 59.3562C37.9743 59.3562 38.3539 59.2359 38.6339 59.0218C38.9138 58.8078 39.0711 58.5174 39.0711 58.2147C39.0711 57.912 38.9138 57.6216 38.6339 57.4076C38.3539 57.1935 37.9743 57.0732 37.5784 57.0732C37.1825 57.0732 36.8028 57.1935 36.5229 57.4076C36.243 57.6216 36.0857 57.912 36.0857 58.2147Z" fill="#EA7737"/>
<path d="M50.2662 65.6343C50.2662 65.937 50.4235 66.2273 50.7034 66.4414C50.9834 66.6555 51.363 66.7757 51.7589 66.7757C52.1548 66.7757 52.5345 66.6555 52.8144 66.4414C53.0943 66.2273 53.2516 65.937 53.2516 65.6343C53.2516 65.3315 53.0943 65.0412 52.8144 64.8271C52.5345 64.6131 52.1548 64.4928 51.7589 64.4928C51.363 64.4928 50.9834 64.6131 50.7034 64.8271C50.4235 65.0412 50.2662 65.3315 50.2662 65.6343Z" fill="#EA7737"/>
<path d="M51.0126 56.2172C51.0126 56.4442 51.1305 56.662 51.3405 56.8225C51.5504 56.9831 51.8352 57.0733 52.1321 57.0733C52.429 57.0733 52.7138 56.9831 52.9237 56.8225C53.1337 56.662 53.2516 56.4442 53.2516 56.2172C53.2516 55.9901 53.1337 55.7724 52.9237 55.6118C52.7138 55.4513 52.429 55.3611 52.1321 55.3611C51.8352 55.3611 51.5504 55.4513 51.3405 55.6118C51.1305 55.7724 51.0126 55.9901 51.0126 56.2172Z" fill="#EA7737"/>
<path d="M100.644 61.5758C100.644 63.0346 99.1344 64.2075 97.2857 64.2075C95.437 64.2075 93.9272 63.034 93.9272 61.5758V61.0684C93.9272 60.69 93.7306 60.3271 93.3807 60.0595C93.0307 59.7919 92.5562 59.6416 92.0613 59.6416C91.5664 59.6416 91.0918 59.7919 90.7419 60.0595C90.392 60.3271 90.1954 60.69 90.1954 61.0684V61.5758C90.1954 64.6007 93.3629 67.0611 97.2857 67.0611C101.208 67.0611 104.376 64.6001 104.376 61.5758C104.376 61.1974 104.179 60.8345 103.829 60.5669C103.48 60.2993 103.005 60.149 102.51 60.149C102.015 60.149 101.541 60.2993 101.191 60.5669C100.841 60.8345 100.644 61.1974 100.644 61.5758Z" fill="#754F50"/>
<path d="M89.8223 53.6489C94.7683 53.6489 98.7784 50.2776 98.7784 46.1187C98.7784 41.9597 94.7683 38.2391 89.8223 38.2391C84.8763 38.2391 80.8662 41.9603 80.8662 46.1187C80.8662 50.277 84.8763 53.6489 89.8223 53.6489Z" fill="white"/>
<path d="M89.8223 55.3611C83.5889 55.3611 78.6272 51.1885 78.6272 46.1187C78.6272 41.0021 83.6292 36.527 89.8223 36.527C96.0154 36.527 101.017 41.0021 101.017 46.1187C101.017 51.1885 96.0558 55.3611 89.8223 55.3611ZM89.8223 51.9367C93.4824 51.9367 96.5394 49.3662 96.5394 46.1187C96.5394 42.7845 93.3727 39.9514 89.8223 39.9514C86.272 39.9514 83.1052 42.7845 83.1052 46.1187C83.1052 49.3662 86.1623 51.9367 89.8223 51.9367Z" fill="#754F50"/>
<path d="M84.6868 47.9034C85.1555 48.3782 85.8496 48.6779 86.6235 48.6779C88.0371 48.6779 89.1827 47.6768 89.1827 46.4412C89.1827 45.2055 88.0371 44.2045 86.6235 44.2045C85.2279 44.2045 84.0919 45.1816 84.0643 46.3961L85.9623 46.6369L84.6868 47.9034Z" fill="#232323"/>
<path d="M67.4321 54.7904C74.8515 54.7904 80.8662 50.2348 80.8662 44.6148C80.8662 38.9954 74.1506 34.244 66.7313 34.244C59.3119 34.244 53.9979 38.9954 53.9979 44.6148C53.9979 50.2348 60.0127 54.7904 67.4321 54.7904Z" fill="white"/>
<path d="M67.4321 56.5026C58.7805 56.5026 51.7589 51.1839 51.7589 44.6148C51.7589 37.9333 58.2058 32.5319 66.7313 32.5319C75.4441 32.5319 83.1052 38.0885 83.1052 44.6148C83.1052 51.1839 76.0837 56.5026 67.4321 56.5026ZM67.4321 53.0782C73.62 53.0782 78.6272 49.2851 78.6272 44.6148C78.6272 40.0216 73.0222 35.9562 66.7313 35.9562C60.7747 35.9562 56.237 39.7585 56.237 44.6148C56.237 49.2851 61.2442 53.0782 67.4321 53.0782Z" fill="#754F50"/>
<path d="M60.1059 47.643C60.7743 48.2778 61.7168 48.7095 62.764 48.8605C63.8113 49.0115 64.8946 48.872 65.8194 48.467C66.7442 48.062 67.4498 47.418 67.8094 46.6509C68.1689 45.8837 68.1589 45.0436 67.7812 44.2816C67.4034 43.5195 66.6826 42.8855 65.7484 42.4934C64.8141 42.1013 63.7276 41.9769 62.6841 42.1425C61.6406 42.308 60.7086 42.7528 60.0554 43.3967C59.4023 44.0407 59.0709 44.8417 59.1208 45.6557L62.1009 45.9748L60.1059 47.643Z" fill="#232323"/>
<path d="M47.2712 90.9273C49.6445 89.9114 51.2701 89.2745 52.147 89.0171C53.0232 88.7597 54.7891 88.4018 57.4416 87.9418C58.2259 87.8053 59.0484 87.8896 59.7581 88.1791C60.4679 88.4686 61.0175 88.944 61.3061 89.5182C61.5938 90.0926 61.6013 90.727 61.3271 91.3053C61.053 91.8835 60.5156 92.3669 59.8134 92.6669C57.4274 93.6874 55.8034 94.3254 54.9383 94.5789C54.0733 94.8328 52.309 95.1901 49.6423 95.6518C48.8581 95.7882 48.036 95.704 47.3263 95.4147C46.6167 95.1255 46.0669 94.6504 45.7778 94.0766C45.4901 93.5021 45.4827 92.8675 45.757 92.2891C46.0313 91.7108 46.5688 91.2273 47.2712 90.9273Z" fill="#FFA370"/>
<path d="M48.3653 92.4221C48.1326 92.5209 47.9543 92.6805 47.863 92.8717C47.7717 93.0629 47.7736 93.2729 47.8682 93.4631C47.9643 93.6528 48.1464 93.8096 48.3813 93.905C48.6163 94.0004 48.8882 94.0279 49.1475 93.9825C51.7097 93.539 53.4046 93.196 54.136 92.9814C54.8674 92.7668 56.4273 92.155 58.7186 91.1733C58.9511 91.0745 59.1293 90.915 59.2206 90.7239C59.3118 90.5329 59.3101 90.323 59.2156 90.1329C59.1195 89.9429 58.9372 89.7858 58.702 89.6902C58.4669 89.5946 58.1945 89.567 57.9349 89.6124C55.3854 90.0541 53.6919 90.3977 52.9493 90.6169C52.2052 90.8349 50.6469 91.4456 48.3653 92.4221ZM46.1778 89.4337C48.6444 88.3779 50.3349 87.7158 51.344 87.4191C52.353 87.1223 54.1898 86.7496 56.946 86.2719C58.2555 86.0447 59.6281 86.1858 60.8127 86.6693C61.9973 87.1528 62.9146 87.9463 63.3966 88.9047C63.8773 89.8634 63.8902 90.9224 63.433 91.8878C62.9757 92.8532 62.0789 93.6602 60.9068 94.1611C58.429 95.2221 56.7393 95.8847 55.7406 96.1781C54.742 96.4703 52.9068 96.843 50.1371 97.3218C47.4294 97.7915 44.6814 96.6712 43.6872 94.6907C42.6931 92.7103 43.7544 90.4708 46.1778 89.4337Z" fill="#754F50"/>
<path d="M70.9779 86.882C71.5922 86.9734 73.6909 87.4368 77.2733 88.2729C78.8451 88.693 85.4637 90.7756 85.1472 92.0226C84.8308 93.2691 78.2749 93.0385 76.6121 92.9775C73.882 92.8776 70.401 92.865 69.492 92.7298C68.5829 92.5951 66.8372 92.183 64.2571 91.4941C63.4976 91.292 62.8586 90.8874 62.4573 90.3544C62.056 89.8215 61.9192 89.1958 62.0718 88.592C62.2259 87.9881 62.6593 87.4468 63.2927 87.0674C63.9261 86.688 64.7171 86.4957 65.5207 86.5259C68.2374 86.6264 70.057 86.7445 70.9779 86.882Z" fill="#FFA370"/>
<path d="M70.4734 88.6456C69.686 88.5503 67.9374 88.483 65.3229 88.4567C64.7706 88.451 64.2975 88.7546 64.2116 89.1678C64.1258 89.5811 64.4519 89.9817 64.9804 90.1078C67.4888 90.7031 69.1808 91.0541 69.9547 91.1477C70.2906 91.1888 70.9026 91.1911 74.2895 91.1797L74.8246 91.1785C75.5762 91.1768 76.1949 91.1785 76.7614 91.1842C78.2854 91.1996 79.5579 91.1859 80.7886 91.1112C79.3855 90.6009 77.5943 90.0719 76.5546 89.8219C73.0782 89.1108 70.9735 88.7055 70.4734 88.6456ZM71.1735 85.2635C71.9079 85.3519 74.023 85.7589 77.7562 86.5225L77.8406 86.5408C79.1108 86.8421 81.217 87.4659 82.8642 88.0732C83.9986 88.4915 84.9375 88.9042 85.654 89.3242C86.9176 90.0616 87.6617 90.8583 87.4303 91.9815C87.1982 93.1007 86.1645 93.6909 84.7181 94.0562C83.9023 94.2616 82.903 94.3969 81.7208 94.4854C80.1206 94.6052 78.5876 94.6269 76.7024 94.6075C76.1635 94.6029 75.5665 94.6006 74.8365 94.6029C74.6716 94.6029 74.4992 94.6029 74.3096 94.6041C70.1376 94.6183 69.9786 94.6178 69.2539 94.5304C68.1978 94.4026 66.3648 94.0225 63.6526 93.3787C62.3701 93.075 61.2735 92.4281 60.5638 91.5566C59.8541 90.6851 59.5787 89.6472 59.7881 88.6331C59.9988 87.619 60.6802 86.6969 61.7075 86.0357C62.7348 85.3745 64.0393 85.0185 65.3819 85.0329C68.209 85.0614 70.1062 85.1345 71.1735 85.2635Z" fill="#754F50"/>
<path d="M47.6092 96.7152C49.6661 96.3339 51.0565 96.129 51.7812 96.1005C52.5052 96.0708 53.9158 96.1638 56.013 96.3784C57.2967 96.5097 58.3132 97.5484 58.4013 98.8172C58.4871 100.085 57.6176 101.199 56.3608 101.432C54.2934 101.815 52.9037 102.021 52.1895 102.05C51.4745 102.078 50.0639 101.985 47.957 101.77C46.6733 101.638 45.656 100.6 45.5694 99.3314C45.4828 98.0632 46.3508 96.948 47.6092 96.7152Z" fill="#FFA370"/>
<path d="M48.1071 98.4827C48.0011 98.5055 47.7563 98.8456 47.8145 99.353C47.8727 99.861 48.1906 100.163 48.2996 100.171C50.2789 100.32 51.5999 100.372 52.1284 100.337C52.6575 100.302 53.9464 100.076 55.8615 99.6658C55.966 99.643 56.2116 99.3022 56.1541 98.7948C56.0959 98.2875 55.778 97.9844 55.669 97.9764C53.7001 97.828 52.3799 97.7767 51.841 97.8126C51.3007 97.8491 50.0132 98.0752 48.1071 98.4827ZM46.9017 95.1838C49.0713 94.7204 50.5446 94.4618 51.4499 94.4013C52.3552 94.3408 53.8636 94.3996 56.1071 94.568C58.5752 94.7535 60.3836 96.4725 60.615 98.4964C60.8464 100.519 59.4567 102.452 57.0684 102.962C54.8876 103.429 53.4165 103.688 52.5194 103.747C51.6223 103.806 50.1155 103.748 47.8623 103.579C45.3941 103.392 43.5857 101.674 43.3544 99.6509C43.1222 97.6277 44.5127 95.6946 46.9017 95.1838Z" fill="#754F50"/>
<path d="M69.5808 98.5825C70.1279 98.8148 71.9363 99.752 75.0053 101.393C76.3308 102.164 78.4668 104.604 77.6622 105.715C76.8577 106.826 74.0328 106.162 72.4767 105.712C69.9212 104.97 66.6141 104.137 65.8044 103.794C64.9946 103.45 63.5011 102.646 61.3248 101.38C60.6843 101.008 60.2403 100.473 60.074 99.8709C59.9078 99.2692 60.0304 98.6419 60.4195 98.1037C60.8103 97.566 61.4412 97.1539 62.1969 96.943C62.9525 96.732 63.7822 96.7362 64.5341 96.9548C67.0776 97.6928 68.7599 98.2349 69.5808 98.5831V98.5825Z" fill="#FFA370"/>
<path d="M68.4949 100.08C67.7978 99.7856 66.185 99.2646 63.7407 98.5563C63.4921 98.4833 63.2174 98.4813 62.9671 98.5507C62.7167 98.6201 62.5075 98.7562 62.3779 98.9341C62.2496 99.1124 62.2096 99.32 62.2651 99.5191C62.3206 99.7181 62.4679 99.8952 62.6802 100.018C64.7714 101.234 66.2036 102.006 66.8895 102.296C67.1858 102.422 67.7598 102.585 70.9481 103.46L71.4527 103.598C72.1587 103.793 72.7401 103.957 73.27 104.11C74.0626 104.341 74.7881 104.504 75.3792 104.575C75.3129 104.462 75.2415 104.351 75.165 104.242C74.7366 103.639 74.094 103.025 73.6782 102.773C70.7324 101.198 68.9382 100.268 68.4949 100.08ZM70.6668 97.0855C71.3161 97.3606 73.1215 98.296 76.2882 99.9905L76.3606 100.03C78.8131 101.457 81.0357 104.592 79.6206 106.545C78.7086 107.804 77.048 108.163 75.109 108.002C74.0268 107.912 72.8998 107.665 71.6833 107.313C71.1787 107.167 70.619 107.01 69.9331 106.82L69.4368 106.684C65.5095 105.607 65.3603 105.564 64.7192 105.293C63.784 104.896 62.2316 104.06 59.9702 102.745C58.9013 102.124 58.1606 101.23 57.8838 100.225C57.6069 99.2208 57.8124 98.1737 58.4626 97.2756C59.1141 96.3779 60.1666 95.6898 61.4274 95.3371C62.6883 94.9844 64.073 94.9908 65.3282 95.3551C67.9702 96.1198 69.7211 96.6849 70.6668 97.0855Z" fill="#754F50"/>
<path d="M48.4302 104.033C50.1266 104.08 51.2559 104.159 51.8186 104.266C52.3798 104.373 53.4247 104.709 54.9517 105.276C55.8877 105.623 56.3138 106.699 55.9533 107.802C55.5943 108.906 54.5577 109.702 53.5195 109.674C51.8149 109.624 50.6849 109.548 50.1311 109.441C49.5758 109.336 48.5317 108.999 46.9965 108.429C46.0621 108.082 45.6352 107.007 45.9956 105.903C46.3554 104.8 47.392 104.003 48.4302 104.033V104.033Z" fill="#FFA370"/>
<path d="M48.1682 106.318C48.0876 106.564 48.0913 106.797 48.1533 106.953C49.4519 107.433 50.3348 107.716 50.6729 107.781C51.0117 107.845 51.9641 107.912 53.403 107.956C53.5568 107.839 53.7016 107.634 53.7829 107.388C53.8635 107.142 53.8598 106.91 53.7971 106.752C52.5044 106.274 51.6237 105.993 51.2774 105.927C50.9304 105.861 49.9788 105.794 48.5481 105.75C48.3936 105.867 48.248 106.071 48.1682 106.318ZM48.5137 102.321C50.3647 102.374 51.5984 102.46 52.3604 102.604C53.1217 102.749 54.2636 103.117 55.9294 103.735C57.9579 104.487 58.7177 106.404 58.1266 108.215C57.537 110.028 55.6891 111.447 53.4366 111.383C51.5782 111.33 50.3445 111.247 49.59 111.103C48.8347 110.958 47.6935 110.59 46.0195 109.969C43.9917 109.218 43.2326 107.301 43.823 105.489C44.4133 103.677 46.2613 102.257 48.5137 102.321Z" fill="#754F50"/>
<path d="M66.6007 109.242C67.0537 109.493 68.527 110.477 71.0205 112.192C72.0885 112.987 74.2231 114.972 73.3491 115.891C72.4744 116.812 69.4756 116.348 68.1575 115.818C65.9917 114.946 63.172 113.929 62.5003 113.556C61.8301 113.184 60.6173 112.345 58.8641 111.038C58.3479 110.654 58.0297 110.141 57.9678 109.592C57.9058 109.044 58.1043 108.496 58.5268 108.05C58.9508 107.605 59.5705 107.292 60.2723 107.167C60.9741 107.043 61.711 107.116 62.348 107.373C64.5027 108.24 65.9208 108.863 66.6007 109.242Z" fill="#FFA370"/>
<path d="M65.3528 110.612C64.8027 110.284 63.4765 109.654 61.4546 108.77C61.2971 108.7 61.1118 108.676 60.933 108.703C60.7542 108.729 60.5938 108.804 60.4814 108.913C60.2508 109.139 60.2724 109.461 60.5337 109.67C62.1532 110.963 63.2735 111.796 63.8153 112.119C64.0385 112.252 64.5355 112.467 67.1589 113.566L67.5799 113.743C68.1695 113.991 68.6546 114.198 69.0972 114.391C69.4599 114.55 70.0958 114.716 70.6988 114.798C70.3278 114.348 69.9012 113.926 69.4248 113.538C67.1171 111.836 65.6998 110.821 65.3528 110.612ZM68.109 107.915C68.6434 108.234 70.0682 109.255 72.5677 111.099L72.6311 111.147C73.3976 111.759 74.2193 112.578 74.7806 113.353C75.7829 114.736 76.0882 116.016 74.9358 117.143C73.2162 118.827 69.4181 118.475 66.8746 117.364C66.4566 117.182 65.9909 116.982 65.4192 116.742L65.0057 116.569C61.6957 115.179 61.5912 115.134 61.0576 114.816C60.2918 114.359 59.0664 113.448 57.2998 112.038C55.4996 110.6 55.3503 108.372 56.952 106.805C58.5536 105.237 61.4173 104.81 63.6765 105.797C65.8834 106.761 67.3351 107.452 68.1098 107.914L68.109 107.915Z" fill="#754F50"/>
<path d="M60.9762 58.1117C60.9762 58.3764 61.0437 58.6385 61.1747 58.8831C61.3058 59.1276 61.4978 59.3499 61.74 59.5371C61.9821 59.7242 62.2696 59.8727 62.586 59.974C62.9024 60.0753 63.2415 60.1275 63.5839 60.1275C63.9264 60.1275 64.2655 60.0753 64.5818 59.974C64.8982 59.8727 65.1857 59.7242 65.4278 59.5371C65.67 59.3499 65.8621 59.1276 65.9931 58.8831C66.1242 58.6385 66.1916 58.3764 66.1916 58.1117C66.1916 57.8469 66.1242 57.5848 65.9931 57.3402C65.8621 57.0957 65.67 56.8734 65.4278 56.6863C65.1857 56.4991 64.8982 56.3506 64.5818 56.2493C64.2655 56.148 63.9264 56.0958 63.5839 56.0958C63.2415 56.0958 62.9024 56.148 62.586 56.2493C62.2696 56.3506 61.9821 56.4991 61.74 56.6863C61.4978 56.8734 61.3058 57.0957 61.1747 57.3402C61.0437 57.5848 60.9762 57.8469 60.9762 58.1117Z" fill="#754F50"/>
</svg>
