<svg width="223" height="152" viewBox="0 0 223 152" fill="none" xmlns="http://www.w3.org/2000/svg">
<path d="M71.349 91.6035C52.2484 80.5878 38.3376 75.8133 29.615 77.28C16.5316 79.4804 -1.00636 106.736 2.66716 109.664C6.34067 112.592 15.9161 88.8827 29.6158 87.3965C38.7471 86.4055 51.877 91.2407 69.0001 101.902L71.349 91.6035Z" fill="#FF9676"/>
<path d="M68.899 92.3469L67.4397 98.7469C51.2975 89.0724 38.6693 84.6773 29.2998 85.6941C23.022 86.375 17.7274 90.4675 11.7506 97.7003C10.3826 99.3551 5.92884 105.158 5.06699 106.173C4.95243 106.309 4.84086 106.438 4.73304 106.56C4.93521 105.881 5.23023 105.098 5.61435 104.232C6.92023 101.29 9.13886 97.6298 11.8075 94.0521C17.9423 85.8271 25.0235 79.8128 30.0965 78.9599C37.8029 77.6634 50.8677 82.0694 68.899 92.3469ZM72.7006 90.2296C53.0998 78.9261 38.7157 73.9888 29.1328 75.6006C22.3878 76.7349 14.6469 83.3097 7.90637 92.3469C1.54922 100.869 -1.85623 108.542 1.04754 110.855C2.50766 112.019 4.40657 111.817 5.95055 110.809C6.83037 110.235 7.72517 109.354 8.83411 108.048C9.76559 106.951 14.2381 101.123 15.5477 99.5385C20.8401 93.1327 25.4278 89.5877 29.9303 89.0993C38.2567 88.196 50.9088 92.8547 67.5827 103.235L70.5553 105.086L73.7983 90.863L72.7006 90.2296Z" fill="#754F50"/>
<path d="M26.3518 75.1147C24.1684 75.5325 23.3874 77.0898 23.3844 78.9102C23.5873 80.6171 23.8157 81.8586 24.0673 82.6341C24.3631 83.546 24.9568 84.8362 25.8479 86.5047C27.2144 88.3188 28.6034 89.2032 30.7868 88.7853C32.9703 88.3675 33.7857 86.9724 33.7543 84.9898C33.6075 83.3838 33.4076 82.1899 33.1537 81.4069C32.8602 80.5019 32.2387 79.1647 31.29 77.3953C30.372 75.7027 28.5353 74.6962 26.3518 75.1147Z" fill="#FF9676"/>
<path d="M26.8977 76.7825C27.8149 76.6066 28.6506 77.0124 29.2129 78.0475C30.1234 79.7464 30.7127 81.0154 30.9748 81.8207C31.1889 82.4793 31.3724 83.5694 31.5102 85.058C31.5229 86.4232 31.1335 86.946 30.2432 87.1168C29.3829 87.2813 28.858 87.0331 27.8703 85.7435C27.0489 84.1988 26.5075 83.0157 26.2485 82.219C26.0343 81.5593 25.8239 80.4193 25.6322 78.8356C25.6502 77.5483 26.092 76.9373 26.8977 76.7825ZM25.8067 73.4467C22.6191 74.0571 21.1425 76.1646 21.1388 78.9078V78.9875L21.1478 79.0666C21.3612 80.8532 21.6023 82.168 21.8876 83.0484C22.2148 84.0566 22.84 85.4168 23.7693 87.1558L23.8269 87.2635L23.9033 87.3638C25.8299 89.9219 28.1227 91.0688 31.3334 90.4538C34.5659 89.8342 36.047 87.8029 36.0021 84.9697L35.9968 84.8711C35.8418 83.1745 35.6269 81.8929 35.3357 80.993C35.0099 79.9894 34.357 78.584 33.3664 76.7361C32.0081 74.2359 29.0856 72.8179 25.8067 73.4467Z" fill="#754F50"/>
<path d="M69.0225 90.0732C45.2382 88.1611 30.1009 89.5522 23.6119 94.2488C13.877 101.293 17.1829 131.57 22.3016 132.632C27.421 133.693 19.6756 109.594 30.4183 102.92C37.5804 98.4702 52.0866 97.4396 73.9375 99.8258L69.0225 90.0732Z" fill="#FF9676"/>
<path d="M67.4231 91.6763L70.4781 97.7375C50.133 95.8083 36.3502 97.0199 29.0032 101.585C24.0792 104.644 22.2941 110.24 22.0388 118.795C21.9804 120.753 22.0665 127.483 22.0118 128.694C22.0043 128.854 21.9953 129.009 21.9848 129.157C21.7003 128.495 21.427 127.706 21.1739 126.813C20.3128 123.776 19.7527 119.763 19.6329 115.646C19.3581 106.177 21.3806 98.2293 25.1552 95.4987C30.8893 91.349 45.051 89.9757 67.4231 91.6757V91.6763ZM69.2576 88.3622C44.8496 86.4008 29.1986 87.84 22.0695 92.9991C17.0504 96.6308 14.8392 105.318 15.1417 115.722C15.4263 125.533 17.6704 133.453 21.7153 134.292C23.7497 134.713 25.242 133.792 25.8875 132.319C26.2551 131.48 26.4304 130.372 26.5015 128.814C26.5614 127.507 26.4738 120.749 26.5307 118.874C26.7576 111.298 28.3038 106.449 31.8343 104.256C38.3637 100.198 52.3434 99.2043 73.6215 101.528L77.4126 101.942L70.6241 88.4728L69.2576 88.3622Z" fill="#754F50"/>
<path d="M19.3581 93.6795C17.7677 94.8986 18.1466 96.5413 19.3686 98.1027C20.6917 99.4851 21.722 100.46 22.4596 101.025C23.3267 101.69 24.7037 102.562 26.5906 103.641C28.983 104.658 30.7688 104.868 32.3585 103.649C33.9489 102.43 33.7093 100.912 32.3487 99.2255C31.1432 97.9066 30.1675 96.9615 29.4232 96.3912C28.5621 95.732 27.1305 94.8298 25.1267 93.6875C23.1994 92.5979 20.9485 92.4598 19.3581 93.6795Z" fill="#FF9676"/>
<path d="M20.9478 94.8942C21.6157 94.3818 22.6056 94.3995 23.7835 95.0661C25.7071 96.1632 27.0654 97.0178 27.8329 97.6053C28.4596 98.0862 29.3499 98.9482 30.4701 100.17C31.3993 101.335 31.4173 101.937 30.7696 102.434C30.1428 102.915 29.5251 102.909 27.8119 102.193C26.0687 101.192 24.8078 100.392 24.05 99.8108C23.4218 99.3294 22.4746 98.4364 21.2451 97.1536C20.3945 96.0417 20.3615 95.3441 20.9478 94.8942ZM17.4413 98.9866L17.4952 99.0548L17.5558 99.119C18.9411 100.567 20.0328 101.599 20.8692 102.24C21.8284 102.975 23.2803 103.895 25.2466 105.019L25.3679 105.087L25.5004 105.145C28.8729 106.578 31.6097 106.656 33.9481 104.864C36.3023 103.058 36.205 100.733 34.2596 98.3223L34.1885 98.2392C32.9141 96.8464 31.8688 95.8319 31.0129 95.1756C30.0575 94.4442 28.5524 93.4968 26.4603 92.3029C23.6157 90.6957 20.1571 90.6332 17.7692 92.4645C15.4465 94.2448 15.6 96.6326 17.4413 98.9866Z" fill="#754F50"/>
<path d="M83.6125 97.3462C59.7301 98.3057 45.0645 101.493 39.6142 106.909C31.4397 115.032 40.8923 144.54 46.1652 144.976C51.4389 145.411 38.8639 122.536 48.1098 114.658C54.2738 109.406 68.3905 106.65 90.4608 106.391L83.6125 97.3462Z" fill="#FF9676"/>
<path d="M82.3598 99.1218L86.6158 104.743C66.127 105.273 52.762 108.12 46.4378 113.51C42.2012 117.12 41.5812 122.86 43.0758 131.341C43.418 133.282 44.8788 139.919 45.0713 141.121C45.0967 141.281 45.1199 141.435 45.1402 141.581C44.7246 140.962 44.294 140.216 43.8597 139.363C42.3899 136.467 41.0159 132.571 40.0559 128.518C37.8493 119.198 38.2229 111.107 41.3925 107.958C46.2087 103.173 59.9166 100.12 82.3598 99.1218ZM83.4949 95.6289C58.9873 96.6148 43.8223 99.9105 37.8343 105.859C33.6202 110.046 33.2113 118.893 35.6366 129.131C37.9227 138.789 41.7572 146.341 45.9234 146.685C48.02 146.858 49.3049 145.769 49.6411 144.237C49.8335 143.364 49.7788 142.248 49.531 140.702C49.3236 139.403 47.856 132.738 47.5288 130.88C46.2034 123.369 46.7403 118.396 49.7796 115.807C55.3999 111.017 69.0038 108.361 90.4945 108.109L94.3245 108.064L84.8674 95.5745L83.4949 95.6289Z" fill="#754F50"/>
<path d="M35.2967 106.855C33.9751 108.249 34.6849 109.827 36.2102 111.223C37.7991 112.43 39.0159 113.269 39.8612 113.74C40.8534 114.292 42.3914 114.988 44.476 115.828C47.0465 116.546 48.8526 116.54 50.1742 115.145C51.4958 113.75 50.9492 112.281 49.2599 110.778C47.7998 109.62 46.6429 108.803 45.7916 108.329C44.8069 107.78 43.2075 107.061 40.9949 106.173C38.8691 105.327 36.6175 105.46 35.2967 106.855Z" fill="#FF9676"/>
<path d="M37.1155 107.865C37.6696 107.278 38.6513 107.178 39.9512 107.695C42.0747 108.547 43.5917 109.23 44.4693 109.718C45.1851 110.117 46.2424 110.863 47.5977 111.934C48.7531 112.974 48.8931 113.566 48.3547 114.135C47.8343 114.685 47.2241 114.753 45.3851 114.251C43.4585 113.471 42.0493 112.831 41.1829 112.349C40.4641 111.948 39.3462 111.178 37.8696 110.06C36.8033 109.065 36.6281 108.379 37.1155 107.865ZM34.4873 112.326L34.5547 112.387L34.6281 112.443C36.2919 113.707 37.5805 114.596 38.539 115.129C39.6359 115.74 41.2578 116.474 43.4293 117.35L43.564 117.404L43.7063 117.444C47.3304 118.455 50.05 118.205 51.9923 116.154C53.9481 114.089 53.3768 111.805 50.9627 109.655L50.8766 109.583C49.3326 108.359 48.0919 107.483 47.1133 106.937C46.0208 106.329 44.3398 105.573 42.0305 104.644C38.8931 103.398 35.463 103.75 33.4795 105.845C31.5491 107.882 32.1886 110.223 34.4873 112.326Z" fill="#754F50"/>
<path d="M40.9373 50.4675C43.2585 52.445 44.1084 53.7908 43.4862 54.5038C42.5554 55.5733 41.466 57.5668 36.8595 56.8051C36.4229 56.7329 34.5757 55.2782 31.317 52.441C20.8663 54.5846 10.0928 49.7476 7.25418 41.6378L4.33618 33.3034C2.57131 28.2623 6.45523 23.4064 12.0531 20.34C18.4926 16.8121 32.5982 16.8878 35.5154 19.4945C38.4828 22.1999 23.5499 26.176 24.429 28.6899C27.2579 30.0919 28.8071 31.1798 29.0781 31.9513C29.3904 32.8454 23.7191 35.6545 24.0965 36.7332C24.5173 37.9374 30.4012 38.3536 30.7082 39.2294C31.0145 40.1058 26.5128 42.4254 27.156 44.2618C27.5297 45.3273 33.1073 45.885 34.2807 46.8113C35.2106 47.5461 38.6753 46.4135 38.7292 45.3818C38.8744 42.6208 34.2934 43.7173 33.7887 42.2752C33.4098 41.1919 38.0912 39.6598 37.4562 37.8452C37.2511 37.2594 35.278 36.5928 31.5386 35.8471C31.3507 35.3118 36.0583 32.2745 35.9811 31.6538C35.7692 29.9354 30.6199 28.8613 31.6307 27.6806C32.7958 26.3193 35.0998 26.1427 37.302 25.6905C42.1032 24.7058 47.9938 29.6139 49.2975 33.34L50.1638 35.8144C52.2754 41.8459 48.2402 48.0144 41.0204 50.3357L40.9373 50.4675Z" fill="#FF9676"/>
<path d="M31.8381 42.6319C32.3511 43.9181 33.4345 44.3365 35.3559 44.646C35.4578 44.6627 35.8351 44.7211 35.9205 44.7355C36.2507 44.7888 36.4619 44.8191 36.5944 44.8444C36.4952 44.8907 36.3927 44.9328 36.2874 44.9705C36.1077 45.0335 35.9325 45.0817 35.7842 45.1103C35.0459 44.6862 34.1294 44.4626 31.7835 43.9628L31.478 43.8975C30.7022 43.7313 30.1826 43.6092 29.7917 43.498C29.9789 43.2171 30.2829 42.8761 30.7359 42.4319C30.6723 42.4938 31.3005 41.8954 31.7498 41.4529C31.6435 41.8146 31.6644 42.198 31.8374 42.6319H31.8381ZM35.6487 22.8684C37.5012 21.3409 38.086 19.6443 36.3271 18.1512C32.1848 14.7013 16.6626 15.4355 9.89289 19.4242C3.21601 23.3591 -0.16548 29.0432 1.99325 34.4516L5.28939 42.7036C8.71581 51.2839 20.1452 56.2946 31.2683 54.2822C34.8542 57.1733 36.1923 58.1052 37.3192 58.26C41.3843 58.8194 43.8628 57.8381 45.5566 55.7552C45.7063 55.5707 46.0957 55.056 46.1458 54.9941C47.2188 53.6637 46.6895 52.2463 44.9388 50.5176C51.5101 47.1697 54.6153 40.772 52.2035 34.7319L51.2248 32.2827C49.2316 27.291 41.8561 22.4655 36.0822 23.817C35.7565 23.8915 35.5236 23.942 35.0115 24.0503C34.3945 24.1798 33.8456 24.3031 33.3529 24.4286C34.3451 23.844 35.0287 23.3803 35.6487 22.8684ZM34.9396 38.3051C34.9491 38.3085 34.9589 38.3115 34.9688 38.3142C34.7966 38.4793 34.5585 38.6765 34.2372 38.9218C34.1099 39.0198 33.627 39.382 33.6509 39.3648C33.3941 39.558 33.2077 39.7042 33.0317 39.8515L32.9418 39.9271C33.0991 39.5334 33.1043 39.135 32.9156 38.6656C32.7367 38.2174 32.4589 37.8964 32.0665 37.643C33.3005 37.8746 34.2627 38.0976 34.9396 38.3051ZM29.2129 36.7093C29.0153 36.6678 28.8173 36.6272 28.6191 36.5873L28.0351 36.4686C27.6427 36.3884 27.3312 36.3225 27.0662 36.2611C27.1598 36.1843 27.2609 36.1029 27.3702 36.0181C27.5439 35.8817 27.7273 35.7401 27.9864 35.5424C29.1935 34.6196 29.4316 34.4327 29.8674 34.0395C30.8962 33.1098 31.3589 32.4444 30.9561 31.4345C30.521 30.3466 29.1882 29.328 26.8677 28.145C27.4054 27.7553 28.1212 27.3237 29.2526 26.6972C28.3354 27.8544 28.8348 28.9687 29.9894 29.8015C30.2889 30.017 30.6281 30.2153 31.0579 30.44C31.2114 30.5191 31.3724 30.6005 31.5776 30.7019L32.074 30.9473C32.5106 31.1639 32.8153 31.325 33.0474 31.466C32.7943 31.6952 32.4649 31.9795 31.9317 32.4318L31.9018 32.4564C31.004 33.217 30.67 33.5082 30.2942 33.8664C30.0171 34.1312 29.8015 34.3616 29.6322 34.5829C29.2204 35.1251 29.0242 35.5894 29.2953 36.268C29.3747 36.4652 29.4975 36.6474 29.6569 36.8068C29.5095 36.7729 29.3615 36.7404 29.2129 36.7093ZM30.3885 36.9856C31.0901 37.1753 31.645 37.3696 32.0673 37.6425C31.7183 37.5765 31.3462 37.5106 30.9531 37.443C30.4364 37.3545 29.9773 37.1289 29.6569 36.8062C29.9265 36.867 30.1646 36.9254 30.3878 36.9856H30.3885ZM34.1421 27.8751C34.6064 27.722 35.2601 27.565 36.2035 27.3661C36.5818 27.288 36.9587 27.206 37.3342 27.1202C40.2881 26.429 45.5723 29.8863 46.9298 33.2875L47.9085 35.7372C49.9451 40.8345 46.7928 46.2549 40.6386 48.4301C40.1348 48.6081 39.735 48.9225 39.5161 49.3128C39.4832 49.3724 39.4832 49.3724 39.4473 49.4332C39.2679 49.7454 39.214 50.0914 39.2922 50.4272C39.3705 50.763 39.5775 51.0734 39.8868 51.3189C40.9575 52.1695 41.6674 52.8619 42.0073 53.3554C42.0418 53.4052 42.0702 53.4499 42.0927 53.4872C41.9557 53.6666 41.8022 53.8666 41.7445 53.9377C41.0212 54.8261 40.3488 55.1316 38.5113 54.9253C38.2739 54.7763 37.9347 54.5424 37.5079 54.2283C36.5847 53.5497 35.2833 52.53 33.6135 51.175C33.3263 50.9417 32.9594 50.7745 32.5545 50.6925C32.1495 50.6104 31.7227 50.6167 31.3222 50.7108C22.1691 52.8527 12.4327 48.825 9.58663 41.6982L6.292 33.4469C4.74952 29.5883 7.30809 25.2889 12.6342 22.1502C15.1553 20.6646 19.6203 19.6569 24.3226 19.4346C28.1294 19.2546 31.4136 19.6581 32.6611 20.2565C32.5832 20.3344 32.4813 20.4261 32.3571 20.5287C31.6113 21.1443 30.533 21.7863 28.2747 23.0088L27.8449 23.2416L27.4136 23.4748C25.5506 24.4871 24.5061 25.1032 23.6263 25.7595C22.107 26.8944 21.3425 27.996 21.8651 29.3046C22.0269 29.7115 22.3818 30.0583 22.8588 30.2772C24.2051 30.8945 25.2302 31.4362 25.9213 31.8878C26.0096 31.9457 26.0905 32.0019 26.1654 32.0546C25.9228 32.2587 25.5851 32.5183 24.8131 33.1081C24.539 33.3179 24.3429 33.4692 24.1497 33.6205C23.469 34.1564 22.9838 34.5777 22.6102 34.9852C21.8973 35.7625 21.5499 36.4801 21.8988 37.3524C22.3309 38.4357 23.3956 38.9424 25.1328 39.3987C25.6248 39.5271 26.1332 39.6405 26.8775 39.7919L27.5888 39.9374L27.1935 40.3157C25.4488 42.0255 24.6895 43.2693 25.299 44.7945C25.654 45.6869 26.4896 46.1649 27.7401 46.5736C28.396 46.7886 29.0999 46.9594 30.265 47.2098L30.5794 47.2763C31.6996 47.5148 32.0867 47.6019 32.533 47.7211C32.7801 47.7882 32.9733 47.8483 33.1073 47.8988C35.5446 49.6693 41.2945 47.6237 41.3125 45.1103C41.3274 42.9208 39.8359 41.9321 37.2915 41.4478L37.4151 41.3532C39.3769 39.8503 40.244 38.7172 39.5978 37.1003C39.1567 35.998 37.8404 35.3366 35.2646 34.7365C36.0703 34.0538 36.4536 33.7197 36.8258 33.3609C37.7288 32.4931 38.0605 32.0632 37.9197 31.2344C37.7745 30.3747 37.1844 29.6828 36.2852 29.0604C35.8029 28.7257 35.2975 28.4482 34.5158 28.0608L34.1421 27.8751Z" fill="#754F50"/>
<path d="M62.2408 65.9891C59.051 62.0995 56.6728 59.3128 55.1079 57.6282C53.5429 55.9442 51.4823 53.953 48.9245 51.6541C44.3846 51.7326 40.2648 53.2171 36.5643 56.1076C32.8654 58.9964 31.1544 62.3339 31.4345 66.118C35.9181 67.7114 39.2697 68.84 41.4876 69.5037C43.7055 70.1675 47.9481 71.3121 54.2139 72.937L62.2408 65.9891Z" fill="#FF9676"/>
<path d="M53.9488 70.7951C48.4243 69.5192 44.6347 68.6038 42.6018 68.0576C40.6235 67.5257 37.6943 66.6384 33.8261 65.3992C33.7961 62.5259 35.1642 59.9461 37.9848 57.584C40.8863 55.1532 44.0589 53.7897 47.567 53.4354C49.8418 55.3647 51.7017 57.0521 53.1424 58.4942C54.5958 59.9478 56.762 62.2915 59.6321 65.515L53.9488 70.7951ZM64.297 64.6501C60.908 60.823 58.3846 58.0787 56.7118 56.4045C55.0271 54.7193 52.8361 52.7465 50.1338 50.4836C49.9086 50.2952 49.6314 50.1476 49.3224 50.0514C49.0133 49.9553 48.6802 49.913 48.3472 49.9276C43.2008 50.1535 38.6145 51.959 34.6685 55.2639C30.6842 58.602 28.9081 62.4572 29.4188 66.7227C29.4558 67.0327 29.6022 67.3292 29.8422 67.5806C30.0822 67.832 30.4069 68.0287 30.7816 68.1499C35.3753 69.6344 38.8122 70.6844 41.1117 71.3029C43.4015 71.9185 47.7167 72.9548 54.0866 74.4186C54.5103 74.516 54.9621 74.5155 55.3853 74.4169C55.8086 74.3184 56.1843 74.1264 56.4655 73.865L64.1704 66.7078C64.479 66.4213 64.6582 66.0661 64.6812 65.6951C64.7041 65.3242 64.5696 64.9576 64.2977 64.6501H64.297Z" fill="#754F50"/>
<path d="M76.6661 75.6792C74.3075 72.102 72.3142 69.5881 70.6871 68.1391C69.0585 66.689 65.9533 64.6634 61.3708 62.0618C57.3648 63.5417 54.673 64.8703 53.2967 66.0499C51.9212 67.2289 50.1286 69.7434 47.9189 73.5928C52.0088 76.6822 55.0863 78.678 57.1529 79.5802C59.2203 80.4835 63.0398 81.5003 68.613 82.6329L76.6661 75.6797V75.6792Z" fill="#FF9676"/>
<path d="M67.4651 80.8055C62.8406 79.6964 59.6613 78.7283 58.0005 77.9431C56.3607 77.1676 53.8575 75.4612 50.5696 72.8544C52.5359 69.8264 54.1128 67.8421 55.2046 66.9697C56.2484 66.1346 58.3637 65.1287 61.5003 64.0121C65.2532 66.3421 67.802 68.155 69.1124 69.4068C70.3868 70.6254 71.9668 72.7312 73.8117 75.6945L67.4643 80.8055H67.4651ZM78.5381 75.3076C76.2737 71.5528 74.3202 68.8829 72.6197 67.2574C70.9275 65.6405 67.8163 63.4619 63.2337 60.6654C62.9134 60.4699 62.5293 60.3453 62.1231 60.3049C61.7169 60.2645 61.3039 60.3098 60.929 60.4361C56.6085 61.892 53.6419 63.247 51.9608 64.591C50.3188 65.9025 48.3233 68.4846 45.8411 72.4291C45.6436 72.743 45.5753 73.0953 45.6452 73.4396C45.7151 73.7838 45.92 74.1036 46.2327 74.3567C50.3038 77.6547 53.4037 79.811 55.6396 80.8685C57.874 81.9254 61.7901 83.0878 67.4823 84.4084C67.8807 84.5008 68.3048 84.5066 68.7073 84.4253C69.1097 84.3439 69.4748 84.1785 69.7616 83.9476L78.1262 77.2128C78.436 76.9632 78.6408 76.6483 78.7142 76.3086C78.7876 75.969 78.7263 75.6203 78.5381 75.3076Z" fill="#754F50"/>
<path d="M144.825 83.9477C163.957 73.0666 177.891 68.3511 186.628 69.8001C199.733 71.9736 217.299 98.8948 213.62 101.786C209.94 104.679 200.348 81.2601 186.628 79.7922C177.48 78.8132 164.33 83.5889 147.178 94.1192L144.825 83.9477Z" fill="#FF9676"/>
<path d="M147.28 84.6975L148.735 90.9915C164.909 81.4299 177.56 77.0858 186.938 78.0894C193.218 78.7612 198.524 82.8055 204.51 89.9489C205.88 91.5847 210.341 97.3159 211.204 98.3189C211.322 98.4565 211.438 98.5877 211.549 98.7127C211.308 97.9426 211.015 97.1823 210.673 96.4349C209.366 93.5312 207.145 89.9179 204.474 86.3861C198.329 78.2619 191.239 72.3239 186.152 71.4808C178.423 70.1986 165.339 74.5489 147.28 84.6975ZM143.485 82.567C163.114 71.4045 177.517 66.5297 187.103 68.1191C193.853 69.2385 201.609 75.7354 208.362 84.662C214.742 93.0956 218.157 100.685 215.229 102.986C213.772 104.131 211.888 103.934 210.345 102.942C209.463 102.374 208.565 101.502 207.455 100.21C206.521 99.1254 202.041 93.3696 200.731 91.8048C195.429 85.4782 190.836 81.9778 186.318 81.4946C177.966 80.601 165.29 85.2048 148.584 95.4599L145.627 97.2746L142.371 83.201L143.485 82.567Z" fill="#754F50"/>
<path d="M189.895 67.6611C192.082 68.0744 192.865 69.6122 192.868 71.4102C192.664 73.0959 192.437 74.3225 192.183 75.0883C191.888 75.9887 191.293 77.2634 190.4 78.9113C189.03 80.7036 187.639 81.5771 185.453 81.1639C183.267 80.7506 182.449 79.3733 182.481 77.4147C182.627 75.8288 182.828 74.6492 183.083 73.876C183.377 72.9824 183.999 71.6613 184.949 69.9137C185.868 68.2417 187.709 67.2478 189.895 67.6611Z" fill="#FF9676"/>
<path d="M189.358 69.3306C188.425 69.1541 187.583 69.557 187.023 70.5738C186.112 72.2498 185.522 73.5022 185.26 74.2954C185.048 74.9431 184.864 76.0172 184.726 77.4845C184.713 78.8195 185.096 79.325 185.992 79.4941C186.868 79.6597 187.397 79.4127 188.383 78.142C189.206 76.6191 189.746 75.4521 190.005 74.668C190.219 74.0186 190.429 72.8957 190.62 71.335C190.603 70.0763 190.167 69.4831 189.358 69.3306ZM190.434 65.9913C193.624 66.5937 195.11 68.6864 195.114 71.4072V71.4875L195.104 71.5677C194.89 73.3348 194.649 74.6353 194.363 75.5077C194.034 76.5056 193.406 77.8502 192.475 79.5697L192.416 79.6775L192.339 79.7784C190.408 82.3066 188.116 83.4369 184.915 82.8322C181.68 82.2212 180.189 80.2042 180.235 77.3928L180.24 77.2925C180.395 75.6143 180.611 74.3464 180.904 73.4546C181.232 72.4613 181.886 71.0713 182.879 69.2446C184.242 66.7714 187.164 65.3734 190.434 65.9913Z" fill="#754F50"/>
<path d="M147.908 85.5772C171.627 83.7935 186.745 85.2448 193.259 89.931C203.03 96.9604 199.973 126.962 194.873 127.991C189.774 129.019 197.309 105.164 186.536 98.4965C179.353 94.051 164.868 92.9597 143.081 95.2237L147.908 85.5772Z" fill="#FF9676"/>
<path d="M149.508 87.1879L146.521 93.1564C166.818 91.3371 180.586 92.6015 187.948 97.1588C192.878 100.21 194.705 105.769 195.03 114.252C195.104 116.194 195.072 122.866 195.136 124.065C195.145 124.231 195.155 124.388 195.166 124.539C195.441 123.89 195.705 123.117 195.948 122.241C196.782 119.237 197.309 115.264 197.395 111.183C197.596 101.797 195.513 93.9135 191.721 91.1835C185.958 87.0383 171.815 85.6088 149.508 87.1879ZM147.689 83.8664C172.024 82.0357 187.65 83.5363 194.797 88.6782C199.829 92.2989 202.106 100.925 201.888 111.239C201.682 120.983 199.503 128.835 195.445 129.653C193.425 130.061 191.944 129.149 191.289 127.689C190.914 126.855 190.732 125.754 190.648 124.208C190.578 122.91 190.611 116.21 190.539 114.352C190.252 106.839 188.671 102.028 185.122 99.8327C178.565 95.7746 164.602 94.7234 143.383 96.9272L139.627 97.317L146.306 83.9701L147.688 83.8664H147.689Z" fill="#754F50"/>
<path d="M197.498 89.3854C199.096 90.6022 198.732 92.2289 197.525 93.7713C196.216 95.136 195.195 96.0972 194.463 96.6543C193.603 97.3095 192.237 98.1675 190.362 99.2279C187.983 100.224 186.202 100.424 184.606 99.2084C183.01 97.9921 183.237 96.4893 184.581 94.8236C185.774 93.5214 186.74 92.5894 187.479 92.0266C188.331 91.3771 189.753 90.4899 191.744 89.367C193.656 88.2964 195.903 88.1703 197.498 89.3854Z" fill="#FF9676"/>
<path d="M195.649 92.8215C196.48 91.7354 196.505 91.055 195.915 90.6051C195.233 90.0858 194.24 90.0995 193.077 90.7507C191.167 91.8282 189.82 92.6685 189.061 93.2457C188.444 93.7174 187.563 94.5645 186.458 95.7676C185.548 96.9082 185.537 97.4929 186.191 97.9898C186.83 98.477 187.451 98.4741 189.152 97.7743C190.881 96.7924 192.13 96.006 192.879 95.4346C193.499 94.9635 194.434 94.0836 195.649 92.8215ZM199.083 88.1674C201.412 89.9419 201.278 92.3217 199.45 94.6557L199.396 94.7244L199.334 94.7892C197.963 96.2193 196.88 97.2389 196.047 97.8729C195.094 98.5985 193.651 99.5047 191.696 100.61L191.573 100.68L191.438 100.736C188.082 102.142 185.357 102.207 183.02 100.426C180.658 98.6277 180.736 96.311 182.668 93.9191L182.74 93.8349C184.002 92.4581 185.04 91.4562 185.891 90.808C186.841 90.0852 188.337 89.1515 190.417 87.9771C193.25 86.3951 196.696 86.3493 199.083 88.1674Z" fill="#754F50"/>
<path d="M144.436 88.321C165.599 96.7134 177.244 104.233 179.373 110.879C182.565 120.847 158.657 144.735 153.647 143.472C148.639 142.208 171.931 125.343 167.641 115.259C164.779 108.537 153.406 101.584 133.524 94.3989L144.436 88.321Z" fill="#FF9676"/>
<path d="M144.631 90.3386L137.88 94.0986C156.197 101.035 166.844 107.835 169.776 114.727C171.74 119.342 169.319 124.765 163.554 132.016C162.235 133.675 157.461 139.257 156.661 140.29C156.552 140.432 156.448 140.568 156.351 140.7C157.149 140.196 157.914 139.662 158.641 139.099C161.478 136.927 164.747 133.815 167.722 130.428C174.566 122.64 178.43 115.159 177.191 111.289C175.308 105.41 164.464 98.3137 144.631 90.3386ZM145.469 86.7941C167.18 95.4054 179.219 103.178 181.554 110.469C183.198 115.603 178.971 123.789 171.449 132.347C164.342 140.434 156.929 146.111 152.944 145.104C150.959 144.604 150.366 143.222 150.855 141.725C151.135 140.869 151.765 139.87 152.795 138.538C153.659 137.421 158.453 131.815 159.715 130.227C164.822 123.805 166.917 119.112 165.504 115.791C162.892 109.654 151.928 102.951 132.565 95.9534L129.138 94.7147L144.237 86.3052L145.469 86.7941Z" fill="#754F50"/>
<path d="M183.316 112.19C183.79 113.875 182.328 115.088 180.217 115.878C178.148 116.477 176.61 116.857 175.599 117.02C174.411 117.212 172.655 117.36 170.327 117.469C167.623 117.313 165.988 116.738 165.514 115.053C165.041 113.367 166.3 112.201 168.613 111.365C170.54 110.77 172.013 110.391 173.033 110.227C174.211 110.038 176.035 109.887 178.504 109.774C180.87 109.674 182.842 110.504 183.316 112.189V112.19Z" fill="#FF9676"/>
<path d="M181.12 112.551C180.918 111.832 180.076 111.43 178.637 111.491C176.27 111.597 174.541 111.741 173.495 111.909C172.641 112.047 171.299 112.391 169.516 112.939C167.943 113.516 167.517 114.001 167.711 114.691C167.901 115.366 168.423 115.622 170.347 115.745C172.496 115.642 174.103 115.504 175.137 115.337C175.993 115.2 177.404 114.852 179.322 114.299C180.79 113.735 181.295 113.176 181.12 112.551ZM185.513 111.829C186.203 114.287 184.398 116.227 181.205 117.423L181.111 117.459L181.012 117.487C178.843 118.115 177.21 118.518 176.061 118.703C174.744 118.915 172.89 119.073 170.464 119.185L170.31 119.192L170.158 119.183C166.344 118.963 164.011 117.882 163.319 115.415C162.617 112.921 164.332 111.011 167.653 109.809L167.772 109.77C169.811 109.141 171.394 108.733 172.57 108.544C173.88 108.333 175.799 108.175 178.379 108.057C181.882 107.91 184.804 109.308 185.513 111.828V111.829Z" fill="#754F50"/>
<path d="M103.055 64.0151C105.396 64.0151 112.539 64.3871 124.486 65.1311C143.71 66.3285 163.359 77.9443 163.141 93.4217C162.923 108.899 145.235 119.099 129.242 121.726C113.249 124.352 104.618 123.367 89.3332 121.726C74.0484 120.084 60.0163 108.262 60.0163 94.6477C56.3959 93.9083 47.8261 91.1066 48.2671 89.343C51.2181 77.5282 63.6231 68.1116 79.6568 66.2734C92.7889 64.7677 100.588 64.0151 103.055 64.0151Z" fill="#FF9676"/>
<path d="M50.8676 89.5058C51.4733 89.9018 52.4408 90.3701 53.6568 90.855C55.8747 91.7406 58.7702 92.6141 60.5957 92.9872L62.2633 93.3277V94.6488C62.2633 107.028 74.9925 118.45 89.6462 120.024C100.08 121.144 103.461 121.449 108.188 121.586C114.719 121.776 120.93 121.333 128.771 120.045C146.402 117.15 160.712 106.469 160.896 93.4045C161.087 79.8226 143.912 68.0675 124.304 66.8461C112.44 66.1061 105.306 65.7347 103.055 65.7347C100.754 65.7347 92.9663 66.4867 79.9892 67.9741C65.2389 69.6649 53.5407 78.2401 50.5696 89.2926C50.6459 89.3539 50.7455 89.4255 50.8676 89.5058ZM51.5804 93.9043C47.6621 92.3407 45.573 90.9742 46.0604 89.0203C49.2225 76.359 62.5134 66.5004 79.3242 64.5734C92.6114 63.0494 100.423 62.2957 103.055 62.2957C105.486 62.2957 112.639 62.6682 124.668 63.4179C146.454 64.7752 165.607 77.8842 165.388 93.4406C165.179 108.297 149.226 120.203 129.712 123.407C121.514 124.753 114.931 125.223 108.016 125.022C103.079 124.878 99.6154 124.566 89.0202 123.429C72.6444 121.67 58.6459 109.501 57.8095 95.9293C55.8515 95.4243 53.5085 94.6741 51.5804 93.9043Z" fill="#754F50"/>
<path d="M47.5588 91.3501C49.9504 95.0321 64.4887 98.3382 82.5658 99.7986C97.03 100.967 110.603 100.003 122.251 95.3141C122.512 95.209 122.744 95.0656 122.932 94.892C123.121 94.7184 123.263 94.518 123.351 94.3024C123.438 94.0867 123.47 93.8599 123.443 93.6351C123.416 93.4102 123.331 93.1915 123.194 92.9917C123.057 92.7918 122.869 92.6146 122.642 92.4701C122.416 92.3257 122.154 92.2169 121.872 92.1498C121.59 92.0828 121.294 92.059 121 92.0796C120.707 92.1002 120.421 92.1649 120.16 92.27C109.466 96.5757 96.6983 97.4825 83.0375 96.3785C66.7373 95.062 52.95 91.9261 51.5812 89.8186C51.4512 89.6147 51.2698 89.4325 51.0474 89.2825C50.8249 89.1325 50.5659 89.0177 50.2853 88.9447C50.0046 88.8717 49.7079 88.8419 49.4122 88.8571C49.1164 88.8723 48.8275 88.9321 48.5621 89.0332C48.2967 89.1342 48.0601 89.2745 47.8658 89.4459C47.6715 89.6173 47.5235 89.8164 47.4303 90.0317C47.337 90.2471 47.3003 90.4745 47.3224 90.7008C47.3445 90.927 47.4248 91.1477 47.5588 91.3501Z" fill="#754F50"/>
<path d="M124.343 92.6021C124.53 92.7857 124.763 92.9393 125.027 93.0543C125.292 93.1692 125.583 93.2432 125.884 93.272C126.186 93.3008 126.491 93.2838 126.784 93.2221C127.076 93.1604 127.35 93.0551 127.588 92.9122C127.827 92.7694 128.027 92.5918 128.176 92.3896C128.325 92.1874 128.42 91.9645 128.457 91.7337C128.493 91.5029 128.47 91.2687 128.388 91.0445C128.306 90.8203 128.168 90.6104 127.98 90.4269C127.793 90.2433 127.56 90.0897 127.296 89.9748C127.031 89.8598 126.74 89.7858 126.439 89.757C126.138 89.7282 125.832 89.7452 125.54 89.8069C125.247 89.8686 124.974 89.9739 124.735 90.1168C124.496 90.2596 124.297 90.4372 124.148 90.6394C123.999 90.8416 123.903 91.0645 123.867 91.2953C123.83 91.5261 123.854 91.7603 123.936 91.9845C124.017 92.2087 124.156 92.4186 124.343 92.6021Z" fill="#754F50"/>
<path d="M71.2554 82.0912C71.5505 82.1021 71.8133 82.1325 72.0214 82.1674C71.978 82.2008 71.9338 82.2337 71.8889 82.266C71.5267 82.5259 71.3142 82.8853 71.2981 83.2651C71.282 83.6449 71.4637 84.014 71.8032 84.2913C72.1427 84.5686 72.6121 84.7313 73.1083 84.7436C73.6045 84.7559 74.0868 84.6168 74.449 84.3569C76.1689 83.1229 76.6721 81.6625 75.4089 80.4789C74.5523 79.677 73.0817 79.2867 71.4299 79.2276C69.9009 79.1732 68.3734 79.4179 67.3071 79.9739C65.6665 80.8291 65.3011 82.3101 66.4917 83.6966C66.7543 84.0079 67.1642 84.2292 67.6354 84.314C68.1066 84.3988 68.6024 84.3405 69.0187 84.1514C69.4349 83.9623 69.7393 83.6571 69.8677 83.2999C69.9962 82.9426 69.9389 82.5612 69.7077 82.2356C70.0851 82.1336 70.6594 82.07 71.2554 82.0912ZM86.699 83.4605C87.5819 83.4892 88.3134 83.668 88.5942 83.8428C88.5298 83.9781 88.3486 84.1942 88.0079 84.4756C87.6803 84.7555 87.5094 85.1227 87.5321 85.4981C87.5548 85.8735 87.7693 86.2271 88.1293 86.4826C88.4894 86.7381 88.9661 86.8751 89.4569 86.8641C89.9476 86.8531 90.4131 86.695 90.7529 86.4238C92.5612 84.9313 92.9169 83.2817 91.4942 82.019C90.4841 81.1231 88.7552 80.6588 86.8578 80.5975C85.021 80.5379 83.2389 80.8658 82.0828 81.6023C80.3883 82.6816 80.3449 84.3483 81.8964 85.8867C82.0459 86.0372 82.2328 86.1635 82.4463 86.2584C82.6599 86.3532 82.8958 86.4149 83.1406 86.4396C83.3854 86.4644 83.6342 86.4519 83.8726 86.4028C84.1111 86.3537 84.3345 86.2689 84.5299 86.1534C84.7254 86.0379 84.8891 85.894 85.0116 85.7299C85.134 85.5657 85.2129 85.3847 85.2436 85.1972C85.2743 85.0096 85.2562 84.8193 85.1903 84.6371C85.1245 84.4549 85.0123 84.2845 84.86 84.1357C84.7392 84.021 84.6369 83.8955 84.5553 83.762C84.9349 83.5711 85.7773 83.4301 86.699 83.4605Z" fill="#754F50"/>
<path d="M148.616 43.1701C148.186 46.1048 148.56 47.7343 149.739 48.0576C151.508 48.543 154.213 49.7748 157.778 46.7737C158.115 46.4894 158.561 44.2597 159.115 40.0847C170.519 36.734 176.24 26.9884 171.892 18.318L167.423 9.4075C164.72 4.01741 157.005 1.63932 149.254 1.72128C140.336 1.81528 127.485 8.99024 127.048 12.7869C126.647 16.6959 143.727 12.7233 145.075 15.4109C143.686 18.0882 143.199 19.8398 143.613 20.6646C144.092 21.6206 151.692 21.2716 152.269 22.4242C152.916 23.7121 147.886 27.0463 148.356 27.9834C148.825 28.9205 154.934 28.7239 155.917 30.6865C156.49 31.8271 151.859 35.1348 151.58 36.5517C151.358 37.6769 147.215 38.4117 146.282 37.5169C143.784 35.1257 148.917 33.7959 148.144 32.2552C147.563 31.0957 141.963 32.0867 140.991 30.1465C140.676 29.5206 141.912 27.9318 144.697 25.3812C144.41 24.8092 137.5 24.4687 137.037 23.8761C135.76 22.2356 139.555 18.682 137.618 18.1363C135.385 17.5081 133.124 18.5112 130.721 19.2179C125.481 20.7574 124.292 28.1061 126.29 32.0902L127.617 34.7348C130.85 41.1829 139.828 44.6581 148.428 43.0939L148.616 43.1701Z" fill="#FF9676"/>
<path d="M138.39 16.5234C140.101 17.006 140.625 18.1661 140.357 19.4305C140.285 19.7652 140.165 20.108 139.986 20.5213C139.922 20.6703 139.852 20.8227 139.761 21.0188C139.73 21.083 139.579 21.4051 139.537 21.4945C139.296 22.0126 139.156 22.3543 139.078 22.6374C139.551 22.7148 140.134 22.7933 141.18 22.9257L141.229 22.9314C142.706 23.1189 143.263 23.1951 143.912 23.3074C144.385 23.3888 144.773 23.4731 145.107 23.5722C145.905 23.8095 146.452 24.087 146.792 24.7662C146.935 25.0522 146.976 25.3623 146.91 25.6645C146.845 25.9668 146.675 26.25 146.418 26.4851C145.096 27.6968 144.157 28.6643 143.609 29.3664C143.549 29.4432 143.496 29.5154 143.448 29.5819C143.8 29.6622 144.28 29.7258 144.968 29.786C145.171 29.8038 145.928 29.8651 145.891 29.8616C146.288 29.8949 146.581 29.9224 146.864 29.9562C148.583 30.1614 149.683 30.53 150.238 31.6396C150.897 32.9533 150.34 33.8349 148.961 35.0672C148.886 35.1342 148.601 35.3841 148.537 35.442C148.027 35.8977 147.841 36.0639 147.85 36.198C148.085 36.1998 148.379 36.1734 148.682 36.1195C148.984 36.0645 149.26 35.9877 149.457 35.9092C149.711 35.14 150.303 34.4831 151.982 32.7768L152.196 32.5584C152.849 31.893 153.231 31.4751 153.491 31.1352C153.122 30.9994 152.437 30.8102 151.417 30.6228C151.564 30.6498 149.49 30.2921 148.973 30.1786C147.56 29.8668 146.717 29.52 146.256 28.6001C145.782 27.6578 146.137 26.9459 146.974 25.9624C147.189 25.7102 147.44 25.4431 147.762 25.1164C147.884 24.9937 148.011 24.867 148.181 24.6991L148.595 24.287C148.989 23.8961 149.264 23.6135 149.489 23.3636C149.237 23.3321 148.952 23.3006 148.631 23.269C148.351 23.2421 148.061 23.2157 147.648 23.1802C145.755 23.0157 145.376 22.9796 144.646 22.8684C142.977 22.6151 142.023 22.2998 141.513 21.2819C140.929 20.1172 141.233 18.5014 142.295 16.1818L142.164 16.1703C141.117 16.0895 139.796 16.1033 137.471 16.1955L136.885 16.219C136.873 16.219 136.861 16.2202 136.849 16.2208C137.376 16.2779 137.892 16.3794 138.39 16.5234ZM129.445 16.2047C126.534 15.8665 124.59 14.7569 124.806 12.6356C125.39 7.57047 139.744 0.102624 149.218 0.0023196C158.602 -0.0974122 166.623 3.02178 169.517 8.79132L173.986 17.7018C178.612 26.9282 172.903 37.2521 161.209 41.2792C160.61 45.6645 160.246 47.2494 159.436 47.9314C156.406 50.482 153.457 50.9148 150.186 50.0275C149.892 49.9478 149.084 49.7065 148.977 49.6779C146.897 49.1064 146.139 47.5801 146.187 45.1183C137.343 45.766 128.786 41.8759 125.517 35.3526L124.19 32.7074C121.527 27.3976 123.742 19.4271 129.913 17.6136C130.306 17.4961 130.698 17.3746 131.087 17.249C132.552 16.7825 133.684 16.4644 134.677 16.3044C132.25 16.3841 130.829 16.3652 129.445 16.2047ZM136.291 16.2437L136.849 16.2208C136.147 16.1503 135.455 16.1795 134.678 16.3044C135.172 16.2884 135.706 16.2678 136.291 16.2437ZM132.814 20.4238C132.223 20.6118 131.944 20.6989 131.591 20.8033C128.143 21.8172 126.502 27.7214 128.384 31.4745L129.71 34.1192C132.509 39.7018 140.315 42.8027 147.904 41.4214C148.438 41.3242 149 41.3801 149.484 41.5784L149.656 41.6478C150.057 41.8087 150.385 42.0586 150.597 42.3646C150.809 42.6706 150.895 43.0185 150.845 43.3627C150.652 44.681 150.64 45.6708 150.783 46.2956C150.805 46.3988 150.831 46.4807 150.856 46.5438C151.161 46.6332 151.55 46.7484 151.686 46.7851C153.252 47.2104 154.266 47.0946 155.852 45.8302C155.943 45.5361 156.038 45.1435 156.141 44.6282C156.358 43.5478 156.603 41.9727 156.876 39.911C156.918 39.5945 157.074 39.2931 157.326 39.0403C157.579 38.7876 157.918 38.5933 158.306 38.4793C168.556 35.4678 173.693 26.7155 169.791 18.9336L165.322 10.0225C163.197 5.78447 156.956 3.35766 149.281 3.43963C145.623 3.47803 140.674 4.974 136.229 7.28617C132.473 9.24068 129.796 11.456 129.345 12.6717C129.598 12.7306 129.857 12.7742 130.119 12.8024C131.365 12.9474 132.916 12.9359 136.05 12.8081L136.643 12.7835L137.238 12.7594C139.793 12.6574 141.266 12.6425 142.619 12.7479C144.906 12.9256 146.497 13.4535 147.168 14.7936C147.37 15.1965 147.367 15.643 147.159 16.0437C146.508 17.3 146.076 18.3209 145.862 19.0895C145.817 19.2557 145.782 19.4019 145.758 19.5274C146.208 19.5893 146.686 19.6334 148.154 19.7612C148.585 19.7985 148.895 19.8266 149.2 19.857C150.273 19.9618 151.071 20.0702 151.754 20.2238C153.022 20.5092 153.921 20.9231 154.363 21.8075C154.917 22.9125 154.446 23.8692 153.346 25.1341C153.028 25.501 152.678 25.8644 152.154 26.3842L151.437 27.099C151.975 27.1935 152.474 27.2795 152.463 27.2778C155.481 27.8309 157.219 28.49 158.013 30.0703C158.467 30.9776 158.168 31.7898 157.451 32.7613C157.066 33.2835 156.598 33.797 155.79 34.6207L155.57 34.8442C154.78 35.6467 154.511 35.9281 154.217 36.2737C154.049 36.4686 153.926 36.6302 153.847 36.754C153.278 39.4445 146.66 40.6361 144.524 38.5905C142.527 36.6778 143.079 35.05 145.07 33.2531L144.456 33.2027C141.444 32.939 139.728 32.4323 138.891 30.7638C138.306 29.5963 138.943 28.3124 140.81 26.3642C140.705 26.3513 140.6 26.3381 140.496 26.3246C139.124 26.1504 138.484 26.0627 137.838 25.9492C136.33 25.6844 135.681 25.4941 135.106 24.7576C134.492 23.97 134.402 23.0919 134.635 22.1118C134.763 21.5788 134.962 21.0784 135.306 20.3384L135.607 19.6907C134.974 19.7738 134.126 20.006 132.814 20.4232V20.4238Z" fill="#754F50"/>
<path d="M135.863 67.3039C136.355 62.1774 136.798 58.4667 137.191 56.1729C137.585 53.8796 138.259 51.082 139.214 47.7817C144.721 45.7297 149.809 45.5348 154.477 47.1947C159.146 48.8546 163.12 51.4603 166.4 55.0111C163.057 58.3916 160.517 60.8574 158.78 62.4061C157.042 63.956 153.632 66.7966 148.55 70.9269L135.863 67.3044V67.3039Z" fill="#FF9676"/>
<path d="M148.199 68.8928C152.609 65.1701 155.603 62.5817 157.162 61.1424C158.652 59.7645 160.779 57.6375 163.532 54.7688C160.615 52.009 157.218 49.9794 153.332 48.6588C149.546 47.3737 145.476 47.4866 140.978 49.0543C140.227 51.9597 139.7 54.4392 139.396 56.4889C139.09 58.5523 138.766 61.8107 138.429 66.2505L148.198 68.8928H148.199ZM133.847 67.3464C134.223 62.1839 134.584 58.4405 134.932 56.1008C135.281 53.7474 135.901 50.8941 136.794 47.5359C136.861 47.282 137.002 47.043 137.207 46.8368C137.412 46.6307 137.675 46.4627 137.977 46.3455C144.011 43.9972 149.797 43.6974 155.154 45.5166C160.226 47.2396 164.566 49.9851 168.152 53.7273C168.434 54.0216 168.587 54.3769 168.587 54.7419C168.588 55.1069 168.437 55.4626 168.156 55.7575C164.866 59.2086 162.36 61.7317 160.621 63.3371C158.891 64.9362 155.53 67.8359 150.52 72.0522C150.222 72.3027 149.835 72.4804 149.406 72.5631C148.977 72.6458 148.526 72.6298 148.109 72.517L135.342 69.0637C134.884 68.9398 134.49 68.7055 134.22 68.3958C133.951 68.0862 133.82 67.718 133.847 67.3464Z" fill="#754F50"/>
<path d="M127.967 72.1307C128.174 70.1693 129.134 68.3552 130.375 66.4391C131.616 64.5224 132.707 63.7383 134.231 62.2744C139.091 62.9261 142.476 63.7205 144.387 64.6588C146.294 65.5965 149.134 67.8582 152.899 71.4451C152.899 74.3259 150.783 76.3595 148.872 77.7953C146.962 79.2311 144.335 80.8526 140.604 81.8425" fill="#FF9676"/>
<path d="M143.057 66.0619C144.637 66.8082 147.209 68.765 150.636 71.8756C150.465 73.528 149.378 74.9449 147.421 76.4678C145.217 78.1833 142.939 79.4134 140.074 80.2164C139.515 80.3733 139.06 80.694 138.809 81.1077C138.559 81.5215 138.533 81.9946 138.738 82.4228C138.943 82.851 139.362 83.1994 139.903 83.3912C140.443 83.583 141.061 83.6026 141.621 83.4456C145.18 82.4471 147.987 80.9305 150.625 78.8792C153.57 76.5876 155.22 74.2411 155.151 71.2405C155.142 70.8486 154.959 70.4708 154.631 70.1698C150.634 66.497 147.617 64.1745 145.418 63.1353C143.171 62.0744 139.525 61.2708 134.378 60.6518C133.98 60.6037 133.571 60.6388 133.196 60.7534C132.821 60.868 132.493 61.0578 132.247 61.3029C132.06 61.4903 131.87 61.6743 131.639 61.8955C131.541 61.9895 131.147 62.3644 131.049 62.4595C130.774 62.7232 130.563 62.9295 130.359 63.1387C129.529 63.9755 128.819 64.8774 128.238 65.8292C126.701 68.3133 125.915 70.1687 125.749 72.1811C125.728 72.4075 125.766 72.6349 125.86 72.8501C125.955 73.0653 126.104 73.2641 126.299 73.435C126.494 73.6059 126.732 73.7455 126.998 73.8458C127.264 73.946 127.553 74.005 127.849 74.0192C128.145 74.0335 128.442 74.0027 128.722 73.9287C129.003 73.8547 129.261 73.7389 129.483 73.588C129.704 73.4372 129.885 73.2542 130.014 73.0498C130.142 72.8453 130.217 72.6233 130.233 72.3966C130.356 70.9081 130.983 69.4264 132.298 67.3017C132.749 66.5588 133.303 65.8553 133.951 65.2033C134.125 65.0256 134.31 64.8439 134.56 64.6043C134.622 64.5447 134.817 64.3596 134.97 64.2123C138.879 64.7379 141.597 65.3724 143.057 66.0619Z" fill="#754F50"/>
<path d="M76.7042 69.1736C82.4938 69.1736 87.1872 65.4119 87.1872 60.771C87.1872 56.13 82.4931 51.9785 76.7042 51.9785C70.9154 51.9785 66.2213 56.1306 66.2213 60.771C66.2213 65.4113 70.9147 69.1736 76.7042 69.1736Z" fill="white"/>
<path d="M76.7042 70.8932C69.6507 70.8932 63.975 66.3439 63.975 60.771C63.975 55.1453 69.7039 50.259 76.7042 50.259C83.7046 50.259 89.4335 55.1453 89.4335 60.771C89.4335 66.3439 83.7578 70.8932 76.7042 70.8932ZM76.7042 67.4542C81.2291 67.4542 84.9408 64.4794 84.9408 60.771C84.9408 56.9669 81.1086 53.6981 76.7042 53.6981C72.2999 53.6981 68.4677 56.9668 68.4677 60.771C68.4677 64.4794 72.1786 67.4542 76.7042 67.4542Z" fill="#754F50"/>
<path d="M70.6923 63.1214C71.2419 63.6682 72.0536 64.015 72.9596 64.015C74.6137 64.015 75.9547 62.86 75.9547 61.4357C75.9547 60.0114 74.6137 58.8564 72.9596 58.8564C71.3258 58.8564 69.9967 59.9833 69.9645 61.3836L72.1854 61.6615L70.6923 63.1214Z" fill="#232323"/>
<path d="M104.409 70.3199C112.68 70.3199 119.385 65.2364 119.385 58.9654C119.385 52.6943 111.899 47.3931 103.627 47.3931C95.3572 47.3931 89.4336 52.6949 89.4336 58.9654C89.4336 65.2359 96.1382 70.3199 104.409 70.3199Z" fill="white"/>
<path d="M104.409 72.0394C94.9027 72.0394 87.1873 66.1897 87.1873 58.9654C87.1873 51.6116 94.267 45.6736 103.627 45.6736C113.205 45.6736 121.631 51.7905 121.631 58.9654C121.631 66.1897 113.916 72.0394 104.409 72.0394ZM104.409 68.6004C111.444 68.6004 117.138 64.2833 117.138 58.9654C117.138 53.7318 110.775 49.1126 103.627 49.1126C96.8443 49.1126 91.6799 53.4441 91.6799 58.9654C91.6799 64.2833 97.3744 68.6004 104.409 68.6004Z" fill="#754F50"/>
<path d="M96.4998 62.0526C97.2262 62.7432 98.2506 63.2129 99.3888 63.3772C100.527 63.5415 101.705 63.3897 102.71 62.949C103.715 62.5084 104.482 61.8078 104.872 60.9731C105.263 60.1385 105.252 59.2245 104.842 58.3954C104.431 57.5663 103.648 56.8765 102.632 56.45C101.617 56.0234 100.436 55.888 99.3019 56.0682C98.1677 56.2484 97.1547 56.7322 96.4448 57.4328C95.735 58.1335 95.3748 59.0049 95.4291 59.8906L98.669 60.2379L96.4998 62.0526Z" fill="#232323"/>
</svg>
