<svg width="176" height="151" viewBox="0 0 176 151" fill="none" xmlns="http://www.w3.org/2000/svg">
<path d="M102.138 110.592C123.404 109.694 139.118 108.959 149.28 108.388C164.522 107.532 168.647 112.409 168.853 116.423C169.059 120.438 157.929 126.403 155.629 127.1C153.331 127.796 146.827 126.035 151.059 123.299C155.291 120.563 165.85 114.042 151.059 114.042C141.197 114.042 124.891 117.532 102.138 124.512V110.592Z" fill="#F6BD4E"/>
<path d="M104.384 121.979C125.788 115.546 141.293 112.322 151.059 112.322C156.246 112.322 159.356 113.065 160.518 114.935C161.586 116.656 160.615 118.416 158.419 120.38C157.644 121.075 156.714 121.79 155.613 122.559C155.065 122.941 154.508 123.316 153.944 123.683C153.71 123.837 153.474 123.989 153.183 124.177L152.508 124.612C152.328 124.725 152.163 124.851 152.017 124.989C152.049 125.008 152.085 125.028 152.127 125.049C152.92 125.447 154.371 125.632 154.802 125.501C155.901 125.169 159.164 123.445 161.683 121.723C164.821 119.58 166.663 117.589 166.607 116.491C166.514 114.695 165.494 113.12 163.401 111.98C160.606 110.457 156.02 109.733 149.443 110.103C139.608 110.655 124.589 111.36 104.384 112.219V121.979ZM102.015 108.875C123.268 107.976 138.97 107.243 149.115 106.673C163.34 105.874 170.768 109.921 171.097 116.356C171.224 118.842 168.774 121.489 164.676 124.289C161.796 126.257 158.133 128.192 156.455 128.699C154.557 129.274 151.603 128.899 149.662 127.924C146.79 126.481 146.555 123.961 149.61 121.985L150.288 121.547C150.572 121.365 150.801 121.216 151.025 121.069C151.553 120.725 152.073 120.374 152.586 120.018C153.561 119.337 154.367 118.718 155.004 118.146C156.133 117.136 156.498 116.474 156.459 116.412C156.447 116.393 156.237 116.277 155.632 116.132C154.64 115.896 153.118 115.762 151.059 115.762C141.566 115.762 125.476 119.205 102.973 126.108L99.8917 127.052V108.964L102.015 108.875Z" fill="#754F50"/>
<path d="M154.427 124.944C155.383 125.814 155.885 126.923 155.838 128.059C155.791 129.195 155.198 130.278 154.172 131.099L145.412 138.118L145.946 131.91L135.766 135.094L141.74 129.086L135.772 126.93L146.009 123.455C147.434 122.972 149.025 122.856 150.543 123.124C152.061 123.393 153.424 124.031 154.427 124.944Z" fill="#B57D47"/>
<path d="M152.538 130.118C153.204 129.62 153.607 128.952 153.669 128.24C153.731 127.529 153.448 126.825 152.873 126.264C152.213 125.619 151.296 125.155 150.261 124.942C149.226 124.73 148.129 124.78 147.135 125.086L141.302 126.883L142.804 127.475C143.101 127.592 143.36 127.759 143.563 127.963C143.765 128.167 143.905 128.403 143.973 128.654C144.041 128.904 144.035 129.164 143.955 129.412C143.876 129.661 143.725 129.893 143.513 130.091L142.484 131.055L145.072 130.326C146.63 129.886 148.25 130.848 148.083 132.112L147.889 133.592L152.538 130.118ZM134.879 128.219C133.17 127.544 133.286 125.645 135.07 125.095L145.458 121.897C147.355 121.312 149.449 121.216 151.424 121.621C153.4 122.026 155.149 122.912 156.41 124.144C157.668 125.372 158.288 126.913 158.152 128.469C158.017 130.026 157.135 131.49 155.677 132.58L146.6 139.359C145.098 140.481 142.586 139.554 142.796 137.956L143.252 134.504L136.306 136.463C134.159 137.068 132.342 135.116 133.791 133.76L138.279 129.559L134.879 128.219Z" fill="#754F50"/>
<path d="M33.5446 99.6724L51.3768 104.083L56.3285 115.156C58.747 120.565 54.9807 126.449 47.9152 128.301C46.5055 128.671 45.0257 128.86 43.5355 128.859H36.6602C33.2461 128.859 29.9345 127.966 27.2742 126.328C24.6139 124.69 22.7646 122.406 22.0328 119.853L19.1208 109.697C17.791 105.059 21.6247 100.474 27.6831 99.4564C29.6274 99.1293 31.6503 99.2039 33.5446 99.6724Z" fill="#F6BD4E"/>
<path d="M49.6164 105.454L32.8542 101.309C31.339 100.934 29.7208 100.874 28.1654 101.135C23.3178 101.95 20.2515 105.618 21.3155 109.328L24.2275 119.485C24.8497 121.654 26.4217 123.596 28.683 124.988C30.9443 126.38 33.7591 127.139 36.661 127.139H43.5363C44.7793 127.139 46.0125 126.982 47.1881 126.674C53.0795 125.13 56.2207 120.223 54.2042 115.713L49.6164 105.454ZM34.235 98.0359L53.1379 102.711L58.4543 114.599C61.2749 120.907 56.8818 127.769 48.643 129.928C46.9993 130.359 45.2738 130.579 43.5363 130.579H36.661C32.7349 130.579 28.9267 129.552 25.8674 127.668C22.8081 125.785 20.6814 123.158 19.8397 120.222L16.9269 110.066C15.3313 104.5 19.931 98.9977 27.2017 97.7769C29.5346 97.3842 31.9621 97.4736 34.235 98.0359Z" fill="#754F50"/>
<path d="M32.3547 119.346H46.8466C51.3295 119.346 54.9634 122.128 54.9634 125.559C54.9634 128.99 51.3288 131.772 46.8466 131.772H32.3547C27.8717 131.772 24.2379 128.99 24.2379 125.559C24.2379 122.128 27.8717 119.346 32.3547 119.346Z" fill="#F6BD4E"/>
<path d="M26.4843 125.559C26.4843 126.751 27.1028 127.894 28.2037 128.737C29.3046 129.579 30.7978 130.053 32.3547 130.053H46.8466C48.4035 130.053 49.8967 129.579 50.9976 128.737C52.0985 127.894 52.717 126.751 52.717 125.559C52.717 124.367 52.0985 123.224 50.9976 122.382C49.8967 121.539 48.4035 121.065 46.8466 121.065H32.3547C30.7978 121.065 29.3046 121.539 28.2037 122.382C27.1028 123.224 26.4843 124.367 26.4843 125.559ZM32.3547 117.626H46.8466C52.5703 117.626 57.2097 121.178 57.2097 125.559C57.2097 129.94 52.5695 133.492 46.8466 133.492H32.3547C26.631 133.492 21.9916 129.94 21.9916 125.559C21.9916 121.178 26.631 117.626 32.3547 117.626Z" fill="#754F50"/>
<path d="M31.7677 126.152V130.733C31.7677 131.189 32.0044 131.627 32.4256 131.949C32.8469 132.271 33.4183 132.453 34.014 132.453C34.6098 132.453 35.1812 132.271 35.6025 131.949C36.0237 131.627 36.2604 131.189 36.2604 130.733V126.152C36.2604 125.696 36.0237 125.259 35.6025 124.936C35.1812 124.614 34.6098 124.433 34.014 124.433C33.4183 124.433 32.8469 124.614 32.4256 124.936C32.0044 125.259 31.7677 125.696 31.7677 126.152Z" fill="#754F50"/>
<path d="M119.066 99.6724L101.233 104.083L96.2811 115.156C93.8626 120.564 97.6297 126.449 104.694 128.301C106.104 128.671 107.584 128.859 109.075 128.859H115.95C119.364 128.859 122.676 127.966 125.336 126.328C127.996 124.69 129.846 122.406 130.578 119.853L133.49 109.697C134.819 105.059 130.985 100.474 124.927 99.4563C122.983 99.1293 120.96 99.2039 119.066 99.6724Z" fill="#F6BD4E"/>
<path d="M119.756 101.309C121.271 100.934 122.89 100.874 124.445 101.135C129.293 101.95 132.359 105.618 131.295 109.328L128.383 119.485C127.761 121.655 126.189 123.597 123.927 124.989C121.666 126.381 118.851 127.14 115.949 127.14H109.074C107.831 127.14 106.597 126.982 105.422 126.674C99.5301 125.131 96.389 120.223 98.4055 115.714L102.994 105.454L119.756 101.309ZM118.375 98.0359L99.4725 102.711L94.1561 114.599C91.3355 120.906 95.7286 127.769 103.968 129.927C105.612 130.358 107.337 130.578 109.075 130.578H115.95C119.876 130.578 123.684 129.551 126.744 127.668C129.803 125.784 131.93 123.157 132.771 120.222L135.683 110.066C137.28 104.5 132.679 98.9977 125.409 97.7769C123.076 97.3842 120.648 97.4736 118.375 98.0359Z" fill="#754F50"/>
<path d="M120.256 119.346H105.764C101.281 119.346 97.6461 122.128 97.6461 125.559C97.6461 128.99 101.281 131.772 105.763 131.772H120.256C124.738 131.772 128.372 128.99 128.372 125.559C128.372 122.128 124.738 119.346 120.256 119.346Z" fill="#F6BD4E"/>
<path d="M120.256 121.065C121.812 121.065 123.306 121.539 124.407 122.382C125.507 123.224 126.126 124.367 126.126 125.559C126.126 126.751 125.507 127.894 124.407 128.737C123.306 129.579 121.812 130.053 120.256 130.053H105.764C104.207 130.053 102.714 129.579 101.613 128.737C100.512 127.894 99.8932 126.751 99.8932 125.559C99.8932 124.367 100.512 123.224 101.613 122.382C102.714 121.539 104.207 121.065 105.764 121.065H120.256ZM120.256 117.626H105.764C100.04 117.626 95.3998 121.178 95.3998 125.559C95.3998 129.94 100.04 133.492 105.763 133.492H120.256C125.979 133.492 130.619 129.94 130.619 125.559C130.619 121.178 125.979 117.626 120.256 117.626Z" fill="#754F50"/>
<path d="M120.843 126.152V130.733C120.828 131.182 120.584 131.608 120.165 131.921C119.745 132.234 119.182 132.409 118.596 132.409C118.01 132.409 117.448 132.234 117.028 131.921C116.608 131.608 116.365 131.182 116.35 130.733V126.152C116.35 125.696 116.587 125.259 117.008 124.936C117.429 124.614 118.001 124.433 118.596 124.433C119.192 124.433 119.763 124.614 120.185 124.936C120.606 125.259 120.843 125.696 120.843 126.152Z" fill="#754F50"/>
<path d="M38.4917 81.3755H113.37V116.912C113.37 123.243 106.665 128.375 98.3941 128.375H53.4673C45.1963 128.375 38.4917 123.243 38.4917 116.912V81.3755Z" fill="#F6BD4E"/>
<path d="M40.738 116.912C40.738 122.294 46.437 126.656 53.4673 126.656H98.3941C105.424 126.656 111.123 122.294 111.123 116.912V83.095H40.738V116.912ZM115.616 79.656V116.912C115.616 124.193 107.906 130.095 98.3941 130.095H53.4673C43.9556 130.095 36.2454 124.193 36.2454 116.912V79.656H115.616Z" fill="#754F50"/>
<path d="M69.185 102.583H81.9308C88.9551 102.583 94.6503 106.942 94.6503 112.319C94.6503 113.094 94.529 113.866 94.2909 114.62L93.9899 115.566C92.9855 118.729 90.6224 121.541 87.2799 123.552C83.9374 125.563 79.8093 126.656 75.5579 126.656C71.3065 126.656 67.1784 125.563 63.8359 123.552C60.4934 121.541 58.1303 118.729 57.1259 115.566L56.8257 114.62C55.1664 109.395 59.3543 104.129 66.1802 102.858C67.164 102.675 68.1727 102.583 69.185 102.583Z" fill="#FFE281"/>
<path d="M62.0783 134.382C55.2936 134.382 49.8582 130.331 47.8762 124.214L46.7867 112.393C46.7448 111.938 46.4685 111.514 46.0186 111.215C45.5687 110.916 44.982 110.766 44.3876 110.798C43.7932 110.83 43.2399 111.042 42.8492 111.386C42.4585 111.731 42.2626 112.18 42.3045 112.635L43.421 124.743L43.4644 124.882C45.8552 132.494 52.9372 137.821 62.0783 137.821C71.0644 137.821 75.6417 133.359 77.8379 124.812L77.8574 124.725L78.4145 121.752C78.4991 121.301 78.3459 120.842 77.9887 120.477C77.6314 120.112 77.0994 119.87 76.5096 119.806C75.9198 119.741 75.3205 119.858 74.8436 120.132C74.3667 120.405 74.0513 120.812 73.9667 121.264L73.4186 124.191C71.5856 131.288 68.3995 134.382 62.0783 134.382Z" fill="#754F50"/>
<path d="M54.8564 129.067H69.2996C73.7893 129.067 77.4284 131.853 77.4284 135.289C77.4284 138.725 73.7893 141.511 69.3004 141.511H54.8564C50.3675 141.511 46.7284 138.725 46.7284 135.289C46.7284 131.853 50.3675 129.067 54.8564 129.067Z" fill="#F6BD4E"/>
<path d="M54.8563 130.787C51.6081 130.787 48.9746 132.802 48.9746 135.289C48.9746 137.776 51.6081 139.791 54.8563 139.791H69.2995C70.8594 139.791 72.3555 139.317 73.4585 138.473C74.5615 137.628 75.1812 136.483 75.1812 135.289C75.1812 134.095 74.5615 132.95 73.4585 132.106C72.3555 131.261 70.8594 130.787 69.2995 130.787H54.8563ZM54.8563 127.348H69.2995C75.0292 127.348 79.6746 130.903 79.6746 135.289C79.6746 139.675 75.0292 143.23 69.3003 143.23H54.8563C49.1274 143.231 44.4819 139.676 44.4819 135.289C44.4819 130.903 49.1274 127.348 54.8563 127.348Z" fill="#754F50"/>
<path d="M54.2499 135.884V140.471C54.2499 140.927 54.4865 141.364 54.9078 141.686C55.3291 142.009 55.9005 142.19 56.4962 142.19C57.092 142.19 57.6633 142.009 58.0846 141.686C58.5059 141.364 58.7426 140.927 58.7426 140.471V135.884C58.7426 135.428 58.5059 134.991 58.0846 134.668C57.6633 134.346 57.092 134.165 56.4962 134.165C55.9005 134.165 55.3291 134.346 54.9078 134.668C54.4865 134.991 54.2499 135.428 54.2499 135.884ZM65.4142 135.884V140.471C65.4142 140.927 65.6509 141.364 66.0721 141.686C66.4934 142.009 67.0648 142.19 67.6605 142.19C68.2563 142.19 68.8277 142.009 69.2489 141.686C69.6702 141.364 69.9069 140.927 69.9069 140.471V135.884C69.9069 135.428 69.6702 134.991 69.2489 134.668C68.8277 134.346 68.2563 134.165 67.6605 134.165C67.0648 134.165 66.4934 134.346 66.0721 134.668C65.6509 134.991 65.4142 135.428 65.4142 135.884Z" fill="#754F50"/>
<path d="M105.672 111.585C105.702 111.36 105.789 111.142 105.929 110.943C106.069 110.744 106.259 110.568 106.487 110.426C106.716 110.283 106.979 110.176 107.261 110.111C107.544 110.046 107.84 110.024 108.134 110.047C108.427 110.07 108.712 110.137 108.972 110.244C109.232 110.351 109.462 110.496 109.648 110.671C109.835 110.846 109.974 111.047 110.059 111.263C110.144 111.48 110.172 111.707 110.143 111.931L108.407 125.054L108.369 125.17C105.907 132.87 100.252 137.39 91.2373 137.39C86.4915 137.39 82.8907 135.997 80.3463 133.334C78.3029 131.197 76.997 128.369 75.9472 124.374L74.3373 119.88C74.2594 119.662 74.2382 119.434 74.275 119.21C74.3119 118.986 74.406 118.77 74.5521 118.574C74.847 118.177 75.3355 117.887 75.9102 117.767C76.4848 117.646 77.0984 117.705 77.6161 117.931C78.1338 118.157 78.5131 118.531 78.6705 118.971L80.3014 123.522L80.3381 123.64C82.2564 130.976 85.0988 133.95 91.2388 133.95C97.8371 133.95 101.938 130.703 103.97 124.467L105.672 111.585Z" fill="#754F50"/>
<path d="M85.4133 129.908H100.143C104.554 129.908 108.128 132.644 108.128 136.019C108.128 139.395 104.554 142.132 100.143 142.132H85.4133C81.003 142.132 77.4283 139.395 77.4283 136.019C77.4283 132.644 81.003 129.908 85.4133 129.908Z" fill="#F6BD4E"/>
<path d="M85.4133 131.627C83.8915 131.627 82.4319 132.09 81.3558 132.914C80.2796 133.738 79.6751 134.855 79.6751 136.02C79.6751 137.185 80.2796 138.302 81.3558 139.126C82.4319 139.949 83.8915 140.412 85.4133 140.412H100.143C101.654 140.399 103.097 139.93 104.159 139.108C105.221 138.286 105.816 137.176 105.816 136.02C105.816 134.863 105.221 133.754 104.159 132.931C103.097 132.109 101.654 131.64 100.143 131.627H85.4133ZM85.4133 128.188H100.143C105.794 128.188 110.375 131.694 110.375 136.019C110.375 140.345 105.794 143.851 100.143 143.851H85.4133C79.7623 143.851 75.182 140.345 75.182 136.019C75.182 131.694 79.7623 128.188 85.4133 128.188Z" fill="#754F50"/>
<path d="M84.9498 135.457V139.963C84.965 140.411 85.2082 140.837 85.6279 141.15C86.0475 141.463 86.6102 141.638 87.1962 141.638C87.7821 141.638 88.3448 141.463 88.7645 141.15C89.1841 140.837 89.4274 140.411 89.4425 139.963V135.457C89.4425 135.001 89.2058 134.564 88.7846 134.241C88.3633 133.919 87.7919 133.738 87.1962 133.738C86.6004 133.738 86.029 133.919 85.6078 134.241C85.1865 134.564 84.9498 135.001 84.9498 135.457ZM96.1141 135.457V139.963C96.1141 140.419 96.3508 140.856 96.7721 141.179C97.1933 141.501 97.7647 141.682 98.3605 141.682C98.9562 141.682 99.5276 141.501 99.9489 141.179C100.37 140.856 100.607 140.419 100.607 139.963V135.457C100.607 135.001 100.37 134.564 99.9489 134.241C99.5276 133.919 98.9562 133.738 98.3605 133.738C97.7647 133.738 97.1933 133.919 96.7721 134.241C96.3508 134.564 96.1141 135.001 96.1141 135.457Z" fill="#754F50"/>
<path d="M73.6844 114.62C73.6844 115.228 74 115.811 74.5617 116.241C75.1234 116.671 75.8852 116.912 76.6796 116.912C77.4739 116.912 78.2357 116.671 78.7974 116.241C79.3591 115.811 79.6747 115.228 79.6747 114.62C79.6747 114.012 79.3591 113.428 78.7974 112.998C78.2357 112.568 77.4739 112.327 76.6796 112.327C75.8852 112.327 75.1234 112.568 74.5617 112.998C74 113.428 73.6844 114.012 73.6844 114.62Z" fill="#754F50"/>
<path d="M49.8305 6.44661C60.5635 4.19978 70.3052 3.21163 79.0554 3.48274C85.6012 3.68564 92.3687 4.26225 99.3563 5.21142C118.989 7.87896 134.31 19.7069 137.627 34.7567L142.485 56.7899C146.816 76.433 129.547 95.0496 103.892 98.3958C95.2096 99.5284 87.7016 100.154 81.3706 100.272C73.4448 100.421 63.1131 99.6241 50.3756 97.8828C25.5678 94.4908 8.62362 76.7718 11.8973 57.6451L15.5012 36.5862C17.9707 22.1641 31.5019 10.284 49.8305 6.44661Z" fill="#FFE281"/>
<path d="M49.8305 6.4467C31.5019 10.2841 17.9707 22.1642 15.5019 36.5863L11.8981 57.6452C8.62438 76.7719 25.5685 94.4909 50.3764 97.8829C63.1131 99.6242 73.4448 100.421 81.3714 100.272C87.7023 100.154 95.2104 99.5279 103.893 98.3959C129.548 95.0497 146.816 76.4331 142.486 56.79L137.628 34.7567C134.31 19.707 118.989 7.87905 99.3571 5.21151C92.3695 4.26234 85.602 3.68573 79.0562 3.48283C70.3052 3.21172 60.5643 4.19987 49.8305 6.4467ZM48.646 3.12918C59.8005 0.794085 69.9959 -0.239916 79.2374 0.0466696C85.9899 0.255877 92.9588 0.84911 100.142 1.82522C121.644 4.74667 138.424 17.7009 142.058 34.1841L146.915 56.2174C151.658 77.7314 132.745 98.1213 104.647 101.785C95.7652 102.943 88.0483 103.587 81.4807 103.71C73.2097 103.865 62.5957 103.047 49.5864 101.267C22.4154 97.5527 3.85765 78.1458 7.44281 57.1975L11.0467 36.1387C13.7505 20.3444 28.5712 7.33224 48.646 3.12918Z" fill="#754F50"/>
<path d="M74.839 21.1926H84.6937C102.831 21.1926 118.239 31.3675 120.926 45.1208L123.122 56.3607C129.589 82.4095 114.309 90.3193 88.049 92.7261C86.5866 92.8596 85.1257 93.0012 83.6544 93.0493L73.9382 93.3686C51.5998 94.1011 31.9953 85.7116 31.7594 63.6846C31.7414 62.0385 31.7467 60.3923 31.9953 58.7571L33.9032 46.227C35.9803 32.5873 50.6167 22.0982 68.5073 21.4293L74.839 21.1926Z" fill="#F3B438"/>
<path d="M68.6166 23.1472C51.8237 23.7754 38.0844 33.6213 36.1345 46.4265L34.2259 58.9566C34.0275 60.2617 33.9818 61.5055 34.005 63.6709C34.2094 82.7971 49.8537 92.4378 73.8416 91.6502L83.5578 91.3316C84.6181 91.296 85.4852 91.2295 87.4619 91.0478L87.7824 91.0186C101.622 89.7502 110.736 87.0523 116.163 82.2801C122.196 76.9765 123.918 68.7779 120.915 56.6817L118.705 45.3747C116.182 32.4641 101.718 22.9122 84.6937 22.9122H74.8944L68.6166 23.1472ZM119.552 84.5383C113.239 90.0895 103.156 93.0734 88.3155 94.4336L87.9981 94.4628C85.9075 94.6554 84.9633 94.7282 83.7495 94.7677L74.0333 95.087C47.6575 95.9525 29.7392 84.9103 29.5123 63.6996C29.4876 61.4 29.5378 60.0439 29.7632 58.5588L31.6718 46.0287C33.8762 31.5539 49.4089 20.4229 68.3972 19.7127L74.7297 19.4754L84.6937 19.4731C103.944 19.4731 120.296 30.2723 123.147 44.8663L125.337 56.0735C128.562 69.0931 126.616 78.3263 119.552 84.5383Z" fill="#754F50"/>
<path d="M72.0109 59.5046C73.474 58.0522 75.2194 57.3186 77.2471 57.3025C79.2748 57.2865 81.0217 58.0207 82.4856 59.5046C84.1134 62.7625 85.0988 65.0202 85.441 66.2772C85.7832 67.5353 86.1082 70.0842 86.4137 73.9245H68.7379C68.3448 71.1096 68.3448 68.837 68.7379 67.106C69.1311 65.375 70.2213 62.841 72.0109 59.5046Z" fill="#FFD074"/>
<path d="M70.729 72.3211C74.4999 71.8614 76.9641 71.6316 78.1217 71.6316C79.319 71.6316 82.2004 71.8775 86.7657 72.3698C87.3611 72.4341 87.9294 72.6017 88.4273 72.8598C88.9251 73.1179 89.3393 73.4598 89.6382 73.8591C89.9371 74.2585 90.1127 74.7049 90.1517 75.1643C90.1908 75.6236 90.0921 76.0836 89.8634 76.5093C89.2796 77.5965 88.3213 78.5421 87.0905 79.2452C85.8598 79.9483 84.4028 80.3824 82.875 80.5014C80.3007 80.7026 78.7155 80.8023 78.1217 80.8023C77.4254 80.8023 75.343 80.6648 71.8739 80.3891C70.7909 80.3029 69.7698 79.9607 68.9523 79.4101C68.1349 78.8595 67.5617 78.1277 67.3123 77.3163L67.063 76.5047C66.9215 76.0445 66.9055 75.5669 67.0159 75.1018C67.1264 74.6367 67.3609 74.194 67.705 73.8014C68.049 73.4087 68.4952 73.0747 69.0155 72.82C69.5358 72.5653 70.1191 72.3955 70.729 72.3211Z" fill="#9B764F"/>
<path d="M70.9222 74.0435C70.3423 74.148 69.8404 74.4245 69.5269 74.8122C69.2133 75.1999 69.1138 75.6671 69.2502 76.111L69.4995 76.9231C69.6421 77.3867 69.9696 77.8047 70.4367 78.1192C70.9038 78.4337 71.4872 78.6291 72.106 78.6782C75.4725 78.9459 77.5399 79.0823 78.1224 79.0823C78.6077 79.0823 80.1651 78.9837 82.6481 78.79C83.7717 78.7025 84.8432 78.3832 85.7483 77.8662C86.6535 77.3491 87.3583 76.6538 87.7877 75.8542C87.8859 75.6708 87.9281 75.4727 87.9111 75.2749C87.894 75.0771 87.8182 74.8849 87.6893 74.713C87.5604 74.5411 87.382 74.394 87.1675 74.283C86.9531 74.1719 86.7083 74.0998 86.4519 74.0722C82.0034 73.593 79.1715 73.3511 78.1217 73.3511C77.1258 73.3511 74.732 73.5747 71.0832 74.0195C71.0291 74.0257 70.9754 74.0337 70.9222 74.0435ZM78.1217 69.9121C79.4658 69.9121 82.3965 70.1626 87.0786 70.667C88.013 70.7678 88.905 71.0307 89.6864 71.4357C90.4677 71.8407 91.1179 72.377 91.5871 73.0038C92.0563 73.6305 92.3322 74.331 92.3937 75.0518C92.4552 75.7726 92.3007 76.4946 91.9419 77.1627C91.2031 78.5377 89.9908 79.7335 88.4342 80.6227C86.8775 81.5118 85.0349 82.0611 83.1026 82.2118C80.4354 82.4198 78.8248 82.5219 78.1217 82.5219C77.3115 82.5219 75.2142 82.3832 71.6418 82.0994C70.0947 81.9765 68.6361 81.4879 67.4684 80.7014C66.3007 79.9149 65.482 78.8696 65.1259 77.7107L64.8765 76.8985C64.6645 76.2082 64.6407 75.4918 64.8065 74.7941C64.9724 74.0964 65.3245 73.4324 65.8406 72.8435C66.3568 72.2547 67.0261 71.7536 67.8066 71.3716C68.5871 70.9896 69.4622 70.7349 70.3771 70.6234C74.2685 70.1488 76.8031 69.9121 78.1217 69.9121Z" fill="#754F50"/>
<path d="M45.43 34.9631L37.1477 31.4845C32.8961 29.6985 29.5536 26.5203 31.9886 23.2154C32.3458 22.7305 36.2087 19.0525 36.7052 18.6444C40.3892 15.6203 44.9388 17.6769 48.7927 20.4281C49.1649 20.6935 49.5078 20.9823 49.8186 21.2913L54.7088 25.8165" fill="#F3B438"/>
<path d="M50.3218 19.167C47.8785 17.4229 45.6134 16.2473 43.3311 15.7205C40.2754 15.0155 37.3836 15.5606 35.0601 17.4676C34.3248 18.0711 30.4476 21.799 30.0298 22.3665C27.0789 26.3723 30.1459 30.5009 36.0657 32.9873L44.3472 36.4659C44.6061 36.5771 44.8911 36.648 45.186 36.6744C45.4808 36.7008 45.7795 36.6822 46.0649 36.6196C46.3503 36.5571 46.6166 36.4519 46.8486 36.3102C47.0805 36.1684 47.2735 35.9928 47.4163 35.7936C47.559 35.5944 47.6488 35.3755 47.6804 35.1496C47.7121 34.9237 47.6849 34.6952 47.6004 34.4774C47.516 34.2595 47.376 34.0567 47.1885 33.8805C47.0011 33.7043 46.7698 33.5584 46.5082 33.451L38.2267 29.9724C34.2162 28.2879 32.5143 25.9958 33.9429 24.0556C34.0133 23.9599 34.9508 23.0245 36.0493 21.9675C37.0908 20.9662 38.1593 19.9654 38.345 19.813C40.4094 18.1187 43.1537 18.752 47.2577 21.6815C47.54 21.8833 47.8006 22.1022 48.0365 22.3367L48.0851 22.3836L52.9754 26.9088C53.1635 27.0829 53.3945 27.2268 53.6552 27.3325C53.916 27.4382 54.2014 27.5035 54.4951 27.5248C54.7888 27.5461 55.0852 27.5228 55.3672 27.4564C55.6492 27.39 55.9113 27.2818 56.1387 27.1378C56.366 26.9939 56.5541 26.817 56.6921 26.6175C56.8302 26.4179 56.9156 26.1994 56.9434 25.9746C56.9711 25.7497 56.9408 25.5229 56.854 25.307C56.7673 25.0912 56.6259 24.8905 56.4378 24.7165L51.5707 20.2131C51.1916 19.8394 50.774 19.4896 50.3218 19.167Z" fill="#754F50"/>
<path d="M47.212 24.1406L48.2424 25.0467C48.8454 25.5768 49.1959 26.2477 49.2364 26.9499C49.2769 27.6521 49.0052 28.3441 48.4655 28.9128C47.9374 29.4694 47.1659 29.8624 46.2912 30.0203C45.4165 30.1782 44.4968 30.0905 43.6995 29.7731L42.2274 29.1879C41.6971 28.977 41.2338 28.6794 40.8703 28.3163C40.5068 27.9532 40.252 27.5334 40.1238 27.0866C39.9957 26.6397 39.9973 26.1768 40.1287 25.7305C40.2601 25.2842 40.518 24.8655 40.8841 24.5039L41.1177 24.2741C41.4749 23.9214 41.9297 23.6337 42.4494 23.4316C42.9692 23.2295 43.5409 23.118 44.1237 23.1052C44.7064 23.0925 45.2856 23.1787 45.8196 23.3577C46.3536 23.5367 46.8291 23.8041 47.212 24.1406Z" fill="#E1A126"/>
<path d="M104.185 33.8166L112.468 30.3381C116.719 28.5527 119.226 25.4713 116.792 22.1664C116.434 21.6815 113.157 18.3393 112.488 17.8842C107.997 14.9433 104.676 16.5315 100.823 19.2828C100.45 19.5481 100.108 19.837 99.7966 20.146L94.9071 24.6711" fill="#F3B438"/>
<path d="M99.295 18.0249C101.841 16.2079 103.722 15.21 105.855 14.7848C108.599 14.238 111.287 14.8323 113.952 16.5771C114.786 17.1434 118.215 20.5921 118.753 21.3212C121.717 25.346 119.216 29.4665 113.552 31.8452L105.27 35.3238C105.011 35.4366 104.726 35.5089 104.43 35.5365C104.134 35.564 103.834 35.5462 103.547 35.4841C103.26 35.422 102.993 35.3168 102.759 35.1747C102.526 35.0326 102.332 34.8564 102.189 34.6564C102.046 34.4564 101.956 34.2366 101.925 34.0097C101.893 33.7828 101.922 33.5535 102.007 33.335C102.093 33.1165 102.235 32.9133 102.424 32.7371C102.613 32.5609 102.846 32.4154 103.11 32.3089L111.391 28.8303C115.086 27.2787 116.395 25.1219 114.84 23.0103C114.739 22.8745 113.869 21.9557 112.974 21.0547C112.018 20.0929 111.144 19.2664 111.001 19.1695C108.165 17.313 106.382 17.6684 102.359 20.5394C102.077 20.741 101.816 20.9601 101.581 21.1945L101.533 21.241L96.6428 25.7661C96.456 25.9431 96.2253 26.09 95.9638 26.1982C95.7024 26.3064 95.4155 26.3738 95.1198 26.3966C94.8241 26.4193 94.5255 26.3969 94.2411 26.3307C93.9568 26.2644 93.6925 26.1557 93.4635 26.0107C93.2345 25.8657 93.0454 25.6873 92.907 25.486C92.7687 25.2846 92.684 25.0642 92.6577 24.8376C92.6315 24.611 92.6642 24.3827 92.754 24.1658C92.8439 23.949 92.9891 23.7479 93.1812 23.5743L98.0475 19.0709C98.4262 18.6974 98.8434 18.3476 99.295 18.0249Z" fill="#754F50"/>
<path d="M102.584 22.9695L101.428 23.9381C100.813 24.4541 100.45 25.1166 100.399 25.814C100.348 26.5113 100.613 27.2008 101.15 27.7658C101.678 28.3223 102.449 28.7152 103.324 28.8731C104.199 29.031 105.118 28.9433 105.916 28.6261L107.388 28.0409C107.926 27.827 108.397 27.5268 108.77 27.1607C109.142 26.7947 109.408 26.3715 109.547 25.9199C109.687 25.4683 109.697 24.999 109.579 24.5439C109.46 24.0889 109.214 23.6588 108.858 23.283L108.816 23.2389C108.19 22.577 107.246 22.1326 106.192 22.0035C105.137 21.8745 104.059 22.0712 103.195 22.5505C102.973 22.6737 102.769 22.8141 102.584 22.9695Z" fill="#E1A126"/>
<path d="M81.1744 48.6224C81.1742 49.816 81.4811 50.9979 82.0776 52.1007C82.6742 53.2035 83.5487 54.2055 84.6512 55.0496C85.7537 55.8937 87.0626 56.5632 88.5032 57.0201C89.9438 57.4769 91.4878 57.712 93.0471 57.712C94.6064 57.712 96.1504 57.4769 97.591 57.0201C99.0316 56.5632 100.341 55.8937 101.443 55.0496C102.546 54.2055 103.42 53.2035 104.017 52.1007C104.613 50.9979 104.92 49.816 104.92 48.6224C104.92 47.4288 104.613 46.2468 104.017 45.144C103.42 44.0412 102.546 43.0392 101.443 42.1951C100.341 41.351 99.0316 40.6815 97.591 40.2247C96.1504 39.7678 94.6064 39.5327 93.0471 39.5327C91.4878 39.5327 89.9438 39.7678 88.5032 40.2247C87.0626 40.6815 85.7537 41.351 84.6512 42.1951C83.5487 43.0392 82.6742 44.0412 82.0776 45.144C81.4811 46.2468 81.1742 47.4288 81.1744 48.6224Z" fill="white"/>
<path d="M93.0472 59.4295C85.2479 59.4295 78.9259 54.5914 78.9259 48.6218C78.9259 42.6534 85.2479 37.8147 93.0472 37.8147C100.845 37.8147 107.168 42.6534 107.168 48.6218C107.168 54.5914 100.845 59.4295 93.0472 59.4295ZM93.0472 55.9905C98.365 55.9905 102.675 52.6913 102.675 48.6218C102.676 44.5529 98.365 41.2537 93.0472 41.2537C87.7293 41.2537 83.4186 44.5529 83.4186 48.6218C83.4186 52.6919 87.7293 55.9905 93.0472 55.9905Z" fill="#754F50"/>
<path d="M85.4927 51.5049C86.0016 51.9562 86.6785 52.2775 87.4328 52.4257C88.1871 52.574 88.9825 52.5421 89.7124 52.3344C90.4424 52.1267 91.0718 51.753 91.5164 51.2636C91.9609 50.7742 92.1993 50.1924 92.1995 49.5963C92.2098 48.8213 91.8175 48.0749 91.109 47.5214C90.4004 46.9678 89.4336 46.6523 88.4212 46.6444C87.4088 46.6365 86.4337 46.9368 85.7105 47.4792C84.9873 48.0216 84.5753 48.7617 84.5649 49.5367L87.3953 49.8513L85.4927 51.5049Z" fill="#232323"/>
<path d="M48.9777 48.4537C48.9777 51.1234 50.3631 53.6837 52.8292 55.5715C55.2953 57.4592 58.6401 58.5197 62.1277 58.5197C65.6154 58.5197 68.9601 57.4592 71.4263 55.5715C73.8924 53.6837 75.2778 51.1234 75.2778 48.4537C75.2778 45.784 73.8924 43.2237 71.4263 41.336C68.9601 39.4482 65.6154 38.3877 62.1277 38.3877C58.6401 38.3877 55.2953 39.4482 52.8292 41.336C50.3631 43.2237 48.9777 45.784 48.9777 48.4537Z" fill="white"/>
<path d="M62.1278 60.2399C53.6232 60.2399 46.7284 54.9627 46.7284 48.4538C46.7284 41.9448 53.6232 36.6682 62.1278 36.6682C70.6325 36.6682 77.5265 41.9448 77.5265 48.4538C77.5265 54.9627 70.6325 60.2399 62.1278 60.2399ZM62.1278 56.8008C68.151 56.8008 73.0338 53.0638 73.0338 48.4543C73.0338 43.8443 68.151 40.1072 62.1278 40.1072C56.1039 40.1072 51.2211 43.8443 51.2211 48.4538C51.2211 53.0632 56.1039 56.8008 62.1278 56.8008Z" fill="#754F50"/>
<path d="M63.1364 52.121C63.7705 52.6833 64.6418 53.0578 65.599 53.1797C66.5563 53.3016 67.539 53.163 68.3768 52.7881C69.2145 52.4132 69.8543 51.8256 70.1851 51.1273C70.5159 50.429 70.5169 49.6641 70.1878 48.9653C69.8588 48.2665 69.2205 47.678 68.3837 47.3018C67.547 46.9257 66.5646 46.7857 65.607 46.9061C64.6495 47.0265 63.7772 47.3998 63.1417 47.9611C62.5062 48.5225 62.1474 49.2364 62.1278 49.9791L65.2068 50.3218L63.1364 52.121Z" fill="#232323"/>
<path d="M49.677 61.4006C32.318 57.0296 21.7902 54.7278 17.7303 54.444C17.4335 54.4189 17.1331 54.4393 16.8467 54.504C16.5604 54.5688 16.2937 54.6766 16.0624 54.8211C15.8311 54.9657 15.6397 55.1441 15.4996 55.3459C15.3594 55.5478 15.2732 55.769 15.246 55.9966C15.2188 56.2242 15.2512 56.4537 15.3413 56.6717C15.4313 56.8896 15.5773 57.0916 15.7705 57.2659C15.9637 57.4401 16.2004 57.5832 16.4668 57.6866C16.7331 57.79 17.0236 57.8517 17.3215 57.8682C20.8887 58.1181 31.3274 60.4004 48.2723 64.6671C48.5525 64.7377 48.8481 64.7654 49.1423 64.7485C49.4365 64.7317 49.7234 64.6707 49.9867 64.5689C50.2501 64.4672 50.4847 64.3267 50.6771 64.1556C50.8696 63.9845 51.0161 63.786 51.1083 63.5715C51.2006 63.357 51.2367 63.1307 51.2147 62.9056C51.1927 62.6804 51.1129 62.4607 50.98 62.2592C50.8471 62.0576 50.6637 61.878 50.4401 61.7307C50.2165 61.5834 49.9572 61.4712 49.677 61.4006ZM104.431 61.4006C121.791 57.0296 132.317 54.7272 136.378 54.4435C136.964 54.4111 137.544 54.5562 137.993 54.8476C138.441 55.1391 138.723 55.5536 138.776 56.002C138.83 56.4505 138.651 56.8971 138.279 57.246C137.907 57.5948 137.371 57.818 136.786 57.8676C133.219 58.1175 122.78 60.3999 105.835 64.6665C105.555 64.7371 105.259 64.7647 104.965 64.7479C104.671 64.731 104.384 64.67 104.121 64.5682C103.589 64.3628 103.186 64.004 103 63.5709C102.813 63.1378 102.86 62.6659 103.128 62.2589C103.396 61.8519 103.865 61.5431 104.431 61.4006ZM137.183 68.7962C137.372 68.7819 137.505 68.7704 137.603 68.7601C137.656 68.7544 137.656 68.7544 137.737 68.7435C137.829 68.7355 137.829 68.7355 138.283 68.6117C138.521 68.5309 138.521 68.5309 139.029 68.1881C139.359 67.8711 139.359 67.8711 139.577 67.2487C139.54 66.5208 139.54 66.5208 139.14 66.0141C138.411 65.5011 138.411 65.5011 138.077 65.4226C137.845 65.3698 137.845 65.3698 137.722 65.3526C137.443 65.3268 137.443 65.3268 137.36 65.3268C137.191 65.3245 136.909 65.3354 136.335 65.3624C135.354 65.4082 133.57 65.5011 130.974 65.6415C125.794 65.9218 117.38 66.3918 105.731 67.0509C105.437 67.0676 105.15 67.1285 104.887 67.2301C104.623 67.3316 104.389 67.472 104.196 67.643C104.003 67.814 103.857 68.0124 103.764 68.2269C103.672 68.4413 103.635 68.6676 103.657 68.8928C103.679 69.118 103.758 69.3377 103.891 69.5394C104.024 69.7411 104.207 69.9208 104.43 70.0683C104.654 70.2157 104.913 70.3281 105.193 70.3988C105.473 70.4696 105.769 70.4975 106.063 70.4808C114.471 70.0021 122.88 69.5325 131.29 69.0719C133.871 68.9321 135.645 68.8398 136.608 68.7951C136.844 68.8071 137.012 68.8094 137.183 68.7962ZM137.284 68.7659C137.227 68.7664 137.227 68.7664 136.964 68.7424C136.843 68.7257 136.843 68.7257 136.613 68.6736C136.281 68.5951 136.281 68.5951 135.552 68.0832C135.152 67.5765 135.152 67.5765 135.115 66.8492C135.333 66.2267 135.333 66.2267 135.663 65.9103C136.169 65.5676 136.169 65.5676 136.406 65.4879C136.85 65.367 136.85 65.367 136.92 65.3624L136.981 65.3543C136.959 65.3572 136.869 65.3647 136.735 65.375C136.143 65.4205 135.598 65.6443 135.22 65.9972C134.843 66.3502 134.664 66.8034 134.723 67.2573C134.774 67.6449 134.995 68.0078 135.35 68.2866C135.706 68.5655 136.174 68.7437 136.679 68.7922C137.038 68.7756 137.29 68.7659 137.284 68.7659ZM75.9308 81.3756V91.1195C75.9308 91.5756 76.1674 92.0129 76.5887 92.3354C77.01 92.6579 77.5814 92.839 78.1771 92.839C78.7729 92.839 79.3443 92.6579 79.7655 92.3354C80.1868 92.0129 80.4235 91.5756 80.4235 91.1195V81.3756C80.4235 80.9196 80.1868 80.4822 79.7655 80.1597C79.3443 79.8373 78.7729 79.6561 78.1771 79.6561C77.5814 79.6561 77.01 79.8373 76.5887 80.1597C76.1674 80.4822 75.9308 80.9196 75.9308 81.3756ZM21.2705 69.9621C37.6434 69.9558 47.6291 69.9391 51.2427 69.9122C51.8385 69.9076 52.4075 69.7221 52.8246 69.3964C53.2416 69.0707 53.4726 68.6315 53.4666 68.1755C53.4607 67.7195 53.2183 67.2839 52.7928 66.9647C52.3673 66.6454 51.7936 66.4686 51.1978 66.4732C47.6044 66.5007 37.6232 66.5173 21.2675 66.523C20.9726 66.5232 20.6805 66.5678 20.408 66.6544C20.1356 66.7409 19.888 66.8677 19.6796 67.0275C19.4711 67.1873 19.3058 67.3769 19.1931 67.5856C19.0804 67.7943 19.0225 68.0179 19.0227 68.2437C19.0229 68.4695 19.0812 68.6931 19.1943 68.9016C19.3073 69.1102 19.473 69.2997 19.6817 69.4592C19.8904 69.6188 20.1382 69.7453 20.4108 69.8316C20.6834 69.9179 20.9755 69.9622 21.2705 69.9621Z" fill="#754F50"/>
</svg>
