<svg width="184" height="158" viewBox="0 0 184 158" fill="none" xmlns="http://www.w3.org/2000/svg">
<path d="M95.8435 102.581C107.655 100.087 121.804 95.4567 138.186 94.7644C154.569 94.0721 170.161 102.581 170.694 115.445C170.774 117.39 170.701 119.339 170.161 121.243C168.553 126.929 156.941 144.086 113.883 141.905C123.247 136.432 125.612 124.938 128.957 119.883C124.615 118.467 113.578 115.568 95.8435 111.184V102.581Z" fill="#FD9041"/>
<path d="M126.03 122.597C126.823 121.501 129.402 120.92 132.084 121.189C133.916 121.374 132.797 123.795 134.689 124.295C135.914 124.619 138.287 122.964 139.46 123.427C141.169 124.102 140.672 126.072 142.119 127.059C143.077 127.714 147.291 127.706 148.066 128.505C149.453 129.933 146.176 130.865 146.739 132.777C146.949 133.491 151.603 133.447 151.669 134.231C151.778 135.533 151.356 138.135 149.744 139.298C144.661 142.967 132.429 144.156 113.047 142.865C118.849 133.292 123.176 126.536 126.03 122.597Z" fill="#FFF3BD"/>
<path d="M127.626 122.037C128.339 120.371 130.096 118.862 131.772 117.218C131.959 117.04 132.097 116.837 132.179 116.618C132.262 116.4 132.286 116.171 132.251 115.946C132.216 115.72 132.123 115.502 131.976 115.305C131.83 115.107 131.633 114.933 131.398 114.794C131.163 114.654 130.893 114.552 130.606 114.493C130.318 114.434 130.018 114.419 129.722 114.449C129.427 114.479 129.143 114.554 128.885 114.668C128.628 114.783 128.404 114.936 128.225 115.117C126.241 117.062 124.803 119.064 123.922 121.121C123.831 121.335 123.795 121.56 123.818 121.785C123.841 122.009 123.921 122.227 124.055 122.428C124.188 122.628 124.372 122.807 124.596 122.953C124.82 123.099 125.08 123.211 125.36 123.28C126.539 123.573 127.241 122.936 127.626 122.037Z" fill="#754F50"/>
<path d="M95.8435 102.581V111.184C113.578 115.568 124.615 118.467 128.957 119.883C125.612 124.939 123.247 136.432 113.883 141.906C156.941 144.086 168.553 126.929 170.161 121.243C170.701 119.34 170.774 117.39 170.694 115.445C170.161 102.581 154.569 94.0727 138.186 94.765C121.804 95.4573 107.655 100.086 95.8435 102.581ZM94.4575 114.441C93.5547 114.218 92.7678 113.783 92.2097 113.198C91.6515 112.613 91.3509 111.908 91.3508 111.184V102.581C91.3508 101.832 91.6729 101.104 92.2676 100.508C92.8624 99.9117 93.6971 99.4806 94.644 99.2806C96.4493 98.8993 98.3879 98.4524 100.93 97.8372C101.872 97.6089 106.484 96.4772 107.809 96.1575C119.947 93.228 128.413 91.7486 137.938 91.3463C157.445 90.5221 174.588 100.925 175.185 115.338C175.289 117.866 175.127 119.939 174.553 121.966C173.142 126.951 168.219 132.832 160.217 137.29C149.327 143.355 133.886 146.351 113.584 145.323C109.45 145.113 107.86 141.111 111.149 139.188C114.404 137.286 116.961 134.25 119.292 129.872C120.131 128.295 122.141 123.863 123.083 121.81C117.45 120.224 107.876 117.759 94.4575 114.441Z" fill="#754F50"/>
<path d="M33.7659 106.92C30.4705 107.142 28.0781 107.568 26.5888 108.197C25.0995 108.826 23.11 110.901 20.6195 114.421L18.958 108.845C18.7079 108.211 18.2422 106.813 17.8213 106.234C14.5709 101.764 8.08944 101.508 2.2467 103.977L21.4357 129.633L26.63 128.424L44.3386 129.479C46.5287 129.458 48.6922 129.11 50.7055 128.452C54.7298 127.143 57.9162 124.679 59.5756 121.593" fill="#FD9041"/>
<path d="M21.1481 108.467C21.0153 108.109 20.882 107.751 20.7483 107.394C20.6983 107.264 20.6474 107.134 20.5955 107.004C20.3147 106.302 20.0714 105.798 19.7854 105.404C16.0527 100.27 8.43834 99.4027 1.1572 102.479C0.897257 102.589 0.6685 102.737 0.484176 102.915C0.299853 103.092 0.163632 103.296 0.0833999 103.514C0.00316776 103.732 -0.0194797 103.96 0.0167746 104.185C0.0530289 104.41 0.147463 104.627 0.294603 104.824L19.4836 130.481C19.7362 130.819 20.132 131.081 20.606 131.225C21.08 131.368 21.6039 131.384 22.0916 131.271L26.8786 130.156L44.1634 131.186C44.2308 131.19 44.2989 131.192 44.3663 131.191C46.8508 131.168 49.305 130.772 51.5891 130.026C56.1543 128.541 59.7691 125.745 61.6519 122.245C61.8723 121.826 61.8668 121.357 61.6364 120.941C61.4061 120.526 60.9697 120.196 60.4221 120.024C59.8745 119.852 59.26 119.852 58.7124 120.024C58.1647 120.196 57.7281 120.525 57.4977 120.941C56.0626 123.613 53.3044 125.746 49.8204 126.878C48.108 127.437 46.27 127.739 44.4075 127.766L26.8037 126.717C26.5234 126.701 26.2415 126.724 25.9725 126.786L22.4967 127.596L5.39829 104.736C9.86701 103.426 13.7839 104.215 15.8558 107.064C15.9419 107.182 16.1066 107.525 16.2983 108.004C16.3417 108.111 16.3859 108.226 16.4338 108.351C16.478 108.465 16.6944 109.049 16.7827 109.278L18.4286 114.801C18.8883 116.343 21.6116 116.626 22.5963 115.234C24.8808 112.004 26.6996 110.108 27.6775 109.695C28.8351 109.206 30.9534 108.828 33.9635 108.626C34.2574 108.606 34.5433 108.542 34.8048 108.438C35.0664 108.334 35.2986 108.192 35.488 108.02C35.6775 107.848 35.8206 107.648 35.9091 107.434C35.9976 107.219 36.0299 106.994 36.0039 106.77C35.978 106.546 35.8945 106.328 35.7581 106.128C35.6217 105.929 35.4351 105.752 35.209 105.608C34.9829 105.463 34.7217 105.354 34.4403 105.287C34.1589 105.219 33.8628 105.195 33.5689 105.215C29.9875 105.456 27.3211 105.93 25.5001 106.7C24.2765 107.217 22.9939 108.259 21.5652 109.863L21.1481 108.467Z" fill="#754F50"/>
<path d="M38.9908 70.6156L45.8781 74.3859L35.8557 86.3199L49.8174 96.4155L40.8156 105.627L25.7239 89.3482C24.653 88.1926 24.1254 86.7953 24.2266 85.3827C24.3279 83.97 25.0521 82.6248 26.2818 81.5651L38.9908 70.6156Z" fill="#FD9041"/>
<path d="M39.3286 72.9083L27.9643 82.7004C27.0699 83.4709 26.5432 84.4492 26.4695 85.4765C26.3959 86.5038 26.7796 87.52 27.5585 88.3603L40.8628 102.712L46.8238 96.6125L34.3095 87.5624C33.9308 87.2883 33.6891 86.9223 33.626 86.5271C33.5629 86.132 33.6822 85.7324 33.9635 85.3971L42.8381 74.83L39.3286 72.9083ZM38.7483 86.0523L51.3637 95.1737C51.7625 95.4621 52.0088 95.8519 52.0558 96.2694C52.1029 96.6868 51.9475 97.1029 51.619 97.4389L42.6172 106.649C41.7052 107.583 39.8624 107.565 38.9811 106.615L23.8895 90.3367C22.5261 88.8662 21.8544 87.0878 21.9833 85.2898C22.1121 83.4918 23.0339 81.7797 24.5993 80.4311L37.3084 69.4811C37.677 69.1634 38.1872 68.9614 38.7401 68.914C39.293 68.8667 39.8493 68.9774 40.3012 69.2248L47.1885 72.9951C47.6554 73.2508 47.976 73.6332 48.0841 74.0637C48.1921 74.4941 48.0796 74.9397 47.7696 75.3088L38.7483 86.0523Z" fill="#754F50"/>
<path d="M38.5739 86.216L34.4773 82.9657C34.2729 82.8036 34.0286 82.6737 33.7584 82.5835C33.4881 82.4933 33.1972 82.4445 32.9023 82.44C32.6073 82.4355 32.3141 82.4754 32.0394 82.5572C31.7646 82.6391 31.5137 82.7614 31.301 82.9172C31.0882 83.073 30.9178 83.2592 30.7995 83.4652C30.6812 83.6711 30.6172 83.8929 30.6113 84.1177C30.6054 84.3425 30.6576 84.566 30.765 84.7754C30.8724 84.9848 31.0329 85.1761 31.2373 85.3382L35.3339 88.5886C35.7466 88.916 36.3132 89.1051 36.9089 89.1142C37.5045 89.1233 38.0806 88.9517 38.5102 88.6371C38.9399 88.3224 39.1879 87.8906 39.1999 87.4366C39.2118 86.9826 38.9866 86.5435 38.5739 86.216Z" fill="#754F50"/>
<path d="M109.009 62.6065C115.59 58.4493 119.379 51.915 118.35 44.9486L118.23 44.1388C116.29 31.0171 101.764 21.1012 84.4822 21.1012H64.4449C47.0777 21.1012 32.4233 30.9731 30.2473 44.1382L30.1567 44.6873C30.0196 45.5178 29.9509 46.354 29.9508 47.1911C29.9508 54.3549 34.8845 60.6386 42.2967 64.1663C40.9327 66.4082 40.1261 68.8235 39.9178 71.2896C39.0395 81.5354 38.3424 88.2341 37.828 91.3857C37.4701 93.5761 36.0421 96.7169 33.5427 100.807C27.4327 110.808 33.0904 122.701 46.1799 127.369C46.9653 127.649 47.5367 127.897 48.3551 128.116C60.3887 131.34 63.6886 132.417 74.2344 132.393C84.7795 132.369 92.3355 131.342 104.025 128.116C117.612 124.367 124.647 112.911 119.739 102.531C119.529 102.086 119.298 101.647 119.047 101.215C116.588 96.98 115.18 93.704 114.824 91.3857C114.32 88.1034 113.519 81.3003 112.42 70.9763C112.112 68.0281 110.947 65.1691 109.009 62.6065Z" fill="#FD9041"/>
<path d="M114.66 70.8388C115.757 81.1422 116.556 87.9322 117.056 91.1871C117.38 93.2988 118.725 96.431 121.101 100.521C121.373 100.991 121.624 101.467 121.852 101.951C127.179 113.219 119.542 125.654 104.79 129.726C93.0356 132.97 85.2176 134.08 74.2404 134.105C69.3082 134.116 65.8608 133.891 62.3962 133.323C58.9803 132.764 58.0818 132.537 47.6101 129.731C47.1331 129.602 46.6661 129.452 46.2113 129.283C46.1537 129.262 45.4438 128.997 45.2282 128.92C31.0163 123.851 24.8741 110.941 31.5068 100.085C33.9156 96.1422 35.2769 93.1493 35.5989 91.1751C36.1066 88.068 36.8007 81.3893 37.676 71.1784C37.8612 68.9939 38.4784 66.8432 39.5068 64.7993C35.8493 62.7874 32.8718 60.1416 30.8197 57.0801C28.7677 54.0185 27.6999 50.629 27.7045 47.1911C27.7045 46.2825 27.7794 45.3745 27.9284 44.4733L28.019 43.9242C30.3364 29.9042 45.9448 19.389 64.4449 19.389H84.4823C102.908 19.389 118.395 29.9601 120.463 43.9465L120.582 44.7564C121.081 48.1055 120.55 51.4973 119.03 54.6627C117.51 57.8281 115.043 60.6801 111.825 62.9924C113.411 65.4482 114.373 68.1105 114.66 70.8388ZM107.575 61.2887C110.649 59.3511 113.04 56.8596 114.532 54.0398C116.023 51.2201 116.568 48.1613 116.117 45.1405L115.998 44.3306C114.186 32.0747 100.62 22.814 84.4823 22.814H64.4449C48.2113 22.8134 34.5109 32.0427 32.4765 44.3523L32.3851 44.9013C32.26 45.6609 32.1972 46.4256 32.1972 47.1911C32.1926 50.2966 33.2269 53.3517 35.2022 56.0678C37.1776 58.7839 40.0288 61.0713 43.4865 62.7139L45.1705 63.5152L44.3349 64.8872C43.0873 66.9374 42.3498 69.1462 42.1597 71.4015C41.2784 81.6816 40.5798 88.4008 40.0571 91.598C39.664 94.0042 38.1687 97.2916 35.5794 101.53C29.992 110.675 35.1653 121.551 47.1323 125.819C47.3907 125.91 48.129 126.186 48.1544 126.196C48.5251 126.33 48.7969 126.42 49.1001 126.501C59.3105 129.237 60.2008 129.461 63.3404 129.975C66.4591 130.487 69.595 130.691 74.2277 130.681C84.6732 130.657 91.9805 129.62 103.261 126.506C115.681 123.078 122.114 112.604 117.627 103.111C117.435 102.705 117.224 102.303 116.994 101.908C114.451 97.5302 112.982 94.1098 112.594 91.5855C112.086 88.2764 111.283 81.4607 110.182 71.1156C109.901 68.4195 108.835 65.805 107.064 63.4615L106.117 62.2099L107.575 61.2887Z" fill="#754F50"/>
<path d="M64.528 37.4459C66.85 33.7921 69.1225 30.6473 71.3464 28.0123C73.5703 25.3772 76.2449 23.6439 79.3703 22.8135H64.528C62.513 24.7488 61.4235 26.7247 61.2581 28.7411C61.0926 30.7575 62.1821 33.6585 64.528 37.4459Z" fill="#FFF3BD"/>
<path d="M55.1847 54.7744H83.9663C88.9277 54.7744 92.9494 57.8392 92.9517 61.6209C92.9592 76.9451 90.9277 86.9334 86.8581 91.5855C82.5781 96.4778 73.5059 104.181 59.6414 114.695C59.2684 114.978 58.8043 115.181 58.2957 115.283C57.7871 115.386 57.252 115.385 56.7443 115.28C56.2365 115.175 55.774 114.969 55.4034 114.685C55.0327 114.4 54.767 114.046 54.6328 113.659C50.7699 102.504 48.1611 93.6995 46.8051 87.2462C45.5307 81.1827 45.3345 72.5059 46.215 61.2163C46.4973 57.5984 50.4299 54.7744 55.1847 54.7744Z" fill="#FFF3BD"/>
<path d="M72.9346 122.516C71.9036 125.371 71.3876 127.451 71.3876 128.757C71.3876 130.061 72.4741 132.63 74.6471 136.464L68.6546 135.323C67.8045 135.181 66.9369 135.11 66.0668 135.11C59.354 135.11 53.9119 139.26 53.9119 144.379H99.2333L97.7515 139.314L105.824 128.757C106.864 127.278 107.513 125.658 107.736 123.989C108.185 120.656 106.902 117.321 104.162 114.701" fill="#FD9041"/>
<path d="M69.199 133.662C68.1705 133.487 67.1203 133.399 66.0668 133.398C58.1125 133.398 51.6655 138.315 51.6655 144.379C51.6655 144.604 51.7236 144.827 51.8365 145.035C51.9494 145.242 52.1149 145.431 52.3235 145.59C52.5321 145.749 52.7797 145.875 53.0522 145.961C53.3248 146.047 53.6169 146.091 53.9119 146.091H99.2333C99.5699 146.092 99.9022 146.034 100.206 145.923C100.509 145.812 100.776 145.651 100.987 145.45C101.197 145.25 101.346 145.017 101.422 144.767C101.498 144.517 101.5 144.257 101.426 144.007L100.136 139.597L107.766 129.618C108.965 127.928 109.714 126.073 109.97 124.162C110.48 120.384 109.026 116.604 105.918 113.635C105.547 113.28 105.006 113.051 104.414 113C103.822 112.949 103.228 113.079 102.762 113.362C102.295 113.645 101.996 114.057 101.928 114.508C101.861 114.959 102.032 115.413 102.403 115.768C104.779 118.038 105.891 120.928 105.501 123.817C105.31 125.254 104.753 126.648 103.862 127.922L95.8099 138.452C95.5246 138.825 95.4348 139.266 95.5583 139.687L96.4299 142.668H56.4135C57.4304 139.319 61.3667 136.823 66.0668 136.823C66.7759 136.823 67.4828 136.882 68.1754 136.996L74.102 138.126C75.9073 138.47 77.4468 137.088 76.7085 135.785C74.6606 132.171 73.634 129.743 73.634 128.757C73.634 127.645 74.1185 125.689 75.1009 122.971C75.2532 122.534 75.1732 122.069 74.8782 121.678C74.5831 121.286 74.097 120.999 73.5257 120.879C72.9544 120.76 72.3442 120.817 71.8279 121.038C71.3116 121.26 70.931 121.628 70.7692 122.063C69.6879 125.055 69.1413 127.26 69.1413 128.757C69.1413 129.915 69.7246 131.626 70.8935 133.985L69.199 133.662Z" fill="#754F50"/>
<path d="M71.8826 117.555C71.8826 117.855 71.96 118.152 72.1106 118.429C72.2611 118.706 72.4817 118.957 72.7598 119.169C73.0379 119.381 73.3681 119.549 73.7315 119.664C74.0949 119.779 74.4844 119.838 74.8777 119.838C75.271 119.838 75.6605 119.779 76.0239 119.664C76.3873 119.549 76.7174 119.381 76.9956 119.169C77.2737 118.957 77.4943 118.706 77.6448 118.429C77.7953 118.152 77.8728 117.855 77.8728 117.555C77.8728 117.255 77.7953 116.958 77.6448 116.681C77.4943 116.404 77.2737 116.153 76.9956 115.941C76.7174 115.729 76.3873 115.56 76.0239 115.446C75.6605 115.331 75.271 115.272 74.8777 115.272C74.4844 115.272 74.0949 115.331 73.7315 115.446C73.3681 115.56 73.0379 115.729 72.7598 115.941C72.4817 116.153 72.2611 116.404 72.1106 116.681C71.96 116.958 71.8826 117.255 71.8826 117.555Z" fill="#754F50"/>
<path d="M34.6952 37.9184C32.0198 32.0826 31.3683 24.4782 31.0561 21.1788C30.7656 18.1146 33.4387 10.7944 34.7064 4.85932C34.8868 4.0152 35.4612 1.94801 36.5506 1.74084C37.6296 1.53595 39.5832 3.41822 40.2264 4.10881C43.9516 8.11363 46.6023 11.7766 48.0901 13.5995C49.7164 15.5925 51.6311 17.2122 55.6932 22.8573" fill="#FD9041"/>
<path d="M38.3941 5.09961C40.0054 6.83235 41.5015 8.59077 43.0792 10.5632C43.7209 11.3662 45.7935 14.0276 46.1836 14.5041C46.2974 14.644 46.4157 14.7849 46.5385 14.9293C46.9279 15.3853 48.7609 17.404 49.3465 18.0809C50.6935 19.6379 52.0698 21.3814 53.7238 23.6809C54.0103 24.0791 54.4926 24.3742 55.0645 24.5014C55.6364 24.6285 56.2512 24.5773 56.7736 24.359C57.296 24.1406 57.6832 23.773 57.85 23.3371C58.0169 22.9011 57.9496 22.4325 57.6632 22.0344C55.9507 19.655 54.5123 17.8315 53.0971 16.1963C52.4711 15.4721 50.6486 13.4665 50.3049 13.0636C50.201 12.9417 50.0986 12.819 49.9979 12.6955C49.6385 12.2554 47.5801 9.61295 46.9152 8.78197C45.2881 6.74617 43.7374 4.92382 42.0586 3.11917C41.4805 2.4978 40.8364 1.91368 40.1327 1.37273C38.755 0.332286 37.5614 -0.215616 36.007 0.0794523C34.5259 0.360823 33.7621 1.21978 33.1706 2.48737C32.8636 3.14542 32.6374 3.88738 32.4884 4.58424C32.2279 5.80332 31.8961 7.1394 31.4476 8.80765C31.3357 9.22352 31.2227 9.6392 31.1084 10.0547C28.9377 17.965 28.6247 19.3051 28.8142 21.3021C29.0141 23.411 29.0658 23.9275 29.2193 25.1677C29.6056 28.297 30.1343 31.1666 30.8958 33.8468C31.3727 35.5259 31.9283 37.0754 32.5738 38.4834C32.6711 38.6957 32.8224 38.8912 33.0189 39.0589C33.2154 39.2267 33.4533 39.3632 33.7191 39.4608C33.9848 39.5585 34.2732 39.6152 34.5677 39.6279C34.8622 39.6406 35.1572 39.6089 35.4356 39.5347C35.7141 39.4605 35.9707 39.3452 36.1907 39.1954C36.4107 39.0457 36.5899 38.8643 36.718 38.6618C36.846 38.4592 36.9205 38.2394 36.9371 38.0149C36.9538 37.7904 36.9122 37.5656 36.8149 37.3534C36.2346 36.0881 35.7269 34.6715 35.2866 33.122C34.5685 30.5936 34.0631 27.8518 33.6925 24.8469C33.5435 23.6404 33.4925 23.1376 33.2956 21.055C33.1533 19.5568 33.5083 18.0375 35.5068 10.7556C35.6333 10.2927 35.7449 9.88462 35.8497 9.49481C36.3095 7.7849 36.6516 6.40658 36.9235 5.13442C37.0027 4.75877 37.1097 4.38683 37.2439 4.02036C37.6558 4.35823 38.0773 4.75945 38.3941 5.09961Z" fill="#754F50"/>
<path d="M35.3271 5.16638C42.7625 15.3471 46.7303 22.132 47.1795 25.2818C47.2332 25.658 47.4808 26.0026 47.8679 26.2397C48.2549 26.4768 48.7496 26.5869 49.2432 26.546C49.7368 26.5051 50.1888 26.3163 50.4998 26.0213C50.8109 25.7264 50.9554 25.3493 50.9017 24.9731C50.3768 21.2987 46.2922 14.3135 38.5985 3.77894C38.479 3.61521 38.3183 3.47103 38.1257 3.35465C37.933 3.23827 37.7122 3.15196 37.4758 3.10065C37.2393 3.04935 36.992 3.03405 36.7478 3.05564C36.5036 3.07723 36.2674 3.13528 36.0526 3.22647C35.8377 3.31741 35.6485 3.43976 35.4956 3.58652C35.3428 3.73328 35.2295 3.90156 35.1621 4.08174C35.0947 4.26193 35.0746 4.45047 35.1029 4.63659C35.1312 4.8227 35.2074 5.00273 35.3271 5.16638Z" fill="#754F50"/>
<path d="M110.532 34.5533C113.218 28.709 113.63 23.4355 113.939 20.1298C114.225 17.0598 113.61 10.8217 112.32 4.873C112.137 4.02718 111.554 1.95485 110.455 1.74596C109.367 1.53935 107.401 3.42334 106.756 4.1145C103.009 8.12275 100.344 11.7903 98.8477 13.6155C97.2123 15.6107 95.2865 17.231 91.2034 22.883" fill="#FD9041"/>
<path d="M109.4 5.27488C107.663 6.94199 106.039 8.63991 104.32 10.549C103.62 11.3258 101.357 13.9032 100.933 14.3644C100.809 14.4996 100.681 14.636 100.547 14.7753C100.126 15.2153 98.1453 17.1598 97.5103 17.8133C96.0502 19.3154 94.5489 21.0037 92.7309 23.2352C92.4166 23.6211 91.9141 23.8959 91.334 23.9994C90.7538 24.1028 90.1435 24.0264 89.6373 23.7868C89.1311 23.5473 88.7705 23.1643 88.6347 22.7221C88.499 22.2799 88.5994 21.8147 88.9136 21.4289C90.7961 19.1185 92.3655 17.3533 93.899 15.7752C94.5774 15.0766 96.5452 13.1447 96.9181 12.7555C97.0341 12.6339 97.1457 12.5163 97.252 12.3999C97.6421 11.9741 99.89 9.41496 100.615 8.61023C102.388 6.64064 104.071 4.8805 105.881 3.14434C106.504 2.54591 107.192 1.98791 107.936 1.47609C109.388 0.495571 110.623 -0.00268047 112.154 0.354027C113.614 0.694183 114.323 1.58281 114.832 2.87152C115.097 3.5427 115.275 4.29493 115.378 4.99807C116.254 10.9639 116.48 17.4058 115.944 20.6995L115.859 21.2211L115.769 21.777C115.697 22.2159 115.631 22.6006 115.563 22.9835C114.748 27.5437 113.563 31.3887 111.402 35.4072C111.291 35.6167 111.127 35.8075 110.92 35.9686C110.712 36.1296 110.464 36.2577 110.191 36.3456C109.919 36.4334 109.626 36.4793 109.329 36.4804C109.033 36.4816 108.739 36.438 108.465 36.3523C108.191 36.2666 107.942 36.1404 107.732 35.981C107.522 35.8216 107.356 35.6322 107.242 35.4235C107.129 35.2149 107.071 34.9912 107.071 34.7654C107.072 34.5395 107.131 34.316 107.245 34.1077C109.24 30.3979 110.343 26.8177 111.11 22.5207C111.243 21.7738 111.368 21.0261 111.486 20.2777C111.97 17.2956 111.754 11.1003 110.914 5.37818C110.858 4.98903 110.772 4.60274 110.656 4.22131C110.209 4.55215 109.79 4.90404 109.4 5.27488Z" fill="#754F50"/>
<path d="M111.706 5.17833C104.209 15.3756 100.209 22.1713 99.7551 25.3252C99.7309 25.513 99.6581 25.6953 99.5409 25.8615C99.4236 26.0277 99.2643 26.1746 99.0721 26.2935C98.8799 26.4125 98.6586 26.5012 98.4211 26.5545C98.1836 26.6079 97.9345 26.6248 97.6884 26.6042C97.4423 26.5837 97.204 26.5261 96.9872 26.4349C96.7705 26.3437 96.5796 26.2206 96.4257 26.0727C96.2718 25.9249 96.1579 25.7553 96.0906 25.5737C96.0233 25.392 96.004 25.202 96.0337 25.0147C96.5623 21.3335 100.681 14.3363 108.439 3.78346C108.56 3.62001 108.721 3.47619 108.914 3.36024C109.107 3.24429 109.328 3.15847 109.564 3.1077C109.801 3.05692 110.048 3.04217 110.292 3.06431C110.537 3.08644 110.772 3.14502 110.987 3.2367C111.201 3.32807 111.39 3.45081 111.543 3.5979C111.695 3.74499 111.808 3.91353 111.875 4.09388C111.941 4.27423 111.961 4.46284 111.932 4.64892C111.903 4.83501 111.826 5.01491 111.706 5.17833Z" fill="#754F50"/>
<path d="M42.6801 40.2207C42.6801 42.1128 43.6267 43.9274 45.3118 45.2653C46.9969 46.6032 49.2824 47.3548 51.6654 47.3548C54.0485 47.3548 56.3339 46.6032 58.019 45.2653C59.7041 43.9274 60.6508 42.1128 60.6508 40.2207C60.6508 38.3286 59.7041 36.514 58.019 35.1761C56.3339 33.8382 54.0485 33.0865 51.6654 33.0865C49.2824 33.0865 46.9969 33.8382 45.3118 35.1761C43.6267 36.514 42.6801 38.3286 42.6801 40.2207Z" fill="white"/>
<path d="M51.6654 49.0671C45.4416 49.0671 40.4337 45.0914 40.4337 40.2207C40.4337 35.3501 45.4416 31.3744 51.6654 31.3744C57.8893 31.3744 62.8971 35.3501 62.8971 40.2207C62.8971 45.0914 57.8893 49.0671 51.6654 49.0671ZM51.6654 45.6427C55.3659 45.6427 58.4044 43.2302 58.4044 40.2207C58.4044 37.2113 55.3659 34.7988 51.6654 34.7988C47.9649 34.7988 44.9264 37.2113 44.9264 40.2207C44.9264 43.2302 47.9649 45.6427 51.6654 45.6427Z" fill="#754F50"/>
<path d="M53.0087 42.1595C53.2789 42.4001 53.6142 42.5933 53.9916 42.7257C54.3691 42.8581 54.7797 42.9266 55.1952 42.9265C56.7901 42.9265 58.0832 41.9352 58.0832 40.7126C58.0832 39.4896 56.7901 38.4988 55.1952 38.4988C53.6197 38.4988 52.3386 39.4656 52.3071 40.6676L54.4486 40.9061L53.0087 42.1595Z" fill="#232323"/>
<path d="M68.1387 39.9354C68.1384 41.1347 68.4481 42.3223 69.0501 43.4304C69.6521 44.5385 70.5345 45.5453 71.647 46.3934C72.7595 47.2415 74.0803 47.9143 75.534 48.3733C76.9877 48.8323 78.5457 49.0686 80.1192 49.0686C81.6926 49.0686 83.2507 48.8323 84.7043 48.3733C86.158 47.9143 87.4788 47.2415 88.5913 46.3934C89.7038 45.5453 90.5863 44.5385 91.1882 43.4304C91.7902 42.3223 92.0999 41.1347 92.0996 39.9354C92.0999 38.7361 91.7902 37.5485 91.1882 36.4404C90.5863 35.3323 89.7038 34.3255 88.5913 33.4774C87.4788 32.6293 86.158 31.9565 84.7043 31.4975C83.2507 31.0385 81.6926 30.8022 80.1192 30.8022C78.5457 30.8022 76.9877 31.0385 75.534 31.4975C74.0803 31.9565 72.7595 32.6293 71.647 33.4774C70.5345 34.3255 69.6521 35.3323 69.0501 36.4404C68.4481 37.5485 68.1384 38.7361 68.1387 39.9354Z" fill="white"/>
<path d="M80.1192 50.7792C72.2615 50.7792 65.8923 45.924 65.8923 39.9353C65.8923 33.9466 72.2615 29.0914 80.1192 29.0914C87.9769 29.0914 94.346 33.9466 94.346 39.9353C94.346 45.924 87.9769 50.7792 80.1192 50.7792ZM80.1192 47.3548C85.4954 47.3548 89.8533 44.0332 89.8533 39.9353C89.8533 35.8375 85.4954 32.5158 80.1192 32.5158C74.7429 32.5158 70.385 35.8375 70.385 39.9353C70.385 44.0332 74.7429 47.3548 80.1192 47.3548Z" fill="#754F50"/>
<path d="M82.5257 43.5128C83.0248 43.9538 83.689 44.2678 84.4291 44.4127C85.1691 44.5576 85.9496 44.5265 86.6658 44.3234C87.382 44.1204 87.9995 43.7552 88.4354 43.2769C88.8714 42.7986 89.1048 42.23 89.1045 41.6476C89.0976 40.8991 88.7053 40.1827 88.012 39.6526C87.3188 39.1225 86.3801 38.8211 85.3981 38.8135C84.4162 38.8059 83.4696 39.0925 82.7623 39.6118C82.055 40.131 81.6436 40.8412 81.6167 41.5894L84.3924 41.897L82.5257 43.5128Z" fill="#232323"/>
<path d="M79.3614 59.7289C74.1978 62.4005 70.0413 64.4803 66.9855 65.4888C62.528 66.9607 57.026 68.4115 49.2147 68.4115C48.3634 68.6929 45.2859 68.8424 44.5438 68.4218C43.3899 67.7671 39.2065 64.7377 40.579 64.2897C44.564 62.9901 51.3802 59.2181 53.7913 55.7287C54.8231 54.2345 55.7598 51.6571 58.4816 45.5074" fill="#FD9041"/>
<path d="M43.3278 65.1811C48.1342 63.2235 53.634 59.6285 55.7733 56.5317C56.4749 55.5163 56.9279 54.5518 58.4884 50.9254C59.1832 49.3009 59.8886 47.679 60.6044 46.0599C60.6987 45.8468 60.737 45.6217 60.7171 45.3974C60.6972 45.1731 60.6195 44.954 60.4885 44.7525C60.3575 44.5511 60.1758 44.3713 59.9536 44.2234C59.7314 44.0755 59.4732 43.9624 59.1937 43.8905C58.9142 43.8187 58.6189 43.7895 58.3246 43.8047C58.0303 43.8198 57.7428 43.879 57.4785 43.9789C57.2142 44.0787 56.9783 44.2173 56.7843 44.3866C56.5902 44.5559 56.4419 44.7527 56.3476 44.9658C55.6378 46.5695 55.202 47.5746 54.2196 49.8587C52.7662 53.2374 52.3267 54.1711 51.798 54.9359C49.9111 57.6674 43.9725 61.3241 39.691 62.7207C37.873 63.3137 37.7217 64.6172 38.4143 65.757C38.7251 66.2684 39.232 66.8071 39.9119 67.4047C40.9145 68.2859 42.3604 69.3246 43.1975 69.8C44.4952 70.5363 47.7576 70.5397 49.5876 70.1271C56.4472 70.0911 61.7987 69.0695 67.8736 67.0645C70.7324 66.1205 74.0713 64.5373 80.6186 61.15C80.8649 61.0245 81.0762 60.863 81.2404 60.675C81.4045 60.4869 81.5182 60.276 81.5749 60.0543C81.6316 59.8326 81.6302 59.6045 81.5707 59.3832C81.5113 59.162 81.395 58.9518 81.2286 58.765C81.0621 58.5781 80.8488 58.4182 80.6009 58.2944C80.353 58.1706 80.0755 58.0855 79.7842 58.0438C79.493 58.0022 79.1938 58.0049 78.9039 58.0517C78.614 58.0986 78.3392 58.1887 78.0952 58.3169C71.8047 61.5718 68.5872 63.0974 66.0885 63.9226C60.4255 65.7924 55.5719 66.7044 49.2102 66.7044H48.7445L48.3177 66.8454C48.3297 66.8414 48.1515 66.8733 47.8991 66.9019C47.5629 66.9395 47.1631 66.9652 46.773 66.9732C46.4335 66.9829 46.0937 66.9733 45.7561 66.9447C45.074 66.5583 44.0422 65.8061 43.3278 65.1811Z" fill="#754F50"/>
<path d="M43.4364 63.635L46.722 66.1394C47.1135 66.4377 47.4123 66.7991 47.5966 67.197C47.7809 67.5948 47.846 68.0191 47.7872 68.4386C47.7283 68.8582 47.5469 69.2623 47.2563 69.6215C46.9658 69.9806 46.5734 70.2856 46.108 70.5141C45.0135 71.0514 43.7106 71.2868 42.4161 71.1812C41.1216 71.0756 39.9136 70.6353 38.9931 69.9336L38.6487 69.6711C37.715 68.9595 37.1212 68.0298 36.9621 67.0307C36.803 66.0316 37.0878 65.0207 37.7711 64.1595C38.0557 63.801 38.4436 63.4966 38.9053 63.2691C39.367 63.0417 39.8906 62.8972 40.4363 62.8467C40.9821 62.7962 41.5357 62.8409 42.0555 62.9775C42.5752 63.114 43.0474 63.3389 43.4364 63.635Z" fill="#966745"/>
<path d="M42.0189 64.846C41.8789 64.7276 41.7054 64.635 41.5116 64.5752C41.3177 64.5153 41.1086 64.4899 40.8999 64.5007C40.6913 64.5115 40.4886 64.5584 40.3071 64.6377C40.1257 64.717 39.9703 64.8267 39.8527 64.9585C39.3935 65.4746 39.1744 66.0931 39.2303 66.7152C39.2862 67.3374 39.6139 67.9273 40.1612 68.3909L40.4876 68.6665C41.0153 69.1133 41.7277 69.4089 42.5064 69.5041C43.2851 69.5994 44.0832 69.4885 44.7677 69.1899C44.957 69.1072 45.1197 68.9933 45.2438 68.8564C45.3678 68.7196 45.4502 68.5633 45.4847 68.3991C45.5192 68.2349 45.5051 68.0668 45.4434 67.9073C45.3816 67.7477 45.2738 67.6008 45.1278 67.4771L42.0189 64.846ZM45.3577 62.5546L48.4666 65.1862C49.0612 65.6897 49.5004 66.2883 49.752 66.9381C50.0036 67.5878 50.0611 68.2722 49.9205 68.9412C49.7798 69.6101 49.4445 70.2465 48.9391 70.8038C48.4337 71.361 47.7711 71.825 46.9998 72.1617C45.4244 72.8489 43.5878 73.1043 41.7955 72.8853C40.0033 72.6663 38.3634 71.9861 37.1488 70.958L36.8224 70.6818C35.6028 69.6493 34.8725 68.3351 34.748 66.949C34.6236 65.563 35.1122 64.1852 36.1357 63.0357C36.6359 62.4741 37.2971 62.0065 38.0693 61.6684C38.8416 61.3303 39.7046 61.1305 40.5931 61.0842C41.4815 61.0378 42.3722 61.1461 43.1977 61.4009C44.0232 61.6556 44.7618 62.0501 45.3577 62.5546Z" fill="#754F50"/>
<path d="M49.6535 66.7341C56.6883 66.4875 61.0656 65.737 66.3161 63.8553C69.8159 62.6002 73.6683 60.8281 77.8727 58.5395L72.1259 54.7561C62.1049 61.0598 54.4 64.664 49.0103 65.5692C49.2993 66.0286 49.5599 66.2221 49.6535 66.7341Z" fill="#FFF3BD"/>
<path d="M105.256 68.3492L123.475 75.5593C123.849 75.7071 124.208 75.8749 124.552 76.061C128.592 78.2566 129.533 82.5331 126.652 85.6127L113.903 99.2452C115.14 100.42 114.038 104.656 112.78 105.419C111.234 106.357 90.9503 105.648 90.6021 105.419C88.1087 103.78 87.0297 99.6082 91.6354 98.4239L105.256 97.8372L112.875 88.4607C113.098 88.187 113.242 87.8806 113.298 87.5615C113.354 87.2424 113.321 86.9178 113.201 86.6092C113.081 86.3005 112.876 86.0147 112.601 85.7706C112.326 85.5264 111.986 85.3295 111.603 85.1927L102.527 81.9424" fill="#FD9041"/>
<path d="M111.407 103.966C111.318 103.978 111.218 103.989 111.107 104C110.506 104.06 109.665 104.106 108.626 104.136C106.698 104.192 104.151 104.193 101.292 104.145C98.9005 104.106 96.5103 104.037 94.1221 103.938C93.3434 103.907 92.5653 103.867 91.7881 103.819C91.1052 103.267 90.7069 102.468 90.7039 101.746C90.7001 100.965 91.1112 100.433 92.0996 100.118L105.383 99.5466C105.744 99.531 106.094 99.4495 106.404 99.3088C106.714 99.1681 106.976 98.9725 107.166 98.7384L114.785 89.3619C115.175 88.8829 115.427 88.3466 115.525 87.7881C115.624 87.2295 115.566 86.6615 115.355 86.1212C115.145 85.581 114.787 85.0808 114.305 84.6535C113.823 84.2262 113.228 83.8815 112.559 83.642L103.483 80.3923C103.216 80.2966 102.927 80.2419 102.632 80.2314C102.337 80.2209 102.043 80.2547 101.765 80.331C101.488 80.4073 101.233 80.5245 101.015 80.6759C100.797 80.8274 100.62 81.01 100.495 81.2136C100.369 81.417 100.298 81.6373 100.284 81.8619C100.27 82.0864 100.314 82.3109 100.415 82.5224C100.515 82.7338 100.668 82.9282 100.867 83.0944C101.066 83.2606 101.305 83.3953 101.572 83.4908L110.648 86.7411C111.023 86.8746 111.184 87.2148 111.007 87.5002C110.999 87.5133 108.651 90.4058 103.962 96.177L91.5088 96.7141C91.3067 96.7232 91.1082 96.7517 90.9173 96.8008C84.9248 98.3418 84.9473 103.963 89.1352 106.716C89.8608 107.193 89.586 107.175 93.8712 107.357C96.0187 107.448 98.6657 107.526 101.192 107.568C108.9 107.697 112.819 107.583 114.178 106.76C116.066 105.615 117.17 101.847 116.432 99.4907L128.481 86.607C132.082 82.7568 130.906 77.4108 125.855 74.6667C125.426 74.4338 124.977 74.2242 124.511 74.0395L106.291 66.83C106.029 66.7263 105.743 66.663 105.45 66.6436C105.156 66.6242 104.86 66.6491 104.578 66.7169C104.297 66.7847 104.036 66.8941 103.81 67.0388C103.584 67.1835 103.398 67.3607 103.262 67.5602C103.126 67.7598 103.043 67.9778 103.018 68.2018C102.992 68.4259 103.025 68.6515 103.114 68.8659C103.203 69.0803 103.346 69.2793 103.536 69.4514C103.726 69.6235 103.958 69.7655 104.22 69.8691L122.441 77.0786C123.297 77.4174 124.048 77.8923 124.643 78.4714C125.238 79.0505 125.662 79.7202 125.888 80.4351C126.114 81.1501 126.136 81.8937 125.952 82.6156C125.768 83.3376 125.383 84.021 124.823 84.6197L112.074 98.2516C111.79 98.5554 111.644 98.9215 111.658 99.2943C111.672 99.6671 111.846 100.026 112.152 100.317C112.138 100.385 112.169 100.532 112.186 100.714C112.222 101.129 112.178 101.658 112.061 102.211C111.945 102.754 111.766 103.28 111.561 103.69C111.515 103.783 111.463 103.876 111.407 103.966Z" fill="#754F50"/>
<path d="M90.1281 103.287H94.5114C94.9086 103.287 95.2895 103.166 95.5703 102.952C95.8512 102.738 96.009 102.448 96.009 102.145C96.009 101.842 95.8512 101.552 95.5703 101.338C95.2895 101.124 94.9086 101.004 94.5114 101.004H90.1281C89.7309 101.004 89.35 101.124 89.0691 101.338C88.7883 101.552 88.6305 101.842 88.6305 102.145C88.6305 102.448 88.7883 102.738 89.0691 102.952C89.35 103.166 89.7309 103.287 90.1281 103.287ZM115.296 88.7329L118.171 84.336C118.432 83.9301 118.471 83.4622 118.281 83.0343C118.09 82.6064 117.686 82.2532 117.155 82.0517C116.625 81.8502 116.011 81.8167 115.448 81.9585C114.885 82.1003 114.419 82.4059 114.15 82.8087L111.276 87.2056C111.144 87.4068 111.066 87.6258 111.045 87.8501C111.025 88.0744 111.063 88.2995 111.156 88.5127C111.25 88.7259 111.398 88.9229 111.591 89.0926C111.785 89.2622 112.02 89.4011 112.284 89.5014C112.548 89.6017 112.835 89.6614 113.13 89.677C113.424 89.6927 113.719 89.664 113.999 89.5926C114.279 89.5213 114.537 89.4086 114.76 89.2611C114.982 89.1136 115.164 88.9341 115.296 88.7329Z" fill="#754F50"/>
</svg>
