<svg width="188" height="149" viewBox="0 0 188 149" fill="none" xmlns="http://www.w3.org/2000/svg">
<path d="M99.1046 31.7623L113.284 29.7585C120.164 28.786 126.771 32.2629 128.043 37.5239C128.156 37.9959 128.225 38.4736 128.246 38.953C128.534 45.3726 122.521 50.9503 114.226 51.9605L112.142 52.2145C107.938 52.7267 103.629 52.1951 99.8485 50.6977C96.0679 49.2004 93.0141 46.816 91.1352 43.8944C88.4207 39.6744 90.6941 34.5709 96.2133 32.4951C97.1285 32.1505 98.1014 31.9039 99.1046 31.7623Z" fill="white"/>
<path d="M92.1174 11.6435L88.5215 4.76843C87.0624 2.17445 83.1672 1.00388 79.8206 2.15505C79.6639 2.20927 79.5072 2.26919 79.3557 2.33197C76.1778 3.66406 74.9747 6.73973 76.6688 9.20187C76.7636 9.33884 76.8636 9.47125 76.9748 9.60024L81.6581 16.0107" fill="#F4FDFF"/>
<path d="M74.6866 9.99918C72.4252 6.71176 74.0291 2.61219 78.2802 0.830941C78.4832 0.745331 78.6907 0.666568 78.9034 0.594085C83.3919 -0.950315 88.626 0.62148 90.5784 4.09153L94.1952 11.0071C94.3958 11.4254 94.3754 11.8871 94.1381 12.2941C93.9009 12.7011 93.4655 13.0214 92.9245 13.1869C92.3835 13.3525 91.7795 13.3503 91.2405 13.1808C90.7016 13.0114 90.2703 12.6879 90.0381 12.2792L86.4437 5.40421C86.2071 4.98382 85.8579 4.606 85.4186 4.29511C84.9793 3.98421 84.4598 3.74714 83.8934 3.59917C83.327 3.4512 82.7264 3.3956 82.1302 3.43597C81.534 3.47634 80.9555 3.61178 80.4319 3.83356C78.3273 4.71477 77.5242 6.76769 78.6504 8.40512C78.7124 8.4953 78.7803 8.58376 78.8519 8.6688L78.9281 8.76582L83.6128 15.1751C83.886 15.5706 83.9461 16.0321 83.7802 16.461C83.6143 16.8899 83.2356 17.2521 82.725 17.4703C82.2144 17.6885 81.6125 17.7453 81.0479 17.6286C80.4833 17.5118 80.0008 17.2309 79.7035 16.8457L75.0531 10.482C74.9227 10.3249 74.8007 10.1638 74.6873 9.99918H74.6866Z" fill="#754F50"/>
<path d="M81.2447 9.52092L82.9568 12.3306C83.1217 12.6011 83.3547 12.844 83.6423 13.0456C83.93 13.2471 84.2668 13.4034 84.6334 13.5055C85.0001 13.6075 85.3894 13.6533 85.7793 13.6403C86.1691 13.6273 86.5517 13.5557 86.9053 13.4296C87.259 13.3035 87.5766 13.1253 87.8402 12.9054C88.1038 12.6854 88.3082 12.4278 88.4416 12.1474C88.5751 11.8671 88.635 11.5693 88.618 11.2712C88.601 10.9731 88.5073 10.6805 88.3424 10.4101L86.6303 7.60041C86.4654 7.32999 86.2325 7.08706 85.9448 6.88548C85.6571 6.68391 85.3203 6.52764 84.9537 6.42559C84.587 6.32354 84.1977 6.27772 83.8079 6.29074C83.418 6.30376 83.0354 6.37536 82.6818 6.50147C82.3282 6.62757 82.0105 6.8057 81.7469 7.02569C81.4833 7.24568 81.2789 7.50321 81.1455 7.7836C81.012 8.06398 80.9521 8.36171 80.9691 8.65981C80.9862 8.9579 81.0798 9.25051 81.2447 9.52092Z" fill="#A8EFFF"/>
<path d="M47.157 106.084L71.678 112.422V117.916L47.6861 118.944C42.2863 119.174 37.6635 116.014 37.362 111.886C37.3515 111.747 37.3463 111.607 37.3463 111.468C37.3463 108.329 40.6735 105.785 44.7776 105.785C45.5868 105.784 46.3907 105.885 47.157 106.084Z" fill="#E5FBFF"/>
<path d="M46.4398 107.704C45.6586 107.502 44.8257 107.446 44.0101 107.539C43.1946 107.632 42.4197 107.872 41.7497 108.24C41.0798 108.608 40.5339 109.092 40.1574 109.653C39.7809 110.214 39.5846 110.836 39.5846 111.466C39.5846 111.573 39.5883 111.681 39.5966 111.789C39.8294 114.974 43.3954 117.412 47.5608 117.233L69.439 116.297V113.65L46.4398 107.704ZM73.9171 111.193V119.536L47.8115 120.653C41.1766 120.937 35.4976 117.054 35.126 111.981C35.1134 111.81 35.1072 111.639 35.1073 111.468C35.1073 107.384 39.4368 104.073 44.7776 104.073C45.8307 104.073 46.8764 104.204 47.8742 104.463L73.9171 111.193Z" fill="#754F50"/>
<path d="M158.753 113.291C157.681 110.089 156.042 107.034 153.852 104.246C148.72 97.7167 141.659 91.8963 136.214 91.2902L101.859 106.553C99.3539 109.422 98.3553 113.029 99.5964 117.223C102.009 125.373 110.878 131.483 121.746 132.484C129.24 133.174 135.476 133.519 140.453 133.519C147.55 133.519 150.731 132.582 157.898 130.711L162.752 133.148L162.839 133.19C164.012 133.754 165.43 133.938 166.781 133.703C168.132 133.467 169.305 132.83 170.042 131.933L184.494 114.34C184.961 113.772 185.233 113.124 185.285 112.454C185.338 111.784 185.169 111.115 184.794 110.509C184.42 109.902 183.851 109.378 183.141 108.983C182.432 108.589 181.604 108.338 180.733 108.252L173.307 107.526C171.397 107.339 169.456 107.487 167.631 107.959C165.807 108.43 164.146 109.214 162.776 110.249L158.753 113.291Z" fill="#E5FBFF"/>
<path d="M161.204 109.032C162.816 107.814 164.769 106.892 166.916 106.337C169.063 105.782 171.347 105.608 173.595 105.828L181.021 106.555C185.109 106.955 188 109.814 187.474 112.941C187.337 113.762 186.967 114.551 186.392 115.252L171.939 132.844C169.747 135.514 165.14 136.318 161.649 134.641C161.607 134.62 160.254 133.94 157.586 132.602C152.546 133.917 151.698 134.117 149.594 134.496C146.763 135.005 144.017 135.231 140.454 135.231C135.377 135.231 129.057 134.882 121.479 134.184C109.671 133.098 100.035 126.458 97.4119 117.6C96.0864 113.121 97.0275 109.001 99.998 105.602C100.188 105.385 100.44 105.204 100.735 105.072L135.088 89.8097C135.525 89.615 136.035 89.5395 136.536 89.5957C142.504 90.2606 149.874 95.8629 155.77 103.365C157.43 105.483 158.791 107.73 159.83 110.068L161.204 109.032ZM103.45 107.827C101.386 110.37 100.764 113.416 101.779 116.845C103.983 124.289 112.085 129.87 122.014 130.785C129.427 131.467 135.577 131.808 140.453 131.808C143.683 131.808 146.085 131.61 148.568 131.164C150.599 130.797 151.385 130.603 157.174 129.091C157.497 129.007 157.84 128.98 158.179 129.013C158.517 129.046 158.841 129.137 159.126 129.28L163.98 131.717C165.427 132.413 167.269 132.091 168.146 131.023L182.598 113.431C182.829 113.151 182.977 112.835 183.031 112.507C183.131 111.906 182.915 111.3 182.431 110.821C181.947 110.342 181.234 110.029 180.449 109.951L173.022 109.225C171.449 109.071 169.85 109.193 168.348 109.581C166.845 109.97 165.478 110.615 164.351 111.468L160.326 114.509C159.097 115.438 157.012 114.997 156.583 113.716C155.553 110.643 153.988 107.747 151.932 105.129C146.963 98.8079 140.819 94.0001 136.595 93.1L103.45 107.827Z" fill="#754F50"/>
<path d="M175.699 108.472L172.615 111.686C172.436 111.867 172.305 112.073 172.231 112.293C172.158 112.513 172.142 112.742 172.184 112.967C172.227 113.191 172.328 113.407 172.481 113.602C172.634 113.796 172.836 113.965 173.076 114.1C173.315 114.234 173.587 114.331 173.875 114.384C174.164 114.437 174.463 114.446 174.756 114.41C175.05 114.373 175.33 114.293 175.582 114.173C175.834 114.053 176.053 113.896 176.225 113.711L179.309 110.498C179.649 110.131 179.788 109.677 179.694 109.233C179.601 108.789 179.283 108.391 178.808 108.125C178.334 107.859 177.742 107.746 177.161 107.811C176.579 107.876 176.054 108.114 175.699 108.472Z" fill="#754F50"/>
<path d="M113.635 58.6786L129.725 60.7195C131.323 60.8925 132.952 60.6682 134.369 60.0797L145.751 54.4734C145.739 54.3302 145.64 53.3354 145.64 53.1916C145.64 50.8345 147.381 50.3465 149.579 48.9311C149.744 47.9973 150.199 47.1072 150.905 46.3351C151.612 45.563 152.549 44.9312 153.64 44.4925L157.526 42.9201C159.153 42.2621 161.175 42.6856 162.123 43.8841C162.53 44.3971 162.68 45.0054 162.545 45.5964C162.411 46.1874 162 46.721 161.391 47.0985H167.752C170.75 47.0979 173.18 48.9408 173.18 51.2134C173.18 53.6858 171.147 55.8963 168.087 56.7512L158.778 59.3526L141.296 77.7753C139.41 79.2391 137 80.243 134.369 80.6603L113.637 83.7708" fill="#E5FBFF"/>
<path d="M143.423 53.5825C143.407 53.3873 143.401 53.2743 143.401 53.191C143.401 51.2317 144.284 50.0012 146.162 48.8141C146.328 48.7096 146.994 48.3147 147.528 47.9934C147.853 46.9288 148.473 45.9301 149.347 45.0649C150.22 44.1997 151.327 43.4883 152.592 42.9789L156.478 41.4065C159.151 40.3244 162.471 41.0207 164.038 42.996C164.608 43.7143 164.883 44.5471 164.826 45.3863H167.752C171.982 45.3857 175.42 47.9911 175.42 51.2134C175.42 54.4067 172.797 57.258 168.855 58.3596L160.189 60.7817L143.109 78.7815C143.043 78.8505 142.971 78.9158 142.892 78.9767C140.696 80.6816 137.888 81.8509 134.824 82.3371L114.067 85.4516C113.778 85.4949 113.481 85.4942 113.193 85.4497C112.905 85.4053 112.631 85.3178 112.387 85.1924C112.143 85.0669 111.933 84.9059 111.771 84.7186C111.608 84.5313 111.495 84.3214 111.439 84.1007C111.382 83.88 111.383 83.653 111.441 83.4326C111.499 83.2122 111.614 83.0028 111.778 82.8162C111.942 82.6295 112.152 82.4695 112.397 82.3451C112.642 82.2207 112.917 82.1344 113.205 82.0912L133.937 78.9818C136.072 78.6398 138.033 77.8349 139.586 76.6635L156.965 58.3464C157.227 58.0709 157.59 57.8611 158.008 57.7437L167.319 55.1429C169.498 54.5339 170.941 52.965 170.941 51.2134C170.941 49.8899 169.518 48.8106 167.752 48.8106H161.392C159.283 48.8106 158.343 46.784 159.98 45.7681C160.17 45.6513 160.297 45.486 160.34 45.3027C160.382 45.1194 160.337 44.9305 160.211 44.771C160.046 44.5665 159.784 44.4179 159.481 44.3551C159.177 44.2924 158.853 44.3203 158.575 44.4331L154.689 46.0055C153.913 46.3166 153.246 46.7653 152.743 47.3141C152.24 47.863 151.917 48.4959 151.8 49.1599C151.725 49.5812 151.448 49.9661 151.023 50.2403C150.541 50.5497 149.177 51.3538 149.018 51.4543C148.101 52.033 147.882 52.3412 147.882 53.191C147.882 53.1904 147.9 53.4319 147.927 53.711L147.967 54.1282C147.98 54.2651 147.985 54.3325 147.989 54.377C148.012 54.6793 147.929 54.9808 147.749 55.2506C147.569 55.5204 147.299 55.7489 146.966 55.9128L135.584 61.5186C133.603 62.3478 131.489 62.6389 129.413 62.4146L113.272 60.3674C112.982 60.3306 112.704 60.2505 112.454 60.1317C112.204 60.0128 111.988 59.8575 111.817 59.6746C111.471 59.3053 111.331 58.8461 111.429 58.3981C111.477 58.1762 111.581 57.9638 111.737 57.7729C111.892 57.582 112.095 57.4164 112.334 57.2855C112.817 57.0212 113.418 56.9144 114.004 56.9887L130.093 59.0296C131.139 59.1426 132.256 58.9942 133.235 58.6016L143.423 53.5825Z" fill="#754F50"/>
<path d="M161.995 49.8317L158.254 50.088C157.718 50.1246 157.201 50.2559 156.743 50.4715C156.286 50.6871 155.9 50.981 155.616 51.3301C155.332 51.6793 155.158 52.0741 155.108 52.4834C155.058 52.8927 155.133 53.3053 155.326 53.6887C155.533 54.0963 155.852 54.4651 156.261 54.77C156.671 55.0748 157.161 55.3087 157.7 55.4555C158.238 55.6023 158.811 55.6587 159.381 55.6208C159.95 55.5829 160.502 55.4517 160.999 55.236L163.861 53.994C164.441 53.7428 164.886 53.3438 165.121 52.8668C165.355 52.3898 165.362 51.865 165.142 51.3841C164.919 50.8942 164.488 50.4755 163.918 50.1943C163.347 49.913 162.671 49.7854 161.995 49.8317Z" fill="#94DBEB"/>
<path d="M55.8497 61.2349C51.2082 70.3678 49.1222 77.1252 47.6041 82.2629C46.3734 86.4299 45.692 92.269 45.5606 99.7815C45.2151 119.551 65.5208 135.92 91.3091 136.661L109.638 137.188C115.804 137.365 121.942 136.458 127.578 134.535C147.947 127.584 157.106 109.299 148.033 93.6936C145.038 88.541 142.587 84.7302 140.679 82.2629C137.669 78.37 131.676 72.2107 122.701 63.7849C120.733 61.9381 118.401 60.0033 115.701 57.9795L115.068 57.9098C126.374 54.9688 134.314 46.6978 134.314 36.9514C134.314 24.5317 121.172 15.4074 108.14 13.4356C98.821 11.6241 87.8536 11.1903 75.2404 12.1343C59.0082 13.3488 45.5562 22.3224 45.5562 34.8899C45.5562 41.6428 49.3028 47.51 54.9944 52.1335C59.2567 55.5967 56.8714 59.2254 55.8497 61.2349Z" fill="#F1FDFF"/>
<path d="M124.438 62.704C133.478 71.1913 139.523 77.4054 142.607 81.3926C144.567 83.9283 147.053 87.7911 150.08 92.999C159.653 109.467 149.989 128.763 128.49 136.099C122.541 138.129 116.063 139.087 109.553 138.9L91.2247 138.373C64.2214 137.597 42.9603 120.457 43.3216 99.7599C43.4551 92.1383 44.1493 86.1896 45.4203 81.8868C47.7869 73.8772 49.87 68.2754 53.7629 60.6157C53.8203 60.5021 54.2368 59.711 54.3592 59.4662C55.4892 57.2044 55.5698 55.6446 54.1681 54.0688C53.9268 53.7996 53.658 53.5454 53.3643 53.3086C46.9249 48.0784 43.3171 41.7524 43.3171 34.8899C43.3171 21.847 57.008 11.7776 75.0246 10.4306C87.8543 9.47068 99.0576 9.91071 108.635 11.7656C123.957 14.1062 136.555 24.5808 136.555 36.952C136.555 46.2578 129.77 54.4877 119.395 58.3904C121.273 59.8731 122.954 61.3102 124.438 62.704ZM114.348 56.2889C124.906 53.5426 132.076 45.8343 132.076 36.9514C132.076 26.2856 121.052 17.1345 107.705 15.1152C98.5396 13.3362 87.8296 12.9128 75.459 13.8379C59.6157 15.0239 47.7951 23.719 47.7951 34.8899C47.7951 40.8347 50.935 46.3394 56.6251 50.96C57.0953 51.3418 57.511 51.7362 57.8715 52.142C60.2784 54.8484 60.1419 57.4863 58.5424 60.687C58.4021 60.9672 57.9797 61.7708 57.9364 61.8547C54.1368 69.3319 52.1105 74.7806 49.7879 82.6402C48.5967 86.6707 47.9287 92.402 47.7989 99.8044C47.4697 118.645 66.8201 134.244 91.3927 134.95L109.721 135.477C115.546 135.644 121.342 134.786 126.665 132.97C145.905 126.405 154.558 109.131 145.989 94.3881C143.025 89.2904 140.607 85.5321 138.753 83.1327C135.814 79.3328 129.875 73.2277 120.966 64.8642C119.18 63.1874 117.076 61.4295 114.653 59.5906C112.413 59.2779 112.152 56.8602 114.348 56.2889Z" fill="#754F50"/>
<path d="M67.7821 59.2493L51.6932 61.2903C50.0957 61.4634 48.4676 61.2391 47.0495 60.6505L35.6678 55.0442C35.6783 54.9009 35.7783 53.9062 35.7783 53.7623C35.7783 51.4052 34.0371 50.9172 31.8398 49.5018C31.6743 48.568 31.2194 47.678 30.5129 46.9059C29.8064 46.1338 28.8688 45.502 27.7782 45.0632L23.8928 43.4909C22.2658 42.8328 20.2439 43.2563 19.2946 44.4548C18.888 44.9679 18.7383 45.5762 18.8732 46.1672C19.008 46.7582 19.4184 47.2918 20.0282 47.6692H13.6657C10.6684 47.6686 8.23901 49.5115 8.23901 51.7842C8.23901 54.2566 10.2721 56.467 13.3321 57.322L22.6419 59.9234L40.1227 78.346C42.0087 79.81 44.4196 80.8139 47.051 81.2311L67.7836 84.3416" fill="#F1FDFF"/>
<path d="M37.9949 54.1533C38.0113 53.9581 38.0188 53.8451 38.0188 53.7618C38.0188 51.8024 37.1344 50.5719 35.2558 49.3848C35.0909 49.2804 34.4244 48.8854 33.89 48.5641C33.5654 47.4995 32.9452 46.5008 32.0715 45.6356C31.1978 44.7704 30.091 44.059 28.8261 43.5497L24.9399 41.9773C22.2665 40.8952 18.9453 41.5915 17.3802 43.5668C16.8096 44.2849 16.5355 45.1179 16.5936 45.957H13.6657C9.43616 45.9564 6 48.5618 6 51.7842C6 54.9774 8.62264 57.8288 12.5633 58.9303L21.2306 61.3525L38.3106 79.3522C38.3763 79.4213 38.4487 79.4863 38.5271 79.5474C40.7237 81.2523 43.5312 82.4216 46.5958 82.9079L67.353 86.0224C67.9357 86.1098 68.54 86.0166 69.0329 85.7633C69.5258 85.51 69.8669 85.1174 69.9812 84.6717C70.0956 84.2261 69.9737 83.764 69.6425 83.3871C69.3112 83.0102 68.7978 82.7493 68.215 82.6619L47.4817 79.5514C45.3463 79.2092 43.3847 78.4044 41.8311 77.2331L24.4533 58.9183C24.1914 58.6427 23.8282 58.4329 23.4099 58.3156L14.1 55.7137C11.9207 55.1047 10.478 53.5357 10.478 51.7842C10.478 50.4606 11.9013 49.3814 13.6672 49.3814H20.029C22.1381 49.3814 23.077 47.3547 21.4396 46.3388C21.2498 46.2221 21.122 46.0567 21.0797 45.8733C21.0374 45.6899 21.0836 45.501 21.2097 45.3418C21.3755 45.1373 21.6367 44.9886 21.9405 44.9259C22.2442 44.8632 22.5678 44.891 22.8457 45.0039L26.7319 46.5762C27.5078 46.8875 28.1751 47.3363 28.678 47.8851C29.1809 48.4338 29.5047 49.0667 29.6225 49.7307C29.6971 50.1519 29.974 50.5371 30.3994 50.8111C30.88 51.1204 32.2444 51.9246 32.4041 52.025C33.3198 52.6037 33.5407 52.9119 33.5407 53.7618C33.5407 53.7612 33.5206 54.0026 33.4945 54.2817L33.4549 54.6989L33.4325 54.9477C33.4103 55.25 33.4933 55.5515 33.6731 55.8213C33.8528 56.0911 34.1229 56.3196 34.4558 56.4836L45.8375 62.0893C47.819 62.9186 49.9334 63.2096 52.0075 62.9853L68.1486 60.9381C68.7345 60.8638 69.2578 60.6146 69.6034 60.2452C69.949 59.8758 70.0885 59.4166 69.9913 58.9685C69.8941 58.5205 69.5682 58.1203 69.0851 57.8561C68.6021 57.5918 68.0016 57.4851 67.4157 57.5594L51.3268 59.6003C50.2472 59.7108 49.1494 59.5611 48.1862 59.1723L37.9949 54.1533Z" fill="#754F50"/>
<path d="M19.4229 50.4024L23.1636 50.6587C23.699 50.6953 24.216 50.8266 24.6738 51.0422C25.1315 51.2578 25.5175 51.5517 25.8013 51.9009C26.085 52.2501 26.2588 52.6449 26.3089 53.0542C26.359 53.4635 26.2841 53.8761 26.09 54.2594C25.8836 54.6671 25.5648 55.036 25.1552 55.3409C24.7456 55.6459 24.2549 55.8797 23.7164 56.0265C23.178 56.1734 22.6045 56.2297 22.035 56.1918C21.4655 56.1539 20.9134 56.0225 20.4163 55.8067L17.5548 54.5648C16.9754 54.3133 16.5299 53.9143 16.2958 53.4373C16.0618 52.9604 16.0541 52.4357 16.2741 51.9548C16.4983 51.4651 16.9297 51.0464 17.5 50.7653C18.0703 50.4841 18.747 50.3564 19.4229 50.4024Z" fill="#94DBEB"/>
<path d="M103.879 60.1619C106.887 60.162 109.848 60.7404 112.487 61.8439C115.127 62.9474 117.362 64.5406 118.986 66.4771L142.566 94.5976C151.07 104.737 147.214 118.228 133.953 124.731C132.1 125.64 130.115 126.381 128.039 126.941L112.963 131.005C105.578 132.995 97.4784 130.03 94.8751 124.382C94.3412 123.224 94.0684 122.005 94.0683 120.778V67.6648C94.0683 63.5201 98.4598 60.1619 103.879 60.1619ZM99.1046 31.7617L113.284 29.7579C120.164 28.7854 126.772 32.2623 128.043 37.5233C128.156 37.9953 128.225 38.473 128.246 38.9524C128.534 45.372 122.521 50.9497 114.226 51.9599L112.142 52.2139C107.938 52.7261 103.629 52.1945 99.8486 50.6972C96.0679 49.1998 93.0141 46.8154 91.1352 43.8938C88.4215 39.6738 90.6941 34.5697 96.2141 32.4946C97.1292 32.1503 98.1018 31.9037 99.1046 31.7617Z" fill="white"/>
<path d="M108.969 33.9802L115.907 32.8524C116.518 32.7533 117.151 32.769 117.752 32.898C118.353 33.027 118.905 33.2656 119.359 33.5933C119.813 33.921 120.156 34.3281 120.36 34.7795C120.563 35.231 120.62 35.7135 120.526 36.1855L120.494 36.3464C120.255 37.5398 119.547 38.6494 118.463 39.5273C117.38 40.4052 115.972 41.01 114.428 41.261C111.29 41.7713 108.076 40.6903 106.448 38.5757L106.378 38.485C106.059 38.0708 105.873 37.6045 105.836 37.1247C105.799 36.6448 105.912 36.1651 106.165 35.7251C106.418 35.2851 106.804 34.8974 107.292 34.594C107.779 34.2907 108.354 34.0803 108.969 33.9802Z" fill="#DE915C"/>
<path d="M109.397 35.7089C109.13 35.7559 108.882 35.8507 108.672 35.9856C108.463 36.1205 108.298 36.2916 108.192 36.4848C108.086 36.678 108.042 36.8877 108.063 37.0965C108.084 37.3054 108.17 37.5074 108.313 37.6859L108.385 37.7755C108.958 38.4896 109.809 39.048 110.819 39.3719C111.829 39.6957 112.946 39.7686 114.014 39.5802C115.109 39.387 116.101 38.9434 116.858 38.3083C117.615 37.6732 118.101 36.8768 118.251 36.0251L118.279 35.8636C118.314 35.6649 118.285 35.4628 118.195 35.2744C118.106 35.0861 117.958 34.9172 117.764 34.7821C117.57 34.6471 117.337 34.5499 117.083 34.499C116.83 34.4481 116.564 34.445 116.309 34.4898L109.397 35.7089ZM108.39 32.3724L115.301 31.1522C116.262 30.9826 117.263 30.9939 118.218 31.1851C119.172 31.3762 120.052 31.7416 120.781 32.2498C121.51 32.758 122.068 33.3939 122.405 34.1029C122.742 34.8119 122.85 35.573 122.718 36.3207L122.69 36.4823C122.419 38.0235 121.539 39.4649 120.169 40.6144C118.8 41.7639 117.004 42.567 115.023 42.9167C113.041 43.2666 110.965 43.1312 109.089 42.5297C107.213 41.9282 105.632 40.891 104.569 39.5648L104.498 39.4752C103.984 38.8338 103.677 38.1083 103.602 37.3583C103.526 36.6083 103.685 35.8554 104.066 35.1617C104.446 34.468 105.036 33.8533 105.788 33.3684C106.54 32.8834 107.432 32.542 108.39 32.3724Z" fill="#754F50"/>
<path d="M62.0398 21.8476L53.3472 18.502C51.8573 17.7405 50.8239 16.5576 50.4742 15.2135C50.1246 13.8695 50.4874 12.4742 51.4828 11.3347C51.5806 11.2228 53.7174 8.96274 53.8263 8.85716C54.9207 7.79544 56.5216 7.10954 58.2771 6.95028C60.0326 6.79103 61.7989 7.17146 63.1877 8.00791C63.3482 8.10436 63.7363 8.46677 63.8848 8.57407L69.5189 14.5662" fill="#F4FDFF"/>
<path d="M53.3456 12.2872C53.4151 12.2085 55.5175 9.98491 55.5862 9.91813C56.3036 9.22184 57.3495 8.7685 58.4993 8.65549C59.649 8.54247 60.8109 8.77881 61.7353 9.31373C61.7666 9.33884 61.8077 9.37309 61.8622 9.42046L62.0793 9.60652L62.1629 9.67615L67.7023 15.5672C68.051 15.9318 68.574 16.1762 69.1574 16.2473C69.7407 16.3183 70.3371 16.2102 70.8167 15.9464C71.2962 15.6827 71.6201 15.2847 71.7177 14.8392C71.8153 14.3937 71.6787 13.9368 71.3377 13.568L65.5797 7.44344L65.4259 7.33215C65.36 7.27095 65.2913 7.21155 65.2199 7.15408C64.9229 6.90068 64.7878 6.79167 64.5736 6.66325C60.7113 4.33638 55.1122 4.84433 52.0687 7.79844C51.9254 7.9377 49.7542 10.2332 49.6221 10.3844C46.8622 13.5434 47.9735 17.8159 52.1045 19.9265L52.2187 19.9853L61.0345 23.3771C61.5643 23.5772 62.1762 23.6089 62.7365 23.4655C63.2969 23.322 63.7604 23.0149 64.0259 22.6112C64.2914 22.2075 64.3375 21.7399 64.1541 21.3103C63.9706 20.8808 63.5725 20.5241 63.0466 20.318L54.4898 17.0255C53.5295 16.5053 52.8726 15.719 52.6589 14.8341C52.4452 13.9492 52.6916 13.0354 53.3456 12.2872Z" fill="#754F50"/>
<path d="M62.7107 12.3335L64.8438 14.1712C65.3254 14.5862 65.6091 15.1137 65.6488 15.6677C65.6885 16.2217 65.4818 16.7696 65.0624 17.2224C64.644 17.6738 64.0367 18.0026 63.3408 18.1544C62.6449 18.3063 61.9022 18.272 61.2352 18.0574L58.2312 17.0905C57.6878 16.9156 57.203 16.6493 56.8128 16.3114C56.4225 15.9735 56.1369 15.5727 55.9771 15.1387C55.8174 14.7048 55.7875 14.2489 55.8899 13.8049C55.9922 13.361 56.2241 12.9403 56.5683 12.5743C56.9132 12.2077 57.3615 11.9051 57.88 11.6889C58.3985 11.4726 58.974 11.3484 59.5638 11.3252C60.1537 11.3021 60.7427 11.3807 61.2875 11.5552C61.8322 11.7298 62.3186 11.9958 62.7107 12.3335Z" fill="#A6EFFF"/>
<path d="M83.3545 19.1406C83.3545 21.5814 84.4597 23.9222 86.4271 25.6481C88.3945 27.3741 91.0628 28.3437 93.8451 28.3437C96.6273 28.3437 99.2957 27.3741 101.263 25.6481C103.23 23.9222 104.336 21.5814 104.336 19.1406C104.336 16.6998 103.23 14.359 101.263 12.6331C99.2957 10.9072 96.6273 9.93756 93.8451 9.93756C91.0628 9.93756 88.3945 10.9072 86.4271 12.6331C84.4597 14.359 83.3545 16.6998 83.3545 19.1406Z" fill="white"/>
<path d="M109.604 17.0563C109.604 19.0957 110.554 21.0515 112.243 22.4936C113.933 23.9356 116.225 24.7458 118.615 24.7458C121.005 24.7458 123.297 23.9356 124.987 22.4936C126.677 21.0515 127.627 19.0957 127.627 17.0563C127.627 15.0169 126.677 13.0611 124.987 11.619C123.297 10.177 121.005 9.36682 118.615 9.36682C116.225 9.36682 113.933 10.177 112.243 11.619C110.554 13.0611 109.604 15.0169 109.604 17.0563Z" fill="white"/>
<path d="M118.174 26.9893C124.329 26.9893 129.146 22.6009 129.146 17.3217C129.146 12.0424 124.329 7.6546 118.174 7.6546C112.021 7.6546 107.204 12.0424 107.204 17.3217C107.204 22.6009 112.021 26.9893 118.174 26.9893ZM118.174 23.5649C114.684 23.5649 111.683 20.8299 111.683 17.3222C111.683 13.8145 114.686 11.079 118.174 11.079C121.665 11.079 124.668 13.8139 124.668 17.3217C124.668 20.8294 121.665 23.5649 118.174 23.5649Z" fill="#754F50"/>
<path d="M117.121 20.479C116.629 20.9692 115.9 21.2791 115.087 21.2791C113.603 21.2791 112.399 20.245 112.399 18.9699C112.399 17.6949 113.602 16.6602 115.087 16.6602C116.553 16.6602 117.745 17.6692 117.774 18.9231L115.783 19.172L117.121 20.479Z" fill="#232323"/>
<path d="M94.1198 30.3155C101.967 30.3155 108.249 25.0836 108.249 18.6994C108.249 12.3158 101.967 7.08389 94.1198 7.08389C86.2728 7.08389 79.9916 12.3158 79.9916 18.7C79.9923 25.0836 86.2728 30.3155 94.1198 30.3155ZM94.1198 26.8911C88.835 26.8911 84.4696 23.2544 84.4696 18.6994C84.4696 14.1444 88.835 10.5083 94.1198 10.5083C99.4047 10.5083 103.771 14.1444 103.771 18.6994C103.771 23.2544 99.4047 26.8911 94.1198 26.8911Z" fill="#754F50"/>
<path d="M93.4204 22.3378C92.7353 23.0016 91.7225 23.4211 90.5918 23.4211C88.5282 23.4211 86.8549 22.0211 86.8549 20.2941C86.8549 18.567 88.5282 17.1664 90.5918 17.1664C92.63 17.1664 94.2877 18.5328 94.328 20.2307L91.5576 20.568L93.4204 22.3378Z" fill="#232323"/>
<path d="M86.8967 105.713C91.2628 106.956 96.3775 109.057 102.241 112.017C111.448 116.666 116.318 125.022 114.718 133.428L114.29 135.681C106.175 137.803 98.3747 138.864 90.8911 138.864C85.9503 138.864 79.7594 138.518 72.3199 137.825C61.5285 136.819 52.724 130.679 50.3297 122.491C49.0975 118.277 50.0886 114.653 52.5769 111.77C54.8256 110.171 56.4766 109.099 57.5296 108.553" fill="#E5FBFF"/>
<path d="M90.8904 137.152C86.0511 137.152 79.9468 136.81 72.5901 136.125C62.7436 135.208 54.7033 129.601 52.5157 122.117C51.4843 118.593 52.15 115.472 54.3055 112.88C56.3713 111.418 57.8834 110.439 58.7865 109.97C59.2782 109.715 59.6174 109.322 59.7294 108.876C59.8414 108.43 59.7172 107.968 59.3839 107.592C59.0507 107.216 58.5358 106.956 57.9525 106.871C57.3692 106.785 56.7653 106.88 56.2736 107.135C55.1003 107.743 53.38 108.86 51.0522 110.516L50.8559 110.656L50.7081 110.826C47.7623 114.238 46.8294 118.37 48.1437 122.864C50.7447 131.758 60.3135 138.43 72.0467 139.524C79.5699 140.225 85.8466 140.576 90.8889 140.576C98.6284 140.576 106.671 139.482 115.012 137.3L116.306 136.961L116.931 133.674C118.657 124.613 113.405 115.603 103.472 110.588C97.4791 107.562 92.2211 105.402 87.6774 104.109C87.4014 104.029 87.1074 103.991 86.8125 103.999C86.5175 104.006 86.2273 104.058 85.9586 104.151C85.6898 104.244 85.4479 104.377 85.2466 104.542C85.0453 104.707 84.8887 104.901 84.7857 105.113C84.6828 105.324 84.6355 105.549 84.6467 105.775C84.6578 106 84.7272 106.222 84.8508 106.427C84.9743 106.632 85.1496 106.816 85.3667 106.969C85.5837 107.122 85.8381 107.241 86.1153 107.318C90.303 108.51 95.2744 110.552 101.007 113.446C109.487 117.728 113.977 125.431 112.501 133.182L112.272 134.389C104.848 136.234 97.7224 137.152 90.8904 137.152Z" fill="#754F50"/>
<path d="M78.8429 105.039C78.8428 105.311 78.9122 105.58 79.0472 105.832C79.1821 106.084 79.38 106.312 79.6295 106.505C79.879 106.697 80.1753 106.85 80.5013 106.954C80.8274 107.058 81.1768 107.112 81.5297 107.112C81.8826 107.112 82.2321 107.058 82.5581 106.954C82.8842 106.85 83.1804 106.697 83.4299 106.505C83.6794 106.312 83.8773 106.084 84.0123 105.832C84.1473 105.58 84.2167 105.311 84.2166 105.039C84.2167 104.766 84.1473 104.497 84.0123 104.245C83.8773 103.994 83.6794 103.765 83.4299 103.572C83.1804 103.38 82.8842 103.227 82.5581 103.123C82.2321 103.019 81.8826 102.965 81.5297 102.965C81.1768 102.965 80.8274 103.019 80.5013 103.123C80.1753 103.227 79.879 103.38 79.6295 103.572C79.38 103.765 79.1821 103.994 79.0472 104.245C78.9122 104.497 78.8428 104.766 78.8429 105.039Z" fill="#754F50"/>
<path d="M90.5754 117.498C97.6716 114.625 102.999 113.238 106.558 113.332C110.118 113.427 115.305 115.097 122.12 118.34L121.605 129.61C121.302 136.272 113.993 141.484 105.282 141.251C96.5708 141.018 89.7544 135.429 90.0597 128.768L90.5754 117.498V117.498Z" fill="#F4FDFF"/>
<path d="M92.2973 128.55C92.0361 134.267 97.8852 139.062 105.359 139.262C112.834 139.463 119.107 134.989 119.368 129.273L119.838 119C113.875 116.244 109.37 114.843 106.479 114.766C103.587 114.689 98.9636 115.846 92.7645 118.277L92.2973 128.55ZM89.5269 115.707C96.9418 112.705 102.583 111.234 106.636 111.342C110.686 111.451 116.181 113.218 123.306 116.608L124.405 117.132L123.845 129.392C123.499 136.999 115.153 142.951 105.205 142.685C95.2573 142.419 87.4752 136.037 87.823 128.431L88.3827 116.17L89.5269 115.707Z" fill="#754F50"/>
<path d="M90.244 124.756L90.6493 115.888C90.7523 113.627 93.0898 111.854 95.8707 111.928C98.6516 112.002 100.821 113.895 100.719 116.156L100.609 118.544" fill="#F4FDFF"/>
<path d="M100.609 118.506L100.891 112.336C101.003 109.894 103.647 107.984 106.798 108.067C109.949 108.151 112.413 110.199 112.3 112.64L112.018 118.81M112.01 119.013L112.143 116.134C112.239 114.053 114.569 112.427 117.348 112.501C120.13 112.576 122.305 114.322 122.211 116.402L121.837 124.562" fill="#F4FDFF"/>
<path d="M92.5315 124.54L92.9368 115.672C92.998 114.334 94.3302 113.323 95.8423 113.364C97.3551 113.404 98.5918 114.483 98.5306 115.821L98.4217 118.208C98.4062 118.659 98.6244 119.097 99.0288 119.426C99.4331 119.755 99.9909 119.948 100.581 119.964C101.171 119.98 101.745 119.817 102.179 119.511C102.612 119.205 102.87 118.78 102.897 118.329L103.006 115.941C103.151 112.757 100.047 110.05 95.9983 109.941C91.9516 109.833 88.6065 112.369 88.4617 115.551L88.0572 124.421C88.049 124.868 88.2706 125.301 88.6745 125.625C89.0783 125.95 89.6323 126.14 90.2176 126.156C90.803 126.171 91.373 126.011 91.8056 125.709C92.2381 125.407 92.4988 124.988 92.5315 124.54Z" fill="#754F50"/>
<path d="M103.068 118.565L103.35 112.396C103.418 110.895 105.031 109.728 106.941 109.779C108.849 109.83 110.353 111.08 110.285 112.581L110.003 118.75C109.982 119.204 110.198 119.645 110.603 119.977C111.008 120.31 111.569 120.505 112.162 120.521C112.756 120.537 113.333 120.372 113.768 120.062C114.202 119.753 114.458 119.324 114.478 118.87L114.761 112.701C114.915 109.319 111.492 106.473 107.097 106.357C102.704 106.24 99.0292 108.896 98.874 112.277L98.5926 118.446C98.5781 118.897 98.7968 119.334 99.2012 119.662C99.6056 119.99 100.163 120.183 100.753 120.199C101.342 120.215 101.916 120.052 102.349 119.746C102.783 119.44 103.041 119.016 103.068 118.565Z" fill="#754F50"/>
<path d="M114.261 119.37L114.393 116.49C114.445 115.364 115.729 114.469 117.284 114.51C118.84 114.552 120.038 115.513 119.987 116.64L119.614 124.8C119.6 125.25 119.818 125.688 120.223 126.016C120.627 126.344 121.185 126.537 121.774 126.553C122.363 126.569 122.937 126.406 123.371 126.1C123.804 125.794 124.062 125.37 124.089 124.919L124.462 116.759C124.6 113.726 121.445 111.194 117.44 111.088C113.433 110.981 110.056 113.337 109.918 116.372L109.787 119.251C109.766 119.705 109.982 120.146 110.387 120.479C110.792 120.811 111.353 121.006 111.946 121.022C112.539 121.037 113.116 120.872 113.55 120.562C113.984 120.252 114.24 119.824 114.261 119.37Z" fill="#754F50"/>
<path d="M106.83 122.085C110.723 122.19 113.768 124.686 113.632 127.662L113.509 130.364C113.373 133.341 110.106 135.669 106.215 135.565C102.322 135.461 99.2777 132.963 99.4136 129.988L99.5367 127.285C99.6718 124.31 102.937 121.981 106.83 122.085Z" fill="#94DBEB"/>
<path d="M115.807 55.9528C114.438 56.3295 113.172 56.6125 112.329 56.7518C110.48 57.0571 108.871 57.3693 106.175 57.2152C105.587 57.1875 105.008 57.338 104.565 57.6341C104.121 57.9302 103.847 58.348 103.804 58.7972C103.76 59.2463 103.95 59.6905 104.331 60.0336C104.713 60.3766 105.256 60.5909 105.843 60.6299C108.933 60.8063 110.956 60.7789 113.322 60.3879C114.384 60.2127 115.675 59.9131 117.216 59.4896C117.775 59.3358 118.231 59.0187 118.483 58.6079C118.736 58.1971 118.766 57.7264 118.565 57.2991C118.147 56.4094 116.971 55.632 115.807 55.9528Z" fill="#754F50"/>
<path d="M96.3058 58.7351C96.3058 59.2649 96.581 59.773 97.0709 60.1476C97.5608 60.5222 98.2252 60.7327 98.918 60.7327C99.6108 60.7327 100.275 60.5222 100.765 60.1476C101.255 59.773 101.53 59.2649 101.53 58.7351C101.53 58.2053 101.255 57.6972 100.765 57.3226C100.275 56.948 99.6108 56.7375 98.918 56.7375C98.2252 56.7375 97.5608 56.948 97.0709 57.3226C96.581 57.6972 96.3058 58.2053 96.3058 58.7351Z" fill="#754F50"/>
</svg>
