<svg width="174" height="143" viewBox="0 0 174 143" fill="none" xmlns="http://www.w3.org/2000/svg">
<path d="M84.5458 10.9686L80.8761 5.57337C78.652 2.18765 73.2462 0.750708 68.8025 2.36361C68.0659 2.63071 67.3845 2.97347 66.7739 3.38271C63.0736 5.86798 62.8034 10.1862 66.1694 13.028C66.7142 13.4877 67.3367 13.8918 68.0203 14.2282L75.4479 17.3291" fill="#C38155"/>
<path d="M76.669 15.785C77.1903 15.998 77.581 16.3607 77.7558 16.7939C77.9307 17.2271 77.8756 17.6958 77.6025 18.098C77.3294 18.5001 76.8606 18.8032 76.2979 18.9411C75.7353 19.079 75.1246 19.0406 74.5986 18.8342L67.1016 15.8331L66.9606 15.7712C66.1035 15.3653 65.3196 14.8746 64.629 14.3119C60.345 10.8202 60.5614 5.39225 65.141 2.20657C65.8964 1.68117 66.7431 1.23886 67.6569 0.892283C73.1537 -1.19349 79.9096 0.501954 82.7755 4.68037L86.552 10.0051C86.8329 10.4054 86.8959 10.8748 86.7272 11.3107C86.5585 11.7465 86.1719 12.1133 85.652 12.3308C85.132 12.5483 84.5211 12.5988 83.9528 12.4712C83.3845 12.3437 82.9051 12.0484 82.6196 11.6501L78.8274 6.30474C77.0765 3.75126 72.9567 2.71726 69.6399 3.97594C69.0951 4.18229 68.5928 4.4448 68.1472 4.75546C65.4403 6.63832 65.3112 9.85381 67.8883 11.9539C68.2929 12.2835 68.75 12.5725 69.2488 12.8142L76.669 15.785Z" fill="#754F50"/>
<path d="M99.2615 128.643C106.277 128.739 121.76 126.949 127.984 128.643C132.135 129.774 136.817 131.536 142.032 133.929L150.941 126.93C153.394 123.052 157.455 114.94 156.589 111.453C155.441 106.832 143.964 109.946 137.444 107.359C132.766 105.504 126.363 98.7509 123.512 97.0726" fill="#C38155"/>
<path d="M149.083 125.929C152.284 120.797 154.985 114.172 154.39 111.776C154.138 110.762 152.644 110.433 147.191 110.319C146.368 110.304 145.545 110.282 144.723 110.254C141.152 110.121 138.626 109.764 136.417 108.888C134.766 108.233 132.987 107.12 130.911 105.539C130.013 104.851 129.136 104.147 128.281 103.427C127.544 102.811 125.095 100.716 124.642 100.337C123.461 99.3481 122.669 98.7428 122.15 98.4373C121.682 98.159 121.377 97.7497 121.301 97.2989C121.224 96.8481 121.384 96.3924 121.744 96.0316C122.104 95.6708 122.636 95.4342 123.222 95.3735C123.809 95.3129 124.403 95.4331 124.874 95.7078C125.667 96.1744 126.587 96.8783 127.941 98.0126C128.417 98.4098 130.862 100.502 131.577 101.1C132.385 101.78 133.214 102.446 134.063 103.097C135.843 104.452 137.318 105.374 138.471 105.831C139.971 106.426 141.958 106.706 144.938 106.818C145.588 106.842 146.083 106.854 147.312 106.88C150.868 106.955 152.352 107.046 154.011 107.411C156.589 107.978 158.305 109.184 158.788 111.131C159.643 114.574 156.658 121.827 152.954 127.68L152.795 127.932L142.398 136.1L140.883 135.404C135.787 133.065 131.234 131.353 127.236 130.264C124.79 129.598 120.29 129.488 113.305 129.791C112.101 129.844 110.904 129.903 109.165 129.994C102.815 130.328 101.334 130.39 99.2219 130.362C98.927 130.359 98.6358 130.312 98.365 130.222C98.0941 130.132 97.8491 130.003 97.6438 129.84C97.4385 129.677 97.277 129.485 97.1687 129.275C97.0603 129.064 97.0072 128.839 97.0124 128.613C97.0176 128.386 97.0811 128.163 97.199 127.955C97.317 127.748 97.4872 127.56 97.6998 127.403C97.9125 127.246 98.1634 127.123 98.4382 127.041C98.7129 126.959 99.0062 126.919 99.301 126.924C101.222 126.95 102.695 126.888 108.859 126.563C110.257 126.488 111.655 126.419 113.053 126.358C120.667 126.027 125.51 126.146 128.734 127.022C132.621 128.082 136.928 129.662 141.657 131.763L149.083 125.929Z" fill="#754F50"/>
<path d="M146.497 133.303C143.367 133.266 139.026 132.424 137.924 130.981C135.093 127.276 136.72 120.05 137.926 117.292C139.123 114.56 142.808 110.683 147.738 108.26C151.634 106.345 158.258 105.345 162.49 107.776C166.722 110.207 164.311 117.261 161.589 122.443C158.011 129.257 151.906 133.365 146.497 133.303Z" fill="#C38155"/>
<path d="M146.497 133.303C143.367 133.266 139.026 132.424 137.923 130.981C135.093 127.276 136.72 120.05 137.926 117.292C139.123 114.56 142.807 110.683 147.738 108.26C151.634 106.345 158.258 105.345 162.49 107.776C166.722 110.207 164.311 117.261 161.589 122.443C158.01 129.257 151.906 133.365 146.497 133.303ZM165.743 123.729C167.458 120.464 168.668 117.279 169.095 114.478C169.719 110.386 168.716 107.057 165.172 105.022C159.655 101.852 151.286 102.434 145.325 105.362C139.929 108.013 135.342 112.4 133.682 116.196C131.453 121.291 130.886 128.566 134.061 132.721C136.096 135.386 141.392 136.683 146.429 136.742C154.167 136.831 161.628 131.563 165.743 123.729Z" fill="#754F50"/>
<path d="M161.913 113.716C160.473 113.208 158.801 113.774 156.883 114.535C154.963 115.297 151.949 117.316 150.831 119.055C149.893 120.516 148.548 123.01 148.681 125.721C148.746 127.079 149.315 128.502 150.997 129.034C152.539 129.522 154.6 128.75 155.583 127.988C156.568 127.228 158.623 125.454 159.864 123.297C161.104 121.141 161.942 118.271 162.199 117.265C162.457 116.258 163.354 114.222 161.913 113.716Z" fill="#FFDDAD"/>
<path d="M163.417 107.746L159.715 111.294C159.344 111.65 158.804 111.878 158.214 111.929C157.623 111.979 157.031 111.847 156.568 111.562C156.104 111.277 155.807 110.862 155.742 110.409C155.676 109.955 155.848 109.501 156.219 109.145L159.921 105.596C160.293 105.24 160.833 105.012 161.423 104.962C162.013 104.912 162.605 105.044 163.068 105.329C163.298 105.47 163.489 105.645 163.631 105.842C163.773 106.04 163.863 106.258 163.895 106.482C163.927 106.707 163.902 106.934 163.82 107.151C163.738 107.368 163.601 107.57 163.417 107.746ZM157.202 106.907L154.917 109.358C154.571 109.729 154.048 109.979 153.462 110.053C152.876 110.128 152.275 110.02 151.792 109.755C151.31 109.489 150.984 109.087 150.887 108.637C150.79 108.187 150.93 107.726 151.276 107.355L153.561 104.905C153.731 104.719 153.947 104.56 154.197 104.439C154.447 104.317 154.726 104.235 155.018 104.196C155.31 104.158 155.608 104.164 155.897 104.215C156.185 104.266 156.458 104.361 156.699 104.493C156.939 104.625 157.143 104.793 157.299 104.987C157.455 105.18 157.559 105.395 157.606 105.619C157.653 105.844 157.641 106.073 157.572 106.294C157.502 106.515 157.376 106.724 157.202 106.907Z" fill="#754F50"/>
<path d="M117.374 60.8264C124.021 74.3349 127.502 84.1648 127.82 90.3143C128.074 95.2253 127.371 101.624 125.713 109.51C123.259 121.172 110.148 129.743 94.767 129.743H65.2216C49.7566 129.743 37.2196 120.115 37.2196 108.239C37.2196 104.371 38.5772 100.575 41.1506 97.2503C43.2418 94.5489 44.7867 92.2373 45.7868 90.3138C48.6759 84.7563 50.2395 74.8072 50.4776 60.4671C41.4715 56.6371 35.4388 49.222 35.5836 40.7741C35.809 27.6381 48.7603 16.6963 65.7657 15.2743C71.5311 14.7922 76.5331 14.5463 80.7731 14.5366C85.7557 14.5251 91.9846 14.9711 99.4607 15.8744C116.121 17.8885 128.696 28.5546 129.656 41.4859L129.727 42.4385C130.296 50.0978 125.27 57.0091 117.374 60.8264Z" fill="#C38155"/>
<path d="M129.726 42.438L129.656 41.4854C128.695 28.5541 116.121 17.8885 99.4601 15.8738C91.9847 14.9711 85.7557 14.5251 80.7732 14.5366C76.5332 14.5464 71.5312 14.7922 65.7657 15.2743C48.7603 16.6963 35.8091 27.6381 35.5837 40.7741C35.4389 49.222 41.4708 56.6377 50.4784 60.4676C50.2403 74.8084 48.6767 84.7569 45.7876 90.3144C44.7876 92.2374 43.2426 94.5495 41.1514 97.2509C38.5783 100.576 37.2203 104.372 37.2204 108.239C37.2204 120.115 49.7567 129.743 65.2216 129.743H94.7671C110.148 129.743 123.259 121.172 125.713 109.51C127.372 101.624 128.074 95.2253 127.82 90.3144C127.502 84.1648 124.021 74.3349 117.374 60.8264C125.27 57.0091 130.296 50.0978 129.726 42.438ZM122.766 62.0851C128.791 74.6559 131.974 83.9625 132.296 90.178C132.563 95.3514 131.837 101.966 130.134 110.06C127.328 123.387 112.347 133.182 94.7671 133.182H65.2216C47.2833 133.182 32.7416 122.015 32.7416 108.239C32.7416 103.752 34.3164 99.3493 37.301 95.4935C39.2818 92.9349 40.7245 90.7758 41.6275 89.0391C44.133 84.2198 45.6227 75.2698 45.9578 62.3775C41.3249 60.0087 37.5385 56.7864 34.9442 53.0048C32.3499 49.2232 31.0305 45.0027 31.1064 40.7288C31.3616 25.855 46.0257 13.4654 65.2813 11.8553C71.1931 11.3607 76.3488 11.1073 80.7597 11.097C86.0087 11.0855 92.4638 11.5475 100.156 12.4772C118.899 14.7429 133.046 26.7423 134.127 41.2899L134.198 42.2425C134.48 46.0094 133.591 49.7738 131.603 53.2243C129.615 56.6747 126.586 59.7121 122.766 62.0851Z" fill="#754F50"/>
<path d="M98.833 71.4628C101.249 71.1504 104.288 71.3276 107.95 71.9919C110.742 72.4985 113.335 73.5128 115.51 74.9494C117.685 76.386 119.38 78.2029 120.45 80.2472C123.25 85.5972 124.527 91.0739 124.279 96.6777C124.07 101.401 122.853 106.102 120.63 110.781C119.371 113.431 117.081 115.72 114.071 117.337C111.061 118.954 107.476 119.821 103.803 119.821H92.5533C82.574 119.821 74.4836 113.608 74.4836 105.944C74.4836 105.051 74.5956 104.16 74.8187 103.284C75.4927 100.631 75.9815 98.4293 76.2846 96.6772C76.4868 95.5085 76.548 94.1518 76.4682 92.6065C75.9293 82.2401 85.5093 73.1823 98.833 71.4628Z" fill="#FFDDAD"/>
<path d="M47.4198 62.9764C52.2136 64.8122 56.7394 65.9018 61.0002 66.2308C61.5912 66.2764 62.1815 66.1399 62.6414 65.8512C63.1012 65.5626 63.3929 65.1454 63.4523 64.6916C63.5117 64.2378 63.3339 63.7844 62.958 63.4312C62.5821 63.0781 62.039 62.854 61.448 62.8084C57.7641 62.5241 53.7525 61.5584 49.4178 59.8979C49.1546 59.7971 48.8681 59.7372 48.5747 59.7215C48.2813 59.7057 47.9868 59.7345 47.7079 59.8062C47.429 59.8779 47.1713 59.9911 46.9493 60.1393C46.7274 60.2875 46.5457 60.4678 46.4145 60.6699C46.2833 60.8721 46.2052 61.0921 46.1848 61.3174C46.1643 61.5427 46.2018 61.7689 46.2951 61.9831C46.3885 62.1972 46.5359 62.3952 46.7288 62.5656C46.9218 62.7361 47.1566 62.8756 47.4198 62.9764Z" fill="#754F50"/>
<path d="M65.6254 123.014C62.4907 127.321 57.756 129.918 49.9186 131.23C48.6095 131.449 47.3005 131.686 45.9615 131.765L30.6929 132.374L25.5073 124.484C18.3461 113.588 24.2385 101.336 38.619 95.9091C41.9089 94.6676 44.957 94.5702 48.5342 92.5428" fill="#C38155"/>
<path d="M27.506 123.71C20.971 113.766 26.2118 102.508 39.6064 97.4532C40.3945 97.1551 41.1767 96.9236 42.3738 96.6158L42.9328 96.4731C46.2085 95.6425 47.7557 95.1215 49.8634 93.927C50.3356 93.6547 50.6486 93.2501 50.7343 92.8014C50.8199 92.3527 50.6712 91.8961 50.3206 91.5312C49.97 91.1662 49.4459 90.9224 48.8623 90.8529C48.2788 90.7833 47.6831 90.8936 47.2049 91.1598C45.5786 92.0814 44.3852 92.4838 41.529 93.2077C41.2625 93.2753 41.1163 93.3126 40.9528 93.355C39.5818 93.7075 38.6347 93.9878 37.6316 94.3667C22.036 100.252 15.8317 113.579 23.5086 125.259L29.3517 134.149L46.0779 133.482C47.2736 133.412 48.1378 133.291 49.9932 132.978C50.1955 132.943 50.2858 132.928 50.3963 132.91C58.706 131.52 64.0633 128.685 67.5808 123.853C67.7243 123.656 67.8158 123.439 67.8501 123.215C67.8845 122.99 67.8609 122.763 67.7809 122.546C67.7008 122.328 67.5658 122.125 67.3836 121.948C67.2014 121.771 66.9754 121.623 66.7188 121.513C66.4621 121.402 66.1796 121.332 65.8876 121.306C65.5955 121.279 65.2995 121.297 65.0166 121.359C64.7336 121.42 64.4692 121.524 64.2384 121.664C64.0076 121.804 63.8149 121.977 63.6714 122.175C60.8092 126.107 56.5499 128.36 49.4424 129.549L49.032 129.618C47.3796 129.897 46.6526 129.999 45.7898 130.051L32.034 130.599L27.506 123.71Z" fill="#754F50"/>
<path d="M64.364 118.28C64.3639 118.581 64.441 118.879 64.591 119.158C64.741 119.436 64.9608 119.689 65.2381 119.902C65.5153 120.115 65.8444 120.284 66.2067 120.399C66.569 120.514 66.9573 120.573 67.3494 120.573C67.7415 120.573 68.1298 120.514 68.492 120.399C68.8543 120.284 69.1835 120.115 69.4607 119.902C69.7379 119.689 69.9578 119.436 70.1078 119.158C70.2577 118.879 70.3349 118.581 70.3347 118.28C70.3349 117.979 70.2577 117.681 70.1078 117.402C69.9578 117.124 69.7379 116.871 69.4607 116.658C69.1835 116.445 68.8543 116.276 68.492 116.161C68.1298 116.046 67.7415 115.987 67.3494 115.987C66.9573 115.987 66.569 116.046 66.2067 116.161C65.8444 116.276 65.5153 116.445 65.2381 116.658C64.9608 116.871 64.741 117.124 64.591 117.402C64.441 117.681 64.3639 117.979 64.364 118.28Z" fill="#754F50"/>
<path d="M30.7092 132.424C39.3071 131.379 44.9494 124.091 43.3105 116.149C42.3283 111.386 39.931 106.336 35.5313 104.189C32.593 102.754 28.2194 103.242 24.7766 103.661C20.5941 104.17 15.5936 104.514 13.3075 107.334C10.8969 110.311 11.3342 115.859 12.1753 119.936C13.8136 127.879 22.1106 133.469 30.7092 132.424Z" fill="#C38155"/>
<path d="M30.7093 132.424C39.3072 131.379 44.9495 124.091 43.3106 116.149C42.3284 111.386 39.9311 106.336 35.5314 104.189C32.5931 102.754 28.2195 103.242 24.7766 103.661C20.5942 104.17 15.5937 104.514 13.3076 107.334C10.8969 110.311 11.3343 115.859 12.1754 119.936C13.8136 127.879 22.1107 133.469 30.7093 132.424ZM31.4094 135.821C20.1695 137.188 9.75131 130.169 7.75261 120.475C6.47487 114.281 6.67712 109.009 9.5065 105.518C11.8187 102.663 15.328 101.417 20.5919 100.689C21.286 100.594 21.8353 100.527 23.0101 100.39C23.5601 100.325 23.7907 100.298 24.0758 100.264C26.841 99.9277 28.4643 99.7855 30.3578 99.7907C33.2446 99.7987 35.765 100.227 37.9332 101.287C43.2367 103.875 46.4041 109.171 47.7326 115.611C49.7328 125.305 42.6493 134.454 31.4101 135.821H31.4094Z" fill="#754F50"/>
<path d="M25.9857 111.176C30.8384 110.496 35.4919 112.966 36.3778 116.693C36.4435 116.968 36.4875 117.246 36.5076 117.525L36.9137 122.848C37.0227 124.282 36.4338 125.696 35.2614 126.815C34.089 127.934 32.4168 128.678 30.5697 128.903C28.6785 129.133 26.7421 128.845 25.0991 128.09C23.4561 127.335 22.211 126.16 21.5816 124.771L19.3716 119.893C17.8013 116.429 20.1852 112.643 24.6968 111.439C25.117 111.324 25.5476 111.238 25.9857 111.176Z" fill="#FFDDAD"/>
<path d="M14.7151 105.462L15.5301 109.491C15.5703 109.717 15.6688 109.935 15.8199 110.132C15.971 110.329 16.1717 110.501 16.4102 110.637C16.6488 110.774 16.9204 110.873 17.2091 110.928C17.4979 110.983 17.798 110.993 18.092 110.958C18.3861 110.923 18.668 110.843 18.9215 110.724C19.1749 110.604 19.3948 110.447 19.5682 110.261C19.7416 110.075 19.865 109.865 19.9314 109.642C19.9977 109.419 20.0055 109.189 19.9545 108.964L19.1409 104.934C19.0401 104.49 18.7165 104.095 18.2397 103.832C17.7629 103.569 17.1709 103.461 16.5911 103.53C16.0113 103.599 15.49 103.84 15.1391 104.201C14.7883 104.563 14.6361 105.015 14.7151 105.462ZM30.4017 103.059L31.6646 107.624C31.7256 107.845 31.8426 108.055 32.0091 108.241C32.1755 108.427 32.3881 108.586 32.6347 108.709C32.8812 108.832 33.1569 108.917 33.446 108.958C33.7351 108.999 34.032 108.996 34.3197 108.95C34.6073 108.903 34.8801 108.813 35.1226 108.685C35.365 108.557 35.5722 108.394 35.7325 108.205C35.8928 108.015 36.0029 107.803 36.0566 107.581C36.1103 107.359 36.1066 107.131 36.0456 106.911L34.782 102.346C34.6588 101.9 34.3098 101.509 33.8119 101.261C33.314 101.012 32.7079 100.926 32.1269 101.02C31.5459 101.115 31.0377 101.383 30.7141 101.765C30.3904 102.148 30.2778 102.613 30.401 103.059H30.4017ZM21.8584 102.879L23.1249 108.034C23.2436 108.476 23.5835 108.864 24.0714 109.115C24.5592 109.366 25.1561 109.46 25.7332 109.376C26.3103 109.292 26.8214 109.038 27.1565 108.668C27.4916 108.297 27.6238 107.841 27.5246 107.396L26.2595 102.241C26.1494 101.793 25.8119 101.397 25.3213 101.14C24.8307 100.883 24.2272 100.786 23.6436 100.87C23.06 100.955 22.544 101.214 22.2092 101.591C21.8744 101.968 21.7482 102.431 21.8584 102.879V102.879Z" fill="#754F50"/>
<path d="M48.1251 26.8271L38.669 22.6452C33.5565 20.6322 31.3615 15.7798 33.7655 11.806C34.1607 11.1507 34.6732 10.5411 35.288 9.99477C39.01 6.69216 45.5122 6.47494 49.8111 9.50873C50.5086 10.0012 51.12 10.5611 51.6299 11.1744L56.3431 17.8484" fill="#C38155"/>
<path d="M54.3743 18.6686C54.6614 19.0637 55.1397 19.3559 55.7054 19.482C56.2712 19.6081 56.8789 19.5579 57.3968 19.3422C57.9146 19.1265 58.301 18.7628 58.472 18.3299C58.643 17.8969 58.585 17.4297 58.3105 17.0294L53.5974 10.3548L53.516 10.2482C52.9017 9.5098 52.1654 8.83568 51.3255 8.24266C46.1078 4.55946 38.1526 4.82656 33.5954 8.86913C32.8439 9.5365 32.2174 10.2812 31.734 11.0816C28.8308 15.8819 31.4541 21.7099 37.5965 24.1556L47.0087 28.3174C47.5223 28.5323 48.125 28.5844 48.6879 28.4625C49.2509 28.3406 49.7294 28.0545 50.0213 27.6652C50.3131 27.2759 50.3951 26.8144 50.2497 26.3794C50.1043 25.9443 49.7431 25.5701 49.2432 25.3369L39.7856 21.155L39.69 21.1155C35.6463 19.5227 33.9007 15.6641 35.7956 12.5305C36.1061 12.017 36.5046 11.5424 36.9801 11.1205C39.8669 8.55962 44.9159 8.39111 48.2953 10.7755C48.8297 11.1526 49.3029 11.5814 49.7015 12.0525L54.3743 18.6686Z" fill="#754F50"/>
<path d="M39.9064 14.2971L40.4087 13.7503C40.8261 13.2953 41.3801 12.9243 42.0238 12.6686C42.6675 12.4129 43.3819 12.2802 44.1066 12.2815C44.8313 12.2829 45.5449 12.4183 46.187 12.6764C46.8291 12.9344 47.3807 13.3075 47.7952 13.764L49.8021 15.9748C50.305 16.5287 50.5266 17.2047 50.4253 17.8755C50.324 18.5462 49.9067 19.1653 49.2521 19.6161C48.5451 20.1028 47.6702 20.4224 46.7324 20.5365C45.7947 20.6506 44.834 20.5543 43.9657 20.2592L41.7902 19.5204C41.1728 19.3107 40.6237 18.9983 40.1825 18.6059C39.7413 18.2134 39.419 17.7507 39.2389 17.251C39.0588 16.7513 39.0253 16.2272 39.1408 15.7164C39.2564 15.2056 39.5181 14.7208 39.9071 14.2971H39.9064Z" fill="#FF8D8D"/>
<path d="M120.539 23.9601C120.946 22.9979 121.112 21.9858 121.025 20.9814C120.939 19.9771 120.603 19.0003 120.037 18.1068C119.471 17.2132 118.685 16.4205 117.725 15.7738C116.764 15.1271 115.648 14.6391 114.44 14.3377C113.232 14.0363 111.956 13.9274 110.684 14.0172C109.412 14.107 108.17 14.3937 107.028 14.861C105.886 15.3283 104.867 15.967 104.028 16.7407C103.19 17.5143 102.549 18.4078 102.142 19.37C101.735 20.3323 101.57 21.3444 101.656 22.3488C101.742 23.3531 102.078 24.3299 102.644 25.2234C103.211 26.117 103.996 26.9097 104.957 27.5564C105.917 28.2031 107.033 28.6911 108.241 28.9925C109.449 29.2939 110.725 29.4028 111.997 29.313C113.269 29.2232 114.511 28.9365 115.653 28.4692C116.795 28.0019 117.815 27.3632 118.653 26.5895C119.491 25.8158 120.132 24.9224 120.539 23.9601Z" fill="white"/>
<path d="M111.352 31.0909C104.755 31.0909 99.4413 26.858 99.4413 21.6674C99.4413 16.4762 104.755 12.2439 111.352 12.2439C117.95 12.2439 123.263 16.4768 123.263 21.6674C123.263 26.858 117.95 31.0909 111.352 31.0909ZM111.352 27.6519C115.439 27.6519 118.785 24.9861 118.785 21.6674C118.785 18.3482 115.439 15.6829 111.352 15.6829C107.266 15.6829 103.919 18.3482 103.919 21.6674C103.92 24.9861 107.267 27.6519 111.352 27.6519Z" fill="#754F50"/>
<path d="M113.105 24.1115C113.391 24.3788 113.75 24.5944 114.157 24.7427C114.564 24.891 115.008 24.9685 115.459 24.9695C117.176 24.9695 118.567 23.861 118.567 22.4934C118.567 21.1258 117.176 20.0173 115.459 20.0173C113.762 20.0173 112.383 21.0989 112.349 22.4436L114.655 22.7101L113.105 24.1115Z" fill="#232323"/>
<path d="M78.5446 20.5549C78.5446 22.9111 79.7634 25.1709 81.9328 26.837C84.1023 28.5031 87.0447 29.4391 90.1128 29.4391C93.1809 29.4391 96.1234 28.5031 98.2929 26.837C100.462 25.1709 101.681 22.9111 101.681 20.5549C101.681 18.1987 100.462 15.939 98.2929 14.2729C96.1234 12.6068 93.1809 11.6708 90.1128 11.6708C87.0447 11.6708 84.1023 12.6068 81.9328 14.2729C79.7634 15.939 78.5446 18.1987 78.5446 20.5549Z" fill="white"/>
<path d="M90.1129 31.1586C82.4875 31.1586 76.3055 26.411 76.3055 20.555C76.3055 14.6989 82.4875 9.95129 90.1129 9.95129C97.7382 9.95129 103.92 14.6989 103.92 20.555C103.92 26.411 97.7375 31.1586 90.1129 31.1586ZM90.1129 27.7196C95.2648 27.7196 99.4421 24.5116 99.4421 20.555C99.4421 16.5984 95.2648 13.3903 90.1129 13.3903C84.9609 13.3903 80.7836 16.5984 80.7836 20.555C80.7836 24.5116 84.9601 27.7196 90.1129 27.7196Z" fill="#754F50"/>
<path d="M92.4369 24.0346C92.989 24.5255 93.7474 24.8524 94.5806 24.9587C95.4138 25.065 96.2692 24.9439 96.9983 24.6164C97.7273 24.2889 98.2841 23.7758 98.5719 23.1659C98.8597 22.5561 98.8605 21.8882 98.5739 21.278C98.2874 20.6678 97.7318 20.1539 97.0034 19.8255C96.2751 19.4971 95.42 19.3749 94.5865 19.4801C93.7531 19.5854 92.994 19.9114 92.4408 20.4016C91.8877 20.8918 91.5755 21.5152 91.5585 22.1637L94.2393 22.4629L92.4369 24.0346Z" fill="#232323"/>
<path d="M100.8 30.0122H111.019C120.734 30.0122 128.609 36.0609 128.609 43.5218C128.609 44.083 128.563 44.6441 128.473 45.2012C127.057 53.879 117.45 60.3903 106.062 60.3903H96.3269C86.5072 60.3903 78.5468 54.2768 78.5468 46.7356C78.5468 46.2226 78.5841 45.7102 78.6595 45.2012C79.9335 36.5492 89.4627 30.0122 100.8 30.0122Z" fill="#FFDDAD"/>
<path d="M107.028 42.7441C107.447 45.524 107.447 48.199 107.03 50.7725C106.622 53.295 105.732 55.3768 103.713 58.4283C103.204 59.1981 103.957 59.9226 105.097 60.2906C106.238 60.6585 107.909 59.2268 108.409 58.4283C110.576 54.9824 111.004 54.0969 111.473 51.1961C111.934 48.3463 111.934 45.3962 111.475 42.3492C111.396 41.9035 111.092 41.4994 110.63 41.2237C110.167 40.9479 109.582 40.8224 109 40.8741C108.418 40.9257 107.886 41.1505 107.517 41.5C107.148 41.8496 106.973 42.2962 107.028 42.7441Z" fill="#754F50"/>
<path d="M86.5168 43.4436C86.5471 43.372 86.5587 43.2966 86.5511 43.2215C86.5434 43.1465 86.5165 43.0733 86.472 43.0062C86.4275 42.9392 86.3662 42.8795 86.2917 42.8306C86.2172 42.7817 86.1308 42.7445 86.0376 42.7213C85.9444 42.698 85.8461 42.6891 85.7484 42.695C85.6506 42.7009 85.5554 42.7216 85.4681 42.7557C85.3807 42.7899 85.303 42.837 85.2394 42.8943C85.1757 42.9515 85.1274 43.0178 85.0971 43.0894C85.0668 43.161 85.0552 43.2365 85.0628 43.3115C85.0705 43.3866 85.0974 43.4597 85.1419 43.5268C85.1864 43.5939 85.2476 43.6536 85.3222 43.7025C85.3967 43.7514 85.4831 43.7885 85.5763 43.8118C85.6695 43.835 85.7678 43.844 85.8655 43.838C85.9632 43.8321 86.0585 43.8115 86.1458 43.7773C86.2332 43.7431 86.3109 43.6961 86.3745 43.6388C86.4382 43.5816 86.4865 43.5152 86.5168 43.4436Z" fill="#CBA978"/>
<path d="M83.6156 47.3095C83.6459 47.2379 83.6576 47.1624 83.6499 47.0874C83.6422 47.0123 83.6154 46.9392 83.5709 46.8721C83.5264 46.805 83.4651 46.7453 83.3906 46.6964C83.316 46.6475 83.2297 46.6104 83.1365 46.5871C83.0432 46.5639 82.945 46.5549 82.8472 46.5609C82.7495 46.5668 82.6543 46.5874 82.5669 46.6216C82.4796 46.6558 82.4019 46.7028 82.3382 46.7601C82.2746 46.8173 82.2263 46.8837 82.196 46.9553C82.1657 47.0269 82.154 47.1023 82.1617 47.1774C82.1694 47.2524 82.1962 47.3256 82.2407 47.3927C82.2852 47.4597 82.3465 47.5194 82.421 47.5683C82.4956 47.6172 82.5819 47.6544 82.6752 47.6776C82.7684 47.7009 82.8667 47.7098 82.9644 47.7039C83.0621 47.698 83.1574 47.6773 83.2447 47.6432C83.332 47.609 83.4097 47.5619 83.4734 47.5047C83.537 47.4474 83.5854 47.3811 83.6156 47.3095Z" fill="#CBA978"/>
<path d="M87.241 51.7274C87.2713 51.6559 87.283 51.5804 87.2753 51.5053C87.2676 51.4303 87.2407 51.3571 87.1962 51.29C87.1518 51.223 87.0905 51.1633 87.016 51.1144C86.9414 51.0655 86.8551 51.0284 86.7618 51.0051C86.6686 50.9818 86.5703 50.9729 86.4726 50.9788C86.3749 50.9847 86.2796 51.0054 86.1923 51.0396C86.105 51.0737 86.0272 51.1208 85.9636 51.1781C85.9 51.2353 85.8516 51.3016 85.8214 51.3732C85.791 51.4448 85.7794 51.5203 85.7871 51.5954C85.7948 51.6704 85.8216 51.7436 85.8661 51.8106C85.9106 51.8777 85.9719 51.9374 86.0464 51.9863C86.1209 52.0352 86.2073 52.0723 86.3005 52.0956C86.3937 52.1188 86.492 52.1278 86.5897 52.1219C86.6875 52.116 86.7827 52.0953 86.8701 52.0611C86.9574 52.0269 87.0351 51.9799 87.0987 51.9226C87.1624 51.8654 87.2107 51.799 87.241 51.7274Z" fill="#CBA978"/>
<path d="M92.6804 51.4513C92.7108 51.3797 92.7224 51.3043 92.7147 51.2292C92.7071 51.1542 92.6802 51.081 92.6357 51.0139C92.5912 50.9468 92.5299 50.8872 92.4554 50.8383C92.3809 50.7894 92.2945 50.7522 92.2013 50.729C92.1081 50.7057 92.0098 50.6968 91.9121 50.7027C91.8143 50.7086 91.7191 50.7293 91.6318 50.7634C91.5444 50.7976 91.4667 50.8447 91.4031 50.9019C91.3394 50.9592 91.2911 51.0255 91.2608 51.0971C91.2305 51.1687 91.2189 51.2442 91.2265 51.3192C91.2342 51.3943 91.2611 51.4674 91.3056 51.5345C91.3501 51.6016 91.4113 51.6613 91.4859 51.7102C91.5604 51.7591 91.6467 51.7962 91.74 51.8195C91.8332 51.8427 91.9315 51.8517 92.0292 51.8457C92.1269 51.8398 92.2222 51.8192 92.3095 51.785C92.3968 51.7508 92.4745 51.7037 92.5382 51.6465C92.6018 51.5892 92.6502 51.5229 92.6804 51.4513Z" fill="#CBA978"/>
<path d="M88.5315 47.9335C88.5753 47.83 88.5919 47.7209 88.5804 47.6123C88.5689 47.5037 88.5294 47.3978 88.4643 47.3007C88.3991 47.2035 88.3096 47.117 88.2007 47.046C88.0919 46.9751 87.9659 46.9211 87.8299 46.8872C87.694 46.8533 87.5507 46.8401 87.4084 46.8483C87.2661 46.8566 87.1274 46.8862 87.0003 46.9354C86.8733 46.9846 86.7603 47.0525 86.6679 47.1351C86.5754 47.2177 86.5054 47.3136 86.4616 47.417C86.4178 47.5205 86.4012 47.6296 86.4127 47.7382C86.4243 47.8468 86.4637 47.9527 86.5289 48.0498C86.594 48.147 86.6836 48.2335 86.7924 48.3045C86.9013 48.3754 87.0272 48.4294 87.1632 48.4633C87.2991 48.4972 87.4424 48.5104 87.5847 48.5022C87.7271 48.4939 87.8657 48.4643 87.9928 48.4151C88.1199 48.3659 88.2328 48.298 88.3253 48.2154C88.4177 48.1327 88.4878 48.0369 88.5315 47.9335Z" fill="#CBA978"/>
<path d="M89.2464 55.5361C89.2903 55.4326 89.3069 55.3234 89.2954 55.2148C89.2839 55.1061 89.2445 55.0002 89.1793 54.903C89.1142 54.8057 89.0247 54.7192 88.9158 54.6482C88.807 54.5772 88.681 54.5233 88.5451 54.4893C88.4091 54.4554 88.2659 54.4422 88.1235 54.4505C87.9812 54.4588 87.8425 54.4885 87.7154 54.5377C87.5883 54.587 87.4753 54.6549 87.3829 54.7376C87.2904 54.8203 87.2203 54.9162 87.1766 55.0197C87.1327 55.1233 87.1161 55.2325 87.1276 55.3411C87.1391 55.4498 87.1785 55.5557 87.2436 55.6529C87.3088 55.7501 87.3983 55.8367 87.5071 55.9077C87.6159 55.9786 87.7419 56.0326 87.8779 56.0665C88.0138 56.1005 88.1571 56.1136 88.2994 56.1053C88.4418 56.097 88.5805 56.0674 88.7076 56.0182C88.8346 55.9689 88.9476 55.901 89.0401 55.8183C89.1326 55.7356 89.2027 55.6397 89.2464 55.5361Z" fill="#CBA978"/>
<path d="M92.8362 57.3419C92.8665 57.2704 92.8782 57.1949 92.8705 57.1198C92.8628 57.0448 92.836 56.9716 92.7915 56.9045C92.747 56.8375 92.6857 56.7778 92.6112 56.7289C92.5366 56.68 92.4503 56.6429 92.357 56.6196C92.2638 56.5963 92.1656 56.5874 92.0678 56.5933C91.9701 56.5992 91.8748 56.6199 91.7875 56.6541C91.7002 56.6883 91.6225 56.7353 91.5588 56.7926C91.4952 56.8498 91.4468 56.9161 91.4166 56.9877C91.3863 57.0593 91.3746 57.1348 91.3823 57.2099C91.39 57.2849 91.4168 57.3581 91.4613 57.4251C91.5058 57.4922 91.5671 57.5519 91.6416 57.6008C91.7162 57.6497 91.8025 57.6868 91.8957 57.7101C91.989 57.7333 92.0872 57.7423 92.185 57.7364C92.2827 57.7305 92.3779 57.7098 92.4653 57.6756C92.5526 57.6414 92.6303 57.5944 92.694 57.5371C92.7576 57.4799 92.806 57.4135 92.8362 57.3419Z" fill="#CBA978"/>
<path d="M94.2669 54.0839C94.2972 54.0123 94.3088 53.9368 94.3012 53.8618C94.2935 53.7867 94.2666 53.7136 94.2221 53.6465C94.1776 53.5794 94.1164 53.5197 94.0418 53.4708C93.9673 53.4219 93.8809 53.3848 93.7877 53.3615C93.6945 53.3383 93.5962 53.3294 93.4985 53.3353C93.4008 53.3412 93.3055 53.3618 93.2182 53.396C93.1308 53.4302 93.0531 53.4773 92.9895 53.5345C92.9258 53.5918 92.8775 53.6581 92.8472 53.7297C92.8169 53.8013 92.8053 53.8768 92.813 53.9518C92.8206 54.0269 92.8475 54.1 92.892 54.1671C92.9365 54.2342 92.9977 54.2938 93.0723 54.3427C93.1468 54.3916 93.2332 54.4288 93.3264 54.452C93.4196 54.4753 93.5179 54.4842 93.6156 54.4783C93.7133 54.4724 93.8086 54.4518 93.8959 54.4176C93.9833 54.3834 94.061 54.3363 94.1246 54.2791C94.1883 54.2218 94.2366 54.1555 94.2669 54.0839Z" fill="#CBA978"/>
<path d="M95.1807 50.98C95.2691 50.771 95.245 50.5433 95.1135 50.3471C94.9821 50.1509 94.7542 50.0022 94.4799 49.9337C94.2056 49.8653 93.9074 49.8827 93.651 49.9822C93.3945 50.0816 93.2007 50.2549 93.1122 50.464C93.0238 50.673 93.0479 50.9007 93.1794 51.0969C93.3108 51.2931 93.5387 51.4418 93.813 51.5102C94.0873 51.5787 94.3855 51.5613 94.642 51.4618C94.8985 51.3624 95.0922 51.1891 95.1807 50.98Z" fill="#CBA978"/>
<path d="M83.6156 50.6229C83.6459 50.5513 83.6576 50.4759 83.6499 50.4008C83.6422 50.3257 83.6154 50.2526 83.5709 50.1855C83.5264 50.1184 83.4651 50.0587 83.3906 50.0098C83.316 49.9609 83.2297 49.9237 83.1364 49.9005C83.0432 49.8772 82.9449 49.8683 82.8472 49.8742C82.7494 49.8801 82.6542 49.9008 82.5668 49.935C82.4795 49.9692 82.4018 50.0162 82.3381 50.0735C82.2745 50.1308 82.2262 50.1971 82.1959 50.2687C82.1656 50.3403 82.1539 50.4158 82.1616 50.4909C82.1693 50.5659 82.1961 50.6391 82.2406 50.7062C82.2851 50.7733 82.3464 50.833 82.4209 50.8819C82.4954 50.9308 82.5818 50.9679 82.675 50.9912C82.7683 51.0144 82.8666 51.0234 82.9643 51.0175C83.062 51.0115 83.1573 50.9909 83.2446 50.9567C83.332 50.9225 83.4097 50.8754 83.4733 50.8182C83.537 50.7609 83.5853 50.6946 83.6156 50.6229Z" fill="#CBA978"/>
<path d="M125.678 45.1005C125.709 45.0289 125.72 44.9534 125.713 44.8783C125.705 44.8033 125.678 44.7301 125.634 44.663C125.589 44.5959 125.528 44.5362 125.453 44.4873C125.379 44.4384 125.292 44.4013 125.199 44.378C125.106 44.3548 125.008 44.3458 124.91 44.3517C124.812 44.3577 124.717 44.3783 124.63 44.4125C124.542 44.4467 124.465 44.4938 124.401 44.551C124.337 44.6083 124.289 44.6747 124.259 44.7463C124.228 44.8179 124.217 44.8934 124.224 44.9684C124.232 45.0435 124.259 45.1166 124.303 45.1837C124.348 45.2508 124.409 45.3105 124.484 45.3594C124.558 45.4083 124.645 45.4455 124.738 45.4687C124.831 45.492 124.929 45.5009 125.027 45.495C125.125 45.4891 125.22 45.4684 125.307 45.4342C125.395 45.4 125.472 45.353 125.536 45.2957C125.6 45.2384 125.648 45.1721 125.678 45.1005Z" fill="#CBA978"/>
<path d="M125.678 49.5189C125.708 49.4473 125.72 49.3719 125.712 49.2968C125.705 49.2217 125.678 49.1486 125.633 49.0815C125.589 49.0144 125.528 48.9547 125.453 48.9058C125.379 48.8569 125.292 48.8197 125.199 48.7965C125.106 48.7732 125.007 48.7643 124.91 48.7702C124.812 48.7761 124.717 48.7968 124.629 48.831C124.542 48.8652 124.464 48.9122 124.401 48.9695C124.337 49.0268 124.289 49.0931 124.258 49.1647C124.228 49.2363 124.216 49.3118 124.224 49.3869C124.232 49.4619 124.259 49.5351 124.303 49.6022C124.348 49.6693 124.409 49.729 124.483 49.7779C124.558 49.8268 124.644 49.8639 124.738 49.8872C124.831 49.9104 124.929 49.9194 125.027 49.9135C125.125 49.9075 125.22 49.8869 125.307 49.8527C125.394 49.8185 125.472 49.7714 125.536 49.7142C125.599 49.6569 125.648 49.5905 125.678 49.5189Z" fill="#CBA978"/>
<path d="M123.502 52.8324C123.533 52.7608 123.544 52.6853 123.537 52.6103C123.529 52.5352 123.502 52.462 123.458 52.3949C123.413 52.3279 123.352 52.2682 123.277 52.2193C123.203 52.1704 123.117 52.1332 123.023 52.11C122.93 52.0867 122.832 52.0778 122.734 52.0837C122.636 52.0896 122.541 52.1102 122.454 52.1444C122.366 52.1786 122.289 52.2257 122.225 52.283C122.161 52.3403 122.113 52.4066 122.083 52.4782C122.052 52.5498 122.041 52.6253 122.048 52.7003C122.056 52.7754 122.083 52.8486 122.127 52.9157C122.172 52.9827 122.233 53.0424 122.308 53.0913C122.382 53.1402 122.469 53.1774 122.562 53.2007C122.655 53.2239 122.753 53.2328 122.851 53.2269C122.949 53.221 123.044 53.2004 123.131 53.1662C123.219 53.132 123.297 53.0849 123.36 53.0276C123.424 52.9704 123.472 52.904 123.502 52.8324Z" fill="#CBA978"/>
<path d="M127.491 42.6155C127.521 42.5439 127.533 42.4684 127.525 42.3934C127.518 42.3183 127.491 42.2452 127.446 42.1781C127.402 42.111 127.34 42.0513 127.266 42.0025C127.191 41.9536 127.105 41.9164 127.012 41.8932C126.919 41.8699 126.82 41.861 126.723 41.8669C126.625 41.8728 126.53 41.8934 126.442 41.9276C126.355 41.9618 126.277 42.0089 126.214 42.0661C126.15 42.1234 126.102 42.1897 126.071 42.2613C126.041 42.3329 126.029 42.4084 126.037 42.4834C126.045 42.5585 126.072 42.6316 126.116 42.6987C126.161 42.7658 126.222 42.8255 126.296 42.8744C126.371 42.9232 126.457 42.9604 126.551 42.9836C126.644 43.0069 126.742 43.0158 126.84 43.0099C126.937 43.004 127.033 42.9834 127.12 42.9492C127.207 42.915 127.285 42.8679 127.349 42.8107C127.412 42.7534 127.461 42.6871 127.491 42.6155Z" fill="#CBA978"/>
<path d="M127.128 47.3096C127.158 47.238 127.17 47.1625 127.162 47.0875C127.154 47.0125 127.128 46.9393 127.083 46.8723C127.039 46.8052 126.977 46.7455 126.903 46.6966C126.828 46.6478 126.742 46.6106 126.649 46.5874C126.555 46.5641 126.457 46.5552 126.36 46.5611C126.262 46.567 126.167 46.5876 126.079 46.6218C125.992 46.656 125.914 46.703 125.851 46.7603C125.787 46.8175 125.739 46.8838 125.708 46.9554C125.678 47.027 125.666 47.1025 125.674 47.1775C125.682 47.2525 125.709 47.3257 125.753 47.3927C125.798 47.4598 125.859 47.5195 125.933 47.5684C126.008 47.6172 126.094 47.6544 126.187 47.6776C126.281 47.7009 126.379 47.7098 126.477 47.7039C126.574 47.698 126.67 47.6774 126.757 47.6432C126.844 47.609 126.922 47.562 126.986 47.5047C127.049 47.4475 127.098 47.3812 127.128 47.3096Z" fill="#CBA978"/>
<path d="M123.14 48.6906C123.17 48.619 123.182 48.5435 123.174 48.4685C123.167 48.3934 123.14 48.3203 123.095 48.2532C123.051 48.1861 122.99 48.1264 122.915 48.0775C122.84 48.0286 122.754 47.9915 122.661 47.9682C122.568 47.945 122.469 47.936 122.372 47.942C122.274 47.9479 122.179 47.9685 122.091 48.0027C122.004 48.0369 121.926 48.0839 121.863 48.1412C121.799 48.1985 121.751 48.2648 121.72 48.3364C121.69 48.408 121.678 48.4834 121.686 48.5585C121.694 48.6335 121.721 48.7067 121.765 48.7738C121.81 48.8409 121.871 48.9005 121.945 48.9494C122.02 48.9983 122.106 49.0355 122.2 49.0587C122.293 49.082 122.391 49.0909 122.489 49.085C122.587 49.0791 122.682 49.0584 122.769 49.0243C122.856 48.9901 122.934 48.943 122.998 48.8858C123.061 48.8285 123.11 48.7622 123.14 48.6906Z" fill="#CBA978"/>
<path d="M128.217 45.3765C128.247 45.3049 128.259 45.2294 128.251 45.1544C128.243 45.0793 128.216 45.0062 128.172 44.9391C128.127 44.872 128.066 44.8123 127.992 44.7634C127.917 44.7145 127.831 44.6774 127.738 44.6541C127.644 44.6309 127.546 44.622 127.448 44.6279C127.351 44.6338 127.255 44.6544 127.168 44.6886C127.081 44.7228 127.003 44.7699 126.939 44.8271C126.876 44.8844 126.827 44.9507 126.797 45.0223C126.767 45.0939 126.755 45.1694 126.763 45.2444C126.77 45.3195 126.797 45.3926 126.842 45.4597C126.886 45.5268 126.948 45.5865 127.022 45.6353C127.097 45.6842 127.183 45.7214 127.276 45.7446C127.369 45.7679 127.468 45.7768 127.565 45.7709C127.663 45.765 127.758 45.7444 127.846 45.7102C127.933 45.676 128.011 45.6289 128.074 45.5717C128.138 45.5144 128.186 45.4481 128.217 45.3765Z" fill="#CBA978"/>
<path d="M93.0048 47.1145C93.0932 46.9055 93.0691 46.6778 92.9376 46.4816C92.8062 46.2854 92.5783 46.1367 92.304 46.0683C92.0297 45.9998 91.7315 46.0172 91.4751 46.1167C91.2186 46.2161 91.0248 46.3894 90.9363 46.5985C90.8479 46.8075 90.872 47.0352 91.0035 47.2314C91.1349 47.4276 91.3628 47.5763 91.6371 47.6448C91.9114 47.7132 92.2096 47.6958 92.4661 47.5963C92.7226 47.4969 92.9163 47.3236 93.0048 47.1145Z" fill="#CBA978"/>
<path d="M104.418 33.8783H112.416C112.961 33.8782 113.5 33.9669 113.997 34.1386C114.495 34.3103 114.939 34.561 115.3 34.8743C115.662 35.1875 115.932 35.5561 116.095 35.9557C116.257 36.3553 116.307 36.7768 116.241 37.1924C116.098 38.1063 115.523 38.9481 114.626 39.5587C113.729 40.1694 112.572 40.5065 111.373 40.5064H106.917C105.621 40.5063 104.361 40.1831 103.326 39.5854C102.29 38.9877 101.535 38.1479 101.175 37.1924C101.03 36.8061 101.003 36.3992 101.098 36.0038C101.192 35.6084 101.405 35.2352 101.719 34.9138C102.034 34.5924 102.441 34.3315 102.91 34.1518C103.378 33.9721 103.894 33.8785 104.418 33.8783Z" fill="#8B674F"/>
<path d="M104.418 33.8782C103.894 33.8783 103.378 33.9719 102.91 34.1516C102.441 34.3312 102.034 34.5921 101.719 34.9135C101.404 35.2349 101.191 35.6081 101.097 36.0036C101.002 36.3991 101.029 36.806 101.174 37.1923C101.535 38.1478 102.289 38.9877 103.325 39.5853C104.36 40.183 105.621 40.5063 106.916 40.5064H111.372C112.571 40.5064 113.728 40.1693 114.625 39.5587C115.522 38.948 116.097 38.1062 116.241 37.1923C116.306 36.7768 116.256 36.3553 116.094 35.9557C115.932 35.5562 115.661 35.1876 115.299 34.8744C114.938 34.5612 114.494 34.3104 113.997 34.1387C113.5 33.967 112.961 33.8782 112.416 33.8782H104.418ZM104.418 30.4392H112.417C117.017 30.4392 120.747 33.3039 120.747 36.8369C120.747 37.0937 120.727 37.3505 120.687 37.605C120.412 39.3534 119.312 40.9638 117.596 42.132C115.88 43.3002 113.666 43.9453 111.373 43.9454H106.917C104.651 43.9454 102.446 43.3801 100.635 42.3347C98.8237 41.2893 97.5035 39.8204 96.8732 38.1489C95.6679 34.9489 98.0674 31.6039 102.234 30.6776C102.944 30.5195 103.679 30.4392 104.418 30.4392Z" fill="#754F50"/>
<path d="M50.1947 69.8866C61.4868 75.4057 67.8517 79.3474 78.7445 81.154C82.7247 81.8137 91.6622 81.2904 103.636 81.6899C111.903 81.9656 118.53 87.1121 118.156 93.5133C118.134 93.8821 118.089 94.2499 118.022 94.6155C116.822 101.174 108.984 105.75 100.515 104.837C100.09 104.791 99.6682 104.731 99.2502 104.658C87.0431 102.529 80.0073 101.43 60.6465 90.1224" fill="#C38155"/>
<path d="M48.6154 71.7952C50.6656 72.7593 56.8356 75.7387 57.1999 75.9129C60.3099 77.394 62.5952 78.4154 64.8693 79.3107C69.251 81.0342 73.3895 82.1765 78.1512 82.8998C79.7035 83.1354 81.7582 83.2122 84.9929 83.2002C86.4393 83.1945 93.0899 83.1022 94.9035 83.089C97.9217 83.0678 100.665 83.0787 103.427 83.1337C110.595 83.277 116.224 87.6394 116.033 92.994C116.021 93.3092 115.991 93.6233 115.941 93.9363C115.041 99.5711 108.42 103.578 101.163 102.893C100.8 102.859 100.438 102.813 100.08 102.756L99.1607 102.608L98.2613 102.464C94.9386 101.929 92.9727 101.582 90.9427 101.154C82.5053 99.3745 74.8979 96.2897 62.0182 89.0356C61.539 88.7709 60.943 88.6622 60.3599 88.7332C59.7768 88.8043 59.2539 89.0493 58.9049 89.4149C58.5559 89.7806 58.409 90.2373 58.4963 90.6857C58.5836 91.1341 58.898 91.5379 59.371 91.8092C72.6581 99.2925 80.7335 102.567 89.7575 104.471C91.8973 104.922 93.937 105.281 97.3433 105.83L98.2457 105.975L99.1651 106.122C99.6456 106.199 100.13 106.261 100.618 106.306C110.338 107.223 119.185 101.869 120.386 94.3552C120.453 93.9351 120.494 93.5121 120.51 93.0891C120.771 85.7978 113.143 79.8873 103.544 79.6958C100.65 79.6409 97.7559 79.6256 94.8617 79.65C93.0175 79.6632 86.3811 79.7566 84.9712 79.7612C82.0254 79.7721 80.1894 79.7033 79.0199 79.5256C74.6829 78.8676 70.9355 77.833 66.9105 76.2493C64.7655 75.4056 62.575 74.4267 59.5605 72.9903C59.2172 72.8264 53.03 69.8396 50.9522 68.8623C50.4457 68.6244 49.8369 68.5506 49.2596 68.6572C48.6823 68.7638 48.1838 69.0421 47.8736 69.4309C47.564 69.8201 47.4683 70.2877 47.6074 70.731C47.7465 71.1743 48.1091 71.5571 48.6154 71.7952Z" fill="#754F50"/>
<path d="M104.243 63.5949C107.762 63.3421 110.852 63.2304 113.517 63.2607C124.902 63.3903 133.995 70.5836 133.826 79.3267C133.806 80.3847 133.648 81.4385 133.354 82.4723L130.829 91.3409C130.179 83.5258 127.148 79.619 121.74 79.619C121.094 79.619 120.369 79.6351 119.566 79.6683C117.871 83.167 113.733 85.8219 108.573 86.2689C108.078 86.3114 107.58 86.3331 107.082 86.3331H103.801C95.623 86.3331 88.9933 81.2422 88.9933 74.962C88.9933 74.8107 88.997 74.6611 89.0052 74.5121C88.9972 74.3912 88.9932 74.2703 88.9933 74.1493C88.9933 69.1449 93.643 64.8948 99.9578 63.9772C101.211 63.7197 102.503 63.5896 103.8 63.5903H103.819C103.96 63.5909 104.102 63.592 104.243 63.5949Z" fill="#C38155"/>
<path d="M131.165 82.1054C131.428 81.1843 131.569 80.2449 131.587 79.3014C131.738 71.5069 123.632 65.0954 113.483 64.9796C110.906 64.9504 107.894 65.0587 104.451 65.3063L104.319 65.3161L104.186 65.3138C102.955 65.2848 101.726 65.3941 100.536 65.6382L100.374 65.6668C95.0842 66.436 91.2308 69.9954 91.2308 74.1498C91.2308 74.2432 91.2338 74.3361 91.2398 74.4295L91.2443 74.504L91.2413 74.5791C91.2338 74.7063 91.2308 74.8341 91.2308 74.9625C91.2308 80.293 96.8575 84.6141 103.799 84.6141H107.08C109.342 84.6146 111.549 84.0835 113.406 83.0922C115.263 82.1008 116.68 80.6968 117.468 79.0687L117.98 78.0118L119.447 77.9516C120.287 77.9172 121.051 77.9 121.739 77.9C126.001 77.9 129.029 79.682 130.897 83.05L131.165 82.1054ZM113.55 61.5412C126.172 61.685 136.252 69.6596 136.065 79.3524C136.043 80.5254 135.867 81.6936 135.54 82.8396L129.614 103.67L128.596 91.4509C128.011 84.425 125.617 81.3385 121.741 81.3385C121.525 81.3385 121.3 81.3402 121.065 81.3442C119.788 83.3567 117.799 85.0528 115.327 86.239C112.854 87.4251 109.998 88.0536 107.082 88.0526H103.801C94.3871 88.0526 86.755 82.1914 86.755 74.962C86.755 74.8135 86.758 74.6656 86.7647 74.5189C86.7581 74.3957 86.7549 74.2725 86.755 74.1492C86.755 68.3607 92.1025 63.4005 99.46 62.2995C100.994 61.9901 102.577 61.8466 104.163 61.873C107.705 61.6214 110.832 61.5108 113.55 61.5412Z" fill="#754F50"/>
<path d="M119.593 73.8661C119.593 74.0816 119.535 74.3979 119.407 74.8003C119.114 75.7289 118.497 77.0013 117.555 78.593C117.309 79.0082 117.288 79.4814 117.497 79.9085C117.706 80.3355 118.126 80.6815 118.667 80.8702C119.208 81.0589 119.824 81.075 120.38 80.9148C120.936 80.7546 121.387 80.4314 121.632 80.0162C123.965 76.0739 124.727 73.6614 123.497 72.1076C123.196 71.7286 122.715 71.454 122.155 71.3413C121.596 71.2286 121.001 71.2866 120.496 71.5031C119.991 71.7196 119.614 72.0778 119.446 72.5027C119.277 72.9276 119.329 73.3862 119.59 73.7824C119.592 73.8036 119.593 73.8317 119.593 73.8661Z" fill="#754F50"/>
</svg>
