<svg width="173" height="168" viewBox="0 0 173 168" fill="none" xmlns="http://www.w3.org/2000/svg">
<path d="M84.1957 45.9588L91.2785 33.913C92.3001 32.1754 93.9629 30.7061 96.0611 29.687C98.1592 28.6679 100.6 28.1438 103.083 28.1796L123.414 28.4748C125.186 28.5003 126.927 28.1219 128.419 27.3873C129.91 26.6528 131.084 25.595 131.793 24.3479L139.752 10.3316C140.24 9.47304 140.321 8.51045 139.981 7.61076C139.642 6.71106 138.903 5.93099 137.893 5.4058C137.451 5.17586 136.949 5.02278 136.422 4.95724C135.895 4.89171 135.356 4.9153 134.843 5.02638C134.329 5.13746 133.853 5.33334 133.448 5.60034C133.043 5.86734 132.719 6.19902 132.498 6.5722L125.945 17.6436C125.213 18.8786 124.023 19.9199 122.523 20.6366C121.023 21.3532 119.28 21.7132 117.515 21.6712L96.2991 21.164C93.5234 21.0975 90.7959 21.7323 88.5351 22.9709C86.2744 24.2095 84.6052 25.9835 83.7837 28.0208L78.1145 42.0824" fill="#9D6249"/>
<path d="M81.7058 44.8853L89.061 32.9358C90.309 30.9082 92.3041 29.2062 94.7992 28.0407C97.2943 26.8751 100.18 26.2973 103.098 26.3788L123.42 26.9462C126.136 27.0219 128.644 25.8331 129.774 23.9353L138.051 10.0285C138.34 9.54162 138.399 8.9923 138.217 8.47571C138.034 7.95911 137.622 7.50778 137.052 7.1999C136.882 7.10821 136.688 7.04611 136.484 7.01795C136.279 6.98979 136.069 6.99623 135.868 7.03683C135.667 7.07743 135.48 7.15121 135.32 7.25303C135.16 7.35484 135.031 7.48224 134.942 7.62634L128.136 18.6071C127.187 20.1385 125.669 21.42 123.774 22.2905C121.879 23.1611 119.691 23.5818 117.485 23.4997L96.2849 22.7088C94.0004 22.6235 91.7426 23.1162 89.8577 24.1111C87.9729 25.1061 86.5651 26.5484 85.8503 28.2169L79.8624 42.1994C79.6769 42.6327 79.2749 42.9916 78.7449 43.1972C78.2148 43.4028 77.6001 43.4383 77.036 43.2959C76.4718 43.1535 76.0045 42.8447 75.7367 42.4377C75.469 42.0306 75.4228 41.5585 75.6082 41.1253L81.5969 27.1422C82.6174 24.759 84.6279 22.6987 87.32 21.2775C90.012 19.8562 93.2369 19.1525 96.4998 19.2743L117.7 20.0653C119.024 20.1148 120.337 19.8626 121.474 19.3403C122.611 18.818 123.522 18.049 124.091 17.1301L130.898 6.1487C131.267 5.55286 131.801 5.02607 132.463 4.60511C133.125 4.18415 133.898 3.87915 134.729 3.71139C135.561 3.54364 136.429 3.51716 137.275 3.6338C138.121 3.75045 138.923 4.00742 139.626 4.38677C141.052 5.15636 142.082 6.28471 142.538 7.57629C142.994 8.86786 142.848 10.2413 142.124 11.4586L133.847 25.366C132.926 26.9129 131.428 28.2154 129.543 29.1085C127.659 30.0017 125.471 30.4454 123.258 30.3835L102.936 29.8161C100.893 29.759 98.8728 30.1634 97.1263 30.9793C95.3798 31.7952 93.9834 32.9866 93.1099 34.406L85.7547 46.3555C85.629 46.5597 85.4522 46.7428 85.2343 46.8945C85.0165 47.0462 84.7618 47.1634 84.485 47.2395C84.2081 47.3157 83.9144 47.3491 83.6207 47.3381C83.327 47.327 83.039 47.2716 82.7731 47.1751C82.5072 47.0786 82.2688 46.9428 82.0712 46.7755C81.8737 46.6081 81.7211 46.4126 81.622 46.2C81.5228 45.9873 81.4793 45.7618 81.4936 45.5362C81.508 45.3106 81.5801 45.0895 81.7058 44.8853Z" fill="#754F50"/>
<path d="M114.316 23.6143C115.955 19.3975 117.1 16.1058 117.747 13.7386C118.177 12.1716 118.645 9.56248 119.156 5.91024C119.328 5.00389 119.028 4.08201 118.321 3.3444C117.614 2.60679 116.557 2.11287 115.379 1.96969C114.199 1.82624 112.994 2.04443 112.021 2.57725C111.049 3.11008 110.388 3.91491 110.181 4.81835C109.459 8.184 109.009 10.6836 108.829 12.3171C108.558 14.7875 108.33 18.4443 108.148 23.2876" fill="#9D6249"/>
<path d="M119.907 14.1805C119.191 16.5936 117.955 19.9122 116.204 24.1479C116.024 24.5826 115.626 24.9444 115.098 25.154C114.571 25.3635 113.956 25.4037 113.39 25.2656C112.825 25.1272 112.354 24.8221 112.081 24.4174C111.808 24.0126 111.755 23.5412 111.933 23.1065C113.653 18.9539 114.856 15.7195 115.541 13.4153C115.984 11.9251 116.503 9.36874 117.088 5.77668C117.303 4.76045 116.473 3.86057 115.235 3.6932C114.636 3.61222 114.02 3.71499 113.52 3.97937C113.019 4.24375 112.674 4.64859 112.558 5.10664C111.775 8.40238 111.274 10.8573 111.065 12.4323C110.743 14.862 110.435 18.4873 110.146 23.2968C110.11 23.7478 109.845 24.1699 109.407 24.4718C108.97 24.7738 108.395 24.9315 107.807 24.9107C107.22 24.8899 106.666 24.6924 106.267 24.3608C105.867 24.0292 105.653 23.5902 105.672 23.1386C105.964 18.2701 106.278 14.5886 106.61 12.0839C106.834 10.3987 107.349 7.86589 108.157 4.46985C108.868 1.65558 112.361 -0.187735 116.013 0.306338C117.759 0.543126 119.315 1.29666 120.346 2.40498C121.377 3.51331 121.8 4.88796 121.525 6.2335C120.927 9.91555 120.391 12.5544 119.907 14.1805Z" fill="#754F50"/>
<path d="M100.924 22.7213C100.523 18.2202 100.207 14.764 99.9792 12.3532C99.83 10.7546 99.577 8.19658 99.2217 4.67846C99.0623 3.77088 98.4435 2.94814 97.4995 2.38861C96.5554 1.82907 95.3623 1.57784 94.1787 1.68937C92.9929 1.80126 91.9117 2.26629 91.168 2.98432C90.4243 3.70236 90.0774 4.61598 90.2022 5.52847C90.647 8.72963 91.0814 11.1564 91.506 12.8072C92.1195 15.1973 93.245 18.8323 94.8795 23.7123" fill="#9D6249"/>
<path d="M93.8279 3.46677C93.2295 3.54774 92.6964 3.80604 92.3436 4.18602C91.9908 4.56599 91.8466 5.0372 91.9419 5.49809C92.5927 8.62932 93.1816 10.9902 93.6988 12.5624C94.4631 14.8861 95.8229 18.4437 97.7761 23.2234C97.9307 23.6533 97.8619 24.1126 97.5842 24.5043C97.3065 24.8961 96.8416 25.1897 96.2874 25.3233C95.7333 25.4568 95.1333 25.4199 94.6139 25.2203C94.0945 25.0208 93.6963 24.6741 93.5033 24.2534C91.527 19.4164 90.1462 15.8048 89.3574 13.4044C88.8013 11.7136 88.1908 9.26382 87.5191 6.03859C87.2395 4.68677 87.6626 3.30469 88.6972 2.19014C89.7317 1.07558 91.295 0.317742 93.0502 0.0799053C96.7021 -0.414741 100.193 1.43775 100.881 4.23597L100.9 4.33283C101.494 7.83491 101.922 10.3809 102.182 11.9749C102.574 14.3754 103.125 17.8161 103.833 22.2977C103.904 22.7505 103.739 23.2066 103.372 23.5656C103.006 23.9246 102.469 24.1572 101.879 24.2121C101.29 24.2671 100.696 24.1399 100.229 23.8586C99.7611 23.5773 99.4582 23.1649 99.3867 22.7121C98.8464 19.2747 98.2968 15.8382 97.738 12.4025C97.4813 10.824 97.0581 8.30032 96.4692 4.83378C96.3452 4.38745 96.0005 3.99551 95.5077 3.74051C95.0149 3.48551 94.4124 3.38737 93.8272 3.46677H93.8279Z" fill="#754F50"/>
<path d="M117.716 133.39C119.389 138.817 119.588 143.565 119.389 146.456C119.191 149.347 117.427 153.307 115.768 157.574H106.942C108.052 152.871 108.401 148.997 108.052 146.456C107.704 143.914 106.801 141.653 104.316 135.58" fill="#F88669"/>
<path d="M109.588 155.855C110.365 151.978 110.606 148.661 110.28 146.276C109.942 143.813 109.369 142.19 106.452 135.063C106.368 134.844 106.228 134.641 106.04 134.464C105.852 134.287 105.62 134.14 105.358 134.033C105.095 133.926 104.808 133.859 104.512 133.838C104.216 133.817 103.917 133.842 103.634 133.91C103.35 133.979 103.087 134.09 102.86 134.237C102.633 134.384 102.446 134.565 102.311 134.768C102.176 134.972 102.095 135.194 102.072 135.421C102.05 135.649 102.087 135.878 102.181 136.095C104.994 142.969 105.532 144.495 105.826 146.635C106.156 149.05 105.79 152.813 104.739 157.267C104.68 157.515 104.693 157.77 104.777 158.013C104.861 158.257 105.013 158.483 105.223 158.676C105.433 158.87 105.696 159.025 105.993 159.132C106.29 159.238 106.614 159.294 106.942 159.294H115.768C116.25 159.294 116.72 159.174 117.107 158.953C117.493 158.731 117.776 158.42 117.914 158.065C118.015 157.808 118.118 157.541 118.232 157.253C121.122 149.917 121.46 148.947 121.625 146.545C121.893 142.629 121.391 137.844 119.895 132.992C119.758 132.548 119.397 132.165 118.892 131.925C118.387 131.686 117.778 131.61 117.2 131.715C116.623 131.82 116.123 132.097 115.812 132.485C115.5 132.873 115.401 133.34 115.537 133.784C116.932 138.307 117.4 142.765 117.153 146.363C117.02 148.304 116.681 149.31 114.105 155.853H109.588V155.855Z" fill="#754F50"/>
<path d="M112.267 153.451C113.198 153.451 114.12 153.592 114.98 153.865C115.841 154.139 116.622 154.54 117.281 155.046C117.939 155.551 118.461 156.151 118.818 156.812C119.174 157.473 119.357 158.181 119.357 158.896V161.475H105.177V158.896C105.177 158.181 105.36 157.473 105.716 156.812C106.073 156.151 106.595 155.551 107.253 155.046C107.912 154.54 108.693 154.139 109.554 153.865C110.414 153.592 111.336 153.451 112.267 153.451Z" fill="#8C664F"/>
<path d="M117.118 159.756V158.896C117.118 157.908 116.607 156.96 115.697 156.261C114.788 155.563 113.554 155.17 112.267 155.17C110.98 155.17 109.746 155.563 108.837 156.261C107.927 156.96 107.416 157.908 107.416 158.896V159.756H117.118ZM112.267 151.731C117.418 151.731 121.596 154.939 121.596 158.896V161.475C121.596 161.701 121.538 161.925 121.426 162.133C121.313 162.342 121.148 162.531 120.94 162.691C120.733 162.851 120.486 162.977 120.214 163.064C119.942 163.15 119.651 163.195 119.357 163.195H105.177C104.883 163.195 104.592 163.15 104.32 163.064C104.048 162.977 103.801 162.851 103.594 162.691C103.386 162.531 103.221 162.342 103.108 162.133C102.996 161.925 102.938 161.701 102.938 161.475V158.896C102.938 154.939 107.116 151.731 112.267 151.731Z" fill="#754F50"/>
<path d="M115.317 107.356C124.886 108.574 132.453 109.185 138.016 109.185C143.578 109.185 151.802 108.315 162.685 106.577L161.149 98.4745C151.06 99.399 143.348 99.8621 138.016 99.8621C132.683 99.8621 126.517 98.8103 119.513 96.7068" fill="#F88669"/>
<path d="M160.164 105.218L159.247 100.377C150.129 101.179 143.06 101.583 138.016 101.583C132.377 101.583 125.943 100.486 118.697 98.3093C118.423 98.2271 118.173 98.1042 117.961 97.9477C117.749 97.7912 117.579 97.6042 117.461 97.3973C117.343 97.1904 117.28 96.9677 117.274 96.7419C117.268 96.5162 117.32 96.2917 117.427 96.0814C117.534 95.8711 117.694 95.6791 117.898 95.5163C118.102 95.3535 118.345 95.223 118.615 95.1325C118.884 95.042 119.174 94.9931 119.468 94.9886C119.762 94.9841 120.054 95.0242 120.328 95.1064C127.09 97.136 132.991 98.1425 138.016 98.1425C143.242 98.1425 150.875 97.6846 160.884 96.7675C161.464 96.7146 162.048 96.8375 162.511 97.1102C162.975 97.3829 163.281 97.7837 163.365 98.2274L164.9 106.33C164.982 106.764 164.846 107.205 164.519 107.564C164.192 107.922 163.699 108.172 163.141 108.261C152.12 110.02 143.765 110.904 138.017 110.904C132.31 110.904 124.631 110.285 114.952 109.053C114.367 108.978 113.843 108.728 113.498 108.358C113.152 107.987 113.012 107.526 113.109 107.076C113.206 106.626 113.532 106.225 114.014 105.959C114.497 105.694 115.097 105.586 115.683 105.661C125.141 106.865 132.596 107.465 138.016 107.465C143.043 107.465 150.441 106.717 160.164 105.218Z" fill="#754F50"/>
<path d="M170.622 100.975C170.497 100.431 170.227 99.9117 169.829 99.4511C169.431 98.9904 168.913 98.598 168.307 98.2984C167.702 97.9988 167.023 97.7984 166.312 97.71C165.602 97.6215 164.875 97.6469 164.177 97.7844L161.249 98.3621L163.412 106.351L166.045 105.994C166.774 105.896 167.472 105.688 168.097 105.382C168.722 105.076 169.262 104.679 169.687 104.213C170.112 103.747 170.413 103.221 170.574 102.666C170.734 102.11 170.751 101.536 170.622 100.975Z" fill="#8C664F"/>
<path d="M164.836 99.407C165.238 99.339 165.654 99.3356 166.058 99.397C166.462 99.4583 166.845 99.583 167.183 99.7634C167.521 99.9437 167.807 100.176 168.022 100.445C168.238 100.714 168.379 101.015 168.437 101.328C168.499 101.668 168.473 102.014 168.361 102.346C168.249 102.678 168.053 102.99 167.784 103.265C167.515 103.539 167.178 103.769 166.793 103.944C166.407 104.118 165.981 104.232 165.539 104.279L165.042 104.333L163.971 99.5525L164.836 99.407ZM164.439 95.9702C164.249 95.9908 164.061 96.017 163.874 96.0487L160.92 96.548C160.358 96.643 159.865 96.9008 159.543 97.2678C159.222 97.6347 159.097 98.0827 159.195 98.5185L160.995 106.56C161.094 107.001 161.412 107.394 161.882 107.658C162.352 107.922 162.937 108.034 163.514 107.972L166.161 107.687C170.471 107.222 173.476 104.161 172.869 100.848C172.297 97.7144 168.521 95.53 164.439 95.9702Z" fill="#754F50"/>
<path d="M50.6543 128.314L53.5971 128.036C54.3553 127.964 55.1246 128.017 55.8541 128.191C56.5837 128.365 57.2568 128.655 57.8291 129.044C58.4013 129.432 58.8595 129.91 59.1734 130.445C59.4873 130.98 59.6498 131.559 59.65 132.146C59.6501 132.761 59.4924 133.37 59.186 133.938C58.8795 134.507 58.4304 135.023 57.8641 135.458C57.2978 135.893 56.6255 136.238 55.8855 136.473C55.1456 136.709 54.3525 136.83 53.5516 136.83H50.6939C49.3083 136.83 47.9794 136.407 46.9997 135.655C46.0199 134.902 45.4695 133.882 45.4695 132.818C45.4691 131.71 45.996 130.641 46.9511 129.812C47.9061 128.982 49.2233 128.45 50.6543 128.314Z" fill="#F88669"/>
<path d="M47.7085 132.817C47.7085 133.425 48.0231 134.008 48.5829 134.438C49.1428 134.868 49.9021 135.109 50.6939 135.109H53.5516C54.0585 135.109 54.5605 135.033 55.0288 134.884C55.4971 134.735 55.9227 134.516 56.2811 134.241C56.6395 133.966 56.9237 133.639 57.1176 133.279C57.3115 132.92 57.4112 132.534 57.411 132.145C57.4108 131.802 57.3158 131.463 57.1322 131.15C56.9486 130.837 56.6806 130.558 56.346 130.33C56.0114 130.103 55.6177 129.933 55.191 129.831C54.7644 129.729 54.3145 129.699 53.8711 129.74L50.9282 130.019C50.0397 130.104 49.2221 130.435 48.6291 130.95C48.0362 131.465 47.7088 132.129 47.7085 132.817ZM53.3232 126.328C57.5065 125.933 61.3158 128.216 61.8315 131.428C61.8696 131.666 61.889 131.905 61.889 132.145C61.889 135.681 58.1566 138.548 53.5516 138.548H50.6939C46.5718 138.548 43.2305 135.982 43.2305 132.817C43.2305 129.657 46.2972 126.993 50.3804 126.607L53.3232 126.328Z" fill="#754F50"/>
<path d="M119.659 89.7038C120.876 90.0087 122.153 90.3256 123.493 90.6564C136.211 93.7922 149.998 89.2756 155.853 80.055L156.502 79.0348C156.709 78.7075 156.904 78.375 157.085 78.038C161.935 69.0255 156.353 58.7004 144.617 54.9759C133.833 51.5535 126.998 49.3015 124.112 48.2205C121.226 47.1395 114.706 44.3895 104.556 39.9703C104.143 39.7904 103.723 39.6206 103.296 39.4613C91.8844 35.1866 78.1211 38.8263 72.5541 47.5912L72.0295 48.4177C66.4222 57.2468 69.7218 67.8098 79.6825 73.7513C78.067 75.4097 77.1459 77.406 77.0412 79.4755C76.3045 93.8082 75.2626 103.752 73.9147 109.306C72.9169 113.419 68.4388 119.702 60.4798 128.155C58.7318 130.012 57.7908 132.245 57.7908 134.536C57.7908 140.55 64.1391 145.426 71.9713 145.426H104.075C118.213 145.426 129.933 137.011 130.882 126.178C131.611 117.881 131.832 112.257 131.551 109.306C131.246 106.1 129.191 100.591 119.659 89.7038Z" fill="#F88669"/>
<path d="M128.942 91.5368C139.962 92.4167 150.829 87.9677 155.856 80.0551L156.503 79.0349C156.71 78.7076 156.905 78.3751 157.086 78.0381C161.936 69.0256 156.354 58.7005 144.619 54.976C143.051 54.4785 141.567 54.0056 140.166 53.558C128.598 55.1846 120.085 63.1666 120.64 72.4399L121.016 78.715C121.157 81.1502 121.931 83.539 123.292 85.741C124.654 87.943 126.575 89.9136 128.942 91.5368Z" fill="#FFF4D4"/>
<path d="M123.493 90.6558C136.211 93.7916 149.998 89.275 155.853 80.0544L156.502 79.0342C156.709 78.7069 156.904 78.3745 157.085 78.0374C161.935 69.0249 156.353 58.6998 144.617 54.9753C133.833 51.5529 126.998 49.3009 124.112 48.2199C121.226 47.1389 114.706 44.3889 104.556 39.9692C104.143 39.7894 103.723 39.6197 103.296 39.4602C91.8844 35.186 78.1211 38.8257 72.5542 47.5906L72.0295 48.4171C66.4222 57.2462 69.7218 67.8092 79.6825 73.7507C78.0671 75.4091 77.1459 77.4054 77.0412 79.4749C76.3045 93.8077 75.2627 103.752 73.9148 109.306C72.9169 113.419 68.4388 119.702 60.4799 128.155C58.7319 130.012 57.791 132.245 57.7908 134.536C57.7908 140.55 64.1392 145.426 71.9713 145.426H104.075C118.213 145.426 129.933 137.011 130.882 126.178C131.611 117.881 131.832 112.257 131.551 109.306C131.246 106.099 129.191 100.591 119.659 89.7032C120.876 90.0087 122.153 90.3256 123.493 90.6558ZM119.659 89.7038L118.594 92.3581C119.818 92.6648 120.778 93.599 122.124 93.9309C124.438 94.5026 126.831 94.8655 129.254 95.0125C128.756 94.3414 128.248 93.6751 127.729 93.0138C126.874 91.9242 124.185 90.8214 119.659 89.7038ZM136.017 109.056C136.317 112.218 136.091 117.955 135.348 126.409C134.242 139.048 120.569 148.865 104.074 148.865H71.9713C61.6665 148.865 53.3127 142.45 53.3127 134.536C53.3127 131.521 54.5509 128.583 56.8512 126.14C64.4437 118.076 68.671 112.146 69.5128 108.676C70.8092 103.332 71.8384 93.5148 72.5669 79.3391C72.652 77.6651 73.1372 76.0173 73.9983 74.478C64.6668 67.3151 62.074 56.2483 68.0045 46.9097L68.5292 46.0832C75.1806 35.6113 91.6254 31.2627 105.261 36.3702C105.771 36.5611 106.272 36.764 106.766 36.9789C116.829 41.3602 123.305 44.092 126.076 45.13C128.847 46.168 135.638 48.4051 146.329 51.7977C160.349 56.2478 167.02 68.5841 161.226 79.3517C161.008 79.754 160.775 80.1512 160.527 80.5428L159.879 81.563C154.134 90.6099 141.843 95.7754 129.254 95.0125C133.648 100.954 135.669 105.407 136.017 109.056Z" fill="#754F50"/>
<path d="M126.601 91.3517C116.964 88.679 110.135 86.227 106.172 84.0386C105.689 83.7724 105.089 83.6643 104.503 83.7379C103.917 83.8115 103.393 84.0609 103.047 84.4312C102.7 84.8015 102.559 85.2624 102.655 85.7125C102.751 86.1625 103.076 86.5649 103.558 86.8311C107.93 89.2447 115.086 91.8148 125.081 94.5867C125.64 94.7415 126.255 94.7196 126.793 94.5257C127.33 94.3319 127.746 93.9819 127.947 93.553C128.149 93.124 128.12 92.6511 127.868 92.2382C127.615 91.8254 127.16 91.5065 126.601 91.3517ZM72.9565 73.6906C75.3955 75.409 77.1845 76.6504 78.3294 77.4196C80.9199 79.1598 83.7829 80.5004 86.5063 81.1229C87.0755 81.2529 87.6886 81.204 88.2108 80.9869C88.733 80.7698 89.1216 80.4022 89.2909 79.9651C89.4602 79.528 89.3965 79.0571 89.1138 78.6561C88.8311 78.255 88.3525 77.9566 87.7833 77.8266C85.751 77.3623 83.4217 76.271 81.2774 74.8306C80.1654 74.0832 78.398 72.8572 75.9829 71.1555C75.7661 71.0029 75.5124 70.8845 75.2361 70.8072C74.9598 70.7299 74.6664 70.6952 74.3726 70.705C74.0788 70.7148 73.7904 70.7689 73.5239 70.8643C73.2573 70.9597 73.0179 71.0945 72.8191 71.2609C72.6204 71.4274 72.4663 71.6223 72.3657 71.8345C72.2651 72.0466 72.2198 72.272 72.2326 72.4976C72.2453 72.7232 72.3158 72.9447 72.44 73.1494C72.5642 73.3541 72.7397 73.538 72.9565 73.6906Z" fill="#754F50"/>
<path d="M84.8233 104.946C77.0517 105.746 70.4376 105.746 64.8744 105.746C59.3112 105.746 51.0887 104.876 40.2063 103.138L41.7408 95.0354C51.8313 95.9599 59.5425 96.4231 64.8744 96.4231C70.2062 96.4231 75.503 95.3008 82.5074 93.1973" fill="#F88669"/>
<path d="M43.6431 96.9372C52.7604 97.7397 59.8298 98.1426 64.8743 98.1426C70.2263 98.1426 75.55 97.1332 83.3231 94.7987C83.597 94.7164 83.847 94.5936 84.059 94.4371C84.271 94.2806 84.4408 94.0936 84.5587 93.8867C84.6766 93.6798 84.7403 93.4571 84.7461 93.2313C84.7519 93.0056 84.6998 92.7811 84.5927 92.5708C84.4855 92.3605 84.3255 92.1685 84.1217 92.0056C83.918 91.8428 83.6744 91.7124 83.4051 91.6219C83.1357 91.5314 82.8457 91.4825 82.5517 91.478C82.2577 91.4735 81.9655 91.5136 81.6916 91.5958C74.3924 93.7876 69.5643 94.7036 64.8743 94.7036C59.6492 94.7036 52.0163 94.2456 42.0057 93.328C41.4259 93.2749 40.8421 93.3978 40.3787 93.6705C39.9153 93.9432 39.6089 94.3441 39.5248 94.7878L37.9903 102.891C37.9081 103.324 38.0444 103.765 38.3715 104.124C38.6985 104.483 39.1917 104.733 39.7502 104.822C50.7699 106.581 59.126 107.464 64.8743 107.464C73.8379 107.464 78.5921 107.321 85.1203 106.65C85.7089 106.589 86.2421 106.352 86.6026 105.989C86.963 105.627 87.1213 105.169 87.0425 104.717C86.9637 104.265 86.6544 103.856 86.1825 103.579C85.7106 103.302 85.1148 103.18 84.5262 103.241C78.2473 103.887 73.6513 104.026 64.8743 104.026C59.8462 104.026 52.4485 103.278 42.7259 101.779L43.6431 96.9372Z" fill="#754F50"/>
<path d="M32.2689 97.5361C32.3932 96.9944 32.6632 96.4785 33.0615 96.0214C33.4599 95.5643 33.9779 95.1759 34.5826 94.881C35.1872 94.5861 35.8652 94.3912 36.5734 94.3088C37.2816 94.2263 38.0043 94.2581 38.6956 94.402L41.5026 94.9872L39.536 102.991L36.8358 102.602C35.3593 102.39 34.0515 101.739 33.1965 100.79C32.3414 99.8416 32.0081 98.6723 32.2689 97.5361Z" fill="#8C664F"/>
<path d="M38.109 96.062C37.718 95.9804 37.3092 95.9623 36.9086 96.0089C36.508 96.0555 36.1244 96.1657 35.7824 96.3325C35.4404 96.4994 35.1474 96.7191 34.9222 96.9778C34.697 97.2365 34.5444 97.5283 34.4744 97.8348C34.3158 98.525 34.5183 99.2354 35.0377 99.8117C35.5571 100.388 36.3515 100.784 37.2485 100.913L37.7501 100.984L38.9181 96.2305L38.109 96.062ZM30.0642 97.2376C30.7733 94.1487 34.608 92.0871 38.63 92.631C38.8494 92.6608 39.0666 92.698 39.2823 92.7428L42.0893 93.3274C42.6332 93.4409 43.1014 93.7076 43.4006 94.0744C43.6998 94.4413 43.808 94.8812 43.7036 95.3066L41.737 103.31C41.6271 103.757 41.2902 104.153 40.8005 104.411C40.3107 104.668 39.708 104.765 39.1248 104.681L36.4246 104.293C32.1443 103.677 29.3082 100.53 30.0642 97.2376Z" fill="#754F50"/>
<path d="M80.3989 133.39C82.073 138.817 82.2708 143.565 82.073 146.456C81.8745 149.347 80.1101 153.307 78.4525 157.574H69.6248C70.7361 152.871 71.0846 148.997 70.7361 146.456C70.3875 143.914 69.4852 141.653 66.9999 135.58" fill="#F88669"/>
<path d="M72.2706 155.855C73.0475 151.978 73.2894 148.661 72.9625 146.276C72.6251 143.813 72.0519 142.19 69.136 135.063C68.9502 134.636 68.5531 134.281 68.0303 134.076C67.5074 133.871 66.9006 133.832 66.3405 133.967C65.7805 134.102 65.312 134.401 65.0359 134.799C64.7599 135.197 64.6984 135.662 64.8647 136.094C67.6776 142.968 68.2165 144.495 68.5098 146.635C68.8404 149.05 68.474 152.813 67.4224 157.267C67.3639 157.515 67.377 157.77 67.4607 158.013C67.5444 158.257 67.6968 158.483 67.9069 158.676C68.1171 158.869 68.3799 159.025 68.6769 159.132C68.9738 159.238 69.2977 159.294 69.6256 159.294H78.4533C78.9356 159.294 79.4051 159.174 79.7917 158.953C80.1784 158.731 80.4615 158.42 80.599 158.065C80.699 157.808 80.8028 157.541 80.9162 157.253C83.8068 149.916 84.1449 148.947 84.3098 146.545C84.5778 142.629 84.0755 137.844 82.5791 132.992C82.5113 132.772 82.3879 132.565 82.2158 132.382C82.0438 132.199 81.8264 132.043 81.5762 131.925C81.326 131.806 81.0478 131.726 80.7575 131.69C80.4672 131.654 80.1705 131.663 79.8844 131.715C79.5983 131.767 79.3283 131.861 79.0898 131.994C78.8514 132.126 78.6491 132.293 78.4947 132.485C78.3403 132.677 78.2366 132.891 78.1897 133.113C78.1427 133.336 78.1535 133.564 78.2212 133.784C79.6161 138.307 80.084 142.764 79.8377 146.363C79.7049 148.304 79.3653 149.31 76.7897 155.853H72.2706V155.855Z" fill="#754F50"/>
<path d="M76.0695 128.231C76.0693 128.532 76.1465 128.831 76.2964 129.109C76.4464 129.387 76.6663 129.64 76.9435 129.853C77.2207 130.066 77.5499 130.235 77.9122 130.35C78.2744 130.465 78.6627 130.525 79.0548 130.525C79.4469 130.525 79.8352 130.465 80.1975 130.35C80.5598 130.235 80.8889 130.066 81.1661 129.853C81.4434 129.64 81.6632 129.387 81.8132 129.109C81.9632 128.831 82.0403 128.532 82.0402 128.231C82.0403 127.93 81.9632 127.632 81.8132 127.354C81.6632 127.075 81.4434 126.822 81.1661 126.61C80.8889 126.397 80.5598 126.228 80.1975 126.112C79.8352 125.997 79.4469 125.938 79.0548 125.938C78.6627 125.938 78.2744 125.997 77.9122 126.112C77.5499 126.228 77.2207 126.397 76.9435 126.61C76.6663 126.822 76.4464 127.075 76.2964 127.354C76.1465 127.632 76.0693 127.93 76.0695 128.231Z" fill="#754F50"/>
<path d="M62.6354 131.097C62.6354 131.398 62.7126 131.696 62.8626 131.974C63.0127 132.253 63.2326 132.505 63.5098 132.718C63.787 132.931 64.1161 133.1 64.4783 133.215C64.8405 133.33 65.2287 133.39 65.6207 133.39C66.0128 133.39 66.401 133.33 66.7632 133.215C67.1254 133.1 67.4545 132.931 67.7317 132.718C68.0089 132.505 68.2288 132.253 68.3789 131.974C68.5289 131.696 68.6061 131.398 68.6061 131.097C68.6061 130.796 68.5289 130.498 68.3789 130.22C68.2288 129.941 68.0089 129.689 67.7317 129.476C67.4545 129.263 67.1254 129.094 66.7632 128.979C66.401 128.864 66.0128 128.804 65.6207 128.804C65.2287 128.804 64.8405 128.864 64.4783 128.979C64.1161 129.094 63.787 129.263 63.5098 129.476C63.2326 129.689 63.0127 129.941 62.8626 130.22C62.7126 130.498 62.6354 130.796 62.6354 131.097Z" fill="#754F50"/>
<path d="M95.4744 82.9506C95.4744 83.2517 95.5516 83.5499 95.7016 83.828C95.8516 84.1062 96.0715 84.3589 96.3488 84.5718C96.626 84.7847 96.9551 84.9536 97.3173 85.0688C97.6795 85.184 98.0677 85.2433 98.4597 85.2433C98.8518 85.2433 99.24 85.184 99.6022 85.0688C99.9644 84.9536 100.293 84.7847 100.571 84.5718C100.848 84.3589 101.068 84.1062 101.218 83.828C101.368 83.5499 101.445 83.2517 101.445 82.9506C101.445 82.6496 101.368 82.3514 101.218 82.0733C101.068 81.7951 100.848 81.5424 100.571 81.3295C100.293 81.1166 99.9644 80.9477 99.6022 80.8325C99.24 80.7173 98.8518 80.658 98.4597 80.658C98.0677 80.658 97.6795 80.7173 97.3173 80.8325C96.9551 80.9477 96.626 81.1166 96.3488 81.3295C96.0715 81.5424 95.8516 81.7951 95.7016 82.0733C95.5516 82.3514 95.4744 82.6496 95.4744 82.9506Z" fill="#754F50"/>
<path d="M74.95 153.451C75.8811 153.451 76.8031 153.592 77.6633 153.865C78.5235 154.139 79.3052 154.54 79.9635 155.046C80.6219 155.551 81.1442 156.151 81.5005 156.812C81.8568 157.473 82.0402 158.181 82.0402 158.896V161.475H67.8597V158.896C67.8597 158.181 68.0431 157.473 68.3995 156.812C68.7558 156.151 69.278 155.551 69.9364 155.046C70.5948 154.54 71.3764 154.139 72.2367 153.865C73.0969 153.592 74.0189 153.451 74.95 153.451Z" fill="#8C664F"/>
<path d="M79.8012 158.896C79.8012 157.908 79.2901 156.96 78.3803 156.261C77.4705 155.563 76.2366 155.17 74.95 155.17C73.6634 155.17 72.4294 155.563 71.5197 156.261C70.6099 156.96 70.0988 157.908 70.0988 158.896V159.756H79.8012V158.896ZM74.95 151.731C80.102 151.731 84.2793 154.939 84.2793 158.896V161.475C84.2793 161.701 84.2214 161.925 84.1088 162.133C83.9963 162.342 83.8314 162.531 83.6235 162.691C83.4156 162.851 83.1687 162.977 82.8971 163.064C82.6254 163.15 82.3343 163.195 82.0402 163.195H67.8597C67.5657 163.195 67.2746 163.15 67.0029 163.064C66.7313 162.977 66.4844 162.851 66.2765 162.691C66.0686 162.531 65.9037 162.342 65.7912 162.133C65.6786 161.925 65.6207 161.701 65.6207 161.475V158.896C65.6207 154.939 69.798 151.731 74.95 151.731Z" fill="#754F50"/>
<path d="M153.18 57.7317C154.83 57.742 156.521 58.0057 158.254 58.5233C160.499 59.0546 162.394 60.1791 162.394 62.2529C162.394 62.4025 162.381 62.5515 162.359 62.7005C162.178 63.859 161.45 64.9263 160.314 65.7006C159.177 66.4749 157.711 66.9025 156.191 66.9024H150.671C149.031 66.9025 147.435 66.4926 146.125 65.7346C144.814 64.9765 143.861 63.9115 143.408 62.7005C143.095 61.861 143.228 60.9603 143.779 60.1963C144.33 59.4323 145.253 58.8676 146.346 58.6264C146.975 58.4866 149.971 57.7116 153.18 57.7317Z" fill="#8B674F"/>
<path d="M153.162 59.4512C151.81 59.4432 150.373 59.5957 148.917 59.8622C148.501 59.9378 148.111 60.0181 147.718 60.1064C147.515 60.1516 147.017 60.2674 146.967 60.2783C146.444 60.3935 146.002 60.6632 145.739 61.0283C145.475 61.3934 145.411 61.8239 145.56 62.2254C145.879 63.0777 146.55 63.8271 147.473 64.3606C148.396 64.894 149.519 65.1824 150.674 65.1824H156.194C157.165 65.182 158.103 64.9084 158.83 64.4134C159.556 63.9183 160.022 63.236 160.138 62.4953C160.15 62.4145 160.155 62.3337 160.155 62.2529C160.155 61.2355 159.339 60.5798 157.594 60.1665L157.442 60.1258C155.956 59.6816 154.532 59.4592 153.162 59.4512ZM164.633 62.2523C164.633 62.4701 164.616 62.6879 164.583 62.9046C164.336 64.4805 163.346 65.9325 161.8 66.986C160.254 68.0394 158.259 68.6212 156.192 68.6214H150.672C148.546 68.6215 146.477 68.0901 144.778 67.1074C143.079 66.1248 141.843 64.7443 141.256 63.1745C140.261 60.5145 142.264 57.7397 145.726 56.9734C145.737 56.9711 146.229 56.8565 146.467 56.8032C146.935 56.6985 147.406 56.6029 147.879 56.5166C149.662 56.191 151.441 56.0019 153.198 56.0128C155.105 56.0248 157.039 56.3229 158.992 56.8989C162.397 57.7243 164.633 59.5429 164.633 62.2523Z" fill="#754F50"/>
<path d="M115.463 98.5169C122.851 98.2773 129.093 102.683 129.405 108.357C129.413 108.502 129.417 108.646 129.417 108.79V125.308C129.417 131.917 122.591 137.335 113.989 137.553C106.21 137.75 99.6971 133.066 99.4397 127.092C99.4255 126.764 99.4307 126.435 99.4553 126.108L100.699 109.677C101.159 103.597 107.54 98.7748 115.463 98.5169Z" fill="#FFFBEF"/>
<path d="M74.4514 50.2628L63.7839 39.8901C62.2454 38.394 60.1692 37.2774 57.8125 36.6785C55.4557 36.0797 52.922 36.0249 50.5252 36.521L30.8912 40.5842C29.1803 40.9383 27.371 40.8948 25.6923 40.4592C24.0136 40.0235 22.5409 39.2153 21.4604 38.1367L9.32266 26.0159C8.57857 25.2733 8.19656 24.3541 8.24291 23.4177C8.28926 22.4814 8.76106 21.5871 9.57641 20.89C9.93273 20.585 10.3715 20.3434 10.8619 20.182C11.3524 20.0206 11.8829 19.9434 12.4162 19.9557C12.9496 19.9681 13.473 20.0697 13.95 20.2534C14.4269 20.4372 14.8459 20.6986 15.1777 21.0196L25.0227 30.544C26.1215 31.6066 27.605 32.3959 29.2866 32.8125C30.9681 33.2292 32.7726 33.2545 34.4729 32.8854L54.8987 28.4513C57.5711 27.8714 60.4174 27.9808 63.001 28.7627C65.5846 29.5446 67.7629 30.9558 69.2016 32.7799L79.1325 45.3702" fill="#9D6249"/>
<path d="M76.2076 49.1967L65.5416 38.8246C63.7315 37.0645 61.2889 35.7508 58.5163 35.0462C55.7438 34.3416 52.763 34.2771 49.9431 34.8605L30.3083 38.9243C29.0254 39.1899 27.6688 39.1573 26.4101 38.8305C25.1514 38.5037 24.0473 37.8974 23.2375 37.0884L11.0975 24.9676C10.6722 24.5434 10.4537 24.0182 10.48 23.4831C10.5064 22.9481 10.7758 22.4371 11.2415 22.0387C11.3805 21.92 11.5516 21.826 11.7427 21.7633C11.9338 21.7005 12.1405 21.6706 12.3483 21.6755C12.556 21.6804 12.7599 21.7201 12.9457 21.7917C13.1314 21.8633 13.2946 21.9652 13.4238 22.0903L23.2711 31.6135C24.6444 32.9419 26.4987 33.9286 28.6006 34.4495C30.7025 34.9704 32.9581 35.0021 35.0834 34.5407L55.5085 30.1066C57.7093 29.6289 60.0535 29.7189 62.1812 30.3629C64.309 31.0069 66.1028 32.1693 67.2873 33.6718L77.2181 46.2615C77.5285 46.6471 78.0246 46.9231 78.5985 47.0292C79.1724 47.1354 79.7777 47.0632 80.2827 46.8283C80.7876 46.5935 81.1514 46.215 81.2948 45.7752C81.4382 45.3354 81.3496 44.8699 81.0483 44.48L71.1175 31.8898C69.4247 29.7437 66.8619 28.0835 63.8222 27.1636C60.7825 26.2438 57.4338 26.1153 54.2898 26.7977L33.8654 31.2318C32.5902 31.5086 31.2369 31.4895 29.9758 31.177C28.7147 30.8645 27.6022 30.2725 26.7781 29.4756L16.9309 19.9512C16.3966 19.4343 15.7219 19.0131 14.9538 18.7171C14.1857 18.4211 13.3428 18.2574 12.4838 18.2374C11.6248 18.2175 10.7705 18.3417 9.98054 18.6015C9.19054 18.8612 8.48387 19.2503 7.90987 19.7414C6.74543 20.7374 6.07165 22.0149 6.0054 23.3525C5.93914 24.6901 6.4846 26.0032 7.54715 27.0643L19.6864 39.1845C21.0369 40.5325 22.8775 41.5427 24.9756 42.0873C27.0737 42.6319 29.3349 42.6865 31.4734 42.2441L51.1081 38.1803C53.082 37.7717 55.1686 37.8168 57.1095 38.31C59.0503 38.8032 60.7602 39.7229 62.0271 40.955L72.6931 51.3271C73.0609 51.6851 73.5989 51.9162 74.1887 51.9696C74.7784 52.023 75.3716 51.8942 75.8378 51.6117C76.3039 51.3292 76.6048 50.916 76.6743 50.4631C76.7438 50.0102 76.5762 49.5547 76.2083 49.1967H76.2076Z" fill="#754F50"/>
<path d="M37.2037 34.0019C34.9401 30.3325 33.1205 27.4105 31.7465 25.2336C30.8374 23.7926 29.5597 21.3486 27.914 17.8999C27.4614 17.0526 27.4618 16.1024 27.9151 15.2554C28.3685 14.4083 29.2382 13.7326 30.3359 13.3747C31.4357 13.0162 32.675 13.0038 33.7866 13.3402C34.8982 13.6766 35.7933 14.3349 36.279 15.1733C38.1404 18.9981 39.4151 21.6868 40.104 23.2378C41.1459 25.5849 42.4736 28.7924 44.0872 32.8608" fill="#9D6249"/>
<path d="M37.9911 23.7634C39.0756 26.0755 40.469 29.2486 42.1692 33.278C42.3587 33.7056 42.7597 34.0588 43.2855 34.2612C43.8113 34.4636 44.4197 34.499 44.9792 34.3597C45.5387 34.2204 46.0044 33.9176 46.2756 33.5168C46.5468 33.116 46.6017 32.6493 46.4285 32.2176C44.7157 28.1567 43.3073 24.9504 42.2027 22.5975C41.4691 21.0357 40.1279 18.3526 38.1725 14.5388L38.118 14.4413C37.3649 13.2012 36.0077 12.2378 34.3388 11.7586C32.6698 11.2794 30.8225 11.3227 29.1948 11.8792C27.5746 12.4332 26.3021 13.4533 25.6509 14.7202C24.9997 15.9871 25.0218 17.3996 25.7123 18.6541C27.4543 22.1155 28.8074 24.5761 29.7881 26.0652C31.2076 28.2181 33.0914 31.112 35.4357 34.7453C35.6994 35.1539 36.1637 35.4654 36.7265 35.6111C37.2892 35.7568 37.9043 35.7248 38.4363 35.5223C38.9684 35.3197 39.3739 34.9631 39.5636 34.5309C39.7533 34.0988 39.7118 33.6264 39.448 33.2178C37.5753 30.3097 35.687 27.4075 33.7833 24.5114C32.8854 23.1472 31.5741 20.7628 29.8747 17.3868C29.3463 16.4411 29.8687 15.4128 31.0166 15.0208C31.5627 14.8339 32.1817 14.8164 32.7442 14.972C33.3067 15.1275 33.7691 15.444 34.0348 15.8553C35.9588 19.6096 37.2791 22.2485 37.9904 23.7634H37.9911Z" fill="#754F50"/>
<path d="M50.8992 30.8237C50.1075 27.4129 49.3241 24.001 48.5489 20.588C48.1907 19.0095 47.6309 16.4801 46.8674 13.001C46.7364 12.0907 47.0777 11.1774 47.8175 10.4591C48.5572 9.74083 49.6357 9.27535 50.8193 9.16357C52.0051 9.0517 53.2007 9.30199 54.1486 9.86053C55.0965 10.4191 55.7207 11.2412 55.887 12.1498C56.4639 15.3389 56.8065 17.7726 56.9154 19.4549C57.0722 21.888 57.1259 25.6233 57.0781 30.6626" fill="#9D6249"/>
<path d="M50.6759 10.9158C51.2762 10.8427 51.8897 10.9536 52.3845 11.2247C52.8792 11.4957 53.2155 11.9051 53.321 12.3647C54.0315 15.4885 54.4748 17.8672 54.6547 19.4835C54.9174 21.8719 55.1398 25.5763 55.3189 30.5835C55.349 31.0321 55.6063 31.4537 56.0359 31.7585C56.4654 32.0632 57.0331 32.2269 57.6177 32.2144C58.2022 32.202 58.7573 32.0145 59.1642 31.692C59.5712 31.3695 59.7977 30.9375 59.7955 30.4884C59.6134 25.4216 59.388 21.6616 59.1163 19.1946C58.9252 17.4568 58.4633 14.9876 57.7318 11.7704C57.423 10.4222 56.4369 9.22116 54.9861 8.42599C53.5352 7.63082 51.7356 7.30516 49.9751 7.51916C48.2152 7.73315 46.636 8.47117 45.5798 9.57326C44.5237 10.6754 44.0756 12.0527 44.3328 13.4068L44.3552 13.5042C45.0247 16.0203 45.7009 18.5354 46.3837 21.0494C47.0323 23.4178 47.9697 26.8086 49.1989 31.2221C49.3279 31.6643 49.6789 32.0496 50.1758 32.2941C50.6727 32.5386 51.2751 32.6226 51.8522 32.5278C52.4293 32.433 52.9343 32.1671 53.2574 31.7879C53.5805 31.4086 53.6956 30.9468 53.5777 30.5027C52.6321 27.1176 51.695 23.7311 50.7662 20.3433C50.0898 17.8532 49.4203 15.362 48.7578 12.8697C48.6859 12.4167 48.8457 11.9599 49.2034 11.5954C49.5611 11.231 50.089 10.9874 50.6759 10.9158Z" fill="#754F50"/>
<path d="M89.4111 45.5932C89.4111 48.1283 90.5169 50.5596 92.4851 52.3523C94.4533 54.1449 97.1227 55.152 99.9062 55.152C102.69 55.152 105.359 54.1449 107.327 52.3523C109.296 50.5596 110.401 48.1283 110.401 45.5932C110.401 43.058 109.296 40.6267 107.327 38.8341C105.359 37.0415 102.69 36.0344 99.9062 36.0344C97.1227 36.0344 94.4533 37.0415 92.4851 38.8341C90.5169 40.6267 89.4111 43.058 89.4111 45.5932Z" fill="white"/>
<path d="M109.821 45.0126C109.821 47.0154 110.759 48.9361 112.43 50.3523C114.101 51.7685 116.367 52.5641 118.73 52.5641C121.093 52.5641 123.36 51.7685 125.031 50.3523C126.701 48.9361 127.64 47.0154 127.64 45.0126C127.64 43.0098 126.701 41.089 125.031 39.6728C123.36 38.2567 121.093 37.4611 118.73 37.4611C116.367 37.4611 114.101 38.2567 112.43 39.6728C110.759 41.089 109.821 43.0098 109.821 45.0126Z" fill="white"/>
<path d="M119.146 53.758C124.706 53.758 129.06 49.845 129.06 45.141C129.06 40.437 124.706 36.5239 119.146 36.5239C113.587 36.5239 109.234 40.4364 109.234 45.141C109.234 49.8456 113.587 53.758 119.146 53.758ZM119.146 50.319C116.229 50.319 113.712 48.0556 113.712 45.141C113.712 42.2264 116.229 39.963 119.146 39.963C122.063 39.963 124.582 42.2264 124.582 45.141C124.582 48.0556 122.063 50.319 119.146 50.319Z" fill="#754F50"/>
<path d="M118.221 47.879C117.788 48.3037 117.147 48.5725 116.433 48.5725C115.128 48.5725 114.072 47.6761 114.072 46.5704C114.072 45.4642 115.128 44.5677 116.433 44.5677C117.722 44.5677 118.768 45.4424 118.795 46.5297L117.042 46.7458L118.221 47.879Z" fill="#232323"/>
<path d="M100.326 57.158C108 57.158 114.133 51.9932 114.133 45.6946C114.133 39.396 108 34.2312 100.326 34.2312C92.6517 34.2312 86.5183 39.3972 86.5183 45.6946C86.5183 51.992 92.6517 57.158 100.326 57.158ZM100.326 53.719C95.2221 53.719 90.9964 50.1602 90.9964 45.6946C90.9964 41.229 95.2221 37.6702 100.326 37.6702C105.429 37.6702 109.655 41.2296 109.655 45.6946C109.655 50.1596 105.429 53.719 100.326 53.719Z" fill="#754F50"/>
<path d="M99.8823 48.7141C99.2673 49.3222 98.356 49.7068 97.3402 49.7068C95.4856 49.7068 93.9817 48.4241 93.9817 46.841C93.9817 45.2579 95.4856 43.9751 97.3402 43.9751C99.1725 43.9751 100.662 45.2269 100.699 46.7825L98.209 47.0914L99.8823 48.7141Z" fill="#232323"/>
</svg>
