<svg width="152" height="140" viewBox="0 0 152 140" fill="none" xmlns="http://www.w3.org/2000/svg">
<path d="M38.7475 117.806L46.1766 112.859C46.2619 112.803 46.3296 112.733 46.3745 112.653C46.4195 112.574 46.4406 112.488 46.4362 112.402C46.4319 112.315 46.4023 112.231 46.3496 112.154C46.2969 112.078 46.2225 112.012 46.1318 111.961L42.2598 109.752C42.1183 109.671 41.9454 109.63 41.7695 109.635C41.5937 109.64 41.4252 109.691 41.2918 109.779C33.6918 114.32 29.8094 116.622 29.6437 116.689L25.5082 118.339C25.0854 118.508 24.7161 118.746 24.4267 119.036C24.1698 119.294 23.9824 119.589 23.8754 119.903C23.7684 120.217 23.744 120.544 23.8036 120.865C23.8633 121.186 24.0057 121.495 24.2227 121.774C24.4396 122.053 24.7267 122.295 25.0671 122.487L43.3831 133.019C43.6129 133.15 43.9197 133.174 44.1787 133.079L48.0067 131.679C48.2388 131.595 48.3694 131.358 48.4 130.971C47.0782 127.99 43.7189 124.694 41.6232 123.133C41.0858 122.733 40.1619 122.136 38.8513 121.338C38.5439 121.151 38.2874 120.92 38.0965 120.657C37.9056 120.394 37.784 120.105 37.7387 119.806C37.6933 119.507 37.7252 119.204 37.8323 118.914C37.9395 118.624 38.1199 118.354 38.3632 118.118C38.4781 118.004 38.6072 117.899 38.7475 117.806Z" fill="#FFC62E"/>
<path d="M29.1071 114.852C29.8431 114.42 30.5777 113.986 31.3111 113.551C33.2441 112.404 36.1026 110.7 39.885 108.441C40.4047 108.114 41.0522 107.929 41.7244 107.916C42.3966 107.903 43.0551 108.064 43.5951 108.371L47.4671 110.58C47.827 110.785 48.1223 111.049 48.3313 111.353C48.5403 111.657 48.6576 111.994 48.6746 112.337C48.6916 112.681 48.6078 113.023 48.4294 113.339C48.251 113.654 47.9826 113.935 47.644 114.16L40.2149 119.106C40.1318 119.161 40.0656 119.23 40.0211 119.307C39.9766 119.384 39.9548 119.468 39.9573 119.552C39.9598 119.636 39.9865 119.719 40.0355 119.795C40.0846 119.87 40.1548 119.937 40.241 119.989C41.6061 120.818 42.5771 121.448 43.1816 121.898C46.0677 124.045 49.2404 127.53 50.5197 130.415L50.6615 130.735L50.6346 131.074C50.56 132.02 50.1219 132.808 48.9688 133.23L45.1408 134.63C44.6451 134.811 44.0946 134.885 43.5485 134.843C43.0023 134.802 42.4812 134.647 42.0412 134.395L23.732 123.866C23.1533 123.538 22.6656 123.125 22.2971 122.65C21.9287 122.176 21.6869 121.65 21.586 121.103C21.485 120.556 21.5269 119.999 21.7092 119.465C21.8914 118.93 22.2104 118.429 22.6475 117.99C23.137 117.499 23.7613 117.097 24.4761 116.812L28.4817 115.213C28.672 115.105 28.8608 114.996 29.1071 114.852ZM42.7577 111.079L42.6965 111.116C42.7174 111.104 42.7383 111.092 42.7577 111.079ZM40.0649 124.366C39.594 124.016 38.7178 123.447 37.4617 122.683C36.8593 122.317 36.3695 121.853 36.0272 121.325C35.6849 120.797 35.4985 120.217 35.4813 119.627C35.4642 119.038 35.6166 118.452 35.9278 117.913C36.239 117.373 36.7013 116.893 37.2818 116.506L43.3107 112.492L41.8195 111.642C33.5344 116.591 31.0364 118.07 30.6759 118.214L26.5405 119.864C26.4094 119.916 26.295 119.99 26.2053 120.08C25.8829 120.403 25.9673 120.857 26.4091 121.109L44.0138 131.232L45.7923 130.581C44.5347 128.435 42.1644 125.928 40.0649 124.366Z" fill="#754F50"/>
<path d="M109.074 119.533L101.814 111.042C101.713 110.923 101.557 110.836 101.378 110.8C101.199 110.763 101.008 110.779 100.843 110.844L96.5726 112.53C96.1524 112.741 96.0577 113.104 96.2868 113.373L108.614 130.909C108.771 131.247 109.02 131.557 109.346 131.815C109.641 132.048 109.992 132.234 110.381 132.362C110.77 132.49 111.187 132.558 111.61 132.561C112.033 132.564 112.453 132.502 112.844 132.38C113.236 132.257 113.592 132.076 113.892 131.847L130.277 119.379C130.591 119.102 130.557 118.733 130.243 118.522C128.065 117.126 126.9 116.438 126.75 116.46C122.599 117.041 119.349 118.03 117.001 119.429C116.59 119.678 116.191 119.938 115.804 120.209V120.209C115.324 120.539 114.756 120.785 114.141 120.931C113.525 121.078 112.876 121.12 112.237 121.056C111.598 120.992 110.985 120.823 110.439 120.56C109.893 120.297 109.427 119.947 109.074 119.533Z" fill="#FFC62E"/>
<path d="M95.3463 111.092L95.4456 111.042L99.8199 109.315C100.476 109.056 101.234 108.992 101.948 109.137C102.662 109.281 103.281 109.623 103.686 110.097L110.946 118.589C111.122 118.796 111.355 118.971 111.628 119.103C111.901 119.234 112.208 119.319 112.528 119.351C112.847 119.383 113.172 119.361 113.48 119.288C113.787 119.215 114.071 119.091 114.311 118.926C114.737 118.628 115.178 118.342 115.631 118.068C118.293 116.482 121.872 115.393 126.35 114.766C126.724 114.71 127.11 114.73 127.471 114.824C127.615 114.859 127.741 114.901 127.863 114.948C128.003 115.004 128.139 115.066 128.288 115.141C128.505 115.25 128.77 115.4 129.101 115.595C129.712 115.956 130.568 116.489 131.72 117.228C132.987 118.082 133.067 119.535 131.968 120.507L131.854 120.6L115.47 133.068C114.96 133.457 114.354 133.764 113.689 133.972C113.023 134.18 112.31 134.284 111.591 134.279C110.872 134.274 110.162 134.16 109.502 133.942C108.841 133.725 108.243 133.409 107.742 133.013C107.236 132.614 106.839 132.142 106.574 131.623L94.3492 114.234C93.5044 113.154 93.9648 111.788 95.3463 111.092ZM118.374 120.787C118.111 120.944 117.75 121.18 117.298 121.491C114.535 123.39 110.287 123.21 107.813 121.088C107.59 120.897 107.386 120.694 107.203 120.479L100.677 112.846L98.9437 113.53L110.669 130.21L110.727 130.336C110.776 130.443 110.855 130.539 110.955 130.618C111.043 130.688 111.149 130.744 111.265 130.783C111.382 130.822 111.508 130.842 111.635 130.843C111.762 130.844 111.888 130.826 112.005 130.789C112.123 130.752 112.23 130.697 112.32 130.628L127.546 119.041C127.16 118.798 126.77 118.559 126.375 118.325C126.35 118.31 126.326 118.295 126.301 118.282C122.893 118.823 120.255 119.668 118.374 120.787Z" fill="#754F50"/>
<path d="M55.6828 65.194C32.4641 63.7221 24.364 60.1707 22.8087 55.3796C21.2533 50.5884 33.4097 45.3846 55.6335 40.3934" fill="#4FA5F6"/>
<path d="M56.3933 62.899C35.7338 62.4227 26.6613 59.8846 24.9693 55.6357C23.7088 52.4684 34.2688 47.1402 55.3268 41.4761C55.6043 41.4015 55.8599 41.2855 56.0791 41.135C56.2983 40.9845 56.4767 40.8022 56.6042 40.5987C56.7317 40.3952 56.8058 40.1744 56.8221 39.949C56.8385 39.7235 56.7969 39.4977 56.6997 39.2846C56.6024 39.0715 56.4515 38.8751 56.2555 38.7068C56.0594 38.5385 55.8222 38.4015 55.5572 38.3036C55.2922 38.2057 55.0047 38.1488 54.7111 38.1362C54.4175 38.1236 54.1235 38.1556 53.846 38.2303C30.0885 44.6205 18.2739 50.5815 20.6861 56.6411C23.1527 62.8376 33.8112 65.8193 56.2582 66.3363C56.5538 66.3453 56.8488 66.3092 57.1261 66.2301C57.4034 66.1511 57.6576 66.0306 57.874 65.8757C58.0903 65.7207 58.2645 65.5344 58.3866 65.3275C58.5086 65.1205 58.576 64.897 58.585 64.67C58.5939 64.4429 58.5441 64.2167 58.4386 64.0045C58.333 63.7923 58.1737 63.5982 57.9699 63.4335C57.7661 63.2689 57.5219 63.1368 57.2513 63.0451C56.9807 62.9533 56.689 62.9037 56.3933 62.899Z" fill="#754F50"/>
<path d="M28.5346 110.273C37.1048 114.317 55.4626 116.972 71.0328 117.084C77.5759 117.131 89.4017 116.041 106.514 113.815C116.671 111.627 124.032 108.729 125.218 97.4996C126.941 81.1728 127.223 70.5319 126.058 65.578C125.117 61.5663 123.459 54.5467 121.082 44.5191C117.667 30.1119 101.409 19.6464 82.4398 19.6464H73.5718C54.7289 19.6464 38.5408 29.9778 34.9927 44.2669L26.4053 81.3149C25.6828 84.4319 21.8071 86.5085 17.7492 85.9542C16.8267 85.8276 15.9434 85.569 15.1452 85.1919L13.245 84.2949C11.5852 83.6374 8.60727 84.5442 7.46761 85.9055C6.32794 87.2667 8.75952 94.1494 10.6948 96.7332C12.6308 99.3137 19.9636 106.23 28.5346 110.273Z" fill="#4FA5F6"/>
<path d="M27.3621 111.739C19.8658 108.202 11.7867 101.636 8.75354 97.5884C6.22195 94.209 3.90978 86.9727 5.58382 84.9729C7.33101 82.8855 11.5292 81.6795 14.2705 82.764L16.3185 83.7263C17.0436 84.0691 17.8669 84.2706 18.7166 84.3133C19.5663 84.3559 20.4167 84.2384 21.1938 83.9709C21.9709 83.7035 22.651 83.2942 23.1751 82.7788C23.6991 82.2633 24.0512 81.6573 24.2006 81.0135L32.7932 43.9448C36.5421 28.8464 53.6527 17.9269 73.5718 17.9269H82.4398C102.492 17.9269 119.677 28.9885 123.284 44.2113C125.661 54.2401 127.32 61.2603 128.261 65.2736C129.471 70.4264 129.188 81.1579 127.448 97.6389C126.843 103.376 124.66 107.427 120.78 110.288C117.553 112.666 113.52 114.092 107.117 115.471C89.651 117.752 77.7252 118.851 71.0104 118.803C54.3983 118.685 36.0286 115.827 27.3621 111.739ZM9.44988 87.66C9.53347 88.4103 9.76185 89.3818 10.1029 90.4496C10.7821 92.5755 11.812 94.773 12.636 95.8735C15.3064 99.4369 22.8661 105.581 29.7071 108.808C37.5504 112.509 55.1805 115.25 71.0537 115.364C77.4102 115.408 89.1002 114.334 106.023 112.134C111.708 110.903 115.124 109.688 117.68 107.805C120.704 105.575 122.462 102.311 122.986 97.358C124.692 81.1849 124.969 70.6357 123.854 65.8806C122.912 61.8702 121.255 54.8517 118.878 44.8246C115.658 31.2359 100.324 21.3659 82.4398 21.3659H73.5718C55.8059 21.3659 40.5395 31.1092 37.1974 44.5684L28.61 81.6159C27.6711 85.6671 22.6325 88.3673 17.3574 87.6462C16.1578 87.4824 15.0092 87.1462 13.972 86.6552L12.177 85.8069C11.6478 85.6556 10.0828 86.1044 9.44017 86.7372C9.40435 87.0152 9.41032 87.3052 9.44988 87.66Z" fill="#754F50"/>
<path d="M119.004 45.3754C120.624 52.1477 122.238 58.921 123.843 65.6954C124.975 70.4751 124.701 80.7423 123.025 96.4965C121.872 107.331 114.715 110.128 104.836 112.24C88.1964 114.387 76.6945 115.439 70.3312 115.394C66.0629 115.364 61.3027 115.048 56.5314 114.559C57.2516 113.896 58.0948 113.318 59.0339 112.843C66.4592 109.086 71.0716 98.2653 71.7978 94.8715C73.2741 87.9734 73.4256 79.5948 73.327 55.2431C73.2748 42.2636 85.4111 31.1458 102.062 28.9202C103.56 28.7196 105.078 28.622 106.598 28.6285C113.083 32.9713 117.456 38.8755 119.004 45.3754Z" fill="white"/>
<path d="M110.719 44.3253C110.719 45.6907 111 47.0427 111.544 48.3042C112.088 49.5656 112.886 50.7118 113.891 51.6773C114.897 52.6428 116.091 53.4086 117.405 53.9312C118.719 54.4537 120.127 54.7226 121.549 54.7226C122.971 54.7226 124.379 54.4537 125.693 53.9312C127.007 53.4086 128.201 52.6428 129.206 51.6773C130.212 50.7118 131.01 49.5656 131.554 48.3042C132.098 47.0427 132.378 45.6907 132.378 44.3253C132.378 42.9599 132.098 41.6079 131.554 40.3464C131.01 39.085 130.212 37.9388 129.206 36.9733C128.201 36.0078 127.007 35.2419 125.693 34.7194C124.379 34.1969 122.971 33.928 121.549 33.928C120.127 33.928 118.719 34.1969 117.405 34.7194C116.091 35.2419 114.897 36.0078 113.891 36.9733C112.886 37.9388 112.088 39.085 111.544 40.3464C111 41.6079 110.719 42.9599 110.719 44.3253Z" fill="white"/>
<path d="M122.002 53.7832C128.323 53.7832 133.27 49.2362 133.27 43.7653C133.27 38.2944 128.323 33.7474 122.002 33.7474C115.68 33.7474 110.734 38.2944 110.734 43.7653C110.734 49.2362 115.682 53.7832 122.002 53.7832ZM122.002 50.3442C118.349 50.3442 115.212 47.46 115.212 43.7653C115.212 40.0707 118.35 37.1865 122.002 37.1865C125.654 37.1865 128.792 40.0707 128.792 43.7653C128.792 47.46 125.654 50.3442 122.002 50.3442Z" fill="#754F50"/>
<path d="M126.884 45.3399C126.373 45.8511 125.621 46.1744 124.781 46.1744C123.245 46.1744 122.002 45.0957 122.002 43.7654C122.002 42.435 123.245 41.3563 124.781 41.3563C126.296 41.3563 127.529 42.4087 127.559 43.7166L125.499 43.9763L126.884 45.3404V45.3399Z" fill="#232323"/>
<path d="M113.065 69.8303C116.903 69.5999 120.223 69.5145 126.151 66.1632C128.623 64.7652 133.1 61.9561 135.188 60.0297C137.166 58.2059 136.534 56.002 135.188 54.541C132.421 51.537 128.282 51.3662 123.592 50.2417C121.791 49.8101 117.635 48.8913 112.316 48.1146C113.677 51.2344 114.278 54.9944 114.115 59.3946C113.973 63.236 113.623 66.7146 113.065 69.8303Z" fill="#FFC62E"/>
<path d="M116.328 57.7541C116.834 54.4091 116.872 51.3742 116.435 48.6476C119.232 49.3285 121.735 50.0318 123.733 50.6629C124.284 50.8365 124.849 51.0039 125.505 51.1884C125.759 51.2601 126.017 51.3312 126.348 51.4229L127.155 51.6453C131.024 52.7148 132.513 53.4175 133.714 54.9983C134.633 56.2077 134.593 57.4933 133.435 58.388C131.616 59.7963 127.482 62.0816 124.16 63.6366C120.316 65.4358 117.816 66.045 114.641 66.1539C115.307 63.581 115.868 60.7816 116.328 57.7541ZM111.852 69.6016L112.341 69.6056C113.009 69.6107 113.362 69.6125 113.771 69.6096C118.192 69.5815 121.581 68.8708 126.49 66.5723C130.097 64.8849 134.48 62.461 136.614 60.8103C139.348 58.6935 139.443 55.7136 137.58 53.2639C135.701 50.793 133.453 49.7309 128.671 48.4091L127.858 48.1856C127.536 48.0968 127.288 48.028 127.048 47.9598C126.506 47.8085 125.968 47.649 125.434 47.4812C122.492 46.5526 118.558 45.4883 114.197 44.5431C112.551 44.186 111.012 45.3226 111.414 46.6008C112.35 49.587 112.511 53.1733 111.879 57.3569C111.31 61.1163 110.58 64.4975 109.689 67.5003C109.615 67.7509 109.614 68.0111 109.688 68.2617C109.762 68.5124 109.908 68.7471 110.116 68.9487C110.323 69.1503 110.587 69.3135 110.888 69.4265C111.188 69.5395 111.518 69.5993 111.852 69.6016Z" fill="#754F50"/>
<path d="M87.5829 45.4717C87.5829 48.2292 88.7239 50.8738 90.7548 52.8237C92.7857 54.7735 95.5402 55.869 98.4123 55.869C101.284 55.869 104.039 54.7735 106.07 52.8237C108.101 50.8738 109.242 48.2292 109.242 45.4717C109.242 42.7141 108.101 40.0695 106.07 38.1196C104.039 36.1698 101.284 35.0743 98.4123 35.0743C95.5402 35.0743 92.7857 36.1698 90.7548 38.1196C88.7239 40.0695 87.5829 42.7141 87.5829 45.4717Z" fill="white"/>
<path d="M98.8392 57.772C106.833 57.772 113.232 52.4163 113.232 45.8804C113.232 39.344 106.833 33.9883 98.8392 33.9883C90.8444 33.9883 84.4453 39.344 84.4453 45.8804C84.4453 52.4163 90.8444 57.772 98.8392 57.772ZM98.8392 54.333C93.4089 54.333 88.9234 50.5799 88.9234 45.8804C88.9234 41.1804 93.4081 37.4273 98.8392 37.4273C104.27 37.4273 108.754 41.1804 108.754 45.8804C108.754 50.5799 104.269 54.333 98.8392 54.333Z" fill="#754F50"/>
<path d="M105.204 48.5147C104.503 49.1956 103.468 49.6272 102.312 49.6272C100.202 49.6272 98.4907 48.1891 98.4907 46.4152C98.4907 44.6412 100.202 43.2031 102.312 43.2031C104.397 43.2031 106.09 44.6062 106.131 46.3504L103.299 46.6966L105.204 48.5147Z" fill="#232323"/>
<path d="M18.2829 87.8124C22.1482 88.4314 25.2985 88.6389 27.7763 88.4171C30.1758 88.201 32.0312 87.5957 33.6873 86.6471C34.224 86.3393 35.4353 85.5288 35.5532 85.4635C35.7914 85.3312 35.9933 85.1641 36.1474 84.9719C36.3015 84.7796 36.4048 84.5659 36.4513 84.343C36.4978 84.1201 36.4866 83.8923 36.4185 83.6727C36.3503 83.453 36.2264 83.2459 36.054 83.0631C35.8817 82.8801 35.6641 82.7249 35.4137 82.6065C35.1633 82.4881 34.8849 82.4088 34.5946 82.3731C34.3042 82.3373 34.0075 82.3459 33.7215 82.3983C33.4354 82.4508 33.1657 82.5459 32.9276 82.6785C32.5992 82.8607 31.355 83.6935 31.0095 83.8907C29.9579 84.4931 28.8346 84.8594 27.2546 85.0015C25.3298 85.1746 22.6295 84.9958 19.1956 84.4461C18.9055 84.3955 18.6052 84.3897 18.3122 84.4291C18.0192 84.4686 17.7393 84.5525 17.489 84.676C17.2387 84.7994 17.0229 84.96 16.8543 85.1482C16.6857 85.3364 16.5676 85.5486 16.507 85.7723C16.4463 85.9959 16.4443 86.2266 16.5011 86.4509C16.5579 86.6752 16.6722 86.8885 16.8376 87.0784C17.0029 87.2684 17.2159 87.4311 17.464 87.5571C17.7122 87.6831 17.9905 87.7699 18.2829 87.8124Z" fill="#754F50"/>
<path d="M94.7054 27.2864C109.131 23.6872 118.431 12.3629 115.987 6.58003C113.541 0.797655 98.7709 10.8401 84.3472 14.4402C69.9231 18.0391 50.2144 20.4967 52.6614 26.279C55.1085 32.0612 80.2806 30.8855 94.7054 27.2864Z" fill="#FFD04F"/>
<path d="M94.8012 29.2885C87.1783 30.8571 76.9729 31.6523 68.4268 31.3299C58.2417 30.9454 51.4546 29.1472 50.1399 25.3767C49.0056 22.1258 51.8685 19.8075 57.4843 18.0472C61.214 16.878 64.9163 16.1417 74.2449 14.5366L75.6318 14.2974C79.4271 13.6417 81.8315 13.2027 84.1708 12.7213C86.007 12.3434 87.9479 11.8408 90.0505 11.2099C92.4341 10.4945 94.767 9.70236 98.1647 8.48279C106.466 5.50297 107.576 5.12923 110.311 4.56987C114.758 3.66014 118.007 4.38786 119.044 7.3591C121.657 14.8465 109.513 26.2611 94.8012 29.2885ZM93.6415 25.9668C100.042 24.6497 105.941 21.591 110.079 17.7007C113.8 14.2031 115.512 10.5259 114.718 8.25044C114.475 7.55396 113.83 7.40964 111.463 7.89375C109.116 8.3737 107.974 8.75899 100.059 11.5992C96.5815 12.8478 94.1747 13.6652 91.6799 14.4142C89.4319 15.0886 87.3377 15.6305 85.3288 16.0445C82.9166 16.5409 80.4635 16.9887 76.6134 17.6534L75.2229 17.8933C66.178 19.4501 62.5767 20.1657 59.1757 21.2316C55.4021 22.4146 54.1069 23.4638 54.4641 24.4875C55.8182 28.3685 77.917 29.2025 93.6415 25.9668Z" fill="#754F50"/>
<path d="M74.2029 26.696C84.0364 22.906 92.0096 15.8993 90.4469 11.9698C88.8848 8.03957 78.1455 1.76342 56.8842 6.86425C35.6202 11.9662 34.7574 27.3185 37.203 33.101C39.6501 38.8833 64.3678 30.4858 74.2029 26.696Z" fill="#FD6B4D"/>
<path d="M53.3438 5.037C59.4903 8.12173 65.6504 11.0992 68.8698 13.6428C71.5924 15.7944 75.1329 19.6948 79.4912 25.3455C80.2862 26.377 61.113 33.8507 60.6979 33.1238C57.6635 27.8107 55.6924 23.5232 54.7865 20.2602C53.7559 16.5512 53.192 9.99218 53.3438 5.037ZM54.3018 5.03686C63.4852 3.248 70.8816 2.58046 76.903 2.87709C82.9242 3.17316 87.7468 7.13617 94.0398 11.3936L92.2616 18.692C86.9133 13.7626 82.3461 10.0799 78.5609 7.64441C75.9167 5.94315 71.1662 4.71804 64.3099 3.96839C61.3522 3.64539 58.043 5.18262 54.3018 5.03686ZM50.1129 6.06143C44.3675 14.6742 42.3269 18.4414 43.1798 22.1769C44.0325 25.9119 45.6361 30.7847 47.9896 36.7951L34.1982 35.2734C34.1333 34.1397 33.1369 33.142 33.1408 32.0855C33.1621 26.0345 34.3128 21.2405 36.591 17.705C39.2682 13.5523 43.5044 11.2748 50.1129 6.06143Z" fill="#FF8B74"/>
<path d="M73.6203 27.1719C83.6995 23.7829 92.1396 17.1067 90.8464 13.1188C89.5547 9.1312 79.2578 2.43113 57.6753 6.67117C36.0942 10.9109 34.1864 26.2089 36.2344 32.0809C38.2843 37.9538 63.5404 30.5611 73.6203 27.1719ZM53.0253 36.4324C48.4154 37.3377 44.5129 37.7948 41.358 37.7058C36.6317 37.5711 33.0234 36.165 31.9094 32.9721C30.4052 28.6609 30.9997 22.6029 33.9966 17.3779C37.9104 10.5532 45.4515 5.52356 56.5671 3.34005C67.253 1.24023 76.3843 1.45469 83.5114 3.60955C89.6679 5.47162 94.0607 8.79381 95.1932 12.2878C97.1747 18.4098 87.4267 26.2849 75.4159 30.323C68.3079 32.712 59.9593 35.0708 53.0253 36.4324Z" fill="#754F50"/>
<path d="M57.7185 3.44018C57.5641 2.99746 57.2974 2.58249 56.9336 2.21898C56.5698 1.85546 56.1159 1.5505 55.598 1.32154C55.0801 1.09258 54.5082 0.944088 53.9151 0.884548C53.3219 0.825007 52.7191 0.855583 52.141 0.974533C51.563 1.09348 51.021 1.29847 50.5461 1.5778C50.0712 1.85713 49.6726 2.20532 49.3731 2.60248C49.0737 2.99965 48.8792 3.43801 48.8008 3.89253C48.7224 4.34706 48.7616 4.80884 48.9161 5.2515C49.0705 5.69422 49.3372 6.10919 49.701 6.47271C50.0648 6.83623 50.5187 7.14118 51.0366 7.37014C51.5545 7.59911 52.1264 7.7476 52.7195 7.80714C53.3127 7.86668 53.9155 7.8361 54.4936 7.71715C55.0716 7.5982 55.6136 7.39321 56.0885 7.11388C56.5634 6.83456 56.962 6.48637 57.2615 6.0892C57.5609 5.69204 57.7554 5.25367 57.8338 4.79915C57.9123 4.34462 57.873 3.88284 57.7185 3.44018Z" fill="#FFD04F"/>
<path d="M45.9818 80.6684C22.7631 79.1965 14.6631 75.6451 13.1077 70.8545C11.5524 66.064 23.7088 60.8596 45.9326 55.8684" fill="#4FA5F6"/>
<path d="M46.3461 78.7644C25.721 77.7338 16.7686 74.9551 15.2715 70.662C14.1549 67.4631 24.9515 62.421 46.2543 57.3243C46.5389 57.2597 46.8038 57.1522 47.0338 57.0083C47.2638 56.8643 47.4543 56.6866 47.5941 56.4856C47.7339 56.2846 47.8203 56.0643 47.8482 55.8374C47.8762 55.6106 47.8451 55.3817 47.7569 55.1641C47.6687 54.9466 47.525 54.7446 47.3342 54.5701C47.1435 54.3955 46.9095 54.2518 46.6458 54.1473C46.3821 54.0428 46.094 53.9797 45.7982 53.9614C45.5024 53.9432 45.2049 53.9703 44.9229 54.0412C20.8884 59.7918 8.81037 65.4318 10.9457 71.5527C13.1295 77.8117 23.6462 81.0765 46.0551 82.1948C46.6474 82.2244 47.2308 82.0721 47.6769 81.7714C48.1231 81.4707 48.3954 81.0462 48.434 80.5913C48.4726 80.1364 48.2743 79.6884 47.8828 79.3458C47.4912 79.0031 46.9385 78.794 46.3461 78.7644Z" fill="#754F50"/>
<path d="M50.6405 80.9755C50.6405 81.5836 50.955 82.1667 51.5149 82.5967C52.0748 83.0267 52.8341 83.2682 53.6259 83.2682C54.4176 83.2682 55.177 83.0267 55.7368 82.5967C56.2967 82.1667 56.6112 81.5836 56.6112 80.9755C56.6112 80.3675 56.2967 79.7843 55.7368 79.3544C55.177 78.9244 54.4176 78.6829 53.6259 78.6829C52.8341 78.6829 52.0748 78.9244 51.5149 79.3544C50.955 79.7843 50.6405 80.3675 50.6405 80.9755Z" fill="#754F50"/>
<path d="M53.6114 10.1154C50.3853 10.7792 47.0699 9.3134 46.2068 6.83973C45.3437 4.36607 47.2614 1.82339 50.4867 1.15968C53.7121 0.495976 57.0282 1.96165 57.8913 4.43532C58.7551 6.90883 56.8367 9.45167 53.6114 10.1154ZM52.8394 7.90066C53.2274 7.82145 53.5913 7.68432 53.9102 7.49711C54.2292 7.30991 54.4971 7.07629 54.6985 6.80959C54.8999 6.54289 55.0309 6.24833 55.0841 5.94274C55.1372 5.63715 55.1115 5.32652 55.0084 5.02856C54.9037 4.73092 54.7237 4.45202 54.4787 4.20779C54.2337 3.96356 53.9285 3.75878 53.5804 3.60515C53.2324 3.45152 52.8483 3.35204 52.4502 3.3124C52.0521 3.27275 51.6477 3.29372 51.2601 3.3741C50.872 3.45326 50.508 3.59038 50.1889 3.77761C49.8698 3.96485 49.6018 4.19853 49.4004 4.46531C49.1989 4.7321 49.0678 5.02675 49.0147 5.33244C48.9615 5.63813 48.9873 5.94887 49.0906 6.2469C49.1954 6.54452 49.3754 6.82339 49.6205 7.06757C49.8656 7.31175 50.1709 7.51647 50.519 7.67004C50.8672 7.8236 51.2512 7.92301 51.6494 7.96258C52.0475 8.00215 52.4519 7.98111 52.8394 7.90066Z" fill="#754F50"/>
</svg>
