<svg width="156" height="159" viewBox="0 0 156 159" fill="none" xmlns="http://www.w3.org/2000/svg">
<path d="M108.52 17.1252C131.802 25.0019 141.805 35.0918 141.805 57.5147V100.08C141.805 124.666 115.741 144.598 83.5902 144.598H62.6927C30.5418 144.598 4.47803 124.666 4.47803 100.08V57.5147C4.47803 35.0918 26.4787 21.9034 45.0865 16.0408C63.6943 10.1783 85.2397 9.24911 108.52 17.1252Z" fill="#E1975C"/>
<path d="M108.52 17.1252C85.2397 9.24909 63.695 10.1782 45.0865 16.0408C26.478 21.9033 4.47804 35.0918 4.47804 57.5147V100.08C4.47804 124.666 30.5418 144.598 62.6927 144.598H83.5902C115.741 144.598 141.805 124.666 141.805 100.08V57.5147C141.805 35.0918 131.802 25.0019 108.52 17.1252ZM110.332 13.9941C136.18 22.7389 146.283 34.5199 146.283 57.5147V100.08C146.283 126.558 118.215 148.022 83.5902 148.022H62.6927C28.0684 148.022 0 126.558 0 100.08V57.5147C0 46.2302 5.15423 36.4148 14.4357 28.3115C22.0939 21.6254 32.3031 16.3644 43.3811 12.8744C64.6324 6.17969 87.3585 6.22078 110.332 13.9941Z" fill="#754F50"/>
<path d="M69.0053 27.9223V32.6262C69.0053 33.0047 69.2019 33.3676 69.5518 33.6352C69.9017 33.9027 70.3763 34.0531 70.8712 34.0531C71.366 34.0531 71.8406 33.9027 72.1905 33.6352C72.5404 33.3676 72.737 33.0047 72.737 32.6262V27.9223C72.737 27.5439 72.5404 27.1809 72.1905 26.9134C71.8406 26.6458 71.366 26.4954 70.8712 26.4954C70.3763 26.4954 69.9017 26.6458 69.5518 26.9134C69.2019 27.1809 69.0053 27.5439 69.0053 27.9223ZM79.3444 28.6962L78.0652 33.2974C78.0142 33.4807 78.011 33.6699 78.0557 33.8541C78.1004 34.0384 78.1921 34.2141 78.3256 34.3712C78.4591 34.5283 78.6317 34.6638 78.8337 34.7699C79.0356 34.8761 79.2629 34.9507 79.5026 34.9896C79.7423 35.0286 79.9897 35.031 80.2306 34.9969C80.4715 34.9627 80.7013 34.8926 80.9068 34.7905C81.1122 34.6884 81.2894 34.5564 81.4282 34.402C81.567 34.2475 81.6646 34.0737 81.7155 33.8904L82.9947 29.2892C83.0457 29.1059 83.0489 28.9167 83.0042 28.7325C82.9595 28.5483 82.8678 28.3725 82.7343 28.2154C82.6008 28.0583 82.4282 27.9228 82.2262 27.8167C82.0243 27.7105 81.797 27.6359 81.5573 27.597C81.3176 27.558 81.0702 27.5556 80.8293 27.5897C80.5884 27.6239 80.3586 27.694 80.1531 27.7961C79.9476 27.8982 79.7705 28.0302 79.6317 28.1846C79.4929 28.3391 79.3953 28.5129 79.3444 28.6962ZM89.2759 31.5864L86.8727 35.9159C86.7704 36.0892 86.7144 36.2763 86.708 36.4663C86.7016 36.6563 86.7449 36.8454 86.8354 37.0224C86.9259 37.1995 87.0617 37.3609 87.2349 37.4973C87.408 37.6336 87.6151 37.7421 87.8439 37.8164C88.0727 37.8907 88.3186 37.9293 88.5671 37.93C88.8157 37.9306 89.0619 37.8932 89.2913 37.8201C89.5208 37.7469 89.7287 37.6394 89.9031 37.504C90.0774 37.3685 90.2146 37.2077 90.3066 37.0312L92.7106 32.701C92.8113 32.5279 92.8659 32.3412 92.8712 32.1518C92.8766 31.9625 92.8325 31.7741 92.7417 31.5979C92.6508 31.4217 92.515 31.261 92.3421 31.1253C92.1692 30.9897 91.9628 30.8817 91.7347 30.8077C91.5067 30.7337 91.2616 30.6951 91.0139 30.6943C90.7662 30.6935 90.5207 30.7304 90.2919 30.8029C90.063 30.8754 89.8553 30.982 89.6809 31.1165C89.5064 31.251 89.3688 31.4107 89.2759 31.5864ZM98.5157 36.4519L94.9869 40.3049C94.7118 40.615 94.6073 40.9954 94.6959 41.364C94.7846 41.7325 95.0593 42.0596 95.4607 42.2746C95.862 42.4896 96.3579 42.5752 96.8411 42.5129C97.3244 42.4506 97.7561 42.2454 98.0432 41.9417L101.572 38.0887C101.712 37.9353 101.812 37.7621 101.865 37.5792C101.918 37.3963 101.924 37.2072 101.881 37.0227C101.839 36.8382 101.749 36.6619 101.617 36.5039C101.486 36.3458 101.315 36.2092 101.114 36.1017C100.913 35.9942 100.687 35.918 100.448 35.8775C100.209 35.8369 99.9613 35.8328 99.72 35.8653C99.4787 35.8978 99.2482 35.9663 99.0415 36.067C98.8349 36.1676 98.6562 36.2984 98.5157 36.4519ZM106.562 43.098L102.137 46.3655C101.781 46.6283 101.576 46.9885 101.567 47.3669C101.559 47.7453 101.747 48.1108 102.091 48.383C102.434 48.6552 102.905 48.8119 103.4 48.8185C103.895 48.8252 104.373 48.6812 104.729 48.4184L109.153 45.151C109.334 45.0217 109.48 44.8662 109.581 44.6935C109.683 44.5208 109.739 44.3344 109.745 44.1451C109.751 43.9558 109.708 43.7675 109.619 43.591C109.529 43.4145 109.394 43.2535 109.222 43.1172C109.05 42.981 108.845 42.8723 108.617 42.7974C108.39 42.7226 108.145 42.6832 107.897 42.6814C107.65 42.6796 107.404 42.7155 107.175 42.787C106.946 42.8586 106.737 42.9643 106.562 43.098ZM113.208 51.2669L107.991 53.7599C107.587 53.9656 107.303 54.2839 107.2 54.6472C107.098 55.0104 107.184 55.3899 107.442 55.705C107.699 56.0201 108.108 56.246 108.579 56.3347C109.051 56.4233 109.55 56.3678 109.969 56.1798L115.185 53.6868C115.597 53.4836 115.888 53.1646 115.995 52.7988C116.102 52.433 116.016 52.0497 115.756 51.7318C115.497 51.4138 115.084 51.1869 114.607 51.0999C114.13 51.0129 113.628 51.0729 113.208 51.2669ZM118.116 60.6212L112.335 62.2301C111.873 62.3615 111.498 62.6272 111.292 62.9691C111.085 63.3111 111.064 63.7016 111.233 64.0555C111.401 64.4095 111.746 64.698 112.192 64.8584C112.637 65.0187 113.148 65.0378 113.612 64.9114L119.392 63.3031C119.857 63.1737 120.235 62.9084 120.445 62.5655C120.654 62.2225 120.676 61.8301 120.507 61.4745C120.338 61.1188 119.991 60.8291 119.543 60.6691C119.094 60.5091 118.581 60.4919 118.116 60.6212ZM121.043 70.7403L114.967 71.476C114.725 71.5052 114.493 71.5707 114.284 71.6685C114.075 71.7664 113.894 71.8947 113.75 72.0463C113.606 72.1978 113.502 72.3696 113.445 72.5517C113.387 72.7339 113.378 72.9229 113.416 73.108C113.454 73.293 113.54 73.4705 113.668 73.6303C113.796 73.79 113.964 73.9289 114.162 74.0391C114.36 74.1493 114.585 74.2285 114.823 74.2723C115.061 74.316 115.308 74.3235 115.55 74.2942L121.626 73.5586C122.115 73.4994 122.553 73.2943 122.844 72.9882C123.135 72.6822 123.255 72.3003 123.177 71.9265C123.1 71.5528 122.832 71.2179 122.432 70.9954C122.031 70.7729 121.532 70.6812 121.043 70.7403ZM121.957 81.2754L115.814 81.0289C115.569 81.0176 115.322 81.0437 115.09 81.1056C114.857 81.1674 114.643 81.2639 114.46 81.3893C114.276 81.5148 114.127 81.6667 114.021 81.8365C113.914 82.0062 113.853 82.1904 113.84 82.3784C113.827 82.5664 113.863 82.7544 113.945 82.9318C114.028 83.1091 114.156 83.2722 114.321 83.4116C114.486 83.5511 114.686 83.6641 114.909 83.7443C115.132 83.8244 115.373 83.87 115.619 83.8785L121.761 84.1251C122.253 84.1421 122.734 84.0097 123.099 83.7567C123.464 83.5037 123.683 83.1506 123.709 82.7745C123.735 82.3984 123.565 82.0297 123.237 81.7489C122.908 81.4681 122.448 81.2979 121.957 81.2754ZM120.772 91.7638L114.83 90.5464C114.352 90.4484 113.843 90.4997 113.414 90.689C112.985 90.8782 112.673 91.1899 112.545 91.5554C112.417 91.921 112.484 92.3105 112.731 92.6382C112.979 92.9659 113.386 93.2051 113.864 93.303L119.806 94.5204C120.284 94.6183 120.793 94.567 121.222 94.3778C121.65 94.1886 121.963 93.8769 122.091 93.5113C122.219 93.1458 122.152 92.7563 121.905 92.4286C121.657 92.1008 121.25 91.8617 120.772 91.7638ZM117.529 101.728L112.001 99.6661C111.78 99.58 111.539 99.5283 111.292 99.5142C111.044 99.5 110.796 99.5237 110.561 99.5837C110.326 99.6438 110.109 99.7391 109.923 99.864C109.736 99.989 109.584 100.141 109.475 100.311C109.367 100.482 109.304 100.667 109.29 100.856C109.275 101.045 109.311 101.235 109.394 101.413C109.476 101.592 109.605 101.756 109.772 101.897C109.938 102.037 110.14 102.15 110.365 102.23L115.893 104.292C116.337 104.458 116.85 104.482 117.318 104.359C117.786 104.236 118.171 103.976 118.388 103.636C118.605 103.296 118.637 102.904 118.476 102.546C118.315 102.188 117.974 101.894 117.529 101.728ZM112.384 110.851L107.537 107.955C107.344 107.839 107.123 107.754 106.887 107.704C106.65 107.654 106.404 107.64 106.161 107.663C105.917 107.686 105.682 107.745 105.469 107.837C105.256 107.93 105.069 108.053 104.918 108.201C104.767 108.348 104.656 108.517 104.59 108.698C104.525 108.879 104.506 109.067 104.536 109.253C104.566 109.439 104.644 109.619 104.764 109.782C104.885 109.945 105.046 110.088 105.239 110.204L110.087 113.099C110.28 113.217 110.501 113.304 110.738 113.356C110.975 113.407 111.223 113.423 111.468 113.401C111.713 113.378 111.95 113.319 112.165 113.227C112.38 113.135 112.568 113.01 112.72 112.862C112.872 112.713 112.984 112.543 113.049 112.361C113.114 112.18 113.132 111.99 113.101 111.803C113.069 111.616 112.99 111.435 112.867 111.272C112.744 111.109 112.58 110.965 112.384 110.851ZM105.549 118.666L101.514 115.116C101.19 114.83 100.73 114.655 100.236 114.628C99.7428 114.602 99.2556 114.727 98.8821 114.975C98.5086 115.223 98.2793 115.575 98.2448 115.952C98.2102 116.33 98.3731 116.702 98.6978 116.988L102.733 120.538C103.06 120.817 103.518 120.986 104.007 121.01C104.495 121.033 104.977 120.908 105.346 120.662C105.716 120.417 105.944 120.07 105.982 119.696C106.02 119.323 105.865 118.953 105.549 118.666ZM97.2782 124.947L94.2966 120.833C94.18 120.666 94.0212 120.518 93.8293 120.399C93.6375 120.279 93.4165 120.19 93.1792 120.137C92.9419 120.083 92.693 120.066 92.447 120.087C92.201 120.107 91.9629 120.165 91.7465 120.257C91.53 120.349 91.3396 120.472 91.1863 120.621C91.0329 120.769 90.9198 120.94 90.8534 121.122C90.787 121.304 90.7686 121.495 90.7994 121.683C90.8302 121.87 90.9096 122.052 91.0328 122.216L94.0145 126.33C94.2585 126.654 94.6597 126.893 95.1316 126.993C95.6035 127.094 96.1082 127.048 96.5367 126.867C96.9652 126.685 97.2831 126.382 97.4219 126.023C97.5606 125.664 97.509 125.277 97.2782 124.947ZM87.9183 129.386L86.1197 124.887C85.9699 124.53 85.6422 124.232 85.2076 124.059C84.773 123.885 84.2663 123.849 83.7973 123.959C83.3283 124.068 82.9346 124.315 82.7014 124.645C82.4682 124.975 82.4143 125.362 82.5514 125.722L84.3501 130.22C84.4191 130.402 84.5347 130.571 84.6899 130.718C84.8452 130.865 85.0371 130.987 85.2546 131.077C85.472 131.167 85.7107 131.223 85.9566 131.241C86.2025 131.26 86.4509 131.241 86.6872 131.186C86.9236 131.131 87.1432 131.04 87.3334 130.919C87.5236 130.799 87.6805 130.65 87.795 130.483C87.9096 130.315 87.9794 130.132 88.0006 129.944C88.0218 129.755 87.9938 129.566 87.9183 129.386ZM77.9024 131.771L77.2598 127.093C77.1965 126.724 76.9472 126.389 76.5651 126.158C76.183 125.928 75.6983 125.82 75.2142 125.859C74.7302 125.898 74.2852 126.08 73.974 126.366C73.6628 126.652 73.51 127.02 73.5483 127.391L74.1909 132.069C74.2426 132.445 74.4876 132.79 74.8722 133.029C75.2567 133.267 75.7493 133.379 76.2415 133.339C76.7337 133.299 77.1852 133.112 77.4966 132.818C77.8081 132.524 77.9541 132.147 77.9024 131.771ZM67.5514 132.069L68.194 127.392C68.2196 127.205 68.1969 127.017 68.1273 126.837C68.0577 126.658 67.9425 126.49 67.7882 126.345C67.634 126.199 67.4438 126.078 67.2284 125.989C67.013 125.899 66.7768 125.843 66.5331 125.824C66.2893 125.804 66.043 125.821 65.808 125.875C65.5731 125.928 65.3542 126.016 65.1638 126.134C64.9734 126.252 64.8152 126.397 64.6983 126.562C64.5814 126.727 64.5081 126.907 64.4825 127.094L63.8399 131.771C63.7882 132.148 63.9342 132.525 64.2457 132.819C64.5572 133.113 65.0087 133.3 65.5009 133.34C65.993 133.379 66.4856 133.267 66.8702 133.029C67.2547 132.791 67.4998 132.446 67.5514 132.069ZM57.393 130.22L59.1917 125.722C59.336 125.36 59.2866 124.969 59.0543 124.635C58.822 124.301 58.4258 124.051 57.9527 123.94C57.4795 123.83 56.9682 123.867 56.5314 124.045C56.0945 124.223 55.7677 124.526 55.6227 124.887L53.824 129.386C53.7523 129.565 53.7275 129.753 53.751 129.94C53.7745 130.126 53.8458 130.307 53.9609 130.473C54.0759 130.638 54.2324 130.785 54.4215 130.904C54.6106 131.023 54.8286 131.113 55.0629 131.168C55.2972 131.222 55.5434 131.241 55.7873 131.223C56.0313 131.205 56.2682 131.151 56.4845 131.063C56.7009 130.975 56.8925 130.855 57.0484 130.711C57.2042 130.566 57.3213 130.399 57.393 130.22ZM47.7279 126.33L50.7102 122.216C50.829 122.052 50.9043 121.872 50.932 121.686C50.9597 121.5 50.9391 121.311 50.8715 121.131C50.8039 120.951 50.6906 120.783 50.538 120.636C50.3854 120.49 50.1965 120.367 49.9822 120.277C49.7678 120.186 49.5322 120.128 49.2887 120.107C49.0452 120.086 48.7987 120.102 48.5632 120.153C48.3277 120.205 48.1077 120.292 47.916 120.408C47.7243 120.525 47.5645 120.669 47.4457 120.833L44.4634 124.947C44.3446 125.111 44.2693 125.291 44.2416 125.478C44.2139 125.664 44.2345 125.852 44.3021 126.032C44.3697 126.212 44.483 126.381 44.6356 126.527C44.7882 126.674 44.9771 126.796 45.1914 126.887C45.4058 126.978 45.6414 127.035 45.8849 127.056C46.1284 127.078 46.3749 127.062 46.6104 127.01C46.846 126.959 47.0659 126.872 47.2576 126.755C47.4493 126.638 47.6091 126.494 47.7279 126.33ZM39.0098 120.539L43.0453 116.988C43.2061 116.847 43.3288 116.683 43.4065 116.505C43.4842 116.327 43.5154 116.14 43.4983 115.953C43.4812 115.766 43.4161 115.583 43.3068 115.416C43.1974 115.248 43.0459 115.098 42.861 114.975C42.676 114.853 42.4612 114.759 42.2288 114.699C41.9965 114.64 41.751 114.616 41.5066 114.629C41.2622 114.642 41.0235 114.692 40.8042 114.775C40.5849 114.859 40.3894 114.975 40.2286 115.116L36.1931 118.667C36.0324 118.808 35.9097 118.973 35.832 119.15C35.7542 119.328 35.723 119.516 35.7401 119.703C35.7573 119.89 35.8224 120.072 35.9317 120.24C36.0411 120.407 36.1926 120.557 36.3775 120.68C36.5624 120.803 36.7772 120.897 37.0096 120.956C37.242 121.016 37.4874 121.039 37.7318 121.026C37.9763 121.013 38.215 120.963 38.4342 120.88C38.6535 120.796 38.8491 120.68 39.0098 120.539ZM31.6561 113.099L36.5036 110.204C36.6994 110.089 36.8634 109.946 36.9864 109.782C37.1094 109.619 37.1887 109.439 37.22 109.251C37.2512 109.064 37.2337 108.875 37.1684 108.693C37.1031 108.511 36.9913 108.341 36.8395 108.192C36.6877 108.044 36.499 107.92 36.2841 107.827C36.0692 107.735 35.8326 107.676 35.5877 107.654C35.3429 107.632 35.0947 107.647 34.8576 107.699C34.6205 107.75 34.3992 107.837 34.2064 107.955L29.3589 110.851C29.1632 110.965 28.9991 111.109 28.8761 111.272C28.7532 111.435 28.6738 111.616 28.6426 111.803C28.6113 111.99 28.6289 112.18 28.6942 112.361C28.7595 112.543 28.8712 112.713 29.023 112.862C29.1748 113.01 29.3636 113.135 29.5784 113.227C29.7933 113.319 30.03 113.378 30.2748 113.401C30.5197 113.423 30.7678 113.407 31.0049 113.356C31.242 113.304 31.4633 113.217 31.6561 113.099ZM25.8496 104.292L31.3785 102.23C31.6032 102.15 31.8048 102.037 31.9715 101.897C32.1382 101.756 32.2666 101.592 32.3494 101.413C32.4322 101.235 32.4676 101.045 32.4535 100.856C32.4395 100.667 32.3763 100.482 32.2676 100.311C32.1589 100.141 32.007 99.989 31.8206 99.864C31.6342 99.7391 31.4171 99.6438 31.182 99.5837C30.947 99.5237 30.6986 99.5 30.4514 99.5142C30.2043 99.5283 29.9633 99.58 29.7425 99.6661L24.2136 101.728C23.7688 101.893 23.4285 102.188 23.2674 102.546C23.1063 102.903 23.1376 103.295 23.3546 103.636C23.5715 103.976 23.9563 104.236 24.4242 104.359C24.8921 104.482 25.4048 104.458 25.8496 104.292ZM21.9365 94.5204L27.8782 93.303C28.3449 93.1975 28.7392 92.9567 28.9771 92.632C29.215 92.3073 29.2777 91.9244 29.1518 91.5649C29.0258 91.2053 28.7212 90.8977 28.3029 90.7074C27.8846 90.5172 27.3856 90.4594 26.9124 90.5464L20.9708 91.7638C20.504 91.8693 20.1097 92.1101 19.8718 92.4348C19.6339 92.7595 19.5712 93.1424 19.6972 93.5019C19.8231 93.8614 20.1277 94.1691 20.546 94.3594C20.9644 94.5496 21.4633 94.6074 21.9365 94.5204ZM19.9804 84.1251L26.1228 83.8785C26.6139 83.8557 27.0734 83.6854 27.4012 83.4047C27.729 83.124 27.8984 82.7556 27.8728 82.3798C27.8471 82.0041 27.6283 81.6512 27.264 81.3982C26.8998 81.1452 26.4196 81.0124 25.928 81.0289L19.7856 81.2754C19.5394 81.2836 19.2979 81.3291 19.0748 81.4091C18.8518 81.4891 18.6516 81.602 18.486 81.7415C18.3203 81.8809 18.1924 82.0441 18.1096 82.2215C18.0269 82.399 17.9909 82.5872 18.0037 82.7754C18.0166 82.9635 18.0781 83.1479 18.1846 83.3177C18.2911 83.4876 18.4405 83.6397 18.6243 83.7652C18.8081 83.8906 19.0225 83.9871 19.2553 84.0488C19.488 84.1106 19.7345 84.1365 19.9804 84.1251ZM20.1162 73.5586L26.1922 74.2942C26.6809 74.3534 27.1803 74.2617 27.5806 74.0393C27.9809 73.8169 28.2493 73.482 28.3267 73.1082C28.4041 72.7345 28.2842 72.3526 27.9933 72.0465C27.7025 71.7404 27.2645 71.5351 26.7758 71.476L20.6998 70.7403C20.4563 70.7082 20.2068 70.7134 19.9659 70.7557C19.725 70.7979 19.4974 70.8763 19.2965 70.9864C19.0956 71.0964 18.9252 71.2359 18.7954 71.3968C18.6655 71.5576 18.5787 71.7365 18.5401 71.9232C18.5014 72.1099 18.5116 72.3006 18.5702 72.4842C18.6287 72.6679 18.7343 72.8408 18.881 72.9929C19.0276 73.1451 19.2123 73.2734 19.4244 73.3705C19.6364 73.4676 19.8716 73.5315 20.1162 73.5586ZM22.3508 63.3031L28.1312 64.9114C28.3614 64.9755 28.6059 65.0043 28.8506 64.9961C29.0954 64.9879 29.3357 64.943 29.5577 64.8638C29.7798 64.7846 29.9793 64.6728 30.1448 64.5346C30.3103 64.3965 30.4387 64.2348 30.5225 64.0587C30.6063 63.8827 30.6439 63.6957 30.6332 63.5085C30.6225 63.3214 30.5637 63.1376 30.4602 62.9678C30.3566 62.798 30.2104 62.6455 30.0297 62.5189C29.8491 62.3923 29.6376 62.2942 29.4074 62.2301L23.627 60.6212C23.1653 60.5025 22.6613 60.5266 22.2225 60.6881C21.7836 60.8497 21.4448 61.1361 21.2782 61.4861C21.1116 61.8361 21.1306 62.222 21.331 62.5615C21.5314 62.901 21.8973 63.1671 22.3508 63.3031ZM26.5571 53.6868L31.7741 56.1798C32.1937 56.3803 32.7003 56.4452 33.1825 56.3601C33.6647 56.275 34.0829 56.0469 34.3452 55.726C34.6075 55.4051 34.6923 55.0177 34.581 54.649C34.4698 54.2803 34.1715 53.9604 33.7519 53.7599L28.5357 51.2669C28.1164 51.0771 27.6167 51.0201 27.1433 51.1082C26.6699 51.1963 26.2602 51.4225 26.0019 51.7384C25.7436 52.0544 25.6571 52.435 25.7608 52.7991C25.8646 53.1631 26.1504 53.4817 26.5571 53.6868ZM32.5883 45.1504L37.0134 48.4178C37.1897 48.548 37.3977 48.6503 37.6257 48.719C37.8537 48.7876 38.0971 48.8213 38.3421 48.818C38.5871 48.8147 38.8289 48.7745 39.0536 48.6998C39.2783 48.6251 39.4815 48.5172 39.6517 48.3824C39.8219 48.2476 39.9557 48.0885 40.0455 47.9142C40.1353 47.7398 40.1793 47.5537 40.175 47.3663C40.1707 47.179 40.1182 46.9941 40.0204 46.8223C39.9227 46.6505 39.7817 46.4951 39.6054 46.3649L35.1804 43.0975C34.8244 42.8346 34.3464 42.6907 33.8516 42.6973C33.3568 42.7039 32.8858 42.8606 32.5421 43.1328C32.1983 43.4051 32.0101 43.7706 32.0188 44.1489C32.0275 44.5273 32.2323 44.8875 32.5883 45.1504ZM40.1704 38.0887L43.6991 41.9417C43.838 42.0983 44.0162 42.2321 44.2233 42.3355C44.4305 42.4389 44.6624 42.5098 44.9057 42.544C45.149 42.5782 45.3987 42.5751 45.6404 42.5348C45.8821 42.4946 46.1109 42.4179 46.3136 42.3094C46.5162 42.2009 46.6886 42.0627 46.8207 41.9027C46.9528 41.7428 47.042 41.5644 47.0831 41.3779C47.1242 41.1913 47.1164 41.0004 47.0601 40.8162C47.0039 40.632 46.9003 40.4582 46.7554 40.3049L43.2267 36.4519C43.0878 36.2953 42.9096 36.1615 42.7025 36.0581C42.4953 35.9547 42.2634 35.8838 42.0201 35.8496C41.7768 35.8154 41.527 35.8185 41.2853 35.8588C41.0437 35.899 40.8148 35.9757 40.6122 36.0842C40.4096 36.1927 40.2372 36.3309 40.1051 36.4909C39.973 36.6508 39.8838 36.8292 39.8427 37.0157C39.8016 37.2023 39.8094 37.3932 39.8656 37.5774C39.9219 37.7616 40.0255 37.9354 40.1704 38.0887ZM49.0317 32.701L51.4349 37.0312C51.5287 37.2058 51.6669 37.3644 51.8415 37.4979C52.0161 37.6314 52.2235 37.7371 52.4519 37.8089C52.6803 37.8806 52.925 37.9169 53.1718 37.9158C53.4187 37.9147 53.6629 37.8762 53.8901 37.8024C54.1173 37.7286 54.3232 37.6211 54.4957 37.486C54.6682 37.3509 54.8039 37.1911 54.895 37.0156C54.9861 36.8401 55.0308 36.6526 55.0264 36.4638C55.0221 36.2751 54.9688 36.0888 54.8696 35.9159L52.4664 31.5864C52.2675 31.2445 51.901 30.976 51.4458 30.8388C50.9906 30.7016 50.4831 30.7066 50.0327 30.8528C49.5822 30.999 49.2249 31.2746 49.0377 31.6203C48.8505 31.966 48.8483 32.3541 49.0317 32.701ZM58.7491 29.2892L60.0276 33.8904C60.0746 34.0765 60.1697 34.2536 60.3073 34.4113C60.4449 34.569 60.6222 34.7042 60.8288 34.8089C61.0355 34.9136 61.2674 34.9858 61.5109 35.0212C61.7544 35.0566 62.0048 35.0545 62.2473 35.0151C62.4897 34.9757 62.7195 34.8998 62.9232 34.7917C63.1269 34.6836 63.3003 34.5456 63.4335 34.3857C63.5666 34.2258 63.6567 34.0472 63.6986 33.8603C63.7404 33.6735 63.7331 33.4821 63.6772 33.2974L62.3987 28.6962C62.2883 28.3319 61.9954 28.0154 61.583 27.8146C61.1705 27.6138 60.6715 27.5448 60.1932 27.6226C59.7149 27.7003 59.2957 27.9184 59.0256 28.2301C58.7555 28.5418 58.6562 28.9221 58.7491 29.2892ZM71.6914 11.431V17.4476C71.6914 17.8261 71.888 18.189 72.2379 18.4566C72.5878 18.7241 73.0624 18.8745 73.5573 18.8745C74.0521 18.8745 74.5267 18.7241 74.8766 18.4566C75.2265 18.189 75.4231 17.8261 75.4231 17.4476V11.431C75.4231 11.0526 75.2265 10.6896 74.8766 10.4221C74.5267 10.1545 74.0521 10.0042 73.5573 10.0042C73.0624 10.0042 72.5878 10.1545 72.2379 10.4221C71.888 10.6896 71.6914 11.0526 71.6914 11.431ZM85.3763 12.5034L83.7396 18.3888C83.6886 18.5721 83.6853 18.7612 83.73 18.9455C83.7746 19.1297 83.8663 19.3055 83.9997 19.4626C84.1332 19.6198 84.3058 19.7553 84.5077 19.8615C84.7097 19.9676 84.937 20.0423 85.1767 20.0813C85.4163 20.1202 85.6637 20.1227 85.9047 20.0886C86.1456 20.0545 86.3754 19.9844 86.5809 19.8823C86.7865 19.7803 86.9637 19.6483 87.1025 19.4939C87.2413 19.3394 87.339 19.1656 87.3899 18.9823L89.0259 13.0969C89.1202 12.7295 89.0217 12.3484 88.7518 12.0359C88.4819 11.7234 88.0621 11.5046 87.5831 11.4267C87.1041 11.3488 86.6042 11.418 86.1914 11.6195C85.7785 11.8209 85.4858 12.1384 85.3763 12.5034ZM98.5022 16.2731L95.428 21.8115C95.2347 22.1598 95.2303 22.5526 95.4158 22.9035C95.6013 23.2544 95.9614 23.5345 96.4169 23.6823C96.8725 23.8301 97.3862 23.8335 97.845 23.6917C98.3038 23.5498 98.6701 23.2745 98.8634 22.9261L101.938 17.3871C102.131 17.0388 102.135 16.6461 101.95 16.2953C101.765 15.9445 101.405 15.6643 100.949 15.5163C100.494 15.3688 99.9799 15.3656 99.5211 15.5075C99.0623 15.6494 98.6958 15.9247 98.5022 16.2731ZM110.683 22.5694L106.17 27.4982C106.03 27.6517 105.93 27.8248 105.877 28.0077C105.824 28.1906 105.818 28.3797 105.861 28.5642C105.903 28.7488 105.993 28.925 106.125 29.0831C106.256 29.2411 106.427 29.3777 106.628 29.4852C106.829 29.5927 107.055 29.6689 107.294 29.7095C107.533 29.75 107.781 29.7542 108.022 29.7217C108.263 29.6892 108.494 29.6206 108.701 29.52C108.907 29.4193 109.086 29.2885 109.226 29.1351L113.74 24.2062C113.884 24.0529 113.988 23.8791 114.044 23.6949C114.101 23.5107 114.108 23.3198 114.067 23.1333C114.026 22.9467 113.937 22.7683 113.805 22.6084C113.673 22.4485 113.5 22.3102 113.298 22.2017C113.095 22.0932 112.866 22.0166 112.625 21.9763C112.383 21.936 112.133 21.9329 111.89 21.9671C111.647 22.0013 111.415 22.0722 111.207 22.1756C111 22.279 110.822 22.4128 110.683 22.5694ZM121.271 31.1286L115.611 35.3087C115.255 35.5715 115.05 35.9318 115.042 36.3101C115.033 36.6885 115.221 37.054 115.565 37.3262C115.909 37.5985 116.38 37.7551 116.875 37.7618C117.369 37.7684 117.847 37.6245 118.203 37.3616L123.864 33.1816C124.22 32.9186 124.424 32.5583 124.433 32.1799C124.442 31.8015 124.253 31.436 123.91 31.1637C123.566 30.8915 123.095 30.7349 122.6 30.7283C122.105 30.7217 121.627 30.8657 121.271 31.1286ZM129.975 41.629L123.304 44.8171C123.091 44.9143 122.905 45.0431 122.758 45.1959C122.61 45.3487 122.504 45.5225 122.446 45.707C122.388 45.8915 122.378 46.0831 122.418 46.2705C122.457 46.4578 122.546 46.6373 122.677 46.7983C122.809 46.9593 122.981 47.0987 123.184 47.2081C123.386 47.3176 123.616 47.3951 123.858 47.4359C124.101 47.4768 124.351 47.4802 124.595 47.446C124.84 47.4119 125.072 47.3408 125.28 47.237L131.953 44.0489C132.161 43.9496 132.341 43.8199 132.483 43.6674C132.626 43.5148 132.727 43.3423 132.782 43.1598C132.838 42.9772 132.845 42.7881 132.805 42.6033C132.764 42.4185 132.676 42.2416 132.547 42.0827C132.417 41.9238 132.247 41.786 132.048 41.6772C131.848 41.5684 131.623 41.4908 131.384 41.4486C131.145 41.4065 130.898 41.4007 130.656 41.4317C130.415 41.4626 130.183 41.5297 129.975 41.629ZM136.365 53.6309L128.972 55.6889C128.507 55.8183 128.128 56.0836 127.918 56.4265C127.709 56.7695 127.687 57.1619 127.856 57.5176C128.025 57.8732 128.372 58.1629 128.82 58.3229C129.269 58.4829 129.782 58.5002 130.247 58.3708L137.641 56.3128C137.871 56.2487 138.083 56.1505 138.264 56.0239C138.444 55.8974 138.591 55.7448 138.694 55.575C138.798 55.4051 138.857 55.2214 138.867 55.0341C138.878 54.8469 138.84 54.6599 138.757 54.4838C138.673 54.3078 138.544 54.146 138.379 54.0078C138.213 53.8697 138.014 53.7578 137.792 53.6786C137.57 53.5994 137.329 53.5544 137.084 53.5462C136.84 53.538 136.595 53.5668 136.365 53.6309ZM140.132 66.5939L132.36 67.5351C131.877 67.5988 131.446 67.8054 131.16 68.1103C130.874 68.4152 130.757 68.7939 130.834 69.1643C130.911 69.5348 131.175 69.8672 131.57 70.0897C131.965 70.3123 132.458 70.4069 132.944 70.3533L140.715 69.4122C141.199 69.3485 141.63 69.1418 141.915 68.8369C142.201 68.532 142.318 68.1534 142.241 67.7829C142.165 67.4125 141.9 67.08 141.505 66.8575C141.111 66.635 140.617 66.5403 140.132 66.5939ZM141.217 80.0735L133.359 79.759C132.865 79.7392 132.381 79.8702 132.013 80.1234C131.646 80.3765 131.425 80.731 131.399 81.1088C131.373 81.4866 131.544 81.8568 131.875 82.138C132.206 82.4191 132.67 82.5883 133.164 82.6081L141.021 82.9237C141.516 82.9435 142 82.8124 142.368 82.5592C142.736 82.3059 142.957 81.9513 142.983 81.5733C143.009 81.1954 142.837 80.825 142.506 80.5437C142.175 80.2625 141.711 80.0933 141.217 80.0735ZM139.521 93.4777L131.92 91.9201C131.442 91.8222 130.933 91.8735 130.504 92.0627C130.076 92.252 129.763 92.5636 129.635 92.9292C129.507 93.2947 129.574 93.6842 129.822 94.012C130.069 94.3397 130.477 94.5788 130.955 94.6768L138.555 96.2343C139.033 96.3322 139.543 96.2809 139.971 96.0917C140.4 95.9025 140.713 95.5908 140.841 95.2253C140.969 94.8597 140.902 94.4702 140.654 94.1425C140.407 93.8147 139.999 93.5756 139.521 93.4777ZM135.115 106.196L128.042 103.558C127.6 103.404 127.096 103.389 126.639 103.515C126.181 103.64 125.806 103.898 125.593 104.232C125.38 104.566 125.346 104.951 125.498 105.304C125.65 105.657 125.976 105.951 126.406 106.123L133.478 108.761C133.698 108.843 133.937 108.891 134.182 108.903C134.427 108.914 134.672 108.889 134.904 108.828C135.135 108.767 135.349 108.671 135.533 108.547C135.716 108.423 135.866 108.273 135.973 108.104C136.081 107.936 136.144 107.753 136.159 107.566C136.174 107.379 136.141 107.191 136.061 107.014C135.981 106.837 135.857 106.673 135.694 106.533C135.532 106.393 135.335 106.278 135.115 106.196ZM128.19 117.821L121.99 114.117C121.6 113.884 121.105 113.779 120.614 113.825C120.123 113.871 119.676 114.065 119.371 114.363C119.066 114.661 118.929 115.039 118.989 115.415C119.049 115.791 119.302 116.133 119.692 116.366L125.893 120.07C126.086 120.187 126.307 120.274 126.544 120.326C126.781 120.378 127.029 120.393 127.274 120.371C127.519 120.349 127.756 120.29 127.971 120.197C128.186 120.105 128.374 119.981 128.526 119.832C128.678 119.684 128.79 119.514 128.855 119.332C128.92 119.15 128.938 118.96 128.907 118.773C128.875 118.586 128.796 118.406 128.673 118.242C128.55 118.079 128.386 117.936 128.19 117.821ZM119.049 127.766L113.887 123.225C113.562 122.94 113.102 122.765 112.609 122.738C112.115 122.712 111.628 122.836 111.255 123.084C110.882 123.333 110.652 123.684 110.618 124.061C110.583 124.439 110.746 124.811 111.071 125.097L116.233 129.638C116.392 129.783 116.588 129.902 116.808 129.988C117.028 130.075 117.269 130.127 117.515 130.141C117.762 130.156 118.01 130.133 118.245 130.074C118.48 130.014 118.697 129.92 118.884 129.796C119.071 129.672 119.224 129.52 119.333 129.35C119.443 129.181 119.507 128.996 119.522 128.807C119.538 128.618 119.504 128.429 119.422 128.25C119.341 128.072 119.214 127.907 119.049 127.766ZM108.017 135.732L104.203 130.468C103.961 130.14 103.559 129.898 103.085 129.796C102.611 129.693 102.103 129.738 101.672 129.921C101.241 130.103 100.922 130.409 100.785 130.771C100.648 131.132 100.703 131.521 100.939 131.852L104.754 137.115C104.998 137.439 105.399 137.678 105.871 137.778C106.343 137.879 106.847 137.834 107.276 137.652C107.704 137.47 108.022 137.167 108.161 136.808C108.3 136.449 108.248 136.062 108.017 135.732ZM95.5654 141.332L93.2651 135.579C93.1968 135.397 93.0818 135.227 92.9268 135.079C92.7717 134.931 92.5797 134.809 92.362 134.718C92.1443 134.628 91.9052 134.571 91.6587 134.552C91.4122 134.533 91.1632 134.552 90.9263 134.608C90.6893 134.663 90.4692 134.754 90.2787 134.875C90.0882 134.996 89.9311 135.145 89.8167 135.313C89.7022 135.481 89.6327 135.665 89.6121 135.854C89.5916 136.042 89.6204 136.232 89.6969 136.413L91.9971 142.167C92.0662 142.348 92.1817 142.517 92.337 142.664C92.4922 142.812 92.6842 142.934 92.9016 143.023C93.119 143.113 93.3577 143.169 93.6036 143.188C93.8495 143.207 94.0979 143.188 94.3343 143.133C94.5706 143.077 94.7902 142.987 94.9804 142.866C95.1706 142.745 95.3275 142.597 95.442 142.429C95.5566 142.262 95.6264 142.079 95.6476 141.89C95.6688 141.702 95.6408 141.512 95.5654 141.332ZM82.2693 144.309L81.4468 138.325C81.3837 137.956 81.1345 137.62 80.7523 137.39C80.37 137.159 79.885 137.052 79.4007 137.09C78.9164 137.129 78.4712 137.312 78.1601 137.598C77.8489 137.884 77.6965 138.253 77.7353 138.624L78.5577 144.607C78.6211 144.976 78.8703 145.312 79.2525 145.542C79.6346 145.773 80.1193 145.88 80.6033 145.841C81.0874 145.802 81.5324 145.62 81.8436 145.334C82.1548 145.048 82.3075 144.68 82.2693 144.309ZM68.5553 144.608L69.3777 138.624C69.4034 138.438 69.3807 138.249 69.3112 138.07C69.2416 137.89 69.1264 137.723 68.9722 137.577C68.818 137.431 68.6278 137.31 68.4124 137.221C68.1971 137.132 67.9608 137.075 67.7171 137.056C67.4734 137.036 67.2271 137.054 66.9921 137.107C66.7571 137.16 66.5382 137.248 66.3477 137.366C66.1573 137.484 65.9991 137.629 65.8821 137.794C65.7652 137.959 65.6918 138.139 65.6662 138.326L64.8437 144.31C64.8055 144.681 64.9582 145.049 65.2694 145.335C65.5806 145.621 66.0257 145.803 66.5097 145.842C66.9937 145.881 67.4784 145.773 67.8605 145.543C68.2426 145.312 68.4919 144.977 68.5553 144.608ZM55.1166 142.167L57.4176 136.413C57.4892 136.233 57.514 136.045 57.4904 135.859C57.4669 135.672 57.3955 135.491 57.2805 135.326C57.1654 135.16 57.0088 135.014 56.8197 134.895C56.6306 134.775 56.4127 134.686 56.1783 134.631C55.944 134.576 55.6978 134.557 55.4539 134.575C55.21 134.593 54.9731 134.648 54.7568 134.736C54.5405 134.824 54.3489 134.944 54.1931 135.088C54.0373 135.233 53.9202 135.4 53.8486 135.579L51.5484 141.332C51.4729 141.512 51.445 141.702 51.4661 141.89C51.4873 142.079 51.5572 142.262 51.6717 142.429C51.7863 142.597 51.9432 142.745 52.1333 142.866C52.3235 142.987 52.5431 143.077 52.7795 143.133C53.0158 143.188 53.2642 143.207 53.5101 143.188C53.7561 143.169 53.9947 143.113 54.2121 143.023C54.4296 142.934 54.6215 142.812 54.7768 142.664C54.9321 142.517 55.0476 142.348 55.1166 142.167ZM42.3602 137.115L46.1747 131.853C46.4108 131.522 46.4661 131.133 46.3287 130.771C46.1914 130.409 45.8724 130.104 45.4415 129.921C45.0105 129.738 44.5026 129.694 44.0285 129.796C43.5544 129.899 43.1527 130.141 42.911 130.469L39.0964 135.732C38.9732 135.896 38.8938 136.078 38.863 136.265C38.8322 136.453 38.8506 136.644 38.917 136.826C38.9834 137.008 39.0965 137.179 39.2499 137.327C39.4032 137.476 39.5936 137.599 39.8101 137.691C40.0265 137.783 40.2646 137.841 40.5106 137.861C40.7566 137.882 41.0055 137.865 41.2428 137.811C41.4801 137.758 41.7011 137.669 41.8929 137.549C42.0848 137.43 42.2436 137.282 42.3602 137.115ZM30.8814 129.638L36.0439 125.097C36.3684 124.811 36.5313 124.439 36.4966 124.061C36.462 123.684 36.2327 123.332 35.8592 123.084C35.4856 122.836 34.9985 122.711 34.5049 122.738C34.0113 122.764 33.5517 122.94 33.2272 123.225L28.0647 127.766C27.904 127.908 27.7813 128.072 27.7035 128.249C27.6258 128.427 27.5946 128.615 27.6117 128.802C27.6289 128.989 27.694 129.171 27.8033 129.339C27.9127 129.507 28.0641 129.656 28.2491 129.779C28.434 129.902 28.6488 129.996 28.8812 130.055C29.1136 130.115 29.359 130.139 29.6034 130.125C29.8479 130.112 30.0865 130.063 30.3058 129.979C30.5251 129.895 30.7207 129.78 30.8814 129.638ZM21.2208 120.069L27.4214 116.365C27.6171 116.251 27.7812 116.107 27.9042 115.944C28.0271 115.781 28.1065 115.6 28.1377 115.413C28.169 115.226 28.1514 115.036 28.0861 114.854C28.0208 114.673 27.9091 114.503 27.7573 114.354C27.6055 114.205 27.4167 114.081 27.2019 113.989C26.987 113.896 26.7503 113.837 26.5055 113.815C26.2606 113.793 26.0125 113.809 25.7754 113.86C25.5383 113.912 25.317 113.999 25.1242 114.116L18.9236 117.821C18.539 118.055 18.2909 118.396 18.2333 118.769C18.1757 119.143 18.3132 119.518 18.616 119.815C18.9187 120.111 19.3622 120.304 19.8499 120.352C20.3377 120.399 20.8304 120.298 21.2208 120.069ZM13.635 108.761L20.7073 106.123C21.1521 105.957 21.4925 105.663 21.6536 105.305C21.8147 104.947 21.7833 104.555 21.5664 104.215C21.3494 103.875 20.9647 103.614 20.4968 103.491C20.0288 103.368 19.5161 103.392 19.0713 103.558L11.999 106.196C11.5542 106.362 11.2138 106.656 11.0527 107.014C10.8916 107.372 10.923 107.764 11.14 108.104C11.3569 108.444 11.7416 108.704 12.2096 108.827C12.6775 108.951 13.1902 108.927 13.635 108.761ZM8.55762 96.2337L16.1584 94.6762C16.3951 94.6277 16.6169 94.544 16.8114 94.43C17.0058 94.3159 17.1689 94.1737 17.2914 94.0114C17.414 93.8491 17.4935 93.67 17.5255 93.4842C17.5575 93.2984 17.5413 93.1096 17.4779 92.9286C17.4145 92.7476 17.3051 92.5779 17.1559 92.4293C17.0067 92.2806 16.8207 92.1559 16.6085 92.0621C16.3963 91.9685 16.1621 91.9076 15.9191 91.8832C15.6762 91.8587 15.4293 91.8711 15.1926 91.9196L7.59185 93.4771C7.11382 93.575 6.70625 93.8142 6.45879 94.1419C6.21133 94.4696 6.14426 94.8591 6.27233 95.2247C6.40039 95.5902 6.71311 95.9019 7.14169 96.0911C7.57026 96.2804 8.07959 96.3317 8.55762 96.2337ZM6.0917 82.9237L13.9492 82.6081C14.1975 82.6023 14.4418 82.5586 14.6678 82.4797C14.8938 82.4007 15.0968 82.288 15.2651 82.1482C15.4333 82.0085 15.5634 81.8444 15.6476 81.6657C15.7319 81.4869 15.7686 81.2971 15.7556 81.1074C15.7426 80.9177 15.6802 80.7319 15.5721 80.5608C15.464 80.3898 15.3122 80.237 15.1258 80.1114C14.9394 79.9858 14.7221 79.8899 14.4866 79.8294C14.2511 79.7689 14.0022 79.7449 13.7544 79.759L5.89616 80.0735C5.40931 80.1009 4.95592 80.2732 4.63317 80.5533C4.31041 80.8334 4.14398 81.199 4.16956 81.5718C4.19513 81.9446 4.41068 82.2949 4.76999 82.5476C5.12929 82.8003 5.60377 82.9353 6.0917 82.9237ZM6.39846 69.4128L14.1701 70.3539C14.6555 70.4075 15.149 70.3128 15.5439 70.0903C15.9387 69.8678 16.203 69.5353 16.2797 69.1649C16.3565 68.7945 16.2394 68.4158 15.9538 68.1109C15.6682 67.806 15.2371 67.5993 14.7537 67.5356L6.9821 66.5945C6.73852 66.5624 6.48903 66.5676 6.24812 66.6099C6.00721 66.6521 5.77969 66.7305 5.57875 66.8406C5.37781 66.9507 5.20746 67.0901 5.07761 67.251C4.94775 67.4118 4.86098 67.5907 4.82232 67.7774C4.78366 67.9641 4.79389 68.1548 4.85241 68.3384C4.91093 68.522 5.01658 68.695 5.16322 68.8471C5.30986 68.9993 5.49456 69.1276 5.70661 69.2247C5.91867 69.3218 6.15383 69.3857 6.39846 69.4128ZM9.47189 56.3128L16.8659 58.3708C17.328 58.4908 17.8332 58.4677 18.2732 58.3063C18.7132 58.145 19.0531 57.8583 19.2201 57.5076C19.3871 57.157 19.3678 56.7702 19.1665 56.4303C18.9651 56.0904 18.5977 55.8242 18.1429 55.6889L10.7489 53.6309C10.2868 53.5109 9.78162 53.534 9.34158 53.6954C8.90154 53.8567 8.56163 54.1434 8.39466 54.4941C8.22769 54.8447 8.24694 55.2315 8.4483 55.5714C8.64965 55.9113 9.01708 56.1775 9.47189 56.3128ZM15.1598 44.0494L21.8321 47.2375C22.0398 47.3369 22.2712 47.4039 22.5128 47.4348C22.7545 47.4658 23.0018 47.46 23.2405 47.4179C23.4793 47.3758 23.7048 47.2981 23.9043 47.1893C24.1038 47.0805 24.2733 46.9427 24.4032 46.7838C24.5331 46.6249 24.6207 46.448 24.6612 46.2632C24.7017 46.0784 24.6941 45.8893 24.639 45.7068C24.5839 45.5242 24.4823 45.3517 24.3401 45.1991C24.1978 45.0466 24.0176 44.917 23.8099 44.8176L17.1376 41.6295C16.7179 41.429 16.2113 41.3641 15.7291 41.4492C15.2469 41.5343 14.8287 41.7624 14.5664 42.0833C14.3041 42.4042 14.2193 42.7916 14.3306 43.1603C14.4419 43.5291 14.7401 43.8489 15.1598 44.0494ZM23.2501 33.1816L28.9104 37.3616C29.2663 37.6245 29.7443 37.7684 30.2391 37.7618C30.7339 37.7551 31.2049 37.5985 31.5487 37.3262C31.8924 37.054 32.0806 36.6885 32.0719 36.3101C32.0633 35.9318 31.8584 35.5715 31.5024 35.3087L25.8429 31.1286C25.4869 30.8657 25.0089 30.7217 24.514 30.7283C24.0192 30.7349 23.548 30.8915 23.2042 31.1637C22.8604 31.436 22.6721 31.8015 22.6807 32.1799C22.6893 32.5583 22.8941 32.9186 23.2501 33.1816ZM33.3727 24.2068L37.8859 29.1356C38.0247 29.2922 38.2029 29.4261 38.4101 29.5294C38.6172 29.6328 38.8492 29.7037 39.0924 29.7379C39.3357 29.7721 39.5855 29.769 39.8272 29.7287C40.0689 29.6885 40.2977 29.6118 40.5003 29.5033C40.7029 29.3948 40.8753 29.2566 41.0074 29.0967C41.1395 28.9367 41.2287 28.7583 41.2698 28.5718C41.3109 28.3852 41.3032 28.1943 41.2469 28.0101C41.1906 27.8259 41.087 27.6521 40.9421 27.4988L36.429 22.57C36.2901 22.4134 36.1119 22.2796 35.9048 22.1762C35.6976 22.0728 35.4657 22.0019 35.2224 21.9677C34.9791 21.9335 34.7294 21.9366 34.4877 21.9769C34.246 22.0171 34.0172 22.0938 33.8146 22.2023C33.6119 22.3108 33.4396 22.449 33.3075 22.609C33.1753 22.7689 33.0861 22.9473 33.045 23.1338C33.0039 23.3204 33.0117 23.5113 33.068 23.6955C33.1242 23.8797 33.2278 24.0535 33.3727 24.2068ZM45.1754 17.3877L48.2496 22.9267C48.4428 23.275 48.8092 23.5504 49.268 23.6922C49.7268 23.8341 50.2405 23.8307 50.6961 23.6829C51.1516 23.5351 51.5117 23.2549 51.6972 22.9041C51.8827 22.5532 51.8783 22.1604 51.685 21.812L48.6108 16.2736C48.4146 15.9287 48.0482 15.6569 47.5914 15.5175C47.1345 15.378 46.6241 15.3822 46.1713 15.5291C45.7184 15.6759 45.3597 15.9536 45.1732 16.3017C44.9867 16.6498 44.9875 17.0401 45.1754 17.3877ZM58.0878 13.0969L59.7238 18.9823C59.7714 19.1681 59.8669 19.3447 60.0047 19.502C60.1425 19.6592 60.3198 19.7939 60.5263 19.8982C60.7329 20.0026 60.9645 20.0744 61.2077 20.1096C61.4509 20.1448 61.7008 20.1427 61.9429 20.1033C62.185 20.0639 62.4145 19.9881 62.6179 19.8803C62.8213 19.7724 62.9946 19.6347 63.1277 19.4752C63.2609 19.3156 63.3512 19.1373 63.3933 18.9508C63.4355 18.7643 63.4287 18.5733 63.3734 18.3888L61.7382 12.5034C61.6872 12.3201 61.5895 12.1463 61.4507 11.9919C61.3119 11.8374 61.1347 11.7054 60.9292 11.6034C60.7237 11.5013 60.4939 11.4312 60.2529 11.3971C60.012 11.363 59.7646 11.3655 59.5249 11.4044C59.2852 11.4434 59.0579 11.5181 58.856 11.6243C58.654 11.7304 58.4814 11.8659 58.348 12.0231C58.2145 12.1803 58.1229 12.356 58.0782 12.5402C58.0336 12.7245 58.0369 12.9137 58.0878 13.0969ZM117.744 28.5238L122.143 25.1856C122.478 24.9165 122.662 24.5581 122.657 24.1866C122.652 23.815 122.458 23.4596 122.116 23.1959C121.773 22.9322 121.31 22.7809 120.824 22.7742C120.338 22.7675 119.868 22.9059 119.514 23.1601L115.115 26.4983C114.941 26.6303 114.803 26.7872 114.708 26.9601C114.614 27.133 114.565 27.3184 114.564 27.5058C114.563 27.6932 114.61 27.8789 114.703 28.0523C114.796 28.2257 114.933 28.3834 115.105 28.5164C115.278 28.6494 115.483 28.7551 115.709 28.8274C115.935 28.8998 116.178 28.9374 116.423 28.9381C116.668 28.9388 116.911 28.9025 117.137 28.8315C117.364 28.7604 117.57 28.6559 117.744 28.5238ZM126.439 39.1143L132.02 36.195C132.223 36.0894 132.396 35.9542 132.53 35.7973C132.664 35.6404 132.757 35.4648 132.802 35.2806C132.847 35.0964 132.844 34.9071 132.794 34.7237C132.743 34.5403 132.646 34.3663 132.507 34.2117C132.369 34.057 132.192 33.9246 131.987 33.8222C131.782 33.7198 131.552 33.6492 131.311 33.6147C131.07 33.5801 130.823 33.5822 130.583 33.6208C130.343 33.6594 130.116 33.7337 129.913 33.8396L124.332 36.7583C124.129 36.8641 123.956 36.9994 123.822 37.1563C123.688 37.3132 123.596 37.4888 123.551 37.673C123.46 38.045 123.565 38.4295 123.845 38.7419C124.124 39.0543 124.554 39.2691 125.041 39.3389C125.527 39.4088 126.03 39.328 126.439 39.1143ZM123.143 55.2255L130.218 52.8769C130.443 52.8023 130.646 52.6946 130.816 52.5599C130.987 52.4252 131.121 52.2661 131.211 52.0918C131.301 51.9175 131.345 51.7313 131.341 51.544C131.337 51.3566 131.284 51.1717 131.187 50.9998C131.089 50.8279 130.948 50.6724 130.772 50.5421C130.596 50.4119 130.388 50.3094 130.16 50.2406C129.932 50.1718 129.689 50.1381 129.444 50.1412C129.199 50.1444 128.957 50.1844 128.732 50.259L121.657 52.6076C121.432 52.6822 121.229 52.79 121.058 52.9247C120.888 53.0595 120.754 53.2186 120.664 53.3929C120.482 53.745 120.491 54.1378 120.688 54.485C120.885 54.8321 121.255 55.1052 121.715 55.2441C122.176 55.3829 122.689 55.3763 123.143 55.2255ZM119.654 123.396L125.551 127.486C125.733 127.612 125.945 127.71 126.175 127.773C126.406 127.836 126.651 127.864 126.896 127.855C127.14 127.845 127.38 127.799 127.602 127.719C127.823 127.639 128.022 127.527 128.186 127.388C128.351 127.249 128.478 127.087 128.561 126.91C128.644 126.734 128.68 126.547 128.668 126.36C128.656 126.173 128.596 125.989 128.492 125.82C128.387 125.65 128.24 125.498 128.058 125.372L122.16 121.283C121.979 121.157 121.767 121.059 121.536 120.996C121.306 120.933 121.061 120.905 120.816 120.914C120.572 120.923 120.332 120.969 120.11 121.049C119.889 121.129 119.69 121.242 119.525 121.381C119.361 121.52 119.233 121.682 119.151 121.858C119.068 122.034 119.032 122.222 119.044 122.409C119.055 122.596 119.115 122.779 119.22 122.949C119.325 123.118 119.472 123.27 119.654 123.396ZM127.233 113.302L134.386 116.244C134.601 116.332 134.838 116.388 135.082 116.406C135.325 116.425 135.572 116.407 135.806 116.353C136.041 116.299 136.259 116.21 136.449 116.092C136.639 115.973 136.796 115.828 136.912 115.663C137.028 115.498 137.1 115.317 137.125 115.13C137.149 114.944 137.126 114.756 137.055 114.576C136.985 114.397 136.869 114.23 136.714 114.085C136.559 113.94 136.368 113.819 136.152 113.731L128.999 110.788C128.783 110.699 128.547 110.644 128.303 110.625C128.059 110.606 127.813 110.625 127.578 110.679C127.343 110.733 127.125 110.821 126.935 110.94C126.745 111.058 126.588 111.204 126.472 111.37C126.356 111.535 126.284 111.716 126.259 111.902C126.235 112.088 126.258 112.277 126.329 112.456C126.4 112.636 126.516 112.803 126.671 112.948C126.826 113.093 127.017 113.213 127.233 113.302ZM108.337 131.569L112.45 135.894C112.741 136.199 113.179 136.403 113.667 136.462C114.155 136.52 114.653 136.428 115.053 136.206C115.452 135.984 115.72 135.65 115.798 135.278C115.876 134.905 115.758 134.523 115.469 134.217L111.356 129.891C111.065 129.587 110.627 129.383 110.139 129.324C109.651 129.266 109.153 129.358 108.754 129.58C108.354 129.801 108.086 130.136 108.008 130.508C107.93 130.881 108.048 131.263 108.337 131.569ZM24.8801 121.619L18.4519 125.287C17.6264 125.759 17.4562 126.653 18.072 127.284C18.6877 127.916 19.858 128.046 20.6834 127.575L27.1117 123.907C27.9371 123.435 28.1073 122.541 27.4916 121.91C26.8758 121.279 25.7056 121.148 24.8801 121.619ZM18.2541 110.801L10.9123 113.726C10.695 113.813 10.5022 113.931 10.3448 114.075C10.1874 114.218 10.0685 114.384 9.99491 114.563C9.92134 114.742 9.89454 114.93 9.91602 115.116C9.93749 115.303 10.0068 115.485 10.1201 115.651C10.2333 115.817 10.3883 115.965 10.5761 116.085C10.7638 116.205 10.9808 116.296 11.2145 116.352C11.4483 116.409 11.6942 116.429 11.9383 116.413C12.1824 116.396 12.4198 116.343 12.6371 116.257L19.9789 113.331C20.1962 113.245 20.389 113.126 20.5464 112.982C20.7038 112.839 20.8227 112.673 20.8963 112.494C20.9699 112.315 20.9967 112.127 20.9752 111.941C20.9537 111.754 20.8844 111.573 20.7711 111.406C20.6579 111.24 20.5029 111.093 20.3151 110.972C20.1274 110.852 19.9104 110.761 19.6767 110.705C19.443 110.649 19.197 110.628 18.9529 110.644C18.7089 110.661 18.4714 110.714 18.2541 110.801ZM89.0789 28.465L91.3941 23.5117C91.5552 23.1563 91.5264 22.7667 91.3139 22.4276C91.1014 22.0884 90.7224 21.8271 90.2593 21.7006C89.7962 21.574 89.2865 21.5923 88.841 21.7516C88.3955 21.9109 88.0502 22.1982 87.8803 22.5511L85.5659 27.5045C85.4772 27.6819 85.4358 27.8712 85.444 28.061C85.4522 28.2509 85.5099 28.4376 85.6138 28.6102C85.7176 28.7827 85.8655 28.9377 86.0487 29.066C86.2319 29.1943 86.4467 29.2934 86.6806 29.3573C86.9145 29.4213 87.1628 29.4489 87.4109 29.4385C87.6589 29.4281 87.9017 29.3799 88.1251 29.2968C88.3485 29.2137 88.5479 29.0973 88.7117 28.9545C88.8755 28.8117 89.0003 28.6453 89.0789 28.465ZM79.4705 27.0228L80.293 22.0694C80.3238 21.8835 80.3064 21.6948 80.2417 21.514C80.1771 21.3332 80.0666 21.164 79.9165 21.0159C79.7663 20.8678 79.5795 20.7437 79.3667 20.6509C79.1538 20.558 78.9192 20.498 78.676 20.4745C78.4329 20.451 78.1861 20.4643 77.9497 20.5137C77.7133 20.5631 77.492 20.6476 77.2983 20.7624C77.1046 20.8773 76.9425 21.0201 76.821 21.1829C76.6995 21.3456 76.6212 21.5251 76.5904 21.711L75.7679 26.6644C75.7058 27.0399 75.8412 27.4188 76.1444 27.7179C76.4477 28.017 76.8939 28.2118 77.3849 28.2593C77.8759 28.3068 78.3714 28.2032 78.7626 27.9714C79.1537 27.7395 79.4084 27.3983 79.4705 27.0228ZM67.6925 27.1335L65.9767 22.6322C65.9101 22.4505 65.7972 22.2807 65.6443 22.1327C65.4914 21.9846 65.3017 21.8612 65.086 21.7696C64.8704 21.678 64.6331 21.62 64.388 21.599C64.1428 21.5779 63.8947 21.5943 63.6578 21.6471C63.421 21.6999 63.2002 21.788 63.0082 21.9065C62.8162 22.025 62.6569 22.1714 62.5394 22.3372C62.4218 22.5031 62.3485 22.6851 62.3236 22.8728C62.2987 23.0605 62.3227 23.2501 62.3942 23.4306L64.1101 27.932C64.1766 28.1136 64.2895 28.2834 64.4424 28.4315C64.5953 28.5795 64.785 28.7029 65.0007 28.7945C65.2163 28.8861 65.4536 28.9441 65.6987 28.9652C65.9439 28.9862 66.1921 28.9699 66.4289 28.9171C66.6657 28.8643 66.8865 28.7761 67.0785 28.6577C67.2705 28.5392 67.4298 28.3928 67.5474 28.2269C67.6649 28.0611 67.7382 27.879 67.7631 27.6913C67.788 27.5037 67.764 27.3141 67.6925 27.1335ZM56.9123 29.1996L54.4502 25.2689C54.2292 24.9368 53.8471 24.6839 53.3856 24.5643C52.9241 24.4446 52.4197 24.4678 51.9802 24.6287C51.5406 24.7897 51.2009 25.0757 51.0334 25.4257C50.866 25.7757 50.8842 26.1619 51.0842 26.5017L53.5463 30.4324C53.7673 30.7645 54.1493 31.0174 54.6109 31.137C55.0724 31.2567 55.5768 31.2335 56.0163 31.0725C56.4559 30.9116 56.7956 30.6255 56.963 30.2756C57.1305 29.9256 57.1123 29.5394 56.9123 29.1996Z" fill="#C07E49"/>
<path d="M25.5861 38.9967C30.7486 35.1152 28.5655 29.9204 26.2138 25.8071C23.8621 21.6939 16.1382 19.9885 8.7606 25.165C1.38301 30.3416 2.59956 35.8919 9.31887 38.7268C16.0382 41.5622 20.4237 42.8783 25.5861 38.9967Z" fill="#FF6868"/>
<path d="M26.8944 40.0144C24.0307 42.1677 21.1252 43.0518 17.8502 42.8007C15.2373 42.6004 12.7176 41.7905 8.41723 39.9767C0.17463 36.4981 -0.456772 29.6967 7.49923 24.1138C15.144 18.7489 24.7248 19.6432 27.9229 25.2358C29.5088 28.009 30.3932 30.2001 30.5798 32.3962C30.8284 35.3349 29.6895 37.9118 26.8944 40.0144ZM24.2777 37.9791C27.8923 35.2619 27.5989 31.7918 24.5039 26.3796C22.4029 22.7052 15.8911 22.0974 10.0226 26.2164C3.88171 30.5254 4.29444 34.9771 10.2196 37.4775C17.7181 40.6416 20.4565 40.8522 24.2777 37.9797V37.9791Z" fill="#754F50"/>
<path d="M13.3356 26.7985C9.83678 24.1235 8.81952 21.4959 10.1077 18.7495C10.2287 18.467 10.2008 18.1595 10.03 17.8925C9.85923 17.6254 9.55901 17.4198 9.19314 17.3193C8.82727 17.2189 8.42458 17.2315 8.07065 17.3544C7.71672 17.4774 7.43944 17.7011 7.29773 17.9779C5.59085 21.6174 6.95815 25.1497 11.2235 28.4126C11.362 28.5186 11.5265 28.6028 11.7076 28.6602C11.8887 28.7176 12.0827 28.7472 12.2788 28.7473C12.4748 28.7474 12.6689 28.718 12.8501 28.6607C13.0312 28.6034 13.1958 28.5194 13.3345 28.4134C13.4732 28.3075 13.5832 28.1817 13.6584 28.0432C13.7335 27.9048 13.7722 27.7563 13.7723 27.6064C13.7724 27.4565 13.7339 27.3081 13.659 27.1696C13.584 27.031 13.4742 26.9052 13.3356 26.7991V26.7985Z" fill="#754F50"/>
<path d="M12.1341 27.3413C9.91669 22.5049 13.1767 20.2328 17.8473 18.6034C20.3043 23.2183 17.5906 25.955 12.1341 27.3413Z" fill="#ADDB72"/>
<path d="M129.643 84.6827C133.892 87.3595 138.858 85.6844 142.738 83.9973C146.619 82.3102 147.693 77.7072 141.986 73.8519C136.279 69.9967 130.887 71.141 128.617 75.2531C126.348 79.3646 125.394 82.0048 129.643 84.6827Z" fill="#99DC71"/>
<path d="M128.457 85.7836C126.001 84.237 124.831 82.5333 124.819 80.5124C124.809 78.9246 125.423 77.3705 126.898 74.6977C129.805 69.431 136.845 68.4756 143.221 72.7824C149.35 76.923 149.223 82.8187 143.66 85.2369C141.001 86.3926 138.863 87.0923 136.642 87.3823C133.635 87.7761 130.864 87.3001 128.457 85.7842V85.7836ZM141.816 82.7565C144.999 81.3736 145.075 77.8425 140.751 74.9209C136.221 71.8618 132.214 72.4051 130.335 75.8072C127.871 80.2732 127.88 81.7229 130.83 83.5818C133.617 85.3373 136.854 84.9133 141.816 82.7565Z" fill="#754F50"/>
<path d="M141.012 76.7998C143.298 74.6413 145.679 73.8867 148.353 74.3856C148.544 74.4212 148.742 74.4277 148.935 74.4049C149.129 74.3821 149.315 74.3303 149.483 74.2525C149.65 74.1747 149.796 74.0724 149.912 73.9515C150.028 73.8305 150.111 73.6934 150.158 73.5477C150.205 73.4021 150.213 73.2509 150.183 73.1027C150.153 72.9546 150.086 72.8123 149.984 72.6842C149.882 72.5561 149.748 72.4445 149.59 72.3559C149.432 72.2672 149.253 72.2033 149.062 72.1677C145.181 71.4429 141.66 72.5587 138.691 75.3627C138.568 75.4792 138.476 75.6131 138.42 75.7569C138.364 75.9006 138.346 76.0514 138.367 76.2005C138.387 76.3496 138.446 76.4941 138.539 76.6259C138.633 76.7577 138.759 76.8741 138.912 76.9684C139.064 77.0628 139.239 77.1333 139.427 77.1759C139.615 77.2184 139.812 77.2323 140.007 77.2167C140.202 77.201 140.391 77.1561 140.564 77.0846C140.736 77.0131 140.888 76.9163 141.012 76.7998Z" fill="#754F50"/>
<path d="M140.103 75.9762C144.708 74.3091 147.215 76.0144 149.198 78.5856C144.829 80.3737 141.906 79.0216 140.103 75.9762Z" fill="#ADDB72"/>
<path d="M147.567 78.2203C145.884 76.3654 144.163 75.7622 141.648 76.4157C143.098 78.3504 144.992 78.9731 147.567 78.2203ZM139.623 75.2023C144.305 73.5078 147.497 74.6949 150.163 78.1507L150.756 78.9195L149.727 79.3407C145.01 81.2697 141.282 80.0409 139.082 76.3289L138.628 75.5618L139.623 75.2023Z" fill="#754F50"/>
<path d="M104.628 74.1356C108.337 69.9887 109.865 64.9255 108.909 59.9552L108.115 55.7803C106.032 44.8411 93.7673 36.7292 79.3114 36.7292H64.3309C49.7257 36.7292 37.3827 45.0054 35.4728 56.0782L34.8735 59.5585C34.7354 60.3593 34.6594 61.1656 34.6459 61.9733C34.5598 66.6293 36.5631 71.1672 40.3218 74.8307C37.8321 77.7156 36.2583 81.0054 35.7258 84.4378C33.7577 97.0208 32.7733 104.278 32.7733 106.207C32.7733 107.808 33.4495 112.015 34.8026 118.831C36.9633 129.709 49.1928 137.749 63.5808 137.749H82.3155C95.8257 137.749 107.56 130.64 110.65 120.582C112.589 114.277 113.557 109.486 113.557 106.207C113.557 102.243 112.142 94.4222 109.31 82.7439C108.563 79.6535 106.968 76.7194 104.628 74.1356Z" fill="#FFD3B0"/>
<path d="M107.299 74.1259C109.371 76.6684 110.8 79.4859 111.511 82.4318C114.368 94.2134 115.796 102.104 115.796 106.207C115.796 109.644 114.805 114.551 112.83 120.974C109.502 131.805 96.8648 139.461 82.3156 139.461H63.5809C48.0854 139.461 34.9154 130.803 32.5898 119.088C31.2166 112.17 30.5352 107.93 30.5352 106.207C30.5352 104.174 31.5173 96.9295 33.5034 84.2347C34.0144 80.943 35.4151 77.7685 37.6164 74.9129C34.1447 71.1177 32.3224 66.5834 32.4077 61.9522C32.4219 61.0767 32.504 60.2029 32.654 59.3348L33.2541 55.8545C35.3095 43.9302 48.6026 35.0171 64.331 35.0171H79.3116C94.8787 35.0171 108.088 43.7539 110.331 55.5338L111.126 59.7087C112.086 64.7086 110.733 69.808 107.299 74.1259ZM102.779 73.1705C106.172 69.3784 107.57 64.7474 106.694 60.2018L105.9 56.0269C103.977 45.9295 92.6554 38.4415 79.3116 38.4415H64.331C50.8498 38.4415 39.4554 46.0813 37.6933 56.3025L37.0933 59.7823C36.9668 60.5161 36.8973 61.2549 36.885 61.995C36.8049 66.2609 38.6402 70.4188 42.0848 73.7749L43.0789 74.7452L42.1915 75.7736C39.8937 78.4364 38.4413 81.4729 37.9501 84.6411C35.9991 97.1121 35.0132 104.381 35.0132 106.207C35.0132 107.684 35.6849 111.86 37.0179 118.573C39.0106 128.615 50.2998 136.037 63.5809 136.037H82.3156C94.7862 136.037 105.619 129.474 108.471 120.191C110.372 114.003 111.318 109.326 111.318 106.207C111.318 102.383 109.914 94.6317 107.107 83.0562C106.419 80.2035 104.946 77.4952 102.787 75.1104L101.911 74.143L102.779 73.1705Z" fill="#754F50"/>
<path d="M73.1407 94.3732C81.3848 94.3732 88.0675 99.4835 88.0675 105.788V120.627C88.0675 126.931 81.3848 132.041 73.1407 132.041C64.8966 132.041 58.2139 126.931 58.2139 120.627V105.788C58.2139 99.4835 64.8966 94.3732 73.1407 94.3732Z" fill="#FFE8D6"/>
<path d="M49.8505 130.329C49.1203 130.705 48.508 131.2 48.0576 131.778C47.6073 132.356 47.33 133.003 47.2457 133.673L46.9293 136.16L38.7703 141.996C38.0341 142.522 37.4567 143.165 37.0782 143.879C36.6996 144.594 36.529 145.362 36.5782 146.132C36.6274 146.902 36.8953 147.655 37.3632 148.337C37.831 149.02 38.4877 149.617 39.2875 150.086C41.0881 151.142 43.3281 151.664 45.5933 151.556C47.8584 151.447 49.9956 150.715 51.6096 149.495L60.5903 142.706L64.178 142.603C65.7219 142.559 67.1834 142.059 68.2553 141.209C69.3273 140.358 69.9262 139.222 69.9263 138.041V135.648" fill="#FFD3B0"/>
<path d="M37.241 140.745C36.873 141.008 36.5349 141.294 36.2282 141.599C33.1413 144.676 33.9011 149.083 37.9246 151.444C40.1546 152.752 42.9285 153.399 45.7335 153.264C48.5385 153.129 51.1849 152.223 53.1836 150.712L61.5448 144.392L64.2615 144.314C68.6739 144.188 72.1653 141.416 72.1653 138.04V135.647C72.1653 135.193 71.9294 134.758 71.5095 134.437C71.0896 134.116 70.5201 133.935 69.9262 133.935C69.3324 133.935 68.7629 134.116 68.343 134.437C67.9231 134.758 67.6872 135.193 67.6872 135.647V138.04C67.6871 138.779 67.3127 139.488 66.6427 140.02C65.9727 140.552 65.0593 140.864 64.0943 140.892L59.6357 141.019L50.0355 148.277C48.8062 149.206 47.1784 149.764 45.4532 149.847C43.7279 149.93 42.0218 149.532 40.6502 148.727C40.1084 148.41 39.6635 148.005 39.3465 147.543C39.0296 147.08 38.8481 146.57 38.8147 146.049C38.7813 145.527 38.8968 145.006 39.1532 144.522C39.4096 144.038 39.8008 143.603 40.2995 143.246L49.0749 136.969L49.4735 133.839C49.5259 133.42 49.6992 133.015 49.981 132.653C50.2627 132.292 50.6459 131.983 51.1028 131.748C51.3465 131.622 51.5554 131.461 51.7176 131.273C51.8798 131.086 51.9921 130.876 52.0481 130.655C52.1041 130.434 52.1027 130.207 52.0439 129.987C51.9852 129.767 51.8703 129.557 51.7058 129.371C51.5413 129.185 51.3304 129.025 51.0851 128.901C50.8399 128.777 50.5651 128.691 50.2764 128.648C49.9878 128.605 49.6909 128.606 49.4028 128.651C49.1147 128.696 48.841 128.784 48.5973 128.91C47.5938 129.427 46.7524 130.107 46.1334 130.902C45.5144 131.696 45.1332 132.586 45.0171 133.507L44.7827 135.351L37.241 140.745Z" fill="#754F50"/>
<path d="M51.4968 126.905C51.4968 127.51 51.8114 128.091 52.3712 128.519C52.9311 128.947 53.6904 129.188 54.4822 129.188C55.274 129.188 56.0333 128.947 56.5932 128.519C57.153 128.091 57.4676 127.51 57.4676 126.905C57.4676 126.299 57.153 125.719 56.5932 125.291C56.0333 124.862 55.274 124.622 54.4822 124.622C53.6904 124.622 52.9311 124.862 52.3712 125.291C51.8114 125.719 51.4968 126.299 51.4968 126.905Z" fill="#754F50"/>
<path d="M88.0676 126.905C88.0676 127.51 88.3822 128.091 88.942 128.519C89.5019 128.947 90.2612 129.188 91.053 129.188C91.8448 129.188 92.6041 128.947 93.164 128.519C93.7238 128.091 94.0384 127.51 94.0384 126.905C94.0384 126.299 93.7238 125.719 93.164 125.291C92.6041 124.862 91.8448 124.622 91.053 124.622C90.2612 124.622 89.5019 124.862 88.942 125.291C88.3822 125.719 88.0676 126.299 88.0676 126.905Z" fill="#754F50"/>
<path d="M95.4556 130.329C96.1858 130.705 96.7981 131.2 97.2484 131.778C97.6988 132.356 97.9761 133.003 98.0603 133.673L98.3768 136.16L106.536 141.996C106.813 142.195 107.07 142.411 107.302 142.642C109.635 144.968 109.061 148.301 106.019 150.086C104.218 151.142 101.978 151.664 99.7128 151.556C97.4477 151.447 95.3105 150.715 93.6965 149.495L84.7158 142.706L81.1274 142.603C79.5835 142.559 78.122 142.059 77.05 141.209C75.9781 140.358 75.3791 139.222 75.379 138.041V135.648" fill="#FFD3B0"/>
<path d="M108.066 140.745C108.433 141.008 108.771 141.294 109.078 141.599C112.165 144.676 111.405 149.083 107.382 151.444C102.77 154.149 96.2557 153.837 92.1232 150.712L83.7619 144.391L81.0445 144.314C76.6329 144.188 73.1407 141.416 73.1407 138.04V135.647C73.1407 135.193 73.3767 134.758 73.7965 134.437C74.2164 134.115 74.7859 133.935 75.3798 133.935C75.9736 133.935 76.5431 134.115 76.963 134.437C77.3829 134.758 77.6188 135.193 77.6188 135.647V138.04C77.6189 138.779 77.9933 139.488 78.6633 140.02C79.3333 140.552 80.2468 140.864 81.2117 140.892L85.6703 141.019L95.2705 148.277C96.4998 149.206 98.1276 149.764 99.8528 149.847C101.578 149.93 103.284 149.532 104.656 148.727C105.198 148.41 105.643 148.005 105.96 147.543C106.277 147.08 106.458 146.57 106.491 146.049C106.525 145.527 106.409 145.006 106.152 144.522C105.896 144.038 105.505 143.603 105.006 143.246L96.2303 136.969L95.8325 133.839C95.7801 133.42 95.6067 133.015 95.3248 132.653C95.0429 132.292 94.6596 131.983 94.2025 131.748C93.727 131.489 93.4027 131.098 93.2989 130.658C93.195 130.219 93.3198 129.765 93.6466 129.395C93.9734 129.025 94.4763 128.767 95.0482 128.676C95.6201 128.586 96.2156 128.67 96.708 128.91C97.7116 129.426 98.5531 130.107 99.1721 130.901C99.7911 131.696 100.172 132.586 100.288 133.507L100.523 135.351L108.066 140.745Z" fill="#754F50"/>
<path d="M36.9342 85.8122C40.1785 88.9364 44.9648 91.6947 51.293 94.0867C55.5659 95.7018 59.82 96.8781 64.0555 97.6149C64.783 97.7413 65.4654 97.9883 66.0545 98.3384C66.6436 98.6885 67.125 99.1332 67.4648 99.6412C67.8045 100.149 67.9943 100.708 68.0207 101.278C68.0472 101.848 67.9096 102.416 67.6178 102.941C66.8811 104.267 65.5559 105.352 63.8758 106.005C62.1956 106.657 60.2682 106.835 58.4333 106.507C54.1366 105.738 50.4109 104.809 47.2568 103.719C42.575 102.1 38.2664 99.8208 34.3302 96.8798C34.5183 93.964 34.7668 91.8106 35.0765 90.422C35.387 89.0311 36.0057 87.4953 36.9342 85.8122Z" fill="#FFD3B0"/>
<path d="M37.285 90.7091C37.0208 91.8939 36.7976 93.7265 36.6207 96.1858C40.1741 98.7335 44.0252 100.723 48.1808 102.159C51.193 103.2 54.7815 104.096 58.9438 104.839C60.2651 105.075 61.6531 104.947 62.863 104.478C64.073 104.008 65.0273 103.227 65.5579 102.272C65.7212 101.977 65.7981 101.659 65.7831 101.339C65.7681 101.019 65.6615 100.706 65.471 100.421C65.2804 100.136 65.0104 99.8867 64.6801 99.6903C64.3498 99.4939 63.9671 99.3553 63.5592 99.2843C59.1476 98.5172 54.7277 97.2959 50.3004 95.6219C45.1902 93.69 41.0129 91.5121 37.7783 89.0785C37.5742 89.6145 37.4095 90.1589 37.285 90.7091ZM38.6873 84.7472C41.7085 87.6556 46.2336 90.2639 52.2849 92.5514C56.4033 94.1089 60.4917 95.239 64.5518 95.9444C68.5037 96.6315 70.9793 99.6387 70.0807 102.661C69.9842 102.986 69.8498 103.303 69.6792 103.61C68.7365 105.307 67.0405 106.696 64.89 107.531C62.7396 108.366 60.2727 108.593 57.9243 108.173C53.4933 107.381 49.631 106.418 46.3359 105.279C41.4115 103.577 36.8864 101.183 32.7666 98.104L32.0457 97.5658L32.0949 96.7953C32.2875 93.8161 32.5427 91.6051 32.8704 90.1338C33.2114 88.6048 33.8802 86.9445 34.8713 85.1467L36.3386 82.486L38.6873 84.7472Z" fill="#754F50"/>
<path d="M108.71 85.8122C105.465 88.9364 100.679 91.6947 94.351 94.0867C90.0775 95.7018 85.8241 96.8781 81.5878 97.6149C80.8603 97.7413 80.1779 97.9883 79.5888 98.3384C78.9997 98.6885 78.5183 99.1332 78.1785 99.6412C77.8388 100.149 77.649 100.708 77.6226 101.278C77.5961 101.848 77.7337 102.416 78.0255 102.941C78.7622 104.267 80.0874 105.352 81.7675 106.005C83.4477 106.657 85.3751 106.835 87.21 106.507C91.5067 105.738 95.2324 104.809 98.3865 103.719C103.068 102.1 107.377 99.8208 111.313 96.8798C111.125 93.964 110.877 91.8106 110.567 90.422C110.256 89.0311 109.638 87.4953 108.71 85.8122Z" fill="#FFD3B0"/>
<path d="M108.313 90.7091C108.577 91.8939 108.8 93.7265 108.977 96.1858C105.425 98.7335 101.573 100.723 97.4178 102.159C94.4055 103.2 90.8171 104.096 86.654 104.839C85.3328 105.075 83.9449 104.947 82.7351 104.478C81.5252 104.008 80.571 103.227 80.0407 102.272C79.8771 101.977 79.8 101.659 79.8149 101.339C79.8298 101.019 79.9363 100.706 80.1269 100.421C80.3175 100.136 80.5876 99.8863 80.9181 99.69C81.2485 99.4936 81.6313 99.3551 82.0394 99.2843C86.4503 98.5172 90.8709 97.2959 95.2982 95.6219C100.408 93.69 104.586 91.5121 107.82 89.0785C108.034 89.6486 108.199 90.1926 108.313 90.7091ZM106.91 84.7472C103.889 87.6556 99.3635 90.2639 93.3122 92.5514C89.1938 94.1089 85.1054 95.239 81.0453 95.9444C77.0934 96.6315 74.6186 99.6387 75.5164 102.661C75.6134 102.985 75.7478 103.303 75.9179 103.61C76.8606 105.307 78.5566 106.696 80.7071 107.531C82.8576 108.366 85.3244 108.593 87.6728 108.173C92.1038 107.381 95.9662 106.418 99.2613 105.279C104.186 103.577 108.711 101.183 112.83 98.104L113.552 97.5658L113.503 96.7953C113.31 93.8161 113.055 91.6051 112.727 90.1338C112.386 88.6048 111.718 86.9445 110.726 85.1467L109.258 82.486L106.91 84.7472Z" fill="#754F50"/>
<path d="M73.7572 73.8268C74.5282 73.8314 75.4193 73.949 76.4291 74.179C77.4785 74.4101 78.3651 74.8987 78.3651 75.8004C78.3651 75.8655 78.3591 75.9305 78.3494 75.995C78.1748 77.0372 76.9351 77.8219 75.4656 77.8219H72.8847C71.3092 77.8219 69.9232 77.0766 69.4881 75.995C69.1821 75.2348 69.7986 74.4426 70.8614 74.2235C71.1554 74.163 72.2556 73.8183 73.7572 73.8268Z" fill="#8B674F"/>
<path d="M73.7572 73.8268C72.2556 73.8182 71.1555 74.163 70.8607 74.2235C69.7971 74.4426 69.1814 75.2348 69.4874 75.995C69.9225 77.0771 71.3085 77.8219 72.884 77.8219H75.4648C76.9351 77.8219 78.1741 77.0372 78.3487 75.995C78.3592 75.9305 78.3644 75.8655 78.3644 75.8004C78.3644 74.8986 77.4777 74.4101 76.4284 74.1789C75.4193 73.9484 74.5282 73.8308 73.7572 73.8268ZM77.6673 70.8881C80.6034 71.5342 82.8432 73.2093 82.8432 75.8004C82.8432 76.0116 82.826 76.2222 82.7909 76.4311C82.3207 79.2265 79.1339 81.2463 75.4656 81.2463H72.8848C69.3837 81.2463 66.2334 79.5518 65.2079 77.0012C64.1376 74.341 66.2438 71.6272 69.6986 70.9166C69.5374 70.9497 70.1292 70.8048 70.5629 70.7175C71.616 70.503 72.7018 70.397 73.7916 70.4024C75.023 70.4093 76.3216 70.5805 77.6673 70.8881Z" fill="#754F50"/>
<path d="M73.8893 61.4762C73.889 62.6275 74.1854 63.7676 74.7614 64.8314C75.3374 65.8951 76.1818 66.8617 77.2463 67.6759C78.3108 68.4901 79.5747 69.1359 80.9657 69.5766C82.3566 70.0172 83.8475 70.244 85.3531 70.244C86.8587 70.244 88.3496 70.0172 89.7405 69.5766C91.1315 69.1359 92.3953 68.4901 93.4599 67.6759C94.5244 66.8617 95.3688 65.8951 95.9448 64.8314C96.5208 63.7676 96.8171 62.6275 96.8169 61.4762C96.8171 60.3248 96.5208 59.1847 95.9448 58.121C95.3688 57.0572 94.5244 56.0906 93.4599 55.2764C92.3953 54.4623 91.1315 53.8164 89.7405 53.3758C88.3496 52.9351 86.8587 52.7083 85.3531 52.7083C83.8475 52.7083 82.3566 52.9351 80.9657 53.3758C79.5747 53.8164 78.3108 54.4623 77.2463 55.2764C76.1818 56.0906 75.3374 57.0572 74.7614 58.121C74.1854 59.1847 73.889 60.3248 73.8893 61.4762Z" fill="white"/>
<path d="M85.3531 71.9548C77.7838 71.9548 71.6481 67.2634 71.6481 61.4762C71.6481 55.6884 77.7845 50.9976 85.3531 50.9976C92.9218 50.9976 99.0582 55.689 99.0582 61.4762C99.059 67.2634 92.9225 71.9548 85.3531 71.9548ZM85.3531 68.5304C90.4492 68.5304 94.5802 65.372 94.5802 61.4762C94.5802 57.5804 90.4492 54.4219 85.3531 54.4219C80.2571 54.4219 76.1261 57.5804 76.1261 61.4762C76.1261 65.372 80.2571 68.5304 85.3531 68.5304Z" fill="#754F50"/>
<path d="M78.0583 64.2568C78.6211 64.7551 79.3943 65.0869 80.2437 65.1948C81.0931 65.3027 81.9651 65.1797 82.7083 64.8472C83.4515 64.5148 84.019 63.9938 84.3123 63.3748C84.6057 62.7558 84.6064 62.0777 84.3142 61.4584C84.0221 60.839 83.4556 60.3174 82.7131 59.9841C81.9705 59.6508 81.0988 59.5268 80.2492 59.6337C79.3996 59.7406 78.6258 60.0715 78.062 60.5692C77.4982 61.0668 77.18 61.6997 77.1627 62.358L79.8951 62.6616L78.0583 64.2568Z" fill="#232323"/>
<path d="M48.5137 61.6052C48.5137 64.1159 49.818 66.5238 52.1396 68.2991C54.4612 70.0745 57.61 71.0719 60.8932 71.0719C64.1765 71.0719 67.3253 70.0745 69.6469 68.2991C71.9685 66.5238 73.2728 64.1159 73.2728 61.6052C73.2728 59.0944 71.9685 56.6865 69.6469 54.9112C67.3253 53.1358 64.1765 52.1384 60.8932 52.1384C57.61 52.1384 54.4612 53.1358 52.1396 54.9112C49.818 56.6865 48.5137 59.0944 48.5137 61.6052Z" fill="white"/>
<path d="M60.8933 72.7841C52.8186 72.7841 46.2725 67.7793 46.2725 61.6052C46.2725 55.4316 52.8186 50.4268 60.8933 50.4268C68.968 50.4268 75.5141 55.4316 75.5141 61.6052C75.5141 67.7793 68.968 72.7841 60.8933 72.7841ZM60.8933 69.3597C66.4953 69.3597 71.0361 65.8879 71.0361 61.6052C71.0361 57.3224 66.4953 53.8512 60.8933 53.8512C55.2913 53.8512 50.7505 57.323 50.7505 61.6052C50.7505 65.8874 55.2913 69.3597 60.8933 69.3597Z" fill="#754F50"/>
<path d="M61.8427 65.0535C62.4396 65.5823 63.2597 65.9346 64.1608 66.0493C65.062 66.1639 65.9871 66.0337 66.7758 65.6812C67.5644 65.3286 68.1668 64.7761 68.4783 64.1194C68.7898 63.4627 68.7908 62.7433 68.4811 62.0861C68.1714 61.4289 67.5706 60.8754 66.783 60.5216C65.9953 60.1678 65.0705 60.036 64.1691 60.1492C63.2676 60.2624 62.4465 60.6134 61.8481 61.1412C61.2497 61.669 60.9119 62.3404 60.8933 63.0389L63.7921 63.3607L61.8427 65.0535Z" fill="#232323"/>
<path d="M46.2941 47.6622L39.2031 43.4496C35.4497 41.2192 34.7706 37.0843 37.6873 34.2135C38.2916 33.6185 39.0252 33.1075 39.8561 32.7028C44.1625 30.6025 49.8787 31.5699 52.6253 34.8624C53.0803 35.4082 53.4353 35.9991 53.6806 36.6185L55.9144 42.2694" fill="#FFD3B0"/>
<path d="M47.6681 46.3101L40.5779 42.0976C39.7721 41.619 39.1285 40.9993 38.7013 40.2908C38.274 39.5823 38.0757 38.8056 38.1229 38.0263C38.1702 37.2469 38.4617 36.4876 38.9728 35.8123C39.4839 35.1371 40.1998 34.5656 41.06 34.1461C41.9725 33.701 43.0075 33.4236 44.0837 33.3356C45.1599 33.2476 46.2481 33.3515 47.2631 33.639C48.278 33.9265 49.1921 34.3898 49.9336 34.9927C50.6752 35.5956 51.224 36.3217 51.5372 37.1139L53.771 42.7648C53.8535 42.9822 53.9917 43.1849 54.1774 43.3612C54.3632 43.5376 54.5928 43.684 54.853 43.792C55.1132 43.9 55.3989 43.9675 55.6934 43.9905C55.988 44.0135 56.2856 43.9916 56.569 43.9261C56.8524 43.8606 57.116 43.7528 57.3446 43.6088C57.5731 43.4649 57.762 43.2877 57.9004 43.0876C58.0388 42.8874 58.124 42.6682 58.1509 42.4428C58.1778 42.2173 58.1459 41.99 58.0572 41.774L55.8234 36.1231C55.5188 35.3537 55.0778 34.6198 54.5128 33.9418C51.102 29.8514 44.0006 28.6506 38.6523 31.2594C37.6052 31.7694 36.6807 32.4135 35.9192 33.1633C32.2442 36.7806 33.0995 41.9908 37.8298 44.8011L44.9201 49.0143C45.389 49.2929 45.9835 49.4177 46.5728 49.3612C47.162 49.3047 47.6978 49.0715 48.0622 48.7129C48.4266 48.3543 48.5898 47.8997 48.5159 47.4491C48.442 46.9985 48.137 46.5888 47.6681 46.3101Z" fill="#754F50"/>
<path d="M47.2733 44.03L44.0521 42.1158C43.5574 41.8218 43.1624 41.4413 42.9001 41.0062C42.6379 40.5712 42.5162 40.0943 42.5452 39.6157C42.5743 39.1372 42.7532 38.671 43.067 38.2564C43.3808 37.8418 43.8202 37.4908 44.3484 37.2332C44.8954 36.9665 45.5158 36.8003 46.1608 36.7477C46.8059 36.695 47.4582 36.7572 48.0665 36.9296C48.6749 37.1019 49.2228 37.3796 49.6673 37.7409C50.1118 38.1022 50.4409 38.5373 50.6288 39.0121L51.6439 41.5793C50.908 42.2419 50.2534 42.7373 49.6795 43.0666C49.1063 43.3959 48.304 43.7173 47.2733 44.03Z" fill="#E3AD83"/>
<path d="M99.241 47.6622L106.332 43.4496C110.085 41.2192 110.764 37.0843 107.848 34.2135C107.243 33.6188 106.51 33.1078 105.68 32.7028C101.373 30.6025 95.6564 31.5699 92.9106 34.8624C92.4556 35.4082 92.1005 35.9991 91.8553 36.6185L89.6222 42.2694" fill="#FFD3B0"/>
<path d="M97.8678 46.3101L104.958 42.0976C105.764 41.619 106.408 40.9994 106.835 40.2908C107.262 39.5822 107.46 38.8055 107.413 38.0261C107.366 37.2467 107.074 36.4874 106.563 35.8121C106.052 35.1369 105.336 34.5655 104.475 34.1461C103.563 33.701 102.528 33.4236 101.452 33.3356C100.375 33.2476 99.2871 33.3515 98.2721 33.639C97.2572 33.9265 96.3431 34.3898 95.6015 34.9927C94.86 35.5956 94.3112 36.3217 93.998 37.1139L91.7642 42.7648C91.6793 42.98 91.5397 43.1803 91.3534 43.3543C91.1671 43.5282 90.9379 43.6724 90.6787 43.7786C90.4196 43.8847 90.1356 43.9508 89.843 43.973C89.5505 43.9952 89.255 43.9731 88.9736 43.9079C88.6922 43.843 88.4302 43.7362 88.2027 43.5938C87.9753 43.4514 87.7867 43.276 87.6479 43.0779C87.509 42.8797 87.4226 42.6625 87.3936 42.4388C87.3646 42.2151 87.3935 41.9891 87.4787 41.774L89.7118 36.1231C90.0161 35.3536 90.4571 34.6197 91.0223 33.9418C94.4331 29.8514 101.535 28.6506 106.884 31.2594C107.93 31.7696 108.855 32.4136 109.616 33.1633C113.291 36.7806 112.436 41.9908 107.705 44.8011L100.614 49.0143C100.383 49.1564 100.116 49.2619 99.8309 49.3245C99.5454 49.3872 99.2465 49.4058 98.9515 49.3792C98.6565 49.3527 98.3714 49.2815 98.1127 49.1699C97.8541 49.0583 97.6271 48.9084 97.4449 48.729C97.2627 48.5497 97.129 48.3444 97.0516 48.1251C96.9741 47.9058 96.9545 47.677 96.9939 47.4519C97.0333 47.2267 97.1308 47.0099 97.2808 46.8139C97.4309 46.6178 97.6304 46.4466 97.8678 46.3101Z" fill="#754F50"/>
<path d="M98.2611 44.03L101.482 42.1158C101.977 41.8219 102.372 41.4414 102.634 41.0063C102.897 40.5713 103.018 40.0944 102.989 39.6159C102.961 39.1374 102.782 38.6712 102.468 38.2565C102.154 37.8419 101.715 37.4909 101.187 37.2332C100.64 36.9663 100.019 36.7999 99.374 36.7471C98.7288 36.6943 98.0764 36.7565 97.4679 36.9289C96.8594 37.1012 96.3114 37.379 95.8668 37.7404C95.4223 38.1019 95.0932 38.5372 94.9055 39.0122L93.8912 41.5793C94.6271 42.2419 95.2817 42.7373 95.8556 43.0666C96.4296 43.3959 97.2304 43.7173 98.2611 44.03Z" fill="#E3AD83"/>
</svg>
