<svg width="29" height="25" viewBox="0 0 29 25" fill="none" xmlns="http://www.w3.org/2000/svg">
<path d="M12.0013 14.5943L26.5949 2.34026M12.4161 15.1454L15.7252 20.7048C16.5249 22.0482 16.9247 22.72 17.4284 22.9001C17.8656 23.0564 18.3653 23.028 18.7736 22.8239C19.244 22.5886 19.5328 21.8778 20.1107 20.4564L26.363 5.07552C26.8666 3.83698 27.1182 3.21771 26.946 2.80804C26.796 2.45166 26.4623 2.17132 26.0381 2.0454C25.5503 1.90067 24.8132 2.11213 23.3386 2.53504L5.02804 7.78707C3.33584 8.27244 2.48973 8.51513 2.20964 8.91025C1.96657 9.25314 1.93289 9.67289 2.11898 10.04C2.33342 10.4631 3.1331 10.7991 4.73247 11.4707L11.3507 14.2505C11.6143 14.3612 11.7461 14.4165 11.8601 14.4904C11.9615 14.556 12.0524 14.6323 12.1304 14.7174C12.2185 14.8133 12.2844 14.924 12.4161 15.1454Z" stroke="#DB7684" stroke-width="3" stroke-linecap="round" stroke-linejoin="round"/>
</svg>
