<svg width="41" height="40" viewBox="0 0 41 40" fill="none" xmlns="http://www.w3.org/2000/svg">
<rect x="2" y="2" width="37" height="37" rx="11" stroke="#FFEEEE" stroke-width="2"/>
<path d="M31.2222 23.8889C31.2222 23.8889 28.4445 28.071 28.4445 29.6667C28.4445 31.2623 29.6884 32.5556 31.2222 32.5556C32.7561 32.5556 34 31.2623 34 29.6667C34 28.071 31.2222 23.8889 31.2222 23.8889ZM30.8156 19.2423L21.8012 9.86739C21.53 9.58528 21.1745 9.44444 20.819 9.44444C20.4636 9.44444 20.1081 9.58528 19.8373 9.86739L16.2965 13.5498L12.556 9.6593C12.2847 9.37719 11.8451 9.37719 11.5742 9.6593L10.5925 10.6803C10.3216 10.9625 10.3216 11.4197 10.5925 11.7014L14.3333 15.5915L10.2205 19.8688C8.59333 21.5606 8.59333 24.3042 10.2205 25.9964L15.3069 31.2862C16.1202 32.1322 17.1866 32.5556 18.2526 32.5556C19.319 32.5556 20.385 32.1326 21.1984 31.2862L30.8151 21.2848C31.3577 20.7206 31.3577 19.8065 30.8156 19.2423ZM25.7713 22.4458H11.8616C11.9206 22.2725 12.0165 22.0856 12.184 21.9118L12.7548 21.3182L16.2969 17.6344L18.8403 20.2796C19.3824 20.8434 20.2617 20.8434 20.8038 20.2796C21.3459 19.7158 21.3459 18.8013 20.8038 18.2375L18.2604 15.5924L20.819 12.9314L27.8694 20.2638L25.7713 22.4458Z" fill="#FFEEEE"/>
</svg>
