<svg width="39" height="40" viewBox="0 0 39 40" fill="none" xmlns="http://www.w3.org/2000/svg">
<rect x="1" y="2" width="37" height="37" rx="11" stroke="#FFEEEE" stroke-width="2"/>
<path d="M17.266 26.4167H14.1664V23.1667M13.1194 24.1389L26.3125 11.8881C27.2238 11.042 28.7011 11.042 29.6124 11.8881C30.5236 12.7343 30.5236 14.1061 29.6124 14.9522L16.2247 27.3837C15.5993 27.9644 15.2866 28.2548 14.9404 28.5044C14.6329 28.7261 14.306 28.9237 13.9632 29.095C13.5772 29.2878 13.1647 29.4357 12.3396 29.7316L9.5 30.7498L10.4136 28.2043C10.7255 27.3357 10.8814 26.9013 11.0982 26.4957C11.2908 26.1354 11.519 25.7927 11.7798 25.4716C12.0735 25.1101 12.4221 24.7864 13.1194 24.1389Z" stroke="#FFEEEE" stroke-width="3" stroke-linecap="round" stroke-linejoin="round"/>
</svg>
