<svg width="1299" height="763" viewBox="0 0 1299 763" fill="none" xmlns="http://www.w3.org/2000/svg">
<g filter="url(#filter0_d_294_2814)">
<rect x="-0.5" y="0.5" width="1285" height="754" transform="matrix(-1 0 0 1 1290 0)" stroke="#FFEEEE" shape-rendering="crispEdges"/>
<path d="M1294.01 751.37H5L5.00002 0H1294.01C1294.01 0 1294.01 83.6007 1294.01 118.445V751.37Z" fill="#EAFFFF"/>
<path d="M1003.31 175.652C1003.31 193.085 987.666 207.215 968.365 207.215H846.055C826.754 207.215 811.109 193.085 811.109 175.652H741.218C721.917 175.652 706.272 161.521 706.272 144.088C706.272 126.655 721.917 112.524 741.218 112.524H863.527C882.828 112.524 898.473 126.655 898.473 144.088H968.365C987.666 144.088 1003.31 158.219 1003.31 175.652Z" fill="#C5EAD4"/>
<path d="M543.162 136.868C543.162 210.954 476.668 271.013 394.643 271.013C312.618 271.013 246.125 210.953 246.125 136.868C246.125 62.783 312.62 2.72241 394.645 2.72241C476.669 2.72241 543.162 62.7816 543.162 136.868Z" fill="#FFFF81"/>
<path d="M473.709 137.262C473.709 176.484 438.507 208.28 395.081 208.28C351.655 208.28 316.453 176.485 316.453 137.262C316.453 98.0389 351.655 66.244 395.081 66.244C438.507 66.244 473.709 98.0389 473.709 137.262Z" fill="#FFF145"/>
<path d="M1294 755C1294 755 1268.91 755 1237.96 755H5.00005L5 549.837H1294V755Z" fill="#BBF260"/>
<path d="M456.062 479.871C456.062 534.571 406.968 578.916 346.404 578.916H51C-9.56226 578.916 6.00485 534.573 6.00485 479.871C6.00485 442.201 0.222885 409.448 34.5 392.701C30.0166 381.893 17.433 370.194 17.433 357.97C17.433 320.301 40.7167 287.547 74.9938 270.801C70.5104 259.992 68.0442 248.293 68.0442 236.069C68.0442 181.368 117.14 137.025 177.703 137.025H245.185C305.747 137.025 354.842 181.368 354.842 236.069C354.842 248.293 352.376 259.992 347.892 270.801C382.169 287.549 405.453 320.302 405.453 357.97C405.453 370.194 402.987 381.893 398.503 392.701C432.777 409.447 456.062 442.203 456.062 479.871Z" fill="#2F8F3D"/>
<path d="M1293.62 474.124V593.474L1092.68 553.032H996.583C948.332 553.032 909.219 517.703 909.219 474.124C909.219 435.95 939.234 404.108 979.11 396.796V355.761C979.11 299.107 1029.96 253.179 1092.68 253.179C1155.41 253.179 1206.26 299.106 1206.26 355.761V395.215C1254.5 395.214 1293.62 430.545 1293.62 474.124Z" fill="#7F932A"/>
<path d="M718.154 672.145C718.154 678.682 712.286 683.982 705.049 683.982H687.577C680.34 683.982 674.472 678.682 674.472 672.145C674.472 665.609 680.34 660.309 687.577 660.309H705.049C712.286 660.309 718.154 665.609 718.154 672.145ZM546.701 707.655H512.847C505.611 707.655 499.743 712.955 499.743 719.492C499.743 726.028 505.611 731.328 512.847 731.328H546.701C553.938 731.328 559.806 726.028 559.806 719.492C559.806 712.954 553.939 707.655 546.701 707.655Z" fill="#7F932A"/>
<path d="M891.527 478.745C891.527 483.726 886.515 552 881 552H727H628H487.5C481.985 552 472.18 483.726 472.18 478.745C472.18 437.094 496.25 400.541 532.491 379.746C537.488 319.122 593.488 271.328 661.885 271.328C724.273 271.328 776.363 311.092 788.829 364.087C847.503 375.346 891.527 422.393 891.527 478.745Z" fill="#9FBA41"/>
<path d="M1238.76 501.426V582.584L1099.06 555.084H1032.25C998.702 555.084 971.509 531.06 971.509 501.426C971.509 475.468 992.377 453.816 1020.1 448.843V420.939C1020.1 382.415 1055.45 351.184 1099.06 351.184C1142.67 351.184 1178.02 382.414 1178.02 420.939V447.768C1211.56 447.767 1238.76 471.793 1238.76 501.426Z" fill="#B0C944"/>
<path d="M383.767 500.037C383.767 543.621 350.177 578.954 308.739 578.954H118.285C76.8488 578.954 75.8382 543.622 75.8382 500.037C75.8382 470.022 64.9599 443.925 88.4123 430.581C85.3448 421.969 83.6574 412.648 83.6574 402.908C83.6574 372.894 99.588 346.797 123.04 333.453C119.973 324.841 118.285 315.519 118.285 305.78C118.285 262.195 151.877 226.863 193.314 226.863H239.485C280.922 226.863 314.512 262.195 314.512 305.78C314.512 315.519 312.825 324.841 309.757 333.453C333.21 346.798 349.14 372.895 349.14 402.908C349.14 412.648 347.453 421.969 344.385 430.581C367.836 443.924 383.767 470.023 383.767 500.037Z" fill="#1FAB34"/>
<path d="M424.347 745.536C424.347 750.517 419.878 754.553 414.363 754.553H264.597H164.752H14.9841C9.46929 754.553 5 750.517 5 745.536C5 703.885 29.0701 667.332 65.3111 646.537C70.3078 585.913 126.308 538.119 194.705 538.119C257.093 538.119 309.183 577.882 321.649 630.878C380.323 642.137 424.347 689.184 424.347 745.536Z" fill="#9FBA41"/>
<path d="M229.089 657.942C229.089 664.479 223.221 669.779 215.984 669.779C199.124 669.779 185.407 682.168 185.407 697.397C185.407 703.933 179.539 709.233 172.302 709.233C165.066 709.233 159.198 703.933 159.198 697.397C159.198 682.168 145.48 669.779 128.621 669.779C121.384 669.779 115.516 664.479 115.516 657.942C115.516 651.406 121.384 646.106 128.621 646.106C146.165 646.106 161.879 653.331 172.302 664.657C182.726 653.331 198.44 646.106 215.984 646.106C223.223 646.107 229.089 651.406 229.089 657.942Z" fill="#748730"/>
</g>
<defs>
<filter id="filter0_d_294_2814" x="0.210205" y="0" width="1297.8" height="763" filterUnits="userSpaceOnUse" color-interpolation-filters="sRGB">
<feFlood flood-opacity="0" result="BackgroundImageFix"/>
<feColorMatrix in="SourceAlpha" type="matrix" values="0 0 0 0 0 0 0 0 0 0 0 0 0 0 0 0 0 0 127 0" result="hardAlpha"/>
<feOffset dy="4"/>
<feGaussianBlur stdDeviation="2"/>
<feComposite in2="hardAlpha" operator="out"/>
<feColorMatrix type="matrix" values="0 0 0 0 0 0 0 0 0 0 0 0 0 0 0 0 0 0 0.25 0"/>
<feBlend mode="normal" in2="BackgroundImageFix" result="effect1_dropShadow_294_2814"/>
<feBlend mode="normal" in="SourceGraphic" in2="effect1_dropShadow_294_2814" result="shape"/>
</filter>
</defs>
</svg>
