<svg width="1311" height="836" viewBox="0 0 1311 836" fill="none" xmlns="http://www.w3.org/2000/svg">
<g filter="url(#filter0_d_294_3018)">
<path d="M1306.04 824.019H7L7.00003 0H1306.04C1306.04 0 1306.04 91.6839 1306.04 129.897V824.019Z" fill="#EAFFFF"/>
<path d="M1013.07 192.635C1013.07 211.754 997.307 227.251 977.856 227.251H854.595C835.144 227.251 819.378 211.754 819.378 192.635H748.943C729.492 192.635 713.725 177.138 713.725 158.019C713.725 138.901 729.492 123.404 748.943 123.404H872.203C891.655 123.404 907.421 138.901 907.421 158.019H977.856C997.307 158.019 1013.07 173.516 1013.07 192.635Z" fill="#C5EAD4"/>
<path d="M549.347 150.101C549.347 231.351 482.336 297.217 399.673 297.217C317.01 297.217 250 231.35 250 150.101C250 68.8533 317.012 2.9856 399.674 2.9856C482.337 2.9856 549.347 68.8518 549.347 150.101Z" fill="#FFFF81"/>
<path d="M479.353 150.534C479.353 193.548 443.878 228.418 400.114 228.418C356.35 228.418 320.875 193.549 320.875 150.534C320.875 107.518 356.35 72.649 400.114 72.649C443.878 72.649 479.353 107.518 479.353 150.534Z" fill="#FFF145"/>
<path d="M1306.02 828C1306.02 828 1280.74 828 1249.54 828H7.00005L7 603H1306.02V828Z" fill="#BBF260"/>
<path d="M461.57 526.269C461.57 586.258 412.093 634.891 351.059 634.891H70.5344C9.50118 634.891 8.01262 586.26 8.01262 526.269C8.01262 484.957 -8.01032 449.037 26.5333 430.671C22.015 418.817 19.5297 405.987 19.5297 392.582C19.5297 351.27 42.9944 315.35 77.538 296.984C73.0197 285.13 70.5344 272.3 70.5344 258.895C70.5344 198.905 120.012 150.274 181.046 150.274H249.052C310.086 150.274 359.562 198.905 359.562 258.895C359.562 272.3 357.077 285.13 352.558 296.984C387.102 315.352 410.567 351.272 410.567 392.582C410.567 405.987 408.081 418.817 403.563 430.671C438.104 449.035 461.57 484.959 461.57 526.269Z" fill="#2F8F3D"/>
<path d="M1305.64 519.966V650.856L1103.14 606.504H1006.29C957.668 606.504 918.25 567.759 918.25 519.966C918.25 478.101 948.498 443.181 988.685 435.162V390.159C988.685 328.028 1039.93 277.659 1103.14 277.659C1166.35 277.659 1217.6 328.026 1217.6 390.159V433.428C1266.22 433.427 1305.64 472.174 1305.64 519.966Z" fill="#7F932A"/>
<path d="M725.699 737.134C725.699 744.303 719.786 750.115 712.493 750.115H694.885C687.591 750.115 681.678 744.303 681.678 737.134C681.678 729.966 687.591 724.153 694.885 724.153H712.493C719.786 724.153 725.699 729.966 725.699 737.134ZM552.913 776.077H518.797C511.503 776.077 505.59 781.89 505.59 789.058C505.59 796.227 511.503 802.039 518.797 802.039H552.913C560.206 802.039 566.12 796.227 566.12 789.058C566.12 781.888 560.208 776.077 552.913 776.077Z" fill="#7F932A"/>
<path d="M900.421 525.034C900.421 530.497 900.421 639.076 900.421 569V605H746.708H639.883H477.813C472.255 605 477.813 530.497 477.813 525.034C477.813 479.356 502.07 439.269 538.593 416.463C543.629 349.978 600.064 297.562 668.993 297.562C731.867 297.562 784.361 341.171 796.924 399.29C856.054 411.638 900.421 463.234 900.421 525.034Z" fill="#9FBA41"/>
<path d="M1250.35 549.909V638.913L1109.57 608.755H1042.24C1008.43 608.755 981.025 582.408 981.025 549.909C981.025 521.44 1002.05 497.695 1029.99 492.242V461.64C1029.99 419.391 1065.62 385.139 1109.57 385.139C1153.51 385.139 1189.14 419.389 1189.14 461.64V491.063C1222.94 491.062 1250.35 517.41 1250.35 549.909Z" fill="#B0C944"/>
<path d="M388.713 548.384C388.713 596.183 354.861 634.933 313.101 634.933H121.166C79.4075 634.933 78.3891 596.185 78.3891 548.384C78.3891 515.468 67.4262 486.848 91.0609 472.214C87.9695 462.769 86.269 452.546 86.269 441.865C86.269 408.949 102.324 380.328 125.958 365.694C122.867 356.249 121.166 346.027 121.166 335.345C121.166 287.546 155.019 248.798 196.778 248.798H243.308C285.067 248.798 318.919 287.546 318.919 335.345C318.919 346.027 317.218 356.249 314.127 365.694C337.762 380.329 353.816 408.95 353.816 441.865C353.816 452.546 352.116 462.769 349.024 472.214C372.657 486.846 388.713 515.469 388.713 548.384Z" fill="#1FAB34"/>
<path d="M429.608 817.62C429.608 823.083 425.104 827.51 419.546 827.51H268.616H167.994H17.0617C11.504 827.51 7 823.083 7 817.62C7 771.943 31.2573 731.855 67.7801 709.05C72.8157 642.565 129.251 590.149 198.181 590.149C261.054 590.149 313.549 633.757 326.112 691.876C385.242 704.224 429.608 755.821 429.608 817.62Z" fill="#9FBA41"/>
<path d="M232.832 721.558C232.832 728.726 226.918 734.539 219.625 734.539C202.634 734.539 188.81 748.126 188.81 764.827C188.81 771.996 182.897 777.808 175.603 777.808C168.31 777.808 162.397 771.996 162.397 764.827C162.397 748.126 148.573 734.539 131.582 734.539C124.289 734.539 118.375 728.726 118.375 721.558C118.375 714.389 124.289 708.577 131.582 708.577C149.263 708.577 165.099 716.501 175.603 728.922C186.108 716.501 201.944 708.577 219.625 708.577C226.92 708.578 232.832 714.389 232.832 721.558Z" fill="#748730"/>
</g>
<defs>
<filter id="filter0_d_294_3018" x="0.301758" y="0" width="1309.74" height="836" filterUnits="userSpaceOnUse" color-interpolation-filters="sRGB">
<feFlood flood-opacity="0" result="BackgroundImageFix"/>
<feColorMatrix in="SourceAlpha" type="matrix" values="0 0 0 0 0 0 0 0 0 0 0 0 0 0 0 0 0 0 127 0" result="hardAlpha"/>
<feOffset dy="4"/>
<feGaussianBlur stdDeviation="2"/>
<feComposite in2="hardAlpha" operator="out"/>
<feColorMatrix type="matrix" values="0 0 0 0 0 0 0 0 0 0 0 0 0 0 0 0 0 0 0.25 0"/>
<feBlend mode="normal" in2="BackgroundImageFix" result="effect1_dropShadow_294_3018"/>
<feBlend mode="normal" in="SourceGraphic" in2="effect1_dropShadow_294_3018" result="shape"/>
</filter>
</defs>
</svg>
