<svg width="1282" height="774" viewBox="0 0 1282 774" fill="none" xmlns="http://www.w3.org/2000/svg">
<g clip-path="url(#clip0_294_3123)">
<rect width="1282" height="774" fill="white"/>
<path d="M1114.78 740.346H167.218C105.652 740.346 -3.98753 760.692 -3.98753 723.522V1.86951L1280.01 1.86952V723.522C1280 760.692 1176.35 740.346 1114.78 740.346Z" fill="#EAFFFF"/>
<path d="M934.086 163.587C934.086 253.933 855.979 327.174 759.63 327.174C663.281 327.174 585.174 253.933 585.174 163.587C585.174 73.2406 663.281 0 759.63 0C855.979 0 934.086 73.2406 934.086 163.587Z" fill="#FFFF81"/>
<path d="M844.365 159.848C844.365 203.73 806.429 239.304 759.63 239.304C712.832 239.304 674.894 203.732 674.894 159.848C674.894 115.964 712.83 80.3913 759.63 80.3913C806.429 80.3913 844.365 115.964 844.365 159.848Z" fill="#FFF145"/>
<path d="M1282 774H-7.62939e-06L-2.37305e-08 420.652H1282V774Z" fill="#FFED8F"/>
<path d="M1226.26 542.642C1226.26 549.611 1216.9 555.262 1205.36 555.262H1149.62C1138.08 555.262 1128.72 549.611 1128.72 542.642C1128.72 535.673 1138.08 530.022 1149.62 530.022H1205.36C1216.9 530.022 1226.26 535.671 1226.26 542.642ZM160.25 555.26C160.25 548.291 150.89 542.641 139.347 542.641H83.6079C72.0649 542.641 62.7053 548.291 62.7053 555.26C62.7053 562.229 72.0649 567.88 83.6079 567.88H139.347C150.89 567.88 160.25 562.231 160.25 555.26ZM250.826 609.945H111.479C99.9359 609.945 90.5763 615.596 90.5763 622.565C90.5763 629.534 99.9359 635.185 111.479 635.185H250.826C262.369 635.185 271.729 629.534 271.729 622.565C271.729 615.596 262.369 609.945 250.826 609.945ZM696.739 710.902H501.653C490.11 710.902 480.75 716.553 480.75 723.522C480.75 730.491 490.11 736.142 501.653 736.142H696.739C708.282 736.142 717.642 730.491 717.642 723.522C717.642 716.553 708.282 710.902 696.739 710.902ZM752.479 643.598H585.26C573.717 643.598 564.358 649.248 564.358 656.217C564.358 663.186 573.717 668.837 585.26 668.837H752.479C764.022 668.837 773.381 663.186 773.381 656.217C773.381 649.248 764.022 643.598 752.479 643.598Z" fill="#DDB961"/>
<path d="M1282 748.76C1282 762.698 1263.28 774 1240.19 774H1100.85C1077.76 774 1059.04 762.7 1059.04 748.76C1059.04 734.821 1077.76 723.521 1100.85 723.521H1240.19C1263.28 723.522 1282 734.822 1282 748.76ZM97.5447 723.522H41.8052C18.7167 723.522 0 734.822 0 748.76C0 762.698 18.7167 774 41.8052 774H97.5447C120.631 774 139.35 762.7 139.35 748.76C139.35 734.821 120.631 723.522 97.5447 723.522ZM376.239 656.217H348.371C325.285 656.217 306.566 667.517 306.566 681.457C306.566 695.395 325.282 706.697 348.371 706.697H376.239C399.325 706.697 418.045 695.397 418.045 681.457C418.045 667.517 399.325 656.217 376.239 656.217Z" fill="#CEA455"/>
<path d="M613.131 185.087V218.74H27.8685V185.087C27.8685 147.917 77.7788 117.783 139.347 117.783H501.653C563.219 117.783 613.131 147.917 613.131 185.087Z" fill="#9FBA41"/>
<path d="M1282 471.13H1188.36C1128.31 471.13 1075.54 495.163 1059.04 530.022C1042.55 564.881 989.774 588.914 929.728 588.914H686.709C626.66 588.914 573.89 564.881 557.395 530.022C540.899 495.163 488.124 471.13 428.08 471.13H0V218.74H1282V471.13Z" fill="#C5EAD4"/>
<path d="M1282 201.913V471.13H759.059C720.867 471.13 685.953 484.158 668.871 504.783C651.789 525.407 616.875 538.435 578.683 538.435H257.407C219.214 538.435 184.3 525.407 167.218 504.783C150.137 484.158 115.222 471.13 77.0302 471.13H0V336.522V201.914C0 192.622 12.477 185.089 27.8685 185.089H1254.13C1269.52 185.087 1282 192.62 1282 201.913Z" fill="#91C1A4"/>
<path d="M473.782 281.837H83.6079C72.0649 281.837 62.7053 276.186 62.7053 269.217C62.7053 262.248 72.0649 256.598 83.6079 256.598H473.782C485.325 256.598 494.684 262.248 494.684 269.217C494.684 276.186 485.327 281.837 473.782 281.837ZM696.739 256.598H585.261C573.718 256.598 564.358 262.248 564.358 269.217C564.358 276.186 573.718 281.837 585.261 281.837H696.739C708.282 281.837 717.642 276.186 717.642 269.217C717.642 262.248 708.282 256.598 696.739 256.598ZM975.434 265.01H1142.65C1154.2 265.01 1163.56 259.359 1163.56 252.39C1163.56 245.421 1154.2 239.771 1142.65 239.771H975.434C963.891 239.771 954.532 245.421 954.532 252.39C954.532 259.359 963.891 265.01 975.434 265.01ZM1198.39 323.902H780.347C768.804 323.902 759.445 329.553 759.445 336.522C759.445 343.491 768.804 349.142 780.347 349.142H1198.39C1209.94 349.142 1219.29 343.491 1219.29 336.522C1219.29 329.552 1209.94 323.902 1198.39 323.902ZM641 323.902H250.826C239.283 323.902 229.924 329.553 229.924 336.522C229.924 343.491 239.283 349.142 250.826 349.142H641C652.543 349.142 661.903 343.491 661.903 336.522C661.903 329.552 652.543 323.902 641 323.902ZM543.455 396.255H195.087C183.544 396.255 174.184 401.905 174.184 408.875C174.184 415.844 183.544 421.494 195.087 421.494H543.455C554.998 421.494 564.358 415.844 564.358 408.875C564.358 401.905 555.001 396.255 543.455 396.255ZM961.5 396.255H766.413C754.87 396.255 745.511 401.905 745.511 408.875C745.511 415.844 754.87 421.494 766.413 421.494H961.5C973.043 421.494 982.403 415.844 982.403 408.875C982.403 401.905 973.043 396.255 961.5 396.255Z" fill="#EAFFFF"/>
<path d="M924.988 542.52L948.861 573.246C950.542 575.409 953.789 576.908 957.546 577.254L1010.93 582.181C1020.39 583.055 1024.16 590.439 1017.32 594.677L978.691 618.596C975.971 620.279 974.732 622.704 975.374 625.081L984.493 658.853C986.111 664.838 976.22 669.402 967.759 666.577L920.013 650.632C916.652 649.511 912.638 649.511 909.279 650.632L861.534 666.577C853.071 669.402 843.182 664.84 844.8 658.853L853.918 625.081C854.56 622.704 853.319 620.281 850.602 618.596L811.973 594.677C805.128 590.439 808.905 583.053 818.366 582.181L871.746 577.254C875.503 576.907 878.751 575.409 880.431 573.246L904.304 542.52C908.533 537.073 920.757 537.073 924.988 542.52Z" fill="#FF8950"/>
</g>
<defs>
<clipPath id="clip0_294_3123">
<rect width="1282" height="774" fill="white"/>
</clipPath>
</defs>
</svg>
