<svg width="1280" height="759" viewBox="0 0 1280 759" fill="none" xmlns="http://www.w3.org/2000/svg">
<g clip-path="url(#clip0_294_3137)">
<path d="M1280 759H-2.28882e-05L3.69011e-06 0H1280V759Z" fill="#A9D5BB"/>
<path d="M1280 74.2501V313.5V379.5V693C1280 729.449 1230.17 759 1168.69 759H111.305C49.8325 759 0 729.449 0 693V313.5V74.2501C0 33.2418 56.06 0 125.218 0C194.373 0 250.435 33.2418 250.435 74.2501V93.6001C273.393 76.7702 308.48 66.0004 347.827 66.0004C416.982 66.0004 473.045 99.2422 473.045 140.25V231C473.045 276.564 535.337 313.5 612.175 313.5H806.957V264V214.501V173.251C806.957 132.244 863.018 99.0006 932.175 99.0006C971.52 99.0006 1006.61 109.77 1029.57 126.6V74.2501C1029.56 33.2418 1085.63 0 1154.78 0C1223.94 0 1280 33.2418 1280 74.2501Z" fill="#7F932A"/>
<path d="M1280 759H0V528L895.801 503.25L1005.29 379.5H1196.52H1280V759Z" fill="#DBCB9C"/>
<path d="M973.437 394.821V438.429C973.437 510.679 909.657 569.25 830.982 569.25H0V264H830.982C909.657 264 973.437 322.571 973.437 394.821Z" fill="#A9A632"/>
<path d="M806.958 593.999L250.435 578.416L205.039 611.417L157.263 638.917L103.515 664.583C89.8673 673.577 0 687.198 0 675.101V305.25C0 264.243 56.06 231 125.218 231C194.372 231 250.435 264.242 250.435 305.25V357.6C273.393 340.77 308.48 330.001 347.828 330.001C416.983 330.001 473.045 363.242 473.045 404.251V412.5H667.828C744.668 412.5 806.958 449.438 806.958 495V593.999Z" fill="#606D11"/>
<path d="M786.964 196.924C786.964 271.763 721.089 332.432 639.827 332.432C558.566 332.432 492.691 271.763 492.691 196.924C492.691 122.086 558.568 61.4166 639.827 61.4166C721.087 61.4166 786.964 122.086 786.964 196.924Z" fill="#FFFF81"/>
<path d="M718.155 197.323C718.155 236.943 683.281 269.062 640.26 269.062C597.238 269.062 562.364 236.944 562.364 197.323C562.364 157.701 597.238 125.583 640.26 125.583C683.281 125.583 718.155 157.701 718.155 197.323Z" fill="#FFF145"/>
<path d="M819.852 264C925.014 264 1010.26 337.873 1010.26 428.999C1010.26 520.125 925.014 594 819.852 594H404.409C356.608 594 317.858 627.579 317.858 668.999V759H283.238C244.997 759 213.997 732.136 213.997 699V668.999C213.997 577.873 299.247 503.999 404.409 503.999H819.852C867.653 503.999 906.403 470.419 906.403 428.999C906.403 387.577 867.652 353.999 819.852 353.999H594.821C547.02 353.999 508.271 320.42 508.271 278.999V264H819.852Z" fill="#C5EAD4"/>
<path d="M975.396 651.75C975.396 665.418 956.158 676.5 932.425 676.5H875.131C851.401 676.5 832.16 665.419 832.16 651.75C832.16 638.082 851.398 626.999 875.131 626.999H932.425C956.155 627 975.396 638.082 975.396 651.75ZM1190.25 659.999H1132.95C1109.22 659.999 1089.98 671.08 1089.98 684.75C1089.98 698.418 1109.22 709.5 1132.95 709.5H1190.25C1213.98 709.5 1233.22 698.419 1233.22 684.75C1233.22 671.082 1213.98 659.999 1190.25 659.999ZM602.985 561H459.751C380.644 561 316.516 597.938 316.516 643.5V759H688.928C720.572 759 746.222 744.226 746.222 726V643.5C746.219 597.936 682.092 561 602.985 561Z" fill="#BCAE8A"/>
<path d="M1256.11 589.417C1256.11 603.085 1239.04 614.167 1217.98 614.167H1065.47C1044.41 614.167 1027.34 603.086 1027.34 589.417C1027.34 575.749 1044.41 564.667 1065.47 564.667H1217.98C1239.04 564.668 1256.11 575.749 1256.11 589.417ZM417.276 647.168H366.437C310.284 647.168 264.759 676.716 264.759 713.167V729.667C264.759 747.893 287.519 762.667 315.598 762.667H468.115C496.193 762.667 518.954 747.893 518.954 729.667V713.167C518.954 676.716 473.429 647.168 417.276 647.168Z" fill="#998C6E"/>
</g>
<defs>
<clipPath id="clip0_294_3137">
<rect width="1280" height="759" fill="white"/>
</clipPath>
</defs>
</svg>
