<svg width="41" height="40" viewBox="0 0 41 40" fill="none" xmlns="http://www.w3.org/2000/svg">
<rect x="3" y="2" width="37" height="37" rx="11" stroke="#2B640B" stroke-width="2"/>
<path d="M11.1667 12.75H31.8334M26.6667 12.75L26.3172 11.7013C25.9784 10.6849 25.8089 10.1768 25.4948 9.8011C25.2173 9.46933 24.8611 9.21254 24.4586 9.05426C24.0028 8.875 23.4672 8.875 22.3959 8.875H20.6041C19.5328 8.875 18.9973 8.875 18.5415 9.05426C18.139 9.21254 17.7827 9.46933 17.5053 9.8011C17.1911 10.1768 17.0217 10.6849 16.6829 11.7013L16.3334 12.75M29.25 12.75V25.925C29.25 28.0953 29.25 29.1803 28.8276 30.0092C28.4562 30.7384 27.8634 31.3311 27.1343 31.7026C26.3053 32.125 25.2203 32.125 23.05 32.125H19.95C17.7798 32.125 16.6947 32.125 15.8658 31.7026C15.1367 31.3311 14.5439 30.7384 14.1724 30.0092C13.75 29.1803 13.75 28.0953 13.75 25.925V12.75M24.0834 17.9167V26.9583M18.9167 17.9167V26.9583" stroke="#2B640B" stroke-width="3" stroke-linecap="round" stroke-linejoin="round"/>
</svg>
