<?xml version="1.0" encoding="UTF-8"?>
<svg id="zoo" xmlns="http://www.w3.org/2000/svg" xmlns:xlink="http://www.w3.org/1999/xlink" viewBox="0 0 132 132">
  <defs>
    <style>
      .cls-1 {
        fill: #ffd1a1;
      }

      .cls-2 {
        fill: #f6f6f6;
      }

      .cls-3, .cls-4 {
        fill: none;
      }

      .cls-5 {
        fill: #b17f4a;
      }

      .cls-6 {
        fill: #fff48f;
      }

      .cls-7 {
        fill: #1d1d1b;
      }

      .cls-4 {
        stroke: #501a36;
        stroke-linecap: round;
        stroke-linejoin: round;
      }

      .cls-8 {
        fill: #ffb884;
      }

      .cls-9 {
        clip-path: url(#clippath);
      }
    </style>
    <clipPath id="clippath">
      <circle class="cls-3" cx="66" cy="66" r="63.91"/>
    </clipPath>
  </defs>
  <g id="camel">
    <g class="cls-9">
      <g>
        <rect class="cls-6" x="-43.79" y="-40" width="227.52" height="227.52"/>
        <g>
          <path class="cls-8" d="M72.7,28.7c-2-1.45-4.77.09-5.3,2.3s.69,5.53,3.45,5.12c1.97-.3,3.67-2.8,4.01-4.63.43-2.26-.88-4.57-3.17-5.03-4.23-.86-9,4.73-5.52,8.31,3.88,4,10.59-3.01,6.76-6.81-1.93-1.92-4.85-1.21-6.6.54s-2.71,4.26-3.01,6.78c-.15,1.23,1.27,2.66,2.5,2.5,3.05-.4,7.4-2.64,6.09-6.41s-6.41-3.05-8.01.02.38,7.77,4.29,6.88c3.32-.75,5.21-5.24,2.96-7.97-1.08-1.31-2.81-1.9-4.44-1.35-1.54.52-2.44,1.94-2.85,3.44-.89,3.25-.1,6.87,3.54,7.82,3.13.82,8.21-1.04,7.47-4.95-.56-2.92-4.14-4.64-6.76-3.16-2.96,1.67-2.86,6.28.03,7.96,1.41.82,3.37.79,4.92.48,1.84-.37,3.16-1.51,3.79-3.26.31-.85-.07-1.8-.64-2.43-.73-.81-1.71-1.19-2.79-1.19-1.77,0-2.66,1.59-2.41,3.16.28,1.76,1.67,3.23,3.41,3.62,1.97.43,4.07-.9,4.59-2.84.14-.52.15-1.13.04-1.65-.05-.24-.44-1.19-.44-1.19l-.17,1.21c.13-.14.27-.27.43-.38.34-.28.73-.53,1.1-.78,1.48-1.02,3.02-1.92,4.62-2.74,1.41-.73,1.64-2.87.51-3.93-.31-.29-.61-.57-.92-.86l-3.03,3.93c.77.45,1.6.8,2.46,1.04l.66-4.91-1.58-.07c-1.76-.08-3.3,2.24-2.16,3.76,1.38,1.83,3.77,2.71,5.85,1.37,1.9-1.22,2.49-4.06,1.11-5.88-.75-.99-1.89-1.56-3.12-1.02-1.15.5-1.76,1.71-1.45,2.95s.82,2.38,1.55,3.39c.83,1.15,2.84,1.9,3.93.51l.71-.91-4.18-1.1c.68,2.17,2.8,3.51,5.06,3.16,2.62-.41,4.53-3.54,2.38-5.69l-3.03,3.93c1.34.81,2.81.99,4.33.64l-2.43-4.18c-1.57,1.54-.83,4.23,1.29,4.81s3.44-1.46,4.89-2.55c.51-.38,1.6-1.58,1.94-.57.32.94-.81,1.91-1.51,2.37l3.67,2.82c.45-1.15.91-2.29,1.36-3.44.66-1.67-.98-3-2.41-3.16-2.35-.27-5.02.92-5.61,3.38s1.25,5.1,3.83,5.02c1.73-.05,2.71-1.55,2.41-3.16-.26-1.41-.94-2.56-1.84-3.66-1.07-1.3-3.13-.74-3.93.51-1.1,1.73-2.61,4.27-1.83,6.37.92,2.48,3.91,2.31,6.02,1.83,1.3-.3,2.12-1.82,1.75-3.08-.39-1.32-1.15-2.26-2.26-3.05-1.97-1.38-4.01.89-3.67,2.82.39,2.24,1.69,4.15,3.21,5.79s3.37,3.5,5.54,4.27c2.37.83,5.28.69,7.76.68,1.31,0,2.62-.05,3.92-.13.65-.04,1.3-.09,1.96-.15.33-.03.65-.07.98-.1.14-.01.61.03.44-.03l-1.1-.64c-.24-.21-.15-.54-.14-.06.01.34.09.69.12,1.02.06.65.11,1.29.14,1.94.06,1.46.04,2.92-.09,4.37-.02.28-.27,1.21.13.34.26-.58.13-.37-.4-.16-.57.22-1.15.44-1.73.64-1.21.41-2.48.8-3.77.87-2.35.12-4.59-.92-6.56-2.12-1.74-1.07-3.53-2.75-3.74-4.91l-1.84,2.41c1.8-.63,3.6-.59,5.48-.4s4.07.9,5.9.44c1.06-.27,1.66-.97,2.33-1.78.39-.46.1-.34.29-.31.32.05.44.67.46.93.07.8-.36,1.54-.76,2.19l2.16-1.24c-4.35.08-8.51-1.02-12.24-3.26l-2.52,4.32c2.39,1.41,4.82,2.78,7.33,3.95,1.33.62,2.68.85,3.98,0,1.23-.79,1.67-2.25,2.19-3.53.55-1.35.86-2.88-.17-4.1s-2.79-1.55-4.1-.59c-1.4,1.03-1.38,2.86-.4,4.18s2.45,1.66,3.95,1.36l-1.93-4.57c-1.19.82-2.12,1.74-2.96,2.91-1.58,2.19,1.4,4.44,3.42,3.42l1.3-.66c1.34-.68,1.72-2.94.51-3.93-1.44-1.17-2.92-2.26-4.51-3.21-.76-.46-1.55-.89-2.35-1.28-.75-.37-1.67-.6-2.35-1.08-1.02-.72-1.71-2.48-2.19-3.6-.68-1.59-1.09-3.31-1.33-5.02l-4.82,1.33c.93,2.34,2.01,4.6,3.32,6.76.7,1.16,2.24,1.59,3.42.9,1.28-.75,1.44-2.18.9-3.42l-.35-.8c-.54-1.24-2.35-1.52-3.42-.9-1.28.75-1.44,2.18-.9,3.42l.35.8,4.32-2.52c-1.08-1.78-2.04-3.63-2.81-5.57-1.21-3.02-5.27-1.86-4.82,1.33.51,3.64,1.94,7.75,4.46,10.51,1.27,1.39,3.28,1.91,4.9,2.8s3.21,1.92,4.66,3.1l.51-3.93-1.3.66,3.42,3.42c.31-.43.73-.81,1.16-1.11,2.35-1.61.9-5.15-1.93-4.57l1.56.73-.64,2.43.15-.15-1.1.64.21-.04h-1.33l-.18-.07-.9-.9-.07-.04v-1.33c-.14.72-.76,1.49-.82,2.2-.35.6.16.49,1.53-.31-.28-.14-.55-.27-.83-.41-.41-.21-.83-.42-1.24-.63-1.78-.92-3.53-1.89-5.26-2.91-2.78-1.64-5.28,2.66-2.52,4.32s5.54,2.76,8.55,3.37c1.55.31,3.13.51,4.71.57.8.03,1.72.11,2.47-.21.91-.38,1.39-1.25,1.78-2.11,1.32-2.86,1.15-6.44-1.52-8.48-1.24-.95-2.91-1.33-4.43-.93-.73.19-1.43.54-2,1.04-.53.46-.87,1.21-1.36,1.6l1.1-.64c-.65.23-1.92-.13-2.64-.22-.98-.13-1.95-.26-2.94-.34-2.06-.17-4.17-.05-6.13.64-.96.34-1.95,1.28-1.84,2.41.47,4.83,3.87,8.23,8.1,10.24,2.21,1.05,4.49,1.88,6.96,1.8s4.79-.81,7.05-1.69c1.13-.44,2.31-.81,3.07-1.82s.83-2.4.91-3.67c.18-2.57.05-5.15-.32-7.7-.16-1.11-.51-2.15-1.47-2.82-1.14-.8-2.3-.62-3.6-.49-2.52.24-5.06.33-7.59.26-1.26-.03-2.6,0-3.85-.24-1.05-.19-1.73-.86-2.49-1.56-1.62-1.48-3.24-3-3.63-5.25l-3.67,2.82s-.03.06-.03.06l1.75-3.08c-.45.1-1.07.17-1.37.07l1.1.64.02.05.34,1.26c-.06-.67.89-2.13,1.37-2.88l-3.93.51c.35.42.46.92.55,1.45l2.41-3.16c.38-.01,1.01.49,1.05.86.01.09-.27.82-.31.74-.05-.08,1.06-.01,1.04-.02l-2.41-3.16c-.45,1.15-.91,2.29-1.36,3.44-.81,2.04,1.94,3.95,3.67,2.82,3.47-2.26,5.69-6.97,2.41-10.45-1.51-1.6-3.72-2.08-5.74-1.24-.98.4-1.82,1.01-2.65,1.64-.42.32-.84.65-1.24,1-.21.19-.42.38-.63.57-.41.37-.41.39.02.08l1.93.25-.2-.1.9.9-.12-.19.34,1.26v-.21c-.25.59-.49,1.18-.74,1.77l.14-.14c1.84-1.81-.06-4.72-2.43-4.18-.26.06-.09.1-.47-.14-2.44-1.48-5.03,1.92-3.03,3.93l.18.18-.64-1.1.04.26v-1.33c.17-.49.5-.75.98-.78.17.06.17.06,0,0-.29-.09.28.15.36.43-.5-1.61-2.95-2.68-4.18-1.1l-.71.91,3.93.51c-.51-.71-.84-1.35-1.05-2.2l-4.57,1.93c.35.47,0-.16.19-.52.34-.65,1.11-.52,1.49-.01l-2.16,3.76,1.58.07c2.85.13,3.35-4.17.66-4.91-.47-.13-.84-.28-1.27-.54-2.42-1.41-5.13,1.95-3.03,3.93.31.29.61.57.92.86l.51-3.93c-2.3,1.18-4.57,2.54-6.58,4.18-.97.79-1.78,1.91-1.8,3.21,0,.47.11,1.73.55,2.02.19.44.45.21.78-.67.26-.83.52-1.07.8-.71.08.11.11.14.08.08-.04-.11-.06-.23-.06-.35l-2.41,3.16-.75-.27-.64-2.43c.18-.51.5-.38-.14-.26-.26.05-.67-.06-.95.04-.57.19-.03-.1-.11.15,0,0,.07.18.07.21-.06.16-.06.16,0,0,.07-.2.04-.18-.08.08.25-.15-.66.53-.43.34-.38.31-.42-.24-.1.1-.06-.06-.31-.1-.28-.27l.35-1.3-.18.07c-.19-.03-.65.23-.88.27-.08.01-.64.12-.75.02-.42-.39.32-1.38.19-1.81-.21-.68.15,0,0-.11-.17.07-.36.11-.55.11-.38.21-.69.14-.94-.21-.17-.04-.1-.14-.31.13,0,0,1.44.36,1.36.37.17-.02-.06-.28.05-.17l-.2.06-.92-.78.11-.99-.3.28c-.41.16-.74.45-1.19.51l2.5,2.5c.13-1.07.62-2.16,1.3-2.98.08-.09.54-.5.54-.53,0-.25,1.09.92-.31,0-.33-.22-.53-1.48-.92-.99-.02.02-.17.21-.17.21,0,.05,1.15.54,1.21.6.07.07,0,.5-.09.42s.89-.54.9-.57c.36-.08.24-.16-.38-.25l-.32-.28c-.33-.49-.06-.42-.09-.41.08-.01-.95,1.12-.73,1l1.26-.34h-.25c.59.23,1.18.47,1.77.72l-.2-.21.64,1.1c-.08-.21-.15-.43-.19-.66-.05-.84-.75-.54-2.11.9,1.09.79,2.79.19,3.42-.9.74-1.26.2-2.63-.9-3.42h0Z"/>
          <path class="cls-8" d="M72.5,40.27c-1.94-.04-3.77.99-4.66,2.73-.66,1.29-.25,2.59.9,3.42,1.61,1.16,3.49.34,4.55-1.07.99-1.32-.09-3.28-1.49-3.67-1.87-.52-3.76-.02-5.14,1.35-.78.78-.95,2.08-.39,3.03,1.08,1.83,3.42,2.49,5.26,1.35,1.5-.93,1.74-3.44,0-4.32s-3.57-.91-5.21.14c-1.77,1.13-1.55,4,.6,4.57,1.13.3,2.26.31,3.35-.13,2.57-1.06,2.28-4.68-.66-4.91l-1.41-.11c-1.22-.09-2.32,1.02-2.46,2.17-.16,1.32.6,2.27,1.79,2.74.37.15.73.21,1.12.28.19.03.38.06.57.1-.18-.12-.16-.11.06.06l-.9-.9c-.12-.78-.25-.87-.38-.26-.09.26-.16.53-.22.8-.14.62-.23,1.26-.27,1.89-.08,1.19.06,2.4.28,3.57.44,2.33,1.45,4.55,2.5,6.66s4.86,1.19,4.66-1.26c-.22-2.76-.45-5.51-.67-8.27-.1-1.24-.87-2.3-2.17-2.46-1.18-.14-2.46.56-2.74,1.79-1.27,5.57.24,11.34,4.07,15.57,1.8,1.99,4.62-.16,4.18-2.43-.69-3.6-1.85-7.04-3.35-10.39-.87-1.93-4.18-1.43-4.57.6-.96,4.95.25,9.71,3.32,13.68,1.59,2.05,4.82-.2,4.18-2.43s-1.28-4.47-1.92-6.71c-.6-2.09-1.08-3.97-2.95-5.28-1.69-1.18-3.62.44-3.76,2.16-.37,4.48,1.13,8.72,3.89,12.21.68.85,2.15.9,3.03.39.98-.57,1.41-1.74,1.15-2.82-.78-3.28-1.55-6.55-2.33-9.83-.64-2.69-5.16-2.18-4.91.66.49,5.55,1.93,10.84,4.35,15.85v-2.52c-.79,1.18-.93,2.67-.38,3.98.36.84,1.24,1.46,1.51,2.27.52,1.53-.76,3.31-1.99,4.04l1.93-.25c-.71-.27-1.47-.38-2.22-.36-1.24.03-2.31.93-2.46,2.17-.16,1.33.6,2.26,1.79,2.74,1.66.68,3.61.42,5.11-.54l-3.42-3.42c-1.45,2.88-1.42,6.26.36,9l.39-3.03c-2.21,2.31-4.42,5.91-2.08,8.96.98,1.28,3.5,1.94,4.32,0,.77-1.81,1.23-3.54,1.49-5.49.16-1.21-1.08-2.33-2.17-2.46-1.33-.16-2.25.61-2.74,1.79-.54,1.29-.91,2.6-1.13,3.98s.33,2.67,1.75,3.08c1.49.43,2.93.43,4.44.15l-3.16-2.41c-.31,2.77.45,5.64,2.09,7.89s5.33.98,4.57-1.93c-.19-.74-.39-1.47-.58-2.21-.74-2.82-4.75-2.08-4.91.66s.08,5.29.63,7.89c.26,1.24,1.86,2.19,3.08,1.75,1.93-.71,4.38-1.91,4.42-4.3s-2.23-3.45-4.27-3.49c-1.26-.03-2.62,1.17-2.5,2.5.31,3.39,3.39,4.94,6.56,4.78,1.73-.09,3.15-1.42,3.17-3.19s-1.11-2.95-2.59-3.59c-1.34-.58-3.35-.26-3.67,1.49s.37,3.24,1.95,4.15c1.41.81,3.28,1.36,4.88.89,2.98-.88,4.08-5.27,1.09-6.89-2.13-1.16-4.77,1.22-3.42,3.42,1.22,1.99,3.2,3.13,5.54,3.17,1.25.02,2.64-1.17,2.5-2.5-.16-1.53-.81-2.94-2.28-3.62-2.33-1.07-4.49,1.09-3.42,3.42.71,1.55,2.16,2.65,3.8,3.06s3.01-.79,3.16-2.41c.12-1.29-.21-2.44-.75-3.6-1.06-2.23-4.81-1.15-4.66,1.26.09,1.38.52,2.49,1.49,3.49,2.24,2.31,5.78-1.22,3.54-3.54-.12-.14-.13-.12-.03.05l-4.66,1.26c.16.35.11.7.07,1.07l3.16-2.41c-.5-.13-.59-.29-.81-.76l-3.42,3.42c.54.31.47.08-.2-.7l2.5-2.5c-.56-.01-.93-.21-1.23-.7l-3.42,3.42c-.65-.56-.85-1.12-.6-1.68.86-.35,1.06-.55.6-.6-.21-.06-.41-.12-.61-.2-.45-.3-.46-.19-.03.32v1.33l.06-.31-3.67,1.49c.17.06.33.14.49.22.55.33.42-.08-.4-1.22l.64-1.1-.19.19,1.1-.64c-.31.09-.71-.03-1.02-.07-.72-.09-.29-.3-.24.31l-2.5,2.5c.68.01-.09.09-.42-.51l-.34-1.26c-.07-.5.74-.76.07-.64-.24.04-.54.29-.78.38l3.08,1.75c-.46-2.17-.58-4.34-.45-6.56l-4.91.66c.19.74.39,1.47.58,2.21l4.57-1.93c-1.2-1.65-1.63-3.34-1.4-5.37.2-1.75-1.75-2.67-3.16-2.41-.64.12-1.18.03-1.78-.15l1.75,3.08c.22-1.38.6-2.69,1.13-3.98l-4.91-.66c-.13.99-.42,2.05-.81,2.97h4.32c-.77-1.01.58-2.14,1.3-2.9s1-2.09.39-3.03c-.78-1.2-1.03-2.63-.36-3.95,1.06-2.1-1.18-4.86-3.42-3.42-.52.33-.64.29-1.26.04l-.66,4.91c.76-.02,1.43.4,2.22.18.74-.2,1.44-.78,2.01-1.26,1-.84,1.78-1.95,2.31-3.14,1.14-2.59,1.24-6.06-.95-8.16-.07-.07-.17-.2-.22-.27.15.23-.02,1.25.35-.11.28-1-.23-1.86-.64-2.73-.57-1.23-1.05-2.49-1.47-3.77-.93-2.84-1.56-5.77-1.82-8.74l-4.91.66c.78,3.28,1.55,6.55,2.33,9.83l4.18-2.43c-1.94-2.46-2.68-5.6-2.43-8.68l-3.76,2.16c-.4-.28-.04-.07.03.17.08.31.19.61.28.92.25.88.5,1.76.75,2.64.5,1.76,1,3.51,1.51,5.27l4.18-2.43c-1.89-2.44-2.61-5.81-2.03-8.82l-4.57.6c1.32,2.94,2.23,6.04,2.84,9.19l4.18-2.43c-2.59-2.87-3.64-6.94-2.78-10.71l-4.91-.66c.22,2.76.45,5.51.67,8.27l4.66-1.26c-1.22-2.46-2.6-5.45-2.01-8.27.17-.78.56-1.48.61-2.29.06-.97-.2-1.91-.91-2.62-.98-.98-2.26-.86-3.45-1.33l-.66,4.91,1.41.11-.66-4.91c-.35.14-.39.21-.7.13l.6,4.57c.59-.38.02-.21.16-.14v-4.32c.64-.23,1.17-.08,1.58.45l-.39,3.03c.07-.07.09-.11.27-.06l-1.49-3.67-.16.21.9-.9.1-.08h1.33l.13.05.9,3.42c.04-.07.11-.36.24-.33.11.03-.86.06.11.08,3.22.07,3.22-4.93,0-5h0Z"/>
          <path class="cls-8" d="M90.52,64.56c-1.9,4.23-1.4,9.09,1.65,12.67,1.27,1.5,2.88,2.54,3.7,4.39.93,2.11,1.36,4.38,2.4,6.45l4.32-2.52c-1.09-1.46-2.27-2.36-3.94-3.06-1.54-.65-3.16.96-3.16,2.41-.02,2.86.36,5.58-.25,8.41s-1.7,5.33-3.27,7.69l4.57,1.93c1.05-3.77,2.07-7.61,2.17-11.54.09-3.64-.83-7.12-2.21-10.46s-2.9-6.38-4.03-9.71c-.3-.87-.57-1.74-.82-2.62-.19-.66-.79-1.94-.68-2.62.06-.37-.08.22.08-.05s.49-.52.72-.72c.25-.22.51-.4.8-.58.17-.11.35-.21.53-.3.44-.2.49-.24.15-.1l-1.26-.34.2.12-.9-.9-.03-1.33c-.08.13-.16.26-.26.38-.21.24-.33.53-.46.81-.38.82-.49,1.71-.17,2.57.58,1.58,2.14,2.26,3.67,1.49,2.87-1.42,5.74-2.85,8.6-4.27l-3.03-3.93c-.78.68-1.59,1.28-2.47,1.83-1.05.66-1.53,1.97-1.02,3.12.54,1.23,1.68,1.63,2.95,1.45,3.31-.49,5.41-3.24,8.29-4.62l-3.42-.9c2.12,3.54,6.57,5.98,10.72,4.66s6.35-6.72,2.87-9.99c-2.39-2.25-5.54,1.08-3.54,3.54.16.19.29.54.33.79.04.23-.01.47,0,.7.02.74-.84-.07.46-.24h1.33c.3.11-.28-.32-.28-.31-.3-.27-.63-.52-.95-.77-.57-.46-1.14-.93-1.71-1.39-1.86-1.52-4.84-.15-4.18,2.43.73,2.85,4.26,4.33,6.76,2.69,1.32-.86,1.71-2.76.51-3.93-1.36-1.31-2.99-2.25-4.83-2.69-3.13-.75-4.46,4.07-1.33,4.82,1.03.25,1.86.66,2.62,1.4l.51-3.93c-.56.37.45-.25.59.3l-4.18,2.43c2.27,1.85,5.96,5.99,8.61,2.37,1.85-2.53,1.13-5.95-.72-8.22l-3.54,3.54c.82.77-.35,1.7-1.43,1.79-1.79.15-3.42-1.04-4.31-2.52-.74-1.23-2.19-1.49-3.42-.9-2.45,1.17-4.33,3.71-7.1,4.12l1.93,4.57c1.23-.78,2.39-1.65,3.48-2.61,2.24-1.96-.61-5.13-3.03-3.93-2.87,1.42-5.74,2.85-8.6,4.27l3.67,1.49v.02c-.1.42-.22.84-.33,1.26.44-1.05,1.19-1.76,1.24-2.98s-.49-2.36-1.59-2.95c-2.17-1.18-4.9.82-6.43,2.25-1.97,1.84-2.36,3.8-1.73,6.35.57,2.3,1.3,4.56,2.16,6.76,1.63,4.17,3.91,8.14,4.86,12.54,1.02,4.75-.39,9.59-1.65,14.15-.78,2.82,3.03,4.23,4.57,1.93,1.79-2.68,3.11-5.73,3.78-8.89.34-1.59.55-3.22.59-4.85s-.18-3.26-.17-4.89l-3.16,2.41c.33.14.74.48.95.76,1.9,2.54,5.79.41,4.32-2.52-.84-1.67-1.2-3.53-1.89-5.25-.76-1.91-1.81-3.48-3.3-4.91-1.18-1.13-2.28-2.18-2.76-3.79-.43-1.45-.43-3.1.2-4.5.55-1.23.35-2.69-.9-3.42-1.07-.63-2.86-.34-3.42.9h0Z"/>
          <path class="cls-8" d="M91.42,44.36c-6.61,1.53-7.64,12.63-3.55,17.08,5.67,6.18,13.7-1.28,15.31-7.28,1.72-6.4-4.79-12.36-10.48-7.66s-3.85,14.69,4.12,14.54c6.55-.12,10.46-7.53,8.49-13.35-2.21-6.53-10.24-7.85-13.03-.99-2.25,5.54-.27,14.94,7.26,14.57,8.24-.4,9.18-10.25,7.02-16.29-1.05-2.96-2.85-6.45-6.03-7.52-3.43-1.14-7.27.76-9.65,3.17-4.47,4.54-5.32,14.36,2.9,15.19s9.68-8.46,7.09-14.08c-2.98-6.46-10.92-10.59-15.88-3.7-3.46,4.8-3.37,13.25,3.53,14.66,7.43,1.51,13.33-5.86,11.62-12.87-1.58-6.51-8.63-10.25-14.49-6.24-5.26,3.6-8.89,13.16-2.02,17.18,7.26,4.25,14.05-4.46,12.85-11.29-1.55-8.79-11.56-9.58-16.09-2.58-2.16,3.34-4.97,7.53-3.7,11.69,1.05,3.46,4.46,5.93,8.09,5.33,3.22-.53,6.17-3.99,7.78-6.66,2.41-4.01.53-8.28-1.05-12.21-1.02-2.56-3.28-4.21-6.15-3.49-8.22,2.05-17.14,18.7-5.74,22.33s12.92-13.65,5.1-18.42c-1.42-.87-3.64-.99-5.05,0-4.21,2.96-7.13,7.12-7.49,12.39-.42,6.19,2.94,8.99,8.27,11.17,2.36.96,5.71-1.06,6.15-3.49.9-4.95.32-9.33-2.11-13.77-1.39-2.53-4.44-2.89-6.84-1.79-5.53,2.53-4.94,8.07-4.58,13.18.44,6.09,2.48,9.9,6.84,14.16,3.18,3.12,8.36.75,8.54-3.54.22-5.14-.41-9.86-4.23-13.59-2.52-2.46-7.62-1.61-8.36,2.21-.81,4.19-2.17,8.45-1.47,12.75s3.01,7.24,5.62,10.39c1.92,2.32,6.6,1.77,7.85-1.01,2.76-6.17,2.23-12.71,2.26-19.34.02-6.04-7.8-6.26-9.82-1.33-2.43,5.93-3.07,12.26-2.88,18.63.14,4.89-.58,11.93,4.2,14.78,1.93,1.15,4.48.76,6.06-.78,4.58-4.45,1.31-15.17.29-20.68s-9.87-4.21-9.82,1.33-.1,11.2.16,16.78c.2,4.28,1.23,7.48,4.82,10.04,3.3,2.35,7.33-.87,7.52-4.32.24-4.28.08-8.45-.48-12.7-.39-2.91-2.92-6.07-6.33-4.82-10.88,3.98-7.27,16.77-5.1,25.53.86,3.48,5.89,5.07,8.36,2.21,5.81-6.74,3.27-14.29,1.37-22.1-1.13-4.65-8.66-4.89-9.64,0-1.5,7.49-4.03,19.11,5.94,21.55s8.03-12.33,7.61-17.98c-.26-3.52-4.14-6.57-7.52-4.32-3.58,2.38-2.83,5.79-2.49,9.62.38,4.41.48,8.97,2,13.16,1.32,3.63,7.15,5.43,9.14,1.19,3.65-7.78,2.41-15.26-.07-23.21-1.61-5.17-10.17-4.52-9.82,1.33.27,4.51.75,8.98,1.36,13.46.86,6.35,10.49,3.64,9.64-2.66-.48-3.59-.79-7.19-1-10.81-3.27.44-6.55.89-9.82,1.33,1.54,4.94,3.43,10.5,1.08,15.5,3.05.4,6.09.8,9.14,1.19-.82-2.27-1.12-4.46-1.33-6.86-.19-2.15-1.11-5.32-.82-7.39l-2.3,2.99.34-.23-7.52-4.32c.12,1.67,1.34,9.37.34,10.68l4.32-2.48c.38,1.3.52,1.31.41.02,0-.96.04-1.92.11-2.88.15-2.12.5-4.19.91-6.27h-9.64c.72,2.96,3.56,9.63,1.2,12.37,2.79.74,5.57,1.47,8.36,2.21-.34-1.38-3.23-12.73-1.89-13.22l-6.33-4.82c.57,4.25.72,8.42.48,12.7l7.52-4.32c-.26-.19.08-6.99.07-7.93-.03-3.42-.06-6.83-.1-10.25l-9.82,1.33c.81,4.39,1.84,9.41,1.44,13.88l1.46-3.54-.62.61c2.02-.26,4.04-.52,6.06-.78l-.78-.47,2.3,2.99c-2.15-7.46-1.12-17.59,1.77-24.63l-9.82-1.33c-.02,4.36.94,10.2-.89,14.29l7.85-1.01c-3.74-4.53-2.61-8.04-1.57-13.41l-8.36,2.21c1.81,1.76,1.39,4.2,1.3,6.52l8.54-3.54c-1.9-1.86-3.41-3.35-3.85-6.06-.06-.39-.59-5.5-.43-5.58l-6.84-1.79c1.08,1.97,1.52,3.81,1.11,6.06l6.15-3.49c-1.26-.51-1.15-.74-.63-2.29.42-1.26,1.14-2.21,2.24-2.98h-5.05c-.31.6-.39,1.21-.24,1.81l3.54-1.46c-.82-.3-.91-.29-.27.02l1.46,3.54c.05-2.09,1.62-6.25,3.86-6.81l-6.15-3.49c.32.79,1.98,4.94,2.08,4.44-.11.57-2,1.62-1.89,2.15l4.78,1.38c.43-.63.82-1.29,1.18-1.96,1.02-1.76,1.32-1.19-.39-1.61-2.07.12-1.85.28.66.47,1.15.77,1.97.7,2.48-.21.88.11-1.94-2.8.76,1.17,2.1,3.1.38.89,2.2-.02l-3.85.5c1.49.45,1.43,1.93,2.22,2.83,1.5,1.7,5,.24,7.1.44l-3.54-1.46c1.46,1.43,1.17,3.07,1.95,4.66-.1,1.7,1.13,2.24,3.71,1.64.47-1.58.3-1.89-.5-.92l-3.85.5c-2.5-.58-.6-.92-.49-.87l2.99,2.3-.8,1.45-3.85-.5c-.55-2.82-1.1-3.44-1.63-1.87-.43.45-.46.9-.07,1.38l2.99,2.3c-.47-.78-.59-1.6-.37-2.47.4-1.81-.15-1.62-1.67.58,6.27-1.45,3.61-11.1-2.66-9.64h0Z"/>
          <path class="cls-8" d="M19.69,44.41c-4.95.52-8.54,6.41-3.46,9.76,1.22.8,2.8.64,4.04,0,3.28-1.71,3.97-7.18.69-9.27-4.54-2.89-8.57,1.76-8.09,6.14.33,3.04,4.37,5.78,6.83,2.83,1.72-2.06,2.48-3.79,2.6-6.51.17-3.91-5.63-5.52-7.45-2.02-1.07,2.07-1.84,4.08-2.25,6.38-.49,2.75,1.78,6.02,4.92,4.92,2.61-.92,4.14-2.1,5.72-4.37,2.73-3.94-3.04-7.65-6.28-4.85-1.18,1.02-1.58,1.53-2.24,2.95-1.78,3.84,3.01,8.46,6.28,4.85,1-1.1,1.58-1.85,2.28-3.16l-4.52,1.84c4.42,1.8,7.62-2.77,5.53-6.66l-.63,4.85c-.74.5-.57.5.5,0l-3.08-7.31-.81.55c-3.78,2.55-1.43,8.25,3.08,7.31,1.2-.25,2.02-.75,2.85-1.64,2.79-2.93,0-7.6-3.89-6.69l-.8.08,3.45,6.02c.55-.94,1.15-1.85,1.81-2.72l-6.91-4.04c-1.59,3.71-6.02,5.98-8.29,9.43-2.58,3.93-4.76,8.98-5.52,13.61-1.62,9.96,6.42,15.61,15.32,16.82,5.03.68,7.21-7.02,2.13-7.71-3.17-.43-7.56-.99-9.21-4.19s.89-8.17,2.26-11.02,3.02-5.09,5.36-7.15c2.01-1.76,3.79-3.25,4.86-5.75,2.01-4.7-3.87-8.3-6.91-4.04-.66.87-1.27,1.77-1.81,2.72-1.61,2.59.48,6.04,3.45,6.02,1.04,0,1.92-.13,2.93-.37l-3.89-6.69.68-.42,3.08,7.31.81-.55c3.52-2.37,1.42-8.98-3.08-7.31-1.5.56-2.83.99-4.04,2.06-1.35,1.2-1.43,3.35-.63,4.85l.28.52-.4-3.08-.09.39,1.84-2.39-.39.19,3.08-.4-.81-.33c-1.56-.63-3.76.41-4.52,1.84l-1.03,1.54,6.28,4.85.99-1.33-6.28-4.85-.94.7,4.92,4.92c.3-1.68.64-2.93,1.44-4.47l-7.45-2.02-.25.86,6.83,2.83-.02-1.25-1.84,2.39.94-.68-3.08.4,1.01.31-2.79-2.79,1.15-2.15h4.04l-.36-.24,1.84,2.39-.16,1.92-2.83,1.17.94-.1c5.07-.53,5.12-8.54,0-8h0Z"/>
          <path class="cls-8" d="M32.48,59.01c-.95,4.2-1.53,8.16-.23,12.34,1.08,3.48,7.01,4.12,7.71,0,1.05-6.12,1.43-12.18.96-18.38-.22-2.95-3.25-5.07-6.02-3.45-5.27,3.08-4.85,13.49-4.62,18.68s7.49,5.06,8,0,.71-10.16,1.78-15.07-6.28-7.11-7.71-2.13c-1.75,6.08-3.5,12.16-5.24,18.23-1.61,5.6-3.78,11.27-4,17.14-.17,4.44,6.98,5.54,7.86,1.06s1.96-8.77,3.39-13.04c1.27-3.79,2.58-6.94,1.46-10.93s-6.31-3.44-7.71,0c-2.8,6.86-5.2,13.84-7.21,20.97-1.4,4.97,6.21,7.04,7.71,2.13,2.26-7.41,4.98-14.6,8.44-21.54l-6.91-4.04c-4.61,9.56-8.87,19.07-9.89,29.76-.42,4.45,7.06,5.5,7.86,1.06l.98-5.45c.93-5.14-5.79-6.87-7.71-2.13s-2.94,9.74-3.19,14.91c-.22,4.57,6.64,5.34,7.86,1.06.67-2.37,1.01-4.69,1.08-7.15.11-3.74-5.83-5.75-7.45-2.02-2.6,5.98-1.12,11.57,4.03,15.53,1.93,1.48,5.5-.03,5.88-2.39,1.27-7.89,3.66-14.43,7.27-21.54,3.25-6.4,5.96-12.92,5.51-20.24l-7.86,1.06c1.4,3.78,2.8,7.57,4.2,11.35,1.76,4.76,8.99,2.95,7.71-2.13-1.17-4.65-2.34-9.29-3.51-13.94l-7.71,2.13c1.5,3.81,2.99,7.63,4.51,11.44.95,2.4,1.63,4.54,4.39,5.21,7.2,1.75,6.27-7.12,9.59-10.27l-6.69-3.89c-.69,1.93-1.38,3.85-2.07,5.78-1.75,4.9,5.86,6.83,7.71,2.13,1.73-4.39,3.9-10.57,7.44-13.89l-3.89,1.03c-2.42-.35.33,6.66.81,8.01.98,2.76,2.19,5.5,3.44,8.15,2.55,5.38,6.71,8.02,11.42,11.36l.96-7.31c-2.17.84-6.46-3.56-7.45-4.96-2.09-2.96-4.1-6.08-5.43-9.46-.98-2.51-4.56-4.32-6.69-1.77-1.63,1.96-2.46,3.65-2.29,6.27.34,5.11,8.34,5.15,8,0l-.06-.62-6.69-1.77c2.08,5.29,5.14,11.25,9.3,15.23,2.98,2.85,9.34,6.37,13.42,4.78,3.3-1.29,3.88-5.24.96-7.31-2.05-1.45-4.51-2.72-6.21-4.59-2.07-2.28-3.24-5.69-4.36-8.51-1.18-2.97-1.92-5.83-2.39-8.98-.29-1.98-.48-3.73-2.06-5.1-7.62-6.62-14.13,12.68-15.95,17.31l7.71,2.13c.69-1.93,1.38-3.85,2.07-5.78,1.41-3.94-3.96-6.47-6.69-3.89-1.28,1.22-2.07,2.46-2.73,4.11-.31.77-.51,1.55-.77,2.34-.11.44-.24.86-.41,1.28-.46.83-.29.92.5.27l3.45,1.98c-2.27-3.85-3.53-8.67-5.17-12.82-1.85-4.69-9-2.99-7.71,2.13,1.17,4.65,2.34,9.29,3.51,13.94l7.71-2.13c-1.4-3.78-2.8-7.57-4.2-11.35s-8.15-3.76-7.86,1.06c.48,7.78-3.49,14.13-6.81,20.85-2.99,6.06-4.62,12.14-5.68,18.8l5.88-2.39c-1.33-1.02-1.83-3.06-1.16-4.59l-7.45-2.02c-.05,1.78-.31,3.32-.8,5.03l7.86,1.06c.22-4.53,1.21-8.6,2.9-12.79l-7.71-2.13-.98,5.45,7.86,1.06c.87-9.18,4.84-17.53,8.79-25.72,2.22-4.6-4.6-8.67-6.91-4.04-3.76,7.55-6.78,15.38-9.24,23.45l7.71,2.13c2.01-7.13,4.41-14.11,7.21-20.97h-7.71c.82,2.94-1.72,7.32-2.54,10.1-.93,3.17-1.67,6.37-2.31,9.61l7.86,1.06c.21-5.63,2.69-11.45,4.24-16.84s3.15-10.94,4.72-16.41l-7.71-2.13c-1.23,5.62-1.49,11.48-2.07,17.2h8c-.09-2.06-.12-4.11.08-6.17.05-.57.53-5.57.58-5.6l-6.02-3.45c.41,5.47.26,10.84-.67,16.25h7.71c-.89-2.87-.42-5.22.23-8.09,1.14-5.01-6.57-7.15-7.71-2.13h0Z"/>
          <path class="cls-8" d="M27.12,96.47c-1.33,4.46-2.01,10.6.45,14.84,2.15,3.7,6.74,3.82,9.34.61,3.68-4.54,4.6-12.2,5.7-17.73,1.01-5.02,3.27-11.79.41-16.5-1.32-2.17-4.46-2.68-6.28-.81-5.68,5.81-8.92,14.24-10.46,22.11-.95,4.84-.85,15.09,7.28,12.43,3.16-1.03,5.29-4.49,7.12-7.05,2.37-3.33,4.3-6.95,5.73-10.78,1.78-4.8,5.08-15.48-1.58-17.89-11.43-4.13-22.35,27.51-9.71,30.56,6.58,1.58,11.41-6.31,14.46-10.8,4.65-6.84,7.53-14.55,7.88-22.84.1-2.36-1.93-3.73-4-4-8.17-1.05-13.36,9.88-15.89,16.07-2.73,6.68-5.28,15.64.38,21.49.96.99,2.56,1.45,3.89,1.03,5.28-1.67,9.48-4.97,12.63-9.51,3.38-4.87,6.68-12.17,7.25-18.09.42-4.38-3.09-8.89-7.86-7.35s-8.4,8.81-10.38,13.08c-2.19,4.72-5.22,11.88-3.72,17.17,1.15,4.09,5.87,8.07,10.12,6.47,10.48-3.92,21.46-17.11,19.17-28.65-.34-1.71-2.19-2.93-3.86-2.94-13.15-.04-27.34,17.24-19.44,29.71,3.62,5.71,11.18,2.2,15.94-.26,6.34-3.28,11.45-8.57,14.82-14.83.93-1.72.53-3.4-.63-4.85-1.91-2.39-5.16-5.52-8.53-5.38s-6.39,3.26-8.84,5.23c-6.4,5.18-6.14,12.24-4.71,19.95.3,1.59,2.23,3.07,3.86,2.94,3.34-.28,6.79.28,9.99-1,2.76-1.1,4.88-3.4,6.89-5.5s4.52-4.38,4.19-7.55c-.24-2.34-1.66-5.21-3.01-7.08-1.89-2.61-4.01-2.74-7.08-2.76s-6.8-.21-9.79.8c-6.33,2.14-7.42,8.72-7.01,14.58.16,2.23,1.71,3.9,4,4,3.69.16,8.48.45,11.87-1.32s5.25-5.81,7.27-8.76c.98-1.43.58-3.68-.63-4.85-2.01-1.96-4.17-3.58-6.64-4.94-1.81-1-4.47-.53-5.47,1.44-2.42,4.76-5.73,11.53-3.42,16.84,1.57,3.62,7.49,9.96,11.77,9.96,5.36,0,7.32-8.44,7.9-12.44.8-5.57-2.51-8.98-6.91-11.81-2.27-1.46-5.12.04-5.88,2.39-2.79,8.62-4.41,18.34,3.11,25.07,1.91,1.71,4.91,1.5,6.28-.81,4.37-7.33-.19-14.49-6.56-18.64-2.39-1.56-6.32.45-6.02,3.45.6,6.08,2.43,11.57,5.96,16.59,1.96,2.78,6.25,2.5,7.31-.96,1.93-6.27-2.58-9.53-5.99-14-1.06-1.4-2.69-2.41-4.52-1.84-9.66,3-1.63,13.6,2.3,17.92,1.68,1.85,5.12,1.41,6.28-.81,2.84-5.44,2.73-11.69-1.03-16.7-2.19-2.93-7.57-2.32-7.45,2.02.1,3.67.65,7.16,1.76,10.67.84,2.64,3.49,3.48,5.88,2.39,6.21-2.84,11.4-6.11,14.1-12.6,1.6-3.84-4.08-6.53-6.69-3.89-3.64,3.69-6.75,7.76-9.34,12.26-1.68,2.91,1.12,6.99,4.52,5.88,6.56-2.14,8.29-7.61,12.26-12.6l-6.28-4.85c-2.82,3.99-5.35,8.13-7.61,12.46-2,3.84,3.15,8.43,6.28,4.85,1.63-1.86,3.26-3.73,4.88-5.59,1.28-1.46,2.71-3.89,4.5-4.73l-5.47-5.47c-3.04,4.65-6.09,9.3-9.13,13.95-2.45,3.74,3.4,8.41,6.28,4.85s5.97-7.36,8.96-11.04l-6.28-4.85c-3.05,4.52-6.1,9.05-9.16,13.57l6.91,4.04c1.92-3.7,4-7.26,6.29-10.75l-6.91-4.04c-2.21,4.16-4.72,8.08-7.7,11.73l6.28,4.85c2.1-3.9,4.35-7.7,6.75-11.42l-6.91-4.04c-2.74,4.93-5.38,9.92-7.93,14.95l7.31,3.08c.72-1.84.95-3.49.85-5.46-.22-4.01-5.24-5.38-7.45-2.02-2.63,3.99-3.22,8.54-1.64,13.06,1.41,4.01,8.14,3.71,7.86-1.06-.15-2.58-.31-5.15-.46-7.73-.31-5.25-7.39-5.03-8,0-.54,4.48-1.08,8.95-1.62,13.43s6.99,5.47,7.86,1.06c1.28-6.51,2.22-12.85.53-19.37-1.2-4.62-7.43-3.22-7.86,1.06-.5,5.06-.83,10.13-1.01,15.21-.13,3.94,5.58,5.48,7.45,2.02l.76-1.41c2.45-4.53-4.45-8.57-6.91-4.04l-.76,1.41,7.45,2.02c.17-5.08.51-10.15,1.01-15.21l-7.86,1.06c1.33,5.1.47,10.03-.53,15.12l7.86,1.06c.54-4.48,1.08-8.95,1.62-13.43h-8c.15,2.58.31,5.15.46,7.73l7.86-1.06c-.92-2.62-.72-4.55.83-6.89l-7.45-2.02c.22,1.19.03,2.3-.56,3.33-1.64,4.21,5.28,7.1,7.31,3.08,2.55-5.04,5.19-10.02,7.93-14.95,2.51-4.53-4.12-8.35-6.91-4.04-2.41,3.72-4.65,7.52-6.75,11.42s3.29,8.52,6.28,4.85c3.42-4.19,6.42-8.57,8.95-13.35s-4.08-8.34-6.91-4.04c-2.29,3.48-4.37,7.05-6.29,10.75-2.38,4.6,4.03,8.3,6.91,4.04,3.05-4.52,6.1-9.05,9.16-13.57,2.51-3.71-3.4-8.39-6.28-4.85-2.99,3.68-5.97,7.36-8.96,11.04l6.28,4.85c3.04-4.65,6.09-9.3,9.13-13.95,2.38-3.63-2.14-7.04-5.47-5.47-4.38,2.06-7.87,7.99-11,11.57l6.28,4.85c2.26-4.33,4.79-8.47,7.61-12.46,2.59-3.67-3.45-8.41-6.28-4.85-2.57,3.23-4.58,9.18-8.73,10.54l4.52,5.88c2.26-3.93,4.91-7.41,8.09-10.64l-6.69-3.89c-1.72,4.12-6.64,6.09-10.43,7.82l5.88,2.39c-.9-2.85-1.4-5.55-1.48-8.54l-7.45,2.02c2.01,2.68,2.65,5.52,1.03,8.62l6.28-.81c-1.07-1.17-2.08-2.37-2.98-3.68-.32-.45-.62-.91-.89-1.38-.41-1.2-1.06-1.02-1.95.52l-4.52-1.84c1.43,1.88,5.93,5.38,5.18,7.84l7.31-.96c-2.69-3.82-4.41-7.88-4.87-12.55l-6.02,3.45c2.59,1.68,5.64,4.41,3.69,7.69l6.28-.81c-5.25-4.7-2.92-11.5-1.05-17.29l-5.88,2.39c2.21,1.42,3.1,2.24,2.71,5.06-.13.91-.87,4.41-1.68,4.84h4.04c-2.36-1.1-6.36-4.28-6.45-7.15-.08-2.59,1.86-5.95,2.99-8.16l-5.47,1.44c1.88,1.04,3.47,2.19,5.02,3.69l-.63-4.85c-1.04,1.51-2.45,4.77-4.08,5.74-1.89,1.13-6.05.46-8.15.37l4,4c-.2-2.77-.74-6.03,2.49-7.14,1.99-.69,6.49-.52,8.49-.14l-2.39-1.84c.46.63,1.95,2.64,1.91,3.48-.04,1.03-2.06,2.64-2.66,3.21-3.33,3.13-5.87,2.58-10.02,2.93l3.86,2.94c-.44-2.38-1.34-7.02-.22-9.39,1.28-2.68,5.5-5.05,8.07-6.21l-3.08.4c1.84.54,2.81,1.78,3.93,3.18l-.63-4.85c-3.51,6.54-11.26,14.44-19.4,14.27l2.83,1.17c-6.78-6.18,6.15-18.04,12.16-18.03l-3.86-2.94c1.47,7.4-8.34,16.94-14.74,19.22l3.08.4c-4-2.02-1.37-7.28-.14-10.6.65-1.76,1.45-3.44,2.36-5.07.42-.76,4.2-5.61,4.09-6-2.02-1.18-3.04-.74-3.06,1.32-.37,1.16-.75,2.31-1.15,3.45-.71,1.95-1.48,3.87-2.48,5.69-2.18,3.97-5.17,7.22-9.57,8.61l3.89,1.03c-2.72-2.81-.05-9.22,1.1-12.23s4.81-12.18,8.76-11.67l-4-4c-.25,5.77-2.11,11.12-5.05,16.07-1.48,2.49-3.17,4.85-5.04,7.05.07-.09-2.36,2.21-1.6,2.4-.38-.1.43-4.47.49-4.76.34-1.57.82-3.13,1.49-4.59.56-1.23,2.06-2.67,2.31-3.88,1.04-.81.92-1.24-.38-1.29-1.33-.82-1.76-.24-1.3,1.73-.21,1.3-.55,2.59-.93,3.85-.82,2.74-2.03,5.31-3.48,7.77-1,1.69-3.48,6.58-5.59,6.9l3.08.4c.06.03.59-3.52.88-4.79.44-1.9.98-3.77,1.63-5.61,1.45-4.09,3.36-8.21,6.42-11.34l-6.28-.81c1.54,2.54-1.18,10.29-1.82,13.16-.54,2.43-1.56,10.94-3.82,12.01l3.08-.4c.93,1.07,1.18,1.08.77,0-.25-.92-.37-1.86-.34-2.82-.02-1.76.35-3.41.85-5.1,1.47-4.95-6.25-7.06-7.71-2.13h0Z"/>
          <path class="cls-8" d="M73.82,115.43c-4.76-1.18-6.17,3.05-5.94,6.89.2,3.2-.55,9.11,3.73,9.95,2.28.45,5.37-1.08,5.06-3.86-.26-2.37-.39-4.73-.38-7.12.01-5.16-7.86-5.14-8,0-.09,3.45,0,6.84.89,10.19.99,3.68,6.88,3.94,7.71,0,.59-2.81,1.19-5.62,1.78-8.44h-7.71c.44,3.01.77,5.98.05,8.97-1.21,5.01,6.22,7.06,7.71,2.13.99-3.26,1.51-6.3.8-9.67-.53-2.51-3.78-3.69-5.88-2.39s-2.32,2.74-2.64,4.96c-.38,2.65-1.04,5.18-1.93,7.71l7.86,1.06c.16-2.61.46-5.17.97-7.74.99-5.03-6.72-7.18-7.71-2.13-.64,3.26-1.05,6.55-1.26,9.87-.29,4.73,6.44,5.11,7.86,1.06,1.16-3.3,1.38-6.7,2.31-10.02l-1.84,2.39.42-.26-5.88-2.39c.39,1.85-.27,3.66-.8,5.42l7.71,2.13c1.08-4.46.61-8.73-.05-13.22-.58-3.94-6.93-3.69-7.71,0-.59,2.81-1.19,5.62-1.78,8.44h7.71c-.72-2.68-.68-5.31-.61-8.06h-8c0,2.39.12,4.74.38,7.12l5.06-3.86-.29-.06,2.79,2.79c-.59-1.49-.7-5.21-.48-6.77l-1.84,2.39.4-.29-3.08.4.44.11c5,1.24,7.13-6.47,2.13-7.71h0Z"/>
          <path class="cls-8" d="M41.95,107.98l.04-.1c.81-2.18-.93-4.18-2.79-4.92l-.13-.05c-2.5-.99-5.02,1.5-5.06,3.86-.1,5.04,6.41,8.51,10.4,9.9,4.65,1.61,12.03,2.13,15.47-2.2,1.2-1.51,1.49-3.09.63-4.85-2.86-5.84-21.47-6.77-18.96,2.43,1.04,3.83,6.16,5.56,9.64,5.95,5.76.65,11.04-1.69,16.12-4.09,2.88-1.36,2.31-5.4,0-6.91-5.78-3.76-13.61-.7-19.09,2.21-2.56,1.36-2.66,5.58,0,6.91,8.11,4.04,13.99,3.72,21.22-1.86,4.02-3.1.04-10.06-4.04-6.91-4.64,3.58-7.52,4.67-13.15,1.86v6.91c2.67-1.42,8.03-4.15,11.01-2.21v-6.91c-2.59,1.22-5.22,2.5-8.08,2.94-1.2.19-2.26.26-3.46.05-.77-.14-2.8-1.33-2.55-.34l-.4,3.08c-.17.3,5.16,1.64,4.81.93l.63-4.85c-1.47,1.85-5.13.99-6.95.41-.55-.17-5.26-2.41-5.26-2.45l-5.06,3.86.13.05-2.79-4.92-.04.1c-1.79,4.84,5.94,6.92,7.71,2.13h0Z"/>
          <path class="cls-8" d="M42.33,114.62l.35.2-1.84-2.39c.53,1.74-2.86,4.34-3.95,5.34-2.99,2.75.14,7.72,3.89,6.69,4.69-1.29,7.35-4.88,7.72-9.65.26-3.37-3.52-4.52-6.02-3.45-3.69,1.57-7.07,6.27-5.01,10.32,2.55,5,8.06,2.1,10.72-1.09,2.28-2.74.22-8.22-3.89-6.69-4.27,1.59-8.19,5.35-5.68,10.07.62,1.16,2.12,2.08,3.45,1.98,5-.36,7.7-5.88,9.18-10.09,1.19-3.39-3.01-6.17-5.88-4.52-3.72,2.15-10.32,9.29-3.85,12.55s10.22-5.68,6.22-10.12-13.79-5.3-14.67,2.13c-.74,6.21,5.57,11.4,11.22,8.53,1.83-.93,2.6-3.76,1.44-5.47-2.45-3.59-5.34-6.48-8.95-8.91-2.04-1.38-5.39-.05-5.88,2.39-.7,3.55.44,6.93,3.88,8.54,2.65,1.24,6.05-.2,6.02-3.45-.04-4.41-3.42-9.31-8.19-9.7-5.97-.5-5.58,6.35-5.48,10.27.12,5.17,7.71,5.12,8,0,.2-3.49,1.25-7.32-1.08-10.22-.92-1.15-2.58-1.26-3.89-1.03-4.46.8-6.26,8.21-6.85,11.86-.73,4.46,4.62,6.92,7.31,3.08,2.29-3.27,4.36-8.58.29-11.28-1.73-1.15-4.52-.41-5.47,1.44-1.06,2.06-1.87,4.13-2.4,6.39-1.01,4.32,5,7.13,7.31,3.08,2.19-3.84,1.98-8.03,1.42-12.3-.51-3.88-1.05-8.14-4.78-10.21s-7.04,1.96-5.47,5.47c2.26,5.08,5.3,11.39,5.12,17.05l7.86-1.06c-1.15-2.96-1.61-5.71-1.42-8.89.26-4.44-7.08-5.54-7.86-1.06-.6,3.46-1.2,6.92-1.8,10.38l7.86,1.06.29-3.54c.42-5.13-7.59-5.1-8,0l-.29,3.54c-.36,4.45,7.08,5.52,7.86,1.06.6-3.46,1.2-6.92,1.8-10.38l-7.86-1.06c-.23,3.82.32,7.45,1.71,11.02,1.59,4.07,7.71,3.69,7.86-1.06.23-7.21-3.34-14.63-6.22-21.09l-5.47,5.47c.91.51,1.05,5.14,1.12,5.96.15,1.93.36,3.86-.63,5.6l7.31,3.08c.39-1.65.81-2.95,1.6-4.48l-5.47,1.44.33.22-1.84-2.39c-.06-.4-1.44,2.2-1.65,2.51l7.31,3.08c.23-1.38.49-2.71.98-4.02.35-.91,1.78-2.51.28-2.24l-3.89-1.03.26.32-1.17-2.83c.17,2.29-.21,4.78-.34,7.08h8c.02-.84-.04-1.67-.18-2.5.17-1.51-.11-1.63-.85-.39l-3.08.4c.93.23,1.53.87,1.78,1.92l6.02-3.45-.2.5-5.88,2.39c2.43,1.64,4.43,3.61,6.08,6.04l1.44-5.47c1.06-.33,1.46-.09,1.18.71-.11,1.07-.04.82.2-.74l2.83-1.17.47.28,1.98,3.45c-.04-.32,2.34-1.72,2.48-1.81l-5.88-4.52c-.28.79-2.63,4.3-1.47,4.22l3.45,1.98-.41-.77.4,3.08c-.24-.33.06-.54.9-.63l-3.89-6.69c-.46.74-1.09,1.31-1.87,1.7l3.08.4-.6-.35,1.84,2.39c.45-.38.96-.65,1.53-.81l-6.02-3.45c-.1,1.15-.71,1.79-1.85,1.94l3.89,6.69c3.47-3.19,10.32-12,3.81-15.72-4.48-2.56-8.51,4.35-4.04,6.91h0Z"/>
          <path class="cls-8" d="M40.34,125.02l-.61-.99c-.91-1.49-3.07-.49-2.74,1.16l1.72,8.52c.38,1.91,3.21,1.08,2.89-.8-.67-3.94-1.72-7.78-3.15-11.51-.68-1.77-3.5-1.07-2.89.8,1.26,3.9,1.77,7.94,2.24,11.99.21,1.88,3.14,1.95,3,0-.27-3.63-.52-7.25-.31-10.89h-3l1.06,11.41c.18,1.89,3.04,1.96,3,0-.05-2.8.04-5.59.27-8.38h-3l.42,11.15h3c-.44-3.84-.88-7.67-1.32-11.51-.22-1.89-3.19-1.93-3,0,.6,6.04,1.22,12.1,2.5,18.04.35,1.64,3.06,1.3,2.95-.4-.22-3.35-.88-6.63-2.04-9.78-.58-1.58-2.85-1.34-2.95.4-.18,3.1.13,6.19.9,9.2.35,1.37,2.62,1.49,2.89,0,.41-2.22.38-4.37-.12-6.57-.33-1.48-2.5-1.38-2.89,0-.74,2.61-.58,5.27-.33,7.94.17,1.89,3.08,1.96,3,0-.03-.85-.16-1.66-.41-2.47-.42-1.37-2.52-1.48-2.89,0l-1.2,4.82c-.4,1.6,1.93,2.71,2.74,1.16.43-.83.76-1.67.96-2.59.31-1.44-1.39-2.53-2.51-1.46s-2.94,4.03-.74,5.04c.69.32,1.67.25,2.05-.54l.05-.1c.69-1.42-.68-2.65-2.05-2.05-1.99.87-2.51,4.16-.1,4.87,2.13.63,4.42-2.12,2.2-3.6-1.92-1.28-4.37.74-3.6,2.86.99,2.71,4.42,1.89,5.19-.48.16-.49-.01-1.11-.39-1.46-.49-.45-.95-.71-1.56-.94-.75-.28-1.66.32-1.85,1.05-.32,1.26-.28,2.68.65,3.69.8.87,2.16,1.13,3.23.64,1.2-.54,1.65-1.92,1.23-3.12-.47-1.33-1.74-1.9-3.01-2.22-1.05-.27-2.23.73-1.85,1.85.83,2.44,3.17,4.16,5.79,3.89.67-.07,1.25-.42,1.45-1.1.85-2.92-2.06-5.06-4.68-3.75-.95.48-.86,1.66-.3,2.36,1.71,2.15,4.41,4.21,7.16,2.46.87-.55.93-1.6.3-2.36-1.29-1.54-2.87-2.6-4.72-3.38-.69-.29-1.74.32-1.85,1.05-.48,3.22,2.51,5.56,5.49,4.01.7-.37.95-1.39.54-2.05-.8-1.28-5.13-7.72-6.51-3.92-.98,2.72,3.79,4.48,5.69,4.85,1.2.24,2.45-1.03,1.69-2.2-.82-1.27-1.76-2.45-2.82-3.54-1.36-1.38-3.45.72-2.12,2.12,1.65,1.74,3.41,3.38,5.26,4.9,1.09.9,2.95.09,2.51-1.46-.33-1.16-.93-2.15-1.83-2.95-1.21-1.07-3.34.32-2.36,1.82.78,1.19,1.79,1.96,3.14,2.4,1.53.5,2.37-1.45,1.46-2.51l-1.52-1.76-1.82,2.36,2.38,1.69c1.03.73,2.65-.5,2.2-1.69-.74-1.98-2.17-3.46-4.03-4.45-.99-.53-2.06-.92-3.13-1.28-.55-.19-1.1-.36-1.64-.55-.23-.08-.47-.21-.71-.28-.49-.15-.18-.49-.3.13l-2.51.66c1.21.97,2.34,2.01,3.39,3.15s2.86-.06,2.51-1.46-1.01-2.52-1.98-3.54l-1.82,2.36c.44.33.79.72,1.09,1.17l2.36-1.82-.3-.24c-1.48-1.21-3.62.9-2.12,2.12l.3.24c1.22,1,3.38-.29,2.36-1.82-.61-.9-1.3-1.6-2.17-2.25-1.4-1.05-2.95,1.17-1.82,2.36.62.65.98,1.34,1.21,2.21l2.51-1.46c-1.05-1.14-2.18-2.19-3.39-3.15-.8-.63-2.27-.56-2.51.66-.52,2.65,2.11,3.51,4.13,4.18s4.82,1.55,5.68,3.85l2.2-1.69-2.38-1.69c-1.47-1.04-2.86,1.14-1.82,2.36l1.52,1.76,1.46-2.51c-.58-.19-1.01-.51-1.35-1.02l-2.36,1.82c.54.48.86.94,1.06,1.63l2.51-1.46c-1.86-1.52-3.61-3.16-5.26-4.9l-2.12,2.12c.89.9,1.67,1.87,2.35,2.93l1.69-2.2c-.7-.14-1.39-.32-2.03-.64-.29-.14-.57-.3-.85-.48l-.32-.22c-.29-.37-.42-.32-.4.17l-1.05,1.05.17-.05-1.46-.39c1.31,1.2,2.42,2.52,3.36,4.03l.54-2.05c-.47.24-1.18.02-1.08-.63l-1.85,1.05c1.35.57,2.46,1.49,3.39,2.61l.3-2.36c-1.42.9-2.76-1.03-3.53-1.99l-.3,2.36c.35-.18.33.15.27.36l1.45-1.1c-1.26.13-2.47-.43-2.9-1.69l-1.85,1.85c.66.17,1.05.59,1.46-.3.14.14.15.08.05-.18,0-.21.02-.41.09-.6l-1.85,1.05.24.17-.39-1.46-.36.95-.44-1.06c.4-1,.81-1.02,1.23-.06.07.08.16.05.27-.1l-2.05-2.05-.05.1,2.05-.54c.62.28.15,1.38.74.4.17-.28.37-.49.61-.72l-2.51-1.46c-.14.67-.34,1.27-.65,1.87l2.74,1.16,1.2-4.82h-2.89c.17.56.28,1.09.3,1.67h3c-.22-2.39-.44-4.8.22-7.14h-2.89c.37,1.65.42,3.31.12,4.97h2.89c-.7-2.77-.95-5.56-.79-8.4l-2.95.4c1.06,2.9,1.73,5.9,1.93,8.98l2.95-.4c-1.22-5.69-1.81-11.47-2.39-17.25h-3c.44,3.84.88,7.67,1.32,11.51.21,1.87,3.07,1.97,3,0l-.42-11.15c-.07-1.95-2.84-1.91-3,0-.23,2.79-.32,5.58-.27,8.38h3l-1.06-11.41c-.18-1.91-2.89-1.95-3,0-.21,3.64.04,7.26.31,10.89h3c-.49-4.31-1-8.64-2.34-12.79l-2.89.8c1.43,3.73,2.48,7.57,3.15,11.51l2.89-.8-1.72-8.52-2.74,1.16.61.99c1.01,1.64,3.6.14,2.59-1.51h0Z"/>
          <path class="cls-8" d="M24.25,121.57c-.38,1.9-.54,3.8-.43,5.74s2.93,1.94,3,0c.05-1.6.11-3.2.16-4.81.04-1.21.08-2.67-1.22-3.26-2.9-1.31-3.49,3.74-3.42,5.46s2.46,2.05,2.95.4c.39-1.31.4-2.6.04-3.92-.28-1.05-1.75-1.51-2.51-.66-.96,1.08-1.49,2.39-1.3,3.85.17,1.31,2.05,2.25,2.8.76.82-1.63,1.04-3.28.7-5.07-.29-1.54-2.48-1.31-2.89,0-.44,1.41-.7,2.84-.82,4.31-.15,1.77,2.42,1.91,2.95.4.44-1.26.46-2.52.13-3.81-.42-1.67-2.9-1.27-2.95.4-.12,4.4.59,8.79,2.12,12.92.54,1.46,3.12,1.41,2.95-.4-.27-2.76-.84-5.44-1.76-8.05-.64-1.8-3.35-1.1-2.89.8,1.14,4.74,2.53,9.41,4.17,14.01.64,1.81,3.33,1.1,2.89-.8-1.11-4.88-1.68-9.84-1.7-14.85h-3c.09,4.14.33,8.27.74,12.39.15,1.58,2.52,2.16,2.95.4.52-2.16.6-4.38.73-6.59s.27-4.56.4-6.83h-3c.16,4.33.33,8.65.49,12.98h3c-.18-3.83-.33-7.67.07-11.49h-3c-.23,5.23-.46,10.47-.69,15.7h3c0-3.54-.51-7.04-1.04-10.54-.25-1.66-3.08-1.28-2.95.4.35,4.33.69,8.67,1.04,13l2.95-.4c-.39-2.31-.79-4.62-1.2-6.93-.33-1.88-.35-4.12-2.11-5.26-.88-.57-2.39.16-2.26,1.3.61,5.04,1.6,10,3.01,14.87.47,1.62,2.93,1.31,2.95-.4.02-1.85-.16-3.69-.52-5.51-.28-1.44-2.59-1.42-2.89,0-.41,1.94-.63,3.91-.64,5.9,0,1.14,1.28,1.87,2.26,1.3s1.39-1.57,1.07-2.66c-.26-.86-1.38-1.47-2.2-.9-2.2,1.52-2.09,3.97-1.42,6.3.35,1.2,2.11,1.52,2.74.36,1.3-2.39,1.8-5.61-1.3-6.78-.56-.21-1.44.13-1.69.69-1.23,2.69-.34,5.96,2.34,7.39.65.35,1.72.23,2.05-.54,1.12-2.57-.24-5.95-3.23-6.37-1.08-.15-2.19.63-1.85,1.85.38,1.36.14,2.78.89,4.05.65,1.09,1.92,1.72,3.18,1.46,1.15-.24,2.04-1.27,2.01-2.46-.03-1.37-1.08-2.38-2.11-3.12-.66-.48-1.67-.1-2.05.54-.56.94-.83,1.91-.9,3-.03.52.31,1.04.74,1.3,1.1.64,2.21,1.29,3.31,1.93,1.03.6,2.19-.18,2.26-1.3.12-1.85-1.16-3.53-2.98-3.9-1.06-.22-2.21.69-1.85,1.85.4,1.28.96,2.48,1.71,3.59s2.96.85,2.8-.76-.64-3.18-1.56-4.58l-2.59,1.51c.82,1.12,1.69,2.17,2.67,3.15.91.92,2.57.24,2.56-1.06-.01-1.53-.42-2.95-1.24-4.25l-2.05,2.05c.94.64,1.89,1.29,2.83,1.93.72.49,1.59.07,2.05-.54.97-1.29.43-3.35-1.05-3.99-.7-.3-1.44-.25-1.94.39-.41.54-.47,1.5.12,1.97,1.5,1.19,4.27,2.2,5.29-.21.31-.73.25-1.63-.54-2.05-.64-.34-1.28-.69-1.91-1.03-1.49-.8-3.02,1.11-1.82,2.36,1.38,1.43,3.29,2.57,5.2,1.36.76-.48,1.07-1.7.3-2.36-1.21-1.03-2.6-1.59-4.2-1.54-1.72.06-2,2.4-.4,2.95.91.31,1.83.46,2.78.49,1.56.06,1.94-2.02.76-2.8-2.21-1.44-4.36-2.96-6.45-4.57l-1.51,2.59,4.52,3.29c1.18.86,2.94-.87,2.05-2.05-1.81-2.4-3.62-4.8-5.43-7.2-.97-1.28-3.21-.61-2.74,1.16.5,1.85,1.41,3.47,2.7,4.88.63.69,1.92.54,2.36-.3,1.06-2.07.08-4.51-2.15-5.21-1.04-.33-2.23.77-1.85,1.85.66,1.85,1.45,3.64,2.4,5.35s3.43.2,2.59-1.51c-.88-1.81-2.23-3.16-4.35-2.84-.79.12-1.26,1.14-1.05,1.85.58,1.93,1.58,3.61,3,5.03,1.16,1.16,2.7-.08,2.51-1.46-.25-1.83-1.58-3.18-3.29-3.75-.73-.24-1.7.28-1.85,1.05-.17.86-.08,1.47.29,2.27.48,1.02,2.09.94,2.59,0s.32-1.92-.48-2.64c-.35-.31-.95-.64-1.44-.61-.38.03-.25-.11-.06.2-.1-.17-.11-.47-.19-.66-.36-.88-1.19-1.44-2.17-1.23-1.04.23-1.47,1.22-1.53,2.18-.13,1.97,2.76,1.86,3,0,.16-1.27.33-2.55.49-3.82.1-.74-.64-1.38-1.3-1.47-.8-.11-1.36.37-1.65,1.07-.59,1.44-1.18,2.87-1.78,4.31-.65,1.59,1.93,2.61,2.74,1.16,1.59-2.82,2.54-5.83,2.97-9.04l-2.95.4,1.34,4.2c.51,1.6,2.92,1.33,2.95-.4l.02-1.24-2.95.4.5,2.4c.39,1.89,3.29,1.09,2.89-.8l-.5-2.4c-.35-1.69-2.92-1.25-2.95.4l-.02,1.24,2.95-.4-1.34-4.2c-.55-1.72-2.73-1.22-2.95.4-.35,2.65-1.25,5.19-2.56,7.52l2.74,1.16c.59-1.44,1.18-2.87,1.78-4.31l-2.95-.4c-.16,1.27-.33,2.55-.49,3.82h3l.02.1-.9.69c-.96-.81-1.34-.91-1.13-.28.05.21.12.41.22.6.14.27.3.51.53.71.26.23.58.4.92.5.23.06.46.09.69.12.45.1.42.02-.09-.26l.15-1.16-.12.22h2.59v.04c-.6.35-1.22.7-1.83,1.05.79.26,1.09.88,1.2,1.66l2.51-1.46c-1.06-1.06-1.79-2.27-2.22-3.71l-1.05,1.85c.27-.04.88,1.29.97,1.46l2.59-1.51c-.83-1.49-1.53-3.03-2.1-4.64l-1.85,1.85c.33.11.52.49.36.81l2.36-.3c-.95-1.03-1.57-2.2-1.93-3.55l-2.74,1.16c1.81,2.4,3.62,4.8,5.43,7.2l2.05-2.05-4.52-3.29c-1.58-1.15-3.01,1.44-1.51,2.59,2.09,1.61,4.24,3.13,6.45,4.57l.76-2.8c-.7-.03-1.33-.16-1.99-.39l-.4,2.95c.79-.03,1.47.14,2.08.66l.3-2.36c-.56.35-1.22-.53-1.57-.89l-1.82,2.36c.64.34,1.28.69,1.91,1.03l-.54-2.05s-.35-.22-.58-.4l-1.82,2.36c.25.11.13-.32-.02-.12l2.05-.54c-.94-.64-1.89-1.29-2.83-1.93-1.25-.85-2.83.82-2.05,2.05.55.87.82,1.7.83,2.74l2.56-1.06c-.79-.8-1.53-1.64-2.2-2.55-1.12-1.53-3.67-.13-2.59,1.51.62.94,1.04,1.94,1.15,3.07l2.8-.76c-.61-.9-1.08-1.83-1.41-2.87l-1.85,1.85c.59.12.81.42.77,1.01l2.26-1.3c-1.1-.64-2.21-1.29-3.31-1.93l.74,1.3c.04-.56.21-1.01.49-1.49l-2.05.54c.11.08.53.63.63.64.8.05.22-1.01.17-1.25-.2-.89-.12-1.8-.37-2.7l-1.85,1.85c.85.12,1.86.98,1.43,1.96l2.05-.54c-1.14-.61-1.84-2.03-1.26-3.28l-1.69.69c.74.28-.34,2.09-.5,2.38l2.74.36c-.22-.77-.83-2.31.04-2.91l-2.2-.9.31-.73,2.26,1.3c0-1.73.18-3.41.53-5.1h-2.89c.3,1.56.43,3.12.41,4.71l2.95-.4c-1.34-4.61-2.33-9.31-2.91-14.08l-2.26,1.3c.43.28.43,1.8.52,2.28.16.87.31,1.75.47,2.63.32,1.83.64,3.66.95,5.49.28,1.65,3.08,1.29,2.95-.4-.35-4.33-.69-8.67-1.04-13l-2.95.4c.49,3.23.94,6.46.93,9.74,0,1.94,2.92,1.92,3,0,.23-5.23.46-10.47.69-15.7.09-1.96-2.8-1.88-3,0-.4,3.82-.25,7.66-.07,11.49.09,1.92,3.07,1.94,3,0-.16-4.33-.33-8.65-.49-12.98-.07-1.94-2.89-1.92-3,0-.12,2.12-.25,4.23-.37,6.35s-.16,4.22-.65,6.28l2.95.4c-.4-4.12-.65-8.25-.74-12.39-.04-1.93-3.01-1.94-3,0,.02,5.27.63,10.51,1.81,15.64l2.89-.8c-1.63-4.59-3.02-9.27-4.17-14.01l-2.89.8c.83,2.35,1.41,4.77,1.66,7.25l2.95-.4c-1.45-3.9-2.13-7.96-2.01-12.12l-2.95.4c.2.8.14,1.44-.13,2.21l2.95.4c.1-1.2.35-2.36.72-3.51h-2.89c.18.96.04,1.89-.4,2.76l2.8.76c-.09-.67-.05-1.21.42-1.73l-2.51-.66c.22.82.2,1.51-.04,2.32l2.95.4c-.03-.7,0-1.36.17-2.05.2-.81.56-.72-.62-.95s-.87-.14-.9.8c-.05,1.6-.11,3.2-.16,4.81h3c-.09-1.67,0-3.3.32-4.94.38-1.89-2.52-2.69-2.89-.8h0Z"/>
          <path class="cls-8" d="M68.08,38.65c-1.12.66-1.18,2.11-.46,3.09.57.78,1.29,1.46,1.94,2.17.51.55,1.4.55,1.97.12s.78-1.29.39-1.94c-.83-1.34-1.67-2.68-2.5-4.03-.41-.67-1.36-.99-2.05-.54s-.98,1.34-.54,2.05c1.4,2.28,3.18,4.35,5.27,6.03.32.26.63.44,1.06.44.37,0,.81-.16,1.06-.44.5-.55.65-1.59,0-2.12-.98-.79-1.9-1.66-2.73-2.61-.21-.23-.41-.47-.6-.71-.04-.05-.08-.1-.12-.15-.01-.02-.21-.28-.06-.08s-.03-.04-.06-.08c-.05-.07-.1-.13-.15-.2-.38-.51-.73-1.05-1.07-1.59l-2.59,1.51c.83,1.34,1.67,2.68,2.5,4.03l2.36-1.82c-.44-.47-.87-.95-1.31-1.42-.1-.11-.2-.23-.31-.34-.15-.15.1.14.1.14-.03,0-.06-.1-.08-.12-.13-.18.06.16.06.16-.03-.02-.07-.34-.03,0s.04-.14,0,.22c-.04.29-.26.67-.52.82.68-.4.98-1.37.54-2.05s-1.33-.96-2.05-.54h0Z"/>
          <path class="cls-2" d="M90.99,44.21c-.83-1.48-2.93-1.21-3.68.18-.58,1.06-.4,2.53.04,3.61.5,1.23,1.48,2.62,2.94,2.67,1.22.05,2.16-.88,2.44-2.01.27-1.07.04-2.14-.37-3.14-.48-1.16-1.15-2.3-2.21-3.01-1-.67-2.39-.77-3.43-.12-1.23.77-1.45,2.26-1.08,3.57.63,2.21,2.01,4.43,4.5,4.65,1.22.11,2.41-.5,3.06-1.53.58-.92.59-2.12.31-3.14s-.88-1.96-1.57-2.81-1.55-1.72-2.5-2.27c-.68-.4-1.6-.51-2.29-.06-.63.41-.96,1.04-1.15,1.75-.28,1.02-.28,2.06-.11,3.09.32,1.91,1.6,3.93,3.37,4.79,1.1.54,2.38.72,3.49.08s1.53-1.89,1.43-3.06c-.19-2.11-1.51-4.19-3.05-5.6-.99-.9-2.3-1.95-3.66-1.11-1.06.66-1.37,2.25-1.5,3.39-.23,2.09.57,4.49,2.19,5.88.97.83,2.22,1.25,3.48.89,1.07-.31,1.98-1.1,2.52-2.06,1.2-2.14.38-4.55-1.16-6.27s-4.31-3.43-6.36-1.46c-1.62,1.56-1.44,4.2-.5,6.06s3.01,3.33,5.14,3.23c1.23-.06,2.38-.63,3-1.72.54-.94.59-2.04.4-3.08-.33-1.9-1.67-3.63-3.17-4.8-.9-.7-1.85-1.22-2.92-1.61-.45-.16-1.15,0-1.46.39-1.56,1.92-2.12,4.4-1.56,6.82.53,2.29,2.48,4.96,5.11,4.8,1.63-.1,2.74-1.35,2.91-2.92.13-1.16-.27-2.32-.79-3.34s-1.24-2.02-2.15-2.74c-1.08-.85-2.81-1.69-4.15-.91s-1.5,2.93-1.16,4.33,1.23,2.57,2.43,3.3c.67.41,1.68.17,2.05-.54s.18-1.62-.54-2.05c-.09-.05-.17-.11-.26-.16-.19-.12.22.24-.03-.03-.11-.12-.23-.23-.34-.35.21.23.03.04-.02-.04-.06-.08-.11-.17-.16-.26-.04-.07-.08-.14-.11-.22-.17-.34.08.27-.03-.09-.05-.18-.09-.36-.14-.53-.07-.22,0,.36,0-.02,0-.08-.01-.16-.01-.24s0-.16,0-.24c0-.02.06-.39.01-.16s.04-.15.04-.16l.03-.12c.06-.16.05-.16-.02.01l.03-.05c.1-.17.01-.09-.26.23l-.4.11h.13c-.05.07-.24-.05.04.03.1.03.2.06.3.09.07.02.24.12,0,0,.07.04.15.07.22.11.09.05.18.1.27.16.05.03.11.07.16.11-.12-.1-.13-.11-.05-.04.3.26.56.53.81.83.16.19-.18-.28.04.06.05.07.1.14.15.22.12.18.23.37.34.56s.2.39.3.58c.03.06.11.28,0-.02.03.08.06.15.09.23.07.19.13.39.17.59.02.08.03.16.05.24-.07-.36,0,0,0,.08,0,.09-.02.2,0,.29.03.19.09-.32,0,0-.03.09-.1.22.04-.05-.03.06-.07.13-.1.19.14-.26.09-.09-.02,0l-.04.04c.15-.11.15-.12,0-.03.02-.04.31-.09.03-.03.35-.07.03-.01-.07-.01-.28,0-.02,0,.04,0-.1-.03-.2-.06-.3-.09-.21-.05.27.17-.05-.03-.07-.05-.15-.08-.23-.13s-.15-.09-.22-.15c.23.17,0,0-.05-.05-.08-.07-.15-.15-.22-.23-.05-.05-.28-.34-.08-.08-.23-.3-.4-.62-.57-.95-.03-.06-.11-.26,0,.02-.03-.08-.06-.15-.09-.23-.08-.21-.14-.43-.2-.65-.02-.1-.05-.2-.07-.3-.02-.08-.06-.45-.02-.09-.02-.21-.04-.41-.04-.62s0-.41.02-.62c0,0,.04-.41.01-.17-.02.21.03-.18.04-.23.04-.22.1-.44.17-.66.02-.08.05-.16.08-.23.02-.06.19-.4.03-.1.1-.18.18-.37.29-.54.05-.09.11-.17.16-.26.21-.31-.09.09.1-.14l-1.46.39c.09.03.17.06.25.09.02,0,.22.1.07.03-.16-.07.09.05.13.06.06.03.12.06.18.09.32.17.63.35.93.56.07.05.15.11.22.16-.02-.02-.17-.14-.03-.03.12.1.24.2.36.31.27.24.52.5.76.78.06.07.12.14.17.21-.02-.02-.12-.17-.03-.03.09.13.18.26.27.39.19.29.35.58.5.89-.13-.28,0,.01.04.13.04.13.08.26.11.4.03.12.04.54.04.18,0,.15.02.3.02.45,0,.05-.01.11,0,.17.01.2.09-.25,0-.07-.03.07-.03.33-.1.36-.01,0,.19-.33.02-.07-.02.03-.07.1-.08.13-.03.15.18-.13.04-.05-.06.03-.14.14-.19.18.04-.04.15-.2.06-.07s.12-.03-.03.02c-.07.02-.14.04-.21.06.21-.07.05,0-.03,0-.1,0-.19,0-.29,0-.01,0-.25-.03-.09,0,.17.03-.11-.03-.15-.04-.1-.02-.2-.05-.3-.08-.06-.02-.12-.04-.17-.06-.21-.06.21.12.02,0-.12-.07-.25-.13-.38-.21-.07-.04-.37-.26-.25-.16.15.12-.05-.05-.08-.08-.08-.07-.15-.14-.22-.21-.1-.1-.19-.21-.29-.32-.11-.13.04.04.05.06-.04-.07-.09-.14-.14-.21-.08-.12-.15-.25-.22-.38-.04-.07-.07-.15-.11-.22-.1-.19.11.32-.01-.04-.09-.28-.16-.55-.22-.84.06.3,0-.02,0-.16,0-.17,0-.33.01-.49,0-.22-.07.25,0,.04.02-.06.02-.12.04-.18.03-.1.21-.5.05-.21.03-.05.05-.11.08-.16.02-.04.14-.27.04-.1-.09.14,0,0,.03-.03.03-.03.27-.21.11-.11-.23.13.19-.12-.04.02-.14.09-.02,0,.04,0,.31-.07.1-.02.03,0,.08-.02.26.06.03,0,.07.02.14.04.21.06.23.07-.16-.09.06.02.18.09.36.19.53.31.06.04.42.32.22.15.14.12.28.24.42.36.26.23.49.49.72.75.16.18-.12-.17.02.02.04.06.08.11.12.17.09.13.17.27.25.4s.15.28.21.42c-.11-.26-.02-.03,0,.02.03.11.07.21.09.32.02.06.03.13.04.2-.07-.25,0-.08,0,0,0,.15,0,.3,0,.44,0,.21.07-.23,0-.03-.02.06-.03.12-.04.18-.02.08-.05.16-.08.24.07-.2.04-.09-.03.04s-.15.25-.23.37c.17-.23-.05.04-.13.12-.03.03-.23.2-.08.08.14-.11-.02,0-.04.02-.07.04-.14.08-.2.12-.21.13.11.01-.02,0-.04,0-.13.03-.17.05-.26.08,0,0,.05,0-.07,0-.16,0-.23,0,.04,0,.25.07.1,0-.04-.02-.3-.09-.14-.03.15.05-.06-.03-.07-.04-.08-.05-.16-.09-.24-.15.17.12,0,0-.08-.08-.12-.11-.23-.23-.34-.36.16.19-.09-.12-.13-.19-.09-.13-.17-.27-.24-.41-.05-.09-.22-.51-.13-.26-.12-.32-.22-.64-.28-.98-.01-.07-.02-.13-.04-.2.06.28,0,.06,0,0-.01-.18-.03-.36-.03-.54s.01-.36.02-.54c0-.02.03-.24,0-.07-.03.19.02-.09.03-.14.07-.33.16-.67.29-.97-.13.28.02.01.01,0l.03-.05c.23-.37-.11-.25-1.03.35-.05.04-.17-.13-.05,0,.06.06.16.11.23.16.06.04.11.08.17.12-.2-.15,0,0,.03.03.14.12.28.24.42.37.26.24.5.5.72.76.05.05.09.11.13.16-.04-.05-.15-.21.02.03.11.15.22.31.32.46.18.28.34.56.48.86.04.08.08.17.12.25-.03-.06-.09-.25.01.03.06.16.12.33.17.49.04.14.06.28.1.42.06.21,0-.25,0-.03,0,.06,0,.12.01.18,0,.08,0,.16,0,.24,0-.06.08-.31,0-.05-.01.05-.04.12-.05.17-.04.11-.02.07.04-.1l-.06.1.05-.06c.07-.09.06-.08-.04.02,0,0,.2-.16.05-.06-.17.12.23-.09.03-.02-.16.05.08,0,.1,0-.08,0-.17,0-.25,0,.06,0,.31.07.02,0-.09-.02-.52-.18-.25-.06-.14-.06-.27-.14-.4-.22-.04-.02-.26-.17-.11-.06.14.1-.03-.02-.05-.04-.25-.22-.48-.46-.7-.71.18.21-.04-.06-.1-.15-.08-.12-.16-.25-.23-.38s-.13-.26-.2-.39c-.1-.2.07.22,0,.01-.03-.1-.07-.2-.1-.3-.09-.28-.15-.56-.2-.85.05.31,0-.04,0-.16-.01-.19-.01-.38,0-.56,0-.06,0-.12.01-.19,0-.05.05-.31,0-.11-.04.19,0-.02.01-.05.02-.08.03-.16.05-.24s.12-.44.07-.3l-.03.06c.08-.13.08-.15.01-.06-.1.15-.25.21-.47.18-.18.14-.35.18-.52.1.02.04.15.1.18.12.2.14-.14-.12.05.04.14.11.27.22.4.34.28.25.55.51.81.79.12.13.24.26.35.4.06.08.13.15.19.23-.04-.05-.13-.18.04.06.18.26.35.52.49.8.02.04.13.28.05.1-.07-.17,0,.03.02.05.05.16.1.31.14.47.01.06.02.12.04.18.06.2.02-.25,0-.05-.01.14-.01.32,0,.46.02.21.03-.28,0-.07,0,.05-.04.1-.04.16.02-.22.1-.18.02-.06-.04.06-.07.12-.12.18,0-.01.17-.21.05-.09-.14.14.21-.1.02,0-.05.03-.11.06-.16.09.25-.15.04-.04-.04-.01-.19.07.23.02.03,0-.06,0-.13,0-.19,0-.29,0-.03-.01.02,0-.08-.02-.16-.04-.25-.06-.02,0-.22-.08-.06-.02.17.07-.07-.04-.11-.06-.06-.03-.11-.07-.16-.1.18.11.05.04-.05-.05-.12-.11-.23-.22-.32-.35.17.21-.08-.13-.12-.2-.08-.14-.16-.28-.23-.42-.04-.08-.08-.17-.12-.25-.12-.25.02.07-.04-.09-.11-.31-.23-.6-.32-.91-.02-.09-.04-.18-.06-.27-.04-.17.01.03,0,.06,0,.02,0-.27,0-.27.07.02-.16.4-.04.2.1-.16-.35.29-.1.11-.04.03-.31.11-.05.02.05-.01.22-.02.03-.01-.22.01.04,0,.09.01.18.03-.11-.02-.11-.02.07.03.15.04.22.06-.2-.08-.02.01.07.07.14.09,0,0-.03-.03.07.06.14.13.2.19s.13.14.19.21c-.02-.02-.12-.16-.02-.03.22.31.41.64.58.99.13.27.07.13.04.07.04.1.08.19.11.29.06.17.11.34.16.52.02.07.04.15.06.23.09.29-.02-.1,0-.09.02.01.03.41,0,.43,0,0,.07-.31.01-.08-.02.07-.04.14-.05.2-.05.24.15-.24-.03.04-.09.14.1-.13.09-.13.21-.22.21-.14.1-.08.24-.13.45-.14.7-.06.16.06.06.07-.02-.02-.06-.07-.13-.14-.19-.21.15.17-.1-.16-.14-.22s-.23-.46-.13-.22c-.07-.18-.13-.36-.17-.55-.02-.09-.04-.19-.06-.28.01.07.01.26,0-.03,0-.08,0-.53-.01-.36,0,.18,0-.02.01-.06.07-.3.03-.03,0,0-.22.24-.38.42-.75.41-.31,0-.67-.24-.81-.48.39.68,1.38.97,2.05.54s.95-1.32.54-2.05h0Z"/>
          <path class="cls-7" d="M89.26,44.45c.06,1.02.65,1.98,1.57,2.46.28.14.66.03.73-.3.3-1.25-.28-2.62-1.41-3.25-.29-.16-.63-.01-.73.3-.18.54-.15,1.15.06,1.68.23.57.69,1.21,1.36,1.28.4.04.75-.23.86-.61.09-.29.05-.63,0-.92-.09-.54-.37-1.04-.72-1.45-.41-.47-.98-.82-1.59-.94-.24-.05-.57.07-.62.35-.15.91-.01,1.84.44,2.65.22.4.53.81.9,1.07.43.3,1.01.23,1.35-.17s.4-.91.22-1.39-.52-.88-.82-1.29c-.15-.21-.29-.41-.44-.62-.16-.22-.31-.46-.54-.62-.47-.34-1.07-.16-1.38.3-.37.55-.11,1.18.15,1.72s.51,1.06.77,1.58c.12.24.46.31.68.18.25-.15.3-.44.18-.68-.18-.37-.35-.73-.53-1.1-.15-.31-.35-.63-.43-.96-.01-.06-.01-.1-.01-.12,0-.01.03-.11.02-.06-.02.05.03-.07.01-.02-.03.06.04-.09,0,0,0,0,.08-.08,0-.01h-.02s-.03,0,.03,0c-.05.03-.08-.06-.02.02-.04-.05.07.09.08.1-.01-.02-.04-.06.02.02.03.04.05.07.08.11.12.17.24.34.36.5.23.32.48.64.69.98.08.12.16.26.19.36s.03.09.03.18c0,.08.02-.07,0,0,0,.04-.02.08-.03.11.03-.08-.01.01-.02.03-.04.07.04-.05,0,.01,0,0-.07.08-.04.04h.01c-.05.02-.05.02,0,0,0,0-.12.05,0,0-.04.01-.06-.03-.01,0,.02.01.04.03-.03-.02-.09-.06,0,.01-.08-.06-.1-.11-.2-.21-.29-.32.03.05-.02-.03-.02-.03-.03-.04-.05-.07-.08-.11-.04-.07-.09-.14-.13-.21-.04-.08-.08-.16-.12-.24-.04-.09-.02-.05-.01-.03-.02-.05-.04-.1-.06-.15-.06-.17-.11-.35-.14-.53,0-.04-.01-.07-.02-.11.01.08,0-.09,0-.08,0-.09-.01-.18-.01-.27,0-.08,0-.16,0-.24,0-.13,0-.1.02-.22l-.62.35c.13.03.25.06.38.11.06.02.06.02.02,0,.03.01.06.03.09.04.04.02.09.05.13.07.06.03.11.07.17.11.05.04.05.04.02.01.03.02.05.04.08.06.09.07.17.16.25.24.12.14.25.33.36.55.02.05.03.06,0,.02.01.03.02.06.03.09.02.06.04.12.06.19s.03.13.04.19c0,.06.01.06,0,.01,0,.02,0,.05,0,.07,0,.06,0,.11,0,.17,0,.03,0,.06,0,.1.01-.05,0-.05,0,0-.02.06-.02.06,0,0,.03-.05.06-.08.11-.09.02-.01.05-.01.07,0-.05-.02-.07-.02-.04-.01.05.04-.14-.1-.06-.04-.05-.04-.1-.09-.15-.14-.02-.03-.04-.05-.07-.08.03.03.02.03-.01-.02-.03-.05-.07-.1-.09-.15-.08-.14-.08-.13-.12-.28-.02-.06-.04-.13-.05-.2,0-.03-.01-.07-.02-.1,0,.04,0,.04,0,0-.01-.13-.01-.25,0-.38,0-.06,0-.07,0-.02,0-.03.01-.07.02-.1.01-.07.03-.13.05-.2l-.73.3c.06.03.11.07.17.1.03.02.05.04.08.06-.04-.03-.03-.02.01.01.09.08.17.15.25.24.02.02.04.05.06.07-.03-.04-.02-.03.01.02.03.04.06.08.08.12.07.1.12.21.17.32.01.03.01.03,0,0,.01.03.02.06.03.09.02.06.04.12.06.19.01.05.02.1.03.14,0,.03.01.06.02.1,0-.05,0-.05,0,.01,0,.11.01.23,0,.34,0,.02-.02.21,0,.11-.01.06-.02.13-.04.19l.73-.3c-.17-.09-.31-.19-.41-.27-.15-.14-.26-.27-.34-.39-.05-.08-.1-.16-.14-.25,0-.01-.07-.14-.03-.07-.02-.04-.03-.08-.04-.12-.03-.09-.06-.18-.08-.27,0,0-.03-.16-.02-.07,0-.05-.01-.1-.01-.15-.02-.27-.22-.5-.5-.5-.26,0-.52.23-.5.5h0Z"/>
          <path class="cls-2" d="M89.75,46.34l.23-1.2c.05-.25-.05-.49-.29-.59-.22-.09-.5-.01-.62.2-.26.48-.53.95-.79,1.43-.13.23-.06.56.18.68s.55.06.68-.18c.26-.48.53-.95.79-1.43l-.91-.39-.23,1.2c-.03.13-.02.26.05.39.06.1.18.2.3.23.25.06.56-.07.62-.35h0Z"/>
          <path class="cls-1" d="M48.24,108.59l-.41-.68-5.47,5.47c3.57,2.59,7.94,3.98,12.36,3.91,3.54-.06,9.16-.86,9.98-5.08.93-4.78-4.88-6.88-8.58-7.6-4.37-.84-9.27-.64-12.05,3.21-.79,1.09-.71,2.94,0,4.04,2.95,4.59,8.02,5.76,13.2,4.94,4.63-.73,8.67-5.11,5.89-9.83-4.32-7.34-23.75-7.18-19.69,4,2.67,7.35,20.4,11.24,21.47.99.89-8.54-16.77-16.06-18.67-5.52-.97,5.36,5.15,9.74,9.76,10.63,5.78,1.11,10.11-4.54,6.2-9.39-3.23-4.01-8.86,1.68-5.66,5.66l.4.5-1.17-2.83c2.34-1.13,2.64-1.81.87-2.03-.65-.32-1.25-.7-1.81-1.16-.85-1.18-1.47-.7-1.87,1.43.59.14,1.15.38,1.67.7.6.32,1.17.69,1.72,1.11.77,1.11,1.22.74,1.35-1.11-.1-.1-2.54.06-2.98-.03-.99-.19-2.44-1.33-3.3-1.35-.9,1.18-.71,1.54.55,1.08.73-.03,1.43.07,2.12.31.71.21,1.37.52,1.99.93.56-1.7.19-2.32-1.13-1.85-1.41-.63-2.92.44-4-1.23v4.04c-.46.64,2.85.45,3.54.58s1.4.34,2.07.6c.35.11.68.26.99.45.71.42.65.31-.18-.33l-.4-3.08c1.03-1.23.92-1.56-.33-.99l-.93.15c-1.15.13-2.35.07-3.48-.12-2.21-.38-4.04-1.34-5.84-2.64-3.33-2.42-7.44,2.23-5.47,5.47l.41.68c2.66,4.4,9.59.38,6.91-4.04h0Z"/>
          <path class="cls-1" d="M74.05,78.13c-.25-.12-.54-.16-.8-.06s-.49.28-.61.53c-.07.14-.11.29-.11.45,0,.06,0,.12.02.18.04.14.13.23.24.31.04.03.09.06.14.09.22.13.47.22.72.26.32.05.64.05.96-.03.25-.07.43-.36.35-.62-.12-.37-.4-.61-.75-.75-.32-.12-.68-.08-.98.06-.17.08-.35.24-.42.41-.11.27.04.56.21.76.21.26.54.38.86.41.15.02.32,0,.46-.06.09-.03.18-.07.26-.13.13-.09.19-.16.29-.29.11-.14.08-.36,0-.5-.37-.68-1.42-.89-2.01-.37-.19.17-.27.41-.3.66-.02.18.11.34.25.43.45.3,1.05.38,1.56.22.25-.08.43-.35.35-.62s-.35-.43-.62-.35c-.07.02-.15.04-.23.05l.13-.02c-.12.02-.25.01-.37,0l.13.02c-.12-.02-.24-.05-.36-.1l.12.05c-.08-.03-.15-.07-.22-.12l.25.43s0-.02,0-.03l-.02.13s.02-.08.03-.12l-.05.12s.03-.07.06-.1l-.08.1s.05-.05.08-.08l-.1.08s.08-.05.12-.07l-.12.05c.06-.02.12-.04.18-.05l-.13.02c.09-.01.17-.01.26,0l-.13-.02c.09.01.17.04.26.07l-.12-.05c.07.03.14.07.2.12l-.1-.08s.09.08.13.13l-.08-.1s.04.06.06.09v-.5h0s.05-.06.08-.09c-.03.03-.05.06-.09.09l.1-.08s-.08.06-.13.08l.12-.05c-.06.02-.11.04-.17.05l.13-.02c-.07,0-.13,0-.2,0l.13.02c-.07,0-.14-.03-.21-.06l.12.05c-.06-.03-.12-.06-.17-.1l.1.08s-.07-.07-.11-.11l.08.1s-.06-.08-.08-.13l.05.12s-.02-.06-.03-.09l-.13.49s.06-.07.1-.1l-.1.08s.09-.06.15-.09l-.12.05c.06-.02.12-.04.18-.05l-.13.02c.07,0,.14,0,.21,0l-.13-.02c.07.01.15.03.21.06l-.12-.05c.06.03.11.06.16.09l-.1-.08s.08.07.11.11l-.08-.1s.06.09.08.13l-.05-.12s.01.03.02.05l.35-.62c-.07.02-.14.03-.2.04l.13-.02c-.15.02-.29.02-.44,0l.13.02c-.15-.02-.3-.06-.45-.12l.12.05c-.12-.05-.24-.12-.34-.19l.25.43s0-.08,0-.12l-.02.13s.02-.08.03-.11l-.05.12s.04-.08.07-.12l-.08.1s.07-.08.11-.11l-.1.08s.09-.06.14-.08l-.12.05s.1-.03.15-.04l-.13.02s.08,0,.12,0l-.13-.02s.08.02.12.03l-.12-.05s.02,0,.03.02c.12.06.25.09.39.05.12-.03.24-.12.3-.23.12-.23.07-.56-.18-.68h0Z"/>
          <path class="cls-1" d="M75.13,87.45c-.97.28-1.16,1.74-.28,2.26.57.33,1.13-.37,1.37-.83.26-.52.33-1.1.19-1.67-.1-.42-.7-.49-.91-.12-.99,1.7-1.29,3.73-.86,5.65.1.43.71.48.91.12.84-1.45,1.25-3.17,1.12-4.84-.06-.69-.4-1.66-1.3-1.46-.37.08-.64.39-.8.71-.19.38-.37.8-.45,1.22-.15.78.04,1.62.73,2.09.15.1.32.18.49.21.27.06.45-.04.63-.23.26-.26.44-.58.58-.92.25-.64.24-1.39-.02-2.03-.15-.35-.37-.71-.72-.89-.37-.19-.81-.1-1.1.19s-.43.77-.53,1.18c-.11.45-.18.92-.18,1.39-.01.94.21,1.86.63,2.7.07.15.27.26.43.25.66-.05,1.26-.51,1.37-1.18.04-.27-.07-.54-.35-.62-.24-.07-.57.08-.62.35-.04.22-.16.43-.41.45l.43.25c-.57-1.15-.72-2.73-.15-3.91,0-.01.12-.22.05-.16-.05-.01-.06,0,0,.02l.06.06s.07.11.1.16c.12.21.18.45.19.69.02.54-.17,1.05-.58,1.41l.49-.13c-.66-.13-.63-.92-.47-1.42.06-.18.13-.36.21-.54.02-.04.23-.34.22-.36.01.05-.07-.03-.09-.01.01-.02.04.05.05.06.04.12.08.23.1.35.2,1.52-.21,3.13-.97,4.44l.91.12c-.37-1.66-.09-3.41.76-4.88l-.91-.12c.13.52-.08,1.1-.52,1.41h.5c-.14-.06-.16-.1-.15-.26,0-.03.01-.1.04-.15.04-.08.02-.05.08-.06.62-.18.35-1.15-.27-.96h0Z"/>
          <path class="cls-1" d="M78.88,96.03c.33,2.01,1.51,3.81,3.19,4.95.34.23.73-.08.75-.43.13-1.81-1.06-3.53-2.75-4.14-.38-.14-.69.27-.62.62.21.99.66,1.9,1.28,2.69.3.38.65.73,1.04,1.03s.84.66,1.36.63c.62-.04.9-.65.74-1.2-.14-.47-.51-.92-.83-1.28-.68-.75-1.57-1.3-2.53-1.59-.3-.09-.65.16-.63.48.13,2.09,1.53,3.93,3.5,4.63.29.1.66-.17.63-.48-.16-1.79-1.02-3.49-2.43-4.62-.37-.3-.81-.67-1.32-.55-.47.11-.71.59-.78,1.03-.16,1.03.52,1.93,1.15,2.66.42.49,1.13-.22.71-.71-.39-.46-.94-1.08-.89-1.73,0-.09.09-.23.09-.31-.1,0-.11.02-.05.04.04.02.08.04.12.07.06.04.13.09.19.13.25.18.48.4.69.62.86.9,1.42,2.11,1.52,3.35l.63-.48c-1.53-.54-2.67-2.04-2.77-3.66l-.63.48c.69.21,1.32.57,1.83,1.07.26.25.49.52.68.83.04.07.18.34.18.34.14-.07.17-.11.1-.13-.02,0-.04-.01-.06-.02-.07-.05-.16-.09-.23-.13-1.21-.78-2.03-2.07-2.33-3.47l-.62.62c1.29.46,2.11,1.82,2.01,3.17l.75-.43c-1.48-1-2.45-2.6-2.73-4.36-.04-.27-.37-.42-.62-.35-.28.08-.39.35-.35.62h0Z"/>
          <path class="cls-1" d="M92.34,98.65c-.65.54-.55,1.57-.02,2.15s1.48.74,2.11.26c.58-.44.67-1.33.23-1.9-.55-.72-1.54-.5-2.02.17-.65.9-.13,1.95.41,2.76.16.24.57.36.79.1.85-1.01.68-2.62-.39-3.42-.29-.22-.66-.39-1.03-.31-.46.09-.69.48-.82.9-.24.78-.12,1.65.29,2.35.14.24.45.31.68.18,1.87-1.03,2.84-3.34,2.3-5.39-.1-.39-.55-.45-.84-.22-1.42,1.15-1.99,3.24-1.34,4.95.16.41.66.49.91.12.64-.93,1.09-1.98,1.32-3.08.13-.63-.83-.9-.96-.27-.22,1.03-.63,1.98-1.22,2.84l.91.12c-.54-1.41-.09-3.03,1.08-3.98l-.84-.22c.43,1.64-.37,3.45-1.84,4.26l.68.18c-.24-.41-.34-.9-.24-1.37.02-.11.06-.21.09-.31,0,0,.05-.12.02-.08-.03.05-.08-.05-.01.02.04.04.17.08.23.12.06.04.12.1.18.16.42.45.51,1.28.1,1.76l.79.1c-.29-.43-.8-1.1-.49-1.63.08-.14.22-.28.39-.24.04,0,.05.04.07.07.01.02.05.15.05.17,0,.15-.02.27-.12.32-.16.1-.34.09-.51.02-.36-.15-.61-.65-.26-.94.21-.17.18-.53,0-.71-.21-.21-.5-.17-.71,0h0Z"/>
          <path class="cls-1" d="M98.18,83.73c-.24.64-.02,1.35.4,1.85.19.22.43.42.69.53.35.16.7.2,1.08.14.25-.04.43-.38.35-.62-.17-.48-.34-.97-.51-1.45-.1-.27-.19-.57-.46-.73-.3-.18-.7-.11-.89.2-.29.46.05,1.15.63,1.07.35-.05.56-.39.57-.72,0-.29-.13-.55-.36-.71-.29-.21-.71-.13-.96.11-.27.26-.32.65-.16.97.12.23.47.32.68.18.24-.15.3-.43.18-.68.03.08.04.1.02.05,0,.09.01.11.01.06-.02.09-.02.11,0,.06-.03.08-.04.1-.02.06.05-.1-.07.07,0,.01-.07.05-.08.06-.04.03.05-.02.03-.02-.05.02h-.08c.05,0,.03,0-.06,0,.05.02.03,0-.06-.03.04.03.03.01-.05-.04.06.06-.07-.1-.03-.03.04.07-.06-.13-.01-.01-.01-.1-.01-.12-.01-.07,0,.04,0,.03,0-.02,0-.05,0-.06,0-.02-.01.05,0,.03.03-.06-.03.04-.01.03.04-.05-.09.09,0,.05.27-.1h-.02c.07,0,.14.02.2.05.06.03.11.08.14.14,0,0-.01-.02-.02-.03.07.12.04.11.03.06.01.11.02.13.01.08,0-.01,0-.02,0-.03-.02.11-.02.13,0,.09.01-.03,0-.02-.01.03-.01.05-.04.09-.08.12.03-.03.01-.02-.07.05-.1.06-.25.08-.35.01l-.06-.05s.03.02-.03-.04c.01.02.02.03.03.05.02.05.02.03-.01-.04.06.18.12.35.19.53.13.38.27.76.4,1.14l.35-.62c-.1.02.13,0,.01,0-.03,0-.05,0-.08,0-.03,0-.06,0-.09,0-.09,0,.12.02.03,0-.05-.01-.1-.02-.15-.04-.03,0-.05-.02-.08-.03-.09-.03.1.05.02,0-.05-.03-.1-.05-.15-.08-.03-.02-.05-.03-.08-.05-.07-.05.09.08.02.01-.09-.07-.16-.16-.24-.24-.03-.04.07.1.01.01-.02-.03-.04-.05-.05-.08-.03-.05-.06-.09-.08-.14-.01-.02-.02-.05-.03-.07.07.13.02.06.01.02-.02-.05-.04-.11-.05-.17,0-.03,0-.05-.02-.08,0-.04,0-.02,0,.07,0-.02,0-.04,0-.05,0-.05,0-.11,0-.16,0-.03,0-.05,0-.08,0,.15,0,.07,0,.03.01-.06.03-.12.05-.18.09-.24-.1-.56-.35-.62-.29-.06-.52.09-.62.35h0Z"/>
          <path class="cls-1" d="M80.93,29.67l.46.79c.08.14.21.22.37.24.07.01.13.01.2,0,.08-.02.16-.07.22-.13.05-.04.08-.08.11-.13s.07-.09.09-.14c.07-.15.11-.28.12-.45,0-.06,0-.11-.01-.17s-.01-.11-.03-.17c-.05-.15-.12-.28-.23-.39s-.26-.16-.42-.14c-.15.02-.3.1-.37.24-.22.43-.28.91-.16,1.38.03.12.12.24.23.3s.27.09.39.05c.26-.09.42-.34.35-.62-.01-.05-.02-.11-.03-.16l.02.13c-.02-.13-.02-.25,0-.38l-.02.13c.02-.13.05-.25.1-.37l-.05.12s.03-.06.04-.08l-.79.1s.02.03.04.04l-.08-.1s.04.07.06.1l-.05-.12s.03.08.03.13l-.02-.13s0,.09,0,.13l.02-.13s-.02.1-.04.14l.05-.12s-.04.07-.06.1l.08-.1s-.05.05-.08.08l.79.1-.46-.79c-.06-.11-.18-.2-.3-.23s-.28-.02-.39.05-.2.17-.23.3-.02.27.05.39h0Z"/>
          <path class="cls-1" d="M85.25,29.26l.3.67c.05.1.19.21.3.23.13.03.27.02.39-.05.74-.5,1.01-1.5.59-2.3-.08-.15-.26-.25-.43-.25-.19,0-.32.1-.43.25-.51.67-.53,1.67-.09,2.38.14.22.45.33.68.18s.33-.45.18-.68c-.02-.03-.04-.06-.06-.1,0-.02-.02-.03-.03-.05,0-.01-.04-.1,0-.02s-.01-.04-.02-.06c-.01-.04-.02-.07-.03-.11-.01-.04-.02-.08-.03-.12-.02-.07,0,.04,0,.05,0-.01,0-.04,0-.06,0-.08,0-.16,0-.24,0-.04,0-.07,0-.11,0-.06-.02.11,0,.05,0-.02,0-.04,0-.06.02-.08.04-.15.06-.23,0-.02.01-.04.02-.05.02-.06,0,.03-.02.04.02-.03.03-.07.05-.1.04-.07.09-.14.14-.21h-.86s.01.03.02.04c.03.06-.02-.04-.02-.05.02.03.03.07.04.11s.02.06.02.1c0,.02,0,.03,0,.05.01.06,0-.12,0-.06,0,.07,0,.14,0,.21,0,.01,0,.04,0,.05,0,0,.02-.13,0-.06,0,.04-.01.07-.02.11,0,.03-.02.06-.03.1,0,.02-.05.13-.01.04s-.01.02-.02.04c-.02.03-.04.06-.06.1,0,.01-.02.03-.03.04-.04.06.03-.03.03-.04,0,.02-.05.06-.07.07-.03.03-.05.05-.08.08-.01.01-.06.05,0,0,.07-.06,0,0-.01,0l.68.18-.3-.67c-.05-.11-.19-.2-.3-.23-.12-.03-.28-.02-.39.05s-.2.17-.23.3c-.03.14,0,.26.05.39h0Z"/>
          <path class="cls-1" d="M69.15,35.04c-.32.97.12,2.09.99,2.62.37.23.85-.15.73-.56-.34-1.19-.82-2.35-1.41-3.44-.23-.42-.97-.25-.93.25.1,1.39.7,2.71,1.71,3.68.15.14.36.19.55.1.17-.07.33-.26.31-.46-.11-1.13-.6-2.19-1.42-2.99-.34-.33-1.01,0-.84.49.37,1.06.89,2.07,1.58,2.96.12.16.28.27.5.24.18-.03.38-.16.42-.36.24-1.44-.2-2.92-1.22-3.96-.25-.25-.77-.16-.84.22-.15.82.07,1.62.61,2.25.18.2.53.18.71,0,.2-.2.18-.5,0-.71-.14-.16-.26-.39-.32-.61-.04-.14-.05-.19-.05-.31,0-.07,0-.15,0-.22,0-.04,0-.07,0-.11,0,.04,0,.03,0-.03l-.84.22c.39.39.67.87.83,1.39.04.14.08.28.11.42.03.17.04.19.05.36.01.15.01.29,0,.44,0,.17-.02.27-.04.38l.91-.12c-.63-.83-1.14-1.75-1.48-2.72l-.84.49c.33.32.57.65.78,1.08.17.34.31.84.35,1.2l.85-.35c-.43-.41-.74-.84-1-1.39-.11-.23-.2-.48-.27-.76-.08-.31-.12-.54-.14-.82l-.93.25c.55,1.02.99,2.09,1.31,3.2l.73-.56s-.08-.05-.12-.08c.06.04,0,0-.03-.03-.07-.06-.13-.12-.18-.19.06.07-.03-.05-.04-.05-.02-.03-.04-.07-.06-.1s-.04-.07-.06-.11c-.06-.12.02.07-.02-.06-.02-.08-.05-.15-.07-.23,0,0-.02-.16-.01-.06,0-.05,0-.1,0-.14,0-.04,0-.08,0-.12,0-.03,0-.11,0-.03.01-.1.04-.19.07-.28.08-.26-.1-.55-.35-.62-.27-.07-.53.09-.62.35h0Z"/>
          <path class="cls-5" d="M118.48,46.67c-.33-.41-.97-.12-1.08.32-.12.5.34.8.76.92.88.26,1.81.32,2.72.2.56-.07.68-.77.13-.98-1.12-.44-2.24-.88-3.36-1.32l-.27.96c1.19.31,2.38.63,3.57.94l-.37-.48c0,.3-.1.57-.3.79l.84.22c-.73-1.92-3.07-2.86-4.92-1.96-.24.12-.31.46-.18.68.15.25.44.3.68.18,1.21-.59,2.96.08,3.45,1.37.12.33.56.52.84.22.38-.42.59-.93.6-1.5,0-.22-.16-.43-.37-.48-1.19-.31-2.38-.63-3.57-.94-.26-.07-.54.09-.62.35-.08.28.1.52.35.62,1.12.44,2.24.88,3.36,1.32l.13-.98c-.48.06-.95.07-1.43.03-.22-.02-.43-.06-.64-.1-.11-.02-.23-.05-.34-.08-.05-.01-.1-.04-.15-.05-.03,0-.04-.01-.03,0,.2.01.13.2-.22.57l-.25-.07-.04-.03c.17.21.53.18.71,0,.21-.21.17-.49,0-.71h0Z"/>
          <path class="cls-5" d="M17.2,46.76c-.69.13-1.22.52-1.59,1.11l.91.39c.3-.82.35-1.64.21-2.49-.07-.4-.58-.45-.84-.22-.69.61-1.18,1.43-1.38,2.33-.14.64-.3,1.8.32,2.26.77.57,1.46-.49,1.83-1.02.57-.84.96-1.78,1.21-2.75.1-.39-.24-.69-.62-.62-1.84.36-3.18,2.01-3.24,3.87-.01.46.55.63.85.35,1.38-1.24,2.42-2.75,3.12-4.47.17-.42-.39-.77-.73-.56-2.04,1.22-3.31,3.4-3.39,5.77-.01.42.43.57.75.43,2.62-1.14,4.58-3.55,5.18-6.35.08-.38-.23-.7-.62-.62-1.67.38-2.77,1.86-3.61,3.26-.36.59-.68,1.39-.31,2.05.39.7,1.22.76,1.88.45.81-.37,1.44-1.14,1.97-1.83.43-.56,1.08-1.32.95-2.08-.14-.85-1.05-.94-1.74-.74-.81.23-1.46.82-2,1.45-.49.57-1.12,1.23-1.13,2.03,0,.68.44,1.27,1.02,1.6,1.46.82,2.9-.05,3.77-1.28.44-.62,1.09-1.53,1.1-2.32.01-.7-.57-1.37-1.3-1.17-.81.22-1.51,1.3-1.98,1.93-.54.71-1.1,1.51-1.4,2.36-.23.63-.31,1.51.18,2.06.6.67,1.5.36,2.08-.15,1.42-1.25,2.53-3.27,1.7-5.13-.1-.21-.36-.27-.56-.23-1.22.21-2.17,1.15-2.59,2.3-.34.95-.37,2.81.78,3.26.66.26,1.25-.26,1.65-.73.52-.61.98-1.27,1.39-1.96.86-1.47,1.43-3.1,1.7-4.78.06-.34-.22-.75-.62-.62-1.64.57-2.77,1.85-3.63,3.31-.47.79-.89,1.64-1.25,2.49-.33.78-.5,1.67-.05,2.44.36.61,1.09,1.06,1.67.51.73-.69,1.38-1.46,1.98-2.26,1.18-1.57,2.1-3.32,2.77-5.17.15-.41-.38-.79-.73-.56-1.69,1.06-3.1,2.53-4.06,4.28-.43.78-.88,1.7-1.04,2.59-.18.96.82,1.16,1.57,1.03,1.97-.33,3.12-2.64,4.13-4.12.58-.86,1.4-1.8,1.42-2.9.02-.83-.43-1.54-1.19-1.85-.17-.07-.36.02-.49.13-1.32,1.07-2.62,2.34-3.52,3.8-.57.92-.76,2.81.81,2.78.8-.01,1.37-.72,1.82-1.29.65-.82,1.3-1.64,1.96-2.47.57-.72,1.55-2.61,0-2.92-.82-.16-1.36.6-1.71,1.22-.5.89-.89,1.83-1.18,2.8-.12.39.37.83.73.56.91-.66,1.75-1.39,2.5-2.23.48-.54,1.5-1.47,1.36-2.25s-1.19-1.04-1.85-.87c-.89.23-1.58.97-2.11,1.68-.72.97-1.41,1.96-2.11,2.95-.45.64-.84,1.44-.15,2.08.49.45,1.32.51,1.89.18.82-.47,1.04-1.49,1.16-2.35.06-.42-.32-.79-.73-.56-1.7.92-3.12,2.21-4.21,3.8-.15.22-.05.56.18.68,2.46,1.32,4.55-.91,5.89-2.72.33-.45-.29-.86-.68-.68-1.09.49-2.08,1.12-3,1.88-.36.3-.04.83.35.85,1.21.08,2.66-.08,3.67-.81.78-.56,1.39-1.57.79-2.47-.18-.28-.54-.32-.79-.1-1.04.94-2.08,1.87-3.12,2.81-.33.3-.06.85.35.85,1.25,0,2.42-.5,3.24-1.45.24-.28.16-.73-.22-.84-2.02-.56-3.76.88-5.11,2.21-.35.35,0,.98.49.84.92-.28,1.73-.75,2.42-1.43.39-.38-.03-.9-.49-.84-1.65.24-3.15.93-4.45,1.97-.14.12-.16.32-.13.49.2,1.12,1.11,2.01,2.24,2.17.35.05.59-.13.63-.48.09-.74-.26-1.38-.88-1.77-.15-.09-.36-.09-.5,0-.81.5-.64,1.72.25,2.01.53.17.91-.68.39-.91-.6-.26-1.16-.33-1.81-.19-.22.05-.35.27-.37.48-.06.9,1.04,1.54,1.78,1,.22-.16.32-.43.18-.68-.35-.62-.97-.87-1.66-.75-.53.09-.42.82,0,.96,1.15.4,2.33.14,3.27-.6.3-.23.12-.76-.22-.84-.76-.18-1.46,0-2.05.52-.22.2-.19.66.1.79,1.07.49,2.18.76,3.36.82.58.03.66-.82.13-.98-2.12-.63-4.01-1.78-5.55-3.37-.18-.18-.54-.21-.71,0-.34.41-.74.65-1.28.69l.43.25c-.62-1.09-2.48-.84-2.72.42-.12.63.76.88.96.27.9-2.8,2.41-6.8,6.04-6.51l-.13-.98c-1.48.37-2.07,1.95-1.87,3.34.14.96.55,1.84.92,2.73.4.97.8,1.94,1.2,2.92.1.24.33.44.62.35.87-.28,1.05-1.5.23-1.98-.26-.15-.68-.03-.73.3-.14.77-.72,1.37-1.53,1.43-.4.03-.7.55-.35.85.37.33.74.66,1.11.99l.49-.84c-.73-.2-1.41-.12-2.08.21-.48.24-.2.9.25.93,2.3.16,4.61.12,6.9-.13.63-.07.64-1.07,0-1-2.3.25-4.6.29-6.9.13l.25.93c.43-.21.85-.24,1.31-.11s.87-.5.49-.84-.74-.66-1.11-.99l-.35.85c1.22-.08,2.27-.94,2.49-2.16l-.73.3s.07.13,0,.15l.62.35c-.6-1.46-1.26-2.91-1.8-4.4-.39-1.1-.66-2.98.85-3.36.57-.14.41-.94-.13-.98-1.75-.14-3.4.76-4.52,2.06-1.28,1.48-1.9,3.36-2.49,5.19l.96.27c.07-.39.68-.56.9-.18.08.14.26.26.43.25.79-.05,1.48-.37,1.99-.98h-.71c1.66,1.71,3.71,2.94,5.99,3.62l.13-.98c-.99-.05-1.95-.28-2.85-.69l.1.79c.31-.28.67-.36,1.07-.27l-.22-.84c-.67.52-1.51.61-2.3.34v.96c.24-.04.42.1.53.29l.18-.68c-.13.1-.29.05-.27-.14l-.37.48c.36-.08.69-.06,1.04.09l.39-.91c-.07-.02-.06-.15-.01-.18h-.5c.34.22.43.53.38.91l.63-.48c-.82-.11-1.4-.65-1.54-1.47l-.13.49c1.16-.93,2.54-1.5,4.01-1.71l-.49-.84c-.57.56-1.21.95-1.98,1.17l.49.84c1.07-1.05,2.5-2.41,4.13-1.96l-.22-.84c-.66.76-1.53,1.16-2.54,1.15l.35.85c1.04-.94,2.08-1.87,3.12-2.81l-.79-.1c.44.66-.62,1.29-1.13,1.47-.8.28-1.62.36-2.46.31l.35.85c.86-.7,1.79-1.26,2.8-1.72l-.68-.68c-.98,1.33-2.64,3.37-4.53,2.36l.18.68c.99-1.45,2.31-2.61,3.85-3.44l-.73-.56c-.08.52-.14,1.25-.56,1.63-.31.28-1.06.26-.84-.29.24-.6.83-1.2,1.21-1.73.41-.58.81-1.17,1.24-1.73.34-.45.78-.95,1.33-1.15.15-.06.72-.13.76.05.02.07-.45.6-.53.7-.82,1.04-1.78,1.96-2.85,2.73l.73.56c.22-.72.48-1.42.82-2.09.14-.28.29-.57.47-.83.14-.2.38-.56.48-.25.16.47-.69,1.27-.92,1.57-.5.63-1,1.26-1.5,1.9-.22.28-1.23,1.64-1.46.81-.13-.48.4-1.12.65-1.47.87-1.17,1.9-2.21,3.03-3.12l-.49.13c1.5.59-.88,3.35-1.31,3.99-.71,1.04-1.65,2.84-3.08,2.95h-.17c-.24-.04-.29-.04-.15,0,0,.12.16-.29.18-.34.11-.35.24-.7.39-1.03.27-.61.6-1.19.98-1.74.82-1.19,1.88-2.18,3.1-2.95l-.73-.56c-.98,2.71-2.57,5.14-4.64,7.13l.49-.13c-1.54-.43.37-3.39.81-4.16.73-1.25,1.67-2.44,3.08-2.93l-.62-.62c-.37,2.3-1.32,4.52-2.83,6.3-.17.2-.43.6-.71.33-.12-.12-.17-.43-.2-.59-.07-.41-.01-.84.12-1.23.31-.87,1-1.52,1.91-1.67l-.56-.23c.45,1.01-.05,2.1-.65,2.93-.27.37-.67.92-1.09,1.14-.54.28-.57-.24-.51-.65.15-.93.91-1.89,1.47-2.62.31-.39.66-.91,1.07-1.19s.31.09.18.37c-.12.25-.26.49-.4.73-.43.75-1.1,1.79-2.08,1.81-.38,0-.81-.14-1.07-.42-.38-.4-.17-.82.12-1.21s.61-.77.96-1.11c.24-.23,1.03-.94,1.42-.76s-.32.95-.46,1.15c-.34.47-.74.94-1.18,1.33-.32.28-1.35.85-1.15-.05.11-.49.47-.95.75-1.35.64-.94,1.41-1.85,2.56-2.11l-.62-.62c-.55,2.57-2.31,4.7-4.72,5.75l.75.43c.06-2.02,1.16-3.87,2.89-4.91l-.73-.56c-.63,1.55-1.62,2.91-2.87,4.03l.85.35c.04-1.44,1.11-2.63,2.51-2.91l-.62-.62c-.15.6-.35,1.17-.63,1.72-.13.24-.27.48-.42.71s-.56.56-.4.82c-.22-.37,0-1.2.13-1.57.2-.6.56-1.1,1.02-1.52l-.84-.22c.11.68.03,1.32-.21,1.96-.2.55.63.85.91.39.24-.38.56-.57.99-.65.63-.12.36-1.08-.27-.96h0Z"/>
          <path class="cls-5" d="M69.78,35.22c-.05.95.46,1.88,1.27,2.38.37.23.85-.15.73-.56-.4-1.4-1.18-2.68-2.24-3.68-.29-.27-.7-.13-.84.22-.3.77-.21,1.63.12,2.38s.95,1.34,1.71,1.64c.29.12.66-.18.63-.48-.13-1.51-.94-2.89-2.22-3.71-.29-.19-.8.05-.75.43.19,1.46.89,2.83,2.05,3.76.16.13.35.19.55.1.17-.08.32-.26.31-.46-.09-1.28-.66-2.5-1.62-3.37-.3-.27-.69-.13-.84.22-.5,1.24.05,2.74,1.17,3.44.23.14.55.05.68-.18s.05-.54-.18-.68c-.05-.03-.11-.07-.16-.11.07.05-.07-.06-.08-.08-.05-.04-.09-.09-.13-.14-.01-.01-.12-.16-.07-.09-.08-.1-.14-.21-.2-.33,0-.02-.08-.19-.05-.1-.02-.05-.04-.11-.06-.16-.04-.12-.06-.23-.08-.35.02.1,0-.09,0-.11,0-.06,0-.13,0-.19s0-.13.01-.19c0,.1.02-.08.02-.1.03-.13.07-.25.11-.37l-.84.22c.77.7,1.26,1.67,1.33,2.66l.85-.35c-.51-.41-.88-.85-1.19-1.4-.16-.29-.26-.5-.36-.79-.05-.15-.09-.3-.13-.45-.02-.07-.03-.14-.05-.22,0-.05-.02-.09-.02-.14,0-.01-.02-.12,0-.06l-.75.43c.47.31.89.74,1.18,1.23.08.13.15.26.21.4.06.13.08.19.14.35.05.15.09.31.13.46.01.07.03.14.04.21.01.08,0,0,0,.05,0,.04,0,.09.01.13l.63-.48c.08.03-.02,0-.03-.01-.03-.02-.07-.03-.1-.05-.07-.04-.13-.08-.2-.12,0,0-.13-.09-.05-.03-.03-.02-.06-.05-.09-.07-.06-.05-.11-.1-.17-.16s-.1-.11-.15-.17c-.03-.04.03.05-.02-.03-.02-.03-.04-.06-.07-.1-.09-.14-.17-.28-.23-.43.03.07,0,0-.01-.03-.01-.04-.03-.07-.04-.11-.02-.07-.04-.15-.06-.23s-.03-.15-.04-.23c.01.1,0,0,0-.03,0-.04,0-.08,0-.12,0-.08,0-.15,0-.23,0-.05,0-.09.01-.14,0-.1,0,.03,0-.03.03-.16.07-.32.13-.47l-.84.22c.95.89,1.63,2,1.99,3.23l.73-.56c-.26-.16-.45-.36-.6-.65-.02-.03-.03-.06-.05-.09-.06-.14.02.07-.03-.07-.02-.08-.05-.15-.07-.23-.01-.04-.02-.09-.03-.13.01.07,0-.03,0-.05,0-.1,0-.19,0-.29.01-.27-.24-.5-.5-.5-.28,0-.49.23-.5.5h0Z"/>
          <g>
            <path class="cls-4" d="M76.13,37.23s-3.28-1.03-2.62-4.49-1.12-8.05-6.74-5.06-5.43,9.36-.47,12.45"/>
            <path class="cls-4" d="M67.8,42.66c-.28.19-3.08-.84-3.13,2.34s3.13,2.15,3.13,2.15c0,0-3.46,9.08,5.9,21.91-1.12,2.34.75,3.18.75,3.18v4.4s-4.03,1.22-3.56,3.37,3.56,2.06,3.56,2.06c0,0-.05,1.95-1.4,4.68-1.81,3.66-.82,8.39,3.74,6.79,0,0-1.22,8.1,3.65,10.53s6.08-.94,6.08-.94"/>
            <path class="cls-4" d="M89.79,103.04s1.31,4.29,4.49,1.91,5.43-8.35,4.96-16.78c0,0,.47,1.77,2.25,1.11s1.78-8.5-5.24-15.91c-3.37-3.56-.63-7.29-.63-7.29"/>
            <path class="cls-4" d="M84.36,63.44c0,.34,3.27,3.23,9.21,2.89,5.56-.32,9.24-3.06,11.04-4.1.35-.2.76-.23,1.13-.08,1.62.66,6.2,2.42,8.49,2.24,5.15-.39,6.97-4.88,5.18-8.41"/>
            <path class="cls-4" d="M99.53,49.87c0,.37-1.12,2.9,2.25,4.77s8.33,4.31,12.45,2.71,4.68-3.49,4.68-3.49"/>
            <path class="cls-4" d="M73.52,34.49s4.2-4.37,6.45-4.18c-.62-3.12,1.68-4.01,3.74-1.12"/>
            <path class="cls-4" d="M83.81,29.06s.33-3.06,2.57-2.96c1.77.08,1.73,2.96,1.73,2.96"/>
            <path class="cls-4" d="M90.26,29.09s1.59-1.78,3.09-.75.75,2.62.75,2.62c0,0,6.74.28,10.11,9.55,9.45,1.31,13.38.65,15.92.94,2.59.29,3.65,3.06,2.9,9.17-.78,6.32-4.29,4.85-5.11,4.6"/>
            <path class="cls-4" d="M101.26,35.17s6.24-4.28,1.22-8.46-6.35,1.3-6.35,1.3"/>
            <path class="cls-4" d="M114.59,46.97c.19.03,4.34.34,5.06,2.9,0,0,.81-2.25,1.62-2.47"/>
            <ellipse class="cls-4" cx="89.5" cy="45.94" rx="4.9" ry="6.33" transform="translate(-10.98 50.9) rotate(-30)"/>
            <path class="cls-4" d="M71.6,78.19c-.15.14-7.28-4.54-8.15-16.65-.87-12.11-5.05-11.3-7.18-10.12-4.48,2.47-7.22,16.82-9.92,16.93-1.87.19-4.82-19.81-9.3-20.53-3.87-.62-7.36,9.8-7.36,9.8,0,0-12.11,35.26-11.55,40.07-.02,1.56.5,2.43.5,2.43"/>
            <path class="cls-4" d="M19.51,102.04c.06.19,4.24,6.55,4.49,9.61s-2.27,7.91-2.62,8.86"/>
            <path class="cls-4" d="M21.39,123.39s4.62,18.04,3.74,20.91c-1.11.75-2.18,5.12-1.5,7.3s3.37,3.56,3.62,3.49,3.62.69,4.87,0-1.46-4.62-3-5.31c-2.22-1-3.4,2.34-3.06,2.93"/>
            <path class="cls-4" d="M23.26,77.25s-18.29-1.85-7.24-21.2c0,0,1.31-1.87.25-3.81s-4.81,2.81-4.81,2.81c0,0-7.61,10.4-2.93,18.9s13.77,6.43,13.77,6.43"/>
            <path class="cls-4" d="M16.46,55.15s4.2.81,5.59-.42c1.73-1.54-.22-2.28-.71-2.25,0,0,7.14-3.53,4.03-5.15-1.17-.61-3.32,1.92-3.32,1.92,0,0,5.02-3.68,3.83-6.18s-5.87,2.69-6.62,4.72"/>
            <path class="cls-4" d="M12.52,53.84c-.24-.48.49-5.86,2.62-8.47,1.37-1.68,2.88-1.97,3.86-1.94,1.07.04,1.94,1,1.71,2.05,0,.01,0,.02,0,.04"/>
            <path class="cls-4" d="M92.19,105.67s-7.86,8.59-15.6,10.46c0,0,.31,15.35-3.31,17.79v10.3s3.62,2.25,3.99,3.68c2.53.58,4.58,3.39,4.49,4.99-.08,1.4-5.37.94-5.37.94,0,0-1.62-5.37-4.99-4.43s-2.31,3.93-2.31,3.93"/>
            <path class="cls-4" d="M76.4,153.83s.5,1.56.12,1.93-3.93.29-3.93.29c-.33-.24-5.39.41-6.18-3.03-.92-4,2.06-6.86,2.53-6.99,0,0,.03-12.17,0-12.36s-2.46-2-1.78-16.41c0,0-3.56-2.93-4.24-6.86"/>
            <path class="cls-4" d="M76.59,116.13s2.93-2.43,3.43-6.05"/>
            <path class="cls-4" d="M90.81,107.07c-.09.09-5.73,11.99-10.79,15.8,0,0,1.31,9.61-3.43,14.04l-.5,6.93c.54-.56,5.79,1.69,6.49,3.37,0,0,3.18-.6,4.68.65s2.22,4.53,2.22,4.53c.04.41-3.03-.35-4.13-.49"/>
            <path class="cls-4" d="M36.11,147.21l-2.53-.81s-2.71-2.43-4.21-7.01,1.12-18.35,1.12-18.35c4.87-3,5.52-3.65,9.64-8.52,11.05,10.86,25.52,3.22,25.52,3.22"/>
            <path class="cls-4" d="M50.52,117.99c.16.03-1.96,6.03-7.01,7.06,0,0-4.77,1.12,0,18.07,0,0,2.53,1.87,3.09,2.71s3.37,1.03,4.49,3,1.78,3.84,1.78,3.84c0,0-3.65-.1-5.15-.61"/>
            <path class="cls-4" d="M41.52,153.58s-4.28.7-5.12-3.05,1.68-6.09,1.68-6.09c2.32-12.35-3.9-25.38-5.17-24.93"/>
            <path class="cls-4" d="M69.87,38.41c.08.11,2.36-1.15,2.38-1.06s-1.96-4.9-3.65-4.44,1.08,5.26,1.27,5.5Z"/>
          </g>
        </g>
      </g>
    </g>
  </g>
</svg>