<?xml version="1.0" encoding="UTF-8"?>
<svg id="zoo" xmlns="http://www.w3.org/2000/svg" xmlns:xlink="http://www.w3.org/1999/xlink" viewBox="0 0 132 132">
  <defs>
    <style>
      .cls-1 {
        fill: #9fc7ff;
      }

      .cls-2 {
        fill: #fff;
      }

      .cls-3, .cls-4 {
        fill: none;
      }

      .cls-5 {
        clip-path: url(#clippath-1);
      }

      .cls-6 {
        fill: #aaffcd;
      }

      .cls-7 {
        fill: #ff9676;
      }

      .cls-8 {
        fill: #1d1d1b;
      }

      .cls-4 {
        stroke: #501a36;
        stroke-linecap: round;
        stroke-linejoin: round;
      }

      .cls-9 {
        clip-path: url(#clippath);
      }
    </style>
    <clipPath id="clippath">
      <circle class="cls-3" cx="65.79" cy="66" r="63.91"/>
    </clipPath>
    <clipPath id="clippath-1">
      <circle class="cls-3" cx="66.09" cy="238.09" r="63.91"/>
    </clipPath>
  </defs>
  <g id="crab">
    <g class="cls-9">
      <g>
        <rect class="cls-1" x="-42.82" y="-51.87" width="226.03" height="226.03"/>
        <g>
          <path class="cls-7" d="M86.84,63.8c-7.76,1.75-11.56,12.04-3.77,16.69,3.76,2.25,8.73.78,11.07-2.73,2.22-3.32,2-6.73.32-10.21v7.57c3.92-5.63,6.77-16.36-.84-20.35l3.45,8.47.36-1.74-9.23,5.24c3.2.62,6.17.69,9.31-.32l-9.23-9.23.17.29,11.78,9.09.92-1.22c5.4-7.19-5.75-14.3-11.78-9.09s-13.35,15.94-3.57,21.46c3.18,1.8,5.89,4.34,6.81,8.11.97,3.97-3.06,4.24-6.38,4.63-4.98.58-9.87-.68-14.94.03s-9.85,1.09-14.81.33c-2.04-.31-4.08-.79-6.01-1.5l.2,1.27c.15-.77.26-1.55.36-2.33.09-1.25.04-2.37-.29-3.6-.61-2.26-1.88-3.98-3.81-5.29-.7-.47-1.92-1.46-2.82-1.45-1.07.01-.65-1.44-.03.79v3.99c-1.13,1.7-1.02,1.76.31.19.72-.75,1.46-1.49,2.22-2.2,1.45-1.29,2.95-2.41,4.76-3.16,3.21-1.34,7.26-2.19,10.73-2.03,3.68.16,7.27,1.41,11,1.63,3.12.19,6.69-.32,9,2.13v-10.61c-1.31,1.46-4.03.68-5.93.67-3.06-.01-6.15.34-9.15.96-5.58,1.16-10.91,3.69-15.46,7.1-3.52,2.64-5.57,8.33-1.52,11.78,4.84,4.11,10.8,10.24,17.66,9.93,5.72-.26,15.8-2.91,18.33-8.53,2.03-4.52.48-9.4-4.48-11.02-5.46-1.78-10.46-4.9-16.11-6.1-6.89-1.46-13.25.55-20,1.7-5.79.99-6.91,8.81-3.31,12.54,2.71,2.81,5.82,5.77,9.28,7.64,4.78,2.58,9.45,1.82,14.59,1.06,7.81-1.15,18.68-.94,24.01-7.81,2.85-3.68,3.12-9.18-1.52-11.78-3.7-2.07-7.25-3.02-11.47-3.2-6.53-.28-9.85,8.38-5.3,12.8s9.55,9.63,16.03,9.23c6.06-.38,11.67-5.87,12-11.85.29-5.34-5-7.93-9.49-7.23-1.45.22-2.62.76-3.87,1.51-4.24,2.55-4.84,8.24-1.52,11.78,8.26,8.81,19.65-3.9,23.77-10.55,3.55-5.74-2.3-12.52-8.47-11.02-15.68,3.83-31.36,8.22-47.64,7.69l7.23,5.51c-2.55-6.43-6.99-9.85-11.76-14.56-2.13-2.1-3.72-4.62-6.07-6.5-2.88-2.32-6.3-3.51-9.83-4.51v14.46l1.42-.23h-3.99l1.39.36c9.35,2.42,13.34-12.05,3.99-14.46-2.44-.63-4.34-.53-6.8-.13-7.64,1.23-6.63,12.59,0,14.46,4.67,1.32,5.95,3.87,9.28,7.15,2.4,2.37,6.62,4.7,7.91,7.94s3.65,5.39,7.23,5.51c17.58.58,34.7-4.09,51.62-8.22l-8.47-11.02c-.79,1.28-3.09,5.93-5.13,5.74l5.3,2.2-.39-.41-1.52,11.78h.29c-3.16-2.41-6.33-4.82-9.49-7.23l-.05.85,1.02-3.79c-.56.32-1.15.59-1.76.81l3.79-1.02c-1.08.05-4.66-4.08-5.43-4.83l-5.3,12.8c1.56.07,2.55.4,3.9,1.16l-1.52-11.78c-2.55,3.29-10.02,2.87-13.79,3.42-2.18.32-5.19,1.39-7.19.64s-4.22-3.44-5.68-4.96l-3.31,12.54c5.22-.89,9.8-2.59,15-.89,4.49,1.47,8.63,3.82,13.13,5.29l-4.48-11.02c2.38-1.35,2.45-1.6.21-.74l-1.61.49c-1.07.33-2.14.66-3.22.98-1.49.31-1.84.44-1.02.37.53.11-2.02-1.68-2.53-2.07-1.46-1.11-2.86-2.28-4.26-3.47l-1.52,11.78c4.82-3.61,10.14-5.94,16.23-6.01,6.49-.07,12.6.21,17.34-5.07,2.77-3.08,2.91-7.53,0-10.61-5.43-5.75-12.25-5.93-19.61-6.53-3.71-.3-7.24-1.58-11-1.63-4.07-.06-8.45.72-12.35,1.82-7.07,2-14.17,6.63-18.39,12.78-2.46,3.59-2.55,7.77-.06,11.38,1.01,1.46,2.43,2.74,3.93,3.68.67.46,1.39.83,2.15,1.12,2.85,1.47,2.53.8-.94-2.01v-3.99c-.88,5.21-1.12,9.78,2.7,14,3.4,3.76,8.55,5.18,13.36,6.01,5.67.99,11.34,1.21,17.06.5,3.16-.39,6.14-.96,9.33-.75,2.89.2,5.51.6,8.43.28,10.1-1.09,19.93-5.77,20.51-17.13.25-4.91-1.58-9.76-4.2-13.84-1.29-2.01-2.76-4.06-4.48-5.71-1.49-1.43-4.21-2.29-5.43-3.71l2.2,5.3.02-.77-1.02,3.79c1.14-2.62,2.94-4.53,5.09-6.38l-11.78-9.09-.92,1.22c-5.07,6.74,6.53,15.79,11.78,9.09,1.73-2.21,3-4.16,3.69-6.91,1.32-5.32-3.61-11.04-9.23-9.23-.7.7-1.14.8-1.34.32-3.77-.73-8.36,1.02-9.23,5.24l-.36,1.74c-.65,3.15.4,6.87,3.45,8.47l.77.4-3.45-4.48c.31,1.16-1.28,3.08-1.86,3.91-1.59,2.27-1.12,5.26,0,7.57l.42.87-.76-5.78.02-.03,6.48-3.71-.81.04,5.3,2.2-.59-.73,2.2,5.3.03-.95-2.2,5.3-.77.62c9.41-2.13,5.43-16.59-3.99-14.46h0Z"/>
          <path class="cls-7" d="M33.86,74.58c-2.08-1.78-4.68-1.93-7.22-2.6-2.31-.61-4.24-1.32-6.14.67-3.15,3.31.88,7.95,4.69,5.75,1.12-.64,1.77-2.13,1.38-3.39-.88-2.85-2.94-3.36-5.63-4.12-3.12-.89-4.68,2.82-2.92,5.01,1.86,2.31,5.61,4.25,8.15,1.61,1.98-2.06.84-5.28-1.4-6.5-3.34-1.82-6.5,1.24-8.65,3.51-3.53,3.71-6.29,8.04-10.75,10.75l3.64,4.71c.61-.56,1.22-1.12,1.84-1.68,2.85-2.61-1.4-6.85-4.24-4.24-.61.56-1.22,1.12-1.84,1.68-2.52,2.31.73,6.47,3.64,4.71,2.75-1.66,5.03-3.71,7.15-6.11.98-1.1,1.9-2.25,2.86-3.37.63-.75,1.28-1.48,1.95-2.2,1.44-.96,1.71-2.35.8-4.17l2.1-2.1c-.5.15-.83-.13-.99-.83l-2.92,5.01c.67.57,1.15.55,1.43-.07l1.38-3.39-.52.3h3.03l.51.85-.77,2.92c-.36.44,5.12,1.46,5.2,1.53,2.91,2.5,7.18-1.72,4.24-4.24h0Z"/>
          <path class="cls-7" d="M29.46,80.05c-1.33.84-2.58,1.41-4.18,1.59l.8,5.89,1.46-.58c2.88-1.13,2.87-6.16-.8-5.89-3.18.24-5.85.99-8.65,2.53-1.14.63-1.75,2.14-1.38,3.39.84,2.81,3.65,5.77,6.77,3.65,2.61-1.78,2-5.38-.68-6.64-2.48-1.17-6.37-.5-7.3,2.38s1.4,5.82,4.43,4.96c7.41-2.09-1.33-12.95-5.19-5.59-.94,1.78-.12,2.98-.17,4.71s-.89,3.59-.84,5.5c.11,4.07,1.92,7.76,4.79,10.58s7-1.53,4.24-4.24c-2.27-2.23-3.44-5.1-2.87-8.31.18-1.01.71-1.96.78-2.98.08-1.33-1.01-5.88-2.61-5.36l2.31.3.77.79-.3,2.31-1.18-.07v-3.03l2.85-.54-1.38,3.39c1.95-1.07,3.4-1.55,5.62-1.71l-.8-5.89-1.46.58c-2.84,1.12-2.86,6.32.8,5.89,2.69-.31,4.9-.96,7.2-2.41,3.26-2.05.25-7.24-3.03-5.18h0Z"/>
          <path class="cls-7" d="M34.99,87.17c-6.17.26-4.91,8.35.76,8.64,1.02.05,2.1-.6,2.59-1.49,1.85-3.33-.71-6.94-4.5-6.75s-5.94,3.93-4.56,7.31c.65,1.61,2.67,3.05,4.41,1.79l.53-.38c1.18-.85,1.63-1.96,1.38-3.39l-.12-.69c-.18-1-1.16-1.84-2.1-2.1-5.64-1.51-6.83,5.9-3.74,9.27.73.79,1.91,1.02,2.92.77,4.28-1.06,3.56-8,.07-9.65-4.89-2.33-6.74,3.96-4.55,7.32,1.52,2.33,4.51,1.64,5.48-.72,1.07-2.61,1.04-6-1.96-7.33-2.32-1.03-4.85.08-5.73,2.45-1.75,4.68,4.18,10.93,7.7,5.77,2.77-4.06-2.62-11.11-6.64-7.09-2.14,2.14-1.5,6.24-1.06,8.92.73,4.46,2.72,8.6,4.71,12.62,1.72,3.46,6.89.42,5.18-3.03-1.22-2.47-2.44-4.95-3.26-7.58-.4-1.29-1.94-6.07-1.11-6.9l-2.12.88.39-2.05,2.12.88c-.14,0-.28-.02-.41-.05l-2.12.88-1.47.04,5.48-.72-1.34,1.19-2.92-.77.53.45,1.79-1.38-.35.09,2.92.77c.21-.24.05-.15-.47.27l-2.31.3.69.18-2.1-2.1.12.69,1.38-3.39-.53.38,4.41,1.79-.8.54-1.38-1.79.36.87.3-2.31-.39.7,2.59-1.49h.53c.1.78.2,1.55.3,2.32l-.11.19-2.12.88.64-.03c3.85-.16,3.87-6.16,0-6h0Z"/>
          <path class="cls-7" d="M110.12,93.64c.09-2.09-.77-3.48-2.53-4.53-1.97-1.18-4.5.34-4.51,2.59-.02,2.66.83,4.65,2.45,6.71s5.18.3,5.12-2.12-.77-4.22-1.83-6.3c-1.35-2.65-5.69-1.4-5.59,1.51.12,3.63,1.7,6.37,4.7,8.39l-1.08-4.1c-2.1,4.26-4.57,8.26-7.43,12.06-2.33,3.08,2.88,6.08,5.18,3.03,2.86-3.8,5.33-7.8,7.43-12.06.75-1.53.35-3.15-1.08-4.1-1.17-.79-1.68-1.81-1.73-3.21l-5.59,1.51c.68.99,1.01,2.08,1.01,3.27l5.12-2.12c-.59-.73-.82-1.55-.69-2.47l-4.51,2.59-.44-.65c-.16,3.86,5.84,3.85,6,0h0Z"/>
          <path class="cls-7" d="M105.84,93.84c-.12.85-.18,1.28,0,2.12.1.44.28.87.51,1.25.63,1.02,1.52,1.67,2.64,2.06l.8.11c.41.02.8-.07,1.16-.26.56-.24,1.16-.66,1.43-1.23.54-1.11.75-2.31.33-3.5-.23-.67-.55-1.27-1.06-1.78-.58-.57-1.07-.79-1.81-1.09-.67-.28-1.72-.05-2.31.3s-1.22,1.08-1.38,1.79c-.17.77-.14,1.63.3,2.31l.47.61c.37.37.82.63,1.32.77l.09.04-.72-.3c.09.05.17.09.25.15l-.61-.47c.08.07.14.13.21.21l-.47-.61c.08.11.15.21.21.33l-.3-.72c.06.16.11.31.13.47l-.11-.8c0,.1,0,.19,0,.29l.11-.8c-.02.13-.05.25-.1.38l.3-.72-.04.09,3.39-1.38-.1-.03.72.3c-.13-.06-.25-.12-.36-.21l.61.47c-.11-.09-.21-.19-.3-.3l.47.61c-.08-.12-.15-.24-.21-.37l.3.72c-.05-.13-.09-.27-.11-.41l.11.8c0-.11-.01-.21,0-.32l-.11.8v-.1c.13-.84.16-1.55-.29-2.31-.36-.62-1.08-1.22-1.79-1.38-.77-.17-1.63-.14-2.31.3-.61.39-1.28,1.04-1.38,1.79h0Z"/>
          <path class="cls-7" d="M106.6,79.7l-.63.19c-3.11.96-2.71,6.09.8,5.89,4.3-.24,8.45-.43,12.08,2.26l2.31-5.48c-3.73-.83-6.5-3.37-10.45-3.62-2.84-.18-4.27,4.41-1.51,5.59,3.09,1.32,8.95,1.21,8.45,5.7l5.89-.8c-.26-1.72-.83-3.18-1.76-4.64-1.78-2.82-6.43-1.05-5.48,2.31s1.77,6.43,2.26,9.75l5.79-1.6c-1.19-3.36-2.18-6.76-2.99-10.23l-5.48,2.31c1.85,3.49,1.67,8.33,2.12,12.18s6.26,3.92,6,0c-.31-4.74-.3-9.66-.97-14.37-.59-4.15-4.09-4.17-7.63-4.62-3.82-.49-3.78,5.52,0,6,1.22.16,2.33.26,3.5.67l-1.79-1.38c-.34-.63.1,1.82.13,2.2.08,1.28.17,2.56.25,3.83.17,2.56.34,5.11.51,7.67h6c-.59-5-.54-10.67-2.94-15.21-1.64-3.09-6.23-.92-5.48,2.31.81,3.47,1.8,6.87,2.99,10.23,1.31,3.71,6.35,2.18,5.79-1.6-.5-3.32-1.35-6.53-2.26-9.75l-5.48,2.31c.68,1.08.97,1.95,1.15,3.21.54,3.62,5.55,2.26,5.89-.8.31-2.76-.64-5.5-2.69-7.41-2.5-2.33-5.75-2.21-8.73-3.47l-1.51,5.59c3.12.2,5.78,2.73,8.86,3.41,3.46.77,5-3.49,2.31-5.48-4.45-3.29-9.79-3.37-15.11-3.08l.8,5.89.63-.19c3.68-1.13,2.11-6.93-1.6-5.79h0Z"/>
          <path class="cls-7" d="M106.28,69.66l-1.78.61c-3.71,1.27-2.18,6.4,1.6,5.79,4.5-.73,8.98-1.07,13.54-1.11,3.97-.03,3.73-5.55,0-6s-7.85.35-11.73-.4l1.32,5.01c1.47-1.19,5.94.6,7.91.81,3.33.35,4.14-5.35.8-5.89-2.32-.38-4.64-.76-6.96-1.14l1.32,5.01c1.13-.93,2.33-1.21,3.59-.86,1.1.45,1.29.14.57-.95l3.69-2.1c-3.01-.81-6.67.04-7.07,3.72-.34,3.16,3.15,5.71,5.94,4.1,5.94-3.43-3.37-11.9-5.91-3.11-.57,1.96.99,3.69,2.89,3.8,3.48.19,5-2.47,5.05-5.65l-5.12,2.12c2.29,2.79,4.57,5.59,6.86,8.38s6.32-.75,4.71-3.64c-1.43-2.56-3.12-4.77-5.2-6.84-2.33-2.31-6.85.86-4.71,3.64,3.27,4.24,6.65,8.39,10.19,12.41,2.56,2.9,6.79-1.35,4.24-4.24-3.2-3.64-6.3-7.36-9.26-11.2l-4.71,3.64c1.73,1.72,3.08,3.5,4.26,5.62l4.71-3.64c-2.29-2.79-4.57-5.59-6.86-8.38-1.72-2.11-5.08-.28-5.12,2.12l.95-.35,2.89,3.8-1.15.43-2.59-1.49.52-2.44h3.03l.28.11-.77,2.92.35-.06c1.54.42,3.29-.52,3.69-2.1,2.1-8.26-10.11-7.47-14.19-4.03-1.64,1.38-.84,4.66,1.32,5.01,2.32.38,4.64.76,6.96,1.14l.8-5.89c-4.76-.5-8.05-2.37-12.16.95-1.71,1.38-.78,4.61,1.32,5.01,4.45.86,8.86.07,13.32.61v-6c-5.09.04-10.11.51-15.13,1.32l1.6,5.79,1.78-.61c3.63-1.24,2.07-7.04-1.6-5.79h0Z"/>
          <path class="cls-7" d="M80.26,36.78c-.31,1.24-.41,1.94-.38,3.22.08,3.46,4.81,3.98,5.89.8.23-.67.46-1.34.68-2.01,1.09-3.2-3.92-5.33-5.48-2.31-1.42,2.75-2.77,7.36.47,9.45s6.57-.81,7.16-3.93c.54-2.83-1.4-6.42-4.74-5.5s-4.63,6.1-2.95,8.76c4.49,7.12,14.62-4.47,7.35-7.58-3.15-1.35-6.15,1.97-5.36,5,.98,3.76,5.38,3.66,7.71,1.26,1.68-1.73.76-4.23-1.32-5.01-8.52-3.21-9.91,11.31-1.49,9.52.92-.2,1.94-1.14,2.1-2.1,1.01-6.39-7.79-6.79-7.92-.77-.06,2.54,1.63,5,4.24,5.28,3.14.34,4.79-2.09,5.75-4.74.35-.96-.05-2.23-.77-2.92-2.93-2.78-6.41-2.71-9.46-.16-.96.8-1.16,2.61-.47,3.64,2.09,3.13,6.03,5.37,9.79,3.55,3.25-1.57,3.18-5.05.54-7.03-.99-.74-2.84-.45-3.64.47-4.48,5.15,1.89,9.01,6.85,7.73,2.06-.53,3.07-3.53,1.32-5.01-1.57-1.34-2.55-1.76-4.61-1.11-2.65.84-2.74,3.96-.72,5.48,1.73,1.31,3.28,1.72,5.42,1.46l-2.89-2.2c.31,1.3.61,2.61.92,3.91.65,2.75,5.29,2.97,5.79,0,.32-1.91.53-3.77.59-5.72.08-2.47-3.43-4.13-5.12-2.12l-.86,1.03,4.71,3.64c1.68-2.49,3.64-4.49,5.99-6.34,1.85-1.45.64-4.45-1.32-5.01-4.47-1.28-5.43,2.35-7.58,5.24-.6.81-.53,2.21,0,3.03,5.01,7.74,15.35-5.71,8.59-11.49-1.18-1.01-3.09-1.28-4.24,0-2.2,2.43-3.55,4.86-4.25,8.08-.27,1.25.17,2.76,1.38,3.39,8.51,4.44,14.76-6.53,8.87-13.25-2.09-2.39-5.48-1.75-7.34.67-2.75,3.58-.23,7.55,2.54,10.09,1.25,1.15,2.98,1.11,4.24,0,2.64-2.31,4.78-4.32,3.46-7.87-.93-2.5-2.55-4.68-5.11-5.59-5.54-1.98-9.1,3.64-6.78,8.36.97,1.99,4.19,1.93,5.18,0,1.87-3.64,1.01-7.85-2.42-10.31-4.64-3.32-11.43-2.06-16.5-.7l2.31,5.48c1.6-1.15,3.19-1.25,4.75-.29-1.95,2.75,2.61,6.33,4.71,3.64l-1.06,1.25c-1.56,2.98,2.2,6.06,4.71,3.64,1.48-1.43,2.97-2.86,4.45-4.3.9-.87,1.2-2.56.47-3.64-3.8-5.53-9.57-7.92-16.17-6.89l2.31,5.48c2.21-1.5,4.4-2.25,7.12-1.96.97.1,6.09,1.37,5.85,2.76h5.79c-.61-1.64-1.29-3.17-2.13-4.71l-4.71,3.64c1.56,1.46,2.17,3.25,1.83,5.36-.47,3.39,3.37,5.13,5.48,2.31l1.1-1.46-5.18-3.03-3.16,4.96c-2.08,3.26,3.11,6.28,5.18,3.03l3.16-4.96c2.13-3.33-2.92-6.03-5.18-3.03l-1.1,1.46,5.48,2.31c.6-4.39-.34-7.91-3.38-11.2-2.36-2.56-6.32.71-4.71,3.64.63,1.03,1.14,2.12,1.52,3.27.92,2.46,5.24,3.21,5.79,0,1.88-11.14-15.35-11.95-21.79-7.57-2.92,1.98-1.02,6.01,2.31,5.48,3.76-.59,7.25,1.02,9.39,4.13l.47-3.64c-1.48,1.43-2.97,2.86-4.45,4.3l4.71,3.64c1.55-2.97,2.21-6.78-.67-9.21-2.3-1.94-5.85-1.67-7.69.69l4.71,3.64c1.97-2.78,1.24-6.33-1.6-8.26-3.44-2.33-7.94-1.4-11.36.34-3.08,1.57-.92,6.35,2.31,5.48.81-.22,14.74-2.87,12.15,2.2h5.18c.88,1.8.48,2.6-.99,3.88h4.24c-.72-.62-1.4-1.29-2.04-2.01l-2.59-1.49c1.49,1.59,1.27,3.27-.66,5.04l1.38,3.39c.47-2.17,1.18-3.75,2.71-5.43h-4.24c.46,1.04.39,1.94-.23,2.7-.71.74-.36,1.24,1.07,1.52v3.03c.11-.14,1.79-2.2.8-2.48l-1.32-5.01c-2.78,2.19-4.96,4.63-6.93,7.55s2.51,6.26,4.71,3.64l.86-1.03-5.12-2.12c0,1.39-.12,2.76-.38,4.12h5.79c-.31-1.3-.61-2.61-.92-3.91-.27-1.15-1.64-2.35-2.89-2.2l-2.39-.64-.72,5.48.94-.3-2.92-.77.75.64,1.32-5.01-1.01,2.3-3.64.47.5.37-1.49-2.59.02.67,1.49-2.59-2.64-.59-.47,3.64.97.16-.77-2.92,1.06,2.44-2.92-.77.7.62-.77-2.92-.14.87,2.1-2.1,1.49,2.05-1.32-5.01,1.54,3.61-2.92-.77,1.79-1.03-2.92.77c1.65-.04,2.41-.97,2.29-2.78l-5.48-2.31c-.23.67-.46,1.34-.68,2.01l5.89.8.16-1.63c.94-3.75-4.85-5.34-5.79-1.6h0Z"/>
          <path class="cls-7" d="M13.61,38.95l-.68.33,4.1,4.1c.51-.73,1.01-1.45,1.52-2.18,1.62-2.32-1.04-4.89-3.39-4.41-1.1.22-1.66.47-2.64,1.03l4.1,4.1,1.64-1.01-.8-5.89c-5.69,1.71-15.2,6.29-12.87,13.75,2.08,6.64,10.16,8.64,16.22,7.79,3.63-.51,2.25-5.54-.8-5.89l-2.37-4.41c1.08-3.29-3.75-5.17-5.48-2.31s-1.7,5.76.13,8.47c1.05,1.56,3.3,2.08,4.71.61,2.8-2.92,2.77-6.77.09-9.75-1.55-1.72-4.41-.75-5.01,1.32-1.03,3.56.76,6.61,4.25,7.67,2.4.73,4.01-1.56,3.69-3.69l-.17-1.15-5.79,1.6c.67,1.61.97,2.32,2.35,3.41,2.5,1.99,6.58-.48,4.71-3.64-.23-.39-2.44-3.09-2.34-3.31,1.72-3.51-2.93-6.14-5.18-3.03-1.14,1.58-2.42,2.52-4.11,3.4-1.5.78-1.78,2.72-1.08,4.1.8,1.58,1.8,2.55,3.21,3.58.99.73,2.84.46,3.64-.47,3.42-4.01-1.28-11.48-6.45-9.21-6.36,2.79-1.15,10.56,3.35,11.87,1.47.43,3.38-.52,3.69-2.1,1.11-5.73-6.22-8.02-10.43-5.35-1.61,1.02-2.02,3.31-.61,4.71,5.85,5.79,13.36,3.27,20.68,3.82.99.08,2.14-.61,2.59-1.49,1.25-2.42,3.5-5.73,3.53-8.54.03-3.1-2.89-4.15-3.9-6.87l-5.01,2.92c2.25,1.94,2.91,4.29,1.99,7.08l5.89.8c-.28-1.09-.18-2.15.3-3.18l-5.89-.8c0,.43-.6,5.99-.28,6.01l2.59,1.49.51.16c.77-2.39-1.59-4.02-3.69-3.69-.9.14-1.79.28-2.69.42-3.31.51-2.57,6.27.8,5.89,7.31-.82,10.11-7.19,8.31-13.9l-5.01,2.92c1.09.81,1.57,1.94,1.45,3.39-1.78,3.05,2.21,5.82,4.71,3.64,3.84-3.35,3.82-8.9.37-12.5-2.03-2.12-5.95.05-5.01,2.92.32.99.64,1.97.96,2.96,1.19,3.66,6.99,2.09,5.79-1.6-.32-.99-.64-1.97-.96-2.96l-5.01,2.92c1.29,1.34.9,2.91-.37,4.01l4.71,3.64c2.36-4.04.57-7.52-2.38-10.66-2.09-2.22-5.77.09-5.01,2.92.63,2.35.96,5.92-2.53,6.31l.8,5.89c.9-.14,1.79-.28,2.69-.42l-3.69-3.69c-.91,2.8.05,7.15,4.12,5.89s4.87-8.41,4.84-11.94-4.85-3.99-5.89-.8c-.54,1.65-.71,3.04-.52,4.78.36,3.28,4.77,4.17,5.89.8,1.57-4.74.26-9.65-3.53-12.91-2.05-1.77-6.15-.13-5.01,2.92.65,1.76,1.78,2.95,2.59,4.56,1.09,2.16-.52,4.14-1.61,6.24l2.59-1.49c-5.19-.4-12.31,2.02-16.44-2.07l-.61,4.71c1.62.45,2.15-.02,1.61-1.42l3.69-2.1c-2.91.96-3.82.59-2.74-1.11l3.64-.47-1.06-1.43-1.08,4.1c2.67-1.38,4.52-3.13,6.26-5.55l-5.18-3.03c-1.98,4.04.33,5.98,2.34,9.36l4.71-3.64-.8-.76c-1.48-3.57-6.37-2.26-5.79,1.6l.17,1.15,3.69-3.69-.06-.29-5.01,1.32-.09,1.27,4.71.61-.13-2.41-5.48-2.31c-2.06,6.3,1.87,11.29,8.16,12.01l-.8-5.89c-1.28.18-2.66.15-3.91-.17-2.49-.63-3.04-1.08-3.29-3.75-.27-2.83.22-2.91,2.51-4.19,1.44-.81,2.96-1.36,4.54-1.84,3.37-1.01,2.5-5.59-.8-5.89-3.01-.27-5.61,1.22-6.82,3.99-1.14,2.6,1.29,5.73,4.1,4.1l1.2-.42-3.39-4.41c-.51.73-1.01,1.45-1.52,2.18-1.86,2.68,1.66,5.29,4.1,4.1l.68-.33c3.47-1.68.44-6.86-3.03-5.18h0Z"/>
          <path class="cls-2" d="M51.86,59.41c-1.78-1.45-4.52-2.08-5.99.23-1.32,2.08.06,4.56,1.71,5.99,1.43,1.24,3.27,2.03,5.18,1.88,2.8-.22,4.7-2.84,4.1-5.59-.45-2.05-2.11-3.55-3.95-4.4s-4.52-1.42-6.38-.33c-4.63,2.71-.06,10.14,3.57,11.49,1.78.66,3.89.35,5.26-1.03,1.81-1.83,1.39-4.5.09-6.47-1.94-2.95-8.87-6.93-10.13-1.28-.89,3.98,3.24,8.66,6.98,9.37,2.06.4,4.25-.44,5.26-2.34s.54-4.42-.65-6.23c-2.28-3.48-8.65-7.75-11.62-2.62-1.23,2.13-.84,4.88.54,6.83s3.69,3.05,6,3.73c3.71,1.09,5.3-4.7,1.6-5.79-.91-.27-1.95-.54-2.62-1.27-.1-.11-.2-.45-.27-.45-.17,0-.88.48-.13.16l-1.51.41c.69-.09,1.55.69,2.09,1.21.27.26,1.08,1.39,1.18,1.4-.23-.04,1.13-1.23,1.26-.91-.06-.14-.97-.68-1.1-.81-.34-.34-.64-.68-.86-1.11-.15-.14-.21-.29-.2-.46-.13-.77-.22-.55-.28.64l-1.08,1.08.22-.15-1.51.41c.44.02.98.52,1.29.82.24.23.36.49.58.74l.2.38c-.07-.5-.11-.5-.13.01l.41-1.51c.09-.21,1.11-.33,1.13-.38.29.16.23.08-.17-.24-.13-.13-.25-.28-.37-.42-.48-.62-.97-1.29-.92-2.09l-.41,1.51-.08.09-1.32.77c-.45.15.27-.05.5-.02s.35.06.59.13,1.03.68,1.19.68c0,0,1.25-1.87,1.24-1.91-.01-.02-.35-.04-.45-.16-.03-.04-.35-.27-.39-.28-.52-.15-.19-1.01-.18.25l-.41,1.51.13-.21-1.79,1.38-1.64-.4c1.25,1.02,3.02,1.23,4.24,0,1.06-1.06,1.26-3.21,0-4.24h0Z"/>
          <path class="cls-2" d="M60.84,55.52c-1.53.22-2.69,1.73-2.72,3.25s.99,2.84,1.9,3.96c1.84,2.27,5.63,5.73,8.79,4.27s2.82-5.4,1.32-7.91-4.59-4.86-7.65-4.59c-1.57.14-2.78,1.06-3.31,2.54-.65,1.81.28,3.58,1.14,5.16,1.59,2.93,4,5.63,7.42,6.25s6.86-1.54,6.88-5.26c.01-3.3-2.22-6.61-4.66-8.67-6.19-5.21-13.3,2.89-8.93,9.05,1.77,2.5,5.12,4.12,8.18,4.17,3.46.06,5.99-3.04,4.81-6.4-2.05-5.82-13.5-10.69-15.28-2.2-1.24,5.95,5.3,12.79,11.36,10.74,4.15-1.4,3.67-5.84,1.75-8.87s-4.86-5.84-8.27-7.14c-1.58-.6-3.33-.65-4.73.43-1.59,1.23-1.35,3.65-1.05,5.42.63,3.67,3.07,6.91,6.4,8.56s6.49-3.47,3.03-5.18c-2.59-1.28-3.83-3.58-3.56-6.44l-1.49,2.59c-.95.44-.64.2.28.74.39.23.77.47,1.13.74.95.7,1.82,1.58,2.53,2.52.28.38.53,1.09.89,1.38l.32.59c.87-.64,1.06-.96.56-.97-.06-.16-1.91-.88-2.24-1.22-.59-.63-.94-1.37-1.08-2.22v-.34c.08-.39.1-.44.06-.14-.12-.01,1.06.82,1.29.96.52.33,1.02.69,1.49,1.09.28.22.54.47.79.73l1-1.36c-.27-.41-2.27-.65-2.82-1.14-.3-.27-1.32-1.47-.66-1.81.11-.06,1.06.98,1.37,1.35.39.47.77.97,1.05,1.52.19.31.32.64.4.99.03.53.23.51.59-.07-.24-.2-.9-.23-1.23-.42-.45-.25-.83-.65-1.16-1.04-.42-.49-.74-1.07-1.05-1.63-.19-.34-.37-.68-.54-1.03l-2.56,1.93s1.09.42,1.23.51c.37.24.72.56.98.92.18.23.31.48.41.76.31,1.01,1.03.54,2.15-1.39-.13-.31-1.12-.73-1.39-.96-.66-.55-1.85-1.64-1.94-2.29l-.3,2.31.19-.31-1.79,1.38.33-.05c1.62-.24,2.47-2.26,2.1-3.69-.45-1.73-2.09-2.33-3.69-2.1h0Z"/>
          <path class="cls-8" d="M50.29,63.75l.53.88c.19.32.37.66.62.93.42.45,1.16.62,1.7.3.5-.3.68-.81.69-1.36.02-.63-.18-1.31-.55-1.82-.24-.33-.48-.57-.8-.81-.44-.32-1.04-.51-1.54-.21-.9.53-.72,1.66-.34,2.45.15.31.37.59.59.84.27.31.6.58,1,.68.59.14,1.27-.14,1.54-.7.12-.25.19-.5.17-.78-.02-.32-.1-.55-.24-.84-.16-.33-.38-.62-.61-.91-.17-.22-.36-.43-.56-.61-.16-.15-.34-.31-.53-.42-.24-.14-.49-.21-.77-.24-.73-.07-1.33.57-1.34,1.28,0,.45.18.91.36,1.31.16.35.4.67.66.96.35.39,1.06.38,1.41,0,.38-.42.37-1,0-1.41-.05-.06-.1-.11-.15-.17l.16.2c-.16-.21-.29-.43-.39-.67l.1.24c-.08-.19-.15-.39-.18-.6l.04.27c0-.05,0-.1,0-.16l-.04.27s0-.05.02-.07l-.1.24s.02-.05.04-.07l-.16.2s.03-.03.04-.05l-.2.16s.03-.02.05-.03l-.24.1s.06-.02.09-.02l-.27.04s.06,0,.1,0l-.27-.04c.06.01.11.03.17.05l-.24-.1c.07.03.13.07.19.11l-.2-.16c.3.24.57.52.8.82l-.16-.2c.19.25.37.51.49.79l-.1-.24c.03.07.05.15.06.22l-.04-.27c0,.06,0,.11,0,.17l.04-.27s-.02.07-.03.11l.1-.24s-.04.09-.07.13l.16-.2s-.05.05-.08.08l.2-.16s-.04.03-.06.03l.24-.1s-.05.02-.08.02l.27-.04s-.08,0-.12,0l.27.04s-.08-.02-.12-.04l.24.1c-.05-.03-.1-.06-.15-.09l.2.16c-.16-.13-.3-.29-.42-.45l.16.2c-.14-.19-.27-.39-.36-.61l.1.24c-.06-.15-.1-.3-.13-.46l.04.27c0-.07-.01-.14,0-.22l-.04.27s.02-.09.03-.13l-.1.24s.03-.05.04-.08l-.16.2s.02-.03.04-.04l-.2.16s.03-.02.05-.03l-.24.1s.04-.01.06-.02l-.27.04h.04c-.09-.01-.18-.02-.27-.04.03,0,.06,0,.08.02l-.24-.1c.14.06.26.14.38.23l-.2-.16c.13.11.25.23.36.36l-.16-.2c.12.16.22.33.3.51l-.1-.24c.07.17.12.35.15.53l-.04-.27c.02.17.02.34,0,.51l.04-.27c0,.05-.02.1-.04.15l.1-.24s-.03.07-.06.1l.16-.2-.03.03.2-.16s-.04.03-.06.04l.24-.1s-.05.02-.07.02l.27-.04s-.08,0-.12,0l.27.04s-.08-.02-.12-.03l.24.1s-.07-.04-.1-.06l.2.16s-.08-.08-.12-.12l.16.2c-.18-.23-.32-.5-.47-.75l-.49-.81c-.27-.45-.91-.65-1.37-.36s-.65.89-.36,1.37h0Z"/>
          <path class="cls-8" d="M67.32,60.2c.16-.06.19-.07.09-.05l.27-.04s-.07,0-.11,0c-.31-.02-.6.16-.79.39-.2.26-.25.55-.18.87.13.63.56,1.16,1.01,1.59.24.22.49.47.79.61.46.21.98.26,1.44,0,.55-.31.74-.9.65-1.5-.04-.26-.14-.52-.23-.77-.22-.62-.5-1.19-.93-1.7-.25-.29-.57-.55-.94-.65-.55-.15-1.19.09-1.46.6-.22.42-.14.88-.04,1.33.05.23.12.46.21.68.23.57.52,1.12.98,1.55.58.53,1.41.94,2.18.54.46-.24.73-.78.68-1.28-.04-.4-.17-.75-.34-1.12-.24-.53-.63-1-1.02-1.44-.18-.19-.35-.4-.55-.57-.5-.44-1.23-.54-1.74-.06-.55.52-.51,1.35-.39,2.04.19,1.09.99,2.2,2,2.66.49.23,1.04.32,1.54.03.38-.22.63-.63.7-1.07.13-.79-.18-1.52-.65-2.14-.39-.51-.81-1.01-1.29-1.43-.41-.35-.87-.54-1.41-.43-.42.09-.82.41-1.02.79-.35.69-.19,1.5.08,2.19.25.62.56,1.16.99,1.66.17.2.36.38.56.55s.43.29.71.29c.25,0,.54-.11.71-.29.34-.37.43-1.06,0-1.41-.19-.16-.36-.33-.52-.51-.05-.06-.18-.27-.02-.02-.03-.05-.07-.09-.1-.14-.07-.1-.14-.2-.2-.31s-.12-.21-.17-.32c-.02-.05-.05-.1-.07-.15.14.27.03.08,0,0-.09-.25-.17-.5-.2-.76l.04.27c-.01-.11-.01-.21,0-.32l-.04.27s0-.06.02-.09c.02-.08,0-.04-.05.1.02-.02.12-.18,0-.03-.05.07-.06.08-.03.04.06-.05.02-.03-.1.08.14-.1-.23.07-.05.03l-.27.04s.07,0,.1,0l-.27-.04s.07.01.1.02l-.15-.06c.09.06.06.03-.08-.06.02.02.04.03.06.05.09.08.18.17.27.26.19.19.37.38.54.59.08.1.16.2.24.3-.18-.2-.04-.05,0,0s.07.1.11.15c.07.1.13.21.18.32.09.17-.07-.22,0,.01.02.07.03.13.05.2l-.04-.27c.01.1.01.19,0,.29l.04-.27s-.01.08-.02.12c0,.04-.07.2,0,.03.01-.05.04-.1.08-.14.06-.07.07-.08.03-.04-.06.06-.01.03.14-.07.18-.08.21-.11.1-.08l.27-.04c-.06,0-.1,0-.16,0l.27.04s-.07-.01-.11-.02c-.1-.03-.07-.02.08.04-.04-.03-.1-.05-.14-.07-.05-.03-.1-.06-.15-.09-.07-.05-.2-.18.02.02-.09-.08-.18-.15-.27-.24-.04-.04-.07-.07-.1-.11-.02-.03-.04-.05-.07-.08.1.13.12.16.08.1-.06-.09-.13-.18-.18-.28-.03-.06-.07-.12-.1-.18-.04-.08-.06-.23.02.05-.07-.23-.15-.45-.18-.69l.04.27c-.02-.2-.03-.4,0-.61l-.04.27c.02-.11.1-.23-.04.03.05-.09.02-.05-.09.1-.37.16-.47.23-.3.2l-.27.04h.05c-.09,0-.18-.02-.27-.03-.1-.03-.19-.09-.27-.16.02.02.04.03.06.05.05.05.09.09.14.14.08.08.16.17.24.25.09.09.17.18.25.28.04.05.09.1.13.15.05.06.15.22-.01-.02.14.2.28.4.4.62.02.05.04.11.07.15-.06-.14-.07-.18-.05-.11.01.03.02.05.03.08.04.12.08.25.1.38l-.04-.27c0,.06,0,.11,0,.17l.04-.27v.05c.03-.16.12-.28.24-.36.04-.04.09-.07.15-.09.1-.03.11-.04.04-.03l.27-.04s-.09,0-.14,0l.27.04c-.06,0-.13-.04-.19-.04.16.07.2.09.11.04-.03-.02-.06-.03-.09-.05-.06-.03-.11-.08-.17-.11.24.14.11.09.05.03-.1-.09-.18-.2-.28-.29.21.22.06.07,0,0-.03-.05-.06-.1-.09-.15-.06-.11-.11-.23-.17-.35.15.29.03.07,0,0-.02-.06-.04-.12-.06-.17-.08-.26-.14-.52-.18-.79l.04.27s0-.07,0-.1l-.04.27c-.06.2-.18.34-.36.41-.18.08-.22.11-.12.09l-.27.04s.06,0,.09,0l-.27-.04c.18.04-.2-.11-.05-.02-.24-.15-.1-.08-.04-.02.08.08.15.16.23.25-.19-.21-.07-.09-.03-.02.03.05.06.09.09.14.06.1.11.2.16.3.02.05.05.1.07.15l-.06-.13s.03.07.04.11c.04.11.08.21.12.32.07.22.16.44.19.66l-.04-.27s0,.08,0,.11l.04-.27c-.03.11,0,.08.08-.1.04-.12.12-.2.23-.26-.14.09.24-.08.07-.04l.27-.04s-.09,0-.14,0l.27.04s-.16-.05-.02.01c.16.07-.01-.01-.04-.03-.12-.07.05.02.06.05-.02-.03-.08-.07-.11-.1-.13-.12-.26-.24-.39-.36-.06-.06-.11-.12-.17-.18s-.08-.16.04.05c-.02-.03-.04-.06-.06-.09-.02-.04-.14-.19-.13-.24,0,0,.08.23.04.09-.01-.05-.03-.1-.04-.16l-.96,1.27c.28.01.51-.07.76-.19.47-.23.63-.94.36-1.37-.31-.49-.86-.6-1.37-.36h0Z"/>
          <path class="cls-2" d="M51.02,65.32c-.06-.15-.14-.27-.29-.34-.13-.05-.26-.06-.39,0-.22.09-.36.32-.33.57.04.26.27.46.53.46.24,0,.43-.16.53-.37.22-.46.44-.93.66-1.39l-.86-.5c-.28.62-.55,1.24-.83,1.87l.91.39c.09-.38.21-.76.34-1.13.03-.09.07-.18.11-.27,0-.02.06-.16.02-.05.02-.04.04-.09.06-.13.08-.18.17-.36.26-.54.12-.23.07-.55-.18-.68-.23-.12-.56-.07-.68.18-.39.75-.69,1.54-.89,2.36-.06.24.06.49.29.59.21.09.52.02.62-.2.28-.62.55-1.24.83-1.87.11-.24.08-.55-.18-.68-.22-.12-.56-.07-.68.18s-.24.5-.36.76c-.06.12-.11.24-.17.36-.03.07-.06.13-.09.2-.01.03-.02.05-.04.08,0,.02-.02.04-.03.05-.03.06,0,.03.11-.11l.25-.07h-.03c.08.02.17.04.25.07h-.01c.08.09.15.19.23.29h0v.25l-.2.25-.39.05h0c-.12-.11-.23-.23-.35-.35h0c.09.26.34.45.62.36.24-.08.45-.35.35-.62h0Z"/>
          <path class="cls-2" d="M68.16,63.66s0-.06.01-.09c-.01.1,0-.01,0-.03,0-.07.02-.14.03-.21.02-.14.05-.28.07-.41.05-.28.12-.55.19-.82.06-.24-.06-.49-.29-.59-.21-.09-.52-.02-.62.2-.24.54-.39,1.1-.43,1.69-.02.21.17.44.37.48.22.05.44-.04.56-.23.32-.49.49-1.09.46-1.67,0-.25-.18-.46-.43-.49-.22-.03-.51.11-.55.36-.12.78-.18,1.56-.17,2.34,0,.26.23.51.5.5.3-.01.47-.22.5-.5.06-.47.1-.94.12-1.41.01-.24.04-.48,0-.71-.06-.35-.39-.62-.75-.53-.31.07-.45.34-.52.64-.05.22-.1.44-.15.66-.1.47-.21.95-.31,1.42-.06.25.08.55.35.62.25.06.55-.08.62-.35.08-.38.17-.76.25-1.14.04-.19.08-.38.13-.57.02-.09.04-.19.06-.28.01-.05.02-.09.03-.14,0,0,.03-.1.03-.11l-.03.06c-.13.2-.35.2-.65,0l-.03-.06c.01.05,0,.04,0-.04,0,0,0,.24,0,.27,0,.19-.02.38-.03.57-.02.38-.06.75-.11,1.13h1c0-.36,0-.72.03-1.08.01-.17.03-.35.04-.52,0-.09.02-.19.03-.28.01-.11-.01.07,0-.05,0-.05.01-.09.02-.14l-.98-.13c0,.12,0,.23,0,.35,0,.07.02-.08,0,0,0,.03,0,.05-.01.08-.01.06-.03.12-.04.18-.01.05-.03.11-.05.16,0,.03-.02.05-.03.08.01-.04.02-.05,0,0-.05.11-.11.22-.18.33l.93.25c0-.06.01-.12.02-.18,0-.06,0-.06,0,0,0-.03,0-.06.01-.09.02-.12.04-.23.07-.34s.06-.23.1-.34c.02-.06.04-.11.06-.17.01-.03.02-.05.03-.08-.02.05-.02.05,0,0l-.91-.39c-.16.6-.26,1.21-.34,1.83-.03.26.25.51.5.5.3-.01.47-.22.5-.5h0Z"/>
        </g>
        <g>
          <ellipse class="cls-4" cx="65.84" cy="61.78" rx="6.93" ry="9.16" transform="translate(-22.66 79.69) rotate(-54.62)"/>
          <ellipse class="cls-4" cx="50.63" cy="62.74" rx="5.24" ry="6.93" transform="translate(-29.84 67.7) rotate(-54.62)"/>
          <path class="cls-4" d="M74.32,63.79s6.75-.38,7.65,2.23"/>
          <path class="cls-4" d="M81.97,70.99s-.9-11.09,8.93-4.96c9.83,6.13.81,10.37.81,10.37"/>
          <path class="cls-4" d="M87.2,64.18s-1.98-8.88-.9-9.79,7.67-1.98,12.45,0,5.32,4.33,5.32,4.33c0,0-.45,8.83-7.67,10.28"/>
          <path class="cls-4" d="M95.49,53.28l-.53-2.94s-10.59,2.43-13.01-4.06c-2.41-6.49,1.36-11.45,4.03-11.9,0,0-2.45,4.49.86,5.39,1.26.12,4.72-.15,4.72-.15,0,0-3.4,3.94-1.83,4.81s3.19-.36,3.19-.36c0,0-1.5,3.88.27,3.82s6.34-2.59,4.69-4.93c-.96-1.2-3.82-1.05-3.82-1.05,0,0,3.7-2.37,2.19-4.12s-3.61-.39-3.64-.48,1.98-3.1-.87-4.21-9.11-.96-9.17-1.05,5.23-8.81,15.18-6.64c9.95,2.16,12.39,8.87,12.54,11.6s.78,8.84-6.7,12.42c-3.43,1.23-4.39,1.08-4.42,1.02s.31,4.28.31,4.28"/>
          <path class="cls-4" d="M95.7,72.89s9.29,3.1,7.73,16.29-20.23,17.62-33.58,14.79"/>
          <path class="cls-4" d="M120.62,76.02c.3.12,12.32,13.29,12.35,13.38s-11.78-19.9-11.78-19.9l-.57,6.34"/>
          <path class="cls-4" d="M115.24,67.6c-.04-.1,1.17-1.38,3.61-.3s2.34,2.19,2.34,2.19l-.69,6.55s-3.58,1.71-5.26-.51c0,0,1.83-3.85,0-7.94Z"/>
          <path class="cls-4" d="M98.08,74.2c.15-.17,9.77-7.41,17.16-6.6"/>
          <path class="cls-4" d="M102,78.85c.17-.13,6.51-4.67,13.24-3.31"/>
          <path class="cls-4" d="M119.75,90.11c.14.23,1.44,14.83,1.42,14.91s2.21-18.89,2.21-18.89l-3.53,3.86"/>
          <path class="cls-4" d="M120.43,81.92c.02-.09,1.46-.32,2.51,1.6s.44,2.6.44,2.6l-3.72,3.94s-3.19-.66-3.19-2.96c0,0,3.12-1.6,3.95-5.19Z"/>
          <path class="cls-4" d="M102.75,80.06c.18-.04,13.24-2.35,17.68,1.87"/>
          <path class="cls-4" d="M103.77,84.63c.17,0,8.97-1.75,12.7,2.49"/>
          <path class="cls-4" d="M106.56,100.29c-.01.27-7.06,13.12-7.13,13.17s12.35-14.46,12.35-14.46l-5.09,1.24"/>
          <path class="cls-4" d="M111.68,93.86c.07-.06,1.39.54,1.19,2.73s-1.08,2.41-1.08,2.41l-5.28,1.2s-2.28-2.33-1-4.23c0,0,3.48.4,6.18-2.11Z"/>
          <path class="cls-4" d="M103.77,86.27c2.41,1.06,4.71,2.2,7.32,7.46"/>
          <path class="cls-4" d="M103.28,91.2c.03.05,2.86,2.07,2.33,4.74"/>
          <path class="cls-4" d="M40.27,84.94s-2.07.85.81,3.89c0,0,.71,9.23,9.48,11.71s16.21,3.05,16.21,3.05"/>
          <path class="cls-4" d="M46.81,66.39s-10.53,2.7-13.37,13.7c0,0,6.27,9.38,32.4,6.49,7.15-1.17,11.21-4.07,11.21-4.07"/>
          <line class="cls-4" x1="80.52" y1="80.81" x2="79.39" y2="81.44"/>
          <path class="cls-4" d="M44.22,76.27c0-.18,1.67-2.16,3.61,1.71"/>
          <path class="cls-4" d="M54.23,78.43s1.26-3.25,2.89-.09"/>
          <path class="cls-4" d="M36.75,73.28s-4.43-1.42-3.89-2.74,7.03-6.66,8.96-6.36,2.4,3.2,2.4,3.2"/>
          <path class="cls-4" d="M39.55,64.9s-3.96-8.3-6.11-8.72-9.66,2.34-10.45,7.27,10.45,6.19,10.45,6.19"/>
          <path class="cls-4" d="M27.13,57.56l-.72-1.71s9.24-4.87,4.15-13.17c-2.39-3.34-7.3-3.88-7.39-3.83s4.39,3.19-.8,4.27c1.35,1.49,3.91,4.34,4.04,5.09s-3.2,1.92-3.2,1.92c0,0,3.28,2.43.83,3.86-3.29,1.93-6.63-.55-2.43-5.32-6.02.11-6.27-2.6-1.58-4.01-5.19-2.11-6.38-6.18,2.74-8.24-9.83-1.53-14.02,1.26-17,4.28-2.98,3.02-4.15,12.39,2.98,15.44s15.29.97,15.29.97c0,0,1.03,2.66.99,2.7"/>
          <path class="cls-4" d="M35.22,75.21s-10.15-2.16-10.51-2.32l.72,4.7c.78.45,8.84,3.58,8.84,3.58"/>
          <path class="cls-4" d="M25.43,77.98c-2.65,2.37-5.53.45-5.53.45,0,0-1.62-5.41-1.62-5.55,0,0,3.25-3.02,6.43,0"/>
          <polygon class="cls-4" points="3.42 89.38 18.27 72.89 19.9 78.43 3.42 89.38"/>
          <path class="cls-4" d="M34.58,81.29s-9.72,0-13.39,2.46l1.76,3.97c2.67-2.65,16.59-1.08,16.59-1.08"/>
          <path class="cls-4" d="M21.19,83.76c-6.13-.02-6.91,3.91-6.91,3.97,0,0,3.55,1.41,4.75,3.01.87,1.16,4.57-1.35,3.93-3.01-1.15-2.97-2.14-3.83-1.76-3.97Z"/>
          <path class="cls-4" d="M14.28,87.72c-1.41.29-.16,17.21,6.19,20.92,0,0-5.59-13.35-1.44-17.92"/>
          <path class="cls-4" d="M41.15,89.38s-8.19-1.48-10.34.87l3.73,4.02s2.82-.97,7.87-.75"/>
          <path class="cls-4" d="M30.81,90.25c-.25-.17-5.97-.85-5.38,5.29,0,0,5.01.76,6.08,2.8,1.75.26,3.19-1.36,3.04-4.07"/>
          <path class="cls-4" d="M25.43,95.54s-.54,13.35,7.38,19.3c0,0-3.59-12.39-1.56-16.17"/>
        </g>
      </g>
    </g>
  </g>
  <g id="giraffe">
    <g class="cls-5">
      <rect class="cls-6" x="-40.55" y="114.81" width="219.97" height="219.97"/>
    </g>
  </g>
</svg>