<?xml version="1.0" encoding="UTF-8"?>
<svg id="_ж" data-name="ж" xmlns="http://www.w3.org/2000/svg" xmlns:xlink="http://www.w3.org/1999/xlink" viewBox="0 0 132 132">
  <defs>
    <style>
      .cls-1 {
        fill: #b8ff94;
      }

      .cls-2 {
        fill: #0eb50a;
      }

      .cls-3 {
        fill: #f6f6f6;
      }

      .cls-4 {
        fill: #d5e92e;
      }

      .cls-5, .cls-6 {
        fill: none;
      }

      .cls-7 {
        fill: #1d1d1b;
      }

      .cls-8 {
        fill: #bcffba;
      }

      .cls-6 {
        stroke: #501a36;
        stroke-linecap: round;
        stroke-linejoin: round;
      }

      .cls-9 {
        clip-path: url(#clippath);
      }
    </style>
    <clipPath id="clippath">
      <circle class="cls-5" cx="66" cy="65.67" r="63.91"/>
    </clipPath>
  </defs>
  <g class="cls-9">
    <g>
      <rect class="cls-1" x="-40.56" y="-41.58" width="227.51" height="227.51"/>
      <g>
        <path class="cls-2" d="M16.76,44.29c-6.86-.89-12.05,5.25-12.13,11.65-.06,4.33,3.95,8.86,8.5,8.5,5.03-.4,8.15-2.29,11.16-6.32s.36-9.24-3.05-11.63c-1.48-1.04-2.94-1.61-4.65-2.15l5.94,10.46c.14-.86-1.87.01-1.21.47.53.37,2.42.77,2.96.98l4.52-16.39c-2.73-.76-4.87-.62-7.64-.17-4.12.66-6.66,5.56-6.09,9.33.65,4.33,4.02,7.08,8.35,7.37,5.48.36,12.13-.89,15.14-6.03s-.03-12.97-6.12-13.88-12.3,3.63-10.46,10.46c1.19,4.42,3.93,7.02,8.26,8.34l-3.75-14.21c-4.46,3.62-6.05,9.93-4.2,15.3l14.21-8.27c-5.62-5.13-14.46-5.6-19.73.44-3.96,4.54-2.89,12.72,3.75,14.21,3.84.86,7.46.92,11.22-.36,7.22-2.46,8.9-14.83,0-16.39-4.89-.86-9.21-.48-13.48,2.22-6.57,4.15-4.7,12.95,2.03,15.54,3.17,1.22,6.54,1.69,9.93,1.48,9.94-.62,11.08-13.19,2.26-16.7-4.94-1.96-10.56-1.96-15.49.01-7.16,2.86-8.93,14.25,0,16.39,5.64,1.35,11.35,2.23,17.13,2.79v-17c-4.99-.48-9.98-.95-14.97-1.43-4.58-.44-8.5,4.22-8.5,8.5,0,5.02,3.92,7.99,8.5,8.5,8.26.92,16.25,3.55,23.58,7.43,9.93,5.25,17.11-8.21,8.58-14.68-2.28-1.73-4.6-3.08-7.22-4.22-3.89-1.69-8.23-1.47-10.97,2.19-2.34,3.13-2.63,8.41.66,11.16s6.82,4.79,10.71,6.71c2.08,1.02,6.25,2.49,7.22,4.91l12.49-9.6c-1.54-.92-2.75-1.73-4.09-2.92-6.29-5.54-16.3-.25-14.21,8.27,1.46,5.91,2.91,11.82,4.37,17.74l16.39-4.52c-.82-2.31-1.48-4.56-1.66-7.01-.83-11-15.95-10.86-17,0-.55,5.72-1.1,11.44-1.65,17.15-.49,5.06-1.97,11.03,1.32,15.44,4.27,5.71,13.27,5.47,15.54-2.03,1.5-4.94,2.38-9.89,3.06-15,.37-2.77-1.86-6.09-4.21-7.34-3.78-2.01-7.74-2.17-11.41.24-4.47,2.94-5.03,8.03-5.9,12.85-1.46,8.12-2.14,16.06,5.64,21.17,4.94,3.25,10.69-.24,12.49-5.08s1.87-10.09.64-15.19c-.98-4.07-5.31-6.69-9.33-6.09-4.49.67-6.86,4.02-7.37,8.35-.19,1.61-1.33,3.28-1.68,4.9-.52,2.38-.52,4.89.12,7.24,1.18,4.31,4.52,8.03,9,8.89,4.82.93,11.43-2.27,10.76-8.2-1.17-10.23-12.52-13.94-19.3-5.8-3.23,3.88-3.59,10.74,1.72,13.35,1.92.94,3.84,1.88,5.75,2.83,6.54,3.21,14.42-2.09,12.49-9.6-1.29-5-5.72-9.18-11.1-9.18-5.78,0-9.42,3.76-11.48,8.75-1.28,3.1.79,8.25,3.91,9.6,7.37,3.2,14.28,4.1,22.21,2.79,5.59-.92,7.53-8.13,5.08-12.49-1.06-1.89-2.35-3.36-4.37-4.23l-6.55,15.54c6.86,2.39,13.83,3.94,21.04,4.83,6.42.79,13.1,1.13,18.72-2.63,7.28-4.87,4.1-15.06-4.29-15.84-6.16-.58-12.29-.67-18.47-.28-9,.57-12.21,14.75-2.26,16.7,28.82,5.63,59.25,10.52,86.42-3.82,7.67-4.05,3.84-15.7-4.29-15.84-9.94-.17-19.45-2.71-28.77-6.04-8.17-2.92-15.05-7.39-18.17-15.95v4.52l.2-1.12-3.91,5.08c-1.72.35-1.95.51-.69.49.76.05,1.53.07,2.29.06,1.32-.07,2.7-.32,3.95-.71,3.08-.94,5.47-3.01,7.04-5.77l-13.35,1.72c1.03,1.17,2.06,2.33,3.09,3.5,6.15,6.96,15.51-.68,14.21-8.27-.68-3.94-3.52-7.24-7.28-8.63-1.91-.71-3.79-.88-5.8-.75-.57.04-4.78.9-3.32.88l4.29,1.16-.69-.53,3.05,3.05c-1.82-3.33-1.68-7.88-1.81-11.56-.17-4.8-.23-9.59-1.08-14.33-1.76-9.79-8.75-14.07-17.44-17.61-18.15-7.4-37.89-3.47-56.76-1.75-9.54.87-11.55,13.4-2.26,16.7,6.01,2.13,14.9,1.08,18.93,6.62,5.61,7.71,10.17,16.47,15.17,24.59l14.68-8.58c-6.76-9.45-13.52-18.89-20.28-28.34-6.39-8.93-19.29-1.39-14.68,8.58,7.7,16.65,14.39,33.71,20.16,51.12,2.88,8.69,17.2,7.77,16.7-2.26-.58-11.51-1.15-23.02-1.73-34.53-.25-4.97.33-11.25-3.5-15.08s-9.14-3.07-13.54-.59l4.29-1.16-.76-.03c-5.27-.21-9.98,5.64-8.2,10.76,4.06,11.65,8.89,23.01,14.46,34.02,3.52,6.96,13.33,4.42,15.54-2.03,2.35-6.86,2.53-13.58,1.47-20.69-1-6.63-10.05-7.76-14.21-3.75-4.88,4.7-12.28,9.75-12.89,17.06-.71,8.56,5.55,12.4,10.39,18.15,5.25,6.24,13.84.55,14.51-6.01,1.05-10.24,2.12-20.48,3.15-30.72.89-8.87-.29-18.3-8.96-22.92-6.45-3.44-14.5,2.25-12.49,9.6,4.59,16.8,9.66,33.45,15.21,49.96,2.46,7.32,14.71,8.82,16.39,0,2.94-15.41-5.94-31.02-22.05-33.74-6.12-1.03-12.4,3.73-10.46,10.46,3.6,12.46,9.56,23.57,17.55,33.74,4.51,5.75,15.01.98,14.51-6.01-.71-9.91,1.38-36.44-15.68-32.59-6.25,1.41-10.76,8.63-7.24,14.65,1.94,3.33,5.05,6.27,7.49,9.25s4.93,6.02,7.39,9.03l10.3-13.35c-4-2.45-7.99-4.91-11.99-7.36-8.57-5.26-16.44,6.32-10.3,13.35,4.24,4.86,8.48,9.71,12.72,14.57,3.43-4.45,6.87-8.9,10.3-13.35-6.33-3.19-12.65-6.38-18.98-9.57-3.77-1.9-8.34-1.32-10.97,2.19-2.29,3.07-2.7,8.49.66,11.16,3.87,3.07,7.74,6.14,11.62,9.22l8.27-14.21c-7.61-1.88-15.01-1.95-22.69-.44-8.97,1.77-7.12,13.74,0,16.39,3.68,1.37,7.34,1.99,11.24,2.36,9.73.91,11.26-14.18,2.26-16.7-6.65-1.86-13.37-3.41-20.16-4.65-7.96-1.46-14.68,7.83-8.27,14.21,3.62,3.6,7.49,5.02,12.48,5.65,6.23.78,10.85-7.87,7.34-12.79-1.02-1.43-2.04-2.87-3.07-4.3l1.16,4.29c.46-5.2-.9-10.28-3.7-14.67-5.87-9.19-20.59-.68-14.68,8.58,1.5,2.34,1.26,3.4,1.37,6.09.14,3.46,2.31,5.9,4.23,8.59l7.34-12.79c.24-.24.08-.46-.46-.67l-8.27,14.21c6.8,1.25,13.51,2.79,20.16,4.65l2.26-16.7c-2.35-.22-4.52-.93-6.72-1.75v16.39c4.61-.91,9.11-.69,13.65.44,7.56,1.87,15.32-8.61,8.27-14.21-3.87-3.07-7.74-6.14-11.62-9.22-3.43,4.45-6.87,8.9-10.3,13.35,6.33,3.19,12.65,6.38,18.98,9.57,8.71,4.39,16.72-6,10.3-13.35-4.24-4.86-8.48-9.71-12.72-14.57l-10.3,13.35c4,2.45,7.99,4.91,11.99,7.36,8.74,5.37,16.1-6.27,10.3-13.35-4.52-5.52-9.03-11.04-13.55-16.56l2.49,6.01.05-.83-1.16,4.29.46-.66-3.05,3.05-1.71.58-4.29-1.16-.02.1-2.19-3.75c1.21,2.89.96,6.24,1.18,9.33.27,3.76.54,7.53.81,11.29l14.51-6.01c-6.11-7.78-10.44-16.77-13.17-26.24l-10.46,10.46c6.43,1.08,11.53,5.75,10.18,12.83h16.39c-5.55-16.51-10.62-33.16-15.21-49.96l-12.49,9.6c2.84,1.51,0,13.53-.27,16.17-.78,7.6-1.56,15.19-2.34,22.79l14.51-6.01c-1.02-1.21-2.13-2.24-3.28-3.31-.8-.67-1.56-1.38-2.28-2.13-1.22,2.74-1.3,3.5-.25,2.3,1.27-.49,2.73-2.65,3.74-3.62,1.52-1.47,3.05-2.94,4.57-4.41l-14.21-3.75c.61,4.05-.16,7.84-1.47,11.65l15.54-2.03c-4.92-9.72-9.16-19.68-12.74-29.96l-8.2,10.76c1.43.06,2.71-.2,4.04-.7-.2.08,2.68-1.14,1.34-.75l-6.55-.86.89.44-3.05-3.05c-.44-.9-.19,3.98-.2,3.79l.2,3.95.54,10.85c.35,6.91.69,13.81,1.04,20.72l16.7-2.26c-6.23-18.8-13.56-37.2-21.87-55.18l-14.68,8.58c6.76,9.45,13.52,18.89,20.28,28.34,6.25,8.73,20.53.9,14.68-8.58-3.06-4.97-6.13-9.94-9.19-14.9-2.9-4.7-5.52-9.96-9.25-14.07-6.96-7.68-16.84-6.86-25.83-10.04l-2.26,16.7c10.02-.91,20.08-2.18,30.12-2.63s17.63,1.79,26.26,6.01c1.33.93,1.57,1.04.73.3.3,1.05.53,2.12.69,3.2.3,2.09.3,4.24.38,6.34.17,4.77.23,9.54,1.08,14.26s2.17,9.72,6.19,12.39,6.87.35,10.82.82l-4.29-1.16.4.45-2.19-3.75.23,1.35,14.21-8.27c-1.03-1.17-2.06-2.33-3.09-3.5-3.63-4.11-10.77-2.82-13.35,1.72l-.09-.07,3.75-2.19c-2.95,1.18-6.48-.1-9.57,1.65-3.88,2.19-5.74,6.87-4.69,11.16,1.79,7.36,8.09,15.4,13.96,19.89,6.64,5.08,15.08,7.82,23,10.23,8.56,2.6,17.42,4.2,26.37,4.35l-4.29-15.84c-22.7,11.99-49.39,6.78-73.32,2.11l-2.26,16.7c6.18-.39,12.31-.3,18.47.28l-4.29-15.84c-3.02,2.02-8.18.64-11.53.07-5.16-.88-10.19-2.26-15.13-3.98-8.97-3.12-15.44,11.72-6.55,15.54l.86.37-3.05-3.05.46.81c1.69-4.16,3.39-8.32,5.08-12.49-2.96.49-6.35.13-9.11-1.07l3.91,9.6.43-1.03-2.19,3.75h.03c-1.43.37-2.86.76-4.29,1.15l-1.2-.35-3.05-3.05.06-.03,12.49-9.6c-1.92-.94-3.84-1.88-5.75-2.83l1.72,13.35c.21-.86.53-1.13.94-.8l-4.29,1.16,1.15.15-6.01-2.49.86.73-2.49-6.01.12,1.03,10.76-8.2c4.16.8,2.23,6.26,3.9,1.22.64-1.93.89-3.84,1.13-5.86l-16.7,2.26c.56,2.32.18,3.92-.64,6.15l12.49-5.08c1.33,2.96,1.88,3.35,1.66,1.16-.02-.74.09-1.46.34-2.18.33-1.96.34-4.96,1.31-6.71l-3.05,3.05.9-.59-4.29,1.16,1.05-.12-4.29-1.16.88.47-4.21-7.34c-.47,3.55-1.41,7.06-2.45,10.48l15.54-2.03c.36,1.38.51,1,.45-1.14l.37-3.81.55-5.72c.43-4.45.86-8.89,1.29-13.34h-17c.3,3.98.93,7.77,2.27,11.53,3.64,10.2,19.04,6.24,16.39-4.52-1.46-5.91-2.91-11.82-4.37-17.74l-14.21,8.27c2.36,2.08,4.84,3.96,7.53,5.58,5.86,3.52,15.34-2.47,12.49-9.6-2.08-5.2-5.08-8.94-9.73-12.11-3.94-2.68-8.9-3.94-12.57-7.01-3.43,4.45-6.87,8.9-10.3,13.35,2.62,1.14,4.95,2.5,7.22,4.22l8.58-14.68c-10.16-5.37-20.77-8.47-32.16-9.75v17c4.99.48,9.98.95,14.97,1.43,4.58.44,8.5-4.22,8.5-8.5,0-4.96-3.91-8.06-8.5-8.5-4.28-.41-8.43-1.18-12.61-2.18v16.39c2.56-1.02,3.92-1.02,6.46-.01l2.26-16.7c-2.09.13-3.43-.12-5.41-.88l2.03,15.54c.66-.28.79-.45.38-.51v-16.39c-.73.62-1.46.74-2.18.36l3.75,14.21c-1.41.65-2.85.5-4.32-.44,5.87,5.36,17.12.23,14.21-8.27-.35.38-.4.79-.17,1.24,5.21-4.23,1.84-12.5-3.75-14.21l-1.16-.35,3.75,2.19-.85-.88,2.19,3.75-.32-1.17-10.46,10.46.63.09-5.08-3.91.41.58-1.16-4.29v.72c.82-2,1.65-4.01,2.48-6.01.91-1.02-.62-.59-1.79-.67l2.26,16.7,1.58-.25h-4.52l1.54.43c4.42,1.23,9.24-1.52,10.46-5.94,1.33-4.85-1.66-8.74-5.94-10.46-8.82-3.54-21-.12-22.65,10.42-.73,4.66,1.14,8.96,5.94,10.46l.59.43-3.05-11.63-.69.92,3.05-3.05,1.16.03,8.5,8.5.02-1.14-1.16,4.29.08-.06-3.75,2.19-.05.07c4.56.59,8.5-4.33,8.5-8.5,0-5.08-3.93-7.91-8.5-8.5h0Z"/>
        <path class="cls-2" d="M46.19,83.03c-4.38,2.91-9.3,5.56-12.97,9.37-2.66,2.76.85,7.82,4.24,5.5,2.49-1.71,5.06-3.2,7.78-4.52,3.52-1.71,1.02-7.84-2.7-6.4-3.2,1.24-6.4,2.49-9.6,3.73l4.43,3.37c-.39-6.42-9.44-8.11-10.97-1.3s7.28,9.86,11.62,5.11c5.27-5.78-3.4-9.68-8.4-8.24-5.69,1.64-9.06,8.72-2.53,11.85,4.32,2.07,13.87.19,13.26-6-.56-5.76-10.76-7.7-14.69-4.69-5.48,4.19-.24,11.01,5.25,11.31,6.62.37,10.87-6.7,5.23-11.38-4.42-3.68-15.85-2.12-14.04,5.57,1.72,7.35,12.35,6.5,16.26,1.78.96-1.16,1.45-2.87.55-4.24-3.07-4.67-8.62-9.45-13.55-4.32-1.97,2.04-3.21,4.83-2.04,7.59,1.22,2.89,4.12,3.9,6.83,5,4.17,1.69,5.99-5.07,1.86-6.75l-1.75-.75c.05-.26.17-.21.36.14.02-.09,2.47,2.95,2.25,2.62l.55-4.24c-1.61,1.94-3.76,2.29-5.4.23l1.03,2.47c.01.13,2.93-.64,2.51.73l1.61-2.09-2.19.64c-1.03.94-.97,1.39.18,1.35.71.73,2.39.56,3.23,1.5l-1.03-2.47c-.71-.35-1.45-.38-2.21-.09.1,1.34.63,1.39,1.57.13l.35-2.7-.86,2.67-2.09-1.61.25.18c.13,2.05,2.17,4.25,4.43,3.37,3.2-1.24,6.4-2.49,9.6-3.73l-2.7-6.4c-2.72,1.32-5.29,2.81-7.78,4.52l4.24,5.5c3.24-3.37,7.67-5.7,11.55-8.28s.23-8.55-3.53-6.04h0Z"/>
        <path class="cls-4" d="M56.32,55.64l-.05-.17c-.25-.81-1.04-1.51-1.93-1.47-.36.02-.7.11-1.01.27-.38.2-.86.75-.92,1.2-.17,1.25-.43,2.48-.76,3.7s.62,2.58,1.93,2.53c.59-.02,1.18,0,1.76.08l-.53-.07c.54.07,1.07.21,1.61.29.39.05.78.12,1.17.09.6-.06,1.07-.17,1.6-.46.62-.33.99-1.05.99-1.73,0-.36-.09-.7-.27-1.01-.18-.3-.42-.54-.72-.72-.06-.05-.13-.1-.19-.15l.4.31c-.85-.66-1.61-1.42-2.27-2.27-.29-.38-.97-.59-1.41-.59-.49,0-1.08.22-1.41.59s-.61.88-.59,1.41l.07.53c.1.34.27.63.51.88.82,1.06,1.8,1.93,2.87,2.73v-3.45s-.09.05-.13.07l.48-.2c-.14.06-.28.09-.42.11l.53-.07c-.23.02-.45.02-.68-.01l.53.07c-.63-.08-1.24-.24-1.87-.32-.67-.09-1.34-.14-2.03-.11l1.93,2.53c.33-1.22.58-2.45.76-3.7h-3.86l.05.17c.15.49.47.93.92,1.2s1.06.36,1.54.2.95-.46,1.2-.92.36-1.02.2-1.54h0Z"/>
        <path class="cls-4" d="M131.04,104.67l.2-.25c.35-.42.59-.85.59-1.41,0-.49-.22-1.08-.59-1.41-.83-.76-2-.75-2.83,0-.13.12-.26.23-.4.35-.2.17,0-.03.09-.07-.07.03-.15.11-.21.15-.31.21-.63.41-.96.58-.08.04-.16.08-.24.12-.06.03-.34.15-.06.03s-.01,0-.07.02c-.08.03-.16.06-.25.09-.36.12-.72.22-1.09.3s-.7.16-1.03.29c-.28.11-.57.22-.83.39-.04.03-.16.08-.18.12.02-.04.49-.19.53-.15-.03-.03-.22,0-.27,0-.21.02-.44.05-.65.09-.31.06-.6.2-.88.33-.43.2-.82.51-1.17.82-1.09.96-.56,3.06.88,3.34.57.11,1.14.25,1.69.43.26.08.51.17.76.26.13.05.25.1.37.15.4.16-.35-.16.02,0,1.04.49,2.01,1.06,2.94,1.73.12.09.07.05-.14-.11.05.04.11.08.16.13.21.17.41.35.65.47.69.36,1.53.37,2.2-.03,1.02-.61,1.09-1.72,1.18-2.78.12-1.34.24-2.69.36-4.03l-3.93.53c-.08-.52-.01-.05,0,.07.01.15.02.3.03.45.01.3.01.6,0,.91,0,.28-.03.56-.05.83-.01.15-.03.3-.05.45,0,.08-.02.15-.03.23l.03-.23c-.07.61-.2,1.2-.29,1.81-.13.86.08,1.61.77,2.15.61.47,1.41.57,2.12.27,1.56-.66,1.77-2.43,1.66-3.92-.04-.53-.11-1.05-.14-1.58-.02-.27,0-.54,0-.82,0-.37-.07.31-.02.06.03-.15.07-.31.11-.46.29-1-.36-2.22-1.4-2.46s-2.15.32-2.46,1.4c-.3,1.02-.26,2.06-.16,3.1.04.43.09.87.09,1.31,0,.11,0,.23,0,.34,0,.04-.04.48,0,.14.04-.36,0,.1-.04.13l.13-.31c.59-.47.75-.63.46-.49l1.01-.27.4.06.88.51-.06-.05.51,1.95c.19-1.1.38-2.21.48-3.32s.04-2.21-.12-3.33c-.06-.44-.54-.99-.92-1.2-.4-.21-.82-.3-1.28-.24-1.04.14-1.65.96-1.73,1.96-.07.82-.14,1.63-.22,2.45-.03.39-.07.79-.1,1.18-.02.21-.04.42-.06.63,0,.11-.02.21-.03.32-.08.67.18.27.77-1.19l1.01-.27h-.11c.34.09.67.18,1.01.27-.18-.09-.14-.06.11.11-.07-.06-.14-.11-.21-.17-.24-.19-.48-.38-.73-.55s-.51-.36-.77-.53c-.55-.35-1.11-.66-1.7-.94-1.31-.62-2.68-1.11-4.1-1.39l.88,3.34c.21-.18-.04.05-.12.08.07-.02.14-.1.21-.14s.16-.07.22-.12c-.05.04-.37.22-.13.08s-.07.09-.17.02c.07.05.52-.04.56-.04.38-.05.69-.14,1.03-.33.13-.07.28-.16.4-.25.19-.13-.34.1-.11.05.09-.02.17-.05.25-.08.37-.1.74-.16,1.11-.26,1.66-.45,3.17-1.33,4.43-2.48l-2.83-2.83-.2.25c-.35.42-.59.85-.59,1.41,0,.49.22,1.08.59,1.41.73.67,2.12.87,2.83,0h0Z"/>
        <path class="cls-3" d="M39.56,54.51l-1.66,2.5c-.39.59-.35,1.43,0,2.02s1.04,1.05,1.73.99c.22-.02.43-.01.65.01l-.53-.07c.39.06.75.18,1.11.33l-.48-.2c.58.25,1.13.56,1.7.82.42.19.84.38,1.28.51.87.25,1.87.21,2.54-.49.6-.63.82-1.53.54-2.35-.17-.51-.46-.88-.78-1.3-.47-.64-.95-1.28-1.42-1.92-.32-.43-.66-.77-1.2-.92-.48-.13-1.12-.07-1.54.2s-.8.69-.92,1.2-.11,1.12.2,1.54c.35.47.7.95,1.05,1.42.17.23.34.46.51.69.15.2.33.4.43.63l-.2-.48c.02.06.04.11.05.17l-.07-.53s0,.07,0,.11l.07-.53v.05c.05-.16.12-.32.19-.48l-.02.04.31-.4-.03.04.4-.31-.04.03.48-.2-.07.03.53-.07c-.05,0-.1,0-.15,0l.53.07c-.32-.06-.63-.17-.92-.3l.48.2c-1.51-.64-2.95-1.67-4.68-1.52l1.73,3.01,1.66-2.5c.28-.42.33-1.07.2-1.54s-.49-.97-.92-1.2c-1-.53-2.12-.22-2.74.72h0Z"/>
        <path class="cls-3" d="M28.5,54c-.1.08-.19.16-.28.25-.21.2-.37.43-.54.66s-.27.51-.37.77c-.02.05-.03.09-.04.14-.04.19-.06.39-.08.58,0,.03,0,.06,0,.09,0,.04,0,.09,0,.13.02.19.04.4.08.59,0,.03.01.05.02.07s.02.05.03.07c.06.17.14.36.22.52.06.12.15.21.23.32s.15.21.24.29c.14.12.29.24.44.34.02.02.05.03.07.04.16.08.35.16.52.22.03,0,.06.02.08.02.19.04.39.06.58.08.03,0,.06,0,.1,0,.03,0,.06,0,.09,0,.2-.02.41-.04.61-.08.06-.01.13-.03.19-.05.13-.04.26-.08.39-.1l-.53.07c.08-.01.15-.01.22,0l-.53-.07s.03,0,.05,0c.35.1.71.1,1.06,0,.34-.1.63-.27.88-.51.25-.25.42-.54.51-.88.1-.35.1-.71,0-1.06-.06-.31-.2-.59-.32-.88-.06-.14-.13-.27-.22-.39-.13-.23-.3-.42-.52-.56-.19-.18-.42-.3-.68-.36-.27-.08-.53-.1-.8-.04-.27.01-.51.09-.74.24l-.4.31c-.25.25-.42.54-.51.88l-.07.53c0,.36.09.7.27,1.01.09.13.17.26.23.41l-.2-.48c.05.13.09.26.12.39l2.46-2.46c-.2-.04-.42-.07-.63-.09-.04,0-.08,0-.12,0-.25.02-.5.05-.75.11-.16.04-.32.1-.49.13l.53-.07c-.07,0-.15.01-.22,0l.53.07s-.09-.02-.14-.04l.48.2s-.07-.04-.11-.07l.4.31s-.06-.06-.09-.09l.31.4s-.06-.09-.09-.15l.2.48c-.03-.07-.05-.14-.06-.21l.07.53c0-.07,0-.15,0-.22l-.07.53c.01-.08.03-.15.06-.22l-.2.48c.04-.1.1-.19.17-.28l-.31.4c.14-.18.32-.33.5-.48.2-.18.33-.4.41-.64.13-.24.18-.5.17-.77.01-.28-.05-.53-.17-.77-.08-.25-.22-.46-.41-.64l-.4-.31c-.31-.18-.65-.27-1.01-.27l-.53.07c-.34.1-.63.27-.88.51h0Z"/>
        <path class="cls-3" d="M61.05,34.43c-2.52-2.22-6.14-1.4-7.94,1.28-1.58,2.35-1.43,5.75.17,8.05,1.69,2.41,4.76,3.65,7.64,2.86,2.72-.75,4.71-3.28,4.85-6.09s-1.74-5.91-3.98-7.55c-2.64-1.94-5.94-1.15-8.31.82s-3.66,5.26-2.9,8.2c.68,2.63,3.1,4.6,5.74,5,3.01.45,6.36-.81,8.14-3.33,1.56-2.21,1.13-5.24-.45-7.3-1.84-2.41-4.87-3.11-7.75-2.58-2.73.5-5.84,2.39-6.16,5.39-.29,2.77,2.21,5.5,4.5,6.68s5.33,1.54,7.66.12c1.19-.73,2.09-1.87,2.31-3.27.24-1.51-.25-3.04-.79-4.43-.96-2.47-2.41-4.83-4.76-6.19-1.6-.93-3.25-1.11-4.95-.32-1.22.57-2.4,1.44-3.31,2.44-1.89,2.08-2.9,5.1-1.87,7.83,1.08,2.87,4.15,4.68,7.2,3.88s4.7-3.85,4.16-6.85c-.48-2.66-2.3-5.48-4.8-6.63-1.09-.5-1.91-.13-2.79.54-.58.43-1.13.89-1.61,1.43s-.97,1.12-1.3,1.75c-.5.94-.56,1.89-.39,2.92.23,1.44.65,2.86,1.15,4.23.55,1.52,1.12,3.41,2.91,3.82.73.17,1.49.09,2.23.07.84-.03,1.76.04,2.59-.16,1.54-.37,2.33-2.08,2.67-3.5.69-2.91-1.07-5.91-3.34-7.61-1.05-.79-2.41-1.46-3.74-1.52-1.9-.09-2.98,1.4-3.89,2.84-.41.65-.79,1.32-.88,2.09-.11.92.21,1.74.61,2.56.61,1.24,1.55,2.29,2.66,3.1,2.3,1.68,5.51,1.65,7.64-.29,1.1-.99,1.72-2.48,1.62-3.96-.11-1.6-.88-3.01-1.76-4.31-.96-1.41-2.03-2.23-3.79-2.3-1.53-.06-3.27-.2-4.44.98-.99,1-1.63,2.52-2.18,3.79-.37.85-.58,1.7-.35,2.64.19.78.7,1.47,1.15,2.12.8,1.17,1.61,2.53,2.67,3.49,1.36,1.24,3.02,1.31,4.74.89.71-.17,1.39-.4,2.07-.67.83-.34,1.73-.65,2.28-1.4.89-1.21.65-3.06.27-4.43-.71-2.54-2.56-4.72-5.09-5.56-1.64-.54-3.07-.1-4.47.77-1.27.79-2.97,1.5-3.33,3.09-.2.9.15,1.82.38,2.69s.4,1.71.8,2.48c.75,1.45,2.29,1.98,3.7,2.57s3.11,1.57,4.64,1.13c.75-.21,1.3-.73,1.81-1.29.58-.63,1.21-1.25,1.71-1.95,1.03-1.44.56-2.9.06-4.42-.45-1.38-.81-2.94-1.89-3.97-1.15-1.1-2.84-1.18-4.32-1.45-.85-.15-1.73-.4-2.59-.21s-1.48.67-2.08,1.26c-1.1,1.08-2.61,2.5-2.67,4.14s1.11,3.17,1.82,4.53c.37.7.78,1.38,1.47,1.82.74.47,1.59.55,2.44.62,1.5.11,3,.09,4.49-.03.96-.08,1.59-.58,1.93-1.47.55-1.43,1.05-2.95.92-4.5s-.88-2.92-1.8-4.17c-1.74-2.37-4.7-3.34-7.53-2.43s-5.39,3.54-4.54,6.64c.36,1.32.77,2.92,1.5,4.07.92,1.43,2.33,1.91,3.91,2.28,2.89.68,6.08.9,8.46-1.19,1.9-1.67,2.54-4.52,1.95-6.92-.68-2.77-3.28-5.03-6.19-5.01-1.42.01-2.82.56-3.95,1.39-1.35,1-2.83,2.44-2.46,4.28.16.78.61,1.47,1.02,2.14s.85,1.34,1.3,1.99c1.07,1.54,2.33,2.97,4.4,2.8,1.69-.14,3.23-1.14,4.62-2.05s2.65-1.98,3.6-3.39c.6-.9.17-2.22-.72-2.74-.98-.58-2.13-.18-2.74.72-.87,1.3-2.49,2.22-4,3.05-.26.14-.74.38-.89.42-.34.08-.28-.03-.14.02.16.06-.24-.24-.27-.28-.46-.53-1.11-1.6-1.57-2.34-.08-.13-.7-1.32-.78-1.31.11-.02-.04.82-.03.87-.02-.14.11-.17.21-.27.31-.29.58-.56.84-.73.48-.31.64-.39,1.19-.54.61-.16-.11-.02.25-.04.06,0,.53,0,.26-.02.48.05.61.13.96.34.22.13.51.37.77.7-.08-.1.42.85.29.5.07.18.12.36.17.54.01.05.09.65.05.21.03.37.04.76-.01,1.13.06-.44-.06.17-.07.21-.04.15-.09.3-.14.45-.11.31.23-.36-.06.12-.13.21-.24.43-.39.63.26-.32-.15.13-.18.15-.32.36.25-.09-.18.15-.34.2-.47.28-.89.39-.64.17-1.72.13-2.42,0-.86-.15-1.77-.33-2.6-.61.22.08-.26-.2-.1-.05s-.2-.32-.2-.33c-.1-.21-.32-.94-.45-1.34s-.27-.82-.4-1.24c0-.03-.12-.53-.14-.46-.03.15.09-.14.11-.18,0-.01.38-.53.14-.24.12-.15.27-.28.41-.43.36-.39-.24.11.21-.18.17-.11.34-.2.51-.3.46-.29-.28.06.24-.12.25-.09.5-.15.76-.21.54-.14-.31-.03.25-.03.26,0,.52-.01.78.01-.34-.03-.01,0,.05.02.07.02.72.22.48.12.41.17.67.37.87.62.53.63,1.18,1.63,1.27,2.28.15,1.1-.4,2.28-.79,3.31l1.93-1.47c-1.03.08-2.06.12-3.09.1-.47-.01-.94-.04-1.4-.07-.81-.05-.29,0-.24,0-.34-.1-.32-.07.06.11.1.13.08.09-.05-.11-.41-.84-.87-1.66-1.3-2.49,0,0-.25-.48-.25-.49.23-.3-.04.4,0,.43-.03-.02.72-.86.8-.95.29-.32.64-.61.92-.94.42-.49-.18.03-.18.02h-.07c.09,0,.18.03.28.04.97.18,1.96.3,2.93.53-.03,0,.65.2.34.11-.13-.04-.13-.24-.07-.04.02.05.25.44.13.2.09.19.15.41.22.61s1.01,2.75.91,2.81c-.01,0,.1-.47.1-.5-.03.24-.03.08-.19.25-.32.33-.63.69-.94,1.03-.15.16-.29.33-.45.49-.59.61.42-.29.43-.05h.1c-.16-.07-.32-.12-.47-.18-.27-.1-.53-.2-.79-.3-.78-.3-1.57-.61-2.32-.97-.18-.09-.41-.17-.56-.3.07.06.15.21.06.01-.09-.18-.2-.71-.3-1.07-.13-.48-.19-1.1-.41-1.55-.28-.56-1.16,1.15-.46.87.23-.09.47-.29.69-.43.6-.37,1.6-1.2,2.13-1.24-.38.03.38.14.5.19-.29-.1.1.05.17.08.15.08.29.17.43.25.47.28-.16-.2.23.18.1.09.2.18.29.28,0,0,.43.49.21.21.13.16.24.33.34.51s.2.36.29.54c.02.04.14.35.04.09.12.32.22.65.29.99,0,.02.09.67.06.28.02.17.02.34.03.51.01.85-.1-.53.52-.51-.16,0-.42.21-.58.27-.8.34-1.65.5-2.46.74.04-.01-.35.04-.25.03.11-.01-.27-.17-.07,0-.3-.24-.53-.57-.72-.82-.54-.72-1.05-1.45-1.55-2.19-.1-.16-.55-.78-.52-.83v.39c.09-.23.1-.28.04-.15.09-.25.23-.5.34-.73.2-.4.41-.8.63-1.2.13-.23.29-.46.41-.7.25-.52.02-.05.02-.08l.13-.14c-.13.14-.29.23-.48.26.02.04.53,0,.61,0,.45,0,1.1.13,1.53.01.19-.05.09.05-.02-.02-.31-.2.23.25,0,0,.25.29.45.65.66.98.39.62.88,1.4.81,2.02-.02.16-.06.29-.13.41-.35.51.14-.11-.11.15-.05.05-.37.33-.13.15-.16.12-.35.23-.53.31.1-.05.26-.06-.09.02-.02,0-.66.11-.27.08-.2.02-.42.02-.62,0,.41.04-.73-.23-.39-.1-.28-.11-.75-.41-.87-.5-.09-.07-.47-.44-.65-.65-.26-.29.23.36-.15-.19-.14-.21-.28-.42-.4-.64-.08-.15-.18-.31-.24-.48l.03.07c-.08-.36-.11-.3-.07.18.01.03-.24.4.05-.09.14-.23.27-.47.42-.7.17-.27.49-.57.61-.85.28-.68-.15.89-.52.09,0,0,.51.14.62.18.62.21-.13-.08.21.09.22.11.44.23.65.37.39.25.38.25.75.62.1.1.19.21.29.31.15.19.18.22.08.09.08.11.16.23.24.35.08.12.15.24.22.37.07.12.13.25.19.38-.06-.15-.05-.12.04.11.29.9.31,1.25-.11,2.15.1-.21-.05.08-.05.09-.24.37-.08.26.5-.32.21-.05.15-.06-.16-.02-.54-.02-1.1.03-1.64.05-.18,0-.36.01-.55.02-.17,0-.34.01-.52.01.25.05.46.18.62.39,0,0-.46-1.1-.47-1.13-.37-1-.69-2.02-.94-3.05-.09-.37-.33-.94-.28-1.3,0,0,.27-.49.34-.57.5-.66,1.19-1.25,1.87-1.69h-2.02c1.53.71,2.44,2.1,2.86,3.73.09.36.14.61.1.99.03-.28-.1.35-.09.32.1-.33-.13.25-.14.27-.21.42.14-.08-.18.25,0,0-.49.44-.22.23-.42.32-.51.38-1.04.43.3-.03-.15-.02-.22-.02-.36,0,.39.13-.22-.02.03,0-.64-.19-.34-.07-.2-.08-.39-.2-.57-.31.24.16-.27-.25-.26-.24-.35-.36.03.16-.22-.28.01.02-.3-.6-.18-.31-.11-.26-.19-.56-.22-.84.04.35,0-.37,0-.35,0-.15,0-.3.02-.44-.03.33.08-.36.07-.34.05-.21.11-.43.2-.63-.11.27.21-.39.19-.34.11-.2.23-.39.37-.58s.62-.69.92-.95c.46-.41,1.14-.79,1.71-1.1-.02.01.36-.1.17-.09.08,0,.44.12.49.14.2.08.39.2.57.32.12.08.24.16.36.24-.12-.1-.09-.07.1.09.64.57.97.96,1.35,1.57.51.81.86,1.57,1.12,2.32.21.59.6,1.52.56,2.04,0,.04-.08.64-.05.22l-.09.16c.13-.16.12-.15-.03.03-.22.33.17-.05-.18.16-.07.04-.71.34-.4.22-.19.07-.38.11-.57.17-.53.16.29.03-.25.04-.2,0-.4.01-.6,0,0,0-.68-.08-.32-.02-.92-.15-1.36-.33-2.12-.81-.45-.28-1.18-.95-1.44-1.37-.13-.21-.37-.58-.42-.71.02.05-.18-.66-.13-.41,0-.25,0-.28,0-.09.07-.23.08-.26.03-.1.29-.58.81-.89,1.57-1.26.6-.29,1.53-.53,2.17-.55.8-.03,1.5.07,2.12.42,0,0,.55.35.24.12.16.12.3.26.43.4.09.09.18.19.26.29-.2-.25.2.35.23.41.29.45-.05-.27.12.24.06.19.11.37.16.56.14.5.04-.29.03.23,0,.19,0,.38-.01.57.05-.44-.07.16-.08.21-.13.52.16-.25-.11.23-.31.55.09-.06-.13.22-.16.2-.35.38-.55.54-1.11.92-2.84,1.31-4.3.84-.51-.17.18.15-.28-.13-.18-.11-.36-.2-.53-.32.27.19-.24-.21-.24-.21-.15-.14-.3-.29-.42-.45.21.28-.16-.28-.15-.27-.28-.42.02.21-.13-.27s-.19-.84-.14-1.32c.18-1.6,1.24-2.98,2.59-3.7,1.49-.8,2.48-.27,3.48.98.36.45.97,1.49,1.18,2.2.13.45.2.79.13,1.35.06-.39-.09.27-.09.28-.08.23-.09.26-.02.1-.06.13-.12.25-.19.37-.22.38-.21.35-.59.73s.19-.06-.25.2c-.07.04-.7.35-.45.26-.79.3-1.47.28-2.32-.07.23.09-.09-.05-.11-.06-.13-.07-.25-.14-.37-.22-.2-.14-.24-.16-.12-.07-.43-.34-.59-.58-.81-.97.02.04-.28-.61-.17-.34-.11-.28-.19-.58-.24-.87.06.32-.03-.39-.03-.36,0-.1.05-.78.02-.59.07-.41.19-.78.32-.99.18-.31.43-.63.6-.75,0,0,.59-.27.29-.17.13-.04.27-.08.41-.1-.18.03-.15.03.1.02.51.04-.17-.15.29.05.23.07.26.09.09.04.2.13.23.15.1.06.81.71,2.03.8,2.83,0,.73-.73.81-2.11,0-2.83h0Z"/>
        <path class="cls-3" d="M79.63,34.43c-1.79.05-3.3,1.23-3.84,2.95s.08,3.53,1.36,4.74c1.38,1.31,3.6,2.12,5.48,1.58s3.01-2.12,3.28-3.93c.52-3.57-2.68-7.71-6.28-8.03-3.9-.35-6.52,3.94-6.57,7.38-.05,3.62,2.73,6.82,6.4,7.03s6.55-3.23,6.74-6.74-2.05-7.98-5.85-8.56-6.95,2.2-8.82,5.31c-1.01,1.68-1.67,3.59-1.37,5.56.27,1.77,1.33,3.25,2.78,4.27,3.1,2.19,7.23,1.25,9.94-1.1,3.04-2.63,2.67-6.74.83-9.96-.82-1.43-1.95-2.86-3.44-3.64-1.77-.92-3.76-.76-5.54.01-3.16,1.37-5.93,4.59-5.6,8.21.36,3.87,4.24,6.36,7.78,7.13s7.36-.58,8.55-4.15c1.06-3.18-.31-7.7-2.83-9.87-3-2.57-7.16-1.5-9.96.84-2.49,2.08-3.73,5.46-2.88,8.63s3.48,5.65,6.76,5.99c1.88.19,3.73-.39,5.39-1.22s3.72-1.97,4.11-3.84c.36-1.73-.21-3.81-.84-5.42-.68-1.73-1.62-3.32-2.89-4.69s-2.99-2.39-4.91-2.39-3.67.82-5.11,1.96c-2.39,1.89-4.68,6-3.03,9,.79,1.44,2.15,2.84,3.38,3.92,1.3,1.13,2.78,2.11,4.46,2.56,3.47.93,6.9-.62,9.24-3.19,1.13-1.24,2.48-2.86,2.6-4.61.07-1-.26-1.94-.56-2.88s-.59-1.87-.91-2.8c-.65-1.85-1.66-3.28-3.6-3.89-1.51-.48-3.15-.47-4.7-.22-3.05.5-5.81,2.37-7.56,4.89-.88,1.27-1.67,2.99-1.54,4.56.16,1.89,1.9,3.52,3,4.95,1.18,1.54,2.51,2.77,4.5,3.09,1.65.27,3.72.31,5.29-.3,1.96-.77,2.47-2.68,2.94-4.53s.83-3.89.6-5.84c-.39-3.32-2.57-6.81-6.1-7.38s-7.35,1.54-9.46,4.38-2.16,6.24-.76,9.25c.68,1.47,1.87,2.83,3.27,3.65,1.71,1,3.4.64,5.16.03,3.11-1.08,6.14-3.21,6.01-6.87-.11-3.35-2.72-7.39-5.78-8.81-.48-.22-1.03-.48-1.57-.48-.63,0-1.15.36-1.67.67-.88.53-1.76,1.06-2.63,1.59-1.61.97-3.38,1.86-3.72,3.89-.28,1.64-.02,3.5.26,5.12s.87,3.09,1.89,4.34c2.33,2.86,6.4,2.93,9.53,1.48s5.16-4.64,4.68-8.11c-.12-.85-1.14-1.47-1.93-1.47-.93,0-1.62.63-1.93,1.47-.76,2.07-1.88,5.29-4.58,5.28-.67,0-1.31-.19-1.94-.39-.44-.14-1.3-.29-1.66-.61.26.23-.03-.35-.05-.5-.07-.38-.13-.76-.19-1.14-.15-.89-.3-1.78-.45-2.67s-1.12-1.47-1.93-1.47c-.95,0-1.59.64-1.93,1.47-.9,2.17-.12,4.66,1.34,6.38s3.59,2.67,5.64,3.36c2.21.74,4.75.83,6.63-.72,1.73-1.43,2.25-3.61,1.35-5.64-.67-1.52-3.39-1.17-3.66.48-.12.75-.24,1.5-.36,2.25-.21,1.33.88,3.07,2.46,2.46,3.68-1.42,6.24-4.91,6.13-8.92-.07-2.61-3.77-2.53-4,0-.14,1.55-.34,3.55-1.75,4.3l2.42,3.14c1.44-1.22,1.16-3.42-.06-4.67-1.08-1.1-2.56-1.98-3.83-2.84-2.6-1.76-5.44-3.29-8.56-3.84-1.36-.24-2.41.55-2.53,1.93-.14,1.61-.16,3.21-.06,4.83.09,1.48,1.64,2.54,3.01,1.73,3.36-2,3.98-6.77.96-9.39-1.04-.9-2.35-.69-3.14.4-.93,1.29-2.39,3.11-2.47,4.76-.1,2.05,1.69,2.89,3.43,3.13.7.09,1.37-.45,1.73-.99,1.1-1.66.27-3.79-1.33-4.77s-3.57-1.45-5.33-1.07c-1.4.3-2.03,2.4-.88,3.34,1.5,1.24,3.5,1.57,5.21.48,2.16-1.39.16-4.85-2.02-3.45.04-.03-.28.21-.36.14l-.88,3.34c.52-.11,1.14.19,1.62.37.05.02.65.28.63.29-.1.07-.15-.64-.11-.7l1.73-.99c.15,0,.1-.02-.15-.07.26,1.48.53,1.84.83,1.09.21-.24.34-.62.5-.89.41-.69.85-1.35,1.32-2l-3.14.4c1.05.91,1.12,2.35-.15,3.11l3.01,1.73c-.1-1.61-.08-3.22.06-4.83l-2.53,1.93c2.14.38,4.07,1.23,5.92,2.35.91.55,1.79,1.14,2.65,1.76.45.32.91.65,1.35.98.16.12.31.26.48.36l.22.21c-.18-.33-.16-.66.06-.99-1.8,1.51.5,4.18,2.42,3.14,2.84-1.53,3.46-4.83,3.73-7.76h-4c.05,2.11-1.17,4.28-3.19,5.06l2.46,2.46c.12-.75.24-1.5.36-2.25l-3.66.48c-.12-.26-.07.09-.19.27s-.37.4-.54.47c-1.07.49-2.6-.17-3.59-.58-1.8-.74-4.27-2.23-3.33-4.5h-3.86c.19,1.14.39,2.29.58,3.43s.48,2.07,1.35,2.82c.8.69,1.89,1.02,2.88,1.36,1.07.36,2.21.64,3.35.65,4.76.04,7.01-4.36,8.43-8.22h-3.86c.21,1.54-1.49,3.02-2.76,3.56-1.53.66-3.61.74-4.68-.73s-1.11-3.61-1.15-5.34c0-.2-.07-.51,0-.68.13-.31,1.07-.68,1.34-.85,1.26-.76,2.52-1.53,3.79-2.29l-1.54.2c1.67.57,2.93,2.53,3.56,4.09.66,1.65.2,2.79-1.27,3.63-.63.36-1.3.61-1.99.83-1.03.33-1.28.52-2.07-.16-1.14-.97-1.75-2.49-1.74-3.97.01-1.63.91-3.06,2.17-4.06s3.29-2.06,4.89-1.34c1.35.61,2.09,2.24,2.26,3.64.12,1,.02,2.04-.17,3.02-.12.59-.26,1.18-.42,1.76-.13.47-.21,1.14-.47,1.55-.03.05-.04.08.14-.06-.1.08-.42.12-.57.14-.41.06-.88.05-1.3.05-.8.02-1.71.03-2.38-.47-.86-.64-1.49-1.75-2.12-2.59-.32-.42-.66-.83-.95-1.27-.14-.21-.13-.54-.16-.17.02-.21.1-.43.17-.63.99-2.92,4.21-4.81,7.17-4.69.45.02,1.25.03,1.65.32.68.5.87,1.9,1.1,2.64.16.51.33,1.02.49,1.53.11.35.37.84.32,1.22-.08.64-1.02,1.57-1.44,2.03-1.15,1.26-2.65,2.36-4.44,2.3s-3.31-1.29-4.51-2.52c-.61-.62-1.14-1.29-1.68-1.97-.26-.33-.21-.09-.15-.47.01-.09.02-.22.03-.31.06-.41.19-.84.35-1.21.6-1.4,1.83-2.62,3.3-3.07,1.96-.6,3.25,1.04,4.18,2.57.53.88.93,1.8,1.19,2.78.11.42.21.84.27,1.26.03.21.11.53.06.73-.04.19.19-.22.03-.03-.56.67-1.84,1.23-2.62,1.58-.86.38-1.85.65-2.8.52-1.33-.18-2.41-1.24-2.91-2.46-1.25-3.01,1.38-6.18,4.49-6.55,1.82-.22,2.77,1.77,3.17,3.25s.64,3.25-.87,4.1-3.39.29-4.84-.47c-1.55-.81-3.06-1.77-2.59-3.73.38-1.61,2.1-3.07,3.66-3.48,1.77-.47,2.8,1.06,3.55,2.46s1.27,3.25,0,4.5c-1.14,1.13-3,1.94-4.59,1.32-3.85-1.51-.33-6.77,2.09-7.94,1.78-.87,3.1.08,3.83,1.76.64,1.47.76,3.36-.44,4.58-1.05,1.07-2.59.86-3.54-.25-1.07-1.25-.8-3.24.13-4.49.34-.46.85-.98,1.46-.97.74.01,1.43.8,1.84,1.34s.96,1.42.81,2.17-.5.69-1.05.55-1.03-.46-1.31-.96c-.12-.23-.03-.26.03-.35.12-.18.2-.06-.02-.05,2.57-.07,2.58-4.07,0-4h0Z"/>
        <path class="cls-7" d="M61.57,36.45l-.47-.32c-.51-.36-1.23-.33-1.78-.1s-1.02.69-1.16,1.3c-.34,1.47-.15,3.06.64,4.36.36.59.86,1.04,1.54,1.21,1.03.25,2.04-.25,2.57-1.13.4-.67.57-1.46.62-2.22.04-.59-.05-1.23-.25-1.79-.31-.84-.78-1.75-1.59-2.21-.88-.51-2.01-.36-2.73.36-.39.38-.65.91-.81,1.42-.23.75-.17,1.61.03,2.35.11.4.28.78.45,1.15s.4.75.69,1.05c.73.75,1.91.97,2.84.44.37-.21.67-.5.88-.87.27-.48.4-1.17.2-1.71-.06-.26-.18-.49-.36-.68-.14-.22-.33-.39-.56-.52-.43-.25-1.06-.36-1.54-.2s-.95.46-1.2.92-.39,1.05-.2,1.54l.02.04-.07-.53s0,.06,0,.08l.07-.53v.04c.05-.16.12-.32.19-.48l-.02.04.31-.4s-.04.05-.06.07l.4-.31s-.05.04-.08.05l.48-.2s-.06.02-.09.02l.53-.07h-.05c.18.02.35.05.53.07-.03,0-.07-.01-.1-.02l.48.2s-.06-.03-.09-.05l.4.31c-.06-.05-.11-.1-.15-.16l.31.4c-.16-.22-.27-.47-.38-.72l.2.48c-.12-.29-.21-.59-.26-.91l.07.53c-.03-.21-.03-.41,0-.62l-.07.53c.02-.15.06-.29.12-.42l-.2.48c.05-.12.12-.23.2-.34l-.31.4s.05-.06.08-.08l-.4.31.05-.03-.48.2.05-.02-.53.07h.06c-.18-.03-.35-.05-.53-.07h.05c-.16-.06-.32-.12-.48-.19.04.01.07.03.1.05l-.4-.31c.07.06.14.13.2.21l-.31-.4c.15.19.27.4.37.62l-.2-.48c.11.26.18.53.22.8l-.07-.53c.04.28.04.56,0,.83l.07-.53c-.04.26-.11.51-.21.75l.2-.48c-.04.1-.09.19-.15.28l.31-.4s-.06.08-.1.11l.4-.31s-.05.04-.08.05l.48-.2h-.05c.18-.01.35-.04.53-.06h-.05c.18.03.35.05.53.07-.04,0-.07-.01-.1-.03l.48.2-.05-.03.4.31s-.08-.07-.12-.12l.31.4c-.13-.18-.23-.39-.32-.6l.2.48c-.13-.31-.21-.63-.26-.97l.07.53c-.04-.33-.04-.67,0-1l-.07.53c.02-.12.04-.25.07-.37l-2.94,1.2.47.32c.41.28,1.08.33,1.54.2s.97-.49,1.2-.92c.25-.46.37-1.03.2-1.54l-.2-.48c-.18-.3-.42-.54-.72-.72h0Z"/>
        <path class="cls-7" d="M83.83,37.31l-.28-.49c-.16-.28-.44-.55-.72-.72-.39-.23-.83-.3-1.28-.24-.36.05-.66.17-.95.39-.31.24-.66.64-.72,1.04-.05.34-.11.67-.11,1.01s.06.7.11,1.04c.08.52.28,1.01.51,1.49.28.58.71,1.14,1.26,1.49s1.19.37,1.78.22,1.1-.61,1.39-1.12c.15-.26.27-.56.32-.86.05-.33.11-.66.11-1,0-.49-.07-1.01-.23-1.48s-.35-.92-.64-1.31c-.46-.63-1-1.26-1.79-1.47-.38-.1-.79-.1-1.16.01-.46.13-.82.41-1.1.78-.38.49-.45.98-.52,1.58-.05.41-.04.83,0,1.24.14,1.19.44,2.32,1.26,3.24.52.58,1.28.91,2.05.95s1.6-.31,2.12-.89c.56-.62.85-1.38.86-2.22,0-.55-.12-1.12-.31-1.63-.48-1.31-1.23-2.76-2.66-3.21-.45-.15-.95-.15-1.41-.01-.8.23-1.32.84-1.59,1.6-.08.22-.1.46-.15.69-.05.25-.09.5-.14.75-.1.54-.08,1.05.2,1.54.24.41.72.81,1.2.92.51.12,1.09.09,1.54-.2.42-.27.83-.69.92-1.2.05-.25.09-.5.14-.75.04-.23.06-.47.15-.69l-.2.48s.04-.07.06-.1l-.31.4s.05-.05.07-.07l-.4.31.04-.02-.48.2s.08-.03.13-.03l-.53.07s.06,0,.09,0l-.53-.07c.05,0,.09.02.14.04l-.48-.2c.08.04.16.08.24.13l-.4-.31c.09.07.17.14.24.23l-.31-.4c.28.36.5.77.68,1.19l-.2-.48c.14.35.26.7.32,1.08l-.07-.53c.02.17.02.33,0,.49l.07-.53c-.02.1-.04.2-.08.3l.2-.48c-.04.09-.09.17-.14.25l.31-.4c-.06.07-.12.14-.2.2l.4-.31c-.06.04-.12.08-.19.11l.48-.2c-.05.02-.11.03-.16.04l.53-.07c-.07,0-.14,0-.21,0l.53.07c-.07-.01-.13-.03-.19-.05l.48.2c-.08-.03-.15-.08-.22-.13l.4.31c-.1-.08-.19-.17-.27-.27l.31.4c-.11-.15-.21-.31-.28-.48l.2.48c-.16-.38-.25-.78-.31-1.18l.07.53c-.06-.47-.06-.94,0-1.41l-.07.53c.01-.08.02-.14.05-.22l-.2.48.02-.04-.31.4.03-.04-.4.31.04-.03-.48.2.04-.02-.53.07h.06c-.18-.02-.35-.05-.53-.07l.05.02-.48-.2.05.03-.4-.31c.17.13.32.29.45.46l-.31-.4c.15.2.28.42.39.66l-.2-.48c.11.25.18.52.22.79l-.07-.53c.03.25.03.51,0,.76l.07-.53c-.02.13-.04.25-.08.37l.2-.48c-.03.06-.06.12-.1.17l.31-.4s-.04.05-.06.07l.4-.31s-.05.03-.08.05l.48-.2s-.06.02-.09.02l.53-.07h-.05c.18.02.35.05.53.07h-.06c.16.05.32.12.48.19-.04-.01-.07-.03-.1-.06l.4.31s-.08-.08-.12-.13l.31.4c-.18-.24-.33-.5-.45-.78l.2.48c-.11-.28-.19-.57-.23-.87l.07.53c-.04-.3-.04-.6,0-.9l-.07.53v-.06c-1.21.16-2.43.32-3.65.48l.28.49c.25.43.72.79,1.2.92s1.12.07,1.54-.2.8-.69.92-1.2.07-1.06-.2-1.54h0Z"/>
        <path class="cls-3" d="M58.79,40.79c.4-.33.74-.72,1.04-1.14.06-.09.07-.22.06-.32s-.06-.21-.14-.29c-.17-.16-.4-.18-.61-.08-.51.27-.98.61-1.4,1.02-.26.25-.15.76.22.84.49.1.96-.05,1.34-.38.33-.28.54-.75.51-1.18,0-.13-.05-.26-.15-.35s-.22-.15-.35-.15c-.69,0-1.39.32-1.82.86-.09.11-.15.21-.15.35,0,.12.05.27.15.35s.22.15.35.15c.12,0,.27-.04.35-.15.09-.12.2-.23.32-.32l-.1.08c.13-.1.27-.18.41-.24l-.12.05c.16-.07.32-.11.49-.14l-.13.02c.08-.01.16-.02.24-.02l-.5-.5c0,.06,0,.13,0,.19l.02-.13c-.01.08-.03.16-.07.24l.05-.12c-.04.08-.08.16-.14.23l.08-.1c-.06.08-.13.15-.21.21l.1-.08c-.08.06-.16.11-.25.15l.12-.05c-.08.03-.17.06-.26.07l.13-.02c-.08,0-.15,0-.23,0l.13.02s-.04,0-.06-.01l.22.84c.15-.15.31-.28.47-.41l-.1.08c.26-.2.53-.38.82-.53l-.68-.68c-.05.07-.11.15-.16.22l.08-.1c-.24.3-.5.58-.8.82-.09.08-.15.24-.15.35,0,.12.05.27.15.35s.22.15.35.15.25-.06.35-.15h0Z"/>
        <path class="cls-3" d="M80.54,40.45l.4-.34c.15-.13.18-.37.1-.55s-.26-.33-.46-.31c-.15.02-.3.04-.44.1-.18.07-.31.15-.46.27-.23.18-.39.44-.49.72-.11.31.17.63.48.63.99,0,1.92-.71,2.16-1.67.04-.16,0-.31-.09-.44-.09-.11-.24-.22-.39-.2-.4.05-.79.17-1.13.4s-.62.52-.81.87c-.18.32.04.77.43.75.89-.04,1.72-.68,1.93-1.56.09-.37-.24-.71-.62-.62-.49.13-.93.37-1.32.69-.09.08-.15.24-.15.35,0,.12.05.27.15.35s.22.15.35.15.25-.06.35-.15c.03-.02.14-.1,0,0,.02-.02.05-.03.07-.05.05-.04.11-.07.17-.11.11-.07.23-.13.35-.18l-.12.05c.13-.05.26-.1.4-.14l-.62-.62c-.02.08-.04.15-.07.23l.05-.12c-.04.09-.09.18-.14.26-.01.02-.03.05-.05.07l.05-.06s-.02.02-.03.04c-.03.04-.06.07-.1.1s-.07.06-.11.1c-.07.06.1-.07.03-.02-.02.01-.04.03-.06.04-.09.06-.18.11-.27.15l.12-.05c-.12.05-.24.08-.37.1l.13-.02s-.1.01-.14.01l.43.75c.03-.05.06-.1.09-.15.01-.02.03-.04.04-.06.05-.08-.08.09-.02.02.07-.08.14-.16.22-.24.02-.02.04-.03.06-.05.01-.01.03-.02.04-.03l-.06.05s.1-.07.14-.1c.09-.06.19-.11.29-.15l-.12.05c.16-.07.33-.12.5-.14l-.13.02h.02c-.16-.21-.32-.43-.48-.64-.02.09-.05.17-.08.25l.05-.12c-.04.1-.1.2-.16.29-.01.02-.03.04-.04.06.09-.14.03-.04,0,0-.03.04-.07.08-.11.11s-.08.07-.12.1c-.06.05.11-.08,0,0-.02.01-.04.03-.06.04-.09.06-.19.11-.29.16l.12-.05c-.14.06-.28.1-.43.12l.13-.02c-.07,0-.14.01-.21.01l.48.63s.02-.05.03-.07l-.05.12c.03-.06.06-.12.09-.17.07-.11-.06.07,0,0,.02-.02.04-.05.07-.07s.05-.04.07-.07c.06-.06-.11.08,0,0,.05-.04.11-.07.17-.09l-.12.05c.08-.03.17-.06.26-.07l-.13.02s.03,0,.05,0l-.35-.85-.4.34c-.2.17-.19.53,0,.71.21.19.5.18.71,0h0Z"/>
        <path class="cls-8" d="M57.94,116.52c.08,0,.3.29.32.26,0,0-.39-.7-.44-.84-.38-.94-.6-1.99-.78-2.99-.32-1.78-.34-3.69-.08-5.48.45-3.17,1.53-6.5,4.92-7.42,2.8-.76,6.41-.45,8.21,2.05,2.12,2.93,3.24,6.95,3.57,10.51.3,3.14.35,7.01-1.18,9.88-.52.98-1.27,1.94-2.46,2.08-1.4.16-2.81-.72-3.79-1.62-4.44-4.07-5.19-11.18-3.11-16.59.56-1.45,1.39-2.92,2.44-4.08.07-.08.84-.7.84-.71-.02.4-.79-.62-.28.16s1.15,1.43,1.63,2.22c2.13,3.45,2.96,7.42,2.59,11.44l3.76-2.16c-.85-.45-1.26-1.24-1.69-2.08-.63-1.24-1.2-2.5-1.95-3.68-1.44-2.3-3.24-4.52-5.36-6.23-2.3-1.85-5.35-2.59-7.78-.52-1.97,1.68-2.55,4.41-2.67,6.88-.25,5.3,1.43,11.48,5.1,15.44,2.04,2.19,5.84,3.57,7.88.67,1.57-2.23,2.42-4.89,2.67-7.6.56-6.02-2.87-11.94-8.15-14.77-1.07-.57-2.14-.34-3.03.39-2.33,1.92-4.31,4.56-4.82,7.6-.54,3.21.34,6.42,2.06,9.15,1.61,2.56,4.03,5.41,7.25,5.68s6.1-2.47,6.6-5.64c.94-5.96-4.55-11.89-10.61-11.31-5.63.54-9.69,6.83-7.29,12.12.86,1.9,2.91,3.27,4.97,2.12,1.53-.85,2.27-2.97,2.86-4.51,1.34-3.52,1.53-7.33.85-11.01-.36-1.92-2.92-2.32-4.18-1.1-2.82,2.74-4.15,6.46-4.56,10.3-.23,2.14-.13,4.3.05,6.44s.13,4.67,2.32,5.82c1.76.93,4.17,1.09,6.11,1.43s4,.86,5.95.66c2.14-.21,3.99-1.4,4.72-3.48.6-1.73.31-3.6-.12-5.34-1.05-4.22-3.41-9.06-8.49-8.91-.8.02-1.82.44-2.16,1.24-1.39,3.27-1.46,6.9.36,10.05,1.56,2.7,4.38,4.68,7.46,5.2,1.76.3,2.94-.69,3.16-2.41.79-5.91-3.17-11.62-8.67-13.55-1.1-.38-2.22.27-2.82,1.15-2.76,4.01.4,9.34,4.39,10.99,2.32.97,4.99.65,6.82-1.15,1.73-1.7,2.07-4.36.78-6.42-1.14-1.82-3.29-3.61-5.2-4.54-2.2-1.07-4.73-1.1-6.81.28-1.77,1.18-4.2,3.51-4.37,5.75-.2,2.6,2.41,4.61,3.99,6.37.9,1.01,1.78,2.28,2.92,3.04,1.31.87,2.76.8,4.16.19,2.42-1.05,4.59-2.69,6.34-4.66.75-.84.97-2.02.39-3.03-.85-1.49-1.82-2.89-2.9-4.23-.94-1.18-1.99-2.5-3.36-3.21-1.67-.85-3.44-.49-5.17-.09s-3.37.87-5.02,1.41c-1.26.42-2.15,1.73-1.75,3.08.54,1.78,1.24,3.52,2.12,5.15.77,1.43,1.69,3.13,3.32,3.71,1.87.66,3.67-.22,5.37-.96,1.6-.7,3.13-1.54,4.59-2.5,1.05-.69,1.72-2.28.9-3.42-1.3-1.8-2.7-3.53-4.26-5.11-1.34-1.36-2.98-3.23-4.89-3.74-2.17-.58-4.21.91-5.77,2.25s-2.71,3.18-2.51,5.26c.12,1.34,1.06,2.5,2.5,2.5,1.26,0,2.63-1.15,2.5-2.5-.07-.78.45-1.24,1.09-1.76.18-.15,1.24-.66,1.28-.86l-.41-.07s.07.06.11.09c0,.04.71.61.7.59,1.99,1.76,3.8,3.72,5.35,5.87l.9-3.42c-.97.64-1.97,1.23-3.01,1.76-.52.26-1.04.52-1.58.74-.2.08-.41.16-.62.24l-.41.15c-.45.06-.5.14-.14.22.14.02.25.08.33.18.12.14.12.12,0-.05-.03-.21-.34-.53-.45-.71-.31-.51-.6-1.04-.86-1.57-.54-1.08-.95-2.2-1.3-3.36l-1.75,3.08c1.28-.42,2.56-.81,3.86-1.14.71-.18,2.09-.78,2.78-.52.73.28,1.57,1.66,2.04,2.25.79,1.01,1.48,2.11,2.11,3.22l.39-3.03c-1.04,1.18-2.19,2.18-3.55,2.98-.34.2-.76.35-1.08.58-.13.13-.28.19-.45.17l.89.11c.07-.15-1.69-1.88-1.84-2.05-.64-.72-1.29-1.44-1.93-2.16-.12-.13-.77-1.08-.97-1.08-.23-.3-.21-.11.07.58l.09-.12c.2-.04.57-.69.74-.87.25-.28.51-.57.8-.81.42-.34.84-.61,1.4-.59,1.25.05,2.47,1.36,3.31,2.16.23.22.45.45.67.68.19.21.2.59.2.24,0-.38.08-.01-.15.15-.11.08-.2.18-.35.23-.96.32-2.19-.74-2.7-1.43-.62-.84-.88-1.76-.32-2.57l-2.82,1.15c3.58,1.25,5.49,5.1,5,8.73l3.16-2.41c-3.61-.61-6.39-4.22-4.83-7.9l-2.16,1.24c2.72-.08,3.61,4.27,3.91,6.3.06.43.17,1.06-.05,1.47,0,0,.25-.16.08-.1-.29.11-.5.1-.8.11-1.72.07-3.59-.46-5.27-.78-.93-.18-1.85-.37-2.77-.57-.49-.11-1.32-.61-.71.15.68.84.24-.35.2-.8-.18-1.9-.32-3.81-.26-5.73.11-3.1.93-6.22,3.21-8.43l-4.18-1.1c.32,1.72.34,3.55.02,5.26-.17.91-.41,1.81-.72,2.68-.12.34-.25.66-.4.98-.12.26-.25.51-.38.76-.37.53-.24.53.38.01h1.33c.52.52.64.56.36.12.07.11.05.02-.07-.26-.09-.3-.1-.42-.09-.84.01-.39.14-1,.32-1.41.51-1.16,1.47-2.1,2.67-2.34,2.79-.56,5.83,2.15,5.73,4.98-.04,1.16-.74,2.43-1.99,1.71-1.49-.85-2.62-2.72-3.37-4.21s-1.12-3.34-.64-5.02c.52-1.84,1.88-3.24,3.32-4.43l-3.03.39c5.9,3.16,7.38,10.5,3.45,15.84l1.49-1.15c-.92.21-2.03-1.84-2.4-2.46-.85-1.44-1.48-2.96-1.91-4.57s-.64-3.23-.63-4.89c0-1.22,0-2.77.81-3.79.13-.16.12-.27.41-.23.55.08,1.11.67,1.49,1.02,1.25,1.15,2.39,2.43,3.34,3.84,1.87,2.77,2.75,6.59,5.89,8.26,1.78.95,3.58-.27,3.76-2.16.46-4.89-.75-9.98-3.38-14.14-1.27-2.02-3.01-4.64-5.68-4.66s-4.5,2.2-5.86,4.2c-4.98,7.3-4.48,18.01,1.32,24.7,3.22,3.71,8.78,5.65,12.91,2.21,3.53-2.94,4.16-8.41,4.13-12.69-.04-5.11-1.33-10.58-4.05-14.95-1.4-2.24-3.31-3.95-5.86-4.74-2.25-.69-4.75-.74-7.06-.38-2.62.41-5.09,1.67-6.75,3.77-1.83,2.31-2.65,5.29-3.03,8.17s-.23,5.98.52,8.88c.67,2.58,2.15,6.01,5.39,5.73,1.35-.12,2.5-1.06,2.5-2.5,0-1.26-1.15-2.62-2.5-2.5h0Z"/>
      </g>
      <g>
        <circle class="cls-6" cx="78.36" cy="39.46" r="10.64"/>
        <ellipse class="cls-6" cx="57.03" cy="40.04" rx="9.73" ry="8.78"/>
        <path class="cls-6" d="M88.77,41.62s21.31.16,22.13,19.85c.75,18.14,1.01,19.95,1.01,19.95"/>
        <path class="cls-6" d="M85.4,78.58s20.13,5.94,24.79,6.22c0,0,2.97-4.44,8.34-2.01,5.37,2.43,9.61,12.47.85,16.56,0,0-7.21,2.26-10.6-3.82"/>
        <path class="cls-6" d="M82.92,91.72c.85.14,24.01,2.17,24.01,2.17"/>
        <path class="cls-6" d="M27.09,43.24c.04-.95,2.83-9.75,8.34-.85h11.87"/>
        <path class="cls-6" d="M25.44,43.07s-1.74-6.55-6.69-4.6c-2.83.99-2.54,4.78-2.54,4.78,0,0-9.47-1.27-11.17,8.06-.57,3.16-.48,5.23-.11,6.59.46,1.68,2.22,2.65,3.92,2.24,3.39-.81,12.19-2.67,18.21-1.77,15.16,2.26,36.08,7.35,41.87-.28"/>
        <path class="cls-6" d="M12.41,59.36s-1.77,2.21.44,5.27c1.41,1.95,5.03,3.36,17.2,4.33,4.05.32,17.34.72,17.24,9.61-.08,8.05-2.4,30.89-2.89,35.2-.05.44-.11.87-.19,1.31-.34,1.96-1.3,8.13-.46,10.13,1.28,3.05,8.95,5.63,15.83,6.93,4,.75,51.41,4.7,61.59-.25"/>
        <path class="cls-6" d="M113.16,99.77s-1.06,10.47,30.53,14.57c17.1,1.84,22.76,1.27,24.59,3.11s2.54,3.67,1.7,6.08-24.1,12.86-45.59,7.49"/>
        <path class="cls-6" d="M45.68,83.15s-6.44,5.73-7.01,6.02-17.53-5.17-15.83,8.16c1.27,6.68,13.43,5.13,15.97.75"/>
        <line class="cls-6" x1="46.25" y1="92.59" x2="39.81" y2="96.1"/>
        <line class="cls-6" x1="23.35" y1="94.53" x2="30.28" y2="92.94"/>
        <line class="cls-6" x1="26.28" y1="100.82" x2="33.24" y2="96.1"/>
        <path class="cls-6" d="M115.99,89.17c1.33.3,8.33,1.63,8.33,1.63"/>
        <line class="cls-6" x1="115.99" y1="93.47" x2="122.31" y2="97.33"/>
        <path class="cls-6" d="M120.56,105.98s8.01-5.28,10.27-4.68c2.26.6,1.03,10.9,1.03,10.9"/>
        <path class="cls-6" d="M27.05,57.8c-.03.07.89-3.89,2.23-4.31s4.03,2.56,4.45,5.87"/>
        <path class="cls-6" d="M36.77,59.52s2.34-6.46,4.23-6.46c.14,0,3.75,2.46,6.29,8.21"/>
        <path class="cls-6" d="M51.47,61.66c-.01.27,1.41-7.82,2.33-8.21s5.94,5.58,7.14,8.4"/>
        <ellipse class="cls-6" cx="20.27" cy="43.2" rx=".36" ry=".54"/>
        <ellipse class="cls-6" cx="30.88" cy="43.07" rx=".29" ry=".41"/>
      </g>
    </g>
  </g>
</svg>