<?xml version="1.0" encoding="UTF-8"?>
<svg id="zoo" xmlns="http://www.w3.org/2000/svg" xmlns:xlink="http://www.w3.org/1999/xlink" viewBox="0 0 132 132">
  <defs>
    <style>
      .cls-1 {
        fill: #9fc7ff;
      }

      .cls-2 {
        fill: #f6f6f6;
      }

      .cls-3 {
        fill: #8c4b15;
      }

      .cls-4, .cls-5 {
        fill: none;
      }

      .cls-6 {
        clip-path: url(#clippath-1);
      }

      .cls-7 {
        fill: #aaffcd;
      }

      .cls-8 {
        fill: #fdc055;
      }

      .cls-9 {
        fill: #fdd691;
      }

      .cls-10 {
        fill: #1d1d1b;
      }

      .cls-5 {
        stroke: #501a36;
        stroke-linecap: round;
        stroke-linejoin: round;
      }

      .cls-11 {
        clip-path: url(#clippath);
      }
    </style>
    <clipPath id="clippath">
      <circle class="cls-4" cx="65.79" cy="-106" r="63.91"/>
    </clipPath>
    <clipPath id="clippath-1">
      <circle class="cls-4" cx="66.09" cy="66.09" r="63.91"/>
    </clipPath>
  </defs>
  <g id="crab">
    <g class="cls-11">
      <rect class="cls-1" x="-42.82" y="-223.87" width="226.03" height="226.03"/>
    </g>
  </g>
  <g id="giraffe">
    <g class="cls-6">
      <g>
        <rect class="cls-7" x="-40.55" y="-57.19" width="219.97" height="219.97"/>
        <g>
          <g>
            <path class="cls-8" d="M60.98,55.72c2.78,6.43,12.06,4.59,13.71-1.64s-4.69-12.97-10.96-12.63c-7.28.39-9.51,9.16-5.09,14.2,4.48,5.11,13.22,6.2,17.32.1,7.77-11.55-9.95-33.54-19.52-20.17-4.15,5.8.8,14.12,5.97,17.46,6.29,4.06,14.3.5,13.76-7.39-.42-6.01-6.78-14.02-13.41-12.82-8.72,1.58-5.28,13.41-.98,17.61,3.12,3.05,7.82,1.42,9.19-2.43s-.39-8.48-4.21-10.37c-2.79-1.37-7.56-.5-8.08,3.29-1.14,8.24,5.31,17.05,14.34,13,8.06-3.62,7.04-16.3-2.09-17.63-2.3-.33-5.05.19-6.21,2.53-3.06,6.19-2.33,13.32,2.6,18.38,4.32,4.44,11.58,7.02,17.55,4.77,16.02-6.01.48-27.89-12.56-22.09-14.31,6.37-5.78,28.11,8.19,27.99,5.98-.05,11.61-5.14,9.84-11.44s-10.09-9.64-15.84-11.07c-6.22-1.54-17.18.57-15.85,9.15,1.08,6.99,8.31,12.07,15.19,11.26,2.79-.33,5.72-2.25,5.5-5.5-.79-11.69-22.32-18.2-25.13-4.39-1.08,5.29,1.79,12.18,6.71,14.54,5.34,2.56,12.45,1.67,14.35-4.65,1.8-5.98-2.32-11.45-7.46-14-4.87-2.42-13.76-2.96-16.34,3.17-2.31,5.49,3,12.16,7.49,14.68,4.98,2.8,13.19,3.92,18.44,1.09,6.49-3.5,5.51-11.67.15-15.71-5.56-4.19-13.02-3.28-18,1.28-1.65,1.51-2.22,4.77-.86,6.67,3.89,5.4,9.36,9.08,16.11,9.66,6.23.54,13.34-2.03,13.41-9.26.02-2.36-1.72-4.73-4.04-5.3-2.85-.7-5.1-.39-7.71.97-2.85,1.49-3.12,4.9-1.97,7.53,2.23,5.1,6.03,9.33,12.03,9.01,2.97-.16,5.49-2.39,5.5-5.5v-1.32c0-2.18-1.69-4.94-4.04-5.3-.67-.1-1.34-.21-2.02-.31-3.19-.5-7.3,1.38-6.96,5.3.58,6.7,4.31,11.67,10.76,13.78,4.64,1.52,8.55-4.07,6.21-8.08-1.63-2.79-3.69-4.85-6.53-6.41-3.59-1.97-8.33.48-8.28,4.75.05,3.97.94,7.29,2.77,10.8.84,1.61,2.92,2.84,4.75,2.72,5.44-.36,10.21-4.03,10.16-9.91-.07-7.03-6.02-8.79-11.92-7.79-2.26.38-4.14,3.08-4.04,5.3.15,3.37.9,6.17,2.4,9.2,1.67,3.39,6.16,3.26,8.64,1.11,5-4.33,6.18-11.8-.13-15.58-5.06-3.04-9.72,2.81-7.53,7.53,1.54,3.32,3.67,6.11,6.45,8.49,2.48,2.14,6.97,2.29,8.64-1.11,1.83-3.74,2.77-7.46,2.41-11.65-.31-3.64-4.63-7.53-8.28-4.75s-5.62,6.99-3.84,11.65,6.59,6.69,11.35,6.96c2.82.16,5.71-2.65,5.5-5.5-.26-3.48-.86-6.66-2.22-9.89-1.09-2.6-3.67-4.92-6.77-3.84-4.19,1.46-9.23,4.89-7.45,10.05s8.64,6.76,13.4,7.1c3.89.28,5.85-3.72,5.3-6.96-.68-4.07-1.26-8.67-6.09-9.57-4.4-.82-7.9,2.44-10.15,5.85-1.75,2.66-.32,5.85,1.97,7.53,7.07,5.15,15.71-2.97,13.18-10.61-2.82-8.55-13.72-10.21-20.59-5.8l7.53,1.97-.27-.57v5.55c-1.25,1-.95,1.27.89.81,1.07.19,2.02.64,2.84,1.35l4.24-10.05c-2.67-.53-7.44-.57-9.6-2.2l2.53,3.29-.18-.89-3.84,6.77c1.47-.22,5.78-1.14,6.46.97,2.18,6.7,12.77,3.85,10.61-2.92-1.64-5.12-5.78-8.66-11.3-8.54-.65.01-3.21.86-3.71.53-.76-.51-.95-2.36-1.34-3.13-1.14-2.28-2.98-3.65-5.4-4.32-4.37-1.22-9.01,4.03-6.21,8.08.57.83,1.14,1.66,1.71,2.48l7.53-7.53c-2.4-1.59-3.26-4.44-3.99-7.08l-.36-1.39c-.33-2.58-.9-1.88-1.71,2.12.26.2,4.37-2.6,4.65-2.77l-8.28-4.75c-.04,1.47-.08,2.94-.13,4.41-.07,2.54,1.78,4.51,4.04,5.3,3.01,1.05,5.81,1.04,8.91.33,3.47-.8,5.04-5.12,3.29-8.08s-4.13-4.88-7.59-5.68c-3.67-.85-8.42,2.62-6.77,6.77s3.81,6.9,7.41,9.29c4.2,2.78,9.12-1.8,8.08-6.21-.95-4.03-2.86-7.36-5.73-10.32-2.6-2.68-6.71-1.76-8.64,1.11-1.23,1.83-1.52,3.25-1.65,5.43-.29,4.58,6.35,7.5,9.39,3.89,1.98-2.35,4.05-4.07,6.77-5.52,3.4-1.81,3.23-6.03,1.11-8.64l-.92-1.13c-3.88-4.77-9.93.63-9.19,5.35.33,2.12,1.02,3.88,1.91,5.82,1.61,3.51,6.18,3.13,8.64,1.11,2.98-2.45,3.96-6.39,2.77-10.01s-6.46-5.91-9.19-2.43c-1.84,2.34-2.83,4.31-2.78,7.37.06,4.4,4.56,6.54,8.28,4.75s4.99-4.72,5.29-8.49c.35-4.32-4.88-6.64-8.28-4.75-2.08,1.16-4.16,2.32-6.25,3.48l-1.56.87c-2.47.82-2.07,1.53,1.19,2.12.41-2.04-5.46-5.57-6.74-6.2-6.65-3.26-13.89-1.75-20.46.86l5.35,9.19c3.06-3.49,7.52-2.87,11.73-2.27l1.46-10.8c-5.12.02-10.72-.26-15.77.68-4.87.91-6.03,5.08-7.91,9.23-3.05,6.72-9.42,17.26-4.97,24.41,2.42,3.89,8.88,3.41,10.05-1.31,1.63-6.57,1.53-13.1-.48-19.58-1.73-5.58-8.61-4.83-10.61,0-2.96,7.15-2.44,16.38-3.05,24.01-.68,8.54-1.24,17.08-1.57,25.64-.24,6.16,9.4,7.53,10.8,1.46,1.97-8.51,3.6-17.07,4.88-25.7.86-5.78-6.69-10.06-10.05-4.24-2.15,3.72-1.82,7.59-1.68,11.75.19,5.59.39,11.18.61,16.76.43,10.85.91,21.69,1.45,32.53.35,7.03,11.12,7.12,11,0-.18-10.4-.53-20.79-1.07-31.17-.36-7.06-10.7-7.1-11,0-.34,8.16-.39,16.31-.16,24.48h11c-.58-5.02-.93-10.04-1.04-15.09-.16-7.19-10.35-6.95-11,0-1.2,12.83-1.59,25.68-1.18,38.55.22,7.06,11.03,7.11,11,0-.05-11.05-.1-22.09-.16-33.14-.03-7.12-10.61-7.03-11,0-.3,5.38-.6,10.77-.9,16.15-.23,4.17,4.85,6.85,8.28,4.75,3.55-2.18,5.14-5.08,5.42-9.2.43-6.49-8.87-7.04-10.8-1.46-1.49,4.32-2.99,8.63-4.48,12.95l10.61,2.92,2.32-6.82-10.05,1.31c1.41,2.61,2.94,5.18,5.14,7.22,1.82,1.69,4.3,2.84,5.68,4.95,2.11,3.24,7.54,3.89,9.5,0,1.02-2.03,1.34-3.62.69-5.8l-5.3,6.96c1.07,0,2.17,2.4,3.03,3.03,1.74,1.28,3.44,1.19,5.48.88,1.82-.28,3.39-2.16,3.84-3.84l.15-.57c1.85-6.84-8.76-9.76-10.61-2.92l-.15.57,3.84-3.84-.69.11,5.35,1.41c-1.34-1.34-1.88-2.93-3.64-4.08-2-1.3-4.25-1.75-6.6-1.75-3.51,0-6.33,3.53-5.3,6.96l.24.81.55-4.24-.38.75h9.5c-3.11-4.77-8.04-7.05-10.81-12.18-2.38-4.39-8.6-2.96-10.05,1.31l-2.32,6.82c-2.28,6.73,8.3,9.58,10.61,2.92,1.49-4.32,2.99-8.63,4.48-12.95l-10.8-1.46.03-.3,8.28,4.75c.3-5.38.6-10.77.9-16.15h-11c.05,11.05.1,22.09.16,33.14h11c-.41-12.87-.01-25.73,1.18-38.55h-11c.11,5.05.46,10.07,1.04,15.09.79,6.84,11.21,7.25,11,0-.24-8.16-.18-16.32.16-24.48h-11c.53,10.38.89,20.77,1.07,31.17h11c-.47-9.53-.91-19.06-1.29-28.59-.19-4.6-.36-9.2-.53-13.81-.08-2.3-.16-4.6-.24-6.9-.06-1.72-.74-4.61.17-6.2l-10.05-4.24c-1.29,8.64-2.91,17.2-4.88,25.7,3.6.49,7.2.97,10.8,1.46.31-7.9.8-15.79,1.42-23.67.56-7.24.01-16.3,2.81-23.06h-10.61c1.44,4.64,1.65,9.01.48,13.73l10.05-1.31c-.54-.86,2.38-7.13,3.05-8.79,1.51-3.76,3.24-7.41,5.08-11.02l-4.75,2.72c5.25-.43,10.5-.66,15.77-.68,5.96-.03,7.78-9.9,1.46-10.8-8.09-1.15-16.55-1.61-22.43,5.1-3.24,3.7-.2,11.4,5.35,9.19,3.35-1.33,7.54-3.18,11.23-2.17,3.27.9,3.61,3.83,6.1,5.65,5.87,4.28,14-2.89,19.11-5.73l-8.28-4.75.16-1,8.28,4.75-.44.41c-3.06-.81-6.13-1.62-9.19-2.43l.06-.69c2.88.37,5.76.74,8.64,1.11-.45-1.02-.72-2.08-.8-3.19l-9.19,5.35.92,1.13,1.11-8.64c-3.47,1.84-6.47,4.23-9,7.24,3.13,1.3,6.26,2.59,9.39,3.89l.15.12c-2.88.37-5.76.74-8.64,1.11,1.6,1.66,2.38,3.23,2.91,5.47l8.08-6.21c-1.04-.69-1.89-1.54-2.36-2.72l-6.77,6.77,1.02.62,3.29-8.08c-1.07.35-2.09.24-3.06-.33l4.04,5.3c.04-1.47.08-2.94.13-4.41.12-4.18-4.76-6.84-8.28-4.75-5.75,3.42-9.75,5.73-7.99,13.07,1.47,6.13,4.04,11.5,9.41,15.05,4.49,2.97,10.64-3.01,7.53-7.53-.57-.83-1.14-1.66-1.71-2.48l-6.21,8.08c-1.48-1.09-1.8-.82-.97.81.31.85.69,1.66,1.17,2.43.97,1.49,2.37,2.74,3.95,3.55,1.72.88,3.58,1.19,5.49,1.11,1.01-.04,4.08-1.23,4.44-.11l10.61-2.92c-2.96-9.1-11.78-9.87-19.99-8.65-3.08.46-4.37,4.15-3.84,6.77,1.3,6.46,9.8,6.47,14.93,7.48,6.09,1.2,9.58-6.54,4.24-10.05-4.17-2.74-9.66-3.8-14.42-1.93-4.29,1.69-6.07,5.64-4.09,9.84,1.24,2.61,5.19,3.47,7.53,1.97.78-.73,1.71-1.07,2.77-1.03,1.74.93,3.28.41,4.64-1.54l1.97,7.53-1.24-.51-3.84-3.84c.71,1.76.9,3.59,1.21,5.45l5.3-6.96c-1.85-.13-3.76-1.93-2.99.37l-.55,4.24.52-.15-6.77-3.84c.96,2.3,1.64,4.46,1.82,6.96l5.5-5.5c-1.38-.59-2.03.04-1.95,1.89l-8.28-4.75c.19,2.24.1,4.04-.91,6.1,2.88-.37,5.76-.74,8.64-1.11-2.14-1.84-3.54-3.72-4.73-6.27-2.51,2.51-5.02,5.02-7.53,7.53-.12-2.84-.82-3.41-2.1-1.69,2.88.37,5.76.74,8.64,1.11-.65-1.13-.94-2.35-.9-3.65l-4.04,5.3,1.34.21-3.29-2.53.78-1.59,4.75,2.72c-.95-1.82-1.24-3.22-1.27-5.25l-8.28,4.75c1.32.72,1.83,1.17,2.58,2.46l6.21-8.08c-1.51-.49-2.54-1.54-2.69-3.17-2.32,1.77-4.64,3.54-6.96,5.3.67.1,1.34.21,2.02.31l-4.04-5.3v1.32c1.83-1.83,3.66-3.67,5.5-5.5-1.47.08-2.07-2.5-2.53-3.57l-1.97,7.53-.77.13-4.04-5.3c.02-2.09.63-1-1.04-1.64-.98-.37-2.18-.29-3.21-.69-1.91-.73-3.57-1.96-4.77-3.63l-.86,6.67c1.02-.93,1.62-.46,2.71-.72,1.41,1,2.1.23,2.07-2.29-.53.13-1.07.18-1.61.14-2.69-.64-8.01.04-8.5-4.13l-1.61,3.89c.87-.68,3.7,2.03,4.39,1.32l3.89-1.61c-2.05.05-3.74.43-3.61-2.41-.07,1.46-.1.6,1.34,1.51,1.12.7,2.02,1.64,1.94.52l5.5-5.5c-2.58.31-4.08-.56-4.59-3.18l-.55,4.24c1.09-1.44,7.43,1.63,8.64,2.29.87.44,1.69.97,2.44,1.6,1.78-2.31,1.87-3.25.26-2.81-1.24-1.19-2.71-.78-3.57-2.76-.78-1.79-.86-3.88,1.24-3.89.23,0,4.13,1.62,1.66,1.43-3.38-.25-6.8-3.97-5.14-7.33l-6.21,2.53,1.28-3.06-8.08,3.29-.84-2.05c3.06-.81,6.13-1.62,9.19-2.43-1.55-1.52-.55-2.42-2.18-.55l-3.89,1.61c.25-.03,1.19,2.55,1.75,2.79,6.5,2.79-.09-10.78-1.13-3.6.88.63,1.58,1.43,2.08,2.39.5.94.79,1.95.85,3.02-.28,1.18-.17,1.32.34.43-5.17,5.13-4.14,5.6,3.09,1.41-2.8-6.48-12.28-.89-9.5,5.55h0Z"/>
            <path class="cls-8" d="M57.4,62.83c-1.14,9.61-.86,19.46-1.1,29.13-.18,7.15,10.47,6.98,11,0,.62-8.14,1.24-16.29,1.87-24.43.47-6.11-9.72-7.59-10.8-1.46-3.31,18.75-3.92,37.69-1.49,56.59.88,6.86,11.7,7.13,11,0-1.09-11.02-1.71-22.06-1.33-33.14h-11c1.48,16.51,3.53,32.96,6.1,49.33.95,6.06,11.46,4.71,10.8-1.46-1.35-12.76-2.7-25.51-4.05-38.27h-11c1.63,14.75,4.6,29.22,9.15,43.35,2.16,6.71,12.78,3.84,10.61-2.92-4.23-13.17-7.24-26.67-8.76-40.42-.77-6.95-11.75-7.05-11,0,1.35,12.76,2.7,25.51,4.05,38.27l10.8-1.46c-2.42-15.41-4.31-30.88-5.71-46.41-.63-6.96-10.75-7.18-11,0-.39,11.08.24,22.11,1.33,33.14h11c-2.3-17.87-2.04-35.92,1.1-53.66-3.6-.49-7.2-.97-10.8-1.46-.62,8.14-1.24,16.29-1.87,24.43h11c.24-9.67-.04-19.52,1.1-29.13.83-7.02-10.17-6.96-11,0h0Z"/>
            <path class="cls-8" d="M56.53,47.79c-3.22,2.78-4.06,6.71-4.78,10.73-.9,5.04-1.53,10.12-1.96,15.21-.52,6.14,9.6,7.54,10.8,1.46.93-4.67,1.66-9.38,2.18-14.11.44-4.07.81-7.86-2.45-10.85-2.33-2.13-7.15-2.31-8.64,1.11-3.84,8.87-5.92,17.97-5.96,27.66-.02,5.42,7.55,7.54,10.25,2.78,4.58-8.07,4.47-18.62,4.62-27.66.11-6.43-8.85-7.17-10.8-1.46-3.62,10.58-6.48,21-4.46,32.22,1.18,6.56,10.22,4.23,10.8-1.46.93-9.14,1.86-18.27,2.79-27.41.43-4.26-4.96-6.71-8.28-4.75-5.6,3.31-6.07,11.87-6.81,17.71-.95,7.43-.25,14.23,2.7,21.13,2.3,5.37,10.05,2.15,10.25-2.78.34-8.15.67-16.3,1.01-24.45.25-6.08-9.75-7.65-10.8-1.46-3.02,17.75-4.45,35.65-.36,53.35,1.62,7.04,11.64,3.9,10.61-2.92-1.15-7.59-1.49-15.23-1.24-22.9h-11c.69,14.6.76,29.22.24,43.83h11c-.09-5.27-.31-10.54-.66-15.8-.47-7.01-10.81-7.14-11,0-.16,5.95-.06,11.88.31,17.81.28,4.49,5.96,7.59,9.39,3.89,2.45-2.65,3.04-5.07,2.32-8.58-1.34-6.6-10.12-4.18-10.8,1.46-.22,1.81-.44,3.62-.66,5.43l-.22,1.81c-.57,2.28-.31,2.41.77.4h7.78l-.22-.23v7.78l.17-.18c4.85-5.15-2.92-12.95-7.78-7.78l-.17.18c-2.07,2.2-2.11,5.57,0,7.78l.22.23c2.16,2.26,5.57,1.9,7.78,0,3.47-2.99,2.83-11.31,3.33-15.42-3.6.49-7.2.97-10.8,1.46l.51-2.12,9.39,3.89c-.37-5.94-.47-11.87-.31-17.81h-11c.35,5.26.57,10.53.66,15.8.12,7.09,10.74,7.07,11,0,.53-14.61.45-29.22-.24-43.83-.33-7.06-10.77-7.1-11,0-.29,8.68.33,17.24,1.63,25.82l10.61-2.92c-3.62-15.68-2.31-31.78.36-47.5l-10.8-1.46c-.34,8.15-.67,16.3-1.01,24.45l10.25-2.78c-1.76-4.11-1.91-8.61-1.49-13,.2-2.12.58-4.2,1.02-6.28.24-1.13.5-2.26.78-3.39.76-1.76.71-2.14-.15-1.13l-8.28-4.75c-.93,9.14-1.86,18.27-2.79,27.41l10.8-1.46c-1.63-9.02,1.57-17.95,4.46-26.37l-10.8-1.46c-.12,6.92.38,15.93-3.12,22.11l10.25,2.78c.03-7.63,1.42-15.08,4.46-22.11-2.88.37-5.76.74-8.64,1.11-.96-.88-.4.25-.58,1.25-.28,1.55-.33,3.16-.55,4.72-.38,2.78-.88,5.54-1.43,8.29,3.6.49,7.2.97,10.8,1.46.29-3.51.68-6.99,1.25-10.47.39-2.34.39-6.08,2.27-7.7,5.37-4.63-2.44-12.38-7.78-7.78h0Z"/>
            <path class="cls-8" d="M27.2,42.92c2.63,4.77,9.24,5.88,12.86,1.51,2.83-3.42,1.56-7.55-2.43-9.19-3.77-1.56-9.23-1.09-11.07,3.1-1.64,3.71.56,7.8,3.9,9.59,6.76,3.62,20.29-4.9,13.03-12.18-2.64-2.65-7.52-3.89-11.04-2.61-4.2,1.52-5.83,6.25-3.88,10.19,3.58,7.23,16.6,6.04,20.81.37,1.2-1.62.8-3.9,0-5.55-3.71-7.7-17.44-5.85-18.21,2.87-.36,4.06,2.73,7.37,6.42,8.59,4.28,1.41,8.75.13,12.5-2.08s3.48-7.32,0-9.5c-5.38-3.37-15.94-1.49-14.08,6.82,1.7,7.62,11.87,5.73,17.5,5.65,7.07-.09,7.09-11.09,0-11-1.73.02-3.45.05-5.18.07-.74,0-1.48.02-2.22.03-2.85-.41-2.63,1.09.67,4.49l-2.53,3.29.28.15v-9.5c-1.9,1.12-6.68,1.47-4.65,5.67v-5.55c1.05-1.41.08-1.11-1.23-.95-2.43.29-.47-1.26-.17.91l-.55,4.24c-2.62.63-3.24,1.14-1.88,1.52l-1.41-5.35c.96-1.1,1.04-1.35.23-.76-1.76.84-1.08,2.23,2.03,4.17l-2.53,3.29c-1.21.08-1.09.3.35.64l-2.43-9.19,4.42.72c-3.41-6.2-12.92-.66-9.5,5.55h0Z"/>
            <path class="cls-8" d="M89.44,14.32c-.08-1.73-1.79-2.88-3.42-2.2-1.38.57-1.77,2.12-1.62,3.48s.81,2.69,2.23,3.04c1.66.42,3.1-.81,3.61-2.3.89-2.56-1.12-5.57-3.98-4.84-1.28.33-2.28,1.44-2.34,2.78s.76,2.69,1.68,3.55c1.07.99,2.58,1.39,3.89.6,1.22-.74,1.7-2.38,1.28-3.7-.78-2.49-4.75-4.99-6.79-2.44-1.69,2.11-.98,5.79,1.81,6.53s5.26-2.11,3.64-4.66c-.95-1.5-2.92-1.83-4.29-.71-1.03.83-1.74,2.23-2.34,3.39-1.32,2.54-2.09,5.23-2.45,8.06-.11.85.7,1.72,1.47,1.93.85.23,1.81-.15,2.26-.92,1.48-2.54,2.82-5.16,4.02-7.85.44-.99.29-2.15-.72-2.74-.89-.52-2.24-.25-2.74.72-1.72,3.36-2.96,6.94-4.18,10.51-.72,2.12,2.7,3.61,3.66,1.54,1.52-3.28,3.16-6.5,4.92-9.66.52-.94.23-2.18-.72-2.74-1.01-.59-2.1-.16-2.74.72-2.46,3.42-4.4,7.16-5.86,11.11-.34.92.31,2.02,1.16,2.36.9.36,2.01.07,2.5-.82,1.78-3.24,3.72-6.4,5.82-9.45.5-.73,1.02-1.46,1.54-2.18.55-.76,1.35-1.55,1.6-2.48.66-2.39-2.19-3.88-4.16-3.89-2.57,0-2.58,3.99,0,4,.25.01.3,0,.14-.01.23.08.29.09.16.02.2.14.25.16.16.06.2.18.22.21.05.06l-.27-1.01v.23c.08-.34.18-.67.27-1.01-.27.6-.76,1.13-1.15,1.66-.41.57-.82,1.14-1.23,1.71-.75,1.07-1.49,2.16-2.2,3.26-1.48,2.28-2.87,4.62-4.18,7l3.66,1.54c1.34-3.62,3.2-7.03,5.46-10.16l-3.45-2.02c-1.76,3.16-3.4,6.38-4.92,9.66l3.66,1.54c1.11-3.24,2.21-6.49,3.78-9.55l-3.45-2.02c-1.2,2.69-2.54,5.31-4.02,7.85l3.73,1.01c.27-2.16,1.02-4.43,2.08-6.39.27-.5.56-.98.87-1.45.07-.11.14-.22.22-.33.17-.23.2-.28.09-.15-.3.13-.62.17-.96.13l-.47-.26c-.59-.59,0-1.31.58-1.51.24.05.24.05.01,0,.09.01.16.05.21.11.14.15.14.41.08.04.06.33.03-.32,0-.03.03-.15.07-.29.12-.43-.08.44-.46.62-1.16.53-.04-.08.29.17.36.22-.02-.02.32.27.42.36.09.08.17.16.24.25-.05-.02-.08-.06-.08-.12.04-.27.02-.48.26-.71.39-.33.8-.39,1.23-.17.13.13.1.11-.08-.06-.37-.39.07.17-.22-.28-.44-.68.04-.36-.39.34-.1.16-.25.32-.43.38-.47.16-.74-.16-.86-.52,0,.22,0,.26.02.13.03-.13.02-.09-.03.12.1-.18.08-.15-.05.08.83-.56,1.47-.53,1.94.11l.07.15c-.05-.23-.06-.24-.03-.02-.01-.12-.02-.24-.02-.37.09-.93-.58-.68-2.01.74l-.72-.72.07.12-.27-1.01v.14c.06,1.08.89,2,2.01,2,1.04,0,2.05-.92,2-2h0Z"/>
            <path class="cls-8" d="M48.51,17.58c-1.02.31-1.62.82-2.25,1.65-.46.6-.27,1.41,0,2.02.48,1.11,1.72,1.72,2.9,1.68,1.28-.04,2.29-.87,3.05-1.83.71-.9.77-1.92,0-2.83-1.01-1.18-2.7-1.54-4.16-1.11-1.7.5-3.11,2.32-2.1,4.04.85,1.45,2.62,2.07,4.22,1.77,1.83-.34,2.99-1.76,4.05-3.16.7-.93.06-2.15-.72-2.74-2.46-1.85-6.15-.28-6.94,2.55-.3,1.06.37,2.14,1.4,2.46,2.32.72,4.92-.34,6.03-2.5.45-.87.28-1.69-.31-2.42-.97-1.21-2.63-1.73-4.09-1.19s-2.45,2.28-2.03,3.83c.92,3.46,6.56,2.34,5.7-1.25-.35-1.47-1.82-2.38-3.27-2.28-1.82.13-3.04,1.9-3.03,3.64.02,3.18,3.3,6.14,5.63,7.88,1.49,1.11,3.31-.72,2.94-2.26-.61-2.54-2.09-4.57-4.16-6.11-1.7-1.26-3.62,1.12-2.74,2.74,2.1,3.83,4.21,7.66,6.31,11.49l3.45-2.02c-1.07-1.86-2.04-3.77-2.86-5.76-.41-1-1.33-1.71-2.46-1.4-1.01.28-1.73,1.43-1.4,2.46,1.09,3.44,2.08,6.91,2.95,10.41l3.66-1.54c-.39-.72-.5-1.37-.45-2.19.12-2.21-3.57-2.78-3.93-.53-.32,2.01-.64,4.01-.95,6.02-.36,2.26,2.28,3.42,3.66,1.54,1.71-2.35,2.86-5.08,3.32-7.95l-2.94,1.2c2.44,1.18,5.18.47,6.67-1.82.91-1.41-.62-3.52-2.26-2.94-1.19.42-2.07,1.09-2.74,2.16-1.27,2.04,1.48,3.81,3.14,2.42,1.93-1.62,4.21-2.81,6.63-3.5,1.17-.33,2.37-.57,3.59-.65.61-.04,1.23-.09,1.84-.04.13.01.46.11.58.08.37-.1.08.38.19-.31-.17,1.07.27,2.15,1.4,2.46.95.26,2.29-.32,2.46-1.4.33-2.03-.66-3.78-2.63-4.49-1.85-.67-4.13-.34-6.03-.05-4.03.63-7.74,2.46-10.85,5.07l3.14,2.42c.1-.16.17-.26.35-.32l-2.26-2.94c-.24.37-.77.59-1.19.38-1.04-.5-2.71-.18-2.94,1.2-.42,2.58-1.38,4.88-2.92,7l3.66,1.54c.32-2.01.64-4.01.95-6.02l-3.93-.53c-.08,1.5.28,2.89,1,4.21,1.11,2.02,4.2.63,3.66-1.54-.87-3.5-1.86-6.97-2.95-10.41l-3.86,1.06c.95,2.31,2.02,4.55,3.26,6.71s4.69.24,3.45-2.02c-2.1-3.83-4.21-7.66-6.31-11.49l-2.74,2.74c1.23.91,1.97,2.25,2.32,3.72l2.94-2.26c-.89-.67-1.72-1.48-2.41-2.36-.33-.42-.63-.87-.9-1.33-.08-.14-.19-.49-.29-.6-.28-.29.09-.09,0-.05l-1.01.27-.69-1.22.51-.88c.4-.25.8-.26,1.2-.03l.51.88c-.09.47-.42.68-.97.64.13.08.23.18.3.32l-.31-2.42c-.33.64-.83.88-1.52.67l1.4,2.46c.15-.55.72-.42,1.07-.16l-.72-2.74c-.35.46-.75,1.03-1.3,1.25-.3.12-.07.13-.18-.12v2.02c-.29.47-.07-.38.09.02.11.27-.58-.54,0,.14v-2.83c-.15.19-.3.38-.47.56-.39.32-.12.45.8.39v2.02l-.14.18c2.46-.75,1.41-4.61-1.06-3.86h0Z"/>
            <path class="cls-9" d="M95.07,63.62c-3.22.84-5.21,4.49-4.22,7.67.53,1.71,1.99,3.29,3.89,3.25,2.09-.04,3.61-2.39,4.62-3.97s2.18-3.66,2.09-5.55-1.37-3.25-3.12-3.73c-3.12-.86-7.29.8-9.33,3.22-2.46,2.91-1.94,7.09.98,9.51s6.97,2.16,9.91-.17c2.79-2.2,5.18-7.02,2.13-9.99-2.85-2.77-8.06-2.53-11.17-.38-2.94,2.03-5.08,6.05-4.11,9.67,1.13,4.2,6.17,4.89,9.51,3.05s6.05-5.79,5.84-9.69c-.2-3.65-2.9-7.05-6.68-7.32-3.97-.29-7.02,3.01-8.98,6.07s-4.05,7.91-.99,11.07c2.63,2.71,7.67,2.3,10.58.31,3.19-2.18,4.68-6.71,2.3-10.05-2.15-3.02-6.63-5.17-10.25-3.74-3.41,1.35-4.89,5.34-4.91,8.77s1.49,6.96,4.94,7.86c3.86,1.01,7.44-1.93,8.76-5.35s.55-7.85-2.46-10.13c-1.44-1.09-3.33-1.6-5.06-.89-1.87.77-2.84,2.71-3.73,4.4-1.76,3.33-2.9,7.51-.68,10.93,1.89,2.92,5.97,3.93,8.79,1.66,3.14-2.53,1.9-7.68-1.53-9.31-3.68-1.75-7.6,1.24-8.15,4.98-.29,1.98.28,3.98,1.3,5.68.96,1.6,2.37,3.57,4.47,3.3,1.93-.25,3.37-1.97,3.9-3.75.57-1.93.05-3.96-.87-5.69-1.66-3.12-6.09-6.52-9.19-3.06-2.43,2.7-.98,7.83,1.5,10.02,1.39,1.22,3.37,1.83,5.19,1.31.81-.23,1.67-.69,2.19-1.38.69-.9.4-2.23.09-3.24-.57-1.82-1.73-3.38-2.98-4.79s-2.58-2.94-4.46-3.34-4.52.63-4.36,2.85c.15,2.04.9,4.33,1.83,6.14.86,1.68,2.26,3.2,3.97,4.03s4.33,1.42,5.51-.53c1.09-1.79.61-3.94-.25-5.71-.8-1.64-2.09-3.5-3.69-4.43s-3.74-.84-5.06.51-1.27,3.65-.6,5.33c1.32,3.3,5.53,5.58,8.71,3.26,1.7-1.24,2.03-3.42.77-5.11-1.12-1.49-2.76-3.17-4.37-4.13s-3.8-1.1-5.18.47-.84,3.67.11,5.24c1.77,2.95,4.77,5.97,8.52,5.12,1.56-.36,3.77-1.92,3.26-3.79s-2.38-3.34-3.9-4.19c-.76-.43-1.8-.33-2.42.31-1.22,1.27-2.84,3.18-2.73,5.06s2.2,2.74,3.58,3.6c1.53.95,3.3,1.29,4.76,0,.59-.53,1-1.21,1.28-1.95s.34-1.59.77-2.28c.49-.78.27-1.78-.31-2.42-1.63-1.81-3.65-3.08-5.94-3.89-1.24-.44-2.53.71-2.53,1.93,0,2.59.59,5.02,1.67,7.36.38.83,1.45,1.09,2.26.92,1.93-.42,4.08-.87,5.83-1.81,1.87-1.01,2.25-2.88,2-4.84-.2-1.6-.64-4.61-2.45-5.15-1.65-.49-3.28.56-3.97,2.02-1.84,3.87,2.35,6.01,5.18,7.37,1.88.9,3.46,1.19,4.81-.72,1.17-1.66,1.97-3.62,2.47-5.58.2-.78-.12-1.89-.92-2.26-2.12-.96-4.27-1.48-6.6-1.47-1.13,0-1.93.92-2,2-.13,2.03-.09,4.68.9,6.52,1.05,1.95,3.47,1.83,5.38,1.66s4.54-.34,5.27-2.43c.67-1.93-.48-4.46-1.29-6.17-.27-.57-1.09-1.06-1.73-.99-2.85.33-5.35,1.41-7.49,3.35-.52.48-.69,1.28-.51,1.95.54,2.01,1.74,5.03,4.02,5.58s4.85-2.23,6.24-3.81,3.69-4.28,1.33-6.15c-.89-.71-2.2-1.05-3.28-1.39-1.3-.42-2.62-.72-3.96-.96-1.08-.19-2.13.28-2.46,1.4-.79,2.66-2.38,9.74,2.16,10.03,1.99.13,3.68-1.52,5.11-2.71,1.58-1.32,3-2.8,4.29-4.39.66-.82.85-2.02,0-2.83-1.7-1.61-3.59-3.01-5.64-4.14-1.01-.56-2.74-.13-2.94,1.2-.47,3.15.06,6.26,1.85,8.94.76,1.14,2.12,1.26,3.14.4,1.25-1.04,2.41-2.18,3.43-3.46s2.21-2.76,1.81-4.55c-.35-1.58-1.83-2.56-3.06-3.43-1.47-1.04-3.05-1.91-4.7-2.63-1.39-.61-2.94.09-3.01,1.73-.09,2.15-.05,4.31.22,6.45.21,1.69,1,3.44,2.83,3.82.82.17,1.85-.1,2.26-.92.77-1.56,1.6-3.11,2.31-4.7.65-1.46.99-3.13.07-4.56-.84-1.31-2.58-1.9-3.98-2.36-1.76-.58-3.62-.85-5.48-.89-1.29-.03-2.29,1.3-1.93,2.53.94,3.19,3.53,5.71,6.8,6.4,1.62.34,2.68-.94,2.46-2.46-.33-2.34-.94-4.87-2.79-6.5-2.54-2.22-5.41-1.08-8.38-.97l1.01,3.73c.82-.4,1.63-.79,2.45-1.19.39-.19.81-.47,1.22-.59.49-.15.27-.19.69,0,.76.34,1.53,1.12,2.19,1.62.39.29.78.58,1.18.88.24.18.83.82.86.49l.27-1.01c1.12-.2,1.43-.35.92-.47-.06,0-.12-.02-.17-.06-.11-.11-.33-.24-.47-.35-.64-.5-1.25-1.05-1.88-1.58-1.25-1.05-2.5-2.11-3.76-3.16l-1.41,3.41c2.38-.25,4.47.66,6.51,1.8.76.42,1.8.69,1.86,1.61.07,1.35.05,2.68-.09,4.02l3.73-1.01c-1.28-2.33-2.32-4.74-3.14-7.27l-3.66,1.54c1.14,2.34,2.07,4.76,2.78,7.27.56,1.97,1.57,4.76.75,6.79-.72,1.76-3.11,2.17-4.74,2.54-1.99.46-4.22.96-6.01-.3l-1.54,3.66c2.19.49,4.77,1.16,7.02.81,2.02-.32,3.32-1.78,4.11-3.57.43-.97.8-1.97,1.18-2.95.47-1.2,1.09-2.42,1.22-3.72.2-2.09-1.3-4.46-3.64-4.17-1.5.19-2.91,2.18-1.41,3.41,1.75,1.44,5.61,3.4,7.64,1.38,2.29-2.29-1-5.31-2.75-6.62-1.34-1-2.88.4-3.01,1.73-.11,1.14.17,2.18.69,3.19.48.93,1.87,1.28,2.74.72,2.03-1.32,2.96-3.6,2.39-5.96-.32-1.34-1.82-1.73-2.94-1.2-1.88.9-1.95,3.22-.73,4.67,1.48,1.76,4.29-.5,3.14-2.42-.93-1.56-2.13-2.8-3.61-3.85-.73-.52-1.82-.26-2.42.31-1.16,1.08-1.52,2.57-1.16,4.1.6,2.5,4.46,1.44,3.86-1.06-.05-.21-.03-.05.13-.2l-2.42.31c.91.64,1.61,1.47,2.17,2.42l3.14-2.42-.17-.2.51.88-.42.94-2.94-1.2c.14.57-.05,1.12-.55,1.44l2.74.72c-.21-.4-.19-.73-.14-1.17l-3.01,1.73c.31.23,1.5,1.27,1.5,1.48l.27-1.01-.15.27.72-.72-.31.16,1.01-.27c-1.11.1-2.22-.23-3.09-.95l-1.41,3.41s-.32-.28-.32-.29c-.12.21-.15.59-.23.83-.23.69-.53,1.37-.8,2.05-.41,1.04-.74,2.19-1.33,3.15-.52.85-1.06.79-2.01.7-1.4-.13-2.78-.39-4.15-.69-2.28-.51-3.37,2.35-1.54,3.66,2.51,1.78,5.7,1.44,8.54.83s5.74-1.44,7.37-3.95c1.73-2.65,1.07-6.04.37-8.91-.83-3.37-2.06-6.63-3.58-9.74-.99-2.03-4.35-.61-3.66,1.54.91,2.85,2.1,5.6,3.54,8.22,1.04,1.88,3.54.83,3.73-1.01.17-1.69.25-3.47-.04-5.16s-1.49-2.66-2.95-3.5c-2.82-1.63-5.94-3.13-9.29-2.77-1.53.16-2.88,2.18-1.41,3.41,1.19,1,2.38,2,3.57,3,1.06.89,2.11,2,3.32,2.69,1.05.6,2.45.91,3.58.32s1.71-1.99,1.34-3.25c-.42-1.43-1.81-2.21-2.93-3.05s-2.24-1.85-3.47-2.53c-2.69-1.47-5.7.79-8.1,1.96-1.8.87-.91,3.8,1.01,3.73,1.61-.06,4.44-1.23,5.78.01,1.14,1.05,1.32,3.08,1.53,4.52l2.46-2.46c-1.93-.41-3.44-1.69-4.01-3.61l-1.93,2.53c2.27.05,4.18.65,6.23,1.54-.15-.39-.21-.44-.19-.15-.05.19-.11.39-.17.57-.15.4-.38.79-.57,1.17-.55,1.12-1.11,2.24-1.66,3.36l2.26-.92c.29.06.1.38.2.2.04-.08-.14-.53-.16-.64-.1-.62-.11-1.29-.14-1.92-.07-1.35-.07-2.7-.01-4.05l-3.01,1.73c1.1.48,2.17,1.02,3.2,1.64.89.54,2.06,1.16,2.73,1.98.03-.5-.04-.52-.23-.05-.15.23-.31.45-.48.66-.33.42-.68.83-1.04,1.22-.76.84-1.59,1.6-2.46,2.33l3.14.4c-1.15-1.73-1.76-3.77-1.44-5.86l-2.94,1.2c1.77.98,3.37,2.12,4.83,3.52v-2.83c-1.01,1.26-2.1,2.44-3.29,3.53-.91.83-2.27,2.33-3.54,2.51h1.06c.48.07.02.59.16-.16.09-.51.02-1.09.06-1.61.09-1.13.35-2.23.68-3.31l-2.46,1.4c1.12.19,2.22.44,3.31.76.66.19,2.07.41,2.55.91l-.51-.88.1.23v-1.06c-.13.91-1.41,2.02-2.03,2.65-.8.81-1.7,1.7-2.76,2.16l1.01-.27c.3-.03.14.29.08-.06-.05-.28-.41-.66-.55-.91-.29-.54-.47-1.11-.63-1.7l-.51,1.95c1.29-1.17,2.91-1.98,4.66-2.18l-1.73-.99c.35.73,1.17,2.28.89,3.09l.51-.88s-.38.14-.67.2c-.42.08-.83.14-1.26.18-.37.04-.75.05-1.13.06-.23,0-.45,0-.68,0-.51-.12-.59-.05-.24.21.24.32.28.29.12-.09l-.11-.44c-.09-.41-.17-.82-.22-1.24-.1-.89-.09-1.8-.03-2.69l-2,2c1.59,0,3.13.27,4.58.93l-.92-2.26c-.38,1.49-.98,3.59-2.15,4.66l.88-.51c.46-.18,0-.17-.33-.33-.27-.13-.53-.25-.8-.38-.57-.27-1.16-.54-1.7-.86-.38-.23-.59-.54-.92-.8.07.06.02.07,0,.05,0-.04,0-.08.03-.11.13-.23-.1-.2-.69.11l-1.2-.92c.34.74.58,1.53.71,2.33.05.31.07.61.1.92.01.14,0,.28-.01.42.1-.18.06-.2-.1-.07-1.38.8-3.34,1.08-4.88,1.41l2.26.92c-.78-1.69-1.12-3.49-1.12-5.34l-2.53,1.93c1.65.58,3.01,1.57,4.17,2.86l-.31-2.42c-.64,1-.69,2.16-1.19,3.2,0-.02.39-.03.34-.1-.15-.19-.63-.39-.84-.52l-.9-.57c-.16-.1-.79-.68-.61-.36l.27,1.01c0-.69,1.13-1.78,1.56-2.23l-2.42.31c1,.56,1.72,1.28,2.27,2.28v-2.02c-.38.62-1.31.45-1.87.18-1.05-.52-1.86-1.66-2.51-2.61-.05-.07-.7-1.38-.68-1.38,0,0-.33.67-.37.49.02.07.45.25.52.3.58.39,1.06.95,1.55,1.45.19.19,1.31,1.58,1.53,1.56l.02-.48c.16-.14.15-.15-.02-.04-.04-.01-.25.13-.32.15-.45.1-.97-.17-1.32-.42-.4-.29-.76-.72-.96-1.18-.14-.32-.03-1.09-.16-1.3-.05.14-.14.22-.26.22-.1.02-.09,0,.04-.02.03.06.48.23.58.3.51.41.92,1.04,1.27,1.58.6.91,1.46,2.16.74,3.19l1.73-.99c-3.96.21-4.9-4.79-5.48-7.73l-.51,1.95c.05-.06-.06-.26.16-.1s.49.28.71.47c.62.53,1.19,1.19,1.73,1.8.99,1.12,2.03,2.44,2.16,3.98l.59-1.41c-1,.88-2.23-.76-2.57-1.51-.2-.45-1.09-2.93-.24-3.24,1.06-.39,2.43,2.04,2.75,2.69.25.52,1.02,3.31-.36,3.25l1.01.27c-.94-.43-1.78-2.21-2.03-3.18-.29-1.12-.15-2.32.76-3.12.65-.57,1.4-.64,2.05-.03.55.52.97,1.64.37,2.27-.47.5-1.52.49-2.09.2-.91-.47-1.35-1.65-1.47-2.6-.16-1.27.22-2.58.71-3.73s1.2-2.91,2.11-3.78c.67-.64,1.53.03,2.01.64.74.93.99,2.2.92,3.36-.11,2.02-1.71,4.95-4.14,4.61-2.01-.29-2.29-3.12-2.16-4.7.17-2.05,1.18-4.85,3.7-4.56,2.11.24,4.97,2.1,4.56,4.5s-3.34,3.59-5.6,3.28c-3.32-.45-1.59-4.13-.53-5.97,1.13-1.96,2.99-4.88,5.53-5.03,2.24-.13,3.48,2.44,3.21,4.37-.34,2.44-2.65,5.3-5.17,5.68-3,.45-2.54-2.92-1.52-4.62,1.33-2.21,4.03-3.26,6.51-2.54.47.13,1.24.36,1.5.83s-.13,1.36-.35,1.82c-.57,1.18-1.57,2.22-2.78,2.73-2.02.86-5.07-.36-4.88-2.91.16-2.15,3.63-3.67,5.51-3.44.1.01.37.06.38.06.46.02.19.2.19.02-.01.63-.45,1.37-.72,1.93-.59,1.17-1.58,3.17-2.84,3.7l1.01-.27c.19-.02-.07.18-.1-.11,0-.07-.11-.24-.14-.33-.12-.37-.07-.74.03-1.11.21-.75.69-1.3,1.44-1.5,2.49-.65,1.43-4.51-1.06-3.86h0Z"/>
            <path class="cls-3" d="M45.55,54.7l-.04-.14c-.19-.66-.72-1.23-1.4-1.4-1.81-.44-3.51,1.17-2.94,3.02.52,1.67,2.63,2.41,4.11,1.54,1.59-.94,1.77-3.25.52-4.55-1.34-1.39-3.35-1.07-4.68.11-.64.56-.77,1.71-.31,2.42.98,1.54,2.96,2.28,4.63,1.32s1.98-3.06,1.15-4.67l-1.2,2.94c.32-.05.64-.09.95-.14l-1.95-3.34c-.48.55-1,1.02-1.68,1.32s-1.37.39-1.79,1.11c-.91,1.56.02,3.23,1.31,4.18.9.67.02-.23.18-.21-.07,0-.7,1.14-.78,1.28-.63,1.07-1.03,2.29-.61,3.51.38,1.09,1.33,1.6,2.46,1.4,2.54-.47,3.25-4.03.99-5.36-2.39-1.4-5,.95-4.33,3.49.56,2.13,3.16,4.58,5.09,2.26.66-.79.77-1.89.46-2.85-.36-1.12-1.39-1.48-2.07-2.33-.79-.99-2.59-.65-3.14.4-1.48,2.81-.63,5.96,1.86,7.84l2.02-3.45c-1.16-.66-2.54-.49-3.5.47-1.06,1.06-1,2.57-.58,3.9.26.83,1.03,1.48,1.93,1.47,1.85-.03,3.06-1.98,2.04-3.62-.93-1.49-2.99-1.52-4.33-.62-3.18,2.15-.55,6.98,2.97,5.86.63-.2,1.27-.71,1.4-1.4.26-1.4-.24-2.58-1.55-3.22s-2.96-.19-3.7,1.08c-.68,1.16-.49,2.66.29,3.72.92,1.25,2.42,1.6,3.88,1.67.63.03,1.47-.39,1.73-.99.51-1.18.59-2.34-.18-3.43s-2.13-1.46-3.37-1.1c-2.69.78-2.29,4.59-1.46,6.62l.92-2.26c-2.25,1.38-2.12,4.34-.09,5.83,1.19.87,3.12-.29,3.01-1.73-.1-1.32-.53-2.32-1.35-3.35-.49-.62-1.78-.8-2.42-.31-1.36,1.03-2.17,2.7-1.35,4.37.67,1.36,2.43,2.43,3.95,1.79,1.64-.69,1.91-3.04.81-4.3s-3.09-1.27-4.28-.04c-.55.57-.85,1.73-.31,2.42.77,1,1.57,1.63,2.76,2.06,1.54.56,2.75-1.09,2.46-2.46-.17-.84-.58-1.51-1.16-2.13-1.09-1.17-2.87-.47-3.34.88-.96,2.77.18,5.58,2.44,7.29l-.4-3.14c-.96.88-1.47,2.1-1.38,3.4l3.73-1.01c-.21-.35-.42-.7-.63-1.05-1.04-1.74-3.64-.95-3.73,1.01-.05,1.2.25,2.32.92,3.32.89,1.33,3.28,1.32,3.66-.48.19-.93.29-1.83.19-2.78-.12-1.19-.83-1.85-2-2-1.24-.16-2.55.61-3.07,1.73-.35.76-.4,1.82.31,2.42.57.48,1.09.81,1.81,1,.95.25,2.3-.31,2.46-1.4.2-1.36-.03-2.53-1.05-3.51-.79-.75-2.04-.77-2.83,0-2.3,2.23-.73,6.4,2.64,6.04,1.07-.11,2-.84,2-2,0-.99-.92-2.11-2-2s.51.47.18.78h-2.83l.02-.39,2.46-1.4-.05.03.31,2.42c-.34,0-.47.07-.38.25l-2-2c.06.59.07,1.13-.05,1.72l3.66-.48c-.31-.47-.4-.74-.37-1.3l-3.73,1.01c.21.35.42.7.63,1.05.97,1.62,3.86,1.04,3.73-1.01-.03-.5-.08-.3.21-.57,1.05-.96.56-2.41-.4-3.14-.86-.66-.92-1.84-.6-2.77l-3.34.88c.15.02.19.15.13.37l2.46-2.46c-.11-.04-.3-.13-.37-.22l-.31,2.42-.14.14h-1.06l-.18-.1-.51-.88.04-.48,1.73-.99c.49.14.56.51.19,1.13l-2.42-.31c.11.13.16.36.17.52l3.01-1.73c.4.29.57.79.09,1.08.68-.42,1.26-1.44.92-2.26-.39-.95-.57-1.84-.34-2.86l-.92,1.2-1.19-.67.27-1.01-.13.29,1.73-.99c-.11,0-.64-.13-.69-.11-.18.1.15.32.18.26l-.51.88-.18.11h-1.06c.07-.12.15-.08.26.11l-.72-.72v-.04c0-.35,0-.71,0-1.06l-.05.25,1.4-1.4c.85-.27.65,2.09-.31,1.36l-.72-.72.11.21-.2-1.54-.04.24.51-.88-.17.17,1.41-.59h-.22c.64.49,1.29.98,1.93,1.47-.08-.71-.42-.61-1.01.29l-1.01-.27.23.13c2.31,1.3,4.02-1.94,2.02-3.45-.69-.52-.8-1.65-.42-2.37l-3.14.4c.23.28.61.76.96.86.07.06.15.11.24.16-.14-.29-.16-.59-.06-.9l.72-.72-.17.11,1.01-.27h.04c.29.16.59.33.88.5-.14-.08-.23-.21-.28-.38-.13-.35-.22-.23-.26.36l-.88.51c-.38-.12-.39-.12-.05.01l-.88-.51-.2-.44.27-1.01.3-.19,2.46,1.4c-.1-.35-.12-.3-.07.14,0-.23.03-.3.08-.22.17-.18.29-.48.42-.7.39-.62.81-1.26.99-1.98.21-.83.15-1.68-.25-2.44-.19-.36-.45-.7-.76-.98-.22-.17-.44-.34-.65-.5-.4-.37-.42-.19-.06.53l-1.4,1.4c1.57-.47,2.95-1.3,4.04-2.54,1.4-1.59,0-3.63-1.95-3.34-.32.05-.64.09-.95.14-1.35.2-1.72,1.92-1.2,2.94.11-.89.49-1.11,1.13-.68l-.31,2.42-1.3-1.19.72-.72.88-.08.72.72.02.04v1.06l.06-.18-.51.88.15-.13-.88.51.18-.05h-1.06l.14.03-1.4-1.4.04.14c.72,2.47,4.58,1.42,3.86-1.06h0Z"/>
            <path class="cls-3" d="M42.85,82.7s0-.08,0-.12c-.02-.21-.04-.43-.09-.63-.01-.04-.02-.08-.04-.11-.08-.19-.15-.39-.25-.57-.02-.03-.04-.07-.07-.1-.11-.16-.24-.33-.37-.47-.03-.03-.06-.06-.1-.09-.16-.13-.32-.26-.49-.37-1.06-.67-2.65-.04-2.94,1.2-.08.34-.12.68-.15,1.02-.01.17-.02.34,0,.52.04.51.11,1.04.3,1.52.06.26.18.49.36.68.14.22.33.39.56.52.23.15.48.23.74.24.27.06.53.05.8-.04l.48-.2c.3-.18.54-.42.72-.72l.2-.48c.1-.35.1-.71,0-1.06-.1-.26-.17-.52-.21-.79l.07.53c-.04-.3-.04-.59,0-.89l-.07.53c.02-.11.03-.21.06-.32l-2.94,1.2s.05.03.07.05l-.4-.31c.06.05.12.11.17.17l-.31-.4c.04.06.08.12.11.18l-.2-.48c.03.07.05.15.07.23l-.07-.53s0,.08,0,.12c-.01.28.05.53.17.77.08.25.22.46.41.64.18.2.4.33.64.41.24.13.5.18.77.17l.53-.07c.34-.1.63-.27.88-.51.36-.39.6-.88.59-1.41h0Z"/>
            <path class="cls-3" d="M43.25,90.22c-.92-.94-2.31-1.03-3.44-.44-1.01.52-1.61,1.57-1.66,2.69s.54,2.22,1.3,3.04c1,1.08,2.79,1.55,3.95.41.64-.62.86-1.5,1.01-2.36.16-.91.22-1.77.04-2.68-.16-.81-.61-1.63-1.25-2.16-.59-.49-1.26-.82-2.04-.81-.87.02-1.72.5-2.15,1.26-.99,1.74-.22,4.19,1.26,5.41.47.39.91.7,1.57.7.41,0,.86-.16,1.22-.38.48-.3.82-.66,1.13-1.13.46-.71.61-1.63.63-2.46.04-1.57-.37-3.5-1.88-4.31-1.1-.58-2.55-.38-3.38.58-.64.73-.93,1.69-.92,2.65s.23,1.95.53,2.84c.35,1.03.82,2.1,1.53,2.94.5.59,1.21.94,1.98.99.89.07,1.81-.44,2.27-1.21.3-.5.45-1.1.42-1.68s-.25-1.06-.35-1.62l.07.53c-.01-.11-.01-.21,0-.32l-.07.53.02-.11c.11-.53.08-1.06-.2-1.54-.24-.41-.72-.81-1.2-.92-1-.23-2.24.3-2.46,1.4-.12.6-.12,1.11.03,1.7.07.27.18.52.23.79l-.07-.53c.02.14.02.27,0,.4l.07-.53c-.02.08-.04.15-.06.22l.2-.48s-.04.09-.07.13l.31-.4s-.06.07-.1.11l.4-.31s-.08.06-.12.08l.48-.2s-.1.04-.16.04l.53-.07c-.06,0-.11,0-.16,0l.53.07c-.05-.01-.11-.03-.16-.05l.48.2c-.05-.03-.1-.06-.15-.09l.4.31c-.1-.08-.18-.16-.26-.26l.31.4c-.32-.43-.56-.93-.77-1.42l.2.48c-.32-.76-.54-1.56-.65-2.38l.07.53c-.04-.32-.06-.64-.03-.96l-.07.53c.03-.18.07-.36.13-.53l-.2.48c.05-.11.1-.21.18-.31l-.31.4c.04-.05.09-.1.14-.15l-.4.31c.06-.04.11-.08.17-.11l-.48.2c.07-.03.13-.05.2-.06l-.53.07c.08,0,.14-.01.22,0l-.53-.07c.07.01.13.02.2.05l-.48-.2c.08.04.16.08.23.14l-.4-.31c.07.06.13.13.19.21l-.31-.4c.09.13.16.26.22.4l-.2-.48c.11.28.18.56.22.86l-.07-.53c.06.49.08.99.02,1.48l.07-.53c-.04.24-.09.46-.18.69l.2-.48c-.06.14-.13.26-.23.38l.31-.4c-.06.07-.13.14-.21.21l.4-.31c-.1.08-.21.14-.33.19h2.02c-.05-.04-.1-.07-.15-.11l.4.31c-.2-.16-.37-.34-.53-.54l.31.4c-.15-.21-.27-.42-.37-.66l.2.48c-.09-.24-.16-.48-.19-.73l.07.53c-.02-.22-.03-.43,0-.65l-.07.53c.02-.09.04-.17.07-.26l-.2.48c.04-.08.07-.15.13-.22l-.31.4s.08-.08.12-.11l-.4.31.07-.04-.48.2c.06-.03.12-.04.18-.05l-.53.07c.06,0,.13,0,.19.01l-.53-.07c.06.01.13.03.19.06l-.48-.2c.09.04.17.09.25.15l-.4-.31c.13.11.25.22.35.35l-.31-.4c.09.13.17.27.24.42l-.2-.48c.08.21.14.41.17.63l-.07-.53c.05.41.03.82-.02,1.23l.07-.53c-.07.49-.16,1.01-.34,1.47l.2-.48c-.02.05-.05.1-.08.15l.31-.4s-.07.09-.12.12l.4-.31-.07.04.48-.2s-.1.04-.16.04l.53-.07h-.08c.18.02.35.05.53.07-.09-.01-.16-.03-.25-.07l.48.2c-.11-.05-.21-.12-.31-.2l.4.31c-.18-.15-.34-.33-.48-.52l.31.4c-.13-.17-.23-.35-.32-.54l.2.48c-.07-.16-.11-.32-.14-.49l.07.53c-.01-.14-.01-.27,0-.4l-.07.53c.02-.09.03-.16.06-.24l-.2.48c.04-.09.09-.17.14-.25l-.31.4c.06-.08.13-.15.21-.21l-.4.31c.1-.08.2-.14.31-.19l-.48.2c.09-.03.18-.06.27-.07l-.53.07c.09,0,.18,0,.27,0l-.53-.07s.09.02.13.03l-.48-.2c.06.03.12.06.18.1l-.4-.31s.07.06.1.1c.73.75,2.1.79,2.83,0s.78-2.03,0-2.83h0Z"/>
            <path class="cls-3" d="M40.64,98.06c-.31.66-.48,1.24-.53,1.98-.02.34.04.68.09,1.02.03.19.07.38.14.57.12.32.27.64.51.88.31.31.72.49,1.15.55.37.05.7,0,1.04-.14.39-.16.75-.44.96-.82.35-.66.58-1.44.51-2.19s-.24-1.48-.68-2.09c-.33-.46-.62-.78-1.1-1.09s-1.04-.47-1.59-.45c-.69.02-1.28.29-1.79.74-.4.35-.64.81-.81,1.3-.31.87-.1,1.84.32,2.63.18.34.43.64.67.92.26.31.54.56.87.78.98.66,2.27.54,3.18-.17.8-.62,1.28-1.58,1.25-2.61-.02-.86-.33-1.61-.66-2.38-.09-.2-.18-.41-.3-.59-.32-.49-.64-.82-1.11-1.16-.7-.51-1.7-.64-2.53-.42-.98.26-1.81,1.1-1.98,2.11-.25,1.51.19,3.06,1.24,4.18s2.5,1.46,3.9,1.12c1.55-.37,2.91-1.89,2.73-3.54-.07-.58-.16-.98-.43-1.51-.16-.32-.39-.62-.66-.86-.41-.37-.79-.6-1.31-.78-.55-.19-1.05-.13-1.61-.05-.46.07-.97.53-1.2.92-.25.43-.36,1.06-.2,1.54s.46.95.92,1.2l.48.2c.35.1.71.1,1.06,0h.05c-.18.02-.35.04-.53.06.09,0,.18,0,.28,0l-.53-.07c.09.01.18.04.26.07l-.48-.2c.11.05.22.11.32.19l-.4-.31c.1.08.18.17.26.27l-.31-.4c.09.12.16.24.21.37l-.2-.48c.05.12.08.24.1.37l-.07-.53c.02.13.02.25,0,.38l.07-.53c-.02.11-.05.22-.09.32l.2-.48c-.05.1-.1.2-.17.29l.31-.4c-.09.11-.19.21-.3.3l.4-.31c-.12.09-.24.16-.37.22l.48-.2c-.17.07-.34.12-.52.14l.53-.07c-.18.02-.36.02-.54,0l.53.07c-.16-.02-.32-.06-.47-.12l.48.2c-.16-.07-.32-.16-.46-.27l.4.31c-.16-.13-.3-.27-.42-.43l.31.4c-.15-.19-.26-.4-.36-.62l.2.48c-.1-.24-.17-.5-.21-.76l.07.53c-.03-.23-.04-.46-.02-.69l-.07.53c.02-.1.04-.2.08-.29l-.2.48c.02-.05.05-.1.08-.15l-.31.4c.04-.05.08-.09.13-.14l-.4.31c.05-.04.1-.07.16-.1l-.48.2c.09-.04.18-.06.27-.07l-.53.07c.1,0,.2,0,.29,0l-.53-.07c.1.02.19.04.29.08l-.48-.2c.1.04.18.09.26.16l-.4-.31c.11.09.2.19.29.3l-.31-.4c.17.23.3.48.41.74l-.2-.48c.16.38.31.76.37,1.17l-.07-.53c.02.16.02.32,0,.48l.07-.53c-.02.1-.04.19-.08.28l.2-.48c-.05.1-.1.2-.17.29l.31-.4c-.06.07-.12.13-.2.19l.4-.31c-.06.04-.12.08-.18.11l.48-.2c-.07.03-.13.05-.2.06l.53-.07c-.07,0-.14,0-.21,0l.53.07c-.06-.01-.11-.03-.16-.05l.48.2c-.09-.04-.17-.09-.25-.15l.4.31c-.2-.17-.38-.38-.54-.58l.31.4c-.13-.17-.24-.35-.32-.54l.2.48c-.05-.12-.08-.23-.1-.36l.07.53c-.01-.11-.01-.21,0-.31l-.07.53c.02-.1.04-.2.08-.29l-.2.48c.04-.08.08-.15.13-.21l-.31.4c.05-.06.11-.12.17-.17l-.4.31c.05-.04.11-.07.17-.09l-.48.2s.09-.03.14-.04l-.53.07c.08,0,.15,0,.23,0l-.53-.07c.06.01.12.03.18.05l-.48-.2c.1.04.18.09.27.16l-.4-.31c.11.09.21.19.3.3l-.31-.4c.11.15.21.31.28.48l-.2-.48c.07.17.12.35.15.54l-.07-.53c.03.2.03.41,0,.61l.07-.53c-.03.17-.07.33-.13.48l.2-.48c-.03.07-.06.14-.1.2l3.66.48c-.07-.18-.11-.37-.14-.57l.07.53c-.02-.22-.03-.43,0-.65l-.07.53c.03-.24.09-.47.18-.69l-.2.48s.04-.08.05-.12c.23-.49.35-1,.2-1.54-.13-.46-.49-.97-.92-1.2-.46-.25-1.03-.37-1.54-.2-.47.15-.97.45-1.2.92h0Z"/>
            <path class="cls-3" d="M41.37,107.48c.1.88.28,1.61.63,2.41.28.63.69,1.19,1.14,1.71.52.6,1.49.71,2.18.41.33-.14.58-.33.8-.62.29-.38.38-.74.43-1.21.23-2.21-.62-4.43-2.05-6.08-.37-.42-.82-.85-1.31-1.12-.86-.48-1.97-.53-2.82.02-.68.44-1.23,1.15-1.38,1.95-.18.98.05,1.81.45,2.7.48,1.06,1.11,2.04,2.07,2.71.67.47,1.65.73,2.45.49,1-.3,1.65-1.1,1.88-2.1.25-1.07.22-2.26-.2-3.29-.45-1.13-1.19-2.27-2.3-2.85-.73-.38-1.65-.44-2.38,0-.45.28-.77.63-1.05,1.07-.42.65-.6,1.38-.68,2.13-.15,1.36.38,2.73,1.29,3.73.71.77,2.12.77,2.83,0,.76-.83.75-2,0-2.83-.06-.06-.11-.12-.16-.19l.31.4c-.13-.18-.24-.37-.33-.57l.2.48c-.11-.26-.18-.52-.21-.8l.07.53c-.03-.25-.03-.5,0-.75l-.07.53c.04-.25.1-.49.19-.72l-.2.48c.09-.2.2-.39.33-.57l-.31.4s.07-.08.11-.12l-.4.31s.09-.06.14-.08l-.48.2.08-.02-.53.07h.08c-.18-.03-.35-.05-.53-.08.06,0,.11.02.16.04l-.48-.2c.1.05.2.11.29.18l-.4-.31c.22.18.41.37.59.59l-.31-.4c.2.27.37.56.5.87l-.2-.48c.13.31.21.64.26.97l-.07-.53c.04.31.04.61,0,.92l.07-.53c-.03.23-.08.45-.16.66l.2-.48c-.04.08-.08.15-.13.22l.31-.4-.06.06.4-.31-.07.05.48-.2c-.05.03-.11.04-.16.05l.53-.07c-.06,0-.12,0-.17,0l.53.07c-.12-.02-.22-.05-.33-.1l.48.2c-.15-.07-.29-.15-.43-.25l.4.31c-.18-.14-.33-.3-.47-.48l.31.4c-.37-.49-.65-1.05-.89-1.61l.2.48c-.08-.2-.14-.4-.18-.61l.07.53c-.01-.13-.02-.26,0-.4l-.07.53c.02-.11.05-.21.09-.31l-.2.48c.04-.07.07-.14.12-.21l-.31.4c.07-.08.14-.15.22-.22l-.4.31s.08-.06.13-.08l-.48.2c.07-.03.14-.05.22-.07l-.53.07c.05,0,.1,0,.15,0l-.53-.07c.09.01.17.03.25.07l-.48-.2c.11.05.2.12.3.19l-.4-.31c.33.27.62.58.88.91l-.31-.4c.33.43.6.9.82,1.41l-.2-.48c.21.51.35,1.03.43,1.57l-.07-.53c.06.48.07.96.02,1.45l3.41-1.41c-.09-.1-.17-.2-.25-.3l.31.4c-.23-.31-.42-.65-.58-1l.2.48c-.16-.39-.28-.79-.34-1.21l.07.53c0-.06-.02-.13-.02-.19-.06-.55-.18-1.01-.59-1.41-.35-.35-.92-.61-1.41-.59s-1.05.19-1.41.59c-.34.37-.64.9-.59,1.41h0Z"/>
            <path class="cls-3" d="M40.65,112.54c-.3.99-.12,2,.32,2.91.17.37.44.71.73.99.45.43.89.65,1.46.89l.53.07c.28.01.53-.05.77-.17.43-.18.68-.44.96-.82s.46-.82.58-1.25c.08-.29.12-.61.15-.91.02-.16.02-.32,0-.49-.05-.6-.16-1.22-.49-1.73-.39-.6-.91-1.03-1.6-1.25-.5-.17-1.09-.14-1.6-.02-.53.13-.96.42-1.38.76-.08.07-.16.14-.23.23-.17.2-.35.42-.47.65-.24.49-.41,1.03-.36,1.59.05.58.18,1.14.5,1.64.28.45.6.77,1.01,1.09.9.69,2.04,1.05,3.16.83.71-.14,1.33-.66,1.69-1.26.3-.49.42-1.09.45-1.66.04-.96-.31-1.92-.77-2.75-.18-.32-.39-.63-.6-.93-.35-.51-.73-1.01-1.29-1.31-.98-.53-2.15-.4-2.97.36s-.95,1.92-.44,2.87c.23.43.73.79,1.2.92s1.12.07,1.54-.2c.94-.61,1.24-1.75.72-2.74l-.02-.04.2.48v-.05c0,.18.03.35.06.53,0-.03,0-.06,0-.09l-.07.53s.01-.06.03-.09l-.2.48s.03-.06.05-.08l-.31.4s.07-.07.11-.11l-.4.31s.06-.04.09-.05l-.48.2c.05-.02.1-.03.15-.04l-.53.07s.07,0,.1,0l-.53-.07s.08.02.12.03l-.48-.2c.08.03.14.08.21.13l-.4-.31c.1.08.18.18.26.28l-.31-.4c.39.52.75,1.07,1.01,1.67l-.2-.48c.11.27.19.54.23.82l-.07-.53c.02.18.02.36,0,.54l.07-.53c-.02.12-.04.23-.08.34l.2-.48c-.04.09-.08.17-.14.25l.31-.4s-.07.08-.12.12l.4-.31s-.09.06-.14.09l.48-.2c-.07.03-.13.04-.21.05l.53-.07c-.1,0-.19,0-.29-.01l.53.07c-.19-.03-.38-.09-.56-.16l.48.2c-.19-.08-.37-.18-.54-.31l.4.31c-.15-.11-.28-.24-.39-.38l.31.4c-.1-.13-.18-.26-.24-.41l.2.48c-.04-.11-.07-.22-.09-.34l.07.53c-.01-.11-.01-.22,0-.33l-.07.53c.01-.08.04-.16.07-.23l-.2.48c.05-.11.1-.2.18-.29l-.31.4c.07-.09.16-.17.25-.24l-.4.31c.09-.07.19-.12.3-.17l-.48.2c.1-.04.21-.07.32-.09l-.53.07c.08,0,.15,0,.23,0l-.53-.07c.08.01.14.03.22.06l-.48-.2c.06.03.11.06.16.09l-.4-.31c.06.04.1.09.15.15l-.31-.4c.07.09.12.18.16.28l-.2-.48c.05.13.08.25.1.38l-.07-.53c.03.21.03.42,0,.63l.07-.53c-.03.23-.09.45-.18.67l.2-.48c-.08.17-.17.33-.28.48l2.26-.92-.05-.02.48.2c-.12-.06-.24-.12-.35-.2l.4.31c-.14-.11-.26-.23-.37-.36l.31.4c-.1-.14-.19-.29-.26-.45l.2.48c-.07-.16-.11-.33-.14-.5l.07.53c-.02-.17-.02-.34,0-.51l-.07.53c.01-.1.04-.19.06-.28.15-.49.05-1.1-.2-1.54-.24-.41-.72-.81-1.2-.92-1.08-.25-2.14.32-2.46,1.4h0Z"/>
            <path class="cls-3" d="M45.46,119.11c-.27-1.07-1.28-1.72-2.34-1.75s-1.92.67-2.31,1.59c-.25.59-.29,1.23-.23,1.86.06.6.15,1.19.35,1.76.26.76.57,1.45,1.22,1.95.44.34.94.55,1.5.56.63,0,1.27-.27,1.69-.74.6-.66.71-1.49.78-2.35.04-.43.03-.85-.02-1.28-.14-1.3-.48-2.52-1.14-3.67-.31-.55-.85-.87-1.46-.95-.57-.08-1.3.07-1.68.55-.35.45-.65.87-.79,1.44-.12.49-.13.93-.06,1.42s.19.9.44,1.33c.29.5.67.84,1.14,1.17.57.41,1.45.34,2.02,0,.64-.38.94-1.01.99-1.73.02-.22.03-.44.05-.66.04-.49-.25-1.08-.59-1.41s-.92-.61-1.41-.59-1.05.19-1.41.59-.54.86-.59,1.41c-.02.22-.03.44-.05.66l3.01-1.73-.05-.04.4.31c-.1-.08-.18-.16-.26-.26l.31.4c-.07-.1-.14-.21-.19-.32l.2.48c-.06-.14-.09-.28-.12-.42l.07.53c-.02-.15-.02-.29,0-.44l-.07.53c.02-.15.06-.28.11-.42l-.2.48c.04-.1.09-.18.16-.27l-.31.4.04-.05-3.14-.4c.14.25.27.5.38.76l-.2-.48c.23.55.38,1.13.47,1.73l-.07-.53c.08.6.08,1.19,0,1.79l.07-.53c-.02.16-.04.31-.09.47l.2-.48s-.04.09-.06.13l.31-.4s-.06.07-.1.1l.4-.31-.06.03.48-.2-.06.02.53-.07s-.08,0-.12,0l.53.07-.06-.02.48.2c-.06-.03-.11-.06-.17-.1l.4.31c-.06-.05-.1-.1-.15-.16l.31.4c-.1-.13-.16-.27-.22-.42l.2.48c-.19-.48-.32-.97-.39-1.48l.07.53c-.04-.3-.06-.6-.03-.9l-.07.53c.02-.1.04-.19.07-.28l-.2.48c.03-.07.06-.12.11-.18l-.31.4s.06-.06.09-.09l-.4.31s.06-.04.1-.05l-.48.2s.07-.02.11-.03l-.53.07c.06,0,.11,0,.17,0l-.53-.07c.06,0,.1.02.15.04l-.48-.2s.06.03.08.06l-.4-.31.03.04-.31-.4s.04.06.05.09l-.2-.48v.05c.27,1.01,1.46,1.72,2.47,1.4s1.67-1.37,1.4-2.46h0Z"/>
            <path class="cls-3" d="M45.82,127.36c.11-.28.15-.61.13-.91-.03-.55-.13-.88-.36-1.37-.13-.27-.32-.52-.53-.73-.38-.38-.71-.52-1.19-.72-.35-.1-.71-.1-1.06,0-.26.06-.49.18-.68.36-.22.14-.39.33-.52.56-.18.31-.27.65-.27,1.01-.02.22-.01.44.01.66.05.39.09.78.23,1.15.13.35.28.72.48,1.03s.45.63.72.9c.51.5,1.25.71,1.95.51.34-.1.63-.27.88-.51.25-.25.42-.54.51-.88.15-.35.18-.74.22-1.11s-.03-.78-.1-1.15-.23-.72-.39-1.05c-.05-.09-.1-.18-.16-.27-.16-.22-.32-.45-.51-.64-.18-.2-.4-.33-.64-.41-.24-.13-.5-.18-.77-.17-.28-.01-.53.05-.77.17-.25.08-.46.22-.64.41-.35.38-.61.88-.59,1.41l.07.53c.1.34.27.63.51.88.05.05.09.1.14.16l-.31-.4c.11.15.2.3.28.47l-.2-.48c.07.18.12.37.15.56l-.07-.53c.02.18.02.37,0,.55l.07-.53c-.02.18-.07.36-.14.53l3.34-.88c-.1-.09-.19-.19-.27-.3l.31.4c-.15-.2-.27-.41-.37-.63l.2.48c-.1-.24-.17-.49-.21-.74l.07.53c-.03-.22-.03-.44-.01-.66l-2.53,1.93h.03c-.16-.06-.32-.12-.48-.19.07.03.14.07.21.12l-.4-.31c.06.05.12.11.17.17l-.31-.4c.05.07.1.15.14.23l-.2-.48c.03.08.06.17.07.26l-.07-.53c.01.09.01.18,0,.27l.07-.53c-.01.07-.03.14-.05.2-.08.27-.1.53-.04.8.01.27.09.51.24.74.13.23.3.42.52.56.19.18.42.3.68.36.51.12,1.09.09,1.54-.2l.4-.31c.25-.25.42-.54.51-.88h0Z"/>
            <path class="cls-3" d="M40.52,131.77s-.02.04-.02.06c0,.01,0,.02,0,.03-.03.14-.06.41-.07.55-.01.21.04.43.08.64s.16.43.24.58c.09.18.28.39.38.51.03.03.06.06.09.09.14.12.3.24.44.34.02.01.04.03.06.04.08.04.2.09.26.11s.18.08.26.11c.02,0,.04.01.06.02,0,0,.02,0,.02,0,.15.03.39.06.55.07.03,0,.05,0,.08,0,.21-.01.43-.03.63-.09.08-.03.23-.1.26-.11.01,0,.18-.07.26-.11.02-.01.04-.02.06-.04.11-.08.31-.23.42-.32,0,0,.01-.01.02-.02.07-.07.15-.18.18-.23.05-.06.13-.16.18-.24,0,0,0-.02.01-.02,0,0,0-.01,0-.02l.2-.48s.02-.07.03-.11c.04-.19.09-.42.08-.63,0-.19-.05-.39-.08-.58,0-.02,0-.04-.01-.06-.04-.19-.18-.45-.24-.58-.02-.04-.04-.08-.07-.11-.06-.09-.25-.33-.32-.41,0-.01-.02-.02-.03-.03-.01-.02-.03-.03-.05-.04-.4-.34-.47-.38-.97-.56-.02,0-.04-.01-.06-.02,0,0-.02,0-.03,0-.18-.03-.38-.06-.56-.07l-.53.07c-.26.06-.49.18-.68.36-.15.09-.27.21-.36.36-.18.19-.3.42-.36.68-.06.15-.07.3-.09.46s-.05.31-.04.47c.02.2.05.41.08.61,0,.03.01.07.02.1.07.23.17.45.27.66.07.13.17.25.26.37s.18.25.3.35c.17.14.35.31.55.42.02,0,.03.02.05.02.16.08.35.15.51.22.03.01.07.02.11.03l.53.07c.28.01.53-.05.77-.17.17-.05.32-.13.44-.26.22-.14.39-.33.52-.56.1-.21.21-.43.27-.66,0-.03.01-.06.02-.1.03-.2.07-.41.08-.62,0-.07,0-.14,0-.21-.02-.21-.05-.42-.08-.62,0-.04-.01-.07-.02-.11-.04-.15-.11-.29-.16-.43s-.11-.29-.19-.41c-.06-.1-.14-.19-.21-.28s-.14-.19-.22-.28c-.16-.17-.38-.31-.55-.45-.31-.18-.65-.27-1.01-.27-.36,0-.7.09-1.01.27-.35.24-.55.4-.77.77-.1.17-.18.36-.24.56-.02.09-.03.19-.04.28-.01.09-.03.19-.04.28,0,.02,0,.04,0,.06,0,.19.03.42.09.62.13.39.31.74.61,1.02.03.02.29.25.44.34,0,0,.02,0,.02.01l.48.2c.2.06.42.1.63.08.28.01.53-.05.77-.17.25-.08.46-.22.64-.41.2-.18.33-.4.41-.64.13-.24.18-.5.17-.77l-.07-.53c-.1-.34-.27-.63-.51-.88l-.4-.31c-.31-.18-.65-.27-1.01-.27-.02,0-.04,0-.06,0l.53.07s-.03,0-.04-.01l.48.2s-.04-.02-.06-.03l.4.31s-.03-.03-.05-.05l.31.4s-.03-.05-.04-.08l.2.48s-.02-.05-.02-.08l.07.53s0-.06,0-.08l-.07.53s0-.04.01-.05l-.2.48s.02-.03.03-.05l-.31.4s.02-.03.04-.04l-.4.31h.01c-.67,0-1.35,0-2.02,0h.02c-.13-.09-.27-.2-.4-.3.07.06.14.12.19.2l-.31-.4c.06.08.11.17.15.26l-.2-.48c.04.1.07.21.09.33l-.07-.53c.01.11.01.22,0,.34l.07-.53c-.01.09-.04.18-.07.27l.2-.48s-.01.02-.02.04l2.26-.92s-.08-.02-.12-.04l.48.2c-.07-.03-.13-.07-.19-.11l.4.31c-.06-.05-.12-.11-.17-.17l.31.4c-.05-.07-.1-.14-.13-.22l.2.48c-.04-.09-.06-.17-.07-.27l.07.53c0-.08,0-.16,0-.24l-.07.53c.01-.07.03-.13.05-.19l-1.93,1.47s.02,0,.03,0l-.53-.07s.06.01.1.03l-.48-.2s.05.03.07.04l-.4-.31s.06.05.08.08l-.31-.4s.05.08.07.12l-.2-.48c.02.05.03.1.04.16l-.07-.53s0,.09,0,.13l.07-.53s-.02.08-.03.12l.2-.48s-.03.06-.05.08l.31-.4s-.04.04-.06.06l.4-.31s-.05.04-.08.05l.48-.2s-.06.02-.09.03l.53-.07s-.07,0-.11,0l.53.07s-.08-.02-.12-.04l.48.2s-.08-.04-.11-.07l.4.31s-.07-.07-.11-.1l.31.4s-.05-.07-.07-.11l.2.48s-.03-.08-.03-.12l.07.53s0-.06,0-.09l-.07.53s.01-.06.03-.09c.08-.27.1-.53.04-.8-.01-.27-.09-.51-.24-.74-.13-.23-.3-.42-.52-.56-.19-.18-.42-.3-.68-.36l-.53-.07c-.36,0-.7.09-1.01.27l-.4.31c-.25.25-.42.54-.51.88h0Z"/>
            <path class="cls-3" d="M60.28,24.93c-.14.77-.17,1.56.1,2.31s.64,1.41,1.23,1.91c.25.25.54.42.88.51.35.1.71.1,1.06,0,.64-.17,1.26-.73,1.4-1.4.32-1.59.1-3.27-.79-4.65-.44-.68-1.18-1.06-1.99-.95s-1.42.66-1.66,1.43v.04c.06-.16.12-.32.19-.48,0,.02-.02.04-.03.06l.31-.4s-.03.03-.05.05l.4-.31s-.04.02-.06.03l.48-.2s-.04.01-.07.02l.53-.07s-.1,0-.14,0l.53.07s-.07-.02-.11-.03l.48.2s-.06-.03-.09-.05l.4.31s-.03-.03-.05-.05l.31.4s-.02-.04-.03-.06l.2.48v-.03c.01.18.04.35.06.53,0-.02,0-.05,0-.07l-3.93.53c.53,1.78,1.52,3.44,2.87,4.72.77.73,2.07.8,2.83,0,1-1.06,1.33-2.7.78-4.06-.14-.35-.28-.69-.49-1.01s-.45-.62-.71-.89c-.33-.35-.7-.65-1.08-.95-.27-.22-.54-.42-.88-.51-.44-.12-.89-.07-1.3.1-.33.14-.58.33-.8.62-.25.32-.48.79-.43,1.21.06.51.12,1.02.31,1.5s.39.96.68,1.39c.59.83,1.32,1.57,2.24,2.03.48.24,1.01.35,1.54.2.46-.13.97-.49,1.2-.92.25-.46.37-1.03.2-1.54-.15-.48-.46-.96-.92-1.2-.24-.12-.46-.26-.67-.42l.4.31c-.27-.21-.51-.46-.73-.73l.31.4c-.22-.29-.41-.6-.55-.94l.2.48c-.13-.32-.23-.65-.28-.99l.07.53s-.01-.08-.01-.12l-3.41,1.41c.49.39.97.79,1.36,1.28l-.31-.4c.16.21.29.42.4.66l-.2-.48c.08.2.14.41.17.63l-.07-.53c.02.2.03.39,0,.59l.07-.53c-.02.15-.06.3-.12.44l.2-.48c-.05.12-.12.24-.2.35l.31-.4s-.07.09-.11.13h2.83c-.33-.31-.63-.64-.9-.99l.31.4c-.45-.59-.83-1.22-1.12-1.9l.2.48c-.13-.31-.24-.62-.34-.95-.28-.96-1.21-1.57-2.19-1.43s-1.71.96-1.73,1.96c-.02,1.17.9,2.11,2.02,2.26.51.07,1.05.02,1.5-.26.52-.32.87-.78,1.06-1.36l-3.66.48c.13.21.25.43.35.66l-.2-.48c.14.34.23.68.29,1.04l-.07-.53c.05.38.05.76,0,1.15l.07-.53c-.01.09-.03.18-.05.27l3.34-.88c-.12-.1-.24-.22-.34-.34l.31.4c-.14-.18-.25-.37-.33-.57l.2.48c-.08-.19-.13-.38-.16-.58l.07.53c-.03-.22-.03-.44,0-.66l-.07.53s.01-.08.02-.12c.1-.54.08-1.06-.2-1.54-.24-.41-.72-.81-1.2-.92-.51-.12-1.09-.09-1.54.2-.42.27-.82.69-.92,1.2h0Z"/>
            <path class="cls-3" d="M66.59,24.98c-.08.26-.12.54-.12.81s.04.56.12.82c.17.51.45,1,.85,1.36s.88.66,1.41.79,1.13.14,1.66-.03c.99-.33,1.73-1.04,2.14-1.99.2-.46.3-.89.32-1.4.01-.28-.05-.56-.09-.84-.02-.14-.05-.28-.1-.41-.31-.88-.83-1.67-1.55-2.26-.18-.2-.4-.33-.64-.41-.24-.13-.5-.18-.77-.17-.54.02-1.02.21-1.41.59-1.37,1.31-1.76,3.6-.8,5.26.29.5.74.97,1.26,1.25.63.35,1.48.5,2.17.24.42-.16.75-.33,1.07-.65s.5-.68.65-1.1c.09-.25.12-.54.14-.81.02-.29-.03-.6-.1-.88-.14-.58-.51-1.15-.96-1.53-.39-.34-.79-.58-1.25-.8s-1.02-.37-1.54-.2c-.48.15-.96.46-1.2.92-.3.59-.41,1.05-.49,1.69-.05.42.02.84.09,1.25s.25.8.44,1.16c.13.25.32.47.49.68.09.12.19.22.3.32.4.35.86.59,1.41.59.49,0,1.08-.22,1.41-.59s.61-.88.59-1.41-.19-1.07-.59-1.41c-.11-.1-.21-.2-.3-.32l.31.4c-.11-.15-.2-.31-.27-.48l.2.48c-.08-.19-.13-.38-.16-.59l.07.53c-.03-.2-.03-.4,0-.61l-.07.53c.03-.18.07-.36.14-.53l-.2.48c.02-.05.05-.1.07-.15l-2.74.72c.28.13.55.26.8.45l-.4-.31c.11.09.21.18.3.29l-.31-.4c.05.07.1.15.14.23l-.2-.48c.04.09.06.19.08.29l-.07-.53c.01.1,0,.2,0,.29l.07-.53c-.01.08-.04.15-.07.23l.2-.48c-.03.06-.06.11-.1.16l.31-.4s-.06.07-.1.1l.4-.31s-.08.05-.12.07l.48-.2c-.05.02-.1.04-.16.05l.53-.07c-.07,0-.14,0-.21,0l.53.07c-.07-.01-.14-.03-.21-.06l.48.2c-.09-.04-.17-.09-.24-.15l.4.31c-.09-.08-.17-.16-.25-.26l.31.4c-.07-.1-.13-.2-.18-.31l.2.48c-.08-.19-.13-.39-.16-.6l.07.53c-.02-.21-.02-.42,0-.62l-.07.53c.03-.23.09-.45.18-.66l-.2.48c.08-.19.19-.37.32-.54l-.31.4c.07-.09.15-.17.23-.25h-2.83c.22.18.43.38.61.61l-.31-.4c.15.19.28.4.38.63l-.2-.48c.08.19.13.38.16.58l-.07-.53c.02.15.02.29,0,.44l.07-.53c-.02.16-.07.32-.13.47l.2-.48c-.06.13-.13.25-.22.37l.31-.4c-.08.1-.16.18-.26.26l.4-.31c-.1.07-.2.14-.32.18l.48-.2c-.08.03-.17.06-.25.07l.53-.07c-.09.01-.17.01-.26,0l.53.07c-.1-.01-.2-.04-.3-.08l.48.2c-.11-.05-.22-.11-.32-.19l.4.31c-.08-.07-.15-.14-.22-.22l.31.4c-.05-.07-.09-.14-.13-.22l.2.48c-.03-.08-.06-.15-.07-.24l.07.53c-.01-.08-.01-.16,0-.25l-.07.53c0-.05.02-.1.04-.15.15-.48.05-1.11-.2-1.54s-.72-.81-1.2-.92c-.51-.12-1.09-.09-1.54.2s-.76.68-.92,1.2h0Z"/>
            <path class="cls-3" d="M76.61,24.35c-.53-.67-1.29-1.1-2.15-1.15-1.12-.05-2.18.71-2.48,1.8l-.07.53s0,.07,0,.1c0,.2.03.41.08.61.06.24.18.48.29.7.16.32.39.6.61.89.34.43.78.78,1.24,1.08.23.15.48.23.74.24.27.06.53.05.8-.04l.48-.2c.3-.18.54-.42.72-.72.22-.3.37-.67.46-1.03.12-.5.13-.92.06-1.41-.11-.82-.48-1.66-1.13-2.2-.31-.25-.53-.41-.89-.56s-.48-.19-.9-.21c-.03,0-.05,0-.08,0-.17,0-.44.04-.6.08-.38.1-.74.32-1.02.59s-.5.66-.61,1.04c-.14.51-.12,1.03,0,1.54.08.37.25.73.45,1.04.42.65.83,1.29,1.25,1.94.27.42.7.81,1.2.92.54.12,1.04.05,1.54-.2.12-.06.21-.14.32-.22.09-.07.2-.14.29-.23.18-.17.34-.38.46-.6.23-.44.42-.98.36-1.48.01-.28-.05-.53-.17-.77-.08-.25-.22-.46-.41-.64-.35-.35-.92-.61-1.41-.59s-1.05.19-1.41.59l-.31.4c-.18.31-.27.65-.27,1.01,0,.08,0,.15,0,.22l.07-.53c-.01.06-.03.11-.05.17l.2-.48c-.03.07-.07.13-.11.19l.31-.4c-.05.06-.1.11-.16.16l.4-.31s-.07.05-.11.07l2.74.72c-.26-.4-.51-.8-.77-1.19-.22-.34-.49-.68-.65-1.05l.2.48c-.05-.12-.08-.24-.1-.37l.07.53c-.01-.08-.01-.16,0-.25l-.07.53c0-.05.02-.1.04-.15l-.2.48s.03-.07.06-.1l-.31.4s.02-.03.04-.04l-.4.31s.05-.03.07-.05l-.48.2s.06-.02.09-.03l-.53.07s.09,0,.14,0l-.53-.07s.07.02.1.03l-.48-.2c.09.04.17.09.25.15l-.4-.31c.1.08.18.16.26.26l-.31-.4c.08.11.15.23.2.35l-.2-.48c.06.14.1.29.12.44l-.07-.53c.02.15.02.3,0,.45l.07-.53c-.02.14-.05.27-.1.39l.2-.48c-.05.11-.11.22-.18.32l2.74-.72c-.09-.06-.17-.11-.25-.18l.4.31c-.22-.17-.41-.37-.58-.59l.31.4c-.13-.18-.26-.37-.35-.58l.2.48c-.02-.05-.04-.1-.05-.15l.07.53c0-.06,0-.1,0-.16l-.07.53s.01-.05.02-.07l-.2.48s.02-.04.04-.06l-.31.4s.05-.06.08-.08l-.4.31s.06-.04.1-.06l-.48.2c.05-.02.1-.04.15-.05l-.53.07c.05,0,.11,0,.16,0l-.53-.07c.06,0,.11.02.16.04l-.48-.2c.07.03.14.07.21.12l-.4-.31c.14.11.26.25.37.39.18.2.4.33.64.41.24.13.5.18.77.17.49,0,1.08-.22,1.41-.59s.61-.88.59-1.41l-.07-.53c-.1-.34-.27-.63-.51-.88h0Z"/>
            <path class="cls-3" d="M80.54,62.92c.13-.2.28-.4.42-.59l-.31.4c.5-.64,1.08-1.22,1.72-1.72l-.4.31c.18-.14.36-.27.54-.39.43-.29.78-.68.92-1.2.13-.48.07-1.12-.2-1.54s-.69-.8-1.2-.92l-.53-.07c-.36,0-.7.09-1.01.27-.72.32-1.39.72-2.01,1.2-.75.57-1.44,1.18-2.03,1.91-.2.18-.33.4-.41.64-.13.24-.18.5-.17.77,0,.49.22,1.08.59,1.41s.88.61,1.41.59c.5-.02,1.09-.18,1.41-.59.48-.6,1.02-1.13,1.62-1.6l-.4.31c.62-.48,1.29-.88,2.01-1.2l-2.02-3.45c-1.36.91-2.5,2.05-3.4,3.42-.28.42-.33,1.07-.2,1.54s.49.97.92,1.2c.46.25,1.03.37,1.54.2s.9-.47,1.2-.92h0Z"/>
            <path class="cls-3" d="M55.63,53.13c.77,1.81,1.95,3.46,3.37,4.82.59.56,1.44.73,2.18.41.33-.14.58-.33.8-.62.25-.32.47-.79.43-1.21-.13-1.2-.43-2.32-1.04-3.38s-1.41-1.87-2.37-2.58l-.48-.2-.53-.07c-.45,0-.86.16-1.21.43-.66.51-.88,1.3-.72,2.1.18.85.64,1.64,1.23,2.26.35.37.92.59,1.41.59s1.08-.22,1.41-.59c.75-.82.77-2.02,0-2.83-.07-.07-.13-.14-.19-.22l.31.4c-.15-.19-.27-.4-.36-.62l.2.48c-.07-.18-.13-.36-.17-.55l-2.94,2.26s.07.05.11.08l-.4-.31c.4.31.75.67,1.07,1.06l-.31-.4c.32.42.59.87.8,1.36l-.2-.48c.2.49.35.99.42,1.52l-.07-.53c0,.07.02.14.02.2l3.41-1.41c-.49-.47-.94-.97-1.35-1.51l.31.4c-.69-.9-1.26-1.87-1.7-2.91-.18-.43-.77-.8-1.2-.92-.48-.13-1.12-.07-1.54.2s-.8.69-.92,1.2l-.07.53c0,.36.09.7.27,1.01h0Z"/>
            <path class="cls-3" d="M62.2,69.25c.09-.02.19-.04.28-.05.22-.04.19-.03-.11,0,.16-.06.4-.04.56-.05.33-.02.66-.02.99,0,.19,0,.38.03.57.04.22.03.19.02-.11-.02.09.01.19.03.28.05.33.06.65.14.97.23s.63.27.94.33c-.26-.11-.29-.12-.09-.03.09.04.17.08.26.12.17.08.34.17.5.27.29.17.56.35.83.54.17.13.15.11-.07-.05.07.06.15.12.22.18.14.12.28.25.42.38l2.83-2.83c-1.88-1.79-4.71-2.51-7.19-1.66-.77.26-1.32.84-1.43,1.66-.1.78.26,1.6.95,1.99,1.55.88,3.26,1.53,5.02,1.83.81.14,1.57-.03,2.1-.72s.53-1.49.16-2.22c-.56-1.09-1.59-1.87-2.75-2.21-.82-.24-1.85.15-2.26.92-.44.82-.3,1.73.31,2.42,1.02,1.16,2.44,1.99,3.94,2.34,1.02.23,2.21-.31,2.46-1.4.23-1.02-.31-2.21-1.4-2.46-.12-.03-.77-.3-.83-.25.06-.04.39.18.01,0-.13-.06-.26-.13-.38-.21-.1-.06-.2-.13-.31-.2-.4-.25.29.28-.06-.04-.22-.2-.42-.39-.62-.61l-1.95,3.34c.4.12-.32-.22,0-.01.08.04.15.08.22.13-.21-.17-.26-.21-.15-.11.05.04.1.09.14.13.11.13.12.13.01,0-.1-.14-.1-.13,0,0,.05.07.09.15.12.23l2.26-2.94c-.77-.14-1.53-.33-2.27-.59-.18-.06-.35-.13-.53-.2-.21-.09-.2-.08.03.01-.07-.03-.15-.07-.22-.1-.37-.17-.72-.36-1.08-.56l-.48,3.66c.2-.07.39-.13.6-.17.31-.07.14.01-.06,0,.09,0,.19-.02.27-.02.23-.01.46,0,.69,0,.32.01-.09-.05-.12-.03.05-.03.28.05.34.06.2.04.4.1.6.17.08.03.18.09.26.1-.2-.03-.31-.14-.04,0,.18.1.36.21.53.32.24.15-.05.02-.07-.06.02.06.26.23.31.28.76.72,2.09.81,2.83,0s.8-2.05,0-2.83c-2.74-2.64-6.61-3.71-10.32-2.98-1.03.2-1.71,1.48-1.4,2.46.35,1.09,1.36,1.62,2.46,1.4h0Z"/>
            <path class="cls-3" d="M45.07,65.84c-.31,2.34-.53,4.68-.66,7.03-.12,2.15-.84,6,2.02,6.68,1.35.32,2.68-.34,3.4-1.49.58-.91.81-2.11.99-3.16.4-2.37.37-4.76-.15-7.11-.27-1.2-.8-2.44-2.03-2.91-1.5-.57-2.94.34-3.42,1.8-.3.92-.38,1.99-.44,2.95-.07,1.02-.01,2.03.14,3.05.3,1.93,1.29,4.12,3,5.18,1.22.75,2.82.59,3.79-.49.72-.81.98-1.84,1.14-2.88.36-2.4.27-4.96-1-7.11-.66-1.11-1.65-2.16-2.94-2.49-1.4-.35-3.07.24-3.72,1.59l3.14-.4c.39.43.53,1.19.11,1.61-.2.2-.49.2-.72.29-.04.01-.26-.03-.24-.09,0,0,.43.43.45.45-.16-.19.09.11.14.18.17.22.33.44.51.65.34.41.72.72,1.15,1.03l2.02-3.45c-1.39-.81-2.49-1.76-3.56-3.04l-.88,3.34c.4-.11.2-.05.1-.04.32-.06.24.01.11,0,.19.02.28.06.51.25-.23-.18.36.43.19.21.19.25.35.56.48.85.37.82.57,1.99.54,3.02,0,.03-.04.39,0,.13-.02.14-.06.29-.09.43s-.08.28-.13.42c.03-.08.16-.27-.06.13-.05.1-.11.19-.17.29-.17.31.16-.16-.05.09-.03.03-.3.34-.16.19.11-.12-.29.14,0,.03-.19.07-.33,0-.65,0-.38.02-.77.07-1.12.2-.79.28-1.44.84-1.86,1.58-.78,1.37-.5,3.16.72,4.18s3.22,1.22,4.44.04c1.36-1.31,1.21-4.12-1-4.41-1.41-.19-3.09.91-3.98,1.93-.69.79-1.31,1.82-1.01,2.92s1.33,1.76,2.41,1.77c1.73.02,3.36-1.23,4.19-2.67.57-.99.12-2.76-1.2-2.94-2.3-.31-4.29.48-5.65,2.38-.63.88-.15,2.23.72,2.74,1.01.59,2.1.16,2.74-.72-.23.32.45-.39.14-.15.16-.12.35-.23.53-.31-.29.12.3-.06.3-.06-.44.09.6.03.16-.03l-1.2-2.94s-.34.45-.18.29c-.02.03-.44.35-.25.23-.05.03-.55.3-.3.16l-.21.06c.61.07.75.06.43-.05l.88.51.14.18.27,1.01.02-.24-.27,1.01c.34-.7.78-1,1.59-1.19l-1.95-.51c-.58-.54-.52-1.85.28-2.1.23-.07.33,0,.54.05.16.16.16.16,0,0l.25.44c.04.21-.14.5,0,.22-.1.19-.14.26-.3.38-.11.09-.58.05,0,.07s1.11-.03,1.63-.23c2.17-.81,3.2-3.1,3.39-5.27.34-3.83-2.26-9.69-6.99-8.37-1.55.43-1.82,2.21-.88,3.34,1.22,1.47,2.72,2.7,4.37,3.66.93.55,2.19.21,2.74-.72.59-1.01.16-2.1-.72-2.74.23.17-.2-.24-.21-.24l-.13-.16c.08.1.08.1,0-.01-.3-.38-.57-.79-.92-1.13-.78-.75-1.79-1.27-2.89-1.21-2.48.12-3.73,3.09-2.09,4.92.81.91,2.6.73,3.14-.4.17-.37-.25.22-.44.27-.2.05-.29-.08-.43-.07.17,0,.4.35.45.42.48.69.57,1.07.75,1.93.02.14.03.14.01.01l.02.22c.02.22.03.44.04.67.01.45-.02.89-.05,1.34-.01.22-.04.39-.12.79-.04.2-.08.39-.14.58-.09.34-.03.07.08-.06.26-.29,1.15-.41,1.23-.12,0,.02-.27-.27-.34-.36-.12-.14.05.11-.12-.16-.11-.17-.21-.34-.3-.52,0-.02-.24-.56-.12-.26-.06-.16-.11-.32-.16-.48-.1-.36-.19-.73-.24-1.1.05.35-.01-.29-.01-.3-.01-.21-.02-.42-.02-.63,0-.35.01-.71.04-1.06.03-.45.07-.76.1-.94.04-.2.07-.41.11-.62.23-.99.04.79-1.12.64l-1.01-.27s-.29-.3-.25-.39c-.03.05.1.37.12.43.12.46.21.93.28,1.4.1.73.13,1.64.1,2.44s-.11,1.51-.29,2.29c-.09.4-.2.8-.31,1.2-.07.21-.09.25-.04.14.05-.12.02-.08-.08.11.26-.27.37-.38.75-.37.3-.06.53.06.7.37.27.09.42.26.46.49.07-.07,0-.52,0-.62,0-.46.02-.92.04-1.38.03-.97.09-1.94.15-2.91.13-1.94.33-3.87.58-5.79.14-1.07-1.02-2-2-2-1.2,0-1.86.92-2,2h0Z"/>
            <path class="cls-3" d="M57.79,82.57c-1.17,2.21-.81,5.05,1.03,6.79.85.8,2.6.82,3.14-.4.97-2.17,1.35-4.45,1.03-6.82-.19-1.43-.51-3.01-2.03-3.57-1.76-.64-3.14.95-3.7,2.41-.75,1.94-.2,4.16.53,6.02.29.75.61,1.39,1.31,1.83.82.52,1.92.41,2.71-.09,1.02-.64,1.6-1.89,1.81-3.05.42-2.3-.25-4.78-2.01-6.38-.96-.88-2.44-.73-3.14.4-2.04,3.3-1.97,7.86.29,11.04.42.59.97.99,1.73.99.67,0,1.41-.37,1.73-.99.61-1.2.95-2.49.94-3.84-.01-1.05-.91-2.05-2-2s-2.01.88-2,2c0,.22,0,.43-.02.65-.02.23-.02.22,0-.05-.02.11-.04.21-.07.32-.05.21-.12.42-.19.63-.08.21-.08.2.02-.02-.05.1-.09.2-.14.29h3.45c-.22-.31-.42-.62-.59-.96-.06-.11-.39-.64-.09-.16-.09-.15-.14-.36-.19-.53-.12-.36-.21-.72-.28-1.09-.02-.09-.03-.18-.05-.28.04.3.04.34.02.11-.01-.19-.03-.37-.04-.56-.01-.38.01-.75.04-1.12.03-.22.02-.19-.02.11.01-.09.03-.19.05-.28.03-.18.07-.37.12-.55s.1-.36.16-.54c.03-.09.06-.18.09-.26.08-.2.07-.18-.04.09.07-.33.35-.71.53-.99l-3.14.4c.1.09.19.17.28.27.04.05.09.09.13.14.1.11.06.06-.11-.16.02-.02.34.53.38.6.04.08.28.41.09.17-.18-.22,0,.02.04.12.08.24.1.51.19.75-.15-.41-.03-.25-.01-.02,0,.13.01.26.01.39,0,.11,0,.21-.01.32-.04.47.05-.21,0-.02-.06.23-.11.45-.18.68-.12.41.21-.38,0,0-.06.12-.29.42.02.05l-.1.1c.5-.49,1.15-.45,1.94.1.08.08.31.56.24.39-.1-.25-.2-.51-.29-.77-.2-.57-.35-1.15-.46-1.74-.07-.38.01.27,0,.02,0-.14-.02-.29-.02-.43,0-.12,0-.24,0-.36,0-.44-.09.37,0-.02.03-.14.07-.27.1-.4.11-.42-.21.34.01-.04.07-.12.33-.42,0-.07l.1-.1c-.36.3-.77.41-1.23.34l-.88-.51c.17.15.14.08-.08-.22-.17-.33-.22-.39-.14-.18.01.13.08.27.11.39.05.21.23.66.18.87-.03-.24-.03-.28-.02-.13,0,.08.02.16.03.24.01.13.02.27.03.4.02.3.02.59,0,.89,0,.26,0,.56-.06.81.12-.49,0,.02-.02.11-.03.16-.06.32-.1.48-.06.26-.13.52-.22.78-.05.15-.11.31-.16.46-.14.4.14-.3-.05.12l3.14-.4c-.06-.06-.12-.12-.18-.18-.14-.16-.12-.12.07.11-.02.01-.25-.4-.27-.43-.04-.08-.08-.15-.11-.23.12.28.14.32.06.12-.01-.05-.09-.48-.13-.5.04.32.04.37.02.15,0-.09-.01-.17-.01-.26,0-.09,0-.17,0-.26.02-.22,0-.17-.03.15.05-.04.1-.42.12-.5.07-.2.05-.16-.06.12.04-.08.07-.15.12-.23.49-.92.26-2.22-.72-2.74-.93-.49-2.21-.27-2.74.72h0Z"/>
            <path class="cls-3" d="M63.35,99.31c.04,1.02.34,2.06.96,2.89.42.56.81.96,1.37,1.37.42.31.9.52,1.39.69.59.21,1.27,0,1.74-.36.53-.41.72-.92.79-1.57.22-2.15-.68-4.41-2.21-5.91-.51-.5-1.25-.71-1.95-.51s-1.19.72-1.4,1.4c-.39,1.26-.37,2.73.07,3.97.22.62.49,1.23.88,1.76.51.69,1.03,1.21,1.74,1.7.41.28,1.08.33,1.54.2s.97-.49,1.2-.92c.25-.46.37-1.03.2-1.54s-.47-.88-.92-1.2c-.06-.04-.12-.08-.18-.13l.4.31c-.31-.24-.58-.52-.82-.83l.31.4c-.23-.31-.43-.65-.59-1.01l.2.48c-.17-.41-.29-.83-.35-1.27l.07.53c-.05-.41-.05-.82,0-1.24l-.07.53c.04-.24.09-.48.16-.71l-3.34.88c.17.17.34.35.49.54l-.31-.4c.3.39.54.81.74,1.25l-.2-.48c.19.45.31.92.38,1.4l-.07-.53c.06.43.06.86.02,1.29l2.53-1.93c-.07-.02-.14-.05-.21-.08l.48.2c-.25-.11-.48-.24-.7-.41l.4.31c-.24-.18-.44-.39-.63-.62l.31.4c-.18-.24-.33-.49-.45-.76l.2.48c-.11-.28-.19-.56-.23-.85l.07.53c-.01-.1-.02-.2-.02-.3-.02-.53-.21-1.04-.59-1.41-.35-.35-.92-.61-1.41-.59-1.05.05-2.05.88-2,2h0Z"/>
            <path class="cls-3" d="M49.42,91.49c-1.06-.97-2.22-1.65-3.57-2.15-.92-.34-2.02.3-2.36,1.16-.39.97-.02,1.91.82,2.5,1.48,1.04,3.05,2.12,3.94,3.74s.99,3.69.88,5.56l3.41-1.41c-2.33-2.32-3.83-5.2-4.48-8.41l-3.34,1.95c1.61,1.54,2.92,3.39,3.74,5.48.43,1.08.74,2.22.93,3.36.09.57.4,1.91,0,2.4h2.83c-.7-.59-.8-1.55-1.01-2.4-.32-1.29-.63-2.58-.92-3.87-.57-2.53-1.07-5.08-1.52-7.64l-1.93,2.53c-.19.02-.26-.26-.02.02.16.18.34.35.5.53.27.31.52.63.75.97.49.72.94,1.5,1.27,2.31s.57,1.68.73,2.54c.07.39.14.8.15,1.2,0,.1.07.28.02.13-.07.23-.08.29-.04.17.14-.48.58-.69,1.31-.65l.88.51c-.24-.22-.22-.15.05.22-.05-.14-.08-.28-.11-.42-.08-.35-.15-.7-.22-1.06-.16-.76-.31-1.52-.47-2.29-.33-1.58-.65-3.17-.98-4.75l-2.46,2.46c.23.05.25.12.45.42.28.42.51.89.71,1.35.43,1.02.73,2.15.83,3.25.13,1.46.23,4.56-1.17,5.25l2.94,1.2c-.33-2.31-.66-4.63-.98-6.94s-.4-4.9-3.19-5.15c-.63-.06-1.46.41-1.73.99-1.06,2.3-2.07,4.78-1.93,7.36.12,2.11.91,4.28,2.53,5.71,1.07.94,2.43,1.61,3.81.85,1.07-.58,1.79-1.82,2.02-2.98.45-2.35-.69-4.99-2.28-6.72-1.81-1.97-4.9-1.66-6.05.85-1.07,2.34.02,5.39,1.19,7.5.58,1.05,1.33,2.13,2.66,2.18,1.42.05,2.53-1.12,3.15-2.28.55-1.04.77-2.16.92-3.31s.29-2.25-.07-3.32c-.99-2.92-4.94-3.21-6.66-.83-1.82,2.51-.44,5.56,1.9,7.1.62.41,1.4.31,2.02,0,2.53-1.27,3.42-4.27,3.39-6.91-.03-3.18-1-6.34-2.64-9.05l-3.14,2.42c1.51,1.23,2.3,2.97,3.1,4.7.97,2.09,4.24.6,3.66-1.54-.49-1.78-1.16-3.49-1.97-5.15l-3.14,2.42c1.17.92,2.02,1.98,2.64,3.34.45.98,1.87,1.22,2.74.72,1.01-.59,1.17-1.75.72-2.74-.74-1.61-1.87-3.05-3.26-4.15-.78-.62-1.78-.83-2.63-.16s-.97,1.66-.52,2.58c.67,1.35,1.17,2.74,1.57,4.19l3.66-1.54c-.93-2.02-1.97-4.07-3.73-5.51-.77-.63-1.8-.82-2.63-.16-.76.61-1.04,1.71-.52,2.58,1.19,1.96,1.95,4.16,2.08,6.45.05.97.03,1.71-.23,2.58-.22.73-.52,1.14-1.16,1.46h2.02c-.42-.28-.89-.76-.74-1.22,0-.02.26-.28.1-.11-.08.09-.17,0-.23.02.22.05.28.07.16.05-.15-.01-.25-.1-.32-.27-.06.03-.12,1.8-.16,2.04-.12.63-.33,1.62-.84,1.86l1.01-.27h-.23c.34.1.67.19,1.01.28.33.42.36.44.11.07l-.16-.27c-.16-.27-.31-.54-.44-.82-.24-.5-.41-1.03-.55-1.56-.11-.43-.27-.92-.23-1.38,0,.06,0-.4.04-.31.12-.18.08-.15-.12.08-.07.01-.13.02-.2.02.12-.1-.26.04-.25.01.01-.04.31.38.32.4.33.48.65,1.02.86,1.56.15.37.27.8.21,1.2.02-.13-.04.26-.05.22.04.29-.35.23.11.1h1.06c-1.04-.18-1.55-2.13-1.6-2.98-.11-1.87.62-3.68,1.38-5.34l-1.73.99.2.02-1.01-.27c-.4-.19-.33-.66-.2.04.09.46.13.93.2,1.39.12.87.25,1.74.37,2.6.25,1.79.51,3.59.76,5.38.19,1.38,1.92,1.7,2.94,1.2,3.05-1.5,3.45-6.04,3.13-9-.19-1.77-.64-3.43-1.38-5.05s-1.75-3.13-3.51-3.54c-1.54-.36-2.77.95-2.46,2.46s.61,2.93.91,4.4c.27,1.32.45,2.72.84,4.01.44,1.45,1.73,2.63,3.33,2.26,1.26-.29,2.03-1.42,2.25-2.63.42-2.37-.57-5.18-1.59-7.28-.54-1.11-1.24-2.13-2.02-3.09-.92-1.13-2.1-2.3-3.68-2.17-1.38.12-2.16,1.18-1.93,2.53.48,2.78,1.04,5.56,1.67,8.31.31,1.34.62,2.67.97,4,.33,1.25.82,2.51,1.84,3.36.77.65,2.09.88,2.83,0,2.1-2.5,1.3-6.27.31-9.11s-2.71-5.62-4.97-7.79c-1.5-1.44-3.73.03-3.34,1.95.78,3.85,2.73,7.41,5.51,10.17,1.28,1.28,3.32.28,3.41-1.41.15-2.59-.15-5.28-1.43-7.58s-3.33-3.75-5.38-5.18l-1.54,3.66c.67.25,1.28.64,1.8,1.12,1.9,1.73,4.73-1.09,2.83-2.83h0Z"/>
            <path class="cls-3" d="M61.94,115.91c.08-1.1-.2-2.14-.66-3.12s-1.85-1.19-2.74-.72c-1.4.74-2.5,2.21-2.74,3.79-.26,1.73.25,3.5,1.53,4.74.76.74,1.78,1.34,2.87,1.19,1.24-.17,1.93-1.09,2.29-2.21.48-1.49.89-3.03,1.13-4.58.18-1.14.11-2.24-.69-3.14-.74-.84-1.89-1.07-2.96-.88-1.86.34-2.81,2.26-3.1,3.94s-.21,3.46.44,5.06c.4,1,.94,1.85,1.98,2.29.97.41,2.1.28,3-.25,1.79-1.06,2.2-3.34,2.04-5.26s-.71-3.61-1.78-5.11c-.9-1.28-2.56-1.28-3.45,0-1.2,1.71-1.78,3.9-1.69,5.98.1,2.29.9,4.36,2.33,6.13.92,1.14,3.07.52,3.34-.88.56-2.89.52-5.8-.16-8.67-.3-1.27-1.85-1.83-2.94-1.2-2.53,1.47-3.68,4.54-3.08,7.35.38,1.76,1.76,3.81,3.82,3.25,1-.27,1.58-1.19,1.97-2.07.42-.96.64-1.87.75-2.91s-1-2.04-2-2c-1.18.05-1.88.88-2,2-.04.39.06-.2,0,.04-.03.1-.04.21-.07.32-.06.24-.13.47-.21.71-.16.48.12-.2-.02.05-.07.12-.12.25-.19.37-.03.06-.14.18-.14.25l.16-.22c1.01-.59,1.72-.58,2.13.04.08.11.09.13.04.04-.03-.05-.07-.1-.1-.16-.04-.07-.08-.15-.12-.22-.18-.3.09.31.03.09-.02-.08-.06-.15-.08-.23-.06-.18-.09-.35-.13-.53-.09-.39,0,.33.01.11,0-.1-.02-.21-.02-.31,0-.18.03-.37.02-.55-.01-.24-.08.4-.03.16.02-.1.04-.2.06-.3.04-.18.1-.36.15-.53.07-.26.17-.11-.05.08.05-.04.08-.17.1-.22.09-.18.2-.35.31-.53.14-.24-.02.08-.1.11.06-.02.15-.18.2-.23.06-.06.4-.33.4-.38,0,.05-.37.25-.11.09.11-.07.21-.13.31-.2l-2.94-1.2c.07.3.14.59.19.89.03.15.05.3.08.45.03.16.06.4.02.1.08.6.12,1.21.13,1.82s0,1.16-.05,1.73c-.01.15-.03.3-.04.45,0,0-.06.53-.03.28s-.04.23-.04.28c-.03.18-.06.36-.1.54l3.34-.88c-.17-.21-.03.03.05.07-.08-.04-.15-.22-.2-.29-.1-.16-.2-.32-.29-.48-.07-.13-.16-.48-.28-.56.07.05.14.36.04.09-.03-.09-.07-.17-.1-.26-.13-.38-.23-.76-.31-1.15-.02-.08-.09-.26-.06-.35-.03.08.04.41.02.11-.02-.21-.03-.42-.04-.63,0-.19,0-.37,0-.56,0-.14-.03-.53.05-.63-.04.06-.07.41-.01.11.02-.09.03-.18.05-.28.04-.21.09-.41.15-.61.05-.18.11-.36.17-.53.1-.28.1-.14-.02.02.05-.07.08-.18.12-.25.18-.38.4-.74.64-1.09h-3.45c.28.4.51.82.73,1.25.04.08.18.34,0-.04.05.09.08.21.11.3.09.25.17.51.24.77.05.21.09.42.13.63.08.42.01-.03,0-.05.03.04.02.25.03.32.02.24.02.48.02.72,0,.11,0,.21-.01.32,0,.07-.08.58-.02.29s-.02.05-.03.12c-.02.1-.06.2-.08.3-.05.27.23-.37-.01.02-.05.09-.21.29.04-.03-.08.1-.27.2.09-.05-.27.19.04,0,.11-.02-.33.11.07.01.14,0-.18,0-.18,0,0,.02.13,0,.26.04.37.12-.01,0,.29.32.29.32-.04,0-.12-.21-.15-.26-.25-.4.06.25-.02-.04-.03-.11-.08-.21-.11-.32-.08-.24-.14-.49-.19-.74-.02-.1-.06-.24-.06-.33-.01.27.02.16,0-.06-.04-.47-.05-.97.03-1.44-.08.46.05-.18.08-.3.06-.24.11-.54.23-.75-.22.41-.01.12.03,0,.09-.24-.24.22-.05.05.21-.18-.3.15-.08.04.24-.12-.48.11-.06.03-.05.01-.49.03-.15.04-.19,0-.36-.04-.53-.14-.14-.08-.28-.22-.36-.35-.08-.1-.12-.21-.12-.33-.02-.17-.02-.16-.02.03v.07c-.02.15,0,.1.02-.16,0,0-.05.29-.06.33-.05.24-.09.48-.15.72-.12.57-.26,1.13-.4,1.7-.13.5-.27,1-.43,1.5-.04.12-.08.23-.11.35-.08.31.04-.1.07-.14l.18-.21,1.33-.39c.48.1.03.05-.04-.08.09.18.23.2.07.04-.01-.02-.29-.31-.3-.31.09-.02.21.32.06.06-.01-.02-.2-.38-.21-.38.04,0,.15.46.04.08,0-.03-.09-.4-.11-.42.03.02.02.5.02.11,0-.03.02-.41,0-.43.03.04-.11.48,0,.11.02-.09.05-.38.12-.41,0,0-.23.44-.03.08.06-.1.11-.21.18-.31l.04-.06c.13-.18.11-.16-.05.06,0-.07.2-.21.25-.26l.05-.05c.17-.14.14-.13-.07.05.02-.08.31-.19.37-.22l-2.74-.72c-.19-.4.02.07.04.14.04.13.06.27.1.41.07.26,0-.43,0,.05,0,.17,0,.33-.02.5-.08,1.05.98,2.05,2,2,1.15-.05,1.92-.88,2-2h0Z"/>
            <path class="cls-3" d="M72.8,135.99c.52-.93.63-1.91.42-2.94-.27-1.28-1.88-1.81-2.94-1.2-2.89,1.67-4.37,5.32-3.42,8.53.2.67.71,1.21,1.4,1.4.62.17,1.52.03,1.95-.51.91-1.16,1.61-2.37,2.09-3.78.42-1.23.78-2.8.35-4.07-.33-.97-1.04-1.72-2.04-2.01-1.06-.31-2.17.09-2.99.77-.54.46-.89,1.1-1.17,1.74-.29.68-.59,1.37-.82,2.08-.26.79-.43,1.64-.45,2.47-.03,1,.21,1.91.63,2.8.19.41.76.82,1.2.92.54.12,1.05.06,1.54-.2.94-.51,1.35-1.42,1.69-2.38.27-.76.54-1.52.82-2.29.55-1.55,1.11-3.1,1.66-4.65.34-.94-.3-2-1.16-2.36s-2.05-.08-2.5.82c-.68,1.37-.76,2.94-.19,4.37.54,1.33,1.42,2.41,2.38,3.46.57.63,1.71.77,2.42.31s1.22-1.4.92-2.26c-.67-1.92-1.34-3.84-2.02-5.75l-3.66,1.54c.57.92,1.13,1.84,1.7,2.76l.83,1.35.44.71.17.28.13.21c.16.28.12.07-.14-.64l.27-1.01-.04.09.72-.72-.05.03,1.54-.2.37.15.72.72-.03-.05.27,1.01v-.05c-.33.58-.66,1.15-.99,1.73l.04-.03c.88-.56,1.32-1.8.72-2.74-.57-.88-1.79-1.32-2.74-.72s-1.32,1.8-.76,2.81c.51.92,1.68,1.32,2.64.92s1.41-1.32,1.28-2.31c-.08-.62-.44-1.13-.76-1.65-.96-1.56-1.92-3.12-2.88-4.68-.52-.85-1.57-1.21-2.5-.82-.86.36-1.49,1.42-1.16,2.36.68,1.91,1.36,3.83,2.02,5.75l3.34-1.95c-.31-.34-.61-.69-.91-1.05-.18-.21.27.39,0,0-.05-.08-.11-.16-.16-.24-.13-.2-.25-.41-.36-.63-.14-.27.05,0,.03.09.01-.05-.09-.27-.11-.33-.03-.11-.06-.23-.08-.34-.07-.3.05.04.01.12.03-.05-.01-.28-.01-.35,0-.05,0-.09,0-.14.01-.16,0-.09-.03.19.04-.06.05-.2.06-.27.08-.43-.19.36,0-.03l-3.66-1.54c-.5,1.39-1,2.79-1.49,4.18-.24.68-.49,1.37-.73,2.05-.12.33-.24.65-.35.98-.13.38.19-.37,0-.04-.11.18-.08.14.11-.12.27-.18.31-.22.13-.11l2.74.72c.21.46.03.06,0-.06-.02-.05-.13-.36-.09-.41.04.3.04.34.02.11v-.14c-.01-.17,0-.33,0-.5,0-.07.01-.14.02-.22-.04.27-.04.32-.02.17.03-.14.06-.29.09-.43.07-.29.16-.58.25-.86.1-.31.23-.61.34-.91.15-.39-.15.34.03-.07.05-.12.11-.25.16-.37s.13-.24.19-.36l.07-.11c-.19.22-.21.25-.07.09.29-.26-.37.19,0,0l-.25.11c.22-.05.16-.05-.17.02-.28,0-.59-.13-.79-.33-.18-.27-.24-.33-.16-.2.08.13.05.05-.09-.24.02.05.03.1.04.16.03.16.02.07-.03-.26,0,.11.01.23,0,.34,0,.15-.09.48.02-.06-.03.14-.04.28-.07.42-.05.28-.12.55-.19.82s-.17.54-.27.8c-.03.09-.07.18-.1.26l.09-.22c0,.11-.13.28-.18.38-.14.27-.29.54-.45.8-.07.12-.15.24-.23.35-.07.09-.4.53-.06.1l3.34.88c-.04-.15-.09-.3-.12-.45-.02-.08-.03-.15-.04-.23l.04.3c.05-.24-.04-.56-.02-.82,0-.08,0-.16.02-.23.02-.22.01-.16-.03.18.04-.1.04-.24.06-.35.06-.29.16-.56.25-.84.06-.14.03-.07-.09.21.03-.07.07-.14.1-.21.06-.12.13-.24.2-.36s.14-.23.22-.35c.04-.06.09-.13.14-.19-.18.23-.23.29-.13.18.19-.2.37-.4.57-.58.37-.32-.32.19,0-.01.13-.08.26-.17.4-.25l-2.94-1.2c-.03-.32-.03-.36-.02-.14,0,.22,0,.18.04-.14-.02.09-.04.17-.07.26.12-.27.13-.31.03-.12-.52.91-.25,2.23.72,2.74s2.19.25,2.74-.72h0Z"/>
            <path class="cls-3" d="M47.14,126.44l-.16-.12.72.72c.11.14.07.53,0,.69-.51.32-.65.45-.43.38l.05-.02c.11.09.71.17.86.22.3.09.59.19.88.29,1.11.39,2.17.88,3.15,1.52,1.66,1.08,2.99,2.81,3,4.86l3.01-1.73c-2.02-1.06-3.98-2.24-5.86-3.53-.84-.58-1.68-1.18-2.48-1.81-.47-.37-.93-.75-1.39-1.13-.23-.19-.78-.59-.8-.74v1.06l.05-.25-2.46,1.4c5.39,1.94,11.29,5.05,12.99,10.97l3.34-1.95c-1.97-2.04-4.23-3.82-6.7-5.22-1.27-.72-2.6-1.33-3.95-1.85s-3.03-.82-4.41-.02-2.08,2.3-1.67,3.8,1.84,2.4,3.22,2.96c2.88,1.17,6.05,1.76,9.16,1.61,2.56-.12,2.59-4,0-4-5.35,0-10.77.07-15.96,1.54-1.77.5-2.04,3.52,0,3.86,4.29.7,8.54.08,12.41-1.92,1.85-.95.87-3.65-1.01-3.73-3.28-.13-6.56.21-9.74.99-1.02.25-1.72,1.45-1.4,2.46.82,2.59,4.15,2.66,6.42,2.75,2.5.09,5.03-.27,7.42-1.01,1.34-.41,1.72-1.75,1.2-2.94s-1.62-1.97-2.64-2.77c-.86-.67-1.67-1.4-2.44-2.17-1.63-1.65-2.98-3.49-4.09-5.52l-2.74,2.74c1.11.79,1.83,2.05,2.85,2.93,1.22,1.05,2.65,1.8,4.3,1.75s2.39-1.64,1.73-3.01c-1.07-2.19-2.95-3.73-5.21-4.59l-1.06,3.86c2.95,1.02,5.49,2.83,7.52,5.19l2.42-3.14c-1.71-1.1-4.05-.03-4.64,1.85s.68,3.74,2.31,4.66c.77.44,1.79.32,2.42-.31.58-.58.84-1.72.31-2.42s-.99-1.19-1.73-1.61c-1.83-1.02-3.58.98-2.74,2.74.94,1.96,3.6,5.49,5.98,3.2,1.05-1.01.97-2.73,0-3.76-.83-.88-2.2-1.15-3.31-1.52-2.45-.82-3.5,3.04-1.06,3.86.35.12.71.24,1.06.35,1.09.36-.23.02.09-1.03l.51-.88.05-.06,1.01-.27c.45.02.56.26.17-.2-.12-.15-.21-.25-.32-.42-.28-.41-.52-.84-.73-1.29l-2.74,2.74c-.2-.11.28.14.3.17l2.74-2.74c-.08-.05-.44-.31-.48-.29-.05.03-.06.38-.09.43-.21.36-.78.49-1.14.26.83.53,2.01.25,2.58-.52.62-.83.51-1.85-.16-2.63-2.48-2.88-5.7-4.98-9.29-6.21-1.02-.35-2.19.4-2.46,1.4-.31,1.13.38,2.07,1.4,2.46,1.3.49,2.22,1.53,2.82,2.75l1.73-3.01c-.97.03-1.67-.71-2.29-1.39-.91-1-1.74-1.95-2.84-2.74-1.72-1.22-3.63,1.11-2.74,2.74,1.17,2.13,2.62,4.12,4.3,5.89.8.84,1.65,1.63,2.55,2.36.81.66,1.89,1.22,2.33,2.21l1.2-2.94c-1.63.5-3.28.82-4.99.87-.85.03-1.7,0-2.55-.08-.39-.04-.77-.09-1.16-.16-.83-.16-.44-.27-.22.43l-1.4,2.46c2.86-.7,5.74-.96,8.68-.84l-1.01-3.73c-2.84,1.47-6.16,2.03-9.33,1.51v3.86c4.85-1.38,9.89-1.39,14.9-1.4v-4c-2.17.1-4.26-.19-6.33-.84-.49-.15-.98-.31-1.45-.5-.11-.05-.72-.41-.75-.39.04-.03-.13.96-.17.82,0,.03.48.12.61.17,3.64,1.12,6.99,3.59,9.61,6.3,1.39,1.44,3.89-.04,3.34-1.95-2.11-7.38-9.02-11.33-15.78-13.77-.95-.34-2.28.39-2.46,1.4-.33,1.79.62,2.84,1.91,3.92,1.09.91,2.21,1.78,3.36,2.61,2.24,1.63,4.61,3.09,7.06,4.38,1.32.7,3.02-.16,3.01-1.73-.02-4.35-3.23-7.72-7.02-9.41-1.85-.82-4.25-1.96-6.28-1.2-1.07.4-1.84,1.3-2.08,2.42-.28,1.31.28,2.33,1.3,3.11.86.66,2.24.13,2.74-.72.6-1.03.14-2.07-.72-2.74h0Z"/>
            <path class="cls-2" d="M68.86,42.79c-2.26,2.03-3.82,5.35-3.52,8.43.11,1.11.58,2.14,1.57,2.72.85.5,1.91.52,2.83.22,1.47-.49,2.62-1.61,3.56-2.79,1.01-1.27,1.87-2.72,2.13-4.35.28-1.73.02-3.71-1.24-5.02-1.51-1.58-3.91-1.37-5.46.02-.6.54-1.06,1.25-1.42,1.98-.41.83-.81,1.69-1.08,2.57-.49,1.63-.45,3.52.5,4.98,1.04,1.61,2.85,2.24,4.7,2.28s3.55-.39,4.99-1.56c1.26-1.02,2.2-2.48,2.78-3.98.64-1.64.59-3.62-.44-5.09-.89-1.28-2.28-2.2-3.81-2.49-3.38-.64-6.76,1.41-8.64,4.13-.94,1.37-1.34,3.19-.8,4.8.49,1.44,1.58,2.72,2.96,3.39s3.05.92,4.57.39,2.82-1.59,3.72-2.96c.82-1.24,1.32-2.88,1.19-4.36-.14-1.69-1.09-3.18-2.59-3.99-1.32-.71-2.89-.93-4.34-.55-1.59.42-2.88,1.49-3.86,2.78s-1.72,2.96-1.82,4.61c-.12,1.96.98,3.49,2.49,4.59,1.41,1.03,3.29,1.67,5,1.01,1.44-.56,2.47-1.74,3.1-3.13,1.38-3.05,2.33-6.92.02-9.77-2.18-2.7-6.04-2.09-8.43-.07s-3.04,5.47-2.35,8.36,3.44,6.28,6.8,5.38c1.94-.52,2.84-2.41,3.28-4.2s.48-3.59.16-5.39c-.27-1.48-1.08-3.04-2.47-3.75-1.79-.9-3.82-.21-5.09,1.24-.52.6-.91,1.27-1.29,1.96-.16.29-.34.57-.51.85-.26.43.27-.23-.09.11-.12.11-.23.23-.36.34-.79.69-.76,2.13,0,2.83.85.78,1.98.73,2.83,0,.9-.78,1.4-1.84,1.99-2.85.11-.19.23-.38.36-.56-.24.32,0,.02.07-.05.1-.1.2-.2.31-.29-.07.05-.3.21,0,.02.36-.21,0,.01-.04,0l.15-.05c-.25.02-.29.02-.14.01.26.03-.34-.12,0-.01.43.13-.29-.16-.05-.02.22.13-.3-.35-.03-.03.04.05.17.14.18.2-.03-.18-.17-.27-.07-.06.05.11.11.21.17.32.14.25-.13-.45,0,0,.06.23.14.46.19.7.02.11.04.22.06.33-.05-.36,0,.07.01.16.03.3.04.59.04.89,0,.26,0,.53-.03.79,0-.04-.06.61-.03.32.02-.18-.06.35-.08.42-.06.29-.13.58-.21.87-.04.13-.08.25-.12.38.01-.03-.2.56-.08.26.09-.24-.04.08-.07.14-.06.12-.13.24-.21.35.04-.06.24-.31,0-.03.17-.12.2-.14.09-.07-.13.07-.08.06.15-.04,0,0-.25.09-.27.07.11.08.41-.05.04-.05-.25,0,.43.16.03-.02-.09-.04-.2-.06-.29-.1.46.16-.15-.13-.27-.2-.25-.14.3.32-.03-.03-.09-.09-.19-.18-.28-.28-.08-.08-.29-.37-.03-.01-.06-.08-.12-.17-.18-.26-.13-.2-.25-.4-.36-.61-.06-.12-.12-.24-.17-.35.03.07.14.39.03.04-.08-.25-.16-.5-.22-.75-.03-.13-.06-.26-.08-.39-.01-.07-.04-.4-.02-.12.02.33,0-.19,0-.21,0-.1,0-.21-.01-.32,0-.24,0-.47.03-.71.02-.17-.06-.41,0-.01-.02-.13.06-.34.09-.46.05-.2.11-.4.17-.6,0-.01.19-.49.07-.2s.09-.17.1-.19c.1-.19.2-.37.32-.54.06-.09.12-.17.18-.26-.27.39-.01.03.07-.06.17-.18.35-.35.54-.5-.34.27.06-.02.21-.11.11-.06.22-.12.33-.18.2-.1.22-.24,0,0,.12-.13.54-.16.7-.2.28-.08-.05-.05-.11,0,.03-.02.23-.02.28-.02.11,0,.25.03.35,0,.24-.05-.45-.13-.05,0,.09.03.18.05.27.07.39.08-.09-.05-.09-.05.07,0,.25.13.31.17.06.04.12.08.18.12-.17-.13-.2-.15-.09-.05.08.1.19.19.27.29-.06-.07-.19-.32-.03-.01.05.09.11.19.16.28.18.32.02.04,0-.03.09.26.15.52.22.79-.02-.07-.03-.43,0-.04.01.17.02.35.02.52,0,.13-.01.26-.02.39-.01.6.06-.19-.01.15-.06.29-.11.58-.18.87-.15.58-.33,1.15-.53,1.72-.04.12-.09.23-.13.35-.1.27.06.01.03-.06.03.1-.25.53-.29.61-.1.2-.22.38-.34.57-.22.33.05-.05.05-.06,0,.07-.24.26-.29.31-.27.3.09-.07.09-.05-.02.08-.24.12-.29.18-.13.15.41-.09.04-.02-.09.02-.18.05-.27.07.51-.08,0-.02,0-.04l.18.04c-.09-.01-.17-.03-.26-.06-.14-.04-.28-.08-.42-.13.33.13-.07-.05-.17-.11-.2-.11-.4-.24-.59-.38-.31-.21-.04-.03.02.02-.1-.09-.2-.18-.3-.27s-.19-.19-.27-.3c.06.07.19.32.03.02-.05-.09-.11-.18-.15-.28.23.5-.02-.26.04.16-.02-.16,0-.32,0-.47-.03-.29-.12.38.02-.13.07-.25.13-.5.22-.74.04-.11.08-.22.12-.33-.16.41-.02.06.03-.04.13-.27.27-.53.43-.78.11-.18.23-.36.37-.53-.26.34-.03.05.04-.03.09-.1.18-.2.27-.29.11-.11.54-.45.2-.2.22-.15.44-.28.67-.42.41-.25-.25.06.03-.02.12-.03.24-.08.36-.11.03,0,.26-.07.27-.06.02.04-.45.02-.12.02.08,0,.64-.06.69.02.01.02-.52-.12-.12,0,.13.04.27.07.4.11.38.09-.1-.05-.09-.05.04,0,.2.09.24.12.09.05.19.15.29.17.22.07-.32-.32-.03-.03.06.06.13.13.19.18.3.26-.1-.1-.06-.1.04,0,.15.24.18.28.25.37-.05-.15,0,0,.03.09.1.4.04.02.02.12.02.25.02.37,0,.12-.01.24-.02.37.02-.37,0-.05-.01.06-.04.22-.1.44-.17.66-.03.1-.07.19-.1.29.15-.46,0-.02-.05.08-.11.2-.22.4-.35.59-.07.1-.3.35,0,.02-.07.08-.13.15-.2.23-.15.17-.33.31-.49.47-.2.19.29-.18.05-.04-.13.08-.25.17-.38.24-.08.05-.24.17-.33.17.03,0,.44-.15.06-.03-.22.07-.43.12-.65.17-.28.07.47.02.01-.01-.09,0-.2,0-.29,0-.4,0,.07.03.09.02-.11.03-.32-.07-.43-.1-.02,0-.49-.14-.18-.05.26.08-.03-.02-.1-.05-.04-.02-.58-.29-.57-.35,0-.02.28.26.06.04-.09-.09-.18-.17-.26-.26-.12-.13-.33-.2-.01.01-.1-.07-.18-.27-.23-.37-.04-.06-.12-.19-.13-.26.04.36.08.22.05.08-.02-.11-.04-.25-.08-.35-.09-.24,0,.36.02.1.01-.12,0-.25,0-.37,0,.09-.09.4,0,.04.03-.1.06-.21.09-.32.1-.42-.15.21.05-.13.14-.24.28-.48.44-.71-.24.33.13-.14.23-.24.19-.21.4-.4.61-.59.09-.08.18-.15.27-.23.32-.27-.23.13.16-.11.2-.13.39-.26.59-.38.13-.07.26-.14.39-.21.09-.05.45-.2.08-.05.21-.09.43-.16.66-.22.14-.04.28-.06.42-.1.15-.03.11-.02-.1,0,.09,0,.17-.02.26-.02.18,0,.55-.06.71.01-.03-.02-.47-.1-.09,0,.1.03.2.05.29.07.12.03.24.08.36.12.27.09-.39-.24,0,.01.08.05.18.1.26.15.12.08.38.35.08.04.07.07.15.13.22.2.02.02.35.36.13.13-.25-.27.28.4.23.41-.04,0-.14-.47-.04-.07.03.11.06.21.08.32-.08-.39-.01-.02-.01.1,0,.09,0,.18,0,.27.03-.2.04-.23.01-.08-.07.27-.13.53-.22.8-.13.37-.05.11-.02.04-.07.14-.14.28-.21.42-.14.24-.28.48-.44.71-.06.09-.13.18-.2.27.24-.36-.07.08-.11.13-.17.19-.34.37-.53.54-.08.07-.38.29-.05.06-.09.06-.18.13-.28.19s-.19.11-.29.16c-.41.24.2-.01-.1.04-.15.03-.32.08-.47.13-.4.12.22,0-.23.04-.5.04-.98,0-1.48.02-.31,0,.46.11-.04,0-.11-.02-.21-.04-.32-.07s-.2-.06-.31-.09c.43.13.02-.01-.1-.07-.39-.19.1.17-.04-.03-.07-.09-.26-.37-.05-.02-.06-.09-.11-.18-.16-.27-.08-.14-.04-.27.01.04-.02-.09-.06-.22-.09-.31-.16-.46-.01.26-.02-.03,0-.14-.02-.27-.01-.41,0-.09.06-.55,0-.17.04-.25.1-.5.18-.74.05-.15.1-.3.15-.45.03-.08.18-.47.05-.15.21-.5.45-1.01.72-1.49.07-.13.16-.25.23-.38.13-.25-.3.26.06-.08.09-.08.16-.16.25-.24-.36.33,0,.04,0,.03l.15-.08c-.2.08-.23.1-.09.06.25-.08-.43-.05.03,0-.1-.01-.39-.11-.06.02-.1,0-.19-.05-.26-.12-.11-.09-.1-.07.04.06,0,.01-.26-.41-.03,0,.18.32.04.05,0-.03.1.26.16.52.22.79-.09-.43,0,.08,0,.27,0,.13-.02.27-.02.4-.02.15,0,.11.02-.13-.01.08-.03.16-.05.24-.05.24-.13.47-.2.71-.11.35-.01.06.02-.01-.04.1-.09.2-.14.31-.25.51-.56,1-.91,1.46.22-.29.04-.05-.01,0-.1.11-.19.22-.28.33-.17.19-.35.38-.53.56-.16.15-.32.3-.48.44.33-.3.09-.07-.02,0-.13.08-.27.15-.4.23-.24.14.43-.1,0,0-.32.07.12.01.12,0,0,.06-.24-.03-.26,0,.08-.13.56.15.63.21.16.13.23.25.31.44-.05-.12-.01-.33-.01.06,0-.28-.01-.56,0-.84,0-.11.02-.23.03-.34-.03.43,0,.05.01-.06.04-.25.1-.51.17-.75s.14-.49.23-.74c.04-.1.19-.45.02-.08.07-.16.14-.31.22-.47.22-.44.49-.84.77-1.24.19-.27-.31.33.06-.07.08-.08.15-.17.23-.26.19-.21.4-.41.61-.6.78-.7.77-2.12,0-2.83-.83-.77-2-.75-2.83,0h0Z"/>
            <path class="cls-2" d="M70.42,45.6c-.63.65-1.08,1.43-1.34,2.3s-.25,1.8-.08,2.7c.12.6.62,1.07,1.16,1.3.24.13.5.18.77.17.36,0,.7-.09,1.01-.27.82-.36,1.44-1.02,1.96-1.72.26-.36.43-.76.59-1.17.11-.27.19-.55.23-.84.19-1.26.18-2.93-1.16-3.57-.7-.34-1.42-.43-2.18-.24-.57.14-1.1.47-1.52.87-.93.89-1.12,2.16-1.24,3.38-.04.48.25,1.08.59,1.41s.92.61,1.41.59,1.05-.19,1.41-.59l.31-.4c.18-.31.27-.65.27-1.01.02-.17.03-.33.05-.5l-.07.53c.04-.31.1-.61.22-.9l-.2.48c.06-.15.14-.29.24-.41l-.31.4c.08-.09.16-.18.25-.25l-.4.31c.1-.07.2-.13.31-.18l-.48.2c.11-.05.22-.08.34-.1l-.53.07c.1-.01.19-.01.29,0l-.53-.07c.08.01.15.03.23.06l-.48-.2c.06.03.12.06.17.1l-.92-1.2c.04.13.06.27.08.4l-.07-.53c.03.27.03.54,0,.82l.07-.53c-.04.29-.12.57-.23.84l.2-.48c-.12.27-.26.52-.44.75l.31-.4c-.17.22-.36.41-.58.58l.4-.31c-.19.15-.4.27-.62.36l2.94,1.2c-.01-.08-.03-.15-.04-.23l.07.53c-.04-.29-.03-.58,0-.87l-.07.53c.04-.31.12-.61.24-.89l-.2.48c.11-.27.26-.52.43-.75l-.31.4c.08-.11.17-.21.27-.31.36-.37.59-.89.59-1.41,0-.49-.22-1.08-.59-1.41s-.88-.61-1.41-.59-1.04.2-1.41.59h0Z"/>
            <path class="cls-2" d="M91.03,43.33c-.49-1.33-1.62-2.18-3.06-2.19-1.3-.01-2.52.73-3.11,1.88-1.15,2.22-.18,4.91,1.39,6.64,1.45,1.6,3.82,2.64,5.98,2.17,1.33-.29,2.45-1.35,2.75-2.69s-.05-2.52-.59-3.68c-.88-1.85-2.46-3.47-4.26-4.44-1.01-.55-2.11-.87-3.26-.72-1.43.19-2.58,1.24-2.83,2.68-.43,2.44.9,4.96,2.61,6.62s4.42,2.53,6.69,1.27c2.38-1.32,2.7-4.35,1.62-6.62-.47-1-1.24-1.86-2.05-2.61-1-.92-2.13-1.72-3.52-1.81s-2.66.67-3.29,1.85c-.56,1.07-.62,2.27-.43,3.44.32,1.98,1.56,4.02,3.35,4.99,1.15.62,2.59.9,3.84.42s2.19-1.56,2.46-2.88c.51-2.58-1.14-4.76-3.13-6.2-1.06-.77-2.38-1.1-3.67-.81-1.49.34-2.6,1.65-2.68,3.17-.07,1.4.74,2.62,1.65,3.6.84.9,1.84,1.69,3.03,2.05s2.69.24,3.73-.53c1.1-.82,1.71-2.04,1.73-3.41.03-2.42-1.83-4.34-3.73-5.6-1.21-.8-2.72-1.15-4.08-.5-1.24.59-1.87,1.94-1.85,3.28.02.95.28,1.91.58,2.8.33.95.73,1.84,1.35,2.63.66.86,1.56,1.51,2.63,1.77s2.21-.32,2.46-1.4-.31-2.2-1.4-2.46c-.07-.02-.14-.04-.22-.06-.19-.04-.11-.16.17.08-.08-.07-.23-.13-.33-.18-.37-.22.24.25.03.02-.05-.05-.1-.1-.15-.15-.06-.06-.24-.32-.06-.05.2.3-.06-.09-.1-.16-.08-.13-.16-.26-.23-.4-.06-.12-.12-.24-.18-.37-.11-.23.15.39.06.15-.03-.09-.07-.18-.11-.28-.2-.54-.37-1.11-.49-1.68,0-.04-.02-.19-.04-.23.02.04.04.51.03.18,0-.13,0-.27,0-.4-.01-.25-.13.42-.03.2.02-.04.03-.11.04-.16.05-.29-.06.14-.08.18.17-.32-.24.26-.09.11.17-.18-.35.23-.12.1.19-.11-.21.09-.2.09-.49.14-.33,0-.18.02.37.04-.16-.04-.16-.03,0-.01.59.21.26.06-.27-.13,0,0,.07.04.1.05.2.11.3.17.08.05.15.1.23.15.05.03.22.18.01,0-.23-.19,0,0,.06.05.07.06.14.12.21.18.28.24.56.48.81.75.05.05.09.1.14.15.25.27-.03-.07-.05-.09.11.08.19.28.26.39.05.08.08.16.13.24.14.23-.12-.37-.05-.13.04.15.09.3.12.46.07.25-.02-.44-.03-.18,0,.08,0,.16,0,.24,0,.44.11-.34.02,0-.02.07-.04.15-.06.22-.05.2-.14.08.07-.16-.03.03-.06.11-.08.15-.09.2.32-.31.07-.09-.21.19.12-.09.13-.08,0,0-.23.15-.22.13.01-.02.39-.12.19-.08-.08.02-.17.04-.24.07-.19.07.2-.03.22-.03-.03-.01-.2,0-.26,0-.36.03.12-.02.15.04-.02-.03-.28-.06-.32-.07s-.15-.06-.18-.06c.17-.03.33.17.1.04-.17-.09-.33-.19-.49-.29-.04-.03-.24-.17-.03-.01.22.17-.02-.02-.07-.07-.16-.14-.32-.29-.47-.44-.12-.12-.23-.24-.34-.36-.01-.02-.12-.16-.14-.16.07-.01.22.31.05.06-.03-.05-.26-.48-.29-.49.03,0,.11.37.07.16-.06-.31-.03-.12-.03.08,0-.34-.04.09-.05.14.04-.15.13-.27-.07.12.03-.06.15-.22-.03.02-.23.3.2-.07-.13.12-.29.17-.03.02.03,0,.21-.06-.25.09-.22.09.04,0,.17-.05.22-.06.33-.11-.36,0-.13.02.48.04-.39-.13,0-.01,0,0,.26.06.27.08,0,.01-.44-.24-.09-.03.14.09.28.18.42.26.24.14-.27-.23-.06-.05.09.08.18.15.27.23.24.21.46.43.67.67,0,0,.18.18.18.2,0-.07-.22-.33-.07-.09.1.15.2.29.28.45,0-.01.13.22.12.24-.04.06-.13-.43-.06-.11.02.1.12.57.07.21s-.02.1-.02.19c0,.33.01-.15.03-.19-.04.07-.05.2-.07.28-.12.44.17-.28,0-.01s.1-.12.13-.13c-.03.01-.12.13-.15.16-.09.1-.29.17.15-.11-.07.04-.21.09.03,0,.3-.1-.01-.02-.08.01-.21.08.4,0,.03-.01-.21,0-.16-.09.1.04-.05-.03-.14-.03-.2-.04-.08-.02-.59-.21-.27-.06s-.11-.06-.19-.11c-.07-.04-.13-.08-.2-.13-.3-.18.25.23.07.06-.1-.1-.21-.18-.31-.29-.12-.13-.37-.52-.08-.06-.18-.28-.37-.54-.52-.84-.03-.06-.05-.11-.08-.17-.12-.23.14.38.05.14-.05-.14-.1-.27-.15-.41-.05-.16-.09-.31-.13-.47-.01-.06-.02-.12-.04-.17-.07-.34.03.03.01.15.02-.13-.02-.31-.02-.45,0-.09.05-.56,0-.18s.02-.07.05-.17c.01-.05.06-.15.07-.2,0,.16-.24.38-.04.15.14-.16-.2.21-.17.2,0,0,.13-.13.14-.15-.07.17-.37.25-.16.13.11-.07.29-.11-.16.06.06-.02.29-.07-.01-.01l-.14.02c.17,0,.17,0,0-.02l-.14-.02c.06.01.13.03.19.05.04.01.09.02.13.04.14.05.09.03-.16-.07.04.07.36.2.42.24s.29.24.09.05-.02-.02.02.02c.29.24.56.5.83.76.13.13.26.27.39.41.03.03.16.21.18.22,0,0-.22-.31-.1-.13.09.14.19.27.27.41.05.08.1.16.14.24.03.06.2.43.08.14s.05.18.07.25c.02.08.04.17.06.25.07.28-.11-.06-.02-.15-.04.05.01.36.01.44s-.03.37,0,.05c.04-.35-.02.05-.03.1-.02.06-.08.18-.07.24,0-.02.19-.36.08-.2-.04.07-.09.14-.12.21-.08.18.11-.14.13-.16-.04.02-.13.14-.17.18-.22.26.07-.1.12-.08,0,0-.22.13-.2.13-.22.14.06-.04.15-.05-.15.02-.32.1-.47.13-.2.05-.16-.08.17-.02-.05,0-.13,0-.18,0-.07,0-.65-.04-.29,0,.33.03-.16-.05-.27-.09-.46-.15.31.18-.12-.05-.14-.07-.27-.15-.4-.23-.06-.04-.16-.13-.22-.15,0,0,.3.25.14.11-.15-.14-.3-.26-.44-.4-.11-.11-.21-.23-.32-.34-.06-.07-.11-.14-.17-.2-.18-.2.23.32.07.09-.22-.31-.43-.62-.62-.96-.07-.12-.21-.31-.22-.45,0,.03.16.44.04.08-.03-.09-.06-.18-.09-.27-.05-.16-.07-.32-.12-.48-.06-.21.02.16.02.18.01-.12-.03-.3-.03-.42,0-.07,0-.14,0-.2-.02-.26-.11.37-.02.13.01-.03.06-.16.06-.19.02.14-.17.35-.26.45.22-.22-.14.09-.17.11.2-.13.03.08-.2.07.04,0,.11-.03.15-.04.23-.05-.5,0-.16.02.07,0,.15,0,.22,0,.18,0,.2.12-.19-.03.12.05.27.06.39.1.07.02.15.05.22.08.2.06-.22-.1-.22-.09.14.11.35.18.5.26.27.16.53.41.82.54,0,0-.31-.25-.15-.11.07.06.13.11.2.17.15.13.29.26.43.4.22.21.42.44.61.68.24.29-.07-.1-.07-.1.01,0,.16.22.15.21.1.14.19.29.28.44s.17.3.25.46c.04.09.24.52.12.23-.13-.32.05.15.07.22s.05.16.07.24c.01.05.08.46.03.1s-.01.13,0,.22c0,.33,0-.14.03-.18,0-.01-.07.21-.06.22,0,0,.19-.49.06-.17-.02.04-.15.26.02-.01.2-.34-.2.14.1-.11.13-.09.15-.11.06-.06-.13.07-.06.05.21-.07-.04,0-.58.12-.2.08.36-.04-.14,0-.22,0-.02,0-.21-.03-.25-.02.2-.09.41.08.17.02-.16-.04-.32-.07-.48-.12-.08-.02-.15-.05-.23-.08-.33-.1.12.03.14.06-.05-.08-.29-.14-.38-.19-.14-.08-.28-.17-.42-.26-.05-.03-.1-.08-.15-.11.39.2.2.16.07.04-.12-.11-.24-.22-.36-.34-.05-.05-.23-.32-.29-.32.03,0,.28.41.09.11-.05-.07-.09-.13-.14-.2-.09-.14-.17-.28-.25-.42-.03-.06-.07-.17-.11-.22.02.03.17.46.06.14-.05-.14-.09-.27-.13-.41-.02-.09-.04-.38-.1-.43.13.1.03.43.03.15,0-.11,0-.21,0-.32,0-.06.02-.13,0-.19.06.35-.08.35-.01.16.01-.05.07-.21.07-.24.02.12-.26.35-.05.14.03-.03.18-.24-.02,0s-.01.04.04-.02c.11-.14-.23.18-.22.17.28-.17-.46.11-.13.05.04,0,.1-.02.14-.03.22-.09-.49.05-.25.04.4-.02-.41-.13-.12-.03s-.22-.11-.22-.11c.16.09.09.12-.18-.17.06.06.14.16-.04-.08-.26-.36.08.37-.19-.37.36.98,1.37,1.75,2.46,1.4.96-.31,1.78-1.41,1.4-2.46h0Z"/>
            <path class="cls-10" d="M92.87,45.75c.31-.02.52-.05.8-.21.24-.14.3-.22.45-.4.22-.29.34-.61.34-.98,0-.58-.33-1.2-.85-1.47-.38-.2-.82-.29-1.23-.16-.3.09-.56.24-.79.47-.37.37-.52.89-.54,1.39-.02.59.16,1.17.42,1.69s.71.95,1.2,1.28c.23.14.49.2.76.2.21,0,.4-.04.58-.13.19-.06.35-.16.48-.31.19-.19.31-.41.39-.66.13-.33.18-.7.21-1.06s-.03-.72-.1-1.06c-.02-.11-.06-.22-.1-.33-.08-.22-.17-.44-.29-.65-.17-.31-.39-.6-.65-.84l-.3-.23c-.17-.11-.36-.17-.56-.18-.13-.04-.27-.04-.4,0-.2,0-.39.07-.56.18-.22.14-.4.32-.54.54-.11.17-.17.36-.18.56-.04.2-.04.4.03.6.08.48.16.97.24,1.45.05.2.14.37.27.51.11.16.25.29.42.39.32.19.8.27,1.16.15s.71-.34.9-.69l.15-.36c.07-.27.07-.53,0-.8-.08-.48-.16-.97-.24-1.45l-2.51,1.46c.09.08.17.17.24.26l-.23-.3c.11.15.21.32.28.5l-.15-.36c.08.19.13.38.16.59l-.05-.4c.03.2.03.4,0,.61l.05-.4c-.03.18-.07.35-.14.52l2.2-.9s-.08-.06-.12-.09l.3.23c-.13-.1-.24-.21-.34-.34l.23.3c-.11-.14-.19-.29-.26-.45l.15.36c-.07-.16-.11-.33-.14-.5l.05.4c-.02-.13-.03-.26,0-.39l-.05.4c0-.05.02-.11.04-.16l-.15.36s.03-.05.05-.08l-.23.3s.03-.03.04-.04l-.3.23s.03-.02.05-.03l-.36.15s.03-.01.05-.01l-.4.05h.02c-.13-.02-.27-.04-.4-.05.01,0,.03,0,.04.01l-.36-.15s.02.01.03.02l-.3-.23s.02.02.03.03l-.23-.3s.02.04.03.06l-.15-.36s0,.03.01.04l-.05-.4s0,.04,0,.06l.05-.4v.02c.05-.12.1-.24.15-.36,0,.01,0,.02-.02.03l.23-.3h-.01c.1-.07.2-.15.3-.22h-.01c.12-.04.24-.09.36-.14h-.02c.13-.01.27-.03.4-.05h-.02c-.4.03-.77.15-1.06.44-.26.26-.46.69-.44,1.06s.14.79.44,1.06.66.47,1.06.44h0Z"/>
            <path class="cls-10" d="M72.34,44.37c-.19.25-.32.52-.44.81s-.23.57-.28.88c-.13.83-.14,1.7.25,2.48.36.72,1.26,1.14,2.03.9.56-.17,1.03-.57,1.3-1.09.15-.28.27-.59.33-.91.03-.22.07-.44.07-.67,0-.24-.04-.47-.08-.71-.05-.34-.19-.68-.35-.98-.11-.2-.26-.38-.4-.56-.08-.1-.17-.19-.27-.28-.3-.25-.65-.46-1.06-.44l-.4.05c-.25.07-.47.2-.66.39-.29.23-.48.56-.62.89s-.24.72-.22,1.11c.02.46.12.83.33,1.24s.52.68.87.93c.3.21.81.25,1.16.15s.73-.36.9-.69c.18-.35.28-.77.15-1.16l-.15-.36c-.13-.23-.31-.4-.54-.54-.02-.01-.04-.03-.06-.04l.3.23c-.06-.05-.12-.11-.17-.17l.23.3c-.05-.07-.1-.15-.14-.24l.15.36c-.04-.1-.07-.2-.08-.3l.05.4c-.01-.12-.02-.23,0-.35l-.05.4c.02-.1.04-.2.08-.3l-.15.36c.04-.09.08-.16.14-.24l-.23.3c.05-.06.11-.12.17-.17h-2.12c.1.08.19.17.27.28l-.23-.3c.09.12.17.26.23.4l-.15-.36c.07.17.12.34.14.52l-.05-.4c.02.17.02.33,0,.5l.05-.4c-.02.17-.07.33-.13.48l.15-.36c-.05.11-.11.22-.18.31l.23-.3s-.08.09-.13.13l.3-.23s-.05.03-.08.04l.36-.15s-.05.02-.08.02l.4-.05s-.06,0-.08,0l.4.05h-.04c.12.04.24.09.36.14-.02,0-.04-.02-.06-.03l.3.23s-.05-.05-.07-.08l.23.3s-.04-.06-.05-.1l.15.36c-.06-.15-.09-.3-.11-.46l.05.4c-.03-.26-.03-.52,0-.77l-.05.4c.04-.27.11-.54.21-.79l-.15.36c.1-.22.22-.43.37-.63.22-.29.24-.82.15-1.16-.1-.35-.36-.73-.69-.9-.35-.18-.77-.28-1.16-.15l-.36.15c-.23.13-.4.31-.54.54h0Z"/>
            <path class="cls-2" d="M92.18,46.42l.38-.97c.02-.09.02-.18,0-.27-.02-.08-.07-.16-.13-.22-.12-.12-.32-.19-.49-.13-.3.12-.57.28-.79.52s-.37.52-.45.83c-.03.13-.02.27.05.39.06.1.18.2.3.23.13.03.27.02.39-.05s.2-.17.23-.3c.02-.07.04-.13.07-.2l-.05.12c.05-.12.12-.23.19-.33l-.08.1c.08-.1.17-.19.27-.27l-.1.08c.1-.08.21-.14.32-.19l-.12.05s.03-.01.04-.02l-.62-.62-.38.97c-.04.11,0,.28.05.39s.18.2.3.23c.13.03.27.02.39-.05l.1-.08c.06-.06.1-.14.13-.22h0Z"/>
            <path class="cls-2" d="M71.67,48.58l.99-.83c.15-.13.17-.38.1-.55s-.26-.32-.46-.31c-.66.03-1.22.46-1.45,1.09-.07.19.03.41.18.53.07.06.15.09.24.1.1.01.23,0,.32-.06.32-.23.59-.49.83-.8s.42-.64.57-1.01l.02-.13c0-.07-.01-.13-.04-.19-.04-.09-.11-.2-.2-.24-.14-.06-.24-.09-.39-.11-.1-.01-.19,0-.29.02-.18.03-.34.12-.48.23s-.26.24-.33.4c-.1.23-.13.44-.09.69.03.16.19.31.35.35.35.09.7-.02.97-.25.23-.19.38-.52.36-.82-.01-.13-.05-.26-.15-.35-.09-.09-.22-.16-.35-.15-.44.04-.82.2-1.15.48-.29.25-.51.61-.59.98-.06.25.08.55.35.62.26.06.55-.08.62-.35.02-.08.04-.15.07-.22l-.05.12c.05-.11.11-.22.19-.32l-.08.1c.08-.1.16-.18.26-.26l-.1.08c.1-.08.2-.14.32-.19l-.12.05c.11-.05.23-.08.36-.1l-.13.02s.05,0,.07,0l-.5-.5s0,.07,0,.11l.02-.13s-.02.08-.03.12l.05-.12s-.04.09-.07.13l.08-.1s-.08.09-.12.12l.1-.08s-.08.06-.13.08l.12-.05s-.09.03-.14.04l.13-.02s-.08,0-.13,0l.13.02s-.04,0-.06-.01l.35.35s0-.03,0-.04l.02.13s0-.08,0-.12l-.02.13s.02-.09.04-.13l-.05.12s.05-.09.08-.14l-.08.1s.08-.09.13-.13l-.1.08s.1-.07.16-.09l-.12.05s.1-.04.15-.04l-.13.02c.05,0,.1,0,.16,0l-.13-.02s.08.02.12.03l-.12-.05h.02c-.08-.18-.15-.37-.23-.56,0,.02-.02.05-.03.07l.05-.12c-.12.27-.27.53-.45.76l.08-.1c-.18.23-.39.44-.63.63l.1-.08s-.04.03-.06.05l.73.56s.02-.04.02-.06l-.05.12c.03-.08.08-.15.13-.22l-.08.1c.06-.08.13-.15.21-.21l-.1.08c.07-.06.15-.1.24-.14l-.12.05c.09-.04.17-.06.27-.07l-.13.02s.06,0,.09,0l-.35-.85-.99.83c-.09.08-.15.24-.15.35s.05.27.15.35c.21.2.49.18.71,0h0Z"/>
          </g>
          <g>
            <path class="cls-5" d="M83.27,67.26s4.09-10.28,14.62-9.05c1.13.13,2.16.33,3.09.58,5.98,1.6,9.86,7.39,9.44,13.57-.39,5.78-2.67,13.49-12.29,11.5-14.99-3.1-13.88-12.14-13.88-12.14"/>
            <path class="cls-5" d="M97.39,44.83c.5-.25,10.42-1.49,6.2-11.65-2.58-6.2-13.13-2.48-14.25,1.12,0,0-2.08-3.46-4.55-4.12-1.36-.36-2.13-1.27-1.02-3.61s1.3-2.91,4.83-6.51c.84-.86,2.28-2.6,2.88-3.84.86-1.77.08-3.63-1.67-4.54-3.76-1.96-6.01-.84-6.64,3.77-.38,2.77-.79,4.41-1.7,6.66-.68,1.67-1.15,4.09-1.92,6.6,0,0-2.83-.12-2.85-.71-.13-3.22-1.24-5.82-3.35-5.45s-.5,5.26-.5,5.26c.07-.28-10.1-1.37-13.86,3.07"/>
            <path class="cls-5" d="M72.33,25.43s-1.64-4.47-4.16-3.39c-2.5,1.07-1.6,4.85-.88,5.34"/>
            <path class="cls-5" d="M61.15,28.77c-.12-.16-2.33-5.89-.16-7.01,2.03-1.05,3.46.69,4.19,2.61"/>
            <path class="cls-5" d="M59.76,32.32s-4.25-5.07-4.74-7.3-.62-5.46-1.12-7.94c-.47-2.35-4.89-3.21-7.68.25-3.64,4.49,3.84,5.82,6.94,13.63,2.05,5.18-.38,7.93-1.05,8.3,0,0-17.69-12.61-24.29-3.62s10.53,18.49,20.91,15.21c0,0-3.87,8.36-4.31,24.72-.43,16.36,1.12,30.26,1.12,30.26.03.56,2.42,26.96-3.35,34.55"/>
            <path class="cls-5" d="M53.9,59.64c.09.28,5.86,14.5,22.4,13.4,3.25.03,4.22,4.32,6.6,7.97,1.64,2.52,7.81,9.01,13,2.31"/>
            <path class="cls-5" d="M95.89,58.11c-.17-.52-4.45-2.47-4.26-4.33"/>
            <path class="cls-5" d="M49.9,41.89c-.28-.19-11.34-7.53-13.94-1.49s10.5,6.97,12.55,6.69"/>
            <ellipse class="cls-5" cx="90.56" cy="46" rx="6.13" ry="7.34" transform="translate(-11 44.28) rotate(-25.96)"/>
            <ellipse class="cls-5" cx="70.91" cy="47.1" rx="7.79" ry="6.58" transform="translate(2.07 97.17) rotate(-69.62)"/>
            <path class="cls-5" d="M92.82,37.65s3.53-4.62,6.08-1.72c3.24,3.69-3.88,5.44-3.88,5.44"/>
            <path class="cls-5" d="M70.63,72.8c-.25-.04-2.44.29-3.17,2.45s1.26,35.48,2.99,45.72c2.6,11.46,3.28,10.97,4.71,18.71"/>
            <path class="cls-5" d="M43.75,51.5c-.75-.07-4.83,1.45-3.93,4.14,1.15,3.42,6.52,3.14,6.52,3.14"/>
            <path class="cls-5" d="M45.84,58.79s-5.75-1.61-6.15,2.71,5.49,4.05,5.49,4.05l-.06.46s-5.9-1.76-6.62,1.4,1.43,4.58,6.07,4.69c0,0-5.98-1.06-6.54,2.19s2.04,4.46,6.33,4.46c0,0-6.28-.61-6.14,3.34s3.85,4.42,6.17,4.18c0,0-6.08.18-5.9,4.46s3.74,4.55,6.22,4.27c0,0-6.08-.7-6.07,4.28,0,0-.1,3.76,6.58,3.19,0,0-6.03-.45-5.75,4.24.25,4.19,6.6,3.48,6.32,2.83"/>
            <path class="cls-5" d="M45.61,110.03s-6.27-.91-5.25,4.29c.85,2.74,5.08,2.24,5.68,1.97"/>
            <path class="cls-5" d="M45.84,117.07s-4.52-1.38-4.93,2.95c-.36,3.87,4.91,3,5.12,3.04s-4.14-.37-4.42,3.11,3.85,3.53,3.85,3.53c0,0-2.58-.51-3.56,1.35s-.24,3.67,2.34,4.89c0,0-3.22-2.15-4.09,1.9-.55,2.56,1.74,3.21,1.97,2.74"/>
            <path class="cls-5" d="M96.91,74.53c-.86-.69-.38-2.12.72-2.2.87-.07,2.78,1.29,2.93,2.79s-2.27.52-3.65-.58Z"/>
            <ellipse class="cls-5" cx="79.25" cy="60.85" rx="3.62" ry="2.62" transform="translate(-19.81 47.78) rotate(-30)"/>
            <ellipse class="cls-5" cx="58.44" cy="54.57" rx="2.67" ry="4.21" transform="translate(-17.99 31.09) rotate(-25.96)"/>
            <ellipse class="cls-5" cx="60.07" cy="84.5" rx="3.81" ry="6.38"/>
            <ellipse class="cls-5" cx="60.07" cy="117.43" rx="4" ry="6.6"/>
            <path class="cls-5" d="M46.03,123.06s8.87.71,12.89,8.64,2.35,9.01,2.35,9.01"/>
            <path class="cls-5" d="M72.12,129.72s-7.5.68-5.76,9.63"/>
            <path class="cls-5" d="M68.17,97.82s-2.68-2.23-4.29.43.06,4.58,4.65,7.68"/>
            <path class="cls-5" d="M45.86,110.83c.36.12,7.8,3.22,8.79-5.95s-2.4-15.24-10.18-15.61"/>
            <path class="cls-5" d="M44.47,80.53c.33.12,9.38,1.86,9.13-8.67s-7.76-9.42-7.76-9.42"/>
            <path class="cls-5" d="M59,66.92s2.47-3.11,7.3-1.25,5.46,7.29,5.46,7.29"/>
          </g>
        </g>
      </g>
    </g>
  </g>
</svg>