<?xml version="1.0" encoding="UTF-8"?>
<svg id="zoo" xmlns="http://www.w3.org/2000/svg" xmlns:xlink="http://www.w3.org/1999/xlink" viewBox="0 0 132 132">
  <defs>
    <style>
      .cls-1 {
        fill: #b8ff94;
      }

      .cls-2 {
        fill: #ded36f;
      }

      .cls-3 {
        fill: #e1975c;
      }

      .cls-4 {
        fill: #f6f6f6;
      }

      .cls-5 {
        fill: #ffe8d6;
      }

      .cls-6 {
        fill: #fff;
      }

      .cls-7 {
        fill: #ff6868;
      }

      .cls-8, .cls-9 {
        fill: none;
      }

      .cls-10 {
        fill: #e6c4e6;
      }

      .cls-11 {
        clip-path: url(#clippath-1);
      }

      .cls-12 {
        fill: #ffd3b0;
      }

      .cls-13 {
        fill: #fff48f;
      }

      .cls-14 {
        fill: #1d1d1b;
      }

      .cls-15 {
        clip-path: url(#clippath-2);
      }

      .cls-16 {
        fill: #97d36f;
      }

      .cls-9 {
        stroke: #501a36;
        stroke-linecap: round;
        stroke-linejoin: round;
      }

      .cls-17 {
        fill: #936037;
      }

      .cls-18 {
        clip-path: url(#clippath);
      }
    </style>
    <clipPath id="clippath">
      <circle class="cls-8" cx="66" cy="-112.2" r="63.91"/>
    </clipPath>
    <clipPath id="clippath-1">
      <circle class="cls-8" cx="66" cy="66" r="63.91"/>
    </clipPath>
    <clipPath id="clippath-2">
      <circle class="cls-8" cx="66" cy="236.94" r="63.91"/>
    </clipPath>
  </defs>
  <g id="crocodile">
    <g class="cls-18">
      <rect class="cls-1" x="-40.56" y="-219.45" width="227.51" height="227.51"/>
    </g>
  </g>
  <g id="hedgehog">
    <g class="cls-11">
      <g>
        <rect class="cls-10" x="-35.11" y="-41.89" width="205.09" height="205.09"/>
        <g>
          <path class="cls-3" d="M60.42,29.62c-8.03-1.28-18.63,1.36-21.17,10.38-2.67,9.46,5.91,16.18,14.71,14.59,8.04-1.46,17.36-7.56,14.42-17.01-2.57-8.28-13.05-10.81-20.59-9.26s-16.07,8.14-13.73,16.62c2.86,10.39,15.23,7.93,21.84,3.31s14.47-14.44,7.54-22.17c-6.15-6.87-16.09-2.5-22.85,1.08l13,13c0-.84.25-1.22.78-1.12,3.03-2.91,3.58-7.93,1.49-11.51-2.28-3.9-6.52-5.04-10.73-4.37-2.69.43-5.2,1.47-7.57,2.8-8.59,4.82-4.26,17.21,4.79,17.7,2.45.13,4.32-.6,6.48-1.63l-9.59-16.41c-8.24,4.62-13.58,12.27-18.43,20.14l16.41,9.59c1.09-2.41,2.34-4.63,3.86-6.8,5.48-7.85-5.24-17.96-13-13-5.25,3.36-8.37,7.57-10.72,13.28-3.68,8.97,9.77,15.83,15.88,9.24,2.69-2.9,4.39-5.84,5.64-9.6,2.6-7.86-7.08-15-13.96-10.73-6.15,3.83-9.22,9.41-9.79,16.56-.78,9.82,13.08,12.34,17.7,4.79,1.87-3.05,3.28-6.37,4.19-9.83,1.92-7.26-7.02-16.02-13.96-10.73s-10.03,12.31-8.32,21.12,13.21,8.57,17.36,2.27c1.52-2.3,2.6-4.85,3.31-7.51,3.17-11.89-14.52-16.61-18.32-5.05s-5.2,23.88-3.97,36.01,17.65,12.17,19,0c.55-4.96,1.1-9.91,1.65-14.87,1.21-10.95-15.7-12.42-18.66-2.53-4.1,13.73-2.36,28.25,4.51,40.77l14.92-11.51-2.82-2.56c-7.75-7.05-20.7,1.94-14.92,11.51,5.81,9.63,16.11,13.66,26.98,11.82,5.82-.99,8.94-9.24,5.68-13.96-4.16-6.02-3.44-13.17-2.89-20.15.67-8.45,1.47-16.79,3.6-25.01s-6.71-14.87-13.96-10.73c-8.61,4.92-13.76,13.9-13.69,23.81.05,7.89,7.88,10.91,14.29,8.2,9.42-3.98,12.52-16.75,17.1-24.94.71-1.27,1.45-2.52,2.14-3.8,1.16-2.11.62-.23.01-.2,2.62-.12,5.23-1.01,7.9-1.13,4.96-.21,11.65-.2,16.17,2.16,3.33,1.73,6.18,6.08,8.21,9.15.72,1.09,1.33,2.54,2.16,3.52l.79,1.45c.83-2.66.89-3.33.17-2-1.34.53-2.7,4.5-3.31,5.82-2.49,5.47-3.84,11.4-3.6,17.43.12,3.04.63,6.07,1.08,9.07.94,6.24.54-.95,1.96-.73-.41-.06-1.85,1.44-2.46,1.68-4.77,1.88-8.1,6.36-6.64,11.69,1.34,4.88,6.75,8.11,11.69,6.64,5.46-1.63,12.18-2.69,16.73-6.28,5.04-3.99,6.32-10.04,6.44-16.16.1-5.13-4.44-9.5-9.5-9.5-5.67,0-8.86,4.39-9.5,9.5-.33,2.63-.66,5.26-.99,7.89-1.22,9.71,13.35,12.41,17.7,4.79,3.15-5.51,3.43-12.04,4.25-18.22s1.5-12.27,2.04-18.42c1.07-12.2,1.9-24.04-5.7-34.46-3.56-4.88-7.93-8.72-12.83-12.23-4.62-3.32-9.84-7.07-15.66-7.57-6.17-.53-12.86.94-18.93,1.99s-12,2.48-17.89,4.19c-9.26,2.69-8.78,15.42,0,18.32,10.37,3.42,20.28,7.81,29.76,13.24,2.12,1.22,5.95,2.7,7.49,4.56.63.75,1.59,3.57,2.13,4.73,2.11,4.54,4.97,9.28,5.77,14.29s.19,10.96.14,16.26c-.05,5.58-1.52,13.5,2.2,18.17,4.26,5.35,11.95,5.31,16.79.72,4.29-4.06,5.98-11.07,5.23-16.76-.67-5.09-3.89-9.5-9.5-9.5-4.61,0-10.17,4.38-9.5,9.5.21,1.05.28,2.11.21,3.18-.77,1.62.04,1.09,2.44-1.58l7.32.96-.75-.49,4.37,5.68c-.79-4.06.17-9.4.21-13.57.04-4.62.24-9.25-.3-13.84-1.07-9.2-5.78-19.07-10.35-27.09s-14.47-11.95-22.06-15.8c-8.55-4.34-17.47-7.98-26.58-10.99v18.32c8.58-2.49,17.38-4.5,26.29-5.36,2.55-.25,2.92-.34,4.76.42,2.08.86,4.23,2.59,6.06,3.9,2.86,2.04,5.63,4.39,7.69,7.26,5.02,7.01,2.8,16.54,2.08,24.52-.41,4.53-.89,9.06-1.46,13.58-.47,3.74-.28,9.22-2.16,12.5l17.7,4.79c.33-2.63.66-5.26.99-7.89h-19c0-.14-.03,3.03-.27,2.92-.2-.09,4.62-2.87,0-1.47-2.98.91-5.97,1.79-8.96,2.68l5.05,18.32c7.07-2.79,14.7-7.48,14.92-15.98.18-7.27-3.16-13.82-.17-21.01,1.16-2.79,3.21-5.04,4.29-7.88,1.67-4.4,1.14-8.63-.8-12.84-3.04-6.58-7.79-12.92-13-17.93-10.84-10.43-30.53-11.3-44.41-7.43-8.48,2.37-11.76,9.32-15.61,16.55-1.57,2.96-2.98,5.98-4.36,9.03-.99,2.19-1.58,4.32-3.82,5.27l14.29,8.2c-.02-3.36,1.38-5.74,4.28-7.4l-13.96-10.73c-2.67,10.31-3.65,21.04-4.4,31.64-.69,9.69-.1,19.92,5.6,28.16l5.68-13.96c-2.34.4-4.41-1.24-5.52-3.08l-14.92,11.51,2.82,2.56c7.92,7.2,20.23-1.85,14.92-11.51-4.48-8.17-5.25-17.24-2.6-26.13l-18.66-2.53c-.55,4.96-1.1,9.91-1.65,14.87h19c-1.08-10.65-.05-20.79,3.29-30.96l-18.32-5.05c-.44,1.64-.46,1.55-1.39,2.97l17.36,2.27c-.04-.18,1.56-1.16-.42.34l-13.96-10.73c-.53,2.01-1.18,3.5-2.28,5.29l17.7,4.79c.05-.63-.3.27.38-.15l-13.96-10.73c-.1.5-.35.9-.75,1.22l15.88,9.24c.34-.83,1.28-1.48,1.98-1.93l-13-13c-1.51,2.17-2.77,4.39-3.86,6.8-4.93,10.95,9.85,20.22,16.41,9.59,3.16-5.13,6.23-10.31,11.61-13.33,10.79-6.06,1.31-21.62-9.59-16.41l-.8.38,4.79-1.3-.89-.05,4.79,17.7c.97-.55,1.86-.7,3.03-.89l-9.24-15.88c-1.51,1.45-2.8,3.11-3.75,4.97-4.35,8.48,4.42,17.54,13,13,.88-.47,1.73-.92,2.66-1.3,1.14-.46,3.54-.44.79-1.04l-4.19-2.44.57.73-2.44-9.24c-.19.72-2.86,3.2-3.51,3.26l4.79,1.3-.83-.61,4.71,8.2.07-.73-1.3,4.79c-2.09,3.11.98-.52.79.29.13-.53,1.02,1.01.23.04l-2.44-4.19.23.95v-5.05l-.31.91,2.44-4.19c.72-.36.49-.25-.71.35-2.88.61-2.32.88,1.67.79l3.41,3.41-.39-.84.96,7.32c-.29,1.74-1.12,1.81-2,1.67,5.06.81,10.22-1.3,11.69-6.64,1.24-4.52-1.54-10.88-6.64-11.69h0Z"/>
          <path class="cls-12" d="M79.5,43.01c-.23,1.89-.05,3.02.36,4.88,1.06,4.88,7.62,5.05,10.05,1.31,1.89-2.91,2.33-6.05,1.13-9.33-1.05-2.88-3.66-4.56-6.77-3.84-5.44,1.27-6.67,6.54-5.42,11.35,1.34,5.13,9.38,5.35,10.61,0,.5-2.19.56-4.11-.19-6.25-1.4-3.96-7.97-6.02-10.05-1.31-1.77,3.98-2.26,7.48-1.27,11.76l6.77-6.77c-2.79-.6-4.8-2.61-7.32-3.84-2.9-1.41-5.96-1.79-9.15-1.64-3.43.16-7.04.62-10.4,1.33-1.42.3-2.79.82-4.2,1.14-.89.36-1.84.49-2.83.4-2.11-.65-2.41-.66-.9-.03l1.61,3.89c-.21-2.52-.3-4.31-2.28-6.16-1.87-1.74-4.42-2.02-6.67-.86l-.55.29c-3.06,1.59-3.65,6.33-1.11,8.64,1.84,1.68,3.7,2.83,6.2,3.11s4.56-1.09,6.95-1.09l-1.46-10.8c-7.4,2.47-11.71,6.61-14.26,13.97-1,2.88-2.05,6.23-1.82,9.31.33,4.4,3.42,6.25,5.39,9.75l-.55-4.24c-.65,3.24-3.01,6.31-4.26,9.37-1.34,3.29-2.08,6.74-1.6,10.28.43,3.1,1.82,5.43,3.46,8.04,2.11,3.34.87,6.83,1.75,10.68,1.58,6.91,12.13,3.98,10.61-2.92-.82-3.71-1.64-7.42-2.46-11.13-1.16-5.25-9.43-5.24-10.61,0-1.01,4.53-.47,8.75,2.04,12.69,3.39,5.31,11.39,1.89,10.05-4.24-.83-3.78-1.7-7.57-1.89-11.44-.09-1.82.39-3.81.18-5.56-.12-.99-1.4-3.05-1.28-3.69h-10.61c1.78,6.23,3.92,12.47,5.23,18.82,1.38,6.7,1.44,13.82,2.01,20.63l10.8-1.46c-.47-2.79-.57-2.69,2.06-3.34,3.01-.74,6.1-1.03,9.19-1.04,1.74,0,5.91-.39,7.24.86,1.16,1.09,1.68,4.99,2.21,6.85,1.43,5,9.44,5.47,10.61,0,.78-3.62,1.58-7.08,3.33-10.38,1.54-2.91,3.27-5.71,4.04-8.95.87-3.66.63-7.29.65-11,.02-3.29,1.07-6.59.73-9.86-.27-2.56-1.36-4.79-2.85-6.85-1.2-1.65-3.68-3.57-4.15-5.57-.52-2.2,1.41-4.91,2.12-6.89,1.08-3.02,1.33-5.83.53-8.95-1.28-5-9.64-5.48-10.61,0-.46,2.57-1.03,5.09-1.87,7.57-.39,1.15-.82,2.27-1.31,3.38-.09.19-1.78,3.32-.62,2.43h5.55l-.39-.19c-3.92-1.89-7.92.43-8.28,4.75-.64,7.81-1.28,15.63-1.93,23.44-.46,5.61-.64,12.4,5.5,15.02,3.35,1.43,6.86.4,8.08-3.29,2.39-7.21.26-15.9-.42-23.28-.59-6.44-.22-13.58-4.92-18.58-3.34-3.55-9.32-.75-9.39,3.89-.09,6.25-.15,12.51-.15,18.77,0,5.77-.56,11.93,1.23,17.49s11.16,5,10.8-1.46c-.54-9.71-1.16-19.42-1.88-29.13-.38-5.17-.74-10.35-1.23-15.52-.33-3.45-.7-6.88-4.32-8.4-6.71-2.83-12.66,6.69-13.17,12.14-.9,9.49.84,19.78,1.38,29.3.4,7.11,10.47,7.04,11,0,.42-5.52,1.02-12.4-1.65-17.46s-7.18-9.75-11.09-13.96c-2.03-2.18-5.73-2.03-7.78,0-8.69,8.61-.56,20.94,3,30.37,2.09,5.54,10.82,5.11,10.8-1.46-.03-10.21-3.34-19.39-10.65-26.66-2.26-2.25-7.2-2.22-8.64,1.11-4.04,9.36,1.55,15.53,6.72,22.87,2.96,4.2,10.38,3.07,10.25-2.78-.08-3.56-.52-7.04-1.27-10.52s-5.15-5-8.08-3.29c-3.76,2.2-8.92,4.98-10.71,9.18s-.1,9.88,1.15,13.98c1.44,4.7,7.42,5.21,10.05,1.31,1.91-2.82,4.75-5.91,5.57-9.32.88-3.64-.81-6.75-1.74-10.17-1.9-6.98-11.69-3.91-10.61,2.92,1.31,8.28,2.98,16.49,5.02,24.62.78,3.12,5.24,5.46,8.08,3.29s4.84-4.47,5.42-8.16c.91-5.84-6.64-9.97-10.05-4.24-2.03,3.4-4.65,8.21-1.94,11.93,2.28,3.14,6.53,3.41,10.1,3.19,5.47-.34,7.45-7.2,2.78-10.25-3.05-1.99-6.17-3.71-9.48-5.23s-7-.38-8.08,3.29c-.74,2.51-.44,4.82.93,7.06s3.74,2.96,6.21,2.53c3.73-.65,7.09-1.9,10.43-3.67,5.08-2.68,2.38-9.99-2.78-10.25-2.84-.15-5.53.13-8.31.65-3.96.73-5.44,6.6-2.43,9.19,2.31,1.99,5.36,4.6,8.65,4.5,1.42-.04,2.99-.72,4.23-1.39s2.96-2.76,4.23-3.01l-6.96-5.3v.22c1.82-1.83,3.65-3.67,5.49-5.5h-.16c1.77,2.32,3.54,4.64,5.3,6.96,1.23-6.76,2.45-13.51,3.68-20.27.58-3.22,1.17-6.43,1.75-9.65.16-.91.69-7.86,1.57-8.37l-7.53-7.53c-.37.88-.75,1.76-1.12,2.64l10.05,1.31c-1.26-5.49-3.13-11.94-10.29-9.66-4.87,1.55-10.6-1.76-14.53,2.81l5.35-1.41c-7.99-1.37-18.07.9-20.22,9.9l10.05-1.31-.43-.99c-1.53-3.55-6.24-3.1-8.64-1.11-5.77,4.77-3.03,12.52,2.53,15.94,2.7,1.66,5.82.4,7.53-1.97,1.34-1.87,2.24-3.84,2.99-6.01l-6.77,3.84c6.74,2.53,22.11-.48,16.39-10.73-2.01-3.61-6.61-4.92-10.31-3.12-4.45,2.16-5.35,6.62-4.67,11.11,1.06,6.98,11.66,4.01,10.61-2.92-.9-5.95-5.82-3.72-9.09-4.94-2.91-1.09-5.87,1.24-6.77,3.84-.45,1.3-1.08,2.27-1.88,3.38l7.53-1.97-.3,1.34-8.64-1.11.43.99c1.91,4.42,9.03,2.99,10.05-1.31.56-2.36,4.02-2.41,5.93-2.29,1.25.08,2.44.42,3.69.08.66-.18,3.47-1.09,1.84-1.11s1.36.68,1.61.72c1.23.19,2.47.35,3.72.27.93-.05,2.01-.19,2.91-.44.68-.25,1.36-.52,2.03-.81.71-.42.84-.41.41.04l-4.75-2.72c.59,1.25.78,3.28,1.09,4.62.99,4.28,8.17,5.74,10.05,1.31.37-.88.75-1.76,1.12-2.64,2.02-4.75-2.32-10.52-7.53-7.53-6.29,3.62-6.18,12.48-7.33,18.8-1.58,8.69-3.15,17.37-4.73,26.06-.63,3.48,1.48,6.94,5.3,6.96h.16c3.12.02,5.3-2.54,5.5-5.5v-.22c.27-3.83-3.69-5.93-6.95-5.3-3.03.58-5.52,3.53-8.32,4.76l4.24-.55c-.89-.31-1.67-.8-2.34-1.48l-2.43,9.19c1.86-.34,3.51-.35,5.39-.26l-2.78-10.25c-2.51,1.33-5.01,2.07-7.8,2.56l6.21,2.53.18,1.41-8.08,3.29c3.3,1.52,6.43,3.24,9.48,5.23l2.78-10.25c-.77.12-1.54.13-2.31.03-1.21-.21-1.07-.02.42.56l1.61,3.89c.44-1.07.98-2.08,1.62-3.04l-10.05-4.24-.36,1.59,8.08,3.29c-2.04-8.14-3.71-16.34-5.02-24.62l-10.61,2.92c.56,2.04,1.57,3.48,1.02,5.48-.48,1.77-2.71,4-3.74,5.53l10.05,1.31c-.5-1.64-1.97-5.15-1.28-6.73s4.38-3.18,5.79-4l-8.08-3.29c.55,2.55.82,5,.88,7.6l10.25-2.78c-1.78-2.53-8.24-8.24-6.72-11.76l-8.64,1.11c5.3,5.28,7.4,11.5,7.42,18.88l10.8-1.46c-1.34-3.56-2.69-7.13-4.03-10.69-.9-2.38-3.84-6.95-1.79-8.97h-7.78c2.93,3.15,6.4,6.53,8.53,10.3s1.31,9.18,1,13.34h11c-.21-3.78-3.57-30.53.13-31.11l-5.35-1.41c-1.56-1.48-.42,2.49-.35,3.36.16,1.94.31,3.88.47,5.82.3,3.88.59,7.76.86,11.64.55,7.76,1.03,15.53,1.46,23.3l10.8-1.46c-1.64-5.08-.84-11.25-.84-16.54,0-5.6.06-11.19.15-16.79l-9.39,3.89c1.27,1.35,1.08,4.03,1.24,5.77.26,2.83.52,5.65.78,8.48.48,5.23,2.18,11.85.5,16.92l8.08-3.29c-1.26-.54.4-11.06.56-13.02.44-5.31.87-10.63,1.31-15.94l-8.28,4.75.39.19c1.63.79,3.96,1.23,5.55,0,5.48-4.23,7.7-13.45,8.85-19.95h-10.61c.57,2.21-1.32,4.75-2.05,6.79-.83,2.3-1.3,4.76-.95,7.19.33,2.3,1.25,4.36,2.55,6.27s3.7,3.62,4.35,5.75-.64,6-.67,8.32c-.05,3.23.49,6.66-.46,9.8s-3.14,5.97-4.44,9.04-2.04,6.21-2.73,9.44h10.61c-1.35-4.74-1.97-10.43-6.63-13.12s-10.85-2.9-16.11-2.59-11.49.83-15.62,4.05c-4.56,3.55-4.44,8.97-3.56,14.18,1.02,6.06,11.32,4.72,10.8-1.46-.61-7.26-.87-14.66-2.09-21.85s-3.62-13.76-5.54-20.52c-1.4-4.92-9.58-5.55-10.61,0-.74,3.99.6,7.38.68,11.25.11,5.16,1.21,10.27,2.31,15.3l10.05-4.24c-.94-1.48-1.33-2.44-.93-4.21h-10.61c.82,3.71,1.64,7.42,2.46,11.13l10.61-2.92c-.63-2.77.48-5.51-.32-8.31-.67-2.35-2.14-4.15-3.37-6.2-3.44-5.76,2.02-10.95,3.84-16.36.77-2.28.88-4.24-.36-6.4-1.11-1.93-3.48-3.22-3.49-5.46-.02-5.07,3.37-9.39,7.89-10.9,5.75-1.92,4.95-10.79-1.46-10.8-.78,0-5.74.87-5.38,1.19l-1.11,8.64.55-.29-6.67-.86.61.56-1.61-3.89c-.02,9.07,9.97,9.73,16.78,7.83,4.09-1.14,10.4-3.02,14.61-1.67,3.57,1.15,6.08,4.08,9.93,4.91,4.16.89,7.74-2.55,6.77-6.77-.39-1.11-.33-2.21.16-3.28l-10.05-1.31.19.4h10.61l-2.26,2.18-6.77-3.84-.02.85,10.05,1.31.04-1.95c.84-7.01-10.17-6.95-11,0h0Z"/>
          <path class="cls-5" d="M66.71,89.3c-11.23-5.1-15.82,11.55-8.19,17.93s21.2-2.23,18.06-12.13c-1.34-4.23-4.9-9.01-9.62-9.44-5.07-.46-9.02,3.53-10.06,8.26-1.13,5.15,1.03,10.51,6.17,12.42,4.37,1.63,9.44.21,12.43-3.35,6.53-7.79-4.49-21.88-13.71-18.97-4.92,1.55-6.8,7.2-7.19,11.86-.45,5.47,2.71,9.87,7.62,12,4.48,1.95,9.79,1.53,13.33-2.07s3.39-9.11,1.11-13.27c-5.71-10.43-20.11-2.48-19.87,7.52.13,5.41,4.8,13.15,10.95,8.49,4.46-3.38,2.83-10.57-1.76-13-5.56-2.93-12.62,3.23-10.99,9.19,1.83,6.66,9.77,6.15,14.58,3.64,3.91-2.04,3.2-7.3,0-9.5s-7.25-2.71-10.9-1.48c-3.84,1.29-5.51,6.16-2.43,9.19,2.39,2.35,5.32,3.08,8.61,2.76,1.17-.12,2.29-.35,3.45-.05,1.23.32,2.28,1.05,3.54,1.33,3.48.75,6.72-1.43,7.47-4.85s-1.64-6.67-3.05-9.55c-3.11-6.36-12.59-.79-9.5,5.55.64,1.31,1.45,2.63,1.94,4v-2.92l-.14.72,2.53-3.29-.56.29,4.24-.55c-1.77-.32-3.63-1.45-5.63-1.71-1.07-.14-2.07-.19-3.15-.1-.57.06-1.13.13-1.69.21-1.42-.07-1.51.06-.27.39l-2.43,9.19c1.16-.39,1.41-.32,2.42.37v-9.5c-1.27.67-.31.48-.55.31l1.97,1.97-.39-.66.55,4.24c-.04-.45.12-.8.49-1.06l-1.97,1.97-.92.15-2.78-.75c-.21-.62-.56-1.07-1.07-1.36l1.61-3.89-.45.54,3.89-1.61-.65.08,3.89,1.61c.73.65.11-.2.3-.8.42-.46.88-.89,1.36-1.29,1.09-.48.31-.69-2.34-.62.23.34.37.73.41,1.15-.04-.38.14-.68.55-.88-.29-.12-.98.02-1.45-.21-.7-.35-.75-.23-.96-.88s1.15-3.12.85-3.45c-.65,1.01-1.35,1.36-2.11,1.03.34.28.62.6.84.97.58.78,1.4,1.89,1.33,2.88l.75-2.78s-.33.87-.62.57c.03.03,1.36,1.32.99.57.02-.21.06-.41.12-.61l-3.08-.03c-.06.15,1.31,1.87,1.42,2.18.22.59.24-.3.06-.2-.31.16-1.21.36-1.3.48-.51.68,1.34.25.77.23-.05-.17-.04-.35.02-.53.21-.65.06-.54-.45.31l-2.78.75.84-.06-2.78-.75.75.34c2.7,1.23,5.92.77,7.53-1.97,1.38-2.36.74-6.29-1.97-7.53h0Z"/>
          <path class="cls-12" d="M81.53,86.67c-2.7-2.26-5.16-1.98-8.35-1.25-2.98.67-5.03,1.47-6.95,4-1.29,1.71-.79,4.58.43,6.11,1.41,1.77,3.56,2.48,5.78,1.97,4.42-1.01,8.65-2.63,12.67-4.72,2.64-1.37,3.42-5.05,1.97-7.53-1.56-2.67-4.88-3.35-7.53-1.97-3.2,1.66-6.52,2.81-10.04,3.61l6.21,8.08.32-.43-1.97,1.97c-.51.09-.44.06.22-.09.48-.11.96-.22,1.44-.33s.96-.22,1.44-.33c.91-.23.96-.22.15.02l-3.89-1.61.31.26c2.27,1.91,5.55,2.23,7.78,0,1.96-1.96,2.29-5.86,0-7.78h0Z"/>
          <path class="cls-12" d="M45.71,94.32c1.25.3,2.47.66,3.67,1.1,1.6.58-.83-.44.71.29.66.32,1.31.65,1.95,1,2.52,1.39,6.11.7,7.53-1.97s.58-5.8-1.97-7.53c-.84-.57-1.67-1.14-2.49-1.74-.37-.27-.74-.55-1.1-.83.7.54-.55-.46-.62-.51-2.23-1.81-5.63-2.34-7.78,0-1.84,2.01-2.39,5.84,0,7.78,2.08,1.69,4.22,3.3,6.44,4.8l5.55-9.5c-2.81-1.55-5.83-2.77-8.96-3.51-2.79-.66-6.09.87-6.77,3.84s.85,6.06,3.84,6.77h0Z"/>
          <path class="cls-7" d="M21.78,33.13c-2.26,2.73-3,6.08-.48,8.98,2.22,2.56,6.58,2.53,8.93.16,4.24-4.28.96-11.92-4.73-12.68-3.04-.41-5.99,1.28-7.19,4.11s-.66,6.19,1.39,8.57c2.28,2.66,6.28,2.77,8.86.49,2.28-2.02,2.63-5.88,1.17-8.48s-4.3-3.91-7.22-3.16-4.75,3.83-4.57,6.71c.32,5.13,5.67,8.45,10.5,7.14s8.32-6.58,6.84-11.42c-.88-2.89-3.72-4.85-6.7-4.83-3.5.02-6.37,3.13-6.49,6.54-.09,2.72,1.45,5.28,3.83,6.57,3.68,2,8.67.1,9.25-4.25.54-4.05-3.14-7.78-7.29-6.58-1.27.37-2.48,1.09-3.41,2.03-.48.48-.91,1.07-1.25,1.65-.28.47-.5.98-.67,1.51-.25.68-.2.56.16-.36l3.29-2.53-.34.11h2.92c-1.43-.19-2.86-.64-4.26-1.02l4.04,5.3c-.11-1.99-.73-4.03-2.35-5.33l-1.11,8.64c-.7.37-1.41.49-2.15.35l.44.1c.79.21,1.64.29,2.45.38,1.52.18,3.04.12,4.47-.48,3.86-1.63,5.58-7.23,2.04-10.2-2.2-1.85-5.65-2.32-7.78,0-1.87,2.04-2.36,5.81,0,7.78l.23.19-1.41-2.43.08.29v-2.92l.33-.72,1.97-1.97c1.75-.31,2.1-.45,1.07-.43-.66-.05-.67-.05-.03.02-.46-.09-.92-.21-1.38-.3-2.05-.38-4.05-.3-5.88.85-2.71,1.7-4,6.33-1.11,8.64l-.87-2.45c.14,2.42,1.61,4.65,4.04,5.3,2.01.54,4.37,1.4,6.45,1.12,1.81-.24,3.34-1.17,4.35-2.73.3-.46.56-1.03.71-1.56.17-.52.08-.4-.3.35-.5,1.15-1.51,1.7-3.02,1.66l-3.89-1.61.18.22-1.61-3.89-.02.3.75-2.78-.18.24,3.29-2.53-.44.11h2.92c2.41,1.04,2.91,3.16,1.51,6.35l-2.43,1.41-1.76.04-2.43-1.41c-.91-1.25-1.11-2.44-.59-3.57l-.24.37c.15-.33.39-.57.72-.72-.46.26-.5.3-.13.11.67-.02,1.13-.3,1.84-.01,1.66.67,2.41,3.4,1.37,4.9l-1.97,1.97-.78.34h-2.92l.32.11-2.43-1.41c-.87-.99-1.23-2.06-1.06-3.23l1.41-2.43-.27.27,3.89-1.61-.4.05,2.78.75c1.82,1.48,2.07,3.11.76,4.89l-2.43,1.41c-2.59,1.05-4.8-1.76-4.12-3.81l1.41-2.43.57-.46,2.78-.75.83.13,2.43,1.41-.2-.24,1.61,3.89-.03-.43-.75,2.78-.36.33c1.83-2.21,2.33-5.64,0-7.78-2.03-1.86-5.82-2.37-7.78,0h0Z"/>
          <path class="cls-16" d="M28.42,23.4l-.17-.86c-.15-.73-.96-1.17-1.65-1.07-.78.1-1.23.72-1.3,1.47-.01.14-.03.28-.04.42-.01.11,0,.08.01-.1-.01.08-.02.16-.04.24-.04.24-.08.47-.14.7-.12.52-.27,1.04-.45,1.55-.05.13-.1.26-.15.39-.11.3.11-.24-.03.08-.11.24-.22.47-.34.7-.25.48-.53.94-.83,1.38-.45.65-.14,1.69.54,2.05.78.41,1.56.14,2.05-.54.78-1.07,1.37-2.27,1.8-3.53.19-.57-.09-1.23-.54-1.58-.51-.39-1.1-.37-1.67-.12-.88.4-1.68,1.02-2.29,1.77-.71.88-1.43,2-1.14,3.18.16.67.64,1.24,1.33,1.42.9.24,1.62-.26,2.28-.78.77-.62,1.43-1.41,1.9-2.28.23-.43.44-.89.58-1.35.28-.91,0-1.91-.85-2.4-.68-.39-1.52-.33-2.18.06-.55.33-.96.89-1.34,1.39-.67.88-1.04,2.04-.64,3.12.54,1.45,2.11,2.2,3.54,1.44,1.08-.58,1.75-1.85,1.94-3.02.21-1.3.01-2.62-.69-3.75-.4-.64-1.38-1.03-2.05-.54-.97.7-1.79,1.57-2.34,2.65-.51,1.01-.91,2.26-.81,3.4.06.72.29,1.41.82,1.93.68.67,1.76.73,2.57.24.58-.35,1.01-.97,1.4-1.51s.67-1.11.83-1.72c.19-.7.2-1.47,0-2.17-.23-.83-.72-1.44-1.39-1.94-.63-.47-1.7-.12-2.05.54-.42.79-.13,1.55.54,2.05-.17-.14-.2-.16-.09-.05.11.12.09.09-.05-.09,0,0,.14.23.15.24.15.25-.06-.28,0,0,.02.06.03.12.05.19.03.16.03.13,0-.11-.02.01.01.27.01.29,0,.05,0,.1,0,.15,0,.12,0,.07.02-.16.02,0-.08.34-.09.37-.02.05-.03.11-.05.16-.06.16-.05.14.02-.05.04.05-.33.59-.37.64-.04.06-.28.43-.07.11-.06.09-.15.18-.22.27-.08.09-.17.18-.25.27-.08.08-.04.05.11-.07-.23.13-.1.1.4-.08.25,0,.47.12.64.28-.1-.11-.07-.07.09.12-.06-.11-.05-.1,0,.03.09.29-.01-.14-.03-.15.07.06.02.38.02.05,0-.1,0-.2.01-.3,0-.07.01-.14.02-.21-.03.22-.04.25-.01.08.04-.21.08-.41.14-.62.04-.14.08-.27.13-.4l.04-.1c.06-.15.05-.13-.03.07.02-.2.25-.49.34-.66.05-.09.11-.18.17-.27.05-.07.2-.36.02-.04.11-.2.34-.39.5-.55.08-.07.15-.15.23-.21.05-.05.11-.09.16-.14-.17.13-.18.14-.05.04l-2.05-.54c.08.12.14.25.21.38.14.27-.04-.04-.02-.06,0,0,.06.18.07.2.04.14.07.28.1.42.04.19.07.02,0-.08.04.05.02.21.02.27,0,.14,0,.29,0,.43,0,.07-.07.27,0,.07s0,0-.02.07c-.03.12-.06.25-.1.37-.01.04-.04.16-.07.2.08-.17.09-.21.04-.11-.02.05-.05.1-.07.14-.03.06-.07.12-.11.19-.08.14.01.11.05-.05-.01.04-.12.13-.14.16-.13.15-.06-.04.07-.03-.02,0-.11.07-.13.08-.16.12.27-.11.08-.04-.17.06.23,0,.26-.01.13.02.14.02.02-.01l.2.08c.29.17.18.16.11.07.26.31.11.18.08.09-.11-.24.04.12.04.11,0,.01-.04-.17-.05-.17.11.06,0,.34.02.13.01-.23-.03.13-.03.13,0,0,.05-.23.05-.21.06-.26-.1.15,0,0,.08-.13.14-.26.23-.38.03-.04.17-.23.05-.07s.03-.03.06-.07c.08-.1.16-.2.25-.29.05-.05.1-.1.14-.15.1-.09.1-.09,0-.02-.07.06-.15.1-.25.12-.04,0-.38-.01-.15.02-.34-.05-.73-.16-.88-.52l-.06-.36c-.01-.4-.05-.48-.1-.25-.03.06-.05.15-.07.2-.09.25.12-.25-.04.09-.07.15-.14.29-.22.43-.14.25-.29.51-.48.72.26-.3-.06.05-.11.11-.11.12-.22.24-.34.35-.1.1-.22.19-.32.29-.15.14.22-.15.05-.03-.06.04-.12.09-.18.13-.2.14-.3.1.25.06l.39-.03.7.54c.13.2.18.37.08.58.02-.04.03-.12.04-.16.05-.24-.13.24-.03.07.08-.14.15-.28.23-.41.04-.06.07-.12.11-.18.03-.04.2-.29.07-.1-.12.17.01-.01.05-.05.06-.07.12-.13.18-.2.12-.13.25-.25.38-.37.03-.03.15-.11.16-.14-.03.1-.23.17,0,.01.27-.19.57-.35.87-.49l-2.2-1.69c-.05.16-.11.31-.17.47-.02.04-.16.43-.04.1-.1.27-.24.53-.37.78-.27.51-.58,1-.92,1.46l2.59,1.51c1.4-2.04,2.19-4.41,2.42-6.86l-2.95.4.17.86c.16.77,1.11,1.29,1.85,1.05.82-.26,1.21-1.02,1.05-1.85h0Z"/>
          <path class="cls-2" d="M106.15,69.14c-1.05.37-1.8,1.16-2.11,2.24s-.07,2.11.26,3.1.72,1.96,1.61,2.57c.96.66,2.14.58,3.15.09.84-.4,1.57-1.09,2.19-1.77s1.25-1.54,1.45-2.49c.42-2.01-.9-3.93-2.68-4.77-1.66-.77-3.62-.81-5.23.12s-2.68,2.74-2.66,4.6,1.15,3.59,2.81,4.34c1.96.88,3.98.3,5.55-1.08s2.3-3.54,1.23-5.48c-1.01-1.84-3.11-2.57-5.08-2.68-1.83-.11-3.92.53-4.79,2.29s-.38,4,1.03,5.42c1.2,1.22,3.08,2.07,4.82,1.96.95-.06,1.86-.36,2.57-1.02.77-.72,1.15-1.81,1.1-2.85-.09-1.96-1.51-3.74-3.02-4.89-1.64-1.26-4.19-1.42-5.46.46-1.06,1.58-.4,3.76.64,5.18.6.82,1.4,1.56,2.42,1.79,1.11.25,2.16-.05,3.03-.76,1.63-1.34,1.77-3.53.97-5.36s-2.58-3.67-4.61-3.68c-1.1,0-2.09.65-2.67,1.55s-.68,2-.53,3.07c.13.93.47,1.85.83,2.71s.82,1.7,1.53,2.33c1.42,1.26,3.66,1.61,5.16.29s1.21-3.67.49-5.38-1.76-3.12-3.16-4.24c-.56-.44-1.18-.75-1.91-.59-.68.15-1.17.64-1.55,1.2-.52.77-.74,1.7-.83,2.61-.34,3.58,2.65,6.83,6.25,6.71,1.74-.06,3.85-.89,4.64-2.56.98-2.1-.69-4.27-2.69-4.87-1.1-.33-2.27-.22-3.38,0-.48.09-.94.22-1.33.53-.56.44-.84,1.15-.77,1.86.16,1.75,1.24,3.31,2.76,4.18s3.85,1.22,5.2-.05c.83-.77.92-2.06.71-3.11-.19-.95-.75-1.86-1.49-2.48-1.58-1.31-4.22-1.83-5.92-.42-.79.65-1.23,1.8-.95,2.81.3,1.13,1.31,1.68,2.19,2.33.76.56,1.55,1.15,2.5,1.34,1.11.23,2.25-.07,3.04-.91,1.54-1.62,1.11-3.98-.27-5.54-.62-.71-1.46-1.22-2.29-1.65-.95-.48-1.97-1.04-3.07-.98s-1.97.62-2.76,1.31c-.69.6-1.4,1.31-1.57,2.25-.2,1.13.39,2.23.95,3.17.48.82,1.08,1.58,1.74,2.26.56.58,1.56.57,2.12,0s.56-1.54,0-2.12c-.75-.78-1.45-1.84-1.84-2.8l-.05-.17c-.03.36-.02.42.03.18l-.03.11c.1-.14.1-.16.02-.04.16-.18.34-.35.52-.52.11-.11.23-.21.34-.31.36-.31-.11.06.12-.09.1-.07.21-.13.32-.19-.31.17.42-.23.08-.05.12-.07.36.02.59.11.1.04.52.24.74.35.25.12.5.25.75.39s.62.38.73.47c.1.08.19.17.28.26,0,0,.32.37.15.16.09.12.16.25.24.38.14.24.06.12.03.05.05.14.09.28.12.43-.05-.29,0,.13,0,.18,0-.32-.02.06-.04.13l-.04.13c.06-.15.05-.15-.03,0l-.07.11c.1-.13.09-.13-.03,0l.1-.07c-.07.05-.15.1-.23.13.29-.13.02,0-.02-.02l.09-.02c-.18,0-.2,0-.06,0,0,0-.46-.15-.23-.06-.15-.06-.29-.15-.42-.23-.29-.17-.55-.37-.82-.57s-.52-.38-.78-.57c0,0-.49-.39-.23-.16-.21-.19-.25-.4,0,.14-.11-.25-.02.06-.03.18.01-.15.11-.13-.02,0l.07-.11c-.11.13-.1.14.02.01-.11.09-.08.09.06,0-.13.06-.11.06.06,0,.29-.07.11-.03.04-.02.15-.02.3,0,.45,0,.42-.01-.19-.07.22.02.15.03.3.08.46.12.02,0,.27.1.08.02.14.06.27.15.41.22.33.18-.08-.12.19.14,0,0,.32.34.16.15.09.12.16.25.23.38.18.32,0-.17.07.19,0-.03.09.44.06.23s0,.26,0,.24v.15c.01-.15,0-.14-.03.03.1-.14.2-.38.41-.37-.06,0-.19.06-.26.08-.08.02-.17.04-.25.05.19-.03.19-.03.02-.02-.12,0-.26,0-.38,0-.37,0,.15.07-.04,0-.21-.08-.46-.11-.68-.19.32.11-.06-.03-.11-.06-.08-.04-.15-.08-.22-.12-.11-.07-.22-.14-.32-.21.27.19-.14-.13-.19-.18-.08-.07-.15-.15-.22-.23-.06-.06-.2-.29-.04-.05-.07-.11-.14-.21-.2-.32-.03-.04-.2-.42-.07-.1-.08-.2-.13-.4-.18-.61l-.02-.13c.09.32-.05.59-.42.82-.16.07-.16.09,0,.04.09-.02.18-.04.27-.06.44-.09,1.08-.16,1.45-.11.17.02.32.08.49.12.35.09-.15-.13.15.07.02.01.4.27.16.08.11.08.21.19.3.29-.2-.22.05.1.07.14-.15-.26.02.08.03.15-.05-.27,0-.02-.01.03.06-.13.17-.25-.01-.04.15-.18-.17.15-.17.15-.28.3.13-.07-.07.06-.09.07-.19.13-.28.18-.05.03-.54.26-.25.14-.21.08-.43.15-.65.2-.05.01-.48.07-.14.03-.14.01-.27.02-.41.02-.11,0-.23,0-.34,0-.08,0-.38-.04-.08,0-.32-.05-.63-.13-.93-.24.06.02.24.12-.02-.01-.12-.06-.24-.13-.36-.2-.03-.02-.39-.27-.14-.08-.09-.07-.17-.14-.25-.22s-.16-.16-.24-.24c-.03-.03-.29-.37-.1-.11-.16-.22-.29-.45-.42-.69-.2-.37.07.26-.06-.14-.04-.13-.09-.25-.12-.38-.03-.11-.06-.22-.08-.33-.02-.08-.06-.37-.02-.07-.03-.27-.04-.54-.03-.81,0-.09.01-.18.02-.27-.04.35.05-.2.07-.26.03-.13.08-.26.12-.39-.09.24.03-.06.06-.12.02-.05.16-.34.07-.15l.11-.11c-.46.33-.84.36-1.14.09.13.19.41.34.58.51.26.25.5.51.73.79.19.23.09.11.05.06.09.12.18.25.27.38.17.26.33.52.48.79.3.56.37.72.55,1.33.04.14.07.28.1.42.11.41.02-.24.03.18,0,.14,0,.29,0,.43,0-.07.07-.27,0,.02-.01.05-.07.46-.04.16l-.07.12c.09-.11.09-.11-.02,0,0-.18.21,0-.04.02-.1.05-.07.04.08-.03-.08.03-.16.05-.24.07.33-.1,0-.02-.1,0-.35.04.24.09-.11,0-.08-.02-.17-.05-.25-.06-.35-.07.18.14-.12-.05-.29-.18-.57-.44-.83-.88-.33-.57-.35-.68-.56-1.3s-.39-1.28-.42-1.81c-.02-.33.1-.52.28-.69l.05-.05c-.13.1-.12.1.03,0l-.11.05c.16-.04.18-.05.04-.02h.15c-.15,0-.13,0,.05.04-.2-.13.2.12.21.12.34.19-.08-.1.22.16.12.11.24.22.35.33.07.08.15.16.22.23-.02-.02.32.38.17.2.2.26.35.54.51.82.01.02.12.26.04.08.08.19.13.4.18.6.09.39.04-.18.02.23,0,.1,0,.2-.01.3.04-.34-.05.1-.06.14-.09.35.13-.15-.07.15-.02.03-.28.38-.08.15-.06.07-.12.13-.19.2-.26.27.2-.09-.12.09-.15.08-.15.08,0,.02-.08.03-.17.05-.25.07.36-.08.02.02,0-.02l.12.02c-.09-.02-.18-.04-.27-.07.29.1-.1-.07-.14-.1.24.15-.11-.1-.14-.12-.07-.07-.13-.14-.2-.21-.28-.31.09.2-.12-.16-.15-.25-.3-.49-.42-.76.12.27-.05-.16-.06-.18-.04-.14-.08-.28-.11-.42-.11-.46.07.29,0-.16,0-.05.01-.31-.02,0l.03-.13c.05-.17.05-.17-.02-.02l.07-.12c-.1.11-.1.11.02-.01-.25.11,0,0,.07-.03.1-.05.08-.04-.05.02.09-.03.17-.05.26-.06-.34.05.09.02.14.03-.29-.01-.02,0,.07.02.05.01.32.12.12.02.14.06.26.15.39.22.37.21-.14-.15.18.13.08.07.15.13.23.2.26.25.51.52.74.79s.61.82.69,1.12c.03.1.05.19.08.29.1.43,0-.23.01.21,0,.41.1-.19-.01.2-.02.1-.05.19-.09.29.04-.11.04-.12-.01-.02-.11.17.21-.11-.06.07-.35.23.25-.17-.1.07-.29.2.24-.03-.1.05-.08.02-.17.04-.25.06-.36.1.26.03-.12.01-.13,0-.27,0-.4,0-.41,0,.26.08-.14-.01-.13-.03-.26-.06-.39-.09s-.25-.08-.38-.12c-.39-.13.23.13-.17-.08-.22-.12-.44-.23-.65-.36-.35-.23-.66-.52-.89-.92-.02-.03-.19-.44-.09-.16-.03-.09-.06-.18-.08-.27-.01-.04-.06-.48-.04-.16,0-.14,0-.28,0-.43,0-.42-.05.15.02-.09.03-.11.06-.23.1-.33-.12.29.08-.11.1-.14-.14.22.17-.17.24-.22-.27.21.52-.21.19-.09.13-.05.27-.09.41-.12-.02,0,.44-.08.23-.05s.26-.02.24-.02c.15,0,.29-.01.44,0s.29,0,.43.02c0,0,.47.06.25.02.32.05.63.14.94.23.14.04.26.1.52.25.01,0,.4.32.19.13.11.1.21.2.31.31-.14-.17,0,.01.03.05.05.08.1.17.15.25.08.16.08.17.02.04.01.03.1.48.07.16,0-.02.01.44.02.24s-.06.26-.06.25c-.08.34.1-.09-.09.21-.23.37-.63.83-.94,1.04-.21.14-.44.29-.67.39.25-.1-.22.06-.22.06-.02,0-.49.07-.21.05-.09,0-.18,0-.27,0-.37.03.22.09-.14-.01-.13-.04-.26-.07-.39-.11.29.09-.13-.07-.19-.11-.1-.06-.19-.12-.29-.18.25.18-.09-.09-.11-.12-.1-.09-.19-.2-.27-.3.05.07.11.19,0-.03-.06-.12-.14-.23-.2-.36.13.29-.03-.11-.04-.15,0,0-.08-.42-.05-.21.02.15,0-.3,0-.36-.02-.4-.08.23.01-.15.03-.14.06-.27.1-.41.03-.09.06-.18.09-.26-.12.29.08-.12.09-.15.07-.12.15-.24.23-.35-.15.21.03-.03.08-.08.08-.09.17-.16.25-.25.13-.11.14-.12.02-.03.08-.05.15-.11.23-.15.12-.07.24-.14.37-.2-.06.03-.25.08.02,0,.13-.04.26-.07.39-.11.39-.12-.27,0,.13-.03.23,0,.45,0,.68,0,.41.02-.26-.09.14.02.17.05.35.1.52.14.05.01.26.11.02,0,.12.06.24.12.36.19s.23.14.34.22c-.22-.16,0,.02.06.07.08.08.16.16.24.24.24.26-.06-.17.12.17,0,.01.2.44.11.19.02.05.08.44.06.19,0,.06-.07.47,0,.19,0,.01-.16.46-.04.2-.1.23-.25.46-.4.65.15-.2-.18.2-.17.18-.11.12-.22.23-.33.34-.22.22-.45.44-.69.64.18-.15-.23.16-.21.15-.09.06-.18.11-.27.16l-.14.07c.12-.06.1-.06-.07,0,.38.05-.3-.04.09,0l.08.05c-.15-.09-.16-.09-.03,0-.04,0-.19-.24-.03,0-.08-.11-.14-.24-.21-.36.13.25-.09-.24-.11-.3-.21-.59-.42-1.17-.38-1.69,0,.06-.04.3.01,0,.07-.43-.02.28.05-.15l.07-.12c-.1.12-.1.12.02,0l-.1.07c.15-.08.15-.09,0-.02.74-.26,1.31-1.04,1.05-1.85-.24-.73-1.05-1.33-1.85-1.05h0Z"/>
          <path class="cls-16" d="M112.6,71c1.18.41,2.58.23,3.62-.46.45-.3.74-.74.74-1.3,0-.51-.28-1.05-.74-1.3-1.04-.56-2.14-1.01-3.27-1.35s-2.09.77-1.85,1.85c.37,1.65,2.14,2.18,3.61,2.27s2.99-.26,4.33-.92c1.13-.55.88-2.5-.36-2.74-1.96-.39-4.01-.27-5.87.49-.5.2-.9.5-1.05,1.05s.05,1.02.39,1.46c.81,1.03,2.27,1.08,3.46,1.01,1.33-.08,2.66-.29,3.95-.63,1.05-.28,1.51-1.75.66-2.51-1.6-1.43-3.72-1.99-5.82-1.55-.77.16-1.29,1.11-1.05,1.85.26.81,1.02,1.22,1.85,1.05.08-.02.17-.03.26-.05.19-.04-.32.02-.04,0,.17,0,.35-.02.52-.02.1,0,.21.01.31.02.21.01,0,.01-.09-.02.17.06.38.07.56.12.17.05.33.11.5.16.19.06-.33-.16-.02,0,.08.04.16.08.23.12.15.08.3.17.45.27.18.12.13.04-.01-.02.08.04.17.14.24.2l.66-2.51c-.53.14-1.07.26-1.61.35-.12.02-.25.04-.38.06-.42.07.32-.03-.1.01-.27.03-.55.06-.82.08-.46.03-.92.05-1.38.03-.32-.01.33.09.03,0-.03,0-.23-.09-.26-.07.22.1.26.11.12.04l-.08-.05c.18.15.22.18.1.07-.04-.04-.08-.09-.12-.14l-.66,2.51c.38-.15.77-.29,1.17-.39.19-.05.38-.09.57-.13.09-.02.2-.05.29-.05-.38,0-.01,0,.07,0,.39-.04.78-.05,1.17-.03.22,0,.43.03.64.05s-.37-.07,0,0c.12.02.23.04.35.06l-.36-2.74c-.07.03-.14.07-.21.1-.15.07-.14.06.04-.02-.09.06-.23.09-.32.12-.25.09-.51.16-.78.21-.11.02-.23.04-.34.06-.34.07.26-.01-.06,0-.27.02-.53.04-.8.03-.12,0-.23,0-.34-.01-.04,0-.49-.05-.26-.02s-.14-.03-.18-.04c-.09-.02-.18-.04-.26-.07-.06-.02-.11-.04-.17-.06.21.09.26.11.16.06-.04-.02-.08-.04-.12-.06-.13-.09-.1-.06.09.09-.03-.03-.06-.06-.09-.09-.08-.08-.04-.03.1.15-.08-.14-.07-.09.04.14-.02-.05-.03-.11-.04-.16l-1.85,1.85c.49.15.96.32,1.43.5.1.04.08.03-.08-.03.06.02.11.05.17.07.11.05.22.1.33.15.24.11.47.23.7.36v-2.59c-.09.06-.17.11-.26.16-.23.14.2-.05.03,0-.08.02-.16.06-.25.08-.05.01-.1.02-.15.03-.11.02-.07.02.14-.01-.02.03-.51.02-.52,0,.21.03.26.04.14.02-.05,0-.1-.02-.15-.03-.1-.02-.2-.06-.3-.09-.74-.26-1.67.29-1.85,1.05-.19.84.25,1.57,1.05,1.85h0Z"/>
          <path class="cls-6" d="M72.95,54.64c.08-.02.5.1.35,0-.04-.03-.15-.04-.2-.06-.13-.04-.26-.09-.39-.12-.53-.11-1.08-.08-1.56.2-.88.51-1.05,1.53-1.11,2.46-.08,1.47.36,3.05,1.19,4.26.93,1.36,2.42,2.65,4.16,2.59s3.22-1.24,3.84-2.83c1.25-3.22-1.11-6.64-4.05-7.83-1.5-.61-3.35-.59-4.6.54s-1.3,2.94-.81,4.39c1.05,3.15,4.09,5.56,7.51,4.81,1.65-.36,2.92-1.58,3.52-3.13s.13-3.29-.92-4.58c-2.02-2.47-5.89-3.36-8.78-2.05-1.73.79-2.54,2.57-2.25,4.41.26,1.64,1.44,2.96,2.72,3.93s2.81,1.51,4.37,1.34c1.68-.18,3.57-1.15,4.01-2.91.24-.95-.12-1.86-.49-2.72-.29-.69-.62-1.36-1.06-1.96-.94-1.31-2.2-2.4-3.8-2.79s-3.45-.08-4.7,1.12-1.64,2.92-1.39,4.56c.47,3.08,3.71,5.77,6.84,5.58,1.64-.1,3.11-.92,4.03-2.3s.84-3.23.04-4.69c-.76-1.38-2.06-2.54-3.37-3.39-1.4-.92-3.05-1.43-4.72-1.12-3.27.62-4.8,4.69-3.97,7.63s4.53,4.93,7.54,4.48c1.57-.23,2.87-1.35,3.31-2.88s0-3.19-.94-4.44c-.98-1.31-2.42-2.44-3.95-3.05s-3.34-.25-4.46,1.02c-2.36,2.68-.75,6.85,2.56,7.77,1.52.42,3.31.17,4.57-.8.83-.64,1.25-1.6,1.02-2.64-.17-.77-.58-1.57-.95-2.27-.72-1.36-1.98-2.65-3.57-2.87-.77-.11-1.65.18-1.85,1.05-.33,1.45.04,2.88.97,4.04.87,1.08,2.85,2.28,4.09,1.13,1.11-1.03,1.38-2.83.61-4.14s-2.5-1.98-3.96-1.51c-.62.2-1.12.77-1.1,1.45l.05,1.77c.05,1.72,2.41,2,2.95.4.28-.83.21-1.68.2-2.54,0-.21-.02-.44.02-.65-.04.24.07-.19.08-.22-.1.24.04,0,0,.03-.13.11.42-.22.14-.1.41-.17.52-.15.83-.15.14,0,.28,0,.42.02-.31-.04.25.08.31.09.34.07-.13-.1.17.06.08.04.16.09.24.14.14.1.15.1.02.01l.09.09c-.09-.14-.1-.14,0,0q-.05-.17,0,0c.02.09.04.18.05.27l2.74-1.16c-1.03-1.53-2.54-2.6-4.4-2.78-1.72-.16-3.59.75-4.42,2.28-.89,1.65-.64,3.56.09,5.22.34.78.81,1.48,1.3,2.17.54.75,1.09,1.51,1.87,2.03,1.95,1.3,4.21.19,5.76-1.17.61-.53.55-1.58,0-2.12-.61-.61-1.51-.53-2.12,0-.44.38-.99.77-1.57.88.22-.04-.2,0-.25,0,.17.02-.1-.05-.1-.05-.23-.11-.36-.27-.61-.56-.13-.15-.31-.41-.51-.68-.26-.37-.51-.74-.74-1.13-.38-.65-.55-1.04-.68-1.8-.02-.11-.02-.11,0,0,0-.08-.01-.16-.02-.24,0-.19-.01-.38.01-.57-.03.24.06-.21.07-.23.07-.3-.07.03.09-.23.26-.44.53-.58,1.06-.76.33-.11-.13-.03.22-.04.16,0,.31-.01.47,0-.24-.02.25.06.31.08.25.07.14.02.32.12.56.29.95.64,1.26,1.1.41.62,1.17.92,1.87.61.74-.33.97-1,.87-1.77-.33-2.46-3.48-3.23-5.51-2.72-1.24.31-2.28,1.22-2.6,2.48-.15.58-.15,1.19-.13,1.78,0,.28,0,.56.01.84,0,.05-.01.26,0,.09-.02.16-.07.32-.12.47l2.95.4-.05-1.77-1.1,1.45c.09-.03.18-.06.28-.08-.14.02-.15.03-.04.02.11,0,.1,0-.04-.02.07.01.14.03.21.06.1.03.09.03-.02-.01.15.1.17.1.05.01l.11.1c-.08-.12-.07-.11.03.04-.11-.21.04.12.05.18-.06-.32-.04.21,0-.08,0,.06-.05.43-.03.19-.1.15-.1.17,0,.06-.06.07-.13.14-.21.2l1.46-.39c-.19-.03-.38-.07-.56-.14.26.11-.1-.08-.15-.1-.14-.1-.16-.11-.04-.02-.07-.06-.14-.13-.21-.2-.07-.07-.13-.14-.19-.21.07.09.08.1.02.01-.09-.14-.18-.29-.25-.44.11.25-.05-.2-.06-.25-.05-.19-.03-.42,0-.55l-1.85,1.05c.18.03.52.11.59.14-.16-.07.29.18.24.15.01,0,.21.17.08.06.4.34.57.6.82,1.06s.37.87.59,1.31,0,.11.06.09v-.09c.2-.28.24-.36.11-.22-.04-.01,0,.01-.07.05-.07.04-.37.19-.32.17.17-.07-.32.09-.27.08-.1.03-.21.05-.31.07.2-.04-.3.02-.39.02-.11,0-.21,0-.32-.02.24.02-.09-.02-.15-.04-.13-.03-.26-.07-.38-.11l-.15-.05c.09.04.09.03,0-.01-.12-.06-.23-.13-.34-.2.05.03.17.16-.07-.06-.04-.04-.39-.43-.29-.29-.08-.11-.14-.22-.21-.34-.02-.05-.15-.35-.08-.15-.04-.1-.07-.2-.09-.3-.01-.06-.06-.47-.05-.22,0-.11,0-.21,0-.31,0-.04.04-.29,0-.07.02-.1.05-.19.07-.29.11-.42-.06.09.05-.13.05-.09.1-.18.15-.26.13-.2-.22.18.09-.11.07-.07.14-.14.22-.21-.19.15.18-.09.19-.1-.26.14.4-.08.09-.04.29-.03.29-.02.53.05.4.12.87.44,1.29.73.74.51,1.45,1.14,1.83,1.98-.09-.19.01.04.02.07.03.12.07.25.1.37.06.25,0-.19.01.06.01.13,0,.26.01.38,0,.04-.03.29,0,.06-.02.1-.05.2-.07.29-.05.24-.04.15,0,.06-.01.02-.23.39-.09.2-.07.1-.17.19-.26.27-.18.15.16-.09-.05.02-.06.03-.34.16-.1.07-.09.03-.19.06-.28.09s-.19.05-.29.06c.25-.04,0,0-.05,0-.13,0-.25,0-.38,0-.08,0-.35-.03-.14,0-.45-.06-.92-.2-1.34-.37.18.08-.07-.03-.09-.04-.12-.06-.25-.12-.37-.19-.24-.13-.49-.28-.71-.44-1.28-.98-1.3-2.96-.43-4.32.05-.08.11-.17.17-.25-.05.07-.13.13.06-.05.07-.07.14-.14.22-.21.32-.31-.1.05.11-.09.32-.21.68-.35,1-.33.35.02.69.06,1.17.24.33.13.89.46,1.28.73.67.47,1.51,1.26,1.94,1.94.22.36.37.7.38.99,0,.11,0,.22,0,.32.03-.24,0,0-.02.05-.03.09-.05.19-.09.29.1-.24-.09.13-.12.18-.12.21-.39.45-.67.61-.24.14-.62.27-.9.27-.82,0-1.65-.28-2.31-.79-.73-.58-1.24-1.29-1.45-2.09-.03-.13-.07-.27-.09-.41.01.09,0,.16,0-.09,0-.09.04-.6,0-.41.03-.17.13-.53.15-.59-.06.16.16-.29.13-.25.02-.04.27-.36.14-.21.07-.08.15-.16.22-.23.02-.02.22-.15.08-.06.09-.06.18-.11.28-.16-.19.09.11-.04.16-.05.1-.03.21-.06.31-.08.26-.05-.31-.02.16-.01.11,0,.22,0,.32,0,.28,0-.04-.04.25.03.89.2,1.45.57,2.09,1.35.5.6.91,1.57,1.22,2.34-.26-.65.11.31.07.17,0,.03.1-.24.01,0-.06.16.03-.01-.08.11-.03.03-.28.26-.13.14-.39.31-.63.38-1.14.45.2-.03-.07,0-.09,0-.14,0-.27,0-.41,0-.29-.01.34.09-.18-.02-.11-.02-.22-.05-.33-.08-.46-.12-.74-.27-1.19-.56-.34-.22-.66-.5-1-.87-.24-.26-.54-.71-.63-.98-.04-.11-.07-.22-.09-.33-.06-.29.01.33-.01-.19,0-.19-.02-.19.06-.44-.05.15.03-.09.04-.1.22-.4-.05.03.12-.17s-.11.06.09-.09c.09-.07.32-.19.35-.2.75-.33,1.77-.34,2.51-.18.89.19,1.68.56,2.29,1.13.37.34.54.51.74.95.11.24-.04-.15.04.11.02.06.09.39.05.13.01.1,0,.2.01.3.02.35.07-.13-.02.21-.17.7-.54,1.21-1.17,1.43-.78.28-1.63.18-2.36-.24s-1.26-1.06-1.68-1.89c-.16-.32-.29-.67-.37-1.14.04.23,0-.02,0-.06,0-.1,0-.2,0-.3,0-.43-.05.12.02-.11.02-.07.04-.14.06-.21-.05.11-.05.13,0,.03.1-.2-.13.12.03-.05.14-.15-.23.08.12-.1-.25.12.41-.11.13-.06.1-.02.22-.02.32-.02-.04,0,.47.04.28.01-.16-.02.16.04.19.04.15.04.3.08.45.13.59.21,1.35.75,1.78,1.34s.77,1.53.67,2.23c-.02.14-.11.46-.13.48-.04.09-.1.18-.15.27-.23.38.08-.06-.1.12-.02.02-.25.24-.14.14.13-.11-.26.17-.23.15-.03.02-.26.12-.06.04-.01,0-.47.12-.19.08-.1.01-.21.01-.3,0,.23,0-.03,0-.08-.02-.19-.06-.33-.13-.54-.28-.12-.09-.28-.23-.42-.37-.08-.08-.15-.16-.22-.24-.28-.31.07.14-.16-.21-.49-.74-.77-1.54-.79-2.27,0-.11,0-.21,0-.32,0,.05.03-.47.01-.28-.02.15.03-.16.03-.19.03-.52-1.64.31-1.04.57.53.23,1.15.27,1.71.14.79-.18,1.26-1.09,1.05-1.85-.22-.81-1.05-1.23-1.85-1.05h0Z"/>
          <path class="cls-6" d="M58.81,57.95c1.93,0,1.93-3,0-3s-1.93,3,0,3h0Z"/>
          <path class="cls-6" d="M55.75,54.65c-1.94.11-4.3.7-4.75,2.92s1.09,4.61,2.87,5.82c1.95,1.32,4.59,1.36,6.66.29s3.39-3.6,2.11-5.68c-.6-.97-1.69-1.66-2.63-2.27s-2.02-1.15-3.11-1.53c-2.03-.7-4.32-.77-6.24.26s-2.98,3.28-2.18,5.41c.86,2.28,3.17,3.54,5.43,4.06s4.92.39,7.14-.59,3.59-3.51,2.27-5.85c-2.34-4.13-7.67-5.62-11.91-3.74-1.97.87-3.86,2.71-3.72,5.03s2.08,3.98,4.08,4.86c2.21.97,4.64,1.25,7.01.79,2.02-.39,4.34-1.58,4.92-3.72.67-2.46-1.23-4.19-3.03-5.47s-3.95-2.43-6.27-2.44-4.48,1.09-5.58,3.15c-.53.99-.97,2.26-.83,3.4.16,1.24,1.05,2.22,2.02,2.93,1.79,1.32,4.25,1.96,6.43,2.24s4.63,0,6.46-1.32c1.92-1.38,2.94-3.84,1.48-5.95-1.33-1.93-3.71-3.21-5.84-4.05s-4.73-1.25-6.97-.4c-2.06.78-4.11,2.6-4.12,4.96-.01,2.15,1.27,4.42,2.87,5.78,1.74,1.48,3.99,2.22,6.27,2.12s4.87-.89,6.19-3c.65-1.04,1.27-2.36.88-3.6-.33-1.04-1.07-2.02-1.78-2.83-1.39-1.59-3.3-2.77-5.33-3.32-1.2-.32-2.42-.42-3.55.17-1.01.54-1.94,1.4-2.76,2.19-1.58,1.52-4.04,3.95-2.35,6.21.71.95,1.85,1.56,2.81,2.23s2.01,1.65,3.24,1.79,2.6-.36,3.79-.62,2.5-.39,3.63-.86,1.66-1.46,2.14-2.54c.51-1.15,1.32-2.54.75-3.8-.46-1.02-1.64-1.85-2.5-2.54-.94-.76-1.92-1.48-3.03-1.97-2.07-.92-5.14-1.49-6.96.27-.82.8-1.35,2.03-1.92,3.01-.64,1.12-1.09,2.36-.55,3.61.48,1.11,1.6,1.8,2.56,2.47s2.05,1.3,3.22,1.59,2.34.31,3.42-.11c.92-.35,1.73-1.06,2.71-1.22.58-.1,1.17-.85,1.1-1.45-.26-2.12-.92-4.03-2.67-5.37-1.49-1.14-3.33-1.65-5.13-2.07-.75-.18-1.67.23-1.85,1.05-.35,1.62-.4,3.68.51,5.15.97,1.57,3.38,1.69,5.02,1.53.86-.08,1.43-.63,1.5-1.5.15-1.95-.53-3.75-1.74-5.26-.49-.61-1.62-.55-2.12,0-.86.94-1.03,2.28-.39,3.41s1.79,1.62,2.95,2.03c.77.27,1.64-.31,1.85-1.05.37-1.32-.23-2.75-1.41-3.45-1.32-.79-3.01-.41-4.12.58-1.2,1.07-1.35,2.95.13,3.87s3,.08,4.4-.4c.82-.28,1.2-1,1.05-1.85-.19-1.06-.91-1.88-1.68-2.59-.27-.25-.58-.49-.79-.79-.05-.08-.15-.33-.2-.39-.06.06-.06,0-.02-.18-.09.27-.07.29.06.06l-1.3.74c1.86.06,4.88.08,5.45,2.35l2.74-1.16c-.7-1.61-2.03-2.95-3.62-3.68-.68-.31-1.46-.25-1.94.39-.44.59-.42,1.43.12,1.97.88.88,1.77,1.77,2.65,2.65,1.18,1.18,3.3-.36,2.36-1.82-1.61-2.49-4.33-4.1-7.31-4.2-.85-.03-1.7.1-2.4.62-.58.44-1.06,1.03-1.52,1.59-1.05,1.29-1.79,2.61-1.98,4.28-.09.81.75,1.5,1.5,1.5.89,0,1.41-.69,1.5-1.5s.66-1.62,1.18-2.25c.28-.33.71-1.03,1.11-1.23-.13.06.22,0,.27-.01.25-.02.52,0,.78.03,1.73.21,3.33,1.23,4.27,2.68l2.36-1.82c-.88-.88-1.77-1.77-2.65-2.65l-1.82,2.36c1.2.55,2.02,1.39,2.55,2.6.29.68,1.26.88,1.87.61.69-.3,1.06-1.03.87-1.77-.88-3.47-4.57-4.41-7.69-4.53-.48-.02-.98-.07-1.41.18s-.73.76-.88,1.23c-.25.81-.1,1.63.25,2.38.31.67.8,1.22,1.34,1.72.46.42.96.78,1.08,1.41l1.05-1.85c-.51.18-1.01.36-1.52.53-.15.05-.51.08-.63.18.4.11.5.47.29,1.07.05-.07.11-.13.18-.18.27-.13.28-.2.55-.16.13.02-.02.22.02.06l1.85-1.05c-.34-.12-.72-.23-1.01-.46-.31-.24.03-.24-.22.04h-2.12c.71.89.94,2.02.86,3.14l1.5-1.5c-.55.05-1.11.08-1.65,0-.23-.03-.46-.11-.69-.14-.3-.04-.27-.17-.15,0-.46-.67-.31-2.02-.15-2.75l-1.85,1.05c1.32.31,2.67.62,3.83,1.35s1.61,1.89,1.77,3.19l1.1-1.45c-1.42.24-2.49,1.53-3.97,1.42s-2.88-1.15-3.99-2.05c-.5-.4-.46-.53-.14-1.1.43-.77.88-1.55,1.34-2.3.66-1.08,2.69-.49,3.62-.09,1.51.64,2.76,1.76,3.94,2.86-.05-.05.35.33.35.33l-.1-.41c-.04.13-.09.25-.14.38-.13.34-.27.68-.42,1.02-.22.5-.37,1.22-.94,1.36-.87.21-1.74.38-2.61.57-.92.2-1.86.48-2.8.6-.58.08-1.16-.56-1.62-.88-.77-.53-1.61-1.03-2.33-1.62-.12-.1-.34-.47-.33-.27s.04-.01.09-.04c.07-.04.24-.35.27-.4.48-.65,1.05-1.25,1.63-1.81.55-.53,1.12-1.05,1.75-1.49s1-.39,1.74-.19c1.3.35,2.5,1.04,3.47,1.98.45.43.84.9,1.17,1.43.11.17.39.51.41.7.03.23-.32.71-.43.92-.71,1.3-2.13,1.72-3.55,1.82s-2.95-.18-4.16-1.06c-1.01-.73-1.76-1.83-2.08-3.03-.16-.6-.19-1.07.17-1.6s.83-.89,1.37-1.16c2.78-1.39,6.41.33,8.65,2.04.83.63,1.78,1.44.95,2.43-.89,1.06-2.52,1.36-3.83,1.36-1.51,0-2.99-.38-4.4-.9-.82-.3-2.73-.99-2.49-2.11.27-1.29,1.02-2.36,2.33-2.69s2.74.08,3.92.72c1.12.6,2.58,1.41,3.33,2.47.66.93-.4,1.69-1.24,2.05-2.45,1.05-6.19.59-8.08-1.38-.89-.92-.66-1.88.28-2.66,1.08-.89,2.59-1.25,3.96-1.21s2.61.52,3.66,1.33c.7.55,2.24,1.87,1.46,2.81-.86,1.02-2.8,1.2-4.03,1.2-1.47,0-3.02-.35-4.26-1.16-.81-.54-1.54-1.66-.91-2.46.7-.9,2.11-1.05,3.17-.91,1.45.2,2.78.88,3.99,1.67.46.3,1.14.65,1.45,1.12.22.34-.03.73-.29,1.03-.87,1.01-2.6,1.13-3.75.62-1.03-.45-1.89-1.5-2.06-2.63-.07-.42-.05-.45.34-.62s.98-.23,1.46-.26c1.92-.11,1.93-3.11,0-3h0Z"/>
          <path class="cls-14" d="M61.56,57.13c-.12-.32-.2-.51-.45-.76-.21-.2-.47-.35-.75-.43-.55-.15-1.13-.02-1.57.32-.74.57-.85,1.51-.62,2.36.28,1.09,1.16,2.17,2.27,2.48,1.03.29,2.1-.32,2.36-1.35.15-.62.09-1.31-.06-1.92-.28-1.14-1.09-2.34-2.29-2.62-.64-.15-1.36-.07-1.91.3-.68.45-1.1,1.22-1.02,2.05.05.56.22,1.09.44,1.61.2.48.39,1,.69,1.43.38.55.87,1.05,1.54,1.22.77.19,1.61-.03,2.16-.62.48-.51.75-1.22.69-1.92s-.3-1.27-.61-1.87c-.61-1.14-1.58-2.36-3-2.35-.77,0-1.53.46-1.88,1.15-.17.34-.29.72-.26,1.1.02.31.08.59.24.86.09.16.21.33.36.45.32.26.63.44,1.06.44.37,0,.81-.16,1.06-.44s.46-.66.44-1.06c-.02-.37-.14-.82-.44-1.06-.03-.03-.06-.05-.09-.08l.23.3s-.03-.04-.04-.06l.15.36s-.02-.07-.03-.11l.05.4c0-.05,0-.1,0-.15l-.05.4c0-.05.02-.1.04-.15l-.15.36c.03-.07.06-.12.11-.18l-.23.3s.08-.08.12-.12l-.3.23s.09-.06.14-.09l-.36.15c.05-.02.1-.04.16-.05l-.4.05c.07,0,.14,0,.22,0l-.4-.05c.08.01.15.03.22.06l-.36-.15c.11.05.21.11.31.18l-.3-.23c.18.14.33.31.47.48l-.23-.3c.31.41.57.86.78,1.33l-.15-.36c.08.19.14.38.18.59l-.05-.4c.02.14.02.27,0,.4l.05-.4c-.02.09-.04.17-.07.25l.15-.36c-.04.08-.08.16-.14.23l.23-.3c-.05.05-.09.1-.15.15l.3-.23c-.06.04-.11.07-.18.1l.36-.15c-.05.02-.1.03-.15.04l.4-.05c-.05,0-.1,0-.16,0l.4.05c-.07,0-.13-.03-.2-.05l.36.15c-.08-.04-.15-.08-.22-.13l.3.23c-.1-.08-.18-.17-.26-.28l.23.3c-.24-.32-.41-.7-.56-1.07l.15.36c-.18-.42-.36-.86-.43-1.31l.05.4c0-.09-.01-.17,0-.26l-.05.4c.01-.07.03-.13.05-.19l-.15.36c.03-.06.06-.11.1-.17l-.23.3s.09-.09.14-.13l-.3.23c.05-.04.11-.07.17-.1l-.36.15c.08-.03.16-.05.24-.07l-.4.05c.1-.01.2-.01.3,0l-.4-.05c.09.02.17.04.25.08l-.36-.15c.09.04.17.09.25.15l-.3-.23c.12.1.23.21.33.33l-.23-.3c.12.17.22.35.31.54l-.15-.36c.12.28.19.56.23.86l-.05-.4c.02.22.03.43.01.65l.05-.4c-.01.07-.03.13-.05.2l.15-.36s-.03.06-.05.09l.23-.3s-.04.05-.06.07l.3-.23s-.06.04-.09.05l.36-.15-.05.02.4-.05s-.07,0-.11,0l.4.05c-.08-.01-.15-.03-.23-.07l.36.15c-.1-.05-.2-.11-.3-.18l.3.23c-.15-.12-.29-.25-.41-.4l.23.3c-.12-.15-.21-.31-.29-.49l.15.36c-.07-.18-.13-.36-.16-.55l.05.4c-.01-.09-.02-.19,0-.28l-.05.4c.01-.06.02-.1.05-.16l-.15.36.03-.05-.23.3s.04-.05.06-.07l-.3.23s.05-.03.07-.04l-.36.15s.06-.02.08-.02l-.4.05s.06,0,.08,0l-.4-.05s.05.01.08.03l-.36-.15.03.02-.3-.23.03.03-.23-.3.02.03-.15-.36v.04c.16.38.34.69.7.9.32.19.8.27,1.16.15s.71-.34.9-.69.3-.79.15-1.16h0Z"/>
          <path class="cls-14" d="M73.74,57.78c.2.8.59,1.5,1.1,2.14.18.23.38.44.61.62.24.2.47.39.75.51.49.21,1.08.14,1.51-.17s.8-.76.92-1.32c.1-.49.07-.91,0-1.4-.1-.61-.38-1.24-.66-1.78-.43-.84-1.12-1.47-2.01-1.77-.71-.24-1.71.28-1.85,1.05-.12.68-.12,1.27,0,1.95.1.51.31,1.02.58,1.46.37.6.94,1.28,1.65,1.48.62.17,1.32.05,1.78-.44.3-.32.49-.72.5-1.17,0-.29-.06-.66-.24-.9-.24-.32-.49-.58-.9-.69-.36-.1-.84-.05-1.16.15s-.6.51-.69.9-.09.84.15,1.16l.02.03-.15-.36v.04c0-.13-.02-.27-.04-.4,0,.03,0,.05,0,.08l.05-.4v.04c.04-.12.09-.24.14-.36l-.02.04.23-.3s-.04.05-.06.06l.3-.23s-.05.03-.07.04l.36-.15h-.04c.13,0,.27-.03.4-.04h-.06c.13.02.27.04.4.05-.04,0-.08-.01-.11-.03l.36.15c-.06-.03-.1-.05-.15-.09l.3.23c-.16-.13-.3-.28-.42-.45l.23.3c-.17-.22-.3-.46-.41-.72l.15.36c-.11-.26-.18-.52-.22-.8l.05.4c-.04-.28-.04-.55,0-.83l-.05.4c0-.05.02-.11.03-.16l-1.85,1.05s.09.03.14.05l-.36-.15c.12.05.23.12.33.2l-.3-.23c.13.1.24.22.34.34l-.23-.3c.19.24.33.51.45.79l-.15-.36c.16.39.32.8.38,1.21l-.05-.4c.02.15.02.3,0,.45l.05-.4c-.01.08-.03.16-.06.24l.15-.36c-.03.06-.06.11-.1.17l.23-.3s-.05.06-.08.08l.3-.23s-.09.06-.14.08l.36-.15-.04.02,1.16.15c-.06-.04-.12-.09-.18-.13l.3.23c-.27-.21-.5-.45-.71-.71l.23.3c-.2-.27-.37-.56-.51-.87l.15.36c-.08-.19-.14-.39-.19-.59-.19-.76-1.09-1.29-1.85-1.05s-1.25,1.03-1.05,1.85h0Z"/>
          <path class="cls-4" d="M58.79,60.73c.42-.45.74-.98.92-1.57.06-.2-.04-.46-.23-.56s-.44-.08-.61.08c-.53.52-.93,1.15-1.2,1.85-.12.3.18.65.48.63.59-.03,1.08-.35,1.41-.83.29-.43.4-1.03.22-1.53-.04-.12-.11-.24-.23-.3-.13-.07-.24-.07-.39-.05-.82.11-1.55.84-1.69,1.65-.02.14-.02.26.05.39.06.1.18.2.3.23.24.06.57-.07.62-.35.01-.08.03-.15.06-.23,0-.02.01-.04.02-.06.03-.08-.04.09-.02.04.02-.03.03-.07.05-.1.02-.04.04-.07.06-.11.02-.03.06-.07.07-.1,0,0-.08.09-.03.04.01-.02.03-.03.04-.05.03-.03.06-.06.09-.09.03-.03.05-.05.08-.07.02-.01.08-.06,0,0s0,0,0,0c.06-.04.13-.09.2-.12.02,0,.04-.02.06-.03.06-.03-.04.02-.05.02.03,0,.08-.03.12-.04.08-.02.16-.04.24-.05l-.62-.35c.03.08.05.15.06.24l-.02-.13c.01.11.01.22,0,.33l.02-.13c0,.07-.02.13-.04.19-.01.04-.02.07-.04.1-.02.07.02-.06.02-.06,0,0-.02.04-.02.05-.03.06-.06.12-.1.17-.01.02-.02.03-.03.05-.04.06.04-.05.04-.05,0,.02-.06.07-.07.08-.02.02-.12.14-.15.14,0,0,.11-.08.05-.04-.02.01-.03.02-.05.03-.03.02-.06.04-.08.05,0,0-.09.05-.1.05,0,0,.12-.05.06-.03-.02,0-.03.01-.05.02-.07.02-.13.04-.2.05l.13-.02s-.06,0-.09,0l.48.63s.01-.04.02-.05c.02-.06-.01.02-.02.04.01-.04.03-.07.05-.11.03-.07.07-.14.1-.21.07-.14.16-.28.25-.42.04-.07.09-.13.13-.19.01-.02.02-.03.04-.05.04-.05-.06.08-.02.03.02-.03.05-.06.07-.09.1-.12.21-.24.33-.36l-.84-.49c-.02.07-.04.13-.06.19-.01.03-.02.05-.03.08-.04.1.05-.11,0-.01-.05.11-.11.23-.17.34s-.13.21-.21.32c-.05.08.07-.09,0,0-.02.02-.04.05-.06.07-.04.05-.09.1-.14.15-.18.19-.2.52,0,.71s.51.2.71,0h0Z"/>
          <path class="cls-4" d="M74.93,58.44c-.31.45-.39,1.06-.21,1.58.1.29.45.49.73.3.84-.56,1.26-1.6,1.04-2.58-.07-.33-.46-.44-.73-.3-.44.22-.81.6-1.02,1.04-.24.49-.32,1.01-.22,1.55.06.31.48.46.73.3.31-.2.57-.46.76-.77s.3-.67.34-1.03c.03-.25-.25-.53-.5-.5-.33.04-.63.16-.86.42s-.35.55-.36.88c0,.26.23.51.5.5s.5-.22.5-.5c0-.02,0-.04,0-.06.01.1-.02.09,0,.03,0-.04.02-.07.03-.11.02-.06-.05.1-.01.03,0-.02.02-.03.03-.05,0-.01.03-.03.03-.05-.01.03-.07.09-.02.02.03-.03.05-.05.08-.08.04-.04-.1.07-.02.02.02,0,.03-.02.05-.03s.03-.02.05-.03c.06-.03-.02.02-.04.02.03,0,.21-.04.03-.02l-.5-.5c-.01.11.02-.11,0-.01,0,.04-.01.07-.02.11-.01.06-.03.12-.05.18,0,.01-.01.03-.02.04-.02.05-.01.04.02-.03-.02.02-.03.06-.04.08-.03.06-.06.11-.09.16-.02.03-.03.05-.05.08-.02.03-.09.09,0,0-.04.04-.08.09-.12.14s-.09.08-.14.13c-.07.07.09-.07,0,0-.03.02-.06.04-.09.06l.73.3s-.02-.11,0-.02,0,0,0-.02c0-.05,0-.09,0-.14s0-.09,0-.14c0-.02,0-.05,0-.07,0-.06-.02.12,0,.03.02-.09.04-.19.07-.28.01-.05.04-.09.05-.13-.01.04-.04.1-.01.03,0-.02.02-.04.03-.06.04-.09.09-.17.15-.24.01-.02.02-.03.03-.05-.07.12-.03.04,0,.01.03-.03.06-.06.09-.1.03-.03.07-.07.1-.1.02-.02.04-.03.05-.05.08-.07-.07.05-.02.02.08-.06.17-.11.26-.16l-.73-.3s.02.09.02.13c.01.06-.01-.12,0-.03,0,.02,0,.04,0,.06,0,.09,0,.18,0,.28,0,.02,0,.05,0,.07,0-.02.02-.11,0-.05,0,.04-.02.09-.03.13-.02.09-.05.18-.08.27-.02.06,0-.02.02-.04-.01.02-.02.05-.03.07-.02.04-.04.08-.06.12s-.04.08-.07.11c-.01.02-.03.04-.04.06-.04.05.01-.02.03-.03-.06.07-.12.14-.19.2-.03.03-.07.06-.1.09-.05.04.01-.02.03-.02-.02.01-.05.04-.07.05l.73.3s-.03-.09-.04-.14c0-.02,0-.04-.01-.06-.01-.06,0,.11,0,.02,0-.05,0-.1,0-.14,0-.02,0-.04,0-.06,0-.04.03-.1,0,.02.02-.09.04-.18.07-.26.03-.08.02-.01,0,.02.01-.01.02-.04.03-.06.02-.05.05-.09.08-.14.15-.22.05-.56-.18-.68-.25-.13-.53-.05-.68.18h0Z"/>
          <path class="cls-17" d="M64.44,67.86c.41.15.84.03,1.14-.27.19-.19.19-.51,0-.71-.54-.57-1.29-.88-2.08-.85-.46.01-.63.53-.35.85.96,1.14,2.64.91,3.93.61.36-.08.5-.59.22-.84-1.03-.92-2.43-1.29-3.78-.98-.24.06-.45.37-.35.62.41,1,1.26,1.8,2.35,2s2.26-.19,3-1.05c.13-.16.21-.42.08-.61-.67-.94-1.8-1.28-2.92-1.2-.59.04-1.23.14-1.79.33-.47.16-.94.54-.83,1.08s.67.81,1.13,1.01c.48.21.98.34,1.5.4,1.05.12,2.13-.12,3.04-.67.3-.18.35-.69,0-.86-.97-.48-1.97-.96-3.07-1.05-.89-.07-2.18.17-2.71.99-.63.97.87,1.9,1.61,2.19.89.35,1.9.34,2.78-.04.98-.42,1.72-1.25,2.07-2.25.1-.27-.11-.52-.35-.62-.94-.37-2.14-.41-3.04.09-.83.46-1.32,1.57-.48,2.29s1.92.29,2.86.16c.42-.06.85-.16,1.15-.48.32-.34.4-.82.22-1.25-.19-.47-.64-.83-1.15-.91-.65-.1-1.26.18-1.82.5-.19.11-.29.35-.23.56.28.94,1.31,1.23,2.19,1.09.48-.07.98-.29,1.27-.68s.32-.96,0-1.35c-.71-.89-2.07.1-1.65,1.08s1.97.48,1.89-.53c-.04-.54-.63-.86-1.11-.9s-1.01.2-1.25.65c-.3.57.56,1.07.86.5.11-.21.45-.22.56,0l-.07-.25c.01.11.03.07.03.03,0,.02-.07.06-.08.05.02.03.08.05.1.06,0,0-.06-.05-.06-.04,0,0,.01.08,0,.11-.04.06-.1.1-.17.14-.38.24-1.39.38-1.56-.2l-.23.56c.33-.19.76-.46,1.16-.38.16.03.47.24.38.45-.08.19-.5.21-.66.23-.41.06-.82.15-1.22.21-.25.03-.65.05-.82-.18-.18-.25.14-.5.33-.61.68-.4,1.61-.29,2.31-.01l-.35-.62c-.59,1.68-2.61,2.31-4.07,1.35-.17-.11-.33-.24-.46-.39-.04-.04-.08-.08-.11-.13-.02.09-.01.11.03.05.05,0,.21-.16.26-.19.38-.22.82-.31,1.26-.31,1.03,0,1.98.48,2.87.92v-.86c-1.22.73-2.8.75-4.02,0-.03-.02-.13-.11-.16-.1,0,.04,0,.08-.01.12-.03.05-.02.06.01.03.04.01.34-.12.4-.13.45-.1.91-.2,1.37-.23.69-.03,1.5.11,1.93.71l.08-.61c-.5.58-1.25.92-2.02.79-.71-.12-1.37-.63-1.65-1.3l-.35.62c.99-.23,2.05.04,2.81.72l.22-.84c-.94.22-2.24.5-2.95-.35l-.35.85c.53-.02,1,.17,1.37.56v-.71c-.07.07-.08.05-.17.02-.6-.22-.86.74-.27.96h0Z"/>
          <path class="cls-17" d="M84.35,44.33c-.09-.37.14-.73.36-1.01.24-.3.55-.69.9-.87s.63.08.86.32c.32.32.59.69.8,1.1.33.64.42,1.45-.08,2.03-.47.54-1.15.43-1.58-.11-.67-.82-.37-2-.16-2.94.07-.29-.14-.66-.48-.63-.46.03-.83.29-1.02.71-.22.48-.15.98.08,1.45.2.4.51.81.83,1.12s.74.58,1.21.57c.93-.04,1.44-1.08,1.12-1.9-.17-.43-.51-.77-.91-1s-.96-.43-1.41-.17c-.87.51-.28,1.81.13,2.42.26.38.58.73.96,1,.49.35,1.13.22,1.32-.38.15-.45.09-1.01.02-1.48-.07-.5-.23-.98-.45-1.43s-.53-.87-1.06-.88c-.48-.01-.83.36-1.01.76-.34.79-.39,1.97.3,2.61.63.58,1.75.63,2.19-.21.4-.77.03-1.83-.44-2.49-.51-.71-1.42-1.22-2.26-.69-.73.47-1.07,1.46-.99,2.29s.54,1.63,1.37,1.82c.71.16,1.54-.12,1.92-.75.51-.84-.1-1.73-.75-2.26-.7-.58-1.81-1.07-2.55-.26s-.32,1.84.16,2.62c.24.38.51.77.94.94.4.15.85.05,1.16-.25.64-.63.48-1.64-.14-2.21-.32-.29-.7-.49-1.08-.67-.32-.15-.77.02-.75.43.03.72.11,1.5.67,2.02.5.45,1.32.6,1.82.07.41-.43.49-1.19,0-1.59-.6-.51-1.39-.12-1.86.37s.26,1.18.71.71c.1-.11.22-.22.36-.28.03-.01.12-.03.13-.04,0,0-.01-.05-.02-.04,0,0,.02.09.01-.02,0,.03,0,.07,0,.1,0-.05,0-.04-.01.02-.01.04-.05.09-.1.11-.13.04-.39-.14-.5-.3-.21-.32-.21-.76-.23-1.13l-.75.43c.39.18.97.41,1.12.84.04.11.01.28-.05.39,0,.01-.09.12-.08.09-.03.05-.07.02,0,.01-.06,0-.04.01-.11-.02-.19-.08-.31-.34-.41-.5-.15-.25-.31-.5-.38-.78-.09-.32-.01-.82.43-.77.48.06,1.02.52,1.28.91.12.18.16.35.12.48.03-.09-.1.15-.04.08-.08.1-.09.1-.18.15-.28.17-.63.2-.88,0-.33-.26-.41-.74-.37-1.13.04-.37.21-.92.59-1.08.15-.07.27-.04.4.03.2.1.36.28.48.47.13.2.23.41.3.64.06.21.15.51.06.72-.06.15-.14.16-.26.16-.13,0-.29-.06-.4-.19-.3-.33-.23-1-.07-1.41.02-.06.07-.12.09-.17.04-.13.04,0,0-.03.18.15.29.49.36.7.1.27.17.56.21.85.02.15.03.3.03.45,0,.13-.04.31-.02.43l-.02.06c-.04-.08.04-.12.26-.1,0-.02-.12-.08-.15-.1-.1-.08-.19-.17-.28-.26-.2-.21-.37-.44-.5-.7-.06-.12-.12-.24-.16-.37-.05-.14-.05-.26-.08-.38.01.04,0-.05.01-.05,0,.03-.03.06-.06.07-.07,0-.06.01.03,0,.1.04.21.07.3.12.21.11.45.27.55.5.07.16.05.36-.03.47-.1.13-.21.13-.38.04-.25-.13-.44-.38-.6-.61-.17-.24-.42-.54-.43-.85,0-.08.02-.16.06-.23.08-.13-.02.02.08-.09,0,0,.08-.01.03-.01l-.48-.63c-.29,1.25-.54,2.66.29,3.75.72.94,1.99,1.24,2.93.44s1.01-2.11.54-3.17c-.24-.56-.62-1.08-1.04-1.52s-1.02-.82-1.67-.67-1.16.74-1.55,1.24c-.45.57-.75,1.21-.58,1.95.14.63,1.11.36.96-.27h0Z"/>
          <path class="cls-17" d="M46.62,44.96c-.66-.13-1.42-.3-1.87-.85-.18-.21-.3-.48-.29-.76,0-.09.04-.23.06-.29.03-.07.09-.16.15-.21.12-.13.32-.24.49-.3.25-.08.4-.1.68-.08.18.01.45.08.61.17.27.15.5.35.7.58.5.57.8,1.3,1.09,1.98l.43-.75c-.8,0-1.15-1.26-1.54-1.81-.31-.43-.73-.83-1.28-.89-.68-.07-1.05.51-.97,1.13.14,1.01.74,1.93,1.55,2.53.45.34,1.16.52,1.52-.05.3-.48.03-1.06-.24-1.48-.58-.94-1.52-1.64-2.59-1.92-.36-.1-.72.25-.62.62.33,1.18,1.09,2.2,2.11,2.87.47.31,1.23.77,1.78.42s.42-1.07.13-1.53c-.34-.54-.96-.97-1.49-1.29-.5-.3-1.17-.68-1.78-.51-.31.09-.57.32-.66.63s.01.66.13.95c.24.59.63,1.09,1.14,1.48.44.34,1,.62,1.57.59s1.2-.38,1.2-1.04c0-.72-.7-1.2-1.23-1.56s-1.33-.86-2.02-.72-.99.86-.87,1.49c.11.6.62,1.05,1.07,1.41.49.39,1.11.77,1.76.7.71-.07,1.18-.65,1.22-1.35.04-.75-.44-1.36-.98-1.82-.58-.5-1.35-1.1-2.14-.69-.59.31-.8,1.06-.65,1.67.18.71.81,1.17,1.38,1.56.22.15.55.04.68-.18.14-.25.04-.53-.18-.68-.32-.22-.67-.44-.86-.79-.07-.12-.08-.2-.08-.32,0-.15.03-.21.1-.33-.04.06.05-.04.02-.02s.05-.03.06-.04c.01,0,.04-.02.12-.01.2.02.4.18.54.29.32.25.67.52.87.88.13.22.18.56,0,.74-.21.2-.56.04-.8-.1-.35-.2-.68-.47-.95-.77-.09-.1-.19-.25-.21-.37,0-.01,0-.15,0-.16,0-.04.04-.11.05-.13.05-.05.2-.02.33.02.22.07.42.19.62.3.37.21.8.45,1.07.78.04.05.08.1.09.17,0,.01-.03-.04,0-.01v-.03s0,.03,0,.04c0-.02.03-.04-.02,0,.06-.05,0,0-.02,0,.09-.03-.18.04-.1.03-.3.04-.61-.1-.9-.29s-.54-.45-.73-.74c-.1-.16-.19-.32-.25-.5,0-.03-.05-.22-.06-.22-.03,0,.27-.25-.04.05-.03.03-.09,0,0,0-.09,0,.13,0,.08,0,.08,0,.16.03.23.06.21.07.41.19.6.3.39.23.75.5,1.07.82.12.12.21.23.25.36,0,.03.02.07.03.1-.01-.07,0,.02,0,.04-.04.06.02-.06.02-.07.03-.04.09-.06.11-.08.04-.05.09.03-.03-.04-.03-.02-.07-.03-.11-.04-.11-.04-.21-.1-.31-.15-.19-.1-.38-.22-.55-.35-.69-.53-1.19-1.28-1.43-2.11l-.62.62c.66.18,1.24.55,1.7,1.06.2.23.43.54.51.82,0-.01.03.08.02.06.04.11-.04.04.01.01v-.04c.05-.06.09-.09.15-.08.01-.03.04.02-.03-.02-.14-.08-.28-.17-.4-.28-.48-.42-.91-1.08-.96-1.73,0-.13,0-.1-.08.01-.06.08-.12-.06,0,.02.15.09.26.16.38.29.23.25.38.57.54.87.41.76,1.01,1.54,1.96,1.55.41,0,.58-.42.43-.75-.62-1.44-1.5-3.13-3.27-3.23-.67-.04-1.4.18-1.87.67-.59.61-.63,1.52-.23,2.24.53.96,1.6,1.34,2.62,1.54.26.05.54-.08.62-.35.07-.25-.08-.56-.35-.62h0Z"/>
        </g>
        <g>
          <path class="cls-9" d="M109.77,68.6c-.11-.15,2.4-2.5,6.98-1.45l4.57,1.05s-6.76,6.76-11.55.4Z"/>
          <path class="cls-9" d="M20.64,31.55c-.18.18-6.61,1.52-2.3,9.3s12.71,2.99,15.64-.09c.12-.13,6.46-6.02-1.58-11.19-2-.99-3.68-.91-3.68-.91"/>
          <path class="cls-9" d="M21.9,32.81c-.18-.18-1.2-4.49,2.03-8.26s3.23-4.01,3.23-4.01c.01-.31,3.5,6.86,0,10.53-.96.84-1.97,1.67-3.11,1.73"/>
          <path class="cls-9" d="M21.24,31.19c-.24-.12-1.79-2.15-1.38-4.01"/>
          <line class="cls-9" x1="56.15" y1="39.92" x2="53.07" y2="33.56"/>
          <line class="cls-9" x1="51.57" y1="30.51" x2="49.54" y2="26.68"/>
          <line class="cls-9" x1="48.28" y1="24.4" x2="46.79" y2="22.05"/>
          <line class="cls-9" x1="59.41" y1="39.06" x2="56.54" y2="30.15"/>
          <path class="cls-9" d="M55.4,27.45c-.12-.18-2.86-6.91-2.86-6.91"/>
          <line class="cls-9" x1="63.42" y1="38.64" x2="63.12" y2="26.14"/>
          <line class="cls-9" x1="63.12" y1="23.45" x2="63.12" y2="19.46"/>
          <line class="cls-9" x1="58.25" y1="19.85" x2="58.93" y2="23.23"/>
          <line class="cls-9" x1="59.41" y1="27.19" x2="60.13" y2="31.46"/>
          <line class="cls-9" x1="68.98" y1="39.06" x2="69.64" y2="33.56"/>
          <line class="cls-9" x1="70.06" y1="30.15" x2="70.71" y2="26.68"/>
          <line class="cls-9" x1="71.31" y1="23.23" x2="72.15" y2="19.03"/>
          <line class="cls-9" x1="74" y1="39.92" x2="75.8" y2="34.6"/>
          <line class="cls-9" x1="77" y1="30.92" x2="81" y2="19.42"/>
          <line class="cls-9" x1="85.91" y1="35.38" x2="86.63" y2="33.92"/>
          <line class="cls-9" x1="88.06" y1="31.19" x2="90.04" y2="27.45"/>
          <line class="cls-9" x1="92.68" y1="22.97" x2="91.29" y2="25.17"/>
          <line class="cls-9" x1="87.22" y1="21.13" x2="84.35" y2="26.68"/>
          <line class="cls-9" x1="82.8" y1="29.85" x2="81" y2="32.81"/>
          <line class="cls-9" x1="76.7" y1="40.38" x2="79" y2="36.12"/>
          <line class="cls-9" x1="90.16" y1="37.26" x2="93.15" y2="33.92"/>
          <line class="cls-9" x1="95.54" y1="31.46" x2="99.66" y2="27.18"/>
          <line class="cls-9" x1="91.65" y1="42.45" x2="93.86" y2="40.62"/>
          <line class="cls-9" x1="96.14" y1="39.06" x2="100.5" y2="35.59"/>
          <line class="cls-9" x1="103.03" y1="33.86" x2="104.09" y2="32.78"/>
          <line class="cls-9" x1="88.66" y1="51.98" x2="97.34" y2="47.2"/>
          <line class="cls-9" x1="100.44" y1="45.52" x2="102.36" y2="44.44"/>
          <line class="cls-9" x1="105.17" y1="43.13" x2="111.46" y2="39.59"/>
          <line class="cls-9" x1="90.1" y1="57.13" x2="93" y2="56.71"/>
          <line class="cls-9" x1="96.14" y1="56.35" x2="99.19" y2="55.81"/>
          <line class="cls-9" x1="102.72" y1="55.09" x2="114.02" y2="53.18"/>
          <line class="cls-9" x1="89.86" y1="54.73" x2="92.76" y2="53.84"/>
          <line class="cls-9" x1="96.26" y1="52.16" x2="105.89" y2="49.59"/>
          <line class="cls-9" x1="109.72" y1="48.51" x2="113.67" y2="47.53"/>
          <line class="cls-9" x1="89.9" y1="62.06" x2="98.59" y2="62.51"/>
          <line class="cls-9" x1="102" y1="62.87" x2="105.17" y2="63.05"/>
          <line class="cls-9" x1="108.7" y1="63.83" x2="115.22" y2="64.55"/>
          <line class="cls-9" x1="87.58" y1="67.83" x2="98.71" y2="68.19"/>
          <line class="cls-9" x1="90.1" y1="71.08" x2="97.66" y2="72.82"/>
          <line class="cls-9" x1="93.15" y1="74.95" x2="96.8" y2="75.7"/>
          <line class="cls-9" x1="99.73" y1="76.93" x2="102.42" y2="77.7"/>
          <line class="cls-9" x1="108.88" y1="79.62" x2="114.2" y2="81.17"/>
          <line class="cls-9" x1="94.97" y1="81.11" x2="101.07" y2="83.87"/>
          <line class="cls-9" x1="103.91" y1="85.18" x2="106.31" y2="86.32"/>
          <line class="cls-9" x1="109.84" y1="87.93" x2="115.03" y2="90.72"/>
          <line class="cls-9" x1="93.15" y1="86.44" x2="98.02" y2="89.22"/>
          <line class="cls-9" x1="100.27" y1="91.01" x2="114.42" y2="99.61"/>
          <line class="cls-9" x1="93.88" y1="92.54" x2="95.96" y2="94.21"/>
          <line class="cls-9" x1="98.02" y1="96.3" x2="100.83" y2="98.4"/>
          <line class="cls-9" x1="103.73" y1="100.62" x2="111.39" y2="107.26"/>
          <line class="cls-9" x1="93.75" y1="99.84" x2="95.84" y2="101.75"/>
          <line class="cls-9" x1="97.51" y1="103.55" x2="105.11" y2="111.23"/>
          <line class="cls-9" x1="91.73" y1="105.08" x2="94.46" y2="109.17"/>
          <line class="cls-9" x1="95.9" y1="111.44" x2="97.07" y2="113.33"/>
          <line class="cls-9" x1="50.97" y1="40.91" x2="45.29" y2="31.16"/>
          <line class="cls-9" x1="43.08" y1="27.75" x2="40.96" y2="24.4"/>
          <line class="cls-9" x1="35.6" y1="27.19" x2="37.87" y2="30.15"/>
          <line class="cls-9" x1="38.95" y1="32.39" x2="40.56" y2="34.6"/>
          <line class="cls-9" x1="43.2" y1="38.43" x2="42.02" y2="36.31"/>
          <line class="cls-9" x1="35.3" y1="39.06" x2="38.71" y2="41.57"/>
          <line class="cls-9" x1="38.95" y1="50.88" x2="29.02" y2="48.15"/>
          <line class="cls-9" x1="24.65" y1="47.08" x2="21.61" y2="46.06"/>
          <line class="cls-9" x1="19.21" y1="44.62" x2="17.16" y2="43.84"/>
          <line class="cls-9" x1="41.01" y1="48.34" x2="34.34" y2="44.23"/>
          <line class="cls-9" x1="37.15" y1="56.41" x2="26.75" y2="56.05"/>
          <line class="cls-9" x1="23.13" y1="55.93" x2="19.63" y2="55.87"/>
          <line class="cls-9" x1="16.99" y1="55.9" x2="14.68" y2="55.9"/>
          <line class="cls-9" x1="15.84" y1="50.43" x2="31.41" y2="52.88"/>
          <line class="cls-9" x1="34.88" y1="53.42" x2="38.09" y2="53.89"/>
          <line class="cls-9" x1="38.11" y1="63.83" x2="22.14" y2="68.13"/>
          <line class="cls-9" x1="13.93" y1="70.11" x2="18.79" y2="68.91"/>
          <line class="cls-9" x1="37.37" y1="60.09" x2="25.01" y2="62.45"/>
          <line class="cls-9" x1="14.68" y1="64.06" x2="17.65" y2="63.59"/>
          <line class="cls-9" x1="19.87" y1="63.17" x2="22.5" y2="62.63"/>
          <circle class="cls-9" cx="74" cy="58.47" r="7"/>
          <ellipse class="cls-9" cx="56.15" cy="59.01" rx="9.36" ry="7.54"/>
          <path class="cls-9" d="M62.35,66.92c.5,1.61,2.33,2.15,4.74,2.04s3.37-1.58,3.5-2.56c.15-1.11-2.12-.83-4.53-.72s-4.05.17-3.72,1.24Z"/>
          <path class="cls-9" d="M51.57,40.82s20.46-5.02,26.8,1.67c1.08-4.91,3.35-8.14,8.49-6.82,2.45.63,3.62,2.58,4.18,4.45.79,2.64.44,5.48-.89,7.9-.96,1.75-2.5,3.31-4.84,2.73"/>
          <path class="cls-9" d="M51.57,43.82s-.84-7.3-8.37-5.38c-4.15,1.05-4.56,3.41-4.1,5.32s1.91,3.58,3.74,4.45c.69.33,1.5.62,2.43.77"/>
          <path class="cls-9" d="M87.82,50.88s5.68,10.76-1.08,17.4c4.8,4.37,12.2,11.49,5.08,18.48s-22.73,11.9-26.8,3.77c-1.08-3.11,2.45-3.53,6.28-4.25s14.36-6.58,14.36-6.58"/>
          <path class="cls-9" d="M41.66,47.53c-.44.47-10.19,11.96.88,21.47-6.16,7-11.78,14.3-3.47,22.01"/>
          <path class="cls-9" d="M42.54,92.45c0,.06,16.27,5.86,17.83,3.11s-5.68-7.84-5.68-7.84l-11.49-7.24"/>
          <path class="cls-9" d="M93.21,85.99c.06.24,2.87,19.08-4.85,22.55-.54,7.42-3.65,13.38-6.4,14.23s-5.86-.23-5.38-9.56c-4.25-3.89-22.01-1.26-22.01.84s-.54,7.9-3.89,8.67-7.6-7.36-6.7-12.32c-9.15-6.4-6.89-21.54-6.89-21.54"/>
          <path class="cls-9" d="M42.84,117.22c-.3.06-22.91-1.62-26.62-12.44s-2.21-36.19-2.21-36.19c0,0,.18-24.35,4.67-26.56"/>
          <path class="cls-9" d="M34.11,27.81s9.93-6.73,22.31-7.8c12.38-1.08,26.34-2.27,35.13,2.33s18.94,9.77,21.88,21.77c1.59,6.48,2.49,19.31,1.89,22.3"/>
          <path class="cls-9" d="M115.5,71.75c.33,2.21.81,32.77-4.21,36.72s-18.08,6.34-22.04,6.42"/>
          <path class="cls-9" d="M111.4,67.47c-.24-.18-11.61-4.51-10.48,5.78,1.01,9.17,15.26,4.42,14.03-1.68"/>
          <line class="cls-9" x1="13.71" y1="79.62" x2="25.22" y2="75.33"/>
          <line class="cls-9" x1="28.27" y1="74.08" x2="41.73" y2="68.97"/>
          <line class="cls-9" x1="13.95" y1="89.8" x2="18.19" y2="88.39"/>
          <line class="cls-9" x1="21.38" y1="87.19" x2="28.9" y2="84.85"/>
          <line class="cls-9" x1="34.34" y1="83.06" x2="31.95" y2="83.87"/>
          <line class="cls-9" x1="37.01" y1="75.7" x2="27.46" y2="79.11"/>
          <line class="cls-9" x1="13.75" y1="84.5" x2="18.76" y2="82.49"/>
          <line class="cls-9" x1="36.12" y1="87.38" x2="28.27" y2="92.39"/>
          <line class="cls-9" x1="25.14" y1="94.84" x2="22.08" y2="96.3"/>
          <line class="cls-9" x1="18.58" y1="98.49" x2="15.03" y2="99.95"/>
          <line class="cls-9" x1="18.51" y1="108.52" x2="25.76" y2="103.16"/>
          <line class="cls-9" x1="28.27" y1="101.18" x2="34.34" y2="96.88"/>
          <line class="cls-9" x1="24.65" y1="112.8" x2="27.55" y2="110.34"/>
          <line class="cls-9" x1="29.53" y1="108.45" x2="32.23" y2="106.3"/>
          <line class="cls-9" x1="34.34" y1="104.14" x2="37.42" y2="101.54"/>
          <line class="cls-9" x1="33.15" y1="115.69" x2="35.88" y2="112.39"/>
          <line class="cls-9" x1="38.71" y1="110.07" x2="40.86" y2="107.39"/>
          <line class="cls-9" x1="40.31" y1="116.98" x2="43.97" y2="110.4"/>
        </g>
      </g>
    </g>
  </g>
  <g id="camel">
    <g class="cls-15">
      <rect class="cls-13" x="-43.79" y="130.94" width="227.52" height="227.52"/>
    </g>
  </g>
</svg>