<?xml version="1.0" encoding="UTF-8"?>
<svg id="zoo" xmlns="http://www.w3.org/2000/svg" xmlns:xlink="http://www.w3.org/1999/xlink" viewBox="0 0 132 132">
  <defs>
    <style>
      .cls-1 {
        stroke-miterlimit: 10;
      }

      .cls-1, .cls-2, .cls-3 {
        fill: none;
      }

      .cls-1, .cls-3 {
        stroke: #501a36;
      }

      .cls-4 {
        fill: #fff;
      }

      .cls-5 {
        fill: #d6e4f2;
      }

      .cls-6 {
        fill: #e30613;
      }

      .cls-7 {
        clip-path: url(#clippath-1);
      }

      .cls-8 {
        fill: #36a9e1;
      }

      .cls-9 {
        fill: #1d1d1b;
      }

      .cls-10 {
        fill: #f9b233;
      }

      .cls-3 {
        stroke-linecap: round;
        stroke-linejoin: round;
      }

      .cls-11 {
        clip-path: url(#clippath);
      }

      .cls-12 {
        fill: #ffed00;
      }

      .cls-13 {
        fill: #ff845b;
      }
    </style>
    <symbol id="_Новый_символ" data-name="Новый символ" viewBox="0 0 131.52 131.52">
      <g>
        <rect class="cls-5" y="0" width="131.52" height="131.52"/>
        <g>
          <path class="cls-6" d="M58.32,28.26c-10.83.9-14.18,11.83-10.88,21.14,2.69,7.6,12.68,14.6,20.23,8.64s3.06-17.98-2.48-23.63c-6.74-6.87-17.92-6.54-22.6,2.27-4.07,7.66-3.22,19.03,2.99,25.43s16.99,5.9,22.81-.25c6.39-6.75,4.6-16.2-1.15-22.77-5.42-6.2-15.76-9.32-22-2.29-5.8,6.54-2.68,22.72,3.52,28.17,3.61,3.17,9.26,2.06,11.59-2.14,2.55-4.59.44-10.02-2.47-13.77-2.67-3.43-8.26-1.88-10.21,1.32-3.34,5.46-7.76,16.38-.4,20.79,7.88,4.72,13.52-5.3,13.37-11.94-.1-4.23-4.08-7.38-8.23-6.27-6.84,1.82-12.79,10.48-9.84,17.48,1.38,3.29,4.22,5.51,8,4.54,6.7-1.71,10.29-9.01,13.53-14.53l-12.11-3.28c.28,6.02.3,14.5,8.24,15.14,7.3.59,9.52-7.41,9.24-13.22-.41-8.5-12.13-8.21-13,0-.21,1.95-.21,3.62-.01,5.57.57,5.66,9.12,9.78,12.11,3.28,1.3-2.84,3.43-6.5,3.52-9.68l.32-1.29c-3.76.84-4.65,1.58-2.67,2.23.86.83,2.82,1.24,3.99,1.55,5.17,1.4,12.85,1.44,15.99-3.73,7.27-11.98-18.02-18.87-18.09-3.29-.01,3.04,2.06,5.29,4.77,6.27,5.43,1.97,11.21,1.16,16-2.01,3.79-2.5,4.63-8.92,0-11.23-5.8-2.88-13.84-3.21-18.7,1.9-4.58,4.82-.72,14.03,5.98,14,7.6-.04,9.64-10.37,3.26-13.91-6.72-3.73-14.7-1.26-21.83-2.04l4.6,1.9-.6-.55,1.67,6.32.33-1.04-2.99,3.88,1.11-.59c2.85-1.5,4.38-6.17,2.33-8.89-2.59-3.44-5.11-6.92-7.11-10.74-1.85-3.52-3.11-7.48-5.6-10.63-2.3-2.9-5.47-4.85-9.34-4-3.1.68-4.46,3.01-6.47,5.12l9.19,9.19c1.86-2.09,1.33-2.25,3.02-1.32,1.24.68,2.36,2.89,3.14,3.98.87,1.21,2.46,3.05,2.97,4.46-.63-1.74-.14,2.54.03,3.2,2.09,8.09,14.64,4.66,12.54-3.46-.39-1.53-.02-3.1-.7-4.81s-1.61-3.05-2.6-4.5c-2.25-3.3-4.67-6.88-7.71-9.49-6.49-5.56-14.61-3.16-19.89,2.74-5.54,6.2,3.39,15.31,9.19,9.19.57-.6,1.41-1.32,1.74-2.07,1.39-3.22-5.95.14-5.59-.67-.23.51,3.38,6.59,3.66,7.19,2.25,4.75,5.14,8.98,8.29,13.17l2.33-8.89c-2.49,1.31-3.6,2.9-4.43,5.51-.68,2.11.04,4.82,1.67,6.32,2.99,2.75,5.86,2.54,9.64,2.38,3.31-.14,8.65-1.08,11.54.8l-3.22-5.61-.02.84,3.22-5.61-.68.49,5.01-.66-.76-.29,3.88,2.99.26.67-3.22,5.61c1.45-1.03,2.54-1.74,4.26-.89v-11.23c-2.17,1.44-3.58,1.57-5.98.7l4.77,6.27c-1.08,3.5-2.69,4.61-4.82,3.33l-1.9-4.6c3.53-2.93,4.13-4.25,1.8-3.98-.85.07-1.7-.02-2.53-.27-1.35-.33-2.54-1.09-3.81-1.62-2.76-1.15-5.81-1.38-8.54.03-5.31,2.74-5.29,9.96-7.49,14.75l12.11,3.28c-.2-1.95-.2-3.62.01-5.57h-13c.06,1.24-.78,3.5.37,2.13l4.6-1.9h-1.2c1.53.63,3.06,1.26,4.6,1.9.5,1.46.61,1.21.32-.73-.05-1.1-.1-2.21-.16-3.31-.3-6.3-8.74-9.03-12.11-3.28-.89,1.53-3.83,8.07-5.76,8.56l8,4.54s-.24-1.23.76-1.49l-8.23-6.27c.04,1.59-1.36,2.3.57.95l5.01-.66-.94-.24,3.88,2.99s2.12-4.33,2.74-5.34l-10.21,1.32c-1.36-1.39-.38-2.77,2.94-4.15l6.32,1.67c-1.92-1.91-2.36-5.68-2.44-8.25l.02-1.59c.25-1.59.23-1.9-.07-.91-.03.61-.38.79-1.03.54l.79.46c1.18,1.38,5.18,3.6,4.54,6.12-.47,1.85-3.87,1.81-4.95.82-1.48-1.35-1.86-4.88-1.73-6.74.07-1.01.5-4,1.53-4.36-1.53.54.87,1.3,1.35,1.71.91.78,1.64,2.14,2.09,3.26.26.62.44,1.27.54,1.93.14,1.4,1.04.87,2.71-1.6-.13.61-2.05-3.54-1.85-2.84l-.23-1.71c.62-1.78.32-2.23-.9-1.34,8.28-.68,8.35-13.69,0-13h0Z"/>
          <path class="cls-4" d="M62.76,29.92c-.68-.29-1.39-.66-2.12-.84s-1.54-.26-2.31-.33c-.83-.03-1.6.14-2.31.52-.74.24-1.39.66-1.93,1.24-.59.54-1,1.19-1.24,1.93-.38.72-.55,1.49-.52,2.31l.21,1.6c.29,1.02.8,1.9,1.54,2.65l1.21.94c.94.54,1.95.82,3.03.82.1,0,.2.02.31.03l-1.6-.21c.34.05.68.14,1,.27l-1.43-.6.1.04c.69.44,1.43.68,2.23.71.8.18,1.6.14,2.39-.11.78-.19,1.46-.54,2.04-1.07.65-.42,1.17-.98,1.55-1.68l.6-1.43c.29-1.06.29-2.13,0-3.19l-.6-1.43c-.53-.9-1.25-1.62-2.15-2.15h0Z"/>
          <path class="cls-6" d="M70.89,40.21c-1.52-4.13-3.72-8.67-7.88-10.72-3.04-1.5-7.17-.92-8.89,2.33-1.55,2.93-.92,7.29,2.33,8.89.15.07.54.38.69.38-.25,0-1.01-.96-.39-.27.14.16.37.51.55.6-.44-.23-.75-1.05-.16-.12.31.49.58.99.83,1.5.08.16.47,1.14.17.3-.35-.95.18.51.2.56,1.17,3.18,4.46,5.68,8,4.54,3.12-1.01,5.8-4.58,4.54-8h0Z"/>
          <path class="cls-6" d="M57.79,23.19c-17.16-4.25-25.39,15.36-18.68,28.86,6.33,12.74,26.97,19.66,38,8.61,12.29-12.31,2.15-31.16-12.42-35.36-6.72-1.93-15.48-1.44-19.66,4.95-3.89,5.95-2.63,14.09-.06,20.31,2.94,7.11,9.82,14.24,18.22,11.76,9.29-2.74,10.12-14.38,7.71-22.11s-15.03-4.56-12.54,3.46c.63,2.02,1.2,3.98.59,6.1,1.31.28,1.48.19.5-.26-.54-.42-.98-.94-1.3-1.53-1.38-1.97-3.65-7.22-2.6-9.68.93-2.15,5.12-.82,7.1.01,3.22,1.35,6.37,4.15,6.83,7.78,1.12,8.81-10.55,7.85-15.35,4.24-2.49-1.87-4.35-4.87-4.65-8s.99-7.55,4.85-6.6c8.12,2.01,11.59-10.52,3.46-12.54h0Z"/>
          <path class="cls-6" d="M59.26,66.87c-11.08-4.21-15,16.24-12.34,23.24,1.91,5.03,7.5,7.62,12.17,4.23,4.19-3.04,5.92-9.32,6.19-14.22.25-4.64-1.1-9.98-5.57-12.27-5.09-2.61-10.17.18-13.05,4.58-5.05,7.73-7.63,21.98-.03,28.93,2.04,1.86,5.42,2.65,7.88,1.02,7.51-4.99,8.14-19.64,4.04-26.95-1.61-2.86-6.06-4.35-8.89-2.33-6.56,4.68-8.46,16.22-6,23.62,3.12,9.4,12.6,11.96,21.55,11.22,3.9-.32,7.78-3.94,6.27-8.23-2.03-5.76-6.93-9.87-13.18-10.27s-12.15,4.23-10.49,10.95c2.92,11.87,22.09,14.3,31.36,10.31,3.26-1.4,3.89-6.14,2.33-8.89-3.35-5.91-9.78-7.6-16.17-6.25-5.82,1.23-10.39,6.82-6.88,12.69,5.52,9.25,25.01,9.66,30.56.36,2.97-4.97.55-10.79-5.03-12.24s-12.26,2.17-13.43,7.95,3.59,11.13,9.66,9.98c5.68-1.08,10.41-5.5,13.35-10.23,1.56-2.52.92-5.79-1.02-7.88-5.35-5.76-12.76-2.1-16.08,3.69-1.47,2.57-.99,5.76,1.02,7.88.95,1,1.88,1.73,3.11,2.36,1.93,1,4.66,1.38,6.56,0,3.53-2.57,6.49-5.67,6.27-10.38s-3.74-9.24-7.52-11.58c-4.11-2.54-7.2-3.04-6.53-8.89.54-4.73,3.24-9.3,7.03-12.18,6.55-4.98,1.11-15.03-6.56-11.23-5.87,2.91-8.45,8.73-9.32,14.94-.92,6.55,1.55,11.59,3.81,17.67l11.88-5.01c-1.77-3.21-4.48-16.1,3.08-14.26,6.88,1.68,11.86-8.5,5.01-11.88-4.59-2.27-9.19-2.31-13.8.06-3.83,1.97-8.48,5.39-11.05,8.86s-4.46,9.1-5.33,13.39c-1.1,5.37.6,11.1,1.81,16.32,1.7,7.31,12.55,5.44,12.77-1.73.15-5.07.74-10.91-.75-15.82s-6.57-7.4-10.69-9.46c-3.33-1.66-8.87-.55-9.55,3.88-.87,5.72-3.27,12.95-1.18,18.54,1.81,4.82,6.57,8.45,11.18,10.29,4.37,1.75,7.77-2.58,8.23-6.27.69-5.57,1.62-11.2,1.94-16.81.28-4.9-1.64-8.65-4.42-12.58-2.53-3.57-9-4.83-11.23,0s-5.34,10.36-5.48,15.64c-.14,4.94,3.06,9.87,5.33,14.09l2.33-8.89c-2.92,1.96-5.95,4.06-7.9,7.06-.8,1.23-1.52,2.68-1.96,4.09-.22.82-.39,1.65-.5,2.49-.53,1.56-.35,1.65.52.29-2.99,2.05-4.07,5.6-2.33,8.89.83,1.57,1.94,2.49,3.36,3.52,3.93,2.84,10.08-.95,9.78-5.61.04-2.1-.46-1.48-1.52,1.86,1.17-.57,2.36-1.11,3.56-1.62,2.01-.84,4.08-1.55,6.15-2.2.89-.29,1.78-.55,2.68-.8-2.39-1.04-2.55-.88-.5.48,1.58,1.64,3.9,2.9,5.8,4.13,6.24,4.06,13.07-5.07,7.88-10.21l-.57-.56c-5.27-5.21-13.84,1.42-10.21,7.88,1.29,2.3,2.81,3.8,5.29,4.75,5.9,2.27,9.39-4.99,7.34-9.55l-.07-.15c-3.42-7.62-14.63-1.02-11.23,6.56l.07.15,7.34-9.55,2.48,1.22-10.21,7.88.57.56,7.88-10.21c-3.01-1.96-5.98-5.53-9.53-6.47s-7.93,1.09-11.13,2.22c-6.77,2.38-15.65,4.87-15.08,13.62l9.78-5.61,1.3,1.15-2.33,8.89c2.85-1.95,4.39-4.08,5.32-7.44s1.33-4.34,4.51-6.49c2.99-2.02,4.08-5.63,2.33-8.89-1.12-2.08-3.51-5.3-3.41-7.6.11-2.75,2.45-6.57,3.57-9.01h-11.23c2.7,3.82,2.75,5.19,2.25,9.76s-1.01,8.71-1.55,13.07l8.23-6.27c-4.5-1.8-1.44-9.42-.92-12.84l-9.55,3.88c1.34.67,3.2,2.14,4.59,2.58.99.87,1.2.92.62.14-.42-.87-.51-.65-.25.66-.81,2.85.11,7.62.02,10.68l12.77-1.73c-.61-2.63-1.43-5.39-1.66-8.09s1.04-5.25,2.01-7.81c.87-2.29,1.28-2.87,3.19-4.42,1-.81,4.42-4.28,5.73-3.64l5.01-11.88c-8.43-2.05-16.1,1.6-19.59,9.55s-2.19,16.52,1.83,23.81c3.47,6.3,14.49,2.02,11.88-5.01-1.74-4.69-7.24-14.56-.46-17.93l-6.56-11.23c-8.08,6.14-14.06,15.42-13.55,25.94.23,4.7,1.95,9.44,5.29,12.83,1.92,1.94,4.03,2.66,6.31,3.96.37.21,1.17.86,1.56.94.52,1.11.91,1.06,1.16-.15.69-1.06.69-1.23-.02-.51h6.56l-.48-.33,1.02,7.88c1.7-2.22.26-2.57-4.34-1.06l-1.02-7.88c-.69,1.11-1.38,2.07-2.45,2.86l-1.22.74c-2.32.76-1.36,1.24,2.86,1.46l1.9,4.6-4.19,1.01-1.9-4.6.91-2.12-.94.35c-.89-.2-2.43.42-3.42.39-.91-.03-1.77-.36-2.65-.42-1.39-.08-2.06-1.9-1.28.39l-.66,5.01c-1.83.98-1.98,1.3-.46.97.58-.29,1.05-.22,1.43.22l2.33-8.89c-2.16.93-11.86-.35-12.39-3.26l-.66,5.01c-1.87.65-2.27,1.15-1.2,1.5.3.04.49.18.59.44l6.27-8.23c-2.97.25-7.83,1.11-9.26-2.34-.51-1.22-.26-2.97-.08-4.2.23-1.12.51-2.23.83-3.33.86-1.92.7-2.16-.48-.73l-8.89-2.33c.9,1.6.6,3.63.41,5.39-.13,1.18-.34,2.35-.61,3.51-.84,2.2-.56,2.3.83.28l7.88,1.02c-2.17-1.98-.41-8.05.57-10.41.43-.96.93-1.88,1.49-2.77-4.26-2.67-6.11-2.55-5.56.35-.74,1.79-.24,3.71-1.77,5.3l4.6-1.9-1.22.14,5.61,3.22c-1.91-2.55.68-7.56,2.23-9.69l-3.88,2.99-2.08.02c7.83,2.97,11.21-9.59,3.46-12.54h0Z"/>
          <path class="cls-8" d="M89.21,86.03c-2.26.81-3.13,2.92-1.98,5.05,1.79,3.31,7.26,4.83,10.52,6,3.49,1.25,4.77-3.6,2.31-5.48l-1.56-2.09-4.41,3.39c3.41,1.5,6.82,3.31,10.45,4.19,3.34.81,5.18-3.63,2.31-5.48-2.16-1.4-3.81-2.99-5.26-5.12l-4.71,3.64c3.36,3.58,7.43,5.8,12.3,6.54,2.94.45,5-2.63,2.92-5.01-2.5-2.87-5.19-5.63-7.04-8.98l-4.71,3.64c3.32,3.56,7.06,6.41,11.38,8.66,2.92,1.52,6.21-2.28,3.64-4.71-3.34-3.15-7.11-6.16-9.83-9.88l-4.71,3.64c.79.73,1.58,1.47,2.37,2.2,2.9,2.69,6.6-1.28,4.24-4.24-2.8-3.53-7.36-2.69-9.65.84-.99,1.53-.07,4.06,1.79,4.41,5.12.95,6.48,5.56,11,7.09,2.13.72,4.38-1.58,3.69-3.69-.36-1.11-.74-1.8-1.58-2.62l-4.24,4.24c1.84,1.66,3.69,2.73,6.09,3.4,3.01.85,4.84-2.85,2.92-5.01s-5.53-2.63-8.16-3.37c-4.13-1.16-7.81-2.2-11.56-4.37-3.4-1.97-6.12,2.97-3.03,5.18.71,1.12,1.5,1.3,2.38.54,1.29-.69,1.32-.6.1.24-.55.7-1.33.93-1.74,1.78-.77,1.61-.26,3,.67,4.38,2.13,3.18,7.22.3,5.18-3.03-.69-1.13-1.38-1.66-2.63-2.05-.96-.3-2.24,0-2.92.77l-.36.41c-.94,1.07-1.09,2.37-.47,3.64l.22.44c1.7,3.46,6.88.43,5.18-3.03l-.22-.44-.47,3.64.36-.41-2.92.77-.95-.71,5.18-3.03-.37-.64-.77,2.92c1.34-1.66,3.8-2.48,3.68-5.04-.14-2.93-4.04-4.87-6.1-6.34l-3.03,5.18c2.67,1.55,5.3,2.87,8.28,3.73,2.34.67,8.6,1.24,10.23,3.08l2.92-5.01c-1.35-.24-2.5-.86-3.44-1.86-2.85-2.58-7.03,1.53-4.24,4.24l.03-.03,3.69-3.69c-1.63-.55-3.13-3.41-4.61-4.47-1.93-1.39-4.06-2.19-6.39-2.62l1.79,4.41.23.37,4.24-4.24c-.79-.73-1.58-1.47-2.37-2.2-2.37-2.2-6.81.76-4.71,3.64,3.06,4.19,7.01,7.55,10.76,11.1l3.64-4.71c-3.9-2.03-7.16-4.51-10.16-7.72-2.37-2.54-6.34.7-4.71,3.64,2.1,3.79,5.15,6.94,7.98,10.19l2.92-5.01c-3.92-.6-6.91-2.08-9.65-5-2.29-2.44-6.65.78-4.71,3.64s4.38,5.31,7.41,7.27l2.31-5.48c-3.14-.76-6.07-2.29-9.02-3.59-2.07-.91-5.49.66-4.41,3.39,1,2.52,2.17,4.03,4.32,5.68l2.31-5.48c-.97-.35-6.11-3.37-6.71-1.48l-2.1,2.1.27-.1c3.61-1.3,2.05-7.1-1.6-5.79h0Z"/>
          <path class="cls-8" d="M14.65,76.3c2.8-.14,5.61-.27,8.41-.41l-.8-5.89c-2.3.42-4.59.83-6.89,1.25-3.39.61-2.51,5.89.8,5.89,2.81,0,7.48.45,9.35-2.19.14-.19.59-1.3.41-1.51.5.57-3.01.84-1.49,2.12,1,.85,2.51.29,3.51-.18,1.71-.81,1.95-3.49.61-4.71l-.14-.13c-1.21-1.1-3.04-1.18-4.24,0l-.11.1c-2.1,2.07.03,5.89,2.92,5.01l.13-.04-3.39-1.38.07.15,1.79-4.41c-1.42.55-2.64.65-3.97,1.49-1.02.65-1.88,2.15-1.38,3.39s1,2.34,1.27,3.61l.3-2.31c-.96.28-1.91.58-2.85.9-1.93.63-3.2,3.51-1.32,5.01s3.47,2.1,5.78,1.22c3.54-1.34,2.16-6.95-1.6-5.79-1.17.36-1.9.67-2.97,1.27-3.1,1.76-.91,6.09,2.31,5.48.34-.06,4.65-.82,4.31-1.21l-.77-2.92c-.65,3.01-3.73,4.75-4.24,8.04s3.41,5.13,5.48,2.31l.97-1.32c1.81-2.46-1.68-5.63-4.1-4.1-1.5.95-2.51,1.97-3.58,3.37-2.25,2.95,2.29,5.53,4.71,3.64,1.36-1.07,4.23-3.79,5.91-3.7l-2.12-5.12c-.76.98-1.44,1.87-2.12,2.91-1.5,2.27.97,5,3.39,4.41,1.06-.2,2.08-.51,3.06-.95l-2.31-5.48c-1.12.51-2.02,1.03-3.02,1.76-2.58,1.89-1.18,6.51,2.31,5.48.66-.19,1.42-.34,1.96-.8.27-.16.52-.33.77-.53.81-.42.5-.83-.92-1.23.03,2.12,1.88,3.19,3.8,2.89,1.13-.17,1.59-.38,2.56-1,3.25-2.06.28-7.22-3.03-5.18-1,.62-2,1.23-3,1.85-2.79,1.72-1.01,6.64,2.31,5.48,2.05-.71,3.69-1.66,5.38-3.04,2.99-2.44-1.27-6.67-4.24-4.24-.8.7-1.71,1.2-2.73,1.49l2.31,5.48c1-.62,2-1.23,3-1.85l-3.03-5.18-1.13.39,3.8,2.89c-.04-2.29-.96-4.27-3.3-4.98-2.73-.83-3.75,1.07-6.1,1.76l2.31,5.48c.99-.73,1.89-1.25,3.02-1.76,3.07-1.38.88-6.68-2.31-5.48-.98.44-2,.75-3.06.95l3.39,4.41,1.19-1.7c1.59-2.03.65-4.98-2.12-5.12-4.11-.21-7.11,3.08-10.15,5.46l4.71,3.64,1.43-1.22-4.1-4.1-.97,1.32,5.48,2.31c.54-3.52,6.23-6.76,3.7-10.65-2.16-3.31-7.39-1.2-10.38-.63l2.31,5.48,1.54-.67-1.6-5.79.05.32-1.32,5.01c2.16-.71,4.88-1.15,6.15-3.25s.2-4.15-.69-6.34l-1.38,3.39c1.02-.65,1.58-.52,2.53-.89,1.92-.74,2.67-2.52,1.79-4.41l-.07-.15c-.54-1.16-2.21-1.74-3.39-1.38l-.13.04,2.92,5.01.11-.1h-4.24l.14.13.61-4.71-.41.19,2.31-.3c-3.48-1.37-6.39-.91-6.89,3.35l1.49-2.59c-1.12.54-3.95.3-5.24.3l.8,5.89c2.3-.42,4.59-.83,6.89-1.25,3.32-.6,2.56-6.06-.8-5.89-2.8.14-5.61.27-8.41.41-3.84.19-3.87,6.19,0,6h0Z"/>
          <path class="cls-12" d="M28.98,74.31c2.67,2.14,5.79,2.63,8.82.84,2.28-1.35,1.72-4.72-.72-5.48-2-.63-3.96-.86-6.05-.68-3.08.28-4.4,5.37-.8,5.89,2.49.36,4.52-.09,6.35-1.9,1.37-1.36,1.06-3.75-.61-4.71-2.96-1.71-8.39-1.27-7.9,3.36s6.19,4.05,9.21,2.72l-3.03-5.18c-2.26,1.74-8.51,5.5-4.45,8.86l2.12-5.12c-1.9.15-3.49.58-5.21,1.4-3.23,1.54-.84,6.12,2.31,5.48.55-.11,1.11-.22,1.66-.34,3.79-.76,2.18-6.53-1.6-5.79-.54.11-1.09.21-1.63.32l1.6,5.79c1.35-.38,2.99-.92,4.41-.63l-1.79-1.38.37.5v-3.03c-1.31,2.87-1.7,5.37,1.09,7.45,1.3.97,3.35.2,4.1-1.08.38-.64.61-1.2.79-1.91.6-2.39-1.47-4.05-3.69-3.69s-3.59,1.87-4.19,3.95c-.28.98,0,2.23.77,2.92l.64.57c1.32,1.17,2.9,1.06,4.24,0,1.95-1.54,2.09-3.97.97-6.05-.9-1.68-3.41-1.97-4.71-.61-.47.5-.95.99-1.42,1.49-.72.76-1.09,1.89-.77,2.92,1.76,5.6,7.38,1.13,9.42-1.65l-5.59-1.51c-.13,1.77.28,3.29,1.17,4.82.62,1.06,2.16,1.83,3.39,1.38,2.32-.86,3.98-2.12,3.34-4.87-.31-1.33-1.61-2.14-2.89-2.2-3.54-.17-5.79,4.53-4.13,7.42,1.82,3.18,6.71,2.6,7.41-1.1.45-2.39-1.35-4.07-3.69-3.69-2.95.47-5.2,3.88-2.82,6.44,2.7,2.91,6.42-.62,8.49-2.48,2.21-1.99-.11-5.94-2.92-5.01-1.85.61-2.93,1.6-3.43,3.51-.61,2.35,1.48,4.1,3.69,3.69,3.97-.74,5.06-4.5,5.06-8.07h-6c.11.79.09,1.57-.05,2.36-.34,3.37,5.17,4.08,5.89.8.79-3.55,1.11-7.11.9-10.75-.08-1.27-.87-2.6-2.2-2.89-3.81-.83-7.74-2.1-11.58-.83-2.64.88-3.06,5.12,0,5.79,1.88.41,3.49,1.62,3.72,3.67.42,3.74,5.97,3.96,6,0,.01-1.64-.18-3.2-.58-4.79-.78-3.1-4.8-2.59-5.79,0-.55,1.45-.77,2.87-.74,4.42.04,2.32,2.5,3.67,4.51,2.59,1.74-.94,2.96-2.14,4.06-3.76,1.17-1.71-.1-3.8-1.79-4.41-2.61-.93-4.99.18-6.46,2.4-2.13,3.23,3.06,6.24,5.18,3.03l-.32.36-1.79-4.41c-.53.78-1.09,1.17-1.91,1.61l4.51,2.59c-.02-1.08.14-1.82.53-2.82h-5.79c.28,1.1.38,2.06.37,3.19h6c-.53-4.66-3.41-8.43-8.13-9.46v5.79c2.68-.89,5.72.25,8.39.83l-2.2-2.89c.19,3.11,0,6.11-.68,9.15l5.89.8c.14-.78.16-1.57.05-2.36-.22-3.83-6-3.89-6,0,.18.86-.04,1.63-.66,2.28l3.69,3.69-.76.68-2.92-5.01c-.69.62-1.66,1.66-2.56,1.97l2.31.3-.37-.26,1.38,1.79-.09-.48-.3,2.31-.2.43-3.69-3.69.16-.33,2.12-.88.23,2.48-2.89-2.2.1.44.77-2.92c.63-.28.62-.29-.03-.03l3.39,1.38c-.42-.54-.54-1.14-.35-1.79.25-3.28-4.01-3.65-5.59-1.51-.43.64-.99,1.15-1.67,1.52l2.31.3-.36-.18,1.38,1.79-.11-.36-.77,2.92c.47-.5.95-.99,1.42-1.49l-4.71-.61-.03-1.22h4.24l-.64-.57.77,2.92v.24c-1.23-1.23-2.46-2.46-3.69-3.69l-.19.48,4.1-1.08c.43,1.54.78,1.79,1.06.76.42-.92.67-2.13,0-3.03-2.33-3.14-6.42-2.2-9.77-1.25-3.75,1.06-2.16,6.52,1.6,5.79.54-.11,1.09-.21,1.63-.32l-1.6-5.79c-.55.11-1.11.22-1.66.34l2.31,5.48c.68-.36,1.41-.56,2.18-.58,2.32-.18,4.3-3.32,2.12-5.12l-.32-.26.88,2.12-.02-.45-.88,2.12c1.02-1.17,2.36-2.03,3.58-2.97,3.05-2.35.55-6.76-3.03-5.18l-.64.55.3,2.31.22-.68-1.38,1.79.19.31-.61-4.71-.51.36-.8,5.89c1.6-.14,2.92-.02,4.46.46l-.72-5.48c-.49.43-1,.46-1.55.1-2.98-2.4-7.25,1.82-4.24,4.24h0Z"/>
          <path class="cls-12" d="M88.58,68.62c-7.14-3.23-8.41,9.88-4.63,13.47,1.76,1.66,4.2.76,5.01-1.32,1.27-3.25,2.99-16.94-4.44-14.58-5.14,1.63-3.73,13.97-.39,16.66,1.13.91,2.32,1.09,3.64.47,4.78-2.27,2.7-15.51-3.55-13.05-3.03,1.19-3.51,5.75-3.63,8.49-.16,3.68.33,7.31,3.94,8.83.99.42,2.2-.12,2.92-.77,3.53-3.19,1.04-9.67-1.01-13.02-1.66-2.72-5.28-1.33-5.59,1.51-.51,4.7.64,9.12,3.34,12.99,1.96,2.81,6.14,1.09,5.48-2.31-.24-1.25-.55-2.37-.97-3.57-1.02-2.87-4.75-2.81-5.79,0-.58,1.56-.55,2.87-.23,4.48.41,2.08,3.64,3.06,5.01,1.32,1.62-2.06,1.79-4.26,3.07-6.47h-5.18c1.19,2.06,2.59,3.77,4.43,5.3,1,.82,2.46,1.24,3.64.47,2.87-1.87,2.62-4.77.5-7.17-1.93-2.18-4.82-.2-5.12,2.12-.38,2.87.89,4.77,3.1,6.43,2.67,2,5.2-1.72,4.1-4.1l-.52-1.12c-1.28-2.77-5.65-1.32-5.59,1.51.03,1.68.37,2.97,1.38,4.31,1.58,2.08,5.88,1.8,5.59-1.51-.22-2.43-1.54-3.95-2.08-6.21l-.3,2.31.21-.46-2.59,1.49c1.1.34,2.15.81,3.13,1.4,3.01,1.61,5.98-2.19,3.64-4.71l-.8-.86c-2.1-2.25-5.73.11-5.01,2.92.44,1.73,1.06,2.36,2.45,3.39s4.13,0,4.41-1.79c.49-3.15-.13-5.61-2.33-7.95l-2.92,5.01c1.78.74,3.24.71,5.1.41,1.54-.25,2.57-2.28,2.1-3.69-.43-1.29-.75-2.04-1.44-3.2l-4.1,4.1,2.41,1.26c2.08,1.09,5.45-.78,4.41-3.39-.4-1-.82-1.72-1.49-2.57l-4.24,4.24.19.17c1,.88,2.44,1.18,3.64.47l.26-.16c1.08-.65,1.81-2.14,1.38-3.39-1.2-3.5-4.75-7.28-7.21-10.07s-5.31-3.34-8.9-3.05c-8.25.66-9.06,8.4-6.91,15.07.77,2.38,4.17,3.05,5.48.72,1.53-2.72,3.07-5.44,4.6-8.16l-5.48-.72c1.45,3.77,3.22,7.31,5.46,10.67,1.89,2.83,6.22,1.07,5.48-2.31-.67-3.05-.9-9.71-5.32-9.52-1.75.07-3.65,1.89-2.89,3.8,1.13,2.83,2.6,5.15,4.91,7.17,1.8,1.57,5.31.66,5.12-2.12-.21-3.05-.9-5.64-2.19-8.41-1.04-2.24-5.09-1.78-5.48.72-.47,2.94-.15,5.38,1.45,7.93l4.1-4.1c-1.89-1.32-2.19-1.89-4.62-1.55-2.09.29-5.07.69-6.81,2.02-3.24,2.49-1.06,6.84.74,9.52,1.98,2.95,5.97,1,5.48-2.31-.41-2.8-1.03-5.5-1.85-8.21-.7-2.28-4.32-3.16-5.48-.72-2.03,4.26-3.14,9.78,1.94,12.39,2.39,1.23,4.95-.79,4.41-3.39l-1.77-8.54c-.63-3.01-4.98-2.69-5.79,0-.89,2.97-1.22,5.85-1,8.94.13,1.75,1.28,2.82,3,3,2.22.24,4.24-.97,4.95-3.16.98-3.05-1.18-4.77-2.11-7.39-.65-1.82-2.63-2.81-4.41-1.79-3.82,2.18-.77,7.89,1.1,10.36,1.5,1.99,4.71,1.95,5.48-.72.36-1.23.71-2.45,1.07-3.68.21-.74,1.37-2.71-.25-2.26l-3.39-1.38c1.31,1.88,2.11,3.22,4.04,4.56,2.99,2.07,5.67-2.27,3.64-4.71-1.19-1.42-2.52-2.53-4.07-3.51-1.64-1.04-3.92-.02-4.41,1.79l-.28,1.04c-.38,1.4.29,2.58,1.38,3.39,3,2.22,6.15,4.65,9.53,1.98.77-.61,1.08-2.01.77-2.92-.7-2.03-1.51-3.98-2.45-5.91-.74-1.52-2.75-1.76-4.1-1.08-.86.44-1.47,1.22-1.66,2.16-.77,3.77,5.02,5.38,5.79,1.6l-1.1,1.42-4.1-1.08c.71,1.47,1.31,2.94,1.84,4.48l.77-2.92-.52.41,2.12-.88c-1.02-.04-3.1-1.89-3.86-2.46l1.38,3.39.28-1.04-4.41,1.79c1.21.77,1.96,1.49,2.86,2.57l3.64-4.71c-1.08-.75-1.23-1.46-1.89-2.41-.77-1.1-2.03-1.75-3.39-1.38-3.76,1.03-4.11,7.03-5.01,10.13l5.48-.72c-.55-.64-1.01-1.34-1.39-2.09-.25-2.18-.87-2.2-1.85-.06l-4.41-1.79c.25.7.45,1.48.89,2.08,1.09,1.48.18.67,2.06.88l3,3c-.19-2.57.05-4.88.78-7.35h-5.79l1.77,8.54,4.41-3.39c-1.65-.85-.27-3.17.22-4.18l-5.48-.72c.83,2.7,1.44,5.41,1.85,8.21l5.48-2.31c-.53-.64-.93-1.35-1.2-2.13-.55-1.33-.55-1.26,0,.19,1.48-.27,2.94-.66,4.43-.91l-2.92-.77c.71.78,1.3,1.24,2.17,1.85,2.49,1.75,5.64-1.65,4.1-4.1-.79-.96-1.08-2.06-.84-3.31l-5.48.72c.85,1.82,1.23,3.38,1.37,5.38l5.12-2.12c-1.49-1.31-2.62-2.65-3.37-4.52l-2.89,3.8.44-.02-2.59-1.49c1.08,1.62,1.27,4.72,1.68,6.62l5.48-2.31c-1.96-2.93-3.59-5.95-4.86-9.24-.88-2.28-4.12-3.14-5.48-.72-1.53,2.72-3.07,5.44-4.6,8.16l5.48.72c-1.02-3.17-2.16-7.98,2.68-7.52,2.68.25,3.46,1.82,4.94,3.74,1.08,1.4,3.26,3.36,3.83,5.03l1.38-3.39-.26.16,3.64.47-.19-.17c-2.95-2.6-6.61,1.26-4.24,4.24l-.05-.08,4.41-3.39-2.41-1.26c-2.59-1.36-5.68,1.43-4.1,4.1l.83,1.77,2.1-3.69-1.91-.41c-2.95-1.23-4.78,3.03-2.92,5.01l.79,2.11,4.41-1.79.31.19-5.01,2.92.8.86,3.64-4.71c-1.94-1.03-3.93-2.16-6.16-2.22-.96-.03-2.18.57-2.59,1.49-1.44,3.24,1.08,4.24,1.36,7.39l5.59-1.51-.56-1.28-5.59,1.51.52,1.12,4.1-4.1-.13-1.25-5.12,2.12.38.69-.3-2.31.64-.63,3.64.47c-1.45-1.2-2.55-2.44-3.5-4.08-1.13-1.95-4.06-1.94-5.18,0-.89,1.53-1.08,3.91-2.13,5.25l5.01,1.32.23-1.29h-5.79c.43,1.2.73,2.32.97,3.57l5.48-2.31c-2.19-3.14-2.94-6.16-2.53-9.96l-5.59,1.51c.48.78,2.81,4.98,1.95,5.75l2.92-.77s.8-6.18,1.38-6.67l-2.12.88.61.03-2.59-1.49c.17.22,1.2,3.66,1.34,3.59l3.64.47c-1.09-.88-.9-3.46-.88-4.6.01-.71.68-3.68-.05-2.8l-2.12.88h.62c-.71-.31-1.41-.6-2.12-.89,1.67,1.58.04,6.24-.64,7.98l5.01-1.32c-.29-.27-.06-4.28-.85-3.98l-2.31-.3.52.24c3.49,1.58,6.55-3.59,3.03-5.18h0Z"/>
          <path class="cls-10" d="M28.79,39.7c-1.73,3.06-3.15,9.11,1.72,10.18,3.85.85,6.88-3.3,7.03-6.74.17-3.9-3.04-7.33-7.04-5.98s-6.44,8.04-4.74,11.97c3.78,8.72,15.63-6.01,9.78-11.75-3.05-3-7.39-.5-9.48,2.27-2.89,3.84-2.91,8.56-1.04,12.82.93,2.1,4.17,1.81,5.18,0,2.3-4.1,5.61-11.45,1.05-14.97-.84-.65-2.17-.46-3.03,0-6.19,3.29-6.58,12.18-3.82,17.73,1.17,2.35,4.85,1.67,5.48-.72.93-3.51.94-6.78.04-10.3-.65-2.54-4.18-2.89-5.48-.72-2.38,3.98-1.21,9.78-.35,14.08.57,2.83,5.27,2.9,5.79,0,.48-2.66.43-4.81-.61-7.36-1.2-2.92-5.94-2.86-5.89.8.03,2.9.47,5.57,1.43,8.32,1.26,3.62,6.71,2.2,5.79-1.6-.66-2.72-1.33-5.44-1.99-8.16-.8-3.27-6-2.6-5.89.8.12,3.72.97,7,2.65,10.32,1.46,2.89,5.35,1.19,5.59-1.51.36-3.98,3.46-6.08,7.27-5.86v-6c-2.88.36-7.39.12-7.42,4.34-.03,3.85,3.94,4.7,6.91,4.12l-1.6-5.79c-2.24.58-4.42,1.25-6.59,2.05-3.57,1.31-2.18,6.85,1.6,5.79,2.05-.58,4.03-.93,6.16-1.04l-.8-5.89-3.75.97c-3.5.91-2.38,5.53.8,5.89,2.02.23,3.75.69,5.66,1.32,2.55.85,4.64-2.23,3.39-4.41-.67-1.16-1.39-1.78-2.7-2.03-2.24-.43-4.26,1.35-3.69,3.69,1.14,4.64,6.3,3.52,8.2.16,1.01-1.78.03-3.76-1.79-4.41-1.44-.51-2.37-.29-3.67.41-2.92,1.57-.88,6.8,2.31,5.48,2.43-1,3.6-2.08,4.43-4.61l-5.48.72.54.89c.71,1.17,2.07,1.69,3.39,1.38.87-.21,1.44-.45,2.2-.92,1.94-1.19,1.94-4,0-5.18l-.59-.36c-2.7-1.64-5.4,1.54-4.1,4.1s3.93,3.65,6.48,2.03c2.72-1.74,1.02-6.73-2.31-5.48.36-.13-2.03-9.27-2.34-10.64-.59-2.61-1.76-4.64-4.34-5.66-5.17-2.06-9.83,1.94-13.54,5.06l4.71,3.64c.47-1.39,1.5-2.16,3.1-2.32v-5.79c-1.81.25-3.14.79-4.66,1.76-2,1.28-1.97,4.98.72,5.48,1.69.31,4.86-.03,5.85,1.68l5.18-3.03-.38-.59c-1.67-2.57-5.37-1.45-5.59,1.51-.17,2.38,0,4.6.38,6.94.49,2.99,5.11,2.73,5.79,0,.54-2.18.8-4.28.8-6.52,0-2.8-4.3-4.32-5.59-1.51-1.44,3.14-.73,5.89,2.09,7.89,1.86,1.32,4.59-.45,4.51-2.59s-.53-3.88-1.47-5.86l-5.18,3.03.34.63c.74,1.36,2.79,1.96,4.1,1.08.84-.56,1.68-1.13,2.52-1.69l-4.41-1.79c.37.79.49,1.62.37,2.5-.1,3.88,5.78,3.83,6,0,.2-3.46-.44-6.63-3.74-8.29-2.87-1.46-6.35,2.36-3.64,4.71,1.23,1.07-.17,4.43.09,5.98.64,3.8,6.42,2.19,5.79-1.6-.15-.92.77-3.08.61-4.38-.22-1.74-.92-3.1-2.24-4.24l-3.64,4.71c.9.88,1.15,1.92.77,3.11h6c.04-1.44-.14-2.72-.58-4.09-.56-1.73-2.72-2.92-4.41-1.79-.84.56-1.68,1.13-2.52,1.69l4.1,1.08-.34-.63c-1.86-3.43-6.83-.41-5.18,3.03l.66,2.83,4.51-2.59.07.32-5.59-1.51c0,1.71-.18,3.26-.59,4.92h5.79c-.31-1.87-.31-3.48-.17-5.34l-5.59,1.51.38.59c2.09,3.22,7.14.33,5.18-3.03-2.39-4.1-5.28-3.66-9.44-4.44l.72,5.48c.95-.76,2.03-1.15,3.22-1.16,3.01-.42,2.71-5.13,0-5.79-4.52-1.09-7.69,1.2-9.87,5.08-1.74,3.09,2.17,5.77,4.71,3.64,2.14-1.8,5.88-5.7,7.94-1.36,1.18,2.49,1.36,5.99,2.37,8.67,1.24,3.27,3.09,7.03,7.25,5.47l-2.31-5.48-.77.49,2.31-.3.19-.06-4.1,4.1.59.36v-5.18l-.77.31,3.39,1.38-.54-.89c-1.38-2.28-4.68-1.72-5.48.72l-.24.41,2.31,5.48.66-.35-2.31.3.7.25-1.79-4.41,2.77,1.28-3.69,3.69-.88-.73,3.39-4.41c-2.4-.8-4.75-1.25-7.26-1.54l.8,5.89,3.75-.97c3.22-.84,2.64-6.07-.8-5.89-2.66.14-5.19.53-7.76,1.25l1.6,5.79c2.17-.8,4.35-1.47,6.59-2.05,3.78-.97,2.16-6.52-1.6-5.79l.57.87-.3,2.31c.55.41,1.16.46,1.83.15,3.75-.47,3.95-5.77,0-6-7.33-.43-12.64,4.72-13.27,11.86l5.59-1.51c-1.2-2.38-1.75-4.63-1.83-7.29l-5.89.8c.66,2.72,1.33,5.44,1.99,8.16l5.79-1.6c-.78-2.24-1.18-4.34-1.21-6.72l-5.89.8c.72,1.28.93,2.67.61,4.17h5.79c-.46-2.27-1.61-7.19-.26-9.45l-5.48-.72c.63,2.47.61,4.64-.04,7.11l5.48-.72c-1.33-2.66-1.52-7.83,1.66-9.52h-3.03c-.18-.14-2.9,6.23-3.2,6.76h5.18c-1.33-3.03.33-3.78.83-6.5.09-.49-2.3,3.1-2.38,3.12l2.31.3c.92-1.09.76-1.85-.46-2.27l2.31.3c.36,1.67.74,1.11,1.15-1.67,1.9-3.37-3.28-6.39-5.18-3.03h0Z"/>
          <path class="cls-6" d="M94.52,103l-.52-.4c-2.8-2.13-5.86,2.33-3.64,4.71,3.29,3.53,7.39,5.33,12.18,5.62,3.23.2,3.73-4.02,1.51-5.59l-7.52-5.34c-2.87-2.04-5.87,2.31-3.64,4.71,1.83,1.96,3.8,3.4,6.27,4.48s6.14-1.4,4.1-4.1c-1.09-1.45-1.71-2.73-2.09-4.51l-5.01,2.92c4.24,3.94,8.82,6.62,14.5,4.04,2.64-1.19,1.38-4.63-.72-5.48-2.2-.89-4.3-1.33-6.64-1.6s-3.5,2.7-2.59,4.51c2.43,4.84,10.03,2.84,13.75.95,2.91-1.48,1.16-5.3-1.51-5.59-1.49-.16-2.74,0-4.17.42-1.91.57-2.72,2.67-1.79,4.41,2.09,3.92,6.8,1.42,9.23-.74l-5.01-2.92c-.58,1.45-3.2,2.15-4.43,2.89-2.82,1.68-.98,6.67,2.31,5.48,1.68-.61,3.13-1.28,4.63-2.26,2.66-1.75,1.37-5.22-1.51-5.59-1.51-.03-2.82-.59-3.93-1.68l-1.79,4.41,5.14-1.82c2.84-1.01,2.84-4.77,0-5.79-1.17-.42-1.62-.49-2.86-.32l.8,5.89.75-.24-2.31-5.48c-1.1.47-4.64-.94-4.92-2.46-.55-2.91-5.17-2.82-5.79,0-.11.75-.32,1.46-.64,2.15l2.59-1.49c-1.73.2-4.47-1.61-6.02-2.27-3.45-1.46-6.56,3.42-3.03,5.18,1.29.64,2.58,1.29,3.87,1.93,3.44,1.72,6.48-3.41,3.03-5.18-1.11-.57-1.93-.78-3.17-.88-3.17-.24-3.8,4.07-1.51,5.59,1.52,1.01,3.06,1.98,4.62,2.91,3.32,1.98,6.35-3.2,3.03-5.18-1.57-.93-3.1-1.9-4.62-2.91l-1.51,5.59.14.06,3.03-5.18c-1.29-.64-2.58-1.29-3.87-1.93l-3.03,5.18c5.49,2.32,11.17,5.87,12.89-1.98h-5.79c1.1,5.76,8.88,8.13,13.74,6.05,3.13-1.34.9-6.48-2.31-5.48l-.75.24c-3.06.95-2.7,6.36.8,5.89l1.26.11v-5.79l-5.14,1.82c-1.69.6-2.97,2.7-1.79,4.41,2.29,3.31,5.25,4.15,9.11,4.65l-1.51-5.59c-.96.74-2.03,1.29-3.19,1.66l2.31,5.48c3.18-1.9,5.75-2.89,7.18-6.47,1.21-3.01-3-4.71-5.01-2.92l-2.13.98,2.59,1.49-.27-.51-1.79,4.41c.84-.36,1.7-.42,2.57-.21l-1.51-5.59c-.29.15-5.1,2.08-5.54,1.2l-2.59,4.51c1.86.21,3.35.69,5.05,1.38l-.72-5.48c-2.84,1.29-5.4-1.4-7.23-3.1-2.24-2.09-5.65,0-5.01,2.92.49,2.27,1.3,4.09,2.69,5.94l4.1-4.1c-2-.88-3.55-1.93-5.06-3.55l-3.64,4.71,7.52,5.34,1.51-5.59c-3.23-.2-5.74-1.5-7.94-3.86l-3.64,4.71.52.4c3.07,2.34,6.07-2.87,3.03-5.18h0Z"/>
          <path class="cls-8" d="M96.87,97.63c4.42,3.12,9.79,3.71,15.05,3.99v-6c-3.3.15-6.94.27-9.55-2.09l-4.24,4.24c4.24,3.44,8.95,5.92,14.25,7.27,3.77.96,5.22-4.54,1.6-5.79-4.28-1.47-8.42-3.02-12.1-5.72-3.12-2.29-6.11,2.92-3.03,5.18,4.07,2.99,8.8,4.69,13.53,6.32l1.6-5.79c-4.26-1.08-8.18-2.94-11.6-5.72-2.94-2.39-7.15,1.6-4.24,4.24,3.89,3.53,8.72,4.08,13.79,3.85,3.87-.17,3.86-5.8,0-6-4.27-.23-8.44-.64-12.02-3.17-3.16-2.23-6.16,2.97-3.03,5.18h0Z"/>
          <path class="cls-8" d="M89.87,107.17c3.02,2.78,6.95,4.8,10.67,6.45,1.49.66,3.21.42,4.1-1.08.76-1.27.4-3.45-1.08-4.1-3.21-1.42-6.84-3.11-9.45-5.51-2.84-2.61-7.09,1.62-4.24,4.24h0Z"/>
          <path class="cls-6" d="M56.76,13.43c.4.37.76.77,1.09,1.19l-.39-.51c.5.66.92,1.38,1.24,2.15l-.25-.6c.32.77.53,1.57.65,2.39l-.09-.66c.12.93.07,1.91.57,2.75.69,1.16,1.87,1.71,3.18,1.76.69.02,1.4-.08,2.08-.14,1.15-.1,2.2-.33,3.05-1.18.91-.92,1.14-2.26.85-3.48-.21-.92-.72-1.67-1.3-2.4-.9-1.13-1.96-2.07-3.11-2.94-1.29-.97-2.71-1.68-4.22-2.26-.37-.14-.95-.1-1.33,0-.53.14-.97.47-1.3.9-.61.79-.7,1.9-.2,2.78,1.09,1.87,2.47,3.6,4.08,5.04.97.87,2.59,1.03,3.54,0,.88-.95,1.04-2.6,0-3.54-.83-.75-1.59-1.56-2.27-2.44l.39.51c-.52-.67-.99-1.37-1.41-2.1l-2.82,3.67c.16.06.31.12.47.19l-.6-.25c1.16.5,2.25,1.13,3.25,1.9l-.51-.39c.93.72,1.77,1.55,2.51,2.47l-.39-.51c.21.27.38.56.52.87l-.25-.6c.07.17.12.34.15.53l-.09-.66c.02.14.02.27,0,.41l.09-.66c-.02.1-.04.19-.08.28l.25-.6c-.03.06-.06.12-.1.17l.39-.51c-.07.09-.14.16-.23.23l.51-.39c-.06.05-.13.08-.2.12l.6-.25c-.19.08-.37.12-.57.15l.66-.09c-.46.05-.92.08-1.39.11-.42.03-.85.09-1.28.04l.66.09c-.11-.02-.21-.04-.32-.08l.6.25c-.1-.05-.18-.09-.28-.16l.51.39-.08-.08.39.51c-.07-.09-.12-.17-.16-.28l.25.6c-.04-.11-.06-.21-.08-.32l.09.66c-.1-.82-.14-1.65-.32-2.47s-.5-1.64-.85-2.43c-.61-1.38-1.55-2.65-2.65-3.67-.96-.89-2.6-1.02-3.54,0s-1.02,2.58,0,3.54h0Z"/>
          <path class="cls-6" d="M68.74,26.62c.42.06.86.15,1.29.11s.87-.08,1.27-.22c.83-.29,1.49-.68,2.14-1.26.31-.28.57-.64.82-.97.12-.17.23-.35.32-.54.17-.38.36-.78.44-1.19s.15-.86.13-1.29c.01-.34-.06-.67-.22-.96-.1-.31-.27-.58-.52-.8-.23-.24-.49-.42-.8-.52-.3-.16-.62-.23-.96-.22-.65.03-1.32.24-1.77.73s-.77,1.11-.73,1.77c0,.17,0,.33-.02.49l.09-.66c-.03.22-.09.44-.18.64l.25-.6c-.1.24-.23.45-.38.66l.39-.51c-.17.22-.36.41-.57.58l.51-.39c-.22.17-.45.3-.7.41l.6-.25c-.22.09-.45.15-.69.19l.66-.09c-.22.03-.45.03-.67,0l.66.09h-.04c-.33-.11-.66-.13-1-.05-.33.02-.64.11-.93.3-.29.16-.53.37-.7.64-.22.24-.37.52-.45.85-.15.64-.11,1.36.25,1.93l.39.51c.31.31.68.52,1.1.64h0Z"/>
          <path class="cls-4" d="M49.82,36.48l.18.62c.19.78.54,1.46,1.07,2.04.42.65.98,1.17,1.68,1.55.69.44,1.43.68,2.23.71.8.18,1.6.14,2.39-.11l1.43-.6c.9-.53,1.62-1.25,2.15-2.15l.6-1.43c.29-1.06.29-2.13,0-3.19l-.18-.62c-.19-.78-.54-1.46-1.07-2.04-.42-.65-.98-1.17-1.68-1.55-.69-.44-1.43-.68-2.23-.71-.8-.18-1.6-.14-2.39.11l-1.43.6c-.9.53-1.62,1.25-2.15,2.15l-.6,1.43c-.29,1.06-.29,2.13,0,3.19h0Z"/>
          <path class="cls-4" d="M54.25,35.06c0,.1.02.19.03.29s.02.19.04.28c.01.06.03.12.06.18.07.17.13.35.23.5s.22.3.34.44c.04.05.08.09.13.13.14.12.29.24.45.33.24.13.53.23.81.22.31-.01.55-.06.81-.21s.5-.39.63-.65c.07-.13.12-.28.18-.41.01-.03.02-.06.03-.09.06-.18.07-.39.09-.57.03-.24-.02-.49-.06-.73,0-.06-.02-.11-.04-.17,0-.03-.02-.05-.03-.08-.06-.14-.11-.29-.18-.43-.03-.05-.06-.1-.09-.15-.1-.14-.22-.31-.35-.43,0,0-.02-.02-.03-.03-.05-.05-.11-.09-.17-.13-.06-.04-.11-.09-.17-.13-.01,0-.03-.02-.04-.02l-.36-.15s-.03,0-.05-.01l-.2-.03c-.07-.02-.14-.03-.22-.03l-.4.05s-.02,0-.03,0l-.18.08c-.07.02-.13.05-.19.08-.12.07-.23.16-.33.26-.21.21-.38.5-.45.79-.02.08-.02.15-.05.23l.15-.36s-.01.03-.02.04c-.11.17-.17.36-.18.56-.04.2-.04.4.03.6.05.2.14.37.27.51.11.16.25.29.42.39l.36.15c.27.07.53.07.8,0l.36-.15c.23-.13.4-.31.54-.54.09-.15.17-.33.2-.5,0-.06.01-.11.03-.17l-.15.36s.02-.05.04-.07l-.23.3s.02-.02.03-.03l-.3.23s.02-.01.03-.02l-.36.15s.02,0,.03,0l-.4.05h.02c-.13-.02-.27-.04-.4-.05.02,0,.03,0,.05.01l-.36-.15s.04.02.06.04l-.3-.23c.05.04.1.09.14.15l-.23-.3c.05.07.1.15.13.23l-.15-.36c.04.09.07.19.08.29l-.05-.4c.01.1.01.2,0,.3l.05-.4c-.01.09-.04.17-.07.25l.15-.36s-.04.09-.07.13l.23-.3s-.02.02-.03.03l.3-.23h-.02c.12-.04.24-.09.36-.14h-.02c.13-.01.27-.03.4-.05-.02,0-.03,0-.05,0l.4.05s-.03,0-.04-.01l.36.15s-.09-.05-.13-.08l.3.23c-.07-.05-.13-.11-.18-.18l.23.3c-.06-.07-.1-.15-.14-.24l.15.36c-.04-.09-.06-.18-.07-.27l.05.4s0-.06,0-.09c0-.21-.04-.4-.13-.58-.06-.19-.16-.35-.31-.48-.14-.15-.3-.25-.48-.31-.18-.09-.37-.14-.58-.13l-.4.05c-.25.07-.47.2-.66.39l-.23.3c-.14.23-.2.49-.2.76h0Z"/>
          <path class="cls-4" d="M57.13,34.04l-.09-.1-.3-.23c-.17-.11-.36-.17-.56-.18-.13-.04-.27-.04-.4,0-.2,0-.39.07-.56.18-.37.24-.63.56-.76.98-.05.15-.06.31-.07.47,0,.03,0,.06,0,.1,0,.31.05.63.09.93.05.37.15.74.29,1.09.05.2.14.37.27.51.11.16.25.29.42.39.17.11.36.17.56.18.2.04.4.04.6-.03.36-.12.71-.34.9-.69l.15-.36c.07-.27.07-.53,0-.8-.14-.35-.24-.72-.29-1.1l.05.4c-.03-.2-.06-.42-.03-.62l-.05.4s0-.05.02-.07l-.15.36s.01-.03.02-.04l-.23.3s.02-.02.03-.03l-.3.23h.02c-.61-.09-1.21-.17-1.82-.25l.09.1c.14.15.3.25.48.31.18.09.37.14.58.13.21,0,.4-.04.58-.13.19-.06.35-.16.48-.31.26-.29.46-.66.44-1.06s-.16-.76-.44-1.06h0Z"/>
          <path class="cls-9" d="M57.92,36.1s.37-.04.41-.05l.18-.08c.19-.06.35-.16.48-.31.17-.19.34-.42.39-.67,0-.03.05-.37.05-.4l-.05-.4h0c-.08-.27-.21-.49-.4-.69l-.3-.23-.36-.15c-.05-.01-.36-.06-.41-.05l-.2.03c-.2,0-.39.07-.56.18-.07.05.06-.05-.17.12-.19.15-.13.09-.28.28s-.08.1-.13.17c-.16.25-.19.52-.21.81,0,.07,0,.14,0,.21.02.2.04.41.09.61s.14.37.22.54c.01.03.03.06.04.08.04.06.1.13.14.18.06.08.09.13.15.19.05.04.26.21.31.24.07.04.13.06.21.09.23.1.34.14.62.14.43,0,.85-.17,1.15-.47.06-.06.11-.13.16-.2s.11-.13.15-.21c.07-.13.13-.28.18-.42,0-.03.02-.07.02-.1.05-.25.09-.51.07-.77s-.05-.53-.14-.77-.18-.48-.33-.68c-.19-.26-.34-.48-.62-.64-.13-.07-.26-.14-.41-.17-.07-.02-.34-.06-.41-.06-.07,0-.15.02-.22.03-.07,0-.14,0-.21.03-.41.1-.76.41-.98.76-.05.08-.08.17-.11.25-.04.09-.09.19-.11.29-.05.18-.07.39-.09.56,0,.08,0,.15,0,.23.03.27.06.54.15.8s.2.51.32.75c.03.06.06.13.1.19.08.12.18.25.27.35-.34-.36.23.2.32.25l.36.15c.07.03.14.04.22.03.24.03.39.05.65-.03.11-.04.28-.11.38-.16s.24-.17.32-.25c.13-.12.25-.28.34-.43.02-.03.04-.07.05-.1.06-.14.13-.28.18-.43.06-.19.08-.4.09-.59.02-.2-.03-.41-.06-.6-.01-.08-.03-.17-.06-.25-.07-.19-.15-.38-.24-.57-.03-.07-.07-.15-.11-.21-.19-.27-.36-.48-.65-.65-.13-.08-.28-.13-.42-.18h-.02c-.13-.02-.27-.04-.4-.06-.15,0-.3.03-.44.06-.2.05-.37.14-.51.27-.16.11-.29.25-.39.42-.11.17-.17.36-.18.56-.04.2-.04.4.03.6.12.36.34.71.69.9l.36.15c.27.07.53.07.8,0h.02c-.13.01-.27.03-.4.05h.02c-.13-.02-.27-.04-.4-.05.02,0,.04,0,.06.02l-.36-.15s.03.01.04.02l-.3-.23s.05.04.07.07l-.23-.3c.07.1.13.21.18.32l-.15-.36c.05.12.09.25.11.38l-.05-.4c0,.08.01.16,0,.24l.05-.4c-.01.08-.03.15-.06.22l.15-.36s-.05.09-.08.13l.23-.3s-.07.08-.11.11l.3-.23h-.02c.12-.04.24-.09.36-.14h-.02c.13-.01.27-.03.4-.05h-.02c.13.02.27.03.4.05h-.02c.12.04.24.09.36.14h-.02c.1.07.2.14.3.22l-.02-.02.23.3c-.1-.13-.16-.3-.22-.44l.15.36c-.07-.17-.12-.34-.15-.51l.05.4c-.01-.1-.02-.21,0-.31l-.05.4c.01-.09.03-.17.07-.25l-.15.36s.03-.06.05-.09l-.23.3s.02-.02.04-.03l-.3.23h.02c-.12.04-.24.09-.36.14h.02c-.13.01-.27.03-.4.05h.02c-.13-.02-.27-.04-.4-.06h.02c-.12-.05-.24-.1-.36-.15.01,0,.03.01.04.02l-.3-.23s.04.05.06.07l-.23-.3c.07.09.13.19.17.3l-.15-.36c.05.12.09.25.1.38l-.05-.4c.01.12.01.25,0,.37l.05-.4c-.01.07-.02.13-.05.19l.15-.36s-.03.05-.04.08l.23-.3s-.03.03-.04.05l.3-.23s-.02.02-.03.02l.36-.15s-.02,0-.04.01l.4-.05s-.03,0-.04,0l.4.05h-.02c.12.04.24.09.36.14-.01,0-.03-.01-.04-.02l.3.23s-.02-.02-.03-.03l.23.3s-.05-.09-.07-.14l.15.36c-.04-.1-.07-.21-.08-.32l.05.4c-.01-.1-.02-.19,0-.29l-.05.4v-.02c-.05.12-.1.24-.15.36v-.02c-.07.1-.15.2-.23.3h.01c-.1.07-.2.14-.3.22h.02c-.25.06-.5.13-.76.2h.01c-.35-.15-.71-.29-1.06-.44h0c-.08-.09-.16-.2-.23-.3h0c-.05-.11-.1-.23-.15-.35h0v-.79h0c.13-.21.26-.43.39-.65h0c.35-.14.71-.29,1.06-.43h0c-.21,0-.4.03-.58.13-.19.06-.35.16-.48.31-.15.14-.25.3-.31.48-.09.18-.14.37-.13.58.02.39.14.79.44,1.06l.3.23c.23.14.49.2.76.2h0Z"/>
          <path class="cls-9" d="M38.2,28.64c-.62,0-1.03.48-1.32.98s-.55,1.06-.65,1.64c-.05.29-.07.59-.04.88.04.36.12.75.52.87s.68-.13.88-.43c.17-.25.33-.5.47-.77.33-.63.51-1.35.31-2.05-.11-.38-.55-.46-.84-.22-.46.39-.8.93-.96,1.51-.09.31-.13.66-.04.98.11.37.41.72.84.6.32-.09.52-.42.68-.69s.28-.55.36-.84c.17-.6.18-1.23.05-1.83-.07-.34-.46-.43-.73-.3-.68.33-1.04,1.03-1.31,1.7-.15.38-.28.77-.29,1.18-.01.46.16,1.17.77,1.07.4-.07.71-.56.92-.88s.37-.65.49-1.01.2-.75.23-1.13c.03-.45-.06-.95-.56-1.09-.88-.26-1.44.81-1.72,1.47-.31.72-.47,1.5-.43,2.28.01.24.06.47.23.65s.41.25.65.25c.45,0,.83-.29,1.07-.65.45-.66.64-1.55.64-2.34,0-.43-.04-.95-.43-1.21-.51-.34-.99.04-1.3.44-.53.71-.82,1.57-.88,2.45-.02.27.24.5.5.5.29,0,.48-.23.5-.5.03-.38.12-.79.28-1.16.07-.16.17-.34.27-.5.04-.06.25-.4.3-.38-.07-.03-.13.05-.22-.02,0,0-.07-.06-.05-.06,0,0,.02.09.03.1.04.14,0-.1,0,.08,0,.23.01.45-.01.67-.04.4-.16.81-.34,1.17-.07.15-.15.31-.27.38-.02.01-.12.07-.08.04h0c-.12-.04-.08.01.12.16,0,0-.01-.1-.01-.1,0-.42.02-.79.12-1.2s.25-.77.46-1.12c.05-.09.11-.18.17-.27.04-.05.11-.11.14-.17.02-.04,0,0-.06-.02-.13-.04-.11-.24-.12-.01-.01.39-.11.82-.26,1.19-.09.21-.2.41-.33.6-.06.09-.11.16-.18.25-.03.03-.05.06-.08.09-.03.03-.06.06-.08.09-.05.05-.06.06-.03.03l.25-.07h-.05c.08.03.17.05.25.07l-.04-.02.18.18s0,.04-.02-.04c.01-.05,0-.07-.02-.07,0-.05,0-.11,0-.17,0-.13.02-.25.05-.37.06-.24.17-.51.25-.69.1-.22.21-.43.35-.62.11-.14.25-.26.45-.36l-.73-.3c.08.38.07.8-.02,1.18-.05.21-.11.39-.2.56-.05.09-.1.18-.15.26-.03.05-.08.1-.1.15-.03.06-.08.02.06-.02h.27l.17.14s0,.02,0-.02c0-.01-.02-.09-.02-.08,0,0,0-.17,0-.16.02-.17.08-.37.15-.51.14-.31.34-.57.6-.79l-.84-.22c.1.36.04.74-.12,1.09-.08.19-.19.37-.3.55-.06.1-.12.19-.19.29-.03.04-.05.08-.08.12-.04.06-.05.06,0,.02.07-.08.18-.1.31-.04l.18.18c.01.06,0,.05,0,0-.01-.04-.02-.09-.03-.13,0-.03-.01-.09-.01-.13,0-.15,0-.31.02-.46.04-.25.12-.53.23-.77.12-.28.27-.56.43-.81.06-.1.11-.16.21-.25-.05.04.08-.05.08-.05-.04.01-.03.01.03,0-.05,0-.04,0,.03,0,.64,0,.64-1,0-1h0Z"/>
          <path class="cls-4" d="M55.89,36.03l-.06.21c-.02.08-.02.19,0,.27.03.11.09.19.18.26.07.06.15.09.24.1.04.01.09.01.13,0,.07,0,.13-.02.19-.06.21-.09.4-.23.57-.39s.3-.35.4-.55c.09-.18.17-.38.11-.59-.06-.19-.19-.34-.39-.39-.16-.04-.34-.02-.48.08-.12.08-.22.18-.31.29s-.18.23-.25.35c-.08.15-.14.3-.15.47-.02.24.1.45.29.58.2.14.51.12.7-.03.15-.11.25-.23.35-.38.06-.09.11-.18.16-.28.06-.13.11-.26.14-.4s.04-.24,0-.37c-.02-.11-.09-.22-.17-.3-.1-.09-.22-.14-.35-.16-.1-.01-.2-.01-.3.02-.16.06-.31.15-.42.28-.1.12-.2.24-.28.37-.15.23-.27.49-.35.76-.04.12-.01.28.05.39s.18.2.3.23c.27.06.53-.08.62-.35.02-.08.05-.16.09-.24l-.05.12c.08-.2.19-.38.32-.55l-.08.1c.05-.07.11-.14.18-.2l-.1.08s.06-.04.1-.06l-.12.05s.05-.02.07-.02l-.13.02s.03,0,.05,0l-.13-.02s.02,0,.03,0l-.12-.05s.02,0,.03.02l-.1-.08s.01.01.02.02l-.08-.1s.01.02.02.04l-.05-.12s0,.02,0,.03l-.02-.13s0,.04,0,.07l.02-.13c-.02.1-.05.21-.09.3l.05-.12c-.05.12-.12.23-.2.34l.08-.1c-.04.06-.09.11-.14.16l.1-.08s-.04.03-.06.04l.12-.05s-.03.01-.05.01l.13-.02s-.02,0-.03,0l.13.02s-.02,0-.03,0l.12.05s-.02-.01-.03-.02l.1.08s-.01-.01-.02-.02l.08.1s-.01-.02-.02-.03l.05.12s0-.03-.01-.05l.02.13s0-.04,0-.06l-.02.13s.01-.07.03-.1l-.05.12c.05-.12.12-.23.2-.33l-.08.1c.07-.09.14-.17.22-.24l-.1.08s.03-.02.04-.03l-.12.05s.02,0,.03,0l-.13.02h.01s-.09-.01-.13-.02h.01s-.08-.03-.12-.05h.01s-.07-.04-.1-.07h0s-.05-.06-.08-.09h0s-.03-.07-.05-.11c0,0,0,.02,0,.02l-.02-.13s0,.02,0,.03l.02-.13s-.02.07-.03.1l.05-.12c-.05.12-.12.23-.2.34l.08-.1c-.08.11-.18.2-.29.29l.1-.08c-.1.08-.22.15-.34.2l.73.56.06-.21c.04-.12.01-.28-.05-.39-.06-.1-.18-.2-.3-.23-.27-.06-.53.08-.62.35h0Z"/>
          <path class="cls-4" d="M35.78,32.44c.07.02.15.03.23.04.04,0,.07,0,.11,0,.11,0,.23-.02.33-.06.07-.03.14-.05.2-.09s.12-.09.18-.13c.03-.02.05-.05.08-.08.05-.06.1-.12.13-.18l.05-.12c.02-.07.02-.13,0-.2,0-.05-.01-.09-.03-.13-.02-.06-.05-.12-.1-.16-.04-.05-.1-.09-.16-.13s-.12-.06-.18-.08c-.09-.03-.19-.04-.29-.04-.21.01-.39.08-.58.17-.09.04-.17.1-.25.17-.01.01-.02.02-.03.03-.03.04-.07.08-.09.13s-.05.1-.06.15c0,.03-.02.11-.02.14,0,0,0,.02,0,.03,0,.04.01.1.02.14,0,0,0,.01,0,.02.01.04.04.1.06.14.06.1.13.16.22.23.05.04.12.06.18.08.01,0,.02,0,.04,0,.06.01.12.02.17.02.12,0,.22-.04.33-.09.06-.03.12-.08.18-.13.09-.07.15-.17.22-.26.04-.06.06-.12.06-.19.01-.07.01-.13,0-.2-.03-.12-.12-.24-.23-.3-.12-.06-.26-.09-.39-.05l-.12.05c-.08.04-.13.1-.18.18-.02.02-.03.05-.05.07l.08-.1s-.06.07-.1.11l.1-.08s-.05.03-.07.04l.12-.05s-.04.01-.05.01l.13-.02s-.03,0-.04,0l.13.02s-.03,0-.05-.01l.12.05s-.04-.02-.05-.03l.1.08s-.02-.02-.03-.03l.08.1s-.01-.02-.02-.03l.05.12s0-.02,0-.04l.02.13s0-.02,0-.03l-.02.13s0-.02,0-.03l-.05.12s.01-.02.02-.03l-.08.1s.02-.02.03-.03l-.1.08c.06-.05.14-.08.22-.12l-.12.05c.07-.03.15-.05.22-.07l-.13.02s.09,0,.13,0l-.13-.02s.05.01.08.02l-.12-.05s.04.02.06.03l-.1-.08s.03.03.05.04l-.08-.61s-.03.05-.05.07l.08-.1s-.06.07-.1.1l.1-.08s-.09.06-.13.08l.12-.05c-.06.02-.11.04-.17.05l.13-.02c-.05,0-.1,0-.16,0l.13.02s-.06-.01-.09-.02c-.12-.04-.28-.01-.39.05s-.2.18-.23.3c-.03.13-.02.27.05.39s.17.19.3.23h0Z"/>
          <path class="cls-13" d="M55.02,81.09c-2.9,1.51-4.03,5.15-3.9,8.23s1.29,5.85,3.21,8.15,4.7,3.84,7.67,4.11c1.82.16,3.64-.38,5-1.61,1.27-1.14,1.94-2.88,2.3-4.52.67-3.1.44-6.42-.74-9.37s-3.24-6.03-6.19-7.46c-3.16-1.53-6.91-.83-9.3,1.79s-2.94,6.53-1.89,9.91c.98,3.16,3.15,5.96,5.6,8.13,2.81,2.49,7.03,3.94,10.24,1.23,2.46-2.08,2.68-5.82,1.72-8.7-1.03-3.05-3.03-5.7-5.53-7.7-1.31-1.05-2.75-2.16-4.44-2.5-1.98-.4-4.18.25-5.28,2.03-1.81,2.93-1.18,7.18.18,10.15s4.59,6.2,8.23,5.13c1.74-.51,2.99-2.02,3.53-3.7s.24-3.5-.48-5.12c-1.32-2.97-4.83-7.21-8.49-5.31-3.35,1.74-2.84,6.42-1.17,9.16.88,1.44,2.19,2.77,3.76,3.43,2.05.87,4.34.11,5.41-1.88,1.78-3.32-.9-7.69-3.19-10.07-1.16-1.21-2.69-2.3-4.45-2.23-2.16.08-3.54,1.83-3.54,3.91,0,3.1,1.5,6.27,3.71,8.4,1.14,1.1,2.52,2.03,4.01,2.57,2.07.75,3.89-.4,4.98-2.15,1.97-3.18.83-7.06-1.05-9.96-.97-1.5-2.06-2.94-3.22-4.3s-2.49-2.59-4.26-2.92c-4.27-.8-6.35,3.7-6.55,7.23s1.26,7.12,2.97,10.14,4.44,5.15,7.62,6.7c3.63,1.76,6.85-1.32,7.88-4.66.91-2.96.5-6.39-.41-9.29-1-3.19-2.82-6.46-5.4-8.64-2.91-2.46-6.77-3.14-9.78-.43-2.51,2.27-3.41,6.09-3.03,9.35.42,3.64,2.09,6.83,4.49,9.56,2.26,2.56,5.37,4.73,8.94,4.2,3.37-.5,6.21-3.43,6.94-6.72.82-3.71-.71-7.22-3.03-10.05-1.02-1.25-2.21-2.36-3.43-3.43-1.38-1.21-2.86-2.46-4.49-3.3-1.76-.9-3.71-1.29-5.58-.46-1.63.72-2.72,2.21-3.28,3.87-.6,1.78-.34,3.66-.1,5.48s.18,3.51.58,5.22c.79,3.32,3.47,5.45,6.09,7.35,1.09.79,2.79.19,3.42-.9.74-1.26.2-2.63-.9-3.42-1.36-.99-3-2.19-3.59-3.66-.4-1-.37-2.12-.45-3.17-.1-1.34-.4-2.67-.43-4.01-.01-.49-.01-.84.12-1.3.07-.25.13-.44.27-.63.04-.06.6-.37.14-.24.39-.12.59-.07,1.02.11,2.01.83,3.8,2.67,5.33,4.16,1.43,1.39,2.81,2.95,3.35,4.92.47,1.75.07,3.37-1.25,4.52s-2.8.86-4.24-.22c-1.61-1.21-2.94-2.95-3.87-4.73s-1.38-3.78-1.07-5.73c.14-.88.41-1.67.87-2.41.31-.51.82-1.02,1.3-1.14.55-.14,1.3.15,1.96.63.75.54,1.41,1.3,1.96,2.03,1.3,1.73,2.19,3.72,2.68,5.83.22.93.34,1.86.36,2.82.02,1.1,0,1.52-.31,2.51-.19.62-.37.98-.84,1.4.33-.29-.39.31-.36.23h-.01c-.27-.07-.01-.04.79.11-.32-.36-1.15-.6-1.58-.83-1.9-1.05-3.29-2.23-4.36-4.13s-2-3.92-2.26-6.06c-.12-1.06-.04-2.08.29-3.09.11-.32.18-.44.35-.7.19-.28.16-.02-.15-.11.68.2,1.38,1.14,1.87,1.72.76.9,1.46,1.86,2.12,2.85.54.8,1.1,1.65,1.38,2.59.26.86.33,1.6.06,2.27-.01.03-.45.61-.45.64l1.21-.32c.11.09.04.05-.23-.1-.14-.11-.37-.19-.52-.28-.78-.45-1.33-.91-1.96-1.65-.36-.43-.96-1.43-1.15-1.9s-.31-.93-.41-1.4c0,0-.08-.48-.05-.2-.02-.13.05-.77-.05-.87.61.62-1.56,1.29-1.44,1.21-.14.08.25.18.03.03.44.3.21.13.13.05.24.24.5.46.73.7.72.75,1.29,1.6,1.74,2.53.21.43.43.9.51,1.37.14.85-.13.2.16.21.12,0,.83-.57.81-.29.03-.44-.41-.25-.28-.16-.42-.3-.77-.73-1-1.07-.37-.57-.66-1.33-.71-1.84,0,.02.03-.84-.03-.44l.03-.13c.05-.16.05-.18-.02-.04l.13-.23c-.12.26-.31.4-.58.41-.31.27-.54-.28-.12.17.54.58,1.06,1.15,1.5,1.82.25.38.51.8.67,1.23s.2.83.16,1.07c-.03.17-.14.41-.26.57.21-.28-.27.09-.07.04.37-.09-.02.02-.08-.01-.25-.12-1.04-.78-1.39-1.26-1.1-1.47-1.57-3.23-1.49-5.02.02-.5.08-.73.18-1.22.06-.31.22-.34.03-.25-.17.08.22.09.42.17.46.19.95.57,1.36.87,1.5,1.1,2.86,2.52,3.79,4.14.43.76.71,1.41.92,2.25.17.67.18,1.54.03,2.13-.13.51-.29.79-.66.91-.71.23-1.44.03-2.16-.4-1.7-1-3.21-2.78-4.25-4.43s-1.7-3.49-1.35-5.35c.14-.74.48-1.49.87-1.94.61-.69,1.22-1.07,2.12-1.2-.15.02.53.02.54.02.41.08.69.2,1,.38.81.45,1.52,1.19,2.07,1.9,1.15,1.46,1.84,3.16,2.19,5.02.31,1.66.25,3.74-.43,5.42-.63,1.54-2.02,1.27-3.44.67.28.12-.13-.07-.15-.08-.24-.12-.48-.25-.71-.4-.15-.09-.31-.19-.45-.3-.43-.31-.22-.17-.14-.1-.8-.65-1.29-1.22-1.75-1.95-.88-1.39-1.33-2.8-1.35-4.29-.01-1.02.02-1.29.32-2.21.22-.69.49-1.12,1.11-1.44,1.2-.62,1.55-2.3.9-3.42-.71-1.21-2.22-1.52-3.42-.9h0Z"/>
          <path class="cls-4" d="M35.71,33.65c3.86,0,3.87-6,0-6s-3.87,6,0,6h0Z"/>
          <path class="cls-4" d="M38.21,29.12c.27-.77-.38-1.61-1.17-1.6-.35,0-.54.31-.48.63.07.4.34.75.71.92s.7-.04.75-.43c.07-.55-.2-1.1-.65-1.42-.51-.36-1.19-.31-1.57.21-.33.46-.31,1.2.05,1.65.2.24.52.35.82.21.27-.14.47-.44.62-.7.28-.47.64-1.23.18-1.7-.4-.41-1.11-.31-1.59-.12s-.98.54-1.24,1.02c-.29.54-.14,1.27.52,1.42.53.12,1.1-.18,1.51-.48.46-.33,1.19-1,.67-1.59-.37-.42-1.13-.33-1.61-.22-.55.12-1.09.41-1.48.82s-.62,1.06-.28,1.59,1.05.55,1.53.18.75-.96.89-1.52c.06-.25.1-.53-.05-.77-.19-.32-.56-.34-.88-.27-1.15.27-2.02,1.43-2.03,2.6,0,.3.05.62.27.85.26.26.68.28.95.03.48-.45.64-1.29.57-1.91-.04-.34-.29-.55-.63-.48-.86.16-1.28,1.02-1.59,1.74-.36.83-.61,1.84,0,2.63.22.29.65.35.86,0,.38-.64.56-1.38.49-2.12-.04-.46-.51-.62-.85-.35-.6.46-1.04,1.14-1.22,1.88-.16.64-.15,1.58.64,1.78.2.05.47-.03.56-.23.37-.76.58-1.57.6-2.42,0-.43-.56-.66-.85-.35-.64.67-.99,1.59-.89,2.52.03.26.21.51.5.5.86-.02,1.63-.47,2.07-1.2.18-.3-.04-.8-.43-.75-.92.11-1.76.48-2.43,1.13-.29.28-.09.91.35.85.82-.1,1.59-.33,2.33-.71.22-.11.3-.41.2-.62-.11-.25-.34-.33-.59-.29-.57.08-1.12.31-1.58.65-.43.32-.2,1.08.39.91.76-.21,1.52-.45,2.27-.71.65-.23,1.45-.42,1.95-.92s.58-1.27.72-1.94.35-1.44-.19-2c-.45-.47-1.12.22-.71.71.37.43.41,1.02.2,1.53-.09.23.08.51.29.59.25.1.47,0,.62-.2.67-.9.77-2.35-.1-3.16-.75-.71-2.08-.79-2.78.02-.42.49.29,1.2.71.71.36-.42,1.05-.38,1.42.03.49.54.28,1.37-.11,1.9l.91.39c.34-.86.12-1.81-.46-2.51l-.71.71c.11.12.06.34.04.48-.05.32-.13.64-.19.95-.1.51-.16,1.02-.66,1.29s-1.08.42-1.61.6c-.62.21-1.25.4-1.89.58l.39.91c.41-.3.84-.48,1.34-.55l-.39-.91c-.57.3-1.18.5-1.82.58l.35.85c.47-.45,1.07-.76,1.72-.84l-.43-.75c-.26.43-.71.7-1.21.71l.5.5c-.07-.68.13-1.32.6-1.81l-.85-.35c-.01.67-.17,1.32-.46,1.92l.56-.23c.07.02,0,.1,0-.03,0-.08-.01-.16,0-.24.02-.21.08-.43.16-.62.18-.44.48-.8.85-1.09l-.85-.35c.05.58-.06,1.12-.36,1.62h.86c-.4-.53-.2-1.17.05-1.72.19-.44.42-1.08.95-1.18l-.63-.48c.03.23.03.45-.03.67-.02.09-.05.18-.08.26-.03.06-.06.12-.09.18-.06.1-.07.11-.03.05l.25-.07h0c.07.04.15.09.22.13-.09-.07-.03-.36,0-.46.05-.24.14-.45.27-.65.11-.17.26-.33.43-.45.11-.08.43-.3.56-.27l-.22-.13c-.03-.19-.06-.21-.08-.06l-.03.1c-.03.09-.05.18-.09.26-.07.17-.16.35-.27.49-.05.06-.1.12-.17.16-.08.05-.11.03-.09.05.04.03,0,0,.01-.01.01-.09.01-.13.07-.21.18-.28.52-.48.82-.59.16-.06.34-.11.51-.13.09-.01.19-.01.28,0,.05,0,.18.03.16,0l-.13-.22c.02-.11,0-.11-.06,0-.05.05-.09.09-.14.14-.07.06-.14.12-.21.17-.16.11-.35.24-.55.29-.01,0-.18.03-.17.02.03-.05.08.12.12.1.03-.02.11-.18.14-.22.06-.07.13-.13.2-.19.13-.1.29-.19.45-.24.08-.03.17-.06.26-.07.07,0,.2.01.26,0,.09.04.05,0-.11-.15-.01.04-.02.09-.04.13-.03.11-.08.21-.13.31-.08.16-.2.44-.36.52l.25-.07h-.06c.08.02.17.04.25.07.04.06.04.06.01,0l-.03-.1c-.02-.07-.04-.16-.02-.23.03-.12.06-.12.14-.1.27.08.34.41.3.64l.75-.43c-.17-.08-.22-.14-.25-.32l-.48.63c.18,0,.27.17.21.33-.22.61.75.87.96.27h0Z"/>
        </g>
        <g>
          <path class="cls-3" d="M38.57,28.02c6.01-5.85,16.1-5.73,23.23-2.41,4.69,2.18,8.75,5.59,12.25,9.36"/>
          <path class="cls-3" d="M91.08,48.91c2.09,2.98-.75,6.78-3.78,7.51-3.56.86-7.48-1.19-10.2-3.28"/>
          <path class="cls-3" d="M78.49,40.21c2.38,2.47,5.08,4.79,8.11,6.41"/>
          <path class="cls-3" d="M76.07,56.4c1.17,1.48.35,9-7.97,3.79-.71,3.35-6.69,12.77-10.67,1.38-3.43,7.89-9.72,10.28-12.45,4.99-1.02-1.63-.34-5.69-.13-7.36.08-.66.06-1.33-.07-1.99l-.19-1.01s5.33,2.41,4.98-4.3c-3.35,0-5.37-4.06-4.98-10.24.14-2.16-.51-3.8-1.41-5.03-1.6-2.18-4.29-3.25-6.99-3.11-4.02.2-9.91,1.82-12.22,8.14-4.22,11.58,1.06,17.47,1.06,17.47,0,0,3.49,4.6,5.12,2.29.49-.93.43-2.33.66-3.49.49-2.48,1.23-4.8,3.05-4.45,3.86.73,9.52,1.74,8.29-3.18"/>
          <path class="cls-3" d="M31.92,34.14c-.09-.3-.88-6.96,4.12-8,0,0,2.53-.34,2.63,2.63s-2.01,4.74-2.01,4.74"/>
          <path class="cls-3" d="M88.04,56.2s5.83,10.55,10.43,15.46"/>
          <path class="cls-3" d="M99.57,73.36c-.07.28,6.88,7.84.96,6.76"/>
          <path class="cls-3" d="M98.98,81.49c.06.18,1.65,6.41-4.06,2.76,1.24,3.06,2.59,8.47-4.18,2.18.06,2.35,5.82,9.06,17.64,9.47,0,0-6-3.83-6.88-7.83"/>
          <path class="cls-3" d="M103.02,78.84s12.72,12.96,13.95,14.79c1.15,1.7-6.86,1.35-10.64.75"/>
          <path class="cls-3" d="M91.16,65.9s-10.94-5.35-11.24,9,6.82,14.12,6.82,14.12c0-.01,2.72.03,1.29-4.59"/>
          <path class="cls-3" d="M86.47,89.06s8.24,8.8,11.28,7.49c1.39-.65.71-2.65.71-2.65"/>
          <path class="cls-3" d="M102.03,95.9s3.18,4.47,8.54,3.29c2.96-.8,4.33,1.16.05,4.71"/>
          <path class="cls-3" d="M104.22,102.49c2.05,2.63,8.23,1.38,10.12.94,2.5-.58,1.7,1.82,1.47,2.29-1.22,2.55-5.06,7.04-11.41,3.74"/>
          <path class="cls-3" d="M100.34,106.02s5.29,3.24,4.65,5.94-7.32,1.25-15.26-4.75"/>
          <path class="cls-3" d="M91.75,99.66s-2.53,11.24-21.88,9.66-22.83-8.96-23.35-10.71c-.48-1.6-3.29-7.39-.82-17.14,3.15-12.43.99-12.79.99-12.79,0,0-12.72-5.2-17.53.29s2.69,6.02,2.69,6.02c0,0-6.53-1.32-6.93,2.03s6.49.95,6.49.95"/>
          <path class="cls-3" d="M31.8,79.49c-.22.04-2.12,3.18-.31,4.54s4.24-.44,4.24-.57"/>
          <path class="cls-3" d="M35.52,83.65c-.18.06-1.03,2.23.2,3.25s4.54,0,4.54,0c0,0,4.68-1.34,4.87-2.86"/>
          <path class="cls-3" d="M28.14,70.34s-16.45-.95-16.72,3.24,11.56,3.31,11.56,3.31c0,0-6.53,2.41-5.51,5.13s8.56,0,8.56,0"/>
          <path class="cls-3" d="M25.8,83.46s-5.07,2.03-5.47,5.74,2.87,3.53,6.88,0,5.38-4.69,5.38-4.69"/>
          <path class="cls-3" d="M26.2,90.52c.13.04,1.15,1.76,3.93,0s5.3-3.99,5.3-3.99"/>
          <path class="cls-3" d="M40.89,86.76c-.17.04-5.23,5.54-8.6,4.95-1.57-.4-.56-2.27-.56-2.27"/>
          <path class="cls-3" d="M52.62,104.93s.29,4.54,3.92,5.89c.52.19,1.11.32,1.78.36,5.32.31,6.73-2.21,6.73-2.21"/>
          <path class="cls-3" d="M89.27,104.47s2.21,4.28-3.13,6.35-8.21-1.12-8.21-1.12"/>
          <path class="cls-3" d="M85.74,111.21s2.14,5.82,2.12,6.11c-.07.85,7.23,2.75,11.6,2.38"/>
          <path class="cls-3" d="M85.74,118.33c2.6-.04,2.29-.79,2.29-.79,0,0,4.41,6.26,6.57,7.1"/>
          <path class="cls-3" d="M98.93,122.61c-.09.02-8.79-2.48-10.9-5.07"/>
          <path class="cls-3" d="M56.54,110.82v4.33c0,.62-1.91,5.87-3.1,7.46"/>
          <path class="cls-3" d="M45.37,116.71c.31.04,10.39.07,11.17-1.56,1.45.59,2.46,1.32,4.09,1.56"/>
          <path class="cls-3" d="M47,120.07c.35-.11,8.62-2.2,9.54-4.62"/>
          <path class="cls-1" d="M30.94,58.22s2.54-1.78,6.46.92c1.75,1.21,6.45.47,7.2-2.95"/>
          <path class="cls-3" d="M54.03,29.04c-.23.06-.45.14-.67.24-2.94,1.26-4.21,4.9-2.82,8.12s4.89,4.82,7.83,3.55,4.21-4.9,2.82-8.12c-1.28-2.98-4.37-4.57-7.16-3.79"/>
          <path class="cls-3" d="M60.19,20.31s-.31-8.87-3.09-9.13c2.42-1.1,9.93-.09,10.72,5.82s-5.34,3.84-5.34,3.84"/>
          <path class="cls-3" d="M67.6,24.19c-.39.32,3.66,2.16,5.65.49,1.67-2.32-1.63-4.54-1.63-4.54,0,0-2.72,2.99-4.01,4.06Z"/>
        </g>
        <path class="cls-9" d="M36.22,29.57c-.39.12-.62.45-.66.85s.21.79.59.89c.48.12.81-.32,1-.7.14-.29.27-.64.25-.97-.01-.21-.08-.4-.23-.55-.23-.23-.55-.21-.83-.09-.32.14-.57.38-.77.65-.23.33-.36.76-.15,1.13.22.39.75.45,1.12.27.32-.16.49-.51.59-.84.05-.15.09-.32.08-.48-.02-.26-.15-.5-.37-.63-.4-.23-.89-.05-1.14.3-.2.29-.25.67-.28,1.01-.01.15-.03.3-.01.45.03.34.26.62.62.63.4,0,.72-.32.93-.62.37-.51.63-1.54-.08-1.91-.39-.21-.84-.03-1.15.23-.23.19-.4.48-.48.77-.09.34-.07.72.1,1.03.17.34.5.58.88.62.42.04.74-.23.98-.54.19-.25.38-.53.45-.84.08-.33.05-.72-.16-1-.27-.37-.7-.5-1.14-.41-.33.07-.61.29-.81.55-.22.28-.44.61-.52.96-.08.38,0,.76.25,1.06s.69.39,1.05.25.65-.42.88-.74c.18-.26.33-.56.38-.88.07-.37.04-.78-.19-1.08s-.53-.49-.9-.52-.67.17-.89.44-.42.58-.54.93c-.22.65-.04,1.56.65,1.86.4.17.77-.03,1.09-.26.29-.2.55-.45.66-.8.11-.33.05-.72-.15-1-.22-.32-.54-.5-.93-.52-.33-.02-.68.12-.91.37-.18.19-.2.52,0,.71s.52.2.71,0c.01-.02.03-.03.04-.04.06-.06-.02.02-.03.02,0,0,.04-.03.05-.03.05-.04,0,.03-.04.01,0,0,.11-.03.12-.03,0,0-.13,0-.04,0,.03,0,.05,0,.08,0,.12,0-.08-.02,0,0,0,0,.06.02.06.02-.02.02-.1-.05-.03-.01.02.01.04.02.05.03.07.04-.02,0-.03-.02,0,0,.04.04.04.04.07.07-.05-.09,0,0,0,.02.07.13.03.05s.01.05.02.07c.02.06,0-.11,0-.04,0,.02,0,.04,0,.06s0,.09,0,.01c.01-.09,0,.01,0,.02-.02.07.01-.03.02-.03,0,0-.03.06-.03.06-.01.02-.02.04-.03.06-.04.06.02-.02.02-.02,0,.01-.07.07-.08.08-.02.02-.03.03-.05.05-.06.05-.03,0,0,0-.03,0-.08.06-.11.08-.04.03-.08.05-.12.07s-.08.05-.12.07c-.02.01-.08.03.02,0-.08.03.02.01.06.01.11,0-.07,0,.03.01.06,0,.01,0-.02-.01-.06-.03.06.06.02.01,0-.01-.03-.03-.04-.04-.07-.07.02,0,.01.02,0,0-.03-.05-.04-.06-.01-.02-.02-.04-.03-.06-.05-.1.03.1,0,0-.01-.04-.02-.08-.03-.12,0-.02,0-.09,0-.02s0,0,0-.02c0-.05,0-.09,0-.14,0-.02-.01-.09,0-.02s0-.01,0-.04c.01-.05.02-.1.04-.14.01-.03.05-.18.01-.05.03-.09.09-.18.14-.26.03-.04.05-.08.08-.12.01-.02.03-.04.04-.06.06-.08,0,0-.01.01,0-.04.07-.09.09-.11.02-.02.03-.03.05-.05.06-.07-.05.02,0,0,.12-.07-.09.03.02-.02.02,0,.09-.02,0,0s-.02,0,0,0c.12.03-.09-.03,0,0,.02,0,.04.01.06.02.09.02-.09-.06-.01,0,.02.01.03.02.05.03.06.03-.03.01-.03-.02,0,.01.06.06.07.07.05.04-.05-.09-.02-.03,0,.02.02.03.03.05.01.02.03.08,0,0-.02-.09,0,.02,0,.04,0,0,.02.06.02.07.01-.03,0-.09,0-.02,0,.05,0,.1,0,.15,0,.05.02.04,0-.02,0,.01-.01.07-.02.07-.01.06-.03.11-.05.17,0,0-.01.05-.02.05.02,0,.04-.08,0-.01-.02.05-.04.09-.07.14s-.05.09-.07.13c-.01.02-.03.04-.04.06,0,0-.08.09-.03.04s0,0-.02.02c-.02.02-.03.04-.05.06-.03.04-.07.07-.1.1-.02.02-.04.03-.05.05-.05.05.07-.05.01,0-.02.01-.13.1-.15.09,0,0,.1-.05.01,0h-.02s-.02.01.04,0c-.01,0-.07,0-.07,0,0,0,.11.03.03,0,0,0,.1.04.05.02-.02,0-.06-.05,0,0,.06.05,0,0,0,0-.07-.08.02.01.01.02,0,0-.03-.05-.03-.05-.04-.07.01.02.01.04,0-.02-.02-.1-.03-.12.01.01,0,.12,0,.04,0-.01,0-.07,0-.07,0,0-.03.12,0,.02,0-.03.02-.06.02-.09,0-.02.02-.05.03-.07.02-.07-.04.07,0,.01.02-.04.04-.08.06-.12.06-.1.12-.19.18-.28,0-.01.05-.06,0,0-.04.05,0,0,.02-.02.03-.04.06-.07.1-.1.02-.02.04-.03.05-.05.05-.05-.08.05-.02.01.02-.01.11-.09.14-.08,0,0-.12.04-.02.01.02,0,.05-.01.07-.02.08-.02-.03.01-.03,0,0,0,.07,0,.07,0,.08,0-.04.01-.03,0,0,0,.07.01.06.02,0,0-.09-.05-.04-.02.08.05,0,.01,0-.01,0,0,.04.04.04.04-.02.01-.06-.09-.02-.03,0,0,.03.06.03.06-.02,0-.03-.1-.02-.03,0,.02.01.04.02.06.02.07-.03-.02,0-.04,0,0,0,.07,0,.06,0,.03-.03.1,0,.03s0,0,0,.02-.01.05-.02.07-.02.05-.02.07c-.02.07.04-.07,0-.01-.06.1-.11.19-.17.28-.03.04-.06.08-.09.12,0,.01-.02.03-.03.04-.04.06.06-.07.01-.02-.03.03-.06.07-.09.1-.03.02-.07.03-.01.01.09-.02-.04,0-.03.01,0-.01.11-.03.03-.01s.03-.02.04,0c0,0-.07,0-.06,0,0,0,.13,0,.04,0-.07,0,.04-.04.03.02,0,0-.06-.03-.05-.03.01,0,.09.08.03.02-.02-.02-.03-.03-.05-.05-.06-.06.01.01.02.03,0-.01-.03-.04-.04-.06,0,0-.03-.06-.03-.06,0,0,.04.1.01.03,0-.02-.02-.11-.03-.12.03.03,0,.11,0,.04,0-.03,0-.05,0-.08,0-.02,0-.04,0-.06,0-.02,0-.09,0-.01,0,.07,0,.02,0-.01,0-.02,0-.04.02-.06.01-.03.03-.07.04-.1-.03.1-.03.07-.01.03.02-.03.03-.06.05-.08.01-.02.02-.03.03-.05.04-.06,0,.03-.02.03,0,0,.06-.07.07-.08.02-.01.03-.03.05-.04.05-.04-.08.05-.03.02.02,0,.11-.08.12-.07l-.06.02h.03s.02-.02.03-.02h-.06s.07,0,.07,0c0,.02-.13-.04-.13-.03,0,0-.08-.08-.03-.02-.02-.02-.08-.09-.07-.12,0,0,.02.06.02.06.02.09,0-.09,0-.03,0,.04,0,.07,0,.11,0,.09,0-.02,0-.03,0,.02,0,.05-.01.07,0,.05-.02.09-.03.14,0,.02-.01.04-.02.07,0,0-.04.11-.01.04.02-.07,0,0-.01.02-.01.02-.02.04-.03.06-.02.04-.05.08-.07.12-.01.02-.06.07-.01.02s0,0-.02.02c-.03.04-.07.08-.11.11,0,0-.05.04-.05.05,0-.01.09-.06.02-.02-.01,0-.04.02-.05.03.03-.03.11-.04.14-.04l.18.13c.13.03.19.1.18.2,0,0,0-.05,0-.06,0-.06,0-.13,0-.19,0-.06,0-.11.01-.17,0-.03,0-.06,0-.08-.02.11,0,.03,0,0,.02-.11.04-.21.07-.32,0-.02.04-.09,0-.02s0,0,.01-.02c0,0,.03-.04.03-.04,0,.04-.06.06-.01.02-.1.08-.06.04-.03.02.07-.04-.04.01-.04.02.08-.02-.04,0-.05,0,.01,0,.03,0,.04,0,.04,0,.02,0-.07-.01.04,0,.05.03-.05-.02,0,0-.09-.07-.05-.04s-.04-.05-.05-.07c0-.02-.02-.13-.02-.07,0,.07.02-.09,0-.03,0,.02-.01.05-.02.07-.01.05-.03.1-.04.15,0,.03-.05.1-.05.13,0-.01.05-.1,0-.02-.01.02-.02.04-.03.06-.03.06.02,0,.02-.02,0,.02-.05.03-.05.05,0,0,.08-.06.04-.03-.08.05,0-.01.03,0,0,0-.05.01-.05.02.06-.06.11,0,.05,0-.08-.01.05.01.05.01,0,0-.05-.01-.05-.01.04,0,.1.05.05.02.05.03.08.06.11.11-.02-.03-.02-.06.01.03v.06c0,.07,0,.08,0,.04,0-.02.01-.05.02-.07.02-.07-.04.07,0,.02.02-.04.04-.08.07-.12,0-.01.02-.03.03-.04.05-.07,0,.01-.02.02.04-.02.08-.1.12-.13.02-.02.09-.06.1-.09,0,0-.08.05-.03.03.02-.01.04-.03.06-.04.04-.03.08-.05.12-.07.02-.01.08-.02.02-.01-.09.01-.16.01-.25-.03-.04-.02-.08-.07-.11-.1-.05-.09-.03-.08-.02-.04,0-.01,0-.13,0-.04,0,.02,0,.04,0,.06,0,.04.02.04,0-.03,0,.02-.01.06-.01.07-.01.05-.02.11-.04.16-.01.04-.03.08-.04.12-.03.1,0-.02,0-.02,0,0-.03.06-.03.07-.05.09-.1.18-.16.27-.04.06.06-.06.01-.01-.02.02-.03.03-.05.05h-.01c.08-.07.17-.09.27-.05l.13.02s.06.05.03.03c-.05-.05.05.08.02.03s.04.11.02.05c-.03-.1,0,.12,0,0,0-.08-.02.13,0,0,.01-.05.03,0-.02.05,0,0,.03-.05.03-.05,0,0-.07.08-.04.05.01,0,.03-.02.04-.04.04-.05-.09.06-.04.03.06-.03-.13.04-.04.01.25-.08.43-.35.35-.62-.08-.25-.35-.43-.62-.35h0Z"/>
        <path class="cls-4" d="M35.28,31.28l.41-.32s.08-.1.1-.16c.03-.06.05-.12.04-.19l-.02-.13c-.02-.07-.05-.12-.09-.17-.02-.04-.05-.07-.09-.09-.05-.04-.1-.07-.17-.09l-.13-.02c-.09,0-.17.02-.25.07-.16.08-.31.17-.47.25l-.1.08s-.08.1-.1.16c-.02.04-.03.08-.03.13-.01.07-.01.13,0,.2l.05.12.08.1c.09.1.23.14.35.15.1,0,.2-.01.3-.03.06,0,.12-.03.17-.05.09-.04.18-.07.26-.13s.16-.12.23-.19c.05-.05.08-.1.1-.16.03-.06.05-.12.04-.19l-.02-.13c-.02-.07-.05-.12-.09-.17-.02-.04-.05-.07-.09-.09-.05-.04-.1-.07-.17-.09l-.13-.02c-.09,0-.17.02-.25.07-.1.05-.19.12-.27.19-.03.02-.05.05-.08.08-.05.06-.1.12-.14.18-.04.06-.06.12-.06.19-.01.07-.01.13,0,.2.02.07.05.12.09.17.04.05.08.1.14.13.12.06.26.09.39.05l.12-.05c.08-.04.13-.1.18-.18.01-.02.02-.03.03-.05l-.08.1s.08-.09.13-.13l-.1.08s.09-.06.14-.09l-.61-.79s-.06.06-.09.08l.1-.08c-.05.04-.11.07-.18.1l.12-.05c-.06.03-.13.04-.2.05l.13-.02s-.1,0-.14,0l.25.93c.16-.08.31-.17.47-.25l-.61-.79-.41.32s-.08.1-.1.16c-.03.06-.05.12-.04.19,0,.07.01.13.04.19.02.06.05.12.1.16.1.09.22.15.35.15l.13-.02c.08-.02.16-.07.22-.13h0Z"/>
      </g>
    </symbol>
    <clipPath id="clippath">
      <circle class="cls-2" cx="66" cy="66" r="63.91"/>
    </clipPath>
    <clipPath id="clippath-1">
      <circle class="cls-2" cx="66" cy="245.06" r="63.91"/>
    </clipPath>
  </defs>
  <g id="parrot">
    <g class="cls-11">
      <use width="131.52" height="131.52" transform="translate(.03 -.85)" xlink:href="#_Новый_символ"/>
    </g>
  </g>
  <g id="whale">
    <g class="cls-7">
      <rect class="cls-5" x="-30.39" y="131.37" width="213.04" height="213.04"/>
    </g>
  </g>
</svg>