<?xml version="1.0" encoding="UTF-8"?>
<svg id="zoo" xmlns="http://www.w3.org/2000/svg" xmlns:xlink="http://www.w3.org/1999/xlink" viewBox="0 0 132 132">
  <defs>
    <style>
      .cls-1 {
        fill: #e0a26f;
      }

      .cls-2 {
        fill: #ffabbd;
      }

      .cls-3 {
        fill: #f6f6f6;
      }

      .cls-4, .cls-5 {
        fill: none;
      }

      .cls-6 {
        clip-path: url(#clippath-1);
      }

      .cls-7 {
        fill: #f1b851;
      }

      .cls-8 {
        fill: #fff48f;
      }

      .cls-9 {
        fill: #1d1d1b;
      }

      .cls-10 {
        fill: #a48a7b;
      }

      .cls-11 {
        fill: #bee17a;
      }

      .cls-5 {
        stroke: #501a36;
        stroke-linecap: round;
        stroke-linejoin: round;
      }

      .cls-12 {
        clip-path: url(#clippath);
      }
    </style>
    <clipPath id="clippath">
      <circle class="cls-4" cx="66" cy="-106" r="63.91"/>
    </clipPath>
    <clipPath id="clippath-1">
      <circle class="cls-4" cx="66" cy="66.09" r="63.91"/>
    </clipPath>
  </defs>
  <g id="camel">
    <g class="cls-12">
      <rect class="cls-8" x="-43.79" y="-212" width="227.52" height="227.52"/>
    </g>
  </g>
  <g id="turtle">
    <g class="cls-6">
      <g>
        <rect class="cls-2" x="-36.84" y="-37.8" width="215.36" height="215.36"/>
        <g>
          <path class="cls-11" d="M95.81,51.96c-5.08,1.41-9.08,5.6-9.67,10.97-.5,4.57,2.72,8.95,7.71,7.17,4.72-1.69,7.58-8.83,5.89-13.39s-6.95-6.28-10.56-2.95-4.76,10.81-.6,13.87c4.59,3.38,8.96-1.87,10.73-5.82,2.05-4.57.24-10.99-5.55-11.02s-9.81,6.62-10.44,11.81c-.58,4.72,2.75,9.32,7.66,6.37,3.95-2.37,8.51-10.51,5.94-15.02-5.43-9.5-23.38,7.68-13.53,13.95,9.46,6.02,18.43-14.84,7.01-15.81-5.66-.48-9.22,5.46-8.71,10.49.45,4.43,4.84,9.63,9.42,6.03,4.06-3.18,4.76-12.03-.11-14.74-6.13-3.42-8.96,4.44-8.9,9.14.05,4.02,3.31,15.51,9.61,10.9,4.56-3.34,2.53-12.07-1-15.29-.88-.8-2.57-1.29-3.64-.47-3.14,2.42-6.17,5.23-5.79,9.53.33,3.74,3.08,8.09,7.2,8.14,3.55.04,6.29-3.18,6.59-6.58.38-4.25-2.82-7.48-6.25-9.37-1.54-.85-3.11-.25-4.1,1.08-4.38,5.85-.63,13.82,5.52,16.66,7.54,3.49,10.52-3.84,9.55-10.03-.16-1.05-1.18-1.78-2.1-2.1-2.35-.82-5.7-2.31-8.19-1.15-2.74,1.27-3.76,5.17-4.5,7.8-.27.97-.02,2.24.77,2.92,4.26,3.65,7.22,6.39,13.1,3.8,4.91-2.16,6.41-5.34,5.13-10.56-.22-.92-1.12-1.94-2.1-2.1-3.07-.5-6.11-.81-9.23-.85-1.4-.02-2.45.96-2.89,2.2-1.08,3-3.44,5.58-2.32,9,.68,2.07,2.32,2.98,4.2,3.78,2.67,1.13,5.84,2.51,8.73,1.63,3.16-.96,6.12-3.87,8.64-5.92,1.27-1.03,1.04-3.18,0-4.24-2.26-2.32-5.03-3.62-8.29-3.8-2.43-.13-7.15,0-9.01,1.77-4.66,4.44,1.47,10.12,5.93,10.57,5.88.59,12.4-1.41,11.97-8.42-.46-7.64-9.64-2.84-13.18-.52-1.19.78-1.66,2.02-1.38,3.39,1.35,6.65,5.75,7.01,11.46,4.89s6.46-6.34,5.7-11.99c-.22-1.66-2.29-2.41-3.69-2.1-3.46.78-9.42,2.52-10.96,6.15-1.36,3.21.75,7.84,2.99,10.13.95.97,2.47,1.1,3.64.47,3.83-2.08,6.79-4.79,9.44-8.23,1.31-1.7-.23-3.77-1.79-4.41-6.03-2.44-15.39,2.63-12.73,10.07.46,1.29,1.5,2.16,2.89,2.2,4.13.12,9.69-6.19,12.68-8.64,1.6-1.31.84-3.73-.61-4.71-5.75-3.89-9.55,2.38-12.43,6.4-1.43,2,.54,4.37,2.59,4.51,2.59.19,6.23.61,8.43-1.19s2.47-5.21,3.2-7.62c.62-2.06-1.53-4.5-3.69-3.69-2.81,1.05-5.02,2.39-7.18,4.49-1.13,1.09-1.18,3.16,0,4.24,5.88,5.39,9.51,1.89,12.84-4.1.85-1.52.26-3.13-1.08-4.1-1.58-1.15-3.01-1.79-4.9-2.23-2.41-.57-4.88,2.12-3.39,4.41,1.77,2.71,3.7,5.09,6.74,6.34,1.03.42,2.14-.15,2.92-.77,3.17-2.56,2.41-8.06-1.6-9.16-1.48-.41-3.37.5-3.69,2.1-.63,3.15-.6,5.96.17,9.08.44,1.78,2.82,2.88,4.41,1.79,2.39-1.64,3.58-3.63,3.4-6.59-.14-2.39-3.3-4.22-5.12-2.12-1.62,1.86-2.31,3.4-2.17,5.93.15,2.67,3.14,3.85,5.12,2.12,1.69-1.47,2.64-3.15,2.96-5.39.28-1.95-1.31-4.67-3.69-3.69-1.17.48-1.93.9-2.86,1.76l4.24,4.24c3.34-4.32,6.06-9.4,4.14-14.98-2.05-5.96-8.27-8.27-11.78-13.07l-4.1,4.1c3.5,2.36,6.47,5.15,8.99,8.54,2.25,3.01,7.17.4,5.18-3.03-2.44-4.21-6.05-12.54-11.21-14.08s-12.95,2.61-17.4,4.89c-3.45,1.76-.42,6.89,3.03,5.18,2.85-1.41,5.69-2.82,8.54-4.23,2.17-1.08,1.84-5.11-.72-5.48-6.18-.89-12.78,3.81-18.12,6.5-3.46,1.75-.42,6.85,3.03,5.18,4.05-1.96,7.93-4.16,11.68-6.63,3.21-2.11.38-7.07-3.03-5.18-4.23,2.34-8.46,4.69-12.69,7.03-3.38,1.88-.37,7,3.03,5.18,5.29-2.83,10.67-5.48,16.15-7.93,3.06-1.37,1.04-5.28-1.51-5.59l-1.07-.13c-3.52-.44-3.81,4.86-.8,5.89,2.51.86,4.53,2.02,6.64,3.6l-.61-4.71c-4.68,3.99-11.39,3.41-11.75,11.11-.05,1.01.6,2.11,1.49,2.59,2.44,1.31,6.4,3.08,8.97,1.09s1.98-6.66,1.52-9.47c-.56-3.4-5.88-2.5-5.89.8-.02,5.39.28,10.5,2.95,15.3,1.4,2.51,5.8,1.5,5.59-1.51-.37-5.17-.97-10.3-1.79-15.42-.54-3.39-5.91-2.51-5.89.8.02,4.66,3.11,8.63,5.33,12.54,1.23,2.16,4.93,1.84,5.48-.72.44-2.05.44-3.73.15-5.79-.52-3.66-5.51-2.21-5.89.8-.41,3.22.58,5.73,2.68,8.14s5.84-.15,5.01-2.92c-1-3.39-2-6.77-3.01-10.16l-5.79,1.6c1.57,4.62,3.68,8.27,8.86,8.86,1.87.21,3.5-2.1,2.89-3.8-.48-1.33-.82-2.14-1.54-3.36l-5.18,3.03c1.72,2.87,3.62,5.56,5.7,8.18s6.76-.91,4.71-3.64c-3.21-4.28-6.87-11.24-11.72-13.64-3.16-1.57-5.75,2.07-3.64,4.71,2.76,3.44,5.76,6.55,9.11,9.41,2.47,2.11,6.59-.57,4.71-3.64-.61-1-1.22-2.01-1.84-3.01-1.31-2.14-4.85-1.85-5.48.72-.57,2.32-1.15,4.64-.72,7.02.17.96,1.16,1.89,2.1,2.1l.38.08c1.41.3,2.58-.23,3.39-1.38l.2-.28c1.11-1.57-.03-3.98-1.79-4.41-5.35-1.29-10.74-1.97-16.25-2.04-2.1-.02-3.21,1.93-2.89,3.8.36,2.08,1.14,3.45,2.7,4.85,1.91,1.72,5.09.57,5.12-2.12.03-2-.2-3.77-.72-5.69-.82-3.04-4.8-2.64-5.79,0-.75,2-1.09,3.8-1.3,5.9-.4,3.84,5.6,3.81,6,0,.1-1.51.47-2.94,1.09-4.31h-5.79c.48,1.33.65,2.7.51,4.1l5.12-2.12-1.16-2.2-2.89,3.8c4.98.06,9.81.66,14.65,1.82l-1.79-4.41-.2.28,3.39-1.38-.38-.08,2.1,2.1c.12-1.3.36-2.58.72-3.83l-5.48.72c.61,1,1.22,2.01,1.84,3.01l4.71-3.64c-3.35-2.87-6.35-5.98-9.11-9.41l-3.64,4.71c3.83,1.9,7.08,8.17,9.57,11.49l4.71-3.64c-1.76-2.23-3.3-4.54-4.76-6.97-1.98-3.31-7.15-.31-5.18,3.03l.94,1.92,2.89-3.8c-1.62-.18-2.63-3.13-3.08-4.45-1.23-3.62-6.89-2.14-5.79,1.6,1,3.39,2,6.77,3.01,10.16l5.01-2.92c-1.01-1.2-1.32-2.5-.92-3.9l-5.89.8-.15,2.6,5.48-.72c-1.54-2.71-4.5-6.3-4.52-9.51l-5.89.8c.73,4.6,1.24,9.19,1.57,13.83l5.59-1.51c-2.14-3.85-2.15-7.98-2.13-12.27l-5.89.8c1.37,2.88.81,3.42-1.67,1.61l1.49,2.59c.14-2.99,7.83-5.03,9.99-6.87,1.62-1.38.8-3.65-.61-4.71-2.5-1.88-5.12-3.19-8.07-4.21l-.8,5.89,1.07.13-1.51-5.59c-5.48,2.46-10.86,5.1-16.15,7.93l3.03,5.18,12.69-7.03-3.03-5.18c-3.76,2.48-7.63,4.68-11.68,6.63l3.03,5.18c2.18-1.1,4.36-2.18,6.56-3.23,1.91-.91,4.77-2.98,6.94-2.67l-.72-5.48c-2.85,1.41-5.69,2.82-8.54,4.23l3.03,5.18c2.88-1.47,9.76-5.24,12.94-3.94,2.99,1.22,5.9,8.28,7.47,10.97l5.18-3.03c-3.17-4.23-6.76-7.73-11.15-10.69-2.41-1.62-5.88,1.68-4.1,4.1,2.05,2.81,4.52,4.73,7.12,6.98,4.8,4.14,5.51,8.55,1.45,13.8-2.3,2.98,1.32,6.95,4.24,4.24l.22-.21-3.69-3.69c.04,1.14-.43,2.05-1.42,2.74l5.12,2.12.41-1.69-5.12-2.12-.43,1.41,4.41,1.79c-.54-2.18-.61-3.69-.17-5.89l-3.69,2.1-1.05-.87,2.92-.77c-1.22-.5-2.57-2.68-3.16-3.58l-3.39,4.41c1.34.18,2.49.72,3.46,1.63l-1.08-4.1c-.44.85-.93,1.67-1.46,2.46-.78,2.1-1.43,2.24-1.96.42v4.24c1.37-1.33,2.72-2.27,4.53-2.95l-3.69-3.69c-.19.62-.91,4.26-1.4,4.64-.57.44-3.77-.19-4.44-.24l2.59,4.51c.69-.97,2.6-5.34,4.22-4.24l-.61-4.71c-1.71,1.4-3.43,2.78-5.17,4.12-.82.64-1.65,1.27-2.48,1.88-1.67.97-1.93,1.26-.79.87l2.89,2.2c-.34-.83.02-1.48,1.08-1.94.91-1.78,2.33-2.03,4.27-.76l-1.79-4.41c-2,2.6-4.42,4.52-7.29,6.08l3.64.47c-3.99-4.08,2.26-5.56,5.32-6.25l-3.69-2.1c.35,2.57-.77,4.55-3.34,5.17-1.91.46-1.82.83-2.25-1.27l-1.38,3.39c1.92-1.26,4.27-2.91,6.66-2.91l-2.59-1.49c1.44,2.24-5.36,2.3-6.24,2.21-2.57-.24,1.97-.43,2.56-.41,1.98.07,3.5.58,4.92,2.04v-4.24c-2.71,2.2-5.05,4.75-8.61,3.78-2.18-.6-3.35-.32-2.17-2.97.53-1.18,1.1-2.21,1.54-3.45l-2.89,2.2c2.58.03,5.08.22,7.63.63l-2.1-2.1c.62,2.55-1.02,4.34-3.95,3.89-1.85-.29-2.85-1.75-4.26-2.96l.77,2.92.46-1.64c-.54-1.87-.21-2.53.99-1.98.85-.19,3.16.92,3.86,1.17l-2.1-2.1c.43,2.77-2.25,2.34-3.78,1-1.87-1.65-1.7-4.36-.33-6.2l-4.1,1.08c.78.43,3.86,1.78,1.49,2.62l.18-1.7c.72-1.03,1.6-1.91,2.63-2.63l-3.64-.47c1.23,1.12,1.1,2.01,1.7,3.46-.42,1.25-.3,1.63.36,1.15.55-.13.6-.47.14-1.02-.08-1.59-.45-3.13-.45-4.76-.02-3.39.11-.59.04-.68.03.65-.13,1.26-.47,1.81l.02-2.73c.7-.8,1.78-.09.91,1.06l-1.67.25,1.25-1.66,1.69-1.48c1.59-1.37,2.09-1.47,1.48-.28.16.57-3.2,6.38-1.55,3.05.26-.53,3.66-6.72,3.64-1.08,0,.33-1.77,2.6-1.85,2.57l.66-2.59,1.75.8c.08.4-1.81,3.69-2.07,3.51-2.35-1.62,4.51-6.26,5.38-6.5,3.72-1.03,2.14-6.82-1.6-5.79h0Z"/>
          <path class="cls-11" d="M95.33,87.41l-.71-.15c-2.3-.5-4.18,1.4-3.69,3.69.37,1.71,1.92,2.81,3.65,2.71,2.74-.16,4.38-4.19,1.51-5.59-1.89-.93-3.21-.9-5.12-.03-2.14.97-1.76,4.11,0,5.18.53.32,1.03.54,1.64.68,3.24.75,5.35-3.75,2.31-5.48-1.3-.75-2.47-1.06-3.97-1.05-3.05.04-3.98,3.99-1.51,5.59,1.72,1.11,3.4,1.31,5.37.79,2.96-.77,2.75-4.91,0-5.79-.97-.31-1.94-.62-2.91-.92-2.81-.89-5.14,3.02-2.92,5.01,2.98,2.67,7.99,4.68,11.28,1.2,2.87-3.03.24-7.79-3.77-7.71-4.52.09-4.38,6.29-1.64,8.6,3.53,2.97,7.71-1.29,8.91-4.66,1.37-3.87-2.13-8-6.23-6.48-3.71,1.38-4.42,6.31-1.7,8.99,3.13,3.09,7.04,1.69,9.16-1.63,1.11-1.74,1.65-3.93.93-5.93-.8-2.25-2.71-2.86-4.51-4.11-1.66-1.15-3.86.08-4.41,1.79-1.44,4.55,1.64,13.29,7.66,10.95,5.58-2.18,2.12-10.86-2-12.85-1.31-.63-2.54-.45-3.64.47-3.75,3.14-1.37,12.1,3.72,12.41,2.43.15,4.57-1.62,4.94-4.03.43-2.75-1.38-4.7-3.81-5.6-1.14-.42-2.86.26-3.39,1.38-1.14,2.43-1.05,4.46-1.31,7.03l2.2-2.89c-1,.41-2.17.42-3.24.56-1.7.22-3.7,1.77-2.89,3.8,1.2,3,4.1,3.3,6.89,2.19,3.15-1.26,4.94-3.76,4.47-7.14s-5.7-2.38-5.89.8c-.04.66,0,1.46-.17,2.1l1.38-1.79c-.71.43-1.9.25-2.62.09l1.32,5.01c.67-.6,1.3-1,2.1-1.42,3.4-1.83.38-7.01-3.03-5.18-1.21.65-2.28,1.45-3.31,2.36-1.64,1.47-.83,4.54,1.32,5.01s5.03.68,7.07-.59,1.81-3.52,1.94-5.59l-5.89.8c.02.13-2.71-.55-1.02.33l1.38,1.79-.15-.37-2.89,3.8c1.54-.2,3.4-.18,4.83-.78,1.36-.56,2.06-1.43,2.2-2.89s-.17-2.6.49-4l-3.39,1.38c1.09-1.1,1.45-2.31,1.08-3.6.08-.9.05-1.14-.1-.72l-3.64.47c.75.36,1.21,1.33,1.53,2.04.18.36.31.75.39,1.15,1.22-.85,1.43-1.21.65-1.1l2.12.88c-1.38-1.12-2.07-2.96-1.54-4.65l-4.41,1.79c1.56,1.08,2.04.77.95,2.43l.74-.19-2.25.2c-.65.3-1.05,1.35-1.79,1.72l2.31-.3.34.81-1.79,1.38c-1.53.48-.86-1.9-1.64-2.51-.6-.47-1.39-.66-2.03-1.24l-2.92,5.01c.97.31,1.94.62,2.91.92v-5.79l-.74-.19-1.51,5.59.94.23,2.31-5.48-.2-.07v5.18l-.94.03,1.51-5.59.83.23,1.38,1.79-.07-.33-3.69,3.69.71.15c3.76.82,5.37-4.96,1.6-5.79h0Z"/>
          <path class="cls-11" d="M71,80.03l-1.26.3.8,5.89c5.36-1.37,10.22-3.65,14.67-6.96,2.07-1.54,1.8-5.97-1.51-5.59-4.14.47-8.13,1.26-12.1,2.54-2.6.83-3.1,5.23,0,5.79,5.8,1.05,10.52-1.25,14.78-5.08,2.13-1.91-.11-6.16-2.92-5.01s-5.57,2.58-8.12,4.51-1.17,6.8,2.31,5.48c3.8-1.44,6.22-3.85,7.37-7.81.76-2.63-2.15-4.55-4.41-3.39-2.76,1.42-4.37,3.97-3.94,7.09.14.99,1.19,1.85,2.1,2.1,7.58,2.07,7.96-12.19.74-9.44-6.43,2.45.4,13.51,6.69,8.97,2.51-1.81,1.09-6.86-2.31-5.48-2.43.98-4.79,2.05-7.1,3.3s-1.76,4.88.72,5.48c5.61,1.36,10.15-1,13.83-5.21,2.11-2.41-.66-6.76-3.64-4.71-3.58,2.46-7.25,4.29-11.41,5.59-3.67,1.15-2.16,6.77,1.6,5.79,5.71-1.49,11.41-2.99,17.12-4.48,3.14-.82,2.53-4.73,0-5.79-2.16-.91-4.47.23-6.59.87-3.39,1.02-6.78,2.04-10.17,3.07-3.76,1.13-2.16,6.43,1.6,5.79,2.94-.51,5.5-1.49,8.06-3.01,3.32-1.97.3-7.16-3.03-5.18-2.14,1.27-4.2,1.99-6.63,2.41l1.6,5.79c2.54-.77,5.09-1.53,7.63-2.3,1.32-.4,4.92-2.06,5.94-1.63v-5.79c-5.71,1.49-11.41,2.99-17.12,4.48l1.6,5.79c4.61-1.45,8.85-3.46,12.84-6.2l-3.64-4.71c-2.17,2.48-4.39,4.54-7.99,3.66l.72,5.48c1.87-1,3.7-1.89,5.67-2.69l-2.31-5.48-2.81-.14,2.1,2.1,1.18-.32-4.41-3.39c-.32,1.78-1.38,2.98-3.18,3.62l2.31,5.48c2.11-1.59,4.23-2.9,6.69-3.9l-2.92-5.01c-2.51,2.25-5.42,4.17-8.94,3.54v5.79c3.45-1.11,6.9-1.91,10.51-2.32l-1.51-5.59c-4.04,3.01-8.35,5.1-13.24,6.35-3.26.83-2.61,5.96.8,5.89,1.17-.02,1.76-.09,2.86-.52,3.56-1.38,2.01-7.19-1.6-5.79h0Z"/>
          <path class="cls-11" d="M71.27,78.8c-4.78.12-9.11,1.19-13.43,3.21-2.67,1.25-1.39,5.81,1.51,5.59,4.37-.33,8.62-1.04,12.85-2.22l-1.6-5.79c-5.3,1.53-10.7.91-15.85,3.13-2.93,1.26-1.18,5.48,1.51,5.59,3.22.13,5.86-.5,8.77-1.84,2.22-1.02,1.8-5.13-.72-5.48s-5-.7-7.5-1.05c-3.73-.52-5.38,4.57-1.6,5.79,2.4.77,4.5.76,6.86-.21,3.12-1.28,2.7-5.57-.8-5.89-2.8-.26-6.31-.22-7.01,3.26-.51,2.55,1.64,4.72,4.11,4.58,3.91-.23,3.81-5.62,0-6-3.56-.36-6.71.4-9.81,2.15-3.39,1.92-.4,6.89,3.03,5.18,2-1,3.33-2.3,4.57-4.15,1.78-2.67-1.62-5.36-4.1-4.1-3.43,1.73-5.56,4.46-6.52,8.16-.63,2.44,2.14,4.84,4.41,3.39,2.48-1.59,3.9-3.41,4.3-6.38.33-2.45-1.92-4.83-4.41-3.39-5.58,3.25-8.09,9.42-6.37,15.64.47,1.69,2.82,2.99,4.41,1.79,3.68-2.77,8.75-9.47,3.72-13.45-1.05-.83-2.4-1.21-3.64-.47-4.1,2.46-8.61,11.91-2.21,14.72,5.53,2.43,10.81-6.14,6.11-10.06-5.7-4.75-10.24,4.58-7.72,9.33,3.33,6.26,11.39,3.4,13.51-2,.4-1.02-.12-2.16-.77-2.92-4.94-5.76-14.48-1.94-11.08,5.82,2.78,6.36,15.08,8.69,15.58-.23.4-7.22-9.25-11.21-13.57-5.04-4.9,7,3.09,13.17,9.89,10.3,8.54-3.6.1-12.63-6.34-12-8.82.86-7.71,11.26-.13,13.4,7.59,2.13,14.43-6.94,7.24-12.23-5.27-3.88-14.59,1.6-9.76,7.92s18.3,2.76,16.1-6.53c-.82-3.47-5.2-3.99-7.91-2.34-4.2,2.55-1.37,6.79.72,9.75,1.31,1.86,3.89,1.99,5.18,0,3.28-5.06,3.19-9.63-3.57-10.72-2.03-.33-3.63.8-3.8,2.89-.34,4.21,2.17,10.64,7.64,8.32,6.22-2.64,1.37-9.37-1.13-12.63-1.56-2.03-4.61-1.9-5.48.72l-.52,1.57c-1.14,3.42,3.63,4.93,5.48,2.31,2.43-3.44,4.73-6.94,6.91-10.54l-5.18-3.03c-1.48,3-2.7,6.03-3.67,9.24s3.68,5.09,5.48,2.31,3.4-5.72,4.76-8.8c1.57-3.57-2.83-6.1-5.18-3.03-1.7,2.23-3.16,4.52-4.47,7-1.8,3.41,3.16,6.34,5.18,3.03,1.29-2.11,2.28-4.27,3.1-6.6,1.2-3.41-3.64-4.91-5.48-2.31-2.89,4.07-5.7,8.19-8.44,12.37l5.18,3.03c1.38-2.97,2.76-5.95,4.13-8.92.72-1.56.29-4.07-1.79-4.41-3.18-.51-5.5.04-7.85,2.33-1.54,1.5-.91,4.56,1.32,5.01,3.24.67,5.94-.69,6.74-4.04.58-2.44-2.11-4.85-4.41-3.39-2.7,1.71-4.68,3.69-6.42,6.38s1.62,5.16,4.1,4.1c3.25-1.38,3.95-4.51,1.76-7.15-2.47-2.98-6.69,1.29-4.24,4.24l.52.63-.77-2.92-.3.02,4.1,4.1c1.25-1.93,2.33-2.99,4.26-4.22l-4.41-3.39.64-.15,1.32,5.01,2.01-.78-1.79-4.41-4.13,8.92c-1.61,3.47,3.03,6.3,5.18,3.03,2.74-4.17,5.56-8.29,8.44-12.37l-5.48-2.31c-.68,1.93-1.44,3.45-2.49,5.16l5.18,3.03c1.31-2.48,2.77-4.77,4.47-7l-5.18-3.03c-1.36,3.08-2.93,5.98-4.76,8.8l5.48,2.31c.82-2.71,1.81-5.27,3.07-7.81,1.7-3.44-3.15-6.36-5.18-3.03-2.19,3.59-4.49,7.1-6.91,10.54l5.48,2.31.52-1.57-5.48.72c.69.9,1.76,3.16,2.69,3.55,1.27.54,1.84-.54,1.98-2.27l-3.8,2.89c2.38.38,1.05.26-.01,1.9h5.18c-.4-.54-.78-1.09-1.14-1.66-.31-.87-.74-.78-1.31.27l-1.49-2.59c.03,2.25.02,2.34-1.75,3.14-1.09-.16-2.06.1-2.92.8-1.48,1.23-1.84.95-1.07-.84l1.94.54c-1.91.15-2,.16-.28.04l-3.01-1.37c-.72-1.6-.43-1.56.87.13l-.77-2.92c.33-.84-6.58-1.79-.87-5.21l-3.64-.47c1.09.86-2.23,3.82-2.5,4.02l4.41,1.79c-1.01-3.64.3-6.94,3.61-8.86l-4.41-3.39-1.54,2.79,4.41,3.39c.57-2.22,1.75-3.56,3.76-4.58l-4.1-4.1c-.57.97-1.38,1.64-2.41,2l3.03,5.18c2.28-1.29,4.19-1.6,6.79-1.33v-6c-.64,2.59-.17,3.92,1.41,4.01.5.07,1,.12,1.5.15l-.8-5.89c-1.14.71-2.36.78-3.67.21l-1.6,5.79c2.5.35,5,.7,7.5,1.05l-.72-5.48c-1.93.89-3.66,1.11-5.74,1.02l1.51,5.59c4.5-1.93,9.72-1.17,14.41-2.52,3.7-1.07,2.14-6.83-1.6-5.79s-7.39,1.72-11.25,2.01l1.51,5.59c3.36-1.57,6.7-2.3,10.4-2.4s3.87-6.1,0-6h0Z"/>
          <path class="cls-11" d="M17.47,82.4c-4.64,2.89-2.25,9.63,1.68,12.24,4.92,3.27,7.52-2.18,6.94-6.42-.54-3.9-4.8-10.89-9.44-7.16-3.42,2.76-3.44,9.91.22,12.38.92.62,2.1.46,3.03,0,3.74-1.86,4.26-9.6,2.31-12.93-2.23-3.82-7.88-3.18-9.33.97-1.34,3.82,2.54,8.65,6.6,7.07,5.32-2.07,2.42-9.37-.75-11.89-2.66-2.11-6.23.44-4.71,3.64.82,1.74,1.97,2.9,3.57,3.95,2.38,1.57,4.83-1.02,4.41-3.39s-1.36-3.97-2.94-5.67l-4.24,4.24c1.07.89,2.13,1.79,3.2,2.68,2.91,2.45,7.04-1.5,4.24-4.24-1.07-1.05-2.14-2.1-3.21-3.15l-4.24,4.24c3.23,2.84,6.51,5.48,10.84,6.29,3.2.6,5.42-3.69,2.31-5.48-1.28-.74-2.56-1.29-3.96-1.75-3.17-1.04-5.46,4.14-2.31,5.48.76.33,4.12,1.5,4.24,1.69l-.3-2.31c-.37,1.02-1.34,2.17-1.94,3.07-1.85,2.79,2.58,6.33,4.71,3.64,1.07-1.35,1.77-2.54,2.26-4.19.83-2.79-3-5.18-5.01-2.92-2.77,3.11-3.21,6.69-1.47,10.44,1.08,2.32,4.97,1.71,5.48-.72.31-1.46.36-2.27-.13-3.7l-5.48,2.31c1.02,1.87,1.51,2.39-.9,3.04-1.3.35-3.94.7-5.2.22-4.4-1.69-1.91-9.35.31-11.9,1.96-2.25.09-5.7-2.92-5.01-5.4,1.24-6.52,6.46-6.32,11.32.16,3.93,5.6,3.78,6,0,.26-2.49,1.23-4.55,2.67-6.55l-5.18-3.03c-3.16,4.4-5.71,9.83-2.22,14.84,1.58,2.27,5.73,1.68,5.59-1.51-.08-1.85-.33-3.52-.84-5.3-.79-2.75-5.1-2.96-5.79,0-1,4.35,1.3,7.04,4.67,9.5,3.12,2.28,6.12-2.92,3.03-5.18-1.18-.53-1.82-1.44-1.91-2.73h-5.79c.44,1.19.65,2.43.63,3.71l5.59-1.51c-2.14-3.08.4-6.24,2.22-8.78,2.26-3.14-2.94-6.13-5.18-3.03-2.1,2.91-3.12,6.03-3.49,9.57h6c-.08-1.9-.61-4.95,1.91-5.53l-2.92-5.01c-5.08,5.84-7.43,19.93,2.71,22.04,3.56.74,8.76.19,11.85-1.81,4.42-2.86,2.68-6.66.66-10.37-1.6-2.93-6.6-.95-5.48,2.31l.13.51,5.48-.72c-.56-1.2-.38-2.25.53-3.17l-5.01-2.92-.71,1.54,4.71,3.64c1.25-1.88,3.24-4.05,2.39-6.46-.9-2.57-4.34-3.26-6.54-4.2l-2.31,5.48c.91.24,1.75.62,2.53,1.15l2.31-5.48c-3.36-.63-5.68-2.53-8.19-4.74-2.87-2.53-7.03,1.51-4.24,4.24,1.07,1.05,2.14,2.1,3.21,3.15l4.24-4.24c-1.07-.89-2.13-1.79-3.2-2.68-2.93-2.46-6.9,1.37-4.24,4.24.88.84,1.35,1.85,1.4,3.03l4.41-3.39c-.71-.42-1.18-1.02-1.41-1.8l-4.71,3.64c1.2.65,1.73,1.73,1.6,3.24l1.79-1.38c-1.95.54.27,4.85-1.01,5.49h3.03c.3-.84.5-1.71.6-2.6l-2.31.3c1.06.16,2.92,3.52,2.05,4.48l2.12-.88-1.09-.04,2.12.88c-.91-.74-2.93-2.65-2.34-4.09l-1.38,1.79.83-.52c3.27-2.04.26-7.23-3.03-5.18h0Z"/>
          <path class="cls-7" d="M84.55,89.17s0,0,0,0l-.3.72s0,0,0,0l-.47.61s0,0,0,0l-.61.47s0,0,0,0l-.72.3s0,0,0,0l-.8.11s0,0,0,0l-.8-.11s0,0,0,0l-.72-.3s0,0,0,0l-.61-.47s0,0,0,0l-.47-.61s0,0,0,0l-.3-.72s0,0,0,0l-.11-.8s0,0,0,0l.11-.8s0,0,0,0l.3-.72s0,0,0,0l.47-.61s0,0,0,0l.61-.47s0,0,0,0l.72-.3s0,0,0,0l.8-.11h0c-.41-.02-.8.07-1.16.26-.37.12-.69.33-.97.62-.29.27-.5.59-.62.97-.19.36-.27.74-.26,1.16l.11.8c.14.51.4.95.77,1.32l.61.47c.47.27.97.41,1.51.41.27-.02.55-.03.81-.11,0,0,.72-.3.72-.3.11-.06.5-.39.31-.24.35-.27.56-.4.78-.86,0-.01.3-.71.3-.72,0,0,0,0,0,0,.15-.71.13-.65.05-1.2.03.2-.03-.27-.05-.4,0,0-.3-.71-.3-.72,0,0,0,0,0,0,0,0-.47-.61-.47-.61-.41-.39-.79-.62-1.34-.78,0,0-.8-.11-.8-.11,0,0,0,0,0,0,0,0-.79.11-.8.11,0,0,0,0,0,0,0,0-.71.3-.72.3,0,0,0,0,0,0-.23.12-.43.29-.61.47h0c-.08.1-.16.2-.24.31.17-.22-.17.2-.24.31,0,0-.3.71-.3.72,0,0,0,0,0,0-.13.4-.14.8-.05,1.2.02.4.14.77.36,1.12.19.35.45.63.77.84.29.27.63.44,1.02.54l.8.11c.54,0,1.05-.14,1.51-.41l.61-.47c.37-.37.63-.82.77-1.32h0Z"/>
          <path class="cls-7" d="M82.15,87.65c2.17-.79,4.18-1.91,6.18-3.05,1.13-.65.14-2.27-1.01-1.73-1.99.95-4,1.86-6.16,2.34l.77,1.83c2.41-1.45,4.98-2.53,7.69-3.24l-.53-1.93c-1.84.73-3.76,1.37-5.42,2.46-.89.58-.34,2.28.77,1.83,2.56-1.04,5.04-2.24,7.42-3.65.96-.57.33-2.18-.77-1.83-.93.29-1.73.74-2.5,1.35s.06,1.99.97,1.67c1.06-.38,2.07-.86,3.01-1.47s.34-2.26-.77-1.83l-.34.13c-1,.39-.93,1.96.27,1.96.97,0,1.69.85,2.74.71,1.24-.16,1.33-1.98,0-2-.53,0-1.01-.09-1.51-.25l-.27,1.96c.45.05.9.1,1.35.15.34.04.93.23,1.25.15-.08-.77-.25-1.02-.53-.73-.09.08-.19.15-.28.23-.12.1-.25.19-.38.28-.36.26-.73.5-1.12.72-1.44.82-3,1.33-4.64,1.58l.53,1.93c2.18-.58,4.19-1.62,6.12-2.78.58-.35.72-1.42,0-1.73-2.75-1.16-4.95.94-6.94,2.56-.33.27-.37.86-.16,1.21.79,1.27,2.21.47,3.17-.11,1.18-.71,2.27-1.57,3.25-2.54.58-.57.18-1.79-.71-1.71-2.71.26-5.13,1.77-6.47,4.17-.37.66.09,1.51.86,1.5,1.88,0,3.37-1.08,4.78-2.2.26-.2.36-.67.26-.97-.9-2.6-4.6.09-5.6,1.23-.42.49-.38,1.22.2,1.57,1.15.69,2.67-.05,3.78-.53.89-.38,2.89-1.22,2.79-2.41-.03-.39-.28-.9-.73-.96h-.05c-.54-.08-1.07.13-1.23.69-.13.47.16,1.15.7,1.23h.05c-.24-.31-.49-.64-.73-.96-.03-.35.21-.47-.2-.17-.13.09-.27.18-.4.26-.34.21-.7.39-1.07.55-.34.14-.68.26-1.03.37-.19.06-.68.31-.85.21l.2,1.57c.4-.46.84-.86,1.36-1.17.25-.15.52-.29.79-.39.14-.05.29-.1.44-.14.23-.03.12-.17-.34-.41l.26-.97c-.98.77-2.07,1.61-3.37,1.62l.86,1.5c.97-1.74,2.74-2.98,4.74-3.17l-.71-1.71c-.6.58-1.22,1.13-1.91,1.61-.31.22-.62.42-.94.61-.18.11-.36.21-.54.31l-.22.12c-.4.13-.3.26.33.39l-.16,1.21c1.06-.87,2.95-2.91,4.51-2.25v-1.73c-1.79,1.08-3.62,2.04-5.64,2.58-1.28.34-.71,2.11.53,1.93,2.4-.36,4.69-1.32,6.62-2.78.83-.63,2.11-1.82.92-2.83-.45-.38-1.02-.38-1.58-.44-.72-.08-1.44-.17-2.16-.25-1.16-.13-1.3,1.64-.27,1.96.67.21,1.35.31,2.05.32v-2c-.46.06-.81-.15-1.22-.34-.5-.22-.97-.38-1.52-.38l.27,1.96.34-.13-.77-1.83c-.8.52-1.64.95-2.54,1.27l.97,1.67c.48-.38,1.03-.65,1.62-.84l-.77-1.83c-2.23,1.32-4.54,2.48-6.94,3.45l.77,1.83c1.52-1,3.26-1.6,4.94-2.26,1.17-.46.74-2.26-.53-1.93-2.87.75-5.62,1.91-8.17,3.44-.99.6-.33,2.07.77,1.83,2.33-.51,4.49-1.53,6.64-2.54l-1.01-1.73c-1.85,1.06-3.7,2.12-5.7,2.85-1.2.44-.68,2.37.53,1.93h0Z"/>
          <path class="cls-7" d="M85.39,88.13c1.27-.56,2.43-1.33,3.46-2.27.34-.31.36-.83.16-1.21-.35-.66-1.17-.77-1.79-.45-.56.29-1.04.82-1.5,1.24-.99.91-1.92,1.89-2.79,2.92-.32.38-.41.9-.08,1.31.3.38.86.52,1.29.26,1.46-.89,2.82-1.95,4.03-3.16l-1.41-1.41c-1.05,1.29-2.18,3.5-4.12,3.43l.71,1.71c.63-.78,1.35-1.45,2.18-1.99l-1.01-1.73c-2.22,1.58-4.52,3.04-6.9,4.38l1.37,1.37c.49-.73,1.12-1.36,1.86-1.85.37-.25.58-.68.46-1.13-.11-.39-.53-.78-.96-.73-.89.1-1.63.4-2.31,1s-.13,1.72.71,1.71c.49,0,.89-.12,1.34-.33.49-.23.61-.93.36-1.37-.29-.5-.88-.59-1.37-.36-.11.05-.2.05-.33.05l.71,1.71c.25-.22.56-.38.89-.41l-.5-1.86c-1.03.69-1.88,1.54-2.57,2.57-.58.86.54,1.84,1.37,1.37,2.38-1.34,4.68-2.8,6.9-4.38.44-.31.65-.87.36-1.37-.26-.45-.91-.65-1.37-.36-.98.63-1.86,1.39-2.59,2.3-.54.66-.21,1.67.71,1.71,2.65.1,4.06-2.22,5.53-4.02.34-.42.41-1.01,0-1.41-.38-.38-1.03-.38-1.41,0-1.1,1.09-2.3,2.04-3.63,2.84l1.21,1.57c.63-.75,1.29-1.47,1.99-2.16.35-.34.7-.68,1.07-1.01.23-.21.58-.6.8-.63h-.53l-.07-.04-.36-.36.04.08.16-1.21c-.9.82-1.93,1.46-3.05,1.95-.49.22-.61.94-.36,1.37.3.51.87.58,1.37.36h0Z"/>
          <path class="cls-7" d="M67.39,90l-.06.05c-.34.25-.62.69-.46,1.13.43,1.21,2.21,1.34,3.31,1.43,1.32.11,2.68-.07,3.96-.39,2.02-.5,5.74-1.6,5.78-4.18.01-.69-.89-1.33-1.5-.86-1.14.87-2.28,1.73-3.42,2.6-.67.51-.61,2.01.5,1.86,1.04-.14,1.88-.48,2.7-1.14.78-.62-.06-2-.97-1.67-1.06.38-2.13.77-3.19,1.15l-1.6.58c-.09.03-.64.14-.68.24.09.49.18.61.28.35.07-.11.12-.23.16-.35.26-.75.02-1.68-.78-1.97-1-.36-1.47.77-2.37.71l.86.5c.21.43.23-.12.31-.34.08-.23.16-.46.26-.69.21-.49.46-.97.73-1.43l-1.73-1.01c-.55,1.1-1.09,2.17-2.06,2.96l1.57,1.21c.39-.6.78-1.2,1.16-1.81.31-.48.57-1.1,1.11-1.36,1.2-.57,2.74-.74,4.03-.96,2.88-.48,5.82-.7,8.72-1.01l-.5-1.86c-1.2.74-2.63,1.08-3.97,1.52-1.48.48-2.95.97-4.43,1.45l.53,1.93c.98-.36,1.94-.77,2.88-1.23.46-.23.65-.94.36-1.37-1.01-1.49-2.62-.46-3.85.13-1.62.77-3.23,1.58-4.77,2.5-.97.58-.33,2.12.77,1.83,1.64-.44,3.23-1.02,4.77-1.72.78-.35.57-1.66-.24-1.83-1.84-.39-4.71-.92-5.15,1.65-.1.61.26,1.29.96,1.27,1.16-.04,2.28-.24,3.38-.62.48-.17.89-.69.7-1.23-.37-1.06-1.17-2.14-2.45-1.76-1.19.36-2.36,1.58-3.2,2.45-.66.68-.12,1.61.71,1.71,1.27.15,2.6.17,3.86-.1,1.15-.24,1.97-.95,2.74-1.8.61-.67.02-2.07-.97-1.67-1.76.7-3.42,1.55-4.99,2.61-.93.62-.36,2.1.77,1.83,1.66-.4,3.25-.98,4.8-1.72.87-.41.47-1.97-.5-1.86-.77.09-1.5.23-2.23.49-1.2.43-.74,2.21.53,1.93,1.13-.25,2.2-.62,3.25-1.08,1.18-.51.16-2.23-1.01-1.73-.89.39-1.83.67-2.77.88l.53,1.93c.55-.2,1.11-.36,1.7-.42l-.5-1.86c-1.39.66-2.83,1.15-4.32,1.51l.77,1.83c1.42-.95,2.93-1.77,4.52-2.41l-.97-1.67c-.62.68-1.16,1.19-2.11,1.33-1.01.15-2.07.1-3.08-.02l.71,1.71c.47-.48.96-.95,1.5-1.36.2-.15.53-.31.7-.49.24-.12.23-.14-.06-.07.07.11.12.22.15.35l.7-1.23c-.93.32-1.86.51-2.85.55l.96,1.27c.18-1.05,1.98-.4,2.69-.25l-.24-1.83c-1.39.63-2.82,1.13-4.29,1.52l.77,1.83c1.06-.63,2.14-1.21,3.25-1.76.55-.27,1.11-.54,1.66-.81.23-.11.46-.22.7-.33.14-.07.28-.13.42-.2.31-.06.26-.14-.14-.25l.36-1.37c-.78.39-1.58.73-2.4,1.03-1.19.44-.71,2.33.53,1.93,1.58-.52,3.15-1.03,4.73-1.55,1.4-.46,2.88-.84,4.15-1.62.78-.48.54-1.97-.5-1.86-3.28.35-6.6.59-9.85,1.18-1.36.25-3.1.46-4.26,1.25-.59.4-.94,1.05-1.31,1.63-.44.69-.89,1.38-1.33,2.06-.66,1.02.75,1.89,1.57,1.21,1.09-.89,1.75-2.13,2.37-3.37.57-1.14-1.07-2.13-1.73-1.01-.41.7-.76,1.43-1.05,2.19-.25.66-.66,1.55-.28,2.23s1.18.63,1.84.4c.28-.1.86-.26,1.02-.51.24-.12.14-.24-.3-.37-.14-.29-.28-.38-.43-.28-.09.03-.23.43-.25.48-.23.66-.06,1.37.52,1.79s1.31.36,1.97.14c1.76-.58,3.49-1.26,5.23-1.89l-.97-1.67c-.36.29-.83.49-1.29.55l.5,1.86c1.14-.87,2.28-1.73,3.42-2.6l-1.5-.86c-.01.64-1.27,1.14-1.76,1.37-.81.38-1.69.66-2.56.88s-1.7.34-2.58.35c-.48,0-.96-.02-1.43-.1-.19-.03-.37-.07-.55-.12-.14-.03-.27-.07-.41-.12-.27-.12-.22,0,.15.35l-.46,1.13.06-.05c1.03-.76.03-2.49-1.01-1.73h0Z"/>
          <path class="cls-7" d="M29.79,80.57h0c.09-.14.17-.28.26-.43h0c.07-.04.13-.1.2-.15h-.01c.08-.03.16-.06.24-.1h-.01c.18,0,.35,0,.53,0h-.01c.08.03.16.07.24.1h-.01c.07.05.13.1.2.15h0c-.32.55-.65,1.1-.97,1.66.48.2.97.4,1.45.61.13.04.27.05.4.02.13,0,.26-.05.37-.12.21-.12.41-.36.46-.6.06-.26.05-.54-.1-.77l-.16-.2c-.12-.12-.27-.21-.44-.26-.48-.2-.97-.4-1.45-.61l-.27-.04c-.14,0-.27.02-.39.09-.08.02-.16.07-.22.13-.11.07-.19.16-.26.28-.08.16-.13.33-.14.5,0,.14.02.27.09.39.04.12.11.23.21.32.1.12.31.23.46.27.18.05.37.05.55,0s.33-.14.46-.26c.16-.16.19-.26.27-.46.04-.13.05-.27.02-.4,0-.13-.05-.26-.12-.37-.12-.21-.36-.41-.6-.46-.26-.06-.54-.05-.77.1l-.2.16c-.12.12-.21.27-.26.44h0Z"/>
          <path class="cls-7" d="M31.65,80.34l-.02-.03c-.17-.37-.75-.6-1.13-.46l-.05.02c-.56.21-.99.89-.6,1.47.34.51.93.77,1.43,1.09.59.37,1.17.75,1.77,1.11,1.17.71,2.41,1.31,3.75,1.61,1.05.23,1.84-1.31.77-1.83-1.67-.8-3.24-1.76-4.72-2.88l-.77,1.83c1,.26,2.03.19,3.05.17,1.13-.03,2.26-.06,3.38-.13,1.06-.07,2.11-.17,3.16-.31s2.31-.6,3.37-.44v-1.93c-1.75.53-3.52.98-5.3,1.37-1.26.27-.72,2.17.53,1.93,2.56-.49,5.14-.79,7.74-.91l-.96-.73.05.21.1-.77c-.27.57-1.3.94-1.82,1.25-.67.4-1.34.83-1.9,1.38-1.02,1.01-1.96,2.65-1.39,4.1.29.73,1.4,1.08,1.83.24.66-1.3,1.62-2.33,2.62-3.37l-1.41-1.41-2.2,2.57,1.57,1.21c1.04-1.38,2.18-2.68,3.4-3.91.84-.85-.22-2.02-1.21-1.57-1.99.91-3.82,2.81-6.09,2.92-2.45.12-4.25-1.73-6.57-2-1.09-.13-1.21,1.36-.5,1.86,1.63,1.17,3.41,2.06,5.3,2.69,1.08.36,1.75-1.28.77-1.83-1.21-.68-2.44-1.35-3.68-1.99-.99-.51-2.03.73-1.21,1.57s1.64,1.66,2.63,2.29c1.09.7,2.3.96,3.57,1.14.8.11,1.35-.42,1.23-1.23-.17-1.17-1.66-1.89-2.51-2.53-.65-.49-1.47.19-1.5.86-.09,1.59,2.62,2.42,3.81,2.78,1.09.33,1.76-1.27.77-1.83-.59-.34-1.17-.49-1.85-.48s-1.31.86-.86,1.5c.8,1.15,1.77,2.07,3.13,1.08.51-.37.7-1.08.2-1.57-1.92-1.87-4.29-3.19-6.9-3.81-1.26-.3-1.76,1.53-.53,1.93,1.94.63,4.57,1.82,6.29.16.6-.58.22-1.39-.44-1.67-1.87-.79-3.77-1.5-5.69-2.14-1.07-.36-1.77,1.3-.77,1.83,2.6,1.38,5.49,1.32,8.35,1.15,1.31-.08,1.26-1.86,0-2s-2.65-.5-3.91-.34c-.9.11-1.95.74-1.93,1.76.04,2.63,5.52.18,6.67-.19,1.22-.4.72-2.24-.53-1.93-.5.12-.81.39-1.1.81-.46.68.17,1.45.86,1.5.4.03.75,0,1.14-.07,1.27-.21.73-2.14-.53-1.93-.2.03-.41.03-.61,0l.86,1.5-.1.11-.53-1.93c-.81.26-1.62.52-2.43.78-.37.12-.74.24-1.12.34-.22.06-1.18.1-.87.36l.29.71c-.09.21-.02.26.19.14.18,0,.36,0,.54.02.3.02.6.07.9.1.73.08,1.46.17,2.2.25v-2c-2.47.15-5.08.32-7.34-.88l-.77,1.83c1.92.64,3.82,1.35,5.69,2.14l-.44-1.67c-.55.53-1.43.17-2.08,0-.76-.2-1.52-.44-2.27-.68l-.53,1.93c2.29.55,4.33,1.65,6.01,3.29l.2-1.57-.21.15c.32.17.4.17.22,0-.04-.14-.33-.41-.41-.52l-.86,1.5c.35,0,.54.03.84.21l.77-1.83c-.47-.14-.93-.3-1.37-.52-.17-.08-.34-.18-.51-.27-.12-.07-.25-.15-.37-.22-.15-.14-.19-.09-.1.17l-1.5.86c.34.25,1.53.9,1.6,1.34l1.23-1.23c-1.1-.15-2.14-.33-3.09-.93-.84-.54-1.53-1.27-2.22-1.98l-1.21,1.57c1.24.64,2.47,1.3,3.68,1.99l.77-1.83c-1.74-.58-3.34-1.42-4.83-2.49l-.5,1.86c.64.07,1.25.5,1.82.77s1.1.5,1.67.7c1.18.41,2.44.64,3.68.48,2.46-.32,4.31-2.14,6.5-3.14l-1.21-1.57c-1.34,1.35-2.57,2.79-3.71,4.31-.68.9.83,2.07,1.57,1.21l2.2-2.57c.83-.97-.51-2.35-1.41-1.41-1.11,1.15-2.21,2.34-2.94,3.77l1.83.24c-.56-1.43,1.5-2.71,2.5-3.3,1.08-.63,2.81-1.36,2.47-2.87-.09-.41-.54-.75-.96-.73-2.78.13-5.54.46-8.27.98l.53,1.93c1.79-.39,3.55-.84,5.3-1.37.87-.26,1.03-1.77,0-1.93s-1.95.03-2.97.21c-1.13.2-2.27.33-3.42.42-1.07.08-2.14.13-3.21.16s-2.3.19-3.37-.08c-1.17-.3-1.63,1.17-.77,1.83,1.48,1.12,3.05,2.08,4.72,2.88l.77-1.83c-1.14-.25-2.15-.74-3.15-1.33-.47-.28-.93-.57-1.39-.86-.25-.16-.5-.32-.76-.48-.07-.05-.65-.49-.46-.22l-.6,1.47.05-.02-1.13-.46.02.03c.53,1.17,2.26.15,1.73-1.01h0Z"/>
          <path class="cls-1" d="M62.46,39.15c-5.85-1.83-13.56-1.14-17.8,3.81-4.57,5.33-1.31,12.34,4.97,14.21s13.1-.58,16.02-6.42c3.18-6.36-.64-13.45-7.17-15.49-5.97-1.86-12.62.46-16.86,4.85s-6.38,12.27-.52,16.3c7.87,5.43,34.23-3.47,28.51-15.35-2.98-6.18-13.72-7.13-19.7-7.17-7.9-.05-14.82,4.21-15.38,12.56-.23,3.48,3.72,6.37,6.96,5.3,6.4-2.1,12.8-4.2,19.2-6.31,6.04-1.98,4.7-10.3-1.46-10.8-3.43-.28-6.82-.14-10.21.45s-6.79,2.79-10.07,2.9l4.75,8.28c1.11-2.03,5.3-2.52,7.35-2.75l-1.46-10.8c-5.52.81-10.26,3.55-14.88,6.53l6.67,8.64c3.14-3.11,6.88-4.94,11.02-6.39l-4.24-10.05c-2.59,1.53-5.57,2.09-8.33,3.26-3.12,1.31-5.72,3.1-8.28,5.3-4.6,3.94.5,10.01,5.35,9.19,2.52-.42,4.17-1.96,6.22-3.34,2.45-1.66,5.02-2.89,7.82-3.82,6.71-2.23,4.01-12.15-2.92-10.61-9.99,2.22-19.81,7.92-21.83,18.75-1.01,5.43,4.93,9.09,9.19,5.35,3.41-2.99,6.3-6.29,9.04-9.9,3.72-4.89-3.18-9.51-7.53-7.53-7.49,3.42-13.51,9.36-17.09,16.76-2.55,5.29,4.2,11.61,8.64,6.67,3.94-4.39,7.75-8.88,11.44-13.48,2.28-2.84,2.1-8.46-2.43-9.19-8.72-1.41-16.19,10.61-20.53,16.87-3.18,4.59,3.01,10.33,7.53,7.53,5.68-3.53,9.84-9.73,14.2-14.69,4.66-5.29-2.57-12.65-7.78-7.78-5.57,5.21-10.24,11.2-13.94,17.87-1.87,3.38-.02,6.76,3.29,8.08,4.54,1.81,7.73-2.32,10.36-5.31,3.23-3.67.18-11.46-5.35-9.19-5.09,2.09-8.7,5.54-9.9,11.08-.63,2.89.84,5.95,3.84,6.77,1.83.5,3.16.67,5.06.71,3.24.06,5.13-2.59,5.5-5.5.24-1.88.02-3.57-.57-5.37-1.48-4.53-7.48-5.4-10.05-1.31-4.5,7.16.7,11.99,7.79,12.51,3.3.24,6.96.51,9.62-1.87s3.63-6.92,4.16-10.26c.58-3.64-1.45-6.75-5.3-6.96-5-.28-12.99.17-13.06,7.05-.03,2.88,2.56,6.39,3.96,8.8s2.77,4.63,5.41,5.93c2.18,1.08,4.89.97,6.67-.86,4.25-4.38,9.6-7.33,10.71-13.86.43-2.51-.31-4.81-2.53-6.21-5.64-3.55-11-7.26-16.73-1.98-1.31,1.21-2.09,3.63-1.41,5.35,2.49,6.35,6.24,21.79,15.93,18.65,4.26-1.38,7.33-6.22,10.1-9.47s6.37-6.68,7.15-11.08-2.43-7.72-6.77-6.77c-6.88,1.52-13.37,1.84-17.42,8.45-.95,1.54-1.11,4.03,0,5.55,4.2,5.79,11,15.83,19.34,11.19,3.29-1.83,5.21-5.53,7.23-8.56,2.66-4,4.81-7.01,3.9-11.96-.57-3.11-4.06-4.32-6.77-3.84-3.96.7-9.15,1.04-12.46,3.54s-2.88,5.95-3.05,9.74,3.64,5.82,6.96,5.3c6.86-1.07,20.21-1.07,19.27-11.31-.33-3.58-2.81-8.52-6.09-10.13s-7.63-.74-9.47,2.66.15,9.07,1.26,12.47,3.41,6.11,7.18,6.12c4.95.01,6.84-5.43,8.78-9.15,2.06-3.95,4.99-8.5,3.21-13.02-2.05-5.2-8.55-5.19-10.61,0-.85,2.14-1.15,4.12-1.25,6.41-.18,4.33,4.76,6.64,8.28,4.75,2.87-1.54,5.36-3.47,7.56-5.88l-8.64-6.67c-1.31,1.97-1.74,3.84-1.93,6.16-.28,3.48,3.75,6.37,6.96,5.3,2.83-.94,4.6-2.31,6.27-4.8,1.53-2.29.63-6.36-1.97-7.53l-.38-.17,2.53,3.29c-1.76-5.45-5.47-7.61-10.62-9.58-6.52-2.49-13.38-4.05-20.39-3.52s-7.07,11.54,0,11c5.52-.42,10.62.66,15.8,2.51,1.36.49,3.38.93,4.43,1.98,1.3,1.31,1.07,3.08,3.08,3.99l-1.97-7.53.31-.26c2.32,1.77,4.64,3.54,6.96,5.3l.42-.6c3.45-5.18-4.43-11.27-8.64-6.67-1.62,1.77-3.21,3.02-5.33,4.16l8.28,4.75c-.01-1.24.27-2.4.86-3.49h-10.61c.69,1.75-4.82,9.47-5.71,10.97l4.75-2.72c2.56,2.61,3.49,2.99,2.78,1.15-.23-.81-.44-1.63-.63-2.45-.39-1.64-.69-3.3-.97-4.97l-1.41,5.35.64-.68-3.89,1.61c-2.65.33.43-.97-.12-1.32-.61-.39-3.44.58-4.13.68-2.59.4-5.19.81-7.78,1.21l6.96,5.3c.1-.81.07-1.61-.09-2.41-1.67,1.65-1.46,2.02.63,1.13,2.01.15,4.89-1.02,6.9-1.38-2.26-1.28-4.51-2.56-6.77-3.84.02.13-4.97,7.04-5.49,7.48-.57.66-.37.59.58-.21-.58-.58-1.15-1.17-1.69-1.78-1.35-1.47-2.59-3.01-3.76-4.63v5.55c1.87-3.05,7.73-2.71,10.85-3.4-2.26-2.26-4.51-4.51-6.77-6.77-.47,2.65-3.21,4.93-4.92,6.92-1.82,2.11-4.03,5.68-6.62,6.77l4.24-.55c.81,1.07.81.96.03-.33-.54-1.15-1.07-2.3-1.59-3.45-1.1-2.46-2.12-4.95-3.1-7.46l-1.41,5.35c-1.94.61-1.87,1.19.22,1.75,1.08.63,2.14,1.28,3.18,1.95l-2.53-6.21c-.7,4.1-5.16,6.2-7.88,9l6.67-.86c-2.01-.99-3.7-6.11-4.66-8.01v5.55c-1.08,1.74,1.8,1.11,2.81,1.17l-5.3-6.96c-.38,2.36-.79,4.55-2.19,6.52l3.29-2.53c-.9.35-4.26.54-5.2,0l2.53,3.29.12.82-10.05-1.31c.41.78.46,1.6.17,2.44l5.5-5.5-2.13-.31,3.84,6.77c.31-1.42.71-2.78,2.22-3.39l-5.35-9.19c-.64.72-1.27,1.45-1.91,2.17-1.83,1.66-1.08,1.77,2.25.31l3.29,8.08c3.28-5.91,7.28-11.03,12.22-15.64l-7.78-7.78c-3.6,4.09-7.32,10.08-11.98,12.97,2.51,2.51,5.02,5.02,7.53,7.53,2.96-4.28,6.83-9.8,11.38-12.53l-4.24.55.96.16-2.43-9.19c-3.69,4.6-7.51,9.09-11.44,13.48,2.88,2.22,5.76,4.44,8.64,6.67,2.87-5.94,7.16-10.08,13.15-12.82l-7.53-7.53c-2.15,2.83-4.66,5.33-7.32,7.67l9.19,5.35c1.33-7.15,7.74-9.65,14.15-11.07l-2.92-10.61c-2.68.89-5.31,1.94-7.78,3.3-1.93,1.06-4.14,3.51-6.26,3.87l5.35,9.19c4.21-3.61,9.71-4.08,14.39-6.83,5.22-3.07,1.8-12.17-4.24-10.05-5.93,2.08-11.36,4.75-15.87,9.22s1.32,12.08,6.67,8.64c3.91-2.52,7.58-4.74,12.25-5.43,6.07-.89,4.7-11.52-1.46-10.8s-13.58,2.19-16.85,8.2c-1.92,3.53.44,8.42,4.75,8.28,3.48-.12,6.28-1.57,9.57-2.52,3.55-1.02,7.06-1.14,10.71-.84l-1.46-10.8c-6.4,2.1-12.8,4.2-19.2,6.31l6.96,5.3c.16-2.42,6.23-1.51,7.61-1.36s2.73.38,4.07.73c.72.19,3.37,1.54,2.9.79l-.55-4.24c-.37,1.65-5.43,3.4-6.92,3.87-1,.32-3.84.29-4.62.92-1.7-.19-1.5.44.58,1.88.33-.65.78-1.21,1.34-1.66,1.04-.97,6.54-2.28,5.36-1.1-.53.56-1.21.72-2.03.5-1.03,2.81-.78,3.77.74,2.88.75-.37,1.56-.55,2.42-.54,1.09-.02,2.13.19,3.13.62,6.77,2.12,9.67-8.5,2.92-10.61h0Z"/>
          <path class="cls-1" d="M54.57,44.22c.95-.42,1.92-.44,2.89-.08l2.92-10.61c-2.03-.39-4-.87-5.98-1.45l-1.46,10.8c2.43-.29,4.81-.43,7.25-.06,6.81,1.03,9.98-9.01,2.92-10.61-3.05-.69-6.1-1.25-9.19-1.68l-1.46,10.8c2.66-.21,5.4-.43,8.06-.11,2.13.26,3.83,1.35,5.82,2.13,4.64,1.82,8.97,3.64,13.17,6.4,5.93,3.9,11.45-5.62,5.55-9.5-4.97-3.27-10.2-5.2-15.64-7.45-5.78-2.4-10.6-2.96-16.95-2.46-5.7.45-8.02,9.88-1.46,10.8,3.09.44,6.14,1,9.19,1.68l2.92-10.61c-3.45-.52-6.69-.75-10.17-.33-5.85.7-7.83,8.93-1.46,10.8,1.98.58,3.95,1.06,5.98,1.45,6.87,1.31,9.88-8.92,2.92-10.61-3.02-.73-5.73-.74-8.74.08-6.82,1.85-3.93,12.46,2.92,10.61h0Z"/>
          <path class="cls-1" d="M26.82,57.47c-4.4-.6-8.87.8-10.51,5.42-1.53,4.29,1,7.81,4.91,9.35,2.88,1.14,5.89-1.28,6.77-3.84,1.07-3.11-.31-6.66-3.28-8.21-3.52-1.83-7.13-.37-9.98,1.87-1.54,1.21-1.82,3.6-1.41,5.35,1.14,4.93,7.76,7.61,11.53,3.69,4.27-4.44.42-10.26-4.52-11.57-3.92-1.03-8.06,2.69-6.77,6.77,1.51,4.76,5.31,5.79,8.12,9.36l7.78-7.78c-1.31-1.17-2.64-2.31-3.99-3.43-4.49-3.7-12.3,1.04-8.64,6.67,1.09,1.67,2.2,3.06,3.75,4.32l6.67-8.64c-1-.67-1.91-1.44-2.75-2.3-5.19-4.86-12.55,2.55-7.78,7.78,3.48,3.82,7.93,7.08,13.12,7.28,7.21.28,14.31,1.15,21.54,1.17,7.08.02,7.09-10.98,0-11-5.72-.02-11.33-.41-17.02-.88-1.2-.1-2.41-.19-3.61-.25-.9-.05-1.81-.08-2.71-.08l1.86.29c-1.66-1.63-3.81-2.57-5.39-4.31l-7.78,7.78c1.57,1.47,3.22,2.77,4.97,4.02,5.04,3.59,11.53-4.71,6.67-8.64-.84-.53-1.52-1.23-2.03-2.09l-8.64,6.67c1.36,1.12,2.68,2.26,3.99,3.43,5.4,4.83,12.08-2.31,7.78-7.78-1.08-1.37-4.84-3.06-5.29-4.51l-6.77,6.77.72.38-2.53-3.29.06-1.49,2.53-3.29-.58.36,4.24-.55,2.08,2.22-1.41,5.35-2.66.35-2.53-3.29.07-1.43c2.26-1.28,4.51-2.56,6.77-3.84l-.78-.31,3.29,2.53-2.75,4.23c6.92.95,9.92-9.65,2.92-10.61h0Z"/>
          <path class="cls-1" d="M51.32,76.75c6.48,3.09,12.32,1.22,18.75-.93s3.82-12.85-2.92-10.61c-2.78.92-7.31,3.44-10.27,2.03-2.68-1.28-5.94-.74-7.53,1.97-1.4,2.4-.72,6.24,1.97,7.53h0Z"/>
          <path class="cls-1" d="M54.66,78.55c8.05,1.76,14.04-2.12,21.26-4.86,6.56-2.49,3.71-13.12-2.92-10.61-4.57,1.73-10.32,5.97-15.41,4.86-6.9-1.51-9.85,9.1-2.92,10.61h0Z"/>
          <path class="cls-1" d="M70.74,64.85c-1.83.58-3.02,1.48-4.02,3.1-2.16,3.47.62,8.43,4.75,8.28s7.06-3.11,7.29-7.26c.12-2.14-1.47-4.26-3.38-5.03-2.21-.89-4.21-.31-6.01,1.14-.83.67-1.6,1.37-2.35,2.13l7.78,7.78c.27-.33.58-.62.92-.88l-8.64-6.67-.21.33,1.97-1.97c.5-.24.39-.23-.33.03-.42.13-.85.24-1.28.35-.64.16-1.29.31-1.94.43-1.57.3-3.01.47-4.41,1.38-3.96,2.58-3.34,8.66,1.31,10.05,3.71,1.11,8.46-.78,11.19-3.28,2-1.83,2.06-5.18.43-7.22-1.54-1.94-4.88-3.09-7.1-1.42-1.47,1.11-1.89,1.33-3.53,1.72-2.89.68-4.61,3.98-3.84,6.77.85,3.1,3.83,4.34,6.77,3.84,3.79-.65,7.68-1.82,10.26-4.86,1.92-2.26,2.22-5.56,0-7.78-1.97-1.97-5.85-2.27-7.78,0-.09.11-1.19,1.12-.49.61-.31.2-.62.39-.95.55.4-.15.4-.16,0-.02-1.28.45-2.64.67-3.97.9l2.92,10.61c2.21-.52,4.35-1.46,6.16-2.83l-6.67-8.64c.27-.25-.32.09-.38.11-.29.09-.58.16-.88.22-1.04.16-.78.21.77.13l1.31,10.05c-.39.25-.62.11,0,.03.38-.05.76-.12,1.13-.18.98-.17,1.95-.38,2.91-.63,2.48-.66,4.67-1.43,6.1-3.71s.7-5.51-1.42-7.1c-2.31-1.73-5.07-1.38-7.22.43-.34.25-.65.55-.92.88-2.02,2.18-2.16,5.62,0,7.78s5.69,2.13,7.78,0c.74-.76,1.52-1.47,2.35-2.13l-9.39-3.89v-.55c.47-.81.94-1.62,1.41-2.43l2.3-.76,4.75,8.28.26-.42-3.29,2.53.47-.15c2.83-.9,4.65-3.82,3.84-6.77-.77-2.79-3.92-4.74-6.77-3.84h0Z"/>
          <path class="cls-1" d="M66.2,59.28c-1.46,2.91-1.81,5.4-1.06,8.58.99,4.19,6.28,5.12,9.19,2.43,1.71-1.58,2.86-3.55,3.59-5.76s.66-4.5,1.72-6.49l-10.05-4.24c-1.17,3.93-2.02,7.98-.22,11.8,2.26,4.81,8.45,2.54,10.05-1.31,1.18-2.83,1.54-6.14,2.21-9.13l-10.8-1.46c.11.67-.14,1.22-.74,1.65l9.5,5.55c1.34-1.93,2.92-3.85,4.03-5.92.56-1.04.49-2.16.94-3.17-1.06,2.41.45.44,1.22-.49,4.47-5.42-3.27-13.25-7.78-7.78-1.81,2.19-3.61,4.08-4.34,6.88-.19,1.18-.1.98.27-.6l-1.15,1.66c-.9,1.29-1.79,2.58-2.69,3.87-4.06,5.84,5.44,11.27,9.5,5.55,1.54-2.17,2.56-4.49,2.24-7.21s-1.85-5.01-4.77-5.4c-2.57-.35-5.44,1.26-6.03,3.94-.66,2.99-1.03,6.3-2.21,9.13l10.05-1.31c.67,1.43.33,1.01.58-.4.18-.99.46-1.96.75-2.93,1.76-5.91-7.1-9.79-10.05-4.24-1.02,1.92-1.64,3.8-2.08,5.91-.31,1.48-.37,3.05-1.51,4.1,3.06.81,6.13,1.62,9.19,2.43l-.05-.11c3.16-6.31-6.33-11.89-9.5-5.55h0Z"/>
          <path class="cls-1" d="M67.58,64.02c.34,2.18,1.17,4.22,2.74,5.81s4,1.99,6.01,1.14,3.3-2.8,3.38-5.03c.03-.87-.1-1.81-.34-2.64l-9.19,5.35c.27.31.54.62.81.93.77.9,2.03,1.36,3.16,1.51s2.49,0,3.51-.65l.13-.08-2.78.75h.15c-.49-.07-.97-.14-1.46-.2l.16.06-1.31-.55.13.1-1.11-.86c.31.38.57.6.99.92,1.1.85,2.1,1.02,3.46,1.2l1.46-.2c.72-.17,1.34-.5,1.87-.98.87-.67,1.78-1.73,1.97-2.86v-.06c.23-1.26.24-2.37-.27-3.58-.43-1.01-1.21-2.15-2.25-2.63l-.05-.02c-1.38-.63-2.72-.97-4.24-.55-1.28.35-2.66,1.34-3.29,2.53-.67,1.28-1.01,2.82-.55,4.24.42,1.29,1.25,2.7,2.53,3.29l.05.02-2.53-6.21v.06c1.76-1.35,3.53-2.69,5.29-4.04l-.13-.02,3.89,1.61c-.17-.15-.28-.32-.43-.49-.59-.67-1.72-1.27-2.56-1.52-1.51-.45-3.33-.29-4.68.58l6.67.86c-.27-.31-.54-.62-.81-.93-.77-.9-2.03-1.36-3.16-1.51s-2.48,0-3.51.65c-2.05,1.32-3.21,3.79-2.53,6.21.05.15.09.31.11.47l-.2-1.46c.03.25.04.47.03.72l9.39-3.89c-.1-.1-.2-.2-.29-.32l.86,1.11c-.22-.29-.38-.59-.53-.93l.55,1.31c-.26-.69-.39-1.41-.51-2.14-.2-1.27-1.47-2.67-2.53-3.29-1.18-.69-2.92-.98-4.24-.55s-2.61,1.26-3.29,2.53l-.55,1.31c-.26.97-.26,1.95,0,2.92h0Z"/>
          <path class="cls-1" d="M87.81,46.93l-.95.35.77,1.83c.46-.26.92-.54,1.36-.83.42-.28.61-.77.41-1.25-.17-.41-.72-.77-1.18-.58-.97.4-1.84.91-2.65,1.59-.38.32-.36.95-.08,1.31s.88.55,1.29.26c.86-.61,1.77-1.15,2.72-1.6l-1.37-1.37c-.03.06-.08.12-.11.18.1-.19.04-.04-.02.02-.09.1-.19.19-.29.27-.03.02-.06.05-.09.07.1-.07.11-.09.06-.04-.05.03-.1.07-.15.11-.12.09-.25.17-.37.26-.54.39-1.1.82-1.38,1.45-.21.46-.17.96.26,1.29s.94.26,1.31-.08c.21-.18.42-.36.63-.54.05-.04.11-.09.16-.13.03-.02.12-.1.04-.03.12-.1.25-.19.37-.28.46-.34.94-.65,1.43-.94l-1.47-1.13c-.05.26.19-.24.09-.14-.08.08.13-.08-.02.02s-.31.21-.46.32c-.31.21-.62.43-.93.64s-.59.41-.88.61c-.14.1-.28.19-.42.28-.07.04-.14.08-.22.12-.18.09.08-.02-.13.04l1.13,1.47c.03-.05.23-.31.07-.13.07-.08.15-.15.23-.23.09-.07.08-.07,0,0,.04-.03.09-.06.14-.09.09-.06.19-.12.29-.17.45-.24.92-.43,1.39-.63.53-.23,1.07-.47,1.6-.7s1.1-.63,1.2-1.26c.09-.58-.15-1.01-.7-1.23-.37-.15-.48-.19-.87-.37-.33-.15-.66-.31-.98-.48-.65-.34-1.28-.71-1.89-1.11l-1.01,1.73c.9.57,1.81,1.13,2.71,1.7.96.6,2.05-.8,1.21-1.57-.7-.64-1.37-1.31-2.03-1.99l-1.21,1.57c.17.11.33.22.49.34.26.19-.14-.12.11.09.08.06.15.13.23.19.3.26.59.54.85.84l1.21-1.57s-.1-.07-.15-.1c.08.07.08.06-.01-.01-.07-.06-.14-.12-.2-.18-.14-.13-.28-.27-.41-.42-.03-.03-.06-.07-.09-.1.06.08.06.08,0-.01-.05-.07-.1-.15-.15-.22-.11-.18-.22-.36-.31-.55l-1.73,1.01c.12.23-.02-.13.05.12.05.21,0-.11.01.12.01.52.45,1.02,1,1s1.01-.44,1-1c-.01-.45-.12-.86-.33-1.26-.25-.46-.93-.64-1.37-.36-.48.31-.61.86-.36,1.37.46.95,1.18,1.72,2.04,2.32.41.29,1.01.11,1.29-.26.31-.4.26-.94-.08-1.31-.62-.68-1.33-1.27-2.09-1.77-.42-.27-1-.12-1.29.26-.31.4-.27.95.08,1.31.66.68,1.33,1.35,2.03,1.99l1.21-1.57c-.9-.57-1.81-1.13-2.71-1.7-.44-.28-1.12-.11-1.37.36-.26.5-.11,1.06.36,1.37,1.33.86,2.75,1.57,4.22,2.16l-.7-1.23c-.03.21.06-.2.18-.17-.03,0-.24.14-.28.16-.25.12-.52.23-.77.34-.5.22-1,.44-1.5.66-.91.4-1.82.85-2.32,1.75-.41.74.27,1.73,1.13,1.47s1.58-.88,2.31-1.39c.37-.26.74-.51,1.11-.77.42-.29.83-.61.94-1.14.08-.4-.02-.79-.36-1.05-.31-.24-.76-.29-1.11-.08-1.08.65-2.1,1.4-3.04,2.23l1.57,1.21c.03-.07.06-.13.1-.19.04-.07.09-.23,0-.03.04-.1.19-.21.27-.28.05-.05.11-.09.17-.14.09-.08-.15.11,0,0,.12-.08.24-.17.37-.26.56-.39,1.11-.81,1.45-1.41.21-.37.17-.91-.16-1.21-.35-.32-.79-.35-1.21-.16-.95.45-1.86.99-2.72,1.6l1.21,1.57c.08-.06.15-.13.23-.19-.13.1.12-.08.12-.08.16-.11.33-.22.5-.33s.34-.2.52-.29c.07-.04.15-.07.22-.11.03-.02.33-.14.17-.08l-.77-1.83c-.44.29-.89.57-1.36.83-.43.24-.6.8-.41,1.25s.71.75,1.18.58l.95-.35c.49-.18.87-.69.7-1.23-.16-.48-.7-.89-1.23-.7h0Z"/>
          <path class="cls-1" d="M79.45,69.58l1.07.31.27-1.96s-.05,0-.07,0l.27.04c-.05,0-.11-.02-.16-.04l.24.1s-.08-.04-.12-.07c-.11-.07-.24-.11-.37-.12-.13-.03-.27-.02-.4.02l-.24.1c-.12.06-.21.15-.28.26-.06.06-.1.14-.13.22-.06.12-.09.25-.09.39l.04.27c.05.17.13.32.26.44.04.05.09.1.14.15.11.1.23.19.35.27.05.04.11.07.17.09.14.06.28.13.42.17.25.07.55.03.77-.1.12-.06.21-.15.28-.26.09-.1.15-.21.18-.34.06-.26.05-.54-.1-.77s-.34-.39-.6-.46c-.06-.02-.11-.03-.16-.06l.24.1c-.1-.04-.19-.1-.28-.16l.2.16c-.07-.06-.14-.12-.2-.2l-1.21,1.57c.12.08.27.14.4.18s.3.06.45.07c.14,0,.27-.02.39-.09.12-.04.23-.11.32-.21l.16-.2c.07-.11.11-.24.12-.37.02-.09.02-.18,0-.27,0-.13-.05-.26-.12-.37-.14-.22-.34-.39-.6-.46l-1.07-.31c-.13-.04-.27-.05-.4-.02-.13,0-.26.05-.37.12-.12.06-.21.15-.28.26-.09.1-.15.21-.18.34-.06.26-.05.54.1.77s.34.39.6.46h0Z"/>
          <path class="cls-1" d="M61.39,66.8c-.11.48-.05.98.2,1.41.18.3.51.5.86.5.37,0,.66-.2.86-.5.68-.99.68-2.45.02-3.45-.18-.27-.41-.43-.73-.48-.29-.04-.64.04-.84.28-.33.39-.61.8-.82,1.26-.11.26-.22.52-.3.8s-.12.58-.16.87c-.03.23.13.55.29.71.17.17.46.3.71.29s.53-.1.71-.29l.16-.2c.09-.16.14-.32.14-.5v-.04c0,.09-.02.18-.03.27.05-.37.15-.72.29-1.07l-.1.24c.14-.34.33-.66.55-.96l-.16.2c.04-.05.09-.11.13-.16l-1.57-.2c.08.11.14.23.19.36l-.1-.24c.07.17.12.35.14.53l-.04-.27c.03.21.03.42,0,.63l.04-.27c-.03.18-.07.36-.14.53l.1-.24c-.06.14-.13.27-.21.39h1.73s-.04-.07-.05-.1l.1.24c-.03-.07-.05-.15-.06-.22l.04.27c0-.08,0-.15,0-.23l-.04.27s0-.05.02-.08c.06-.26.04-.54-.1-.77-.12-.21-.36-.41-.6-.46-.26-.06-.54-.05-.77.1-.21.14-.4.34-.46.6h0Z"/>
          <path class="cls-1" d="M55.23,79.23c2.8.5,5.68-.31,7.78-2.24.4-.37.37-1.04,0-1.41-.4-.4-1.02-.37-1.41,0-.76.7-1.73,1.24-2.73,1.53-.27.08-.55.15-.83.2-.07.01-.14.02-.21.04-.18.03.13-.01-.05,0-.14.02-.28.03-.42.04-.28.02-.57.02-.85,0-.14,0-.28-.02-.42-.03-.18-.02.12.02-.05,0-.09-.01-.18-.03-.26-.04-.53-.1-1.08.14-1.23.7-.13.48.16,1.13.7,1.23h0Z"/>
          <path class="cls-1" d="M57.21,78.99c.6.4,1.35.36,2.03.31s1.39-.15,2.07-.3c1.31-.29,2.58-.8,3.75-1.46.47-.27.63-.91.36-1.37s-.9-.63-1.37-.36c-.97.55-1.94.94-3.03,1.21-.53.13-1.05.22-1.54.26-.28.03-.57.04-.85.05-.11,0-.22,0-.32,0,.09.01.07,0-.05-.02.08.04.06.02-.04-.04-.45-.3-1.11-.09-1.37.36-.29.49-.09,1.07.36,1.37h0Z"/>
          <path class="cls-1" d="M58.3,78.66c1.22.53,2.51.82,3.85.74s2.56-.43,3.82-.71c.53-.11.84-.73.7-1.23-.15-.55-.7-.81-1.23-.7-1.03.22-2.17.55-3.16.63s-2.04-.06-2.96-.46c-.5-.21-1.07-.15-1.37.36-.25.42-.14,1.15.36,1.37h0Z"/>
          <path class="cls-1" d="M60.89,79.06c1.81.12,3.6-.24,5.26-.98.48-.21.63-.95.36-1.37-.32-.5-.85-.59-1.37-.36-.11.05-.1.05,0,0-.05.02-.11.04-.16.06-.08.03-.16.06-.24.09-.19.07-.38.13-.57.19-.37.11-.74.2-1.12.27-.1.02-.2.04-.3.05.24-.02-.04,0-.07,0-.2.02-.4.04-.6.05-.4.02-.8.01-1.2-.01-.52-.04-1.02.49-1,1,.03.57.44.96,1,1h0Z"/>
          <path class="cls-1" d="M24.7,76.99c-.26-.12-.41-.21-.6-.42l-1.41,1.41c1.35,1.08,2.72,1.94,4.47,2.15.84.1,1.35-1.18.71-1.71-.5-.41-1-.76-1.58-1.04-.93-.46-1.78.45-1.37,1.37.45,1,1.48,1.28,2.49,1.36,1.12.09,2.29.1,3.39-.12.69-.14,1.03-1.22.44-1.67-.97-.75-2.31-.57-3.47-.45-1.3.13-1.27,1.83,0,2,3.8.5,7.72.68,11.42-.5,1.22-.39.7-2.32-.53-1.93-3.54,1.13-7.25.91-10.88.43v2c.44-.04.88-.08,1.32-.08.19,0,.4.03.59,0,.16-.02.35.1.14-.06l.44-1.67c-.67.14-1.38.1-2.07.09-.48,0-1.33.1-1.56-.41l-1.37,1.37c.42.21.81.43,1.17.73l.71-1.71c-1.15-.14-2.17-.86-3.05-1.57-.99-.78-2.32.46-1.41,1.41.3.31.62.55,1.01.73,1.16.53,2.18-1.2,1.01-1.73h0Z"/>
          <path class="cls-1" d="M13.29,64.54c-.97.87-.56,2.29-.11,3.32.38.89,1,1.83,2.01,2.07.51.12,1.11-.16,1.23-.7.12-.51-.15-1.1-.7-1.23-.04,0-.07-.02-.11-.03-.1-.04-.07-.02.08.04-.02-.03-.15-.1-.19-.11.13.1.15.12.07.05-.03-.03-.06-.05-.08-.08-.05-.05-.1-.13-.15-.17.1.13.11.15.05.06-.02-.03-.04-.06-.06-.1-.04-.07-.08-.14-.12-.2-.09-.16-.17-.32-.24-.48-.04-.1-.04-.08.02.05-.02-.04-.03-.08-.05-.13-.03-.08-.06-.17-.09-.26-.06-.18-.1-.36-.14-.53-.02-.11-.02-.09,0,.05,0-.05,0-.09,0-.14,0-.05,0-.1,0-.14-.03.17-.03.21,0,.1.09-.26-.09.13,0-.02.06-.09.04-.06-.06.07.02-.03.05-.05.08-.08.39-.35.38-1.06,0-1.41-.42-.38-1-.37-1.41,0h0Z"/>
          <path class="cls-1" d="M14.96,65.61c-.52,0-.96.27-1.25.69s-.29.9-.22,1.38c.1.65.32,1.29.58,1.9.51,1.15,1.48,2.14,2.72,2.47.51.13,1.11-.17,1.23-.7s-.16-1.09-.7-1.23c-.1-.03-.19-.06-.29-.09-.12-.04.16.09.05.02-.04-.02-.08-.04-.12-.06-.09-.05-.17-.1-.26-.16-.11-.07,0,0,.04.03-.03-.04-.09-.08-.13-.11-.08-.07-.15-.14-.22-.22-.05-.06-.11-.17-.18-.21.04.03.11.15.03.04-.03-.05-.07-.1-.1-.15-.06-.1-.12-.2-.18-.3-.05-.09-.09-.18-.14-.28-.08-.17.04.11,0-.01-.02-.05-.04-.1-.06-.15-.08-.21-.14-.42-.2-.63-.03-.11-.06-.23-.08-.34-.01-.05-.02-.1-.03-.15,0-.04-.02-.08-.02-.12v.1s0-.15.01-.17v.1s-.04.08-.06.13c.07-.14-.05.06-.1.1-.09.07-.21.13-.33.13.52,0,1.02-.46,1-1s-.44-1-1-1h0Z"/>
          <path class="cls-1" d="M13.52,66.76c-.21.49-.22.92-.06,1.43.11.33.22.66.36.98.29.7.61,1.37,1.05,1.98.84,1.17,1.97,2.1,3.37,2.51.5.15,1.11-.18,1.23-.7s-.16-1.07-.7-1.23c-.12-.04-.24-.08-.36-.12-.11-.03.14.07-.03-.01-.05-.02-.1-.05-.15-.07-.24-.12-.46-.27-.69-.42-.13-.08.17.15-.03-.03-.04-.04-.09-.07-.13-.11-.1-.08-.19-.17-.28-.26s-.18-.18-.26-.28c-.05-.05-.09-.11-.14-.16-.02-.03-.14-.19-.03-.04-.33-.47-.62-.95-.86-1.47,0,0-.1-.24-.06-.14s-.06-.15-.06-.14c-.05-.13-.1-.27-.15-.4s-.09-.27-.14-.41c-.02-.06-.03-.12-.05-.17-.02-.1-.03-.11-.01-.03.02.11,0,.22-.08.32.21-.48.16-1.1-.36-1.37-.43-.23-1.15-.15-1.37.36h0Z"/>
          <path class="cls-1" d="M14.65,66.09c-.44-.54-1.37-.34-1.68.23-.2.39-.19.83-.11,1.24.1.5.36.98.58,1.44.42.85,1.05,1.69,1.94,2.09.25.11.49.18.77.1.23-.06.48-.24.6-.46.23-.44.15-1.14-.36-1.37-.13-.06-.26-.13-.38-.21-.03-.02-.06-.04-.09-.06.12.1.15.12.09.07-.05-.04-.1-.08-.14-.13-.1-.1-.22-.21-.3-.33l.09.11s-.05-.06-.07-.1c-.05-.07-.09-.14-.14-.21-.16-.26-.3-.54-.43-.83-.03-.06-.05-.11-.08-.17-.02-.04-.03-.08-.05-.11-.04-.1-.03-.08.03.06,0,0-.13-.44-.14-.49l.04.27c-.01-.11-.02-.21,0-.31l-.04.27s0-.07.02-.1l-.26.44-.14.1-.5.14h.03c-.24-.1-.47-.2-.71-.3l.02.02c.15.19.48.29.71.29.25,0,.54-.11.71-.29s.3-.44.29-.71c-.01-.28-.12-.49-.29-.71h0Z"/>
          <path class="cls-10" d="M98.18,95.1s-.03-.03,0,.06c.03.05.03.1,0,.16-.02.06-.07.13-.13.16h-.5c.2.14.39.28.58.43-.07-.06.05.04.05.04.05.04.1.08.15.12.09.07.17.14.26.21.36.3.7.61,1.03.94l.61-.79c-.2-.1-.38-.22-.56-.35-.02-.01-.16-.12-.06-.05-.04-.03-.09-.07-.13-.11-.08-.07-.16-.14-.23-.21-.15-.15-.3-.31-.43-.48.07.09-.03-.05-.05-.06-.03-.05-.06-.09-.09-.14s-.06-.09-.09-.14c-.01-.02-.03-.05-.04-.07-.05-.11-.05-.04,0,.2l-.13.22-.25.1h.03s.03,0,.04,0h-.05s.13.03.16.03c.03,0,.05.02.08.03-.04-.02-.06-.03,0,0s.1.05.14.08.09.06.14.09c-.08-.06.04.03.06.05.09.08.17.16.26.25.17.18.33.37.49.56.05.06-.04-.05,0,0,.02.02.04.05.06.07.04.05.07.1.11.15.08.11.15.22.22.33l.56-.73s-.1-.03-.14-.05c.1.07.01,0-.02,0-.08-.04-.16-.08-.23-.13-.04-.03-.08-.05-.13-.08s-.09-.05-.02-.01c-.08-.04-.15-.13-.21-.19s-.12-.13-.18-.2c-.02-.03-.02-.02.02.03-.01-.02-.03-.04-.04-.06-.03-.04-.05-.07-.07-.11-.05-.07-.09-.15-.13-.23-.06-.12.02.06-.02-.04-.02-.05-.03-.09-.05-.14l-.91.39c.44.6.93,1.16,1.49,1.65.2.17.52.21.71,0,.17-.19.21-.52,0-.71-.26-.23-.5-.47-.73-.72-.12-.13-.23-.26-.34-.39-.02-.03-.05-.06-.07-.09-.02-.02-.07-.08-.02-.03-.06-.07-.11-.15-.17-.22-.15-.2-.38-.31-.62-.2-.22.09-.37.35-.29.59.29.91,1.01,1.62,1.91,1.92.41.14.79-.37.56-.73-.27-.42-.57-.81-.9-1.18s-.69-.69-1.14-.87c-.22-.09-.52-.17-.75-.09-.2.07-.35.21-.41.42s.03.4.13.57c.23.38.51.73.82,1.04.36.35.77.65,1.21.88.22.12.49.07.65-.13s.14-.48-.04-.66c-.7-.69-1.46-1.32-2.27-1.89-.14-.1-.36-.08-.5,0-.33.19-.48.67-.25.99.15.21.44.34.68.18.21-.14.34-.46.18-.68h0Z"/>
          <path class="cls-10" d="M102.78,94.01c-.06-.06-.04-.04-.1-.11-.05-.06-.02-.06,0-.09l-.13.22c-.25.03-.31.06-.2.08.03,0,.07.02.1.02.05.01.09.02.14.04.13.03.25.07.38.12.22.08.43.17.63.29.43.23.81.52,1.15.87l.61-.79c-.43-.26-.86-.52-1.25-.82-.2-.15-.38-.32-.56-.5-.08-.09-.16-.17-.24-.27-.04-.04-.06-.08-.1-.13-.05-.06,0-.05-.01,0l-.07.25.02-.05-.56.23c.64.09,1.18.45,1.68.84.44.34,1.05.77,1.2,1.34v-.27.06c.03-.07.08-.15.12-.22l-.03.03.22-.13c.14-.04.17.03.07-.04-.06-.04-.13-.07-.19-.1-.12-.07-.24-.15-.36-.23-.2-.14-.38-.29-.56-.46-.19-.18-.38-.37-.53-.58-.01-.02-.07-.1-.06-.1-.05-.07,0-.02-.02-.02,0,0-.15.22-.18.18,0,.01.11.03.15.04.44.15.85.4,1.19.71.17.16.34.33.48.51.08.11.15.22.22.33.03.04.05.11.08.14.02.04.02.04,0,0,0-.05,0-.11.02-.16l.18-.18.03-.02h.27c-.16-.02-.29-.12-.41-.22-.21-.16-.56-.03-.68.18-.15.26-.04.52.18.68s.51.33.79.33c.36,0,.63-.3.63-.66,0-.5-.46-1.02-.77-1.36-.34-.37-.74-.7-1.18-.94s-1.04-.56-1.52-.33c-.66.3-.48,1.05-.12,1.51.33.43.72.8,1.16,1.12.21.16.43.3.66.42.27.15.58.29.88.12.66-.39.02-1.26-.31-1.64-.38-.44-.87-.8-1.33-1.14-.5-.36-1.06-.67-1.68-.76-.22-.03-.45.02-.56.23-.22.42,0,.76.26,1.08.19.24.41.46.65.66.51.43,1.07.79,1.65,1.14.49.3,1-.38.61-.79-.63-.65-1.4-1.13-2.25-1.43-.41-.14-.98-.36-1.34,0-.39.39-.14,1.09.22,1.41.2.18.51.2.71,0,.18-.18.2-.53,0-.71h0Z"/>
          <path class="cls-10" d="M108.65,90.62c-.26-.3-.63-.45-1.02-.45-.45,0-.63.53-.35.85s.6.57.98.74.86.34,1.19,0c.42-.45-.04-.94-.42-1.19-.35-.23-.75-.36-1.17-.41-.38-.05-.93-.06-1.22.24-.38.39-.11.94.28,1.19s.82.37,1.26.4c.4.03.96,0,1.21-.37.15-.23.13-.53-.05-.74s-.42-.28-.67-.35c-.5-.16-1.03-.24-1.55-.26l.25.93c1.25-.53,2.71-.15,3.77.61l.39-.91c-1.11-.38-2.22-.72-3.35-1.02l.3.73c-.03.05-.1.02-.05.04.01,0,.06,0,.09,0,.09,0,.19.03.29.05.28.07.55.15.82.25.52.19,1.01.45,1.47.76l-.1-.79c.13-.12.19-.02,0-.09-.09-.03-.18-.08-.27-.12-.22-.1-.43-.21-.64-.32-.42-.22-.83-.46-1.23-.72-.23-.15-.55-.05-.68.18-.15.26-.04.52.18.68.91.7,2.15.8,3.01,1.56l.35-.85c-.58-.03-1.12-.32-1.65-.55-.57-.24-1.5-.66-1.91.07-.09.17-.12.38-.04.56s.25.28.41.38c.27.19.56.34.86.48.62.27,1.25.43,1.92.5.52.05.65-.69.25-.93-.94-.57-1.97-.99-3.04-1.21-.45-.1-.75.34-.56.73.27.59,1,.79,1.57.97.67.22,1.36.37,2.05.46.25.03.49-.04.59-.29s0-.48-.2-.62c-.83-.56-1.81-.85-2.81-.86-.42,0-.67.56-.35.85.85.79,1.96,1.05,3.08,1.19.21.03.43-.18.48-.37.06-.22-.04-.45-.23-.56l-.4-.25c-.36-.23-.87.15-.73.56.11.32.36.52.7.52.55,0,.69-.86.13-.98l-1.56-.34c-.49-.11-1-.19-1.47-.36-.1-.04-.12-.08-.08,0-.04-.1-.05-.21-.11-.3-.03-.06-.37-.43-.41-.4.02-.02.08.51.09.12,0-.06,0-.14-.02-.2-.04-.14-.14-.27-.26-.34-.2-.13-.47-.17-.69-.24-.62-.19-.88.78-.27.96.13.04.39.1.45.14l-.18-.18.03.04-.07-.25c.01.22.01.43.19.62.06.07.14.13.22.18.05.04.08.11.04-.02.08.22.11.4.3.56s.44.24.67.31c.93.29,1.92.44,2.87.65l.13-.98h.09c.06.07.12.13.18.19v.02c-.25.19-.49.38-.74.56l.4.25.25-.93c-.84-.11-1.74-.31-2.37-.9l-.35.85c.83,0,1.62.26,2.31.72l.39-.91c-.61-.08-1.21-.21-1.79-.38-.28-.08-.57-.17-.84-.29-.17-.07-.31-.14-.39-.31l-.56.73c1,.21,1.93.58,2.8,1.11l.25-.93c-.9-.09-1.75-.44-2.48-.98l.25.43-.17.22s.02-.01.04,0c.04.03.16.04.2.05.12.04.23.08.34.12.22.09.44.19.67.29.51.22,1,.39,1.56.42.42.02.68-.57.35-.85-.94-.82-2.23-.96-3.21-1.71l-.5.86c.53.34,1.07.65,1.63.92.53.26,1.2.66,1.72.17.25-.23.16-.62-.1-.79-.63-.42-1.32-.74-2.03-.97-.63-.2-1.52-.47-1.95.23-.17.28,0,.65.3.73,1.13.3,2.25.64,3.35,1.02.23.08.5-.07.59-.29.1-.24,0-.48-.2-.62-1.38-.99-3.2-1.29-4.78-.61-.2.08-.28.37-.23.56.06.22.26.36.48.37.27.01.54.04.8.09.13.03.26.06.39.1.06.02.11.03.17.05.04.01.09.03.13.04.11.05.07,0-.11-.15v-.27c.07-.39.27-.14.08-.16-.06,0-.14.01-.21.01-.14,0-.27,0-.4-.04-.12-.03-.24-.06-.35-.11-.05-.03-.16-.11-.22-.12-.01,0,0-.03.01,0v.27l-.04.07-.22.13c.25-.1.55-.07.8,0,.2.05.57.17.68.36l-.07-.25v-.02c.05-.07.09-.15.14-.22,0,0,.2-.1.2-.09,0,0-.14-.05-.16-.06-.1-.04-.2-.1-.29-.16-.19-.12-.35-.27-.49-.44l-.35.85c.14,0,.22.04.31.15.18.2.53.18.71,0,.2-.2.18-.5,0-.71h0Z"/>
          <path class="cls-10" d="M64.27,101.91l-.4.19c-.22.1-.26.36-.23.56.1.63.62,1.16,1.25,1.28.41.08.8-.34.56-.73-.59-1-1.72-1.49-2.85-1.32-.34.05-.42.48-.3.73.36.75,1.11,1.16,1.82,1.52l.5-.86c-.37-.17-.69-.42-.92-.77,0-.01-.09-.16-.1-.16-.03,0,0,.12-.03.16,0,0-.09.08-.09.08,0-.01.07-.02.07-.02.19-.02.4.08.56.17.9.45,1.72,1.12,2.45,1.82l.22-.84c-.17.07-.01.03-.06,0-.06-.02-.11-.06-.16-.09-.12-.07-.23-.14-.35-.22-.2-.14-.4-.28-.59-.44-.41-.35-.78-.73-1.11-1.15v.71l-.02.02-.25.07c.14-.02.03,0,.02,0,.05.06.16.09.23.13.15.09.3.18.44.27.29.19.58.39.85.6.47.36,1.07.78,1.35,1.33l.43-.75c-.18.02-.51-.34-.63-.46-.23-.22-.45-.47-.66-.71-.43-.48-.88-.96-1.45-1.28-.31-.17-.79.04-.75.43.12,1.44,1.22,2.39,2.5,2.89.23.09.51-.08.59-.29.1-.24,0-.48-.2-.62-.85-.6-1.75-1.12-2.69-1.57-.37-.17-.88.12-.73.56.22.7.77,1.19,1.4,1.54.7.38,1.47.66,2.24.83.57.12.85-.59.39-.91-.95-.66-1.97-1.22-3.04-1.67-.23-.1-.48-.09-.65.13-.14.18-.16.5.04.66.87.72,1.87,1.25,2.96,1.54.62.17.89-.8.27-.96-.92-.25-1.79-.68-2.52-1.28l-.61.79c1.07.45,2.08,1.01,3.04,1.67l.39-.91c-.65-.14-1.28-.35-1.88-.66-.43-.22-.91-.52-1.07-1.01l-.73.56c.94.44,1.84.97,2.69,1.57l.39-.91c-.82-.32-1.68-.97-1.77-1.92l-.75.43c.58.33,1,.85,1.44,1.34.22.25.45.49.71.71.3.25.69.59,1.1.54.38-.05.62-.39.43-.75s-.49-.67-.8-.94c-.34-.31-.71-.6-1.08-.87-.35-.26-.71-.5-1.08-.72s-.85-.46-1.23-.08c-.21.21-.17.49,0,.71.4.51.85.96,1.36,1.36.26.2.53.4.81.57.31.19.69.38,1.06.22.33-.14.52-.55.22-.84-.52-.5-1.07-.95-1.66-1.36s-1.23-.87-1.94-.91-1.3.55-.95,1.26c.29.57.81,1.05,1.39,1.32.24.12.54.07.68-.18.13-.22.06-.56-.18-.68-.56-.28-1.18-.57-1.47-1.16l-.3.73c.68-.1,1.38.28,1.72.86l.56-.73c-.32-.06-.5-.27-.55-.59l-.23.56.4-.19c.24-.12.31-.47.18-.68-.15-.25-.44-.29-.68-.18h0Z"/>
          <path class="cls-10" d="M55.54,104.38c.84-.24,1.77.05,2.42.61.72.62,1.16,1.47,1.44,2.36l.84-.49c-1.03-.85-1.5-2.26-2.66-2.97-.51-.32-1.37-.45-1.71.19-.42.79.49,1.43,1.03,1.85.65.5,1.35.94,2.06,1.36.48.28,1.04-.4.61-.79-.66-.58-1.31-1.15-1.97-1.73-.32-.28-.64-.57-.97-.85-.3-.27-.6-.51-.99-.65-.19-.06-.41.03-.53.18-.13.17-.12.36-.04.56.21.48.55.9.91,1.28s.72.74,1.11,1.08.83.68,1.26.98.93.69,1.49.62c.2-.03.37-.1.46-.31.07-.18.04-.4-.1-.55-.81-.8-1.62-1.6-2.42-2.4l-.71.71c.49.39.96.81,1.4,1.25s1.16-.25.71-.71-.91-.86-1.4-1.25c-.21-.17-.5-.21-.71,0-.19.19-.19.52,0,.71.81.8,1.62,1.6,2.42,2.4l.35-.85c-.21.03-.35-.07-.52-.18-.19-.12-.38-.25-.56-.38-.38-.27-.74-.56-1.08-.86-.66-.58-1.39-1.24-1.75-2.05l-.56.73c.29.1.52.37.75.57.3.26.6.53.9.79.61.54,1.22,1.08,1.83,1.61l.61-.79c-.64-.38-1.29-.77-1.88-1.22-.14-.1-.27-.21-.4-.32-.08-.07-.16-.14-.24-.21-.03-.03-.12-.16-.15-.16-.07,0,.05-.06-.03.02,0,0-.08.11-.08.1,0-.02.06-.01.1,0,.04,0,.04,0,0,0,.04,0,.07.02.1.03.54.21.95.84,1.28,1.31.41.57.81,1.16,1.36,1.61.17.14.4.2.61.08.19-.11.3-.35.23-.56-.34-1.09-.9-2.16-1.8-2.89s-2.13-1.1-3.29-.78c-.62.17-.36,1.14.27.96h0Z"/>
          <path class="cls-10" d="M49.28,104.25c.18.02.33.15.28.33-.04.14-.05.08-.12.13h.05s-.03,0,.03,0c-.05-.01.06.02.08.03.05.02.11.04.16.06.02,0,.11.05.05.02.09.04.19.09.28.14s.18.1.26.16c.04.02.07.05.1.07.02.01.04.03.06.05t0,0c.15.12.3.26.44.4.28.29.45.53.67.9.1.17.19.34.27.51.02.05.04.1.06.14.07.15-.03-.08.03.07.04.1.08.19.11.29l.91-.39c-.42-.55-.85-1.1-1.3-1.63-.21-.25-.43-.51-.65-.76s-.47-.54-.81-.64-.76.03-.96.34c-.22.34-.09.7.07,1.03.24.5.59.95,1,1.32.49.43,1.06.76,1.69.94.49.15.82-.48.49-.84-.85-.9-1.7-1.8-2.55-2.69-.22-.23-.63-.17-.79.1-.28.47.03.98.28,1.39.22.36.49.69.79.99.6.6,1.33,1.05,2.13,1.34.25.09.55-.1.62-.35.08-.28-.09-.52-.35-.62-.55-.2-1.13-.55-1.58-.97-.12-.11-.23-.22-.33-.34-.13-.14-.17-.2-.27-.34s-.19-.28-.27-.43c-.04-.08-.09-.15-.12-.23.02.05,0-.02-.01-.03-.03-.11.01.02-.03.09l-.79.1c.85.89,1.71,1.79,2.55,2.69l.49-.84c-.07-.02-.13-.04-.2-.06-.02,0-.19-.07-.12-.05-.13-.05-.25-.12-.37-.19-.26-.15-.41-.25-.61-.44-.1-.09-.2-.19-.29-.3-.03-.04-.07-.08-.1-.12-.04-.05-.04-.05-.02-.02-.02-.03-.04-.06-.06-.08-.08-.11-.15-.23-.22-.35-.03-.06-.07-.12-.1-.18-.02-.03-.03-.06-.04-.09.01.04.01.03-.01-.03-.05.04-.02.16-.1.21-.03.02-.05.03-.09.02.06,0,.06,0,0,0-.03-.02.05.03.06.04.06.05.11.11.16.16.22.25.44.5.66.75.45.53.88,1.06,1.3,1.61.15.2.38.31.62.2.21-.09.37-.35.29-.59-.38-1.07-.99-2.1-1.89-2.81-.24-.18-.48-.35-.75-.48-.29-.14-.61-.28-.94-.28-.4,0-.78.26-.87.66-.05.2,0,.41.12.58.14.21.33.29.58.31.27.03.5-.25.5-.5,0-.29-.23-.47-.5-.5h0Z"/>
          <path class="cls-3" d="M96.24,57.01c-1.27.07-2.42.83-2.77,2.09-.25.91-.1,1.85.41,2.64.81,1.23,2.02,2.24,3.53,2.32,1.71.1,2.97-1.23,3.49-2.73.32-.92.3-2.1-.04-3.01-.41-1.11-1.13-2.17-2.24-2.69-.83-.39-1.72-.58-2.63-.34s-1.59.8-2.05,1.55c-.28.45-.46,1.01-.62,1.53-.17.57-.27,1.18-.29,1.78-.02,1.22.45,2.53,1.36,3.37,1.03.95,2.51,1.32,3.86.91.69-.21,1.23-.54,1.77-1.01s.86-1.08,1.11-1.74c.86-2.21-.33-5.06-2.39-6.16-1.31-.7-2.76-.74-4.09-.09-1.25.62-2.09,1.95-2.12,3.35s.67,2.57,1.58,3.51,2.08,1.54,3.39,1.58c2.4.08,4.48-2.14,5.3-4.21.48-1.2.29-2.67-.47-3.71-.66-.9-1.54-1.69-2.52-2.23-1.14-.62-2.51-.92-3.79-.54s-2.22,1.28-2.74,2.45c-.24.53-.45,1.04-.54,1.61-.14.84-.13,1.5.02,2.34.19,1.03.8,2.08,1.54,2.81,1.71,1.68,4.45,2.16,6.57.99,1.01-.56,1.9-1.6,2.09-2.77.11-.69.14-1.36-.1-2.04-.26-.72-.63-1.31-1.16-1.87-.62-.65-1.44-1.21-2.25-1.61-1.22-.61-2.45-.88-3.81-.63-2.35.42-3.74,2.83-3.52,5.1.1,1.06.36,2.13.97,3.02.66.98,1.64,1.83,2.84,2.04,1.39.24,2.79-.03,3.81-1.07s1.26-2.65.89-4.07c-.14-.52-.37-1.03-.6-1.51-.17-.36-.35-.71-.58-1.03-.42-.59-.87-1.1-1.51-1.47s-1.38-.58-2.1-.55c-.9.03-1.73.37-2.39.98-.54.5-.85,1.13-1.11,1.8-.39.99-.37,2.1-.17,3.13s.77,1.98,1.49,2.7c.92.93,2.62.99,3.54,0s.99-2.55,0-3.54c-.09-.09-.17-.18-.25-.27l.39.51c-.17-.22-.3-.45-.42-.71l.25.6c-.1-.26-.17-.52-.22-.79l.09.66c-.03-.28-.04-.55,0-.82l-.09.66c.04-.27.11-.54.21-.79l-.25.6c.08-.17.17-.34.28-.49l-.39.51c.08-.1.17-.19.27-.27l-.51.39c.08-.05.15-.09.24-.13l-.6.25c.09-.03.17-.05.26-.06l-.66.09c.09,0,.18,0,.27,0l-.66-.09c.16.02.3.06.44.12l-.6-.25c.11.05.22.11.32.19l-.51-.39c.16.13.3.27.42.43l-.39-.51c.31.41.53.88.73,1.35l-.25-.6c.13.32.24.64.29.98l-.09-.66c.02.19.03.38,0,.58l.09-.66c-.02.13-.05.24-.1.36l.25-.6c-.04.09-.09.17-.14.25l.39-.51c-.07.09-.14.17-.23.24l.51-.39c-.09.07-.18.12-.28.17l.6-.25c-.16.07-.31.11-.48.13l.66-.09c-.14.01-.28.01-.42,0l.66.09c-.17-.03-.33-.07-.49-.13l.6.25c-.14-.06-.26-.14-.38-.22l.51.39c-.17-.14-.32-.29-.46-.46l.39.51c-.15-.21-.27-.42-.37-.66l.25.6c-.14-.35-.24-.71-.3-1.08l.09.66c-.04-.3-.04-.61,0-.91l-.09.66c.03-.24.09-.47.17-.69l-.25.6c.07-.16.15-.31.25-.45l-.39.51c.11-.14.23-.26.37-.37l-.51.39c.11-.08.22-.14.33-.2l-.6.25c.18-.08.36-.13.56-.16l-.66.09c.23-.03.45-.03.69,0l-.66-.09c.31.04.61.13.9.25l-.6-.25c.54.24,1.06.55,1.53.91l-.51-.39c.26.2.49.41.7.66l-.39-.51c.13.17.24.35.33.55l-.25-.6c.04.11.07.22.09.34l-.09-.66c.01.12.02.24,0,.36l.09-.66c-.02.15-.05.28-.11.41l.25-.6c-.05.1-.1.2-.17.29l.39-.51c-.11.14-.23.26-.36.37l.51-.39c-.17.13-.35.23-.54.31l.6-.25c-.2.08-.39.13-.6.17l.66-.09c-.31.04-.61.04-.91,0l.66.09c-.27-.04-.53-.12-.78-.22l.6.25c-.25-.11-.48-.24-.7-.4l.51.39c-.21-.16-.4-.35-.56-.56l.39.51c-.18-.24-.33-.49-.44-.76l.25.6c-.11-.28-.18-.56-.23-.85l.09.66c-.03-.28-.03-.55,0-.82l-.09.66c.05-.35.15-.69.29-1.02l-.25.6c.11-.25.23-.48.39-.7l-.39.51c.1-.13.21-.24.34-.35l-.51.39c.11-.08.22-.14.34-.19l-.6.25c.15-.06.31-.1.47-.13l-.66.09c.2-.02.39-.02.59,0l-.66-.09c.24.04.47.11.69.2l-.6-.25c.37.17.7.39,1.02.63l-.51-.39c.32.26.64.52.9.84l-.39-.51c.12.16.22.32.3.5l-.25-.6c.03.09.06.18.08.28l-.09-.66c.02.14.02.27.01.41l.09-.66c-.03.21-.09.39-.17.59l.25-.6c-.14.29-.31.55-.51.81l.39-.51c-.31.4-.65.77-1.05,1.09l.51-.39c-.19.14-.38.25-.59.34l.6-.25c-.15.06-.3.1-.46.13l.66-.09c-.16.02-.32.02-.48,0l.66.09c-.16-.03-.31-.07-.47-.14l.6.25c-.21-.1-.4-.22-.59-.36l.51.39c-.27-.22-.5-.46-.71-.73l.39.51c-.15-.2-.28-.41-.38-.64l.25.6c-.05-.13-.09-.26-.11-.4l.09.66c-.02-.14-.02-.27,0-.41l-.09.66c.02-.12.05-.23.1-.34l-.25.6c.05-.1.11-.19.17-.28l-.39.51c.07-.09.15-.16.24-.24l-.51.39c.12-.09.23-.16.36-.22l-.6.25c.16-.07.32-.11.5-.14l-.66.09c.15-.01.29,0,.44,0l-.66-.09c.16.03.31.07.46.13l-.6-.25c.18.08.34.18.5.29l-.51-.39c.18.14.34.3.48.48l-.39-.51c.16.21.29.44.4.68l-.25-.6c.09.22.15.45.19.69l-.09-.66c.03.24.03.47,0,.7l.09-.66c-.03.2-.08.39-.16.57l.25-.6c-.07.14-.14.27-.23.39l.39-.51c-.09.11-.19.21-.3.3l.51-.39c-.14.1-.28.19-.44.26l.6-.25c-.13.05-.26.09-.4.11l.66-.09c-.17.02-.33.02-.49,0l.66.09c-.11-.02-.21-.05-.32-.09l.6.25c-.11-.05-.2-.11-.3-.18l.51.39c-.09-.08-.18-.16-.26-.25l.39.51c-.11-.15-.2-.3-.27-.47l.25.6c-.07-.17-.11-.35-.14-.53l.09.66c-.03-.25-.03-.5,0-.75l-.09.66c.07-.5.22-1,.41-1.46l-.25.6c.05-.11.11-.21.18-.31l-.39.51c.06-.07.12-.13.19-.19l-.51.39s.1-.06.15-.09l-.6.25c.09-.03.16-.05.25-.06l-.66.09c.09,0,.17,0,.26,0l-.66-.09c.12.02.24.05.35.1l-.6-.25c.14.06.27.14.4.23l-.51-.39c.13.11.25.23.36.37l-.39-.51c.12.16.22.33.3.52l-.25-.6c.09.22.15.43.18.66l-.09-.66c.03.23.02.46,0,.69l.09-.66c-.03.17-.07.33-.13.5l.25-.6c-.07.17-.15.32-.26.46l.39-.51c-.06.07-.12.13-.19.19l.51-.39s-.1.07-.15.09l.6-.25c-.09.04-.17.06-.27.07l.66-.09c-.06,0-.12,0-.18,0l.66.09c-.09-.02-.17-.04-.26-.07l.6.25c-.15-.07-.29-.15-.42-.25l.51.39c-.24-.2-.44-.43-.63-.67l.39.51c-.09-.12-.16-.23-.22-.36l.25.6c-.03-.06-.04-.13-.05-.2l.09.66v-.08c-.03.22-.06.44-.09.66,0-.06.02-.11.04-.16l-.25.6c.02-.05.05-.1.09-.14l-.39.51.06-.05-.51.39.07-.04-.6.25.07-.02-.66.09h.08c.66-.04,1.29-.26,1.77-.74.43-.43.76-1.15.73-1.77s-.24-1.32-.73-1.77-1.1-.77-1.77-.73h0Z"/>
          <path class="cls-9" d="M98.41,57.97c-.07.47-.06.95.07,1.41.12.42.34.97.75,1.17.47.24.98-.08,1.26-.46.21-.29.3-.66.3-1.01,0-.74-.34-1.61-1.01-1.98-.46-.25-1.03-.18-1.34.27-.26.38-.21.86-.12,1.29s.25.82.46,1.19c.24.42.59.87,1.12.9s.87-.38.94-.86c.07-.42.02-.86-.1-1.26-.13-.44-.34-.83-.62-1.18-.3-.37-.82-.73-1.31-.44-.46.27-.45.83-.38,1.3.06.4.21.8.44,1.14.28.41.84,1.08,1.4.74.39-.24.51-.85.48-1.27-.07-.82-.63-1.61-1.46-1.79-.25-.05-.56.07-.62.35-.21,1.08.12,2.23.92,3,.2.19.51.19.71,0,.52-.51.66-1.33.43-2.01-.24-.73-.81-1.27-1.42-1.7-.29-.2-.63.03-.73.3-.43,1.15-.14,2.52.7,3.41.27.29.64.51,1.05.42.31-.07.57-.32.7-.6.29-.61.22-1.35-.04-1.96s-.8-1.26-1.53-1.26c-.35,0-.7.16-.92.44-.23.3-.23.69-.18,1.05.08.66.33,1.41.82,1.89.3.3.74.36,1.11.16.31-.16.52-.45.64-.77.22-.56.1-1.24-.22-1.75-.35-.55-.9-.91-1.55-.97-.29-.02-.47.25-.5.5-.06.58-.02,1.16.12,1.72.06.25.36.43.62.35.27-.09.41-.34.35-.62-.11-.47-.14-.95-.08-1.45l-.5.5c.1,0-.07-.02.03,0,.04.01.09.02.13.03.02,0,.12.05.07.02s.06.03.08.04c.04.02.08.05.12.07.05.02-.02-.01-.02-.02.02.01.03.02.05.04.06.06.12.12.18.18s0,0,0,0c.01.02.02.03.03.05.02.03.04.07.06.1s.04.07.06.11c0,.02.02.04.03.05-.05-.1,0-.02,0,0,.02.08.05.15.06.23,0,.02,0,.04.01.06-.02-.1,0-.05,0-.02,0,.05,0,.09,0,.14,0,.04,0,.08,0,.12,0,.06,0-.03,0-.04,0,.03,0,.05-.02.08,0,.04-.02.08-.03.11,0,.02-.01.04-.02.06-.02.06.04-.07,0,0-.01.02-.02.04-.03.06,0,0-.04.07-.02.03.02-.02-.07.07-.09.09.06-.05-.02.01-.05.02.01,0,.07-.02.02-.01-.06.01.05,0,.05,0,.04,0,0,0-.02,0,0,0,.07.02.06.03,0,0-.1-.11-.05-.04-.08-.1-.15-.21-.21-.32-.12-.21-.17-.34-.24-.59s-.09-.37-.08-.63c0-.03.02-.14,0-.08,0-.02.04-.06,0-.03-.01.01-.07.07-.02.04.02-.01.03-.03.04-.04,0,0-.06.04-.01.02s-.02,0-.02,0c.03-.01.06-.02.08-.03.01,0,.08,0,.02,0-.07,0,.03,0,.04,0,.05,0-.01,0-.03,0,.02,0,.05.01.07.02.05.01.01,0,0,0,.02,0,.05.02.07.03s.04.03.06.04c.02.01.06.05.02.01.05.04.09.08.13.12.02.02.03.04.05.06,0,0-.03-.05,0,0,.07.1.13.2.19.31.01.02.02.05.03.07,0-.01-.02-.05,0,0,.02.05.04.1.05.15.02.06.03.12.05.18,0,.03.01.05.02.08,0,0,.02.1.01.06,0-.02,0,.09,0,.12,0,.05,0,.1,0,.16,0,.06,0,.12-.01.18,0-.07-.01.05-.02.07,0,.02-.04.13-.02.08s-.04.07-.05.09c0,0-.05.06-.01.02.04-.04,0,0-.01.01,0,0-.06.05-.01.01.04-.03-.05,0,0,0,.02,0,.06-.01.08-.02-.08.01-.03,0,0,0,.06.02-.04-.03-.06-.04.05.04-.04-.05-.06-.06-.05-.05-.09-.09-.13-.14-.02-.02-.03-.04-.05-.06-.05-.06.04.05,0-.01-.03-.05-.06-.09-.09-.14-.06-.1-.12-.21-.17-.31-.01-.02-.02-.04-.03-.07.02.05,0,.02,0-.01-.02-.06-.04-.12-.06-.18-.03-.11-.06-.22-.08-.33,0-.02,0-.05-.01-.07,0-.06,0,.06,0-.03,0-.06,0-.11-.01-.17,0-.12,0-.24,0-.36,0-.02,0-.05,0-.07,0-.08-.01.07,0,0,0-.05.02-.11.03-.16.03-.12.07-.25.11-.37l-.73.3c.06.04.11.08.17.12-.04-.03,0,0,.02.02.03.02.05.04.08.07.11.09.21.18.3.29.05.05.09.1.14.16-.03-.04,0,0,.02.02.02.03.04.06.06.08.04.06.07.12.1.18.02.03.03.06.05.09.04.08,0,0,.02.04.02.06.04.12.05.18,0,.03.01.06.02.09.02.08,0-.07,0,0,0,.06,0,.12,0,.19,0,.03,0,.06,0,.09,0,0-.01.1,0,.05s0,.04-.01.05c0,.03-.01.06-.02.09s-.02.06-.03.09c-.02.07.03-.06,0,0-.03.05-.06.11-.09.16-.04.06.05-.05,0,0-.03.03-.05.06-.08.08h.71c-.18-.17-.23-.24-.35-.43-.06-.09-.11-.18-.15-.28-.01-.02-.02-.04-.03-.07.02.04.02.04,0-.02-.02-.05-.03-.09-.05-.14-.03-.09-.05-.19-.07-.29,0-.03-.01-.06-.02-.1,0-.05-.01-.06,0-.03,0,.03,0,.02,0-.03,0-.03,0-.07,0-.1,0-.1,0-.2,0-.29,0-.05,0-.1.01-.15,0,.1.02-.09.02-.11l-.62.35c.05.01.1.03.15.04.05.02.05.02,0,0,.02.01.05.02.07.03.04.02.08.05.12.07.1.07-.03-.04.04.03.04.04.08.07.11.11.02.02.03.04.05.06-.04-.05-.04-.05,0,0,.05.08.1.16.14.24-.05-.11.01.04.02.07.01.04.02.08.03.12,0,.03.02.2.01.06,0,.05,0,.1,0,.16,0,.04,0,.08,0,.12.01-.14,0,.03-.02.06,0,.03-.07.18-.02.07-.01.02-.02.05-.04.07-.05.07-.03.06.05-.05l.25-.07c.05,0,.16.08.08.01-.04-.04-.09-.08-.13-.12-.04-.04-.07-.07-.1-.11,0,0-.07-.09-.04-.05.02.03-.03-.04-.04-.05-.06-.09-.12-.18-.17-.28,0-.02-.06-.13-.03-.06-.03-.06-.05-.12-.07-.19-.03-.1-.06-.21-.07-.32,0-.06,0,0,0,0,0-.02,0-.05,0-.07,0-.06,0-.12,0-.17,0-.03,0-.06,0-.09,0,.01-.02.07,0,.02.05-.13-.03.03-.06.06s-.16.03-.17.04c-.01.02-.02-.02.02,0-.08-.06.07.06.04.03-.04-.03.02.02.02.02.02.02.05.05.07.07.03.04.07.08.1.12-.03-.05.05.07.06.09.03.05.07.1.1.15.05.08.12.22.13.27.02.05.07.21.1.31.01.05.02.1.04.15,0,.02.03.17.02.1.02.12.02.24.02.36,0,.05,0,.09,0,.14,0-.1,0,.01-.02.05,0,.02-.01.04-.02.06,0,0,.03-.08,0-.03s.01-.02.02-.02c-.05.04-.02,0,0,0,.03-.01.05-.02.08-.02.02,0,.06-.01.02,0-.02,0-.03,0,.01,0,0,0-.07-.04-.03-.02-.06-.05-.12-.13-.16-.18-.07-.1-.13-.2-.18-.3-.03-.06-.06-.11-.09-.17-.01-.02-.02-.05-.03-.07.02.05,0-.02-.01-.03-.09-.23-.15-.47-.2-.71-.01-.06,0,0,0,0,0-.02,0-.05,0-.07,0-.05,0-.11,0-.16,0-.09-.02.04,0-.05,0-.02.01-.04.02-.06.01-.06,0,.07.01-.02,0,0-.05.06-.01.02s0,0-.01.01c0,0-.08.02-.02,0,.07-.01-.09,0-.01,0,.06,0-.03,0-.03,0,.02,0,.04,0,.06.02.05.02-.01,0-.02-.01.03.01.05.03.08.04.07.04.04.02.01,0,.02.01.04.03.05.05.04.03.07.07.1.1.06.06-.03-.05.01.01.01.02.03.04.04.06.03.04.05.09.08.13.02.03.06.14.03.05.02.04.03.08.04.12.03.09.06.19.08.28,0,.02,0,.04.01.06,0,.02.01.1,0,.04,0-.06,0,.06,0,.08,0,.04,0,.08,0,.12,0,.02,0,.18,0,.11s-.01.06-.02.09c-.01.05-.03.1-.05.15.03-.09,0,0-.02.03-.01.02-.03.04-.04.06-.02.05.05-.05,0-.01-.03.02-.06.06-.09.09.11-.1-.06.04-.06.03.01-.05.19.03.19.03.03,0-.03-.04,0,0,.02.04-.03-.04-.03-.05-.14-.23-.21-.41-.27-.7,0-.02-.03-.17-.02-.11,0-.07-.01-.15-.02-.22s0-.15,0-.22c0-.03,0-.05,0-.08,0-.01.01-.12,0-.06.04-.26-.06-.55-.35-.62-.24-.05-.57.07-.62.35h0Z"/>
          <path class="cls-3" d="M98.85,59.82c.05-.1.11-.2.18-.3l-.08.1c.09-.11.18-.21.29-.29l-.1.08c.07-.06.15-.11.23-.15.11-.06.2-.18.23-.3.02-.07.02-.13,0-.2,0-.07-.02-.13-.06-.19-.07-.11-.17-.2-.3-.23-.13-.03-.26-.01-.39.05-.08.04-.15.09-.22.14-.1.08-.2.15-.29.25s-.17.19-.24.3c-.05.07-.09.15-.13.23-.04.06-.06.12-.06.19-.01.07-.01.13,0,.2.03.12.12.24.23.3.12.06.26.09.39.05.12-.04.24-.11.3-.23h0Z"/>
          <path class="cls-5" d="M83.69,71.64s-9.5-11.66,3.13-20.68c12.62-9.02,19.96-8.78,24.17-6.37s8.9,9.02,8.9,9.02"/>
          <path class="cls-5" d="M122.88,64.66s1.74,4.15-5.71,13.4c-3.79-1.86-12.57-4.54-16.87-3.32-1.06.3-2.23.18-3.07-.54-1.28-1.09-1.28-2.57-1.28-2.57"/>
          <circle class="cls-5" cx="97.15" cy="59.77" r="5.74"/>
          <path class="cls-5" d="M91.77,80.24s-8.8,5.59-22.03,5.59c0,0-5.89,8.06-5.29,10.82,1.28,1.92,3.37,8.42-4.33,9.14s-14.67,1.68-17.07-7.94c-2.4-9.62,7-17.05,7-17.05"/>
          <path class="cls-5" d="M87.29,88.59c-.12.6,1.08,9.38,14.19,6.61s4.33-9.62,4.33-9.62c.12-1.56-1.32-3.54-1.32-3.54"/>
          <path class="cls-5" d="M16.12,73.32c-.24.48-13.47,15.14-5.29,22.42,5.61,4.99,12.8,4.07,16.76,3,2.71-.73,4.51-3.5,3.81-6.21s-3.56-5.26-12.4-5.38"/>
          <path class="cls-5" d="M29.61,89.79c-.99-.2.48-5.64,2.86-6.06"/>
          <path class="cls-5" d="M65.99,91.75c.98.08,6.26,2.54,9.88.68s4.15-4.63,4.15-4.63"/>
          <path class="cls-5" d="M27.93,80.28c.6.12,9.49,8.54,15.97,8.61"/>
          <path class="cls-5" d="M39.59,83.08s2.42,4.45,5.13,4.19"/>
          <path class="cls-5" d="M76.68,91.84c.76.35,8.06,1.38,11.46-5.39,1.09-3.25.68-4.68.68-4.68"/>
          <path class="cls-5" d="M87.29,88.59s8.3-.96,9.86-6.55"/>
          <path class="cls-5" d="M105.81,85.58s-3.97-.6-6.37,2.4"/>
          <path class="cls-5" d="M64.45,96.64s-2.77-1.93-7.21-.91"/>
          <path class="cls-5" d="M85.07,52.35c-.26.23-11,4.26-13.77,8.71,0,0-12.26-.36-16.95,8.06-1.28,2.31,0,11.78,0,11.78l-28.37-.66s-14.55-8.84-13.59-14.13,5.29-6.97,5.29-6.97"/>
          <path class="cls-5" d="M54.2,79.6c.76.33,22.16.93,25.16-8.81,0,0-8.3-5.89-8.06-9.74"/>
          <path class="cls-5" d="M82.95,70.58s-2.39-1.01-3.41.11"/>
          <path class="cls-5" d="M54.58,68.71c-1.48,1.44-24.55.3-25.39,0s-11.18-9.74-11.18-9.74c.57-.2,5.98-15.82,18.29-23.19,10.74-6.44,20.16-6.94,34.13-2.25s21.79,13.92,21.79,13.92"/>
          <path class="cls-5" d="M25.98,80.24s.51-9.84,3.22-11.53"/>
          <path class="cls-5" d="M70.84,61.06s-14.3-19.05-13.21-20.58,8.39-7.12,12.8-6.94"/>
          <path class="cls-5" d="M35.92,36.51s3.22,3.52,3.68,6.22-7.84,24.65-7.12,25.99"/>
          <path class="cls-5" d="M57.24,40.92s-10.5,4.75-17.64,1.17"/>
          <path class="cls-5" d="M48.4,103.99s1.44-.96,2.89,0,2.22,4.09,2.22,4.09c0,0-3.97.36-5.11-3.73"/>
          <path class="cls-5" d="M54.65,104.05c1.52-2.08,5.77-.82,6.19,4.27-4.39-.96-6.19-4.27-6.19-4.27Z"/>
          <path class="cls-5" d="M101.69,93.08c1.27-1.73,4.81-.69,5.16,3.56-3.66-.8-5.16-3.56-5.16-3.56Z"/>
          <path class="cls-5" d="M96.72,94.84c1.11-1.51,4.2-.6,4.51,3.11-3.19-.7-4.51-3.11-4.51-3.11Z"/>
          <path class="cls-5" d="M61.89,102.49c1.23-2.26,5.6-1.6,6.71,3.39-4.48-.36-6.71-3.39-6.71-3.39Z"/>
          <path class="cls-5" d="M105.92,90.93c.84-2.43,5.27-2.49,7.18,2.25-4.48.38-7.18-2.25-7.18-2.25Z"/>
          <path class="cls-5" d="M27.58,94.97c1.23-2.26,5.6-1.6,6.71,3.39-4.48-.36-6.71-3.39-6.71-3.39Z"/>
          <path class="cls-5" d="M22.95,97.32c1.62-1.65,5.23,0,4.97,4.57-3.78-1.41-4.97-4.57-4.97-4.57Z"/>
          <path class="cls-5" d="M17.35,97.83c1.43-1.47,4.64,0,4.41,4.05-3.35-1.25-4.41-4.05-4.41-4.05Z"/>
          <path class="cls-5" d="M114.23,77.31s-9.62,8.9-23.2,2.65"/>
          <path class="cls-3" d="M117.06,57.06c-.54,1.67-.26,3.61.62,5.12.49.84,1.18,1.56,2,2.08,1.19.76,2.76.88,3.98.15,1.94-1.15,2.1-3.71,1.34-5.61-.4-.99-.89-1.86-1.63-2.65-.81-.86-2-1.51-3.21-1.48-1.35.03-2.63.79-3.25,2.01-.57,1.14-.65,2.44-.24,3.65.33.99.79,1.86,1.49,2.64.32.36.73.68,1.15.92.63.34,1.19.49,1.9.55,1.1.1,2.23-.34,3.03-1.08,1.04-.95,1.35-2.48.99-3.81-.28-1.03-.95-1.88-1.7-2.59s-1.59-1.39-2.59-1.59c-.93-.19-1.92-.15-2.76.35-.79.48-1.33,1.2-1.61,2.07-.17.53-.22,1.12-.18,1.67s.11,1.11.29,1.63c.44,1.23,1.18,2.29,2.32,2.98s2.46.86,3.7.53c.6-.16,1.18-.61,1.49-1.15s.45-1.33.25-1.93c-.42-1.3-1.72-2.1-3.08-1.75-.1.03-.2.05-.3.06l.66-.09c-.18.02-.35.02-.53,0l.66.09c-.21-.03-.4-.08-.59-.16l.6.25c-.22-.09-.41-.21-.6-.35l.51.39c-.17-.13-.31-.28-.45-.45l.39.51c-.17-.22-.3-.45-.41-.71l.25.6c-.11-.28-.19-.57-.24-.87l.09.66c-.04-.29-.05-.59-.02-.88l-.09.66c.02-.15.05-.3.11-.44l-.25.6c.04-.09.09-.18.14-.26l-.39.51c.05-.06.1-.11.16-.16l-.51.39c.07-.05.13-.09.21-.12l-.6.25c.1-.04.2-.07.31-.08l-.66.09c.11,0,.22,0,.33,0l-.66-.09c.16.02.32.07.47.13l-.6-.25c.23.1.44.24.64.39l-.51-.39c.41.33.81.71,1.14,1.12l-.39-.51c.14.18.25.37.34.57l-.25-.6c.06.16.11.32.13.49l-.09-.66c.01.14.01.28,0,.42l.09-.66c-.02.11-.05.21-.09.32l.25-.6c-.04.08-.08.15-.13.22l.39-.51c-.07.08-.14.15-.22.22l.51-.39c-.1.08-.21.14-.32.19l.6-.25c-.14.06-.28.09-.43.12l.66-.09c-.15.02-.3.02-.46,0l.66.09c-.15-.02-.3-.06-.44-.11l.6.25c-.18-.08-.35-.18-.51-.31l.51.39c-.18-.15-.33-.31-.48-.49l.39.51c-.23-.31-.42-.65-.57-1.01l.25.6c-.13-.31-.23-.63-.28-.96l.09.66c-.03-.21-.03-.42,0-.63l-.09.66c.02-.14.06-.28.12-.41l-.25.6c.06-.13.13-.25.22-.37l-.39.51c.08-.09.16-.17.25-.24l-.51.39c.08-.05.16-.1.24-.14l-.6.25c.1-.04.19-.06.29-.08l-.66.09c.11,0,.21,0,.31,0l-.66-.09c.13.02.26.06.38.11l-.6-.25c.18.08.34.18.5.29l-.51-.39c.24.19.45.41.64.66l-.39-.51c.29.38.53.79.72,1.23l-.25-.6c.15.37.27.76.33,1.15l-.09-.66c.03.22.03.45,0,.67l.09-.66c-.02.15-.06.3-.11.44l.25-.6c-.04.1-.09.18-.15.27l.39-.51c-.06.08-.13.15-.21.22l.51-.39c-.05.04-.1.07-.16.1l.6-.25c-.1.04-.19.07-.3.09l.66-.09c-.1,0-.2,0-.31,0l.66.09c-.13-.02-.26-.06-.38-.11l.6.25c-.2-.09-.38-.2-.56-.33l.51.39c-.23-.18-.44-.39-.62-.62l.39.51c-.21-.27-.38-.57-.52-.88l.25.6c-.14-.34-.24-.69-.29-1.06l.09.66c-.04-.34-.04-.68,0-1.02l-.09.66c.03-.22.08-.43.15-.64.19-.6.06-1.39-.25-1.93s-.9-1.01-1.49-1.15c-1.37-.31-2.65.41-3.08,1.75h0Z"/>
          <path class="cls-9" d="M121.1,58.37c-.23.94.53,1.93,1.5,1.93.32,0,.57-.32.48-.63-.22-.78-.66-1.5-1.27-2.03-.17-.14-.41-.2-.61-.08-.54.33-.64,1.01-.39,1.56.11.24.3.45.51.62.24.19.48.38.77.49.34.13.74.05.96-.24.19-.25.22-.55.18-.85-.07-.56-.32-1.1-.74-1.48-.24-.21-.52-.41-.85-.38-.3.03-.56.2-.71.47-.28.51-.16,1.07.06,1.58s.57.98,1.06,1.2c.28.13.61.2.91.1s.55-.35.66-.67c.19-.57-.09-1.2-.4-1.67-.34-.52-.79-.96-1.33-1.29-.15-.09-.36-.09-.5,0-.35.23-.54.59-.57,1-.04.38.11.75.29,1.07.37.63.93,1.31,1.75,1.14.37-.08.68-.37.76-.74s-.06-.74-.19-1.07c-.25-.62-.68-1.29-1.38-1.45-.49-.11-1.02.11-1.16.62-.11.39.06.81.26,1.14.14.22.45.33.68.18s.32-.44.18-.68c-.03-.04-.05-.09-.07-.13-.01-.02-.02-.05-.03-.07-.02-.04-.04-.05,0,.01-.03-.03-.04-.1-.05-.14,0-.02,0-.06-.01-.07.03.05,0,.09,0,.01.01-.07-.02.1,0,.03,0,0,.01-.05.01-.05,0,0-.05.1,0,.03-.02.04-.04.06-.08.08.08-.05,0,0-.02,0,.09-.03-.02,0-.03,0,0,0,.06,0,.07,0,.11,0-.05-.02,0,0,.02,0,.05.02.07.02.07.01-.07-.04-.01,0,.04.03.09.05.13.08.01,0,.08.06.03.02s.01.01.02.02c.04.04.08.08.12.12.02.02.03.04.05.06-.01-.01-.06-.08,0,0,.03.04.06.09.09.13.06.09.11.19.15.28.01.02.02.05.03.07-.04-.09-.01-.03,0,0,.02.05.04.1.06.15.04.11.06.23.1.34.03.07,0-.08,0,0,0,.02,0,.04,0,.06,0,.11,0,0,0,0v.04s0-.03,0-.05c-.04.09.01-.03.02-.02,0,0-.05.04-.04.04,0,0,.09-.07.02-.02-.07.05.07-.01.02,0-.02,0-.05,0-.06.02-.06.02.1,0,.03,0-.02,0-.05,0-.07,0-.07,0-.02,0-.02,0,0-.01.05.02-.02,0,0,0-.04,0-.05-.01.02.02.07.04.01,0-.04-.02-.07-.04-.11-.07.08.06-.04-.04-.06-.06-.03-.04-.07-.07-.1-.11-.05-.05.04.06,0,0-.02-.02-.03-.05-.05-.07-.04-.05-.08-.11-.11-.16-.08-.12-.14-.24-.21-.36.04.07,0,.01,0,0-.02-.04-.03-.09-.04-.13,0-.03-.01-.06-.02-.09.01.03,0,.07,0,.01,0-.02,0-.05,0-.07,0-.02,0-.04,0-.06,0-.04,0-.03,0,.04,0-.04.03-.12.04-.16.02-.06-.05.07,0,.02,0,0,.05-.08.05-.08,0,0-.08.09,0,.02s-.08.05.01-.01h-.5c.08.05.16.1.23.15.02.01.03.02.05.04,0,0,.06.05.02.01s.01,0,.02.01c.03.02.05.05.08.07.14.12.28.26.4.41.02.03.08.1.03.03.03.03.05.07.07.1.06.08.11.16.16.25.05.08.09.16.13.24,0,.02.05.13.03.06s0,0,0,.02c0,.02.02.05.02.07.01.04.02.07.03.11,0,.02,0,.04.01.05.02.1,0-.02,0-.03-.01.02,0,.08,0,.11,0,.02,0,.04,0,.05,0,.05.03-.11,0-.02,0,0-.02.1-.03.09,0,0,.04-.1.02-.05,0,0-.02.04-.03.04.06.02.04-.09.01-.03,0,.02-.06.03,0,0,.06-.03,0,0,0,0l.05-.02h-.03s-.01.01-.02.02c-.04,0-.02,0,.05,0,0,0-.04,0-.05,0,0,0-.05,0-.05,0,0,0,.1.02.04,0-.04-.01-.08-.03-.13-.04,0,0,.08.04.03.01-.02-.01-.05-.02-.07-.04-.03-.02-.07-.04-.1-.06-.06-.04.06.05,0,0-.01-.01-.03-.03-.04-.04-.07-.06-.13-.14-.2-.21.05.06,0-.01-.03-.04-.02-.04-.05-.07-.07-.11-.05-.09-.1-.18-.15-.27-.04-.09,0-.02,0,0,0-.02-.02-.04-.02-.06-.02-.04-.03-.08-.04-.12-.02-.05-.03-.1-.04-.15,0-.02-.04-.15-.02-.07s0-.04,0-.06c0-.03,0-.06,0-.1,0-.09-.02.09,0,0,0-.01.04-.11.03-.12,0,0-.05.09-.02.05,0-.01.01-.03.02-.04s.02-.02.02-.04c.03-.06-.06.08-.03.04,0,0,.02-.02.03-.03,0,0-.09.07-.05.04.04-.03-.07.03-.06.02.08-.03-.1,0-.04,0,.05,0-.05-.01-.05-.01,0,0,.08.01.02,0-.05-.01,0,0,.01,0,.02.01.03.02.05.03.01,0,.08.06.03.02-.05-.04,0,0,.01.01.04.03.07.06.1.1s.06.07.1.1c.06.07-.03-.05.02.03s.1.16.15.24c.02.04.05.11.02.03.02.04.03.09.05.13.01.04.02.08.03.12,0,.02,0,.04.01.06,0,.01.02.13.01.05,0-.06,0,.06,0,.07,0,.05,0,.09,0,.14,0,.09.03-.07,0,.01,0,0,.04-.09.01-.04-.02.04.03-.04.04-.05.03-.03.07-.03.11-.05.04,0,.04,0,.01,0-.03,0-.02,0,.01,0,.07,0,0,0,0,0-.02,0-.05-.02-.07-.03.1.04-.03-.02-.06-.04-.04-.02-.08-.05-.12-.08-.02-.01-.03-.02-.05-.04,0,0-.1-.08-.05-.04.05.03-.01,0-.02-.01-.02-.02-.04-.04-.07-.05-.08-.07-.15-.14-.22-.22-.04-.04,0,.01.01.02-.02-.03-.04-.06-.06-.09-.01-.02-.02-.04-.03-.05-.05-.08,0,.02,0,.02-.01,0-.03-.13-.04-.13,0,0,0,.11,0,.05,0-.02,0-.05,0-.07,0-.02,0-.03,0-.05,0-.09-.02.07,0,.02,0-.01,0-.03.01-.05.02-.08,0,.03-.02.03,0,0,.02-.04.02-.04.04-.09,0,.03-.01.01,0,0,.03-.03.03-.03.05-.04-.1.07,0,.01l-.61-.08c.13.11.25.23.36.36.03.03.05.07.08.1.08.09-.04-.05.03.03.05.07.11.15.16.23.09.14.17.29.24.45,0,.02.02.04.03.06-.02-.05-.02-.05,0-.02.01.04.03.08.05.12.03.09.06.17.08.26l.48-.63s-.1,0-.11,0c.07.01.09.01.05,0-.02,0-.03,0-.05-.01-.01,0-.09-.02-.1-.03l.06.02s-.04-.02-.06-.03c-.03-.02-.06-.04-.09-.05-.08-.05.04.05,0,0-.02-.03-.05-.05-.08-.07-.01-.01-.1-.1-.04-.04s-.01-.02-.02-.03c-.02-.03-.04-.06-.05-.09,0-.02-.02-.03-.02-.05-.02-.03-.01-.02.02.04-.01,0-.03-.09-.03-.1,0,0-.03-.1-.02-.1v.06s0-.05,0-.07c0-.03,0-.06,0-.09,0-.04,0-.02,0,.05,0-.02,0-.05.02-.07.06-.25-.08-.55-.35-.62s-.55.08-.62.35h0Z"/>
          <path class="cls-3" d="M121.36,60.18l.6-1.2c.06-.12.09-.25.05-.39-.03-.12-.12-.24-.23-.3-.12-.06-.26-.09-.39-.05-.12.04-.24.11-.3.23l-.6,1.2c-.06.12-.09.25-.05.39.03.12.12.24.23.3.12.06.26.09.39.05.12-.04.24-.11.3-.23h0Z"/>
          <ellipse class="cls-5" cx="120.92" cy="59.77" rx="4.8" ry="5.74" transform="translate(-13.22 73.91) rotate(-32.32)"/>
        </g>
      </g>
    </g>
  </g>
</svg>