<?xml version="1.0" encoding="UTF-8"?>
<svg id="zoo" xmlns="http://www.w3.org/2000/svg" xmlns:xlink="http://www.w3.org/1999/xlink" viewBox="0 0 132 132">
  <defs>
    <style>
      .cls-1 {
        fill: #9fc7ff;
      }

      .cls-2 {
        fill: #fff;
      }

      .cls-3, .cls-4 {
        fill: none;
      }

      .cls-5 {
        fill: #d6e4f2;
      }

      .cls-6 {
        clip-path: url(#clippath-1);
      }

      .cls-7 {
        fill: #6ed8e6;
      }

      .cls-8 {
        fill: #1d1d1b;
      }

      .cls-9 {
        fill: #c3efff;
      }

      .cls-4 {
        stroke: #501a36;
        stroke-linecap: round;
        stroke-linejoin: round;
      }

      .cls-10 {
        clip-path: url(#clippath);
      }
    </style>
    <clipPath id="clippath">
      <circle class="cls-3" cx="66" cy="66" r="63.91"/>
    </clipPath>
    <clipPath id="clippath-1">
      <circle class="cls-3" cx="65.79" cy="236.94" r="63.91"/>
    </clipPath>
  </defs>
  <g id="whale">
    <g class="cls-10">
      <g>
        <rect class="cls-5" x="-30.39" y="-47.69" width="213.04" height="213.04"/>
        <g>
          <path class="cls-7" d="M55.22,55.78c-3.47,2.09-3.46,7.16-3.46,10.74,0,4.1.66,8.29,2.03,12.16,1.28,3.62,4.4,7.71,8.82,6.25,3.79-1.26,4.71-6.15,5.16-9.61.47-3.7.11-7.56-1.09-11.1s-3.04-7.12-6.21-9.09-7.08-1.19-9.82,1.24-4.25,6.22-5.1,9.76c-.95,3.96-1.23,8.22-.43,12.24.73,3.69,3.2,7.38,7.07,8.26,4.13.94,7.72-1.76,9.92-5.01,1.99-2.95,2.86-6.64,2.86-10.16,0-6.76-3.24-14.5-9.98-17-7.54-2.8-14.81,3.91-16.85,10.72-1.06,3.54-.88,7.53.96,10.78,1.64,2.9,4.48,5.02,7.62,6.03,6.73,2.18,13.44-1.75,15.81-8.2,2.68-7.3-2.41-14.14-7.98-18.37-3.04-2.31-6.75-3.32-10.51-2.42-3.42.83-6.51,3.1-8.68,5.82-4.6,5.75-6.71,15.32-.37,20.75s14.82,1.89,20.14-2.89c2.69-2.42,4.89-5.77,4.85-9.51s-2.18-6.79-5.05-8.9c-5.82-4.27-14.17-3.42-20.02.33-3.14,2.01-5.82,4.83-7.12,8.36s-.54,7.52,2.33,9.94c2.65,2.23,6.26,2.99,9.62,2.26s6.57-3.14,8.96-5.76c1.29-1.42,2.63-2.97,3.22-4.83.65-2.05.13-4.2-.63-6.14-1.3-3.32-3.32-6.5-6.75-7.9-7.37-2.99-14.98,4.18-18.21,10.16-1.7,3.14-2.65,6.56-2.91,10.12-.06.88.53,1.71,1.24,2.16,7.34,4.64,15.95.06,20.7-6.03,2.51-3.21,4.18-7.13,3.25-11.26s-4.21-6.67-8.25-6.83c-3.75-.15-7.57,1.72-10.49,3.93s-5.35,5.01-7.05,8.26c-.85,1.61-1.54,3.34-2.02,5.1-.33,1.24-.31,2.17.47,3.21.6.81,1.32,1.48,2.18,2.02,3.4,2.16,7.81,1.44,11.01-.7s5.79-5.48,7.1-9.2c1.17-3.33,1.53-8.33-1.18-11.04s-8.02-1.26-11.1.16-6.06,4.14-7.7,7.29c-1.97,3.77-2.68,8.6-1.84,12.77.79,3.92,4.01,7.51,8.21,7.58s7.4-3.42,9.53-6.61,3.53-7.36,3.65-11.37c.11-3.46-1.05-7.44-4.33-9.16-3.93-2.06-8.41.07-11.06,3.16s-5.03,6.63-6.61,10.28c-1.84,4.22-1.99,8.55-1.11,13.03.42,2.15,1.07,4.26,1.71,6.35.35,1.12,1.28,1.75,2.41,1.84,2.92.22,6.65.11,9.27-1.36,2.86-1.6,3.16-5.81,3.18-8.74.04-5.69-2.97-11.6-8.81-13.11-.97-.25-2.38.14-2.82,1.15-1.01,2.28-2.03,4.56-3.04,6.84s-1.7,4.36-.59,6.72c.97,2.05,2.7,3.89,4.04,5.7s2.54,3.91,4.78,4.64c2.04.67,4.22-.04,5.94-1.18s3.76-2.77,4.44-4.82c.74-2.21-.24-4.48-1.04-6.53-.85-2.2-1.82-4.35-2.9-6.45-.4-.78-1.31-1.23-2.16-1.24-2.28-.03-4.48.42-6.56,1.34-1.88.82-3.97,2.02-4.4,4.18s1.2,4.41,2.11,6.28,1.71,3.93,3.62,5.03c2.01,1.16,4.57.78,6.78.7s4.59-.14,6.89-.24c4.36-.19,8.74-1.71,9.34-6.6.17-1.35-1.28-2.49-2.5-2.5-5.54-.04-10.78-2.3-16.37-1.44s-9.74,5.08-9.78,10.77c0,1.47,1.16,2.34,2.5,2.5,4.29.51,8.61.78,12.94.8,2.2,0,4.4-.05,6.6-.18s4.51-.18,6.67-.59c1.98-.38,2.95-2.65,3.08-4.49.11-1.62-.4-3.35-1.32-4.68-2.25-3.23-6.22-3.99-9.92-4.05-4.9-.07-9.82.42-14.65,1.27-1.03.18-1.88,1.4-1.84,2.41.19,4.29,1.06,9.7,5.46,11.67,2.84,1.27,5.87.47,8.79-.07,3.24-.59,6.48-1.19,9.72-1.78s6.16-1.1,9.23-1.7c2.15-.42,4.46-1.2,5.98-2.86,1.93-2.12,1.89-5.19.06-7.36s-4.78-2.63-7.51-2.59c-6.77.11-13.54,1.51-19.81,4.06-2.06.84-2.42,3.24-.6,4.57,2.92,2.12,5.92,4.12,9.02,5.98s6.08,3.86,9.59,4.15,6.72-1.62,9.67-3.18,5.64-3.27,7.71-5.79c1.01-1.23.99-3.04-.51-3.93-4.22-2.5-8.51-4.86-12.88-7.08-4.12-2.09-9.24-5.56-13.86-2.92-1.92,1.1-3.26,2.9-4.62,4.58-1.59,1.95-3.18,3.91-4.77,5.86s-3.23,3.81-4.68,5.83-2.26,4.28-1.61,6.71c.28,1.04,1.32,1.86,2.41,1.84,4.32-.08,8.64-.5,12.9-1.23,1.95-.33,3.9-.79,5.1-2.52,1.09-1.59,1.08-3.55.63-5.36-.21-.86-.51-2.02-1.14-2.65-.74-.74-2.04-1.05-3-1.42-1.84-.71-3.72-1.32-5.62-1.83-3.95-1.05-8.03-1.65-12.11-1.85-1.02-.05-2.21.81-2.41,1.84-1.18,6.2-.89,12.56,1.02,18.59.51,1.61,2.2,2.23,3.67,1.49,2.76-1.38,5.53-2.75,8.28-4.14,1.33-.67,2.7-1.61,3.18-3.11s-.04-3.05-1.27-4.04c-2.11-1.68-5.12-2.68-7.65-3.51-2.8-.92-5.69-1.46-8.62-1.77-1.74-.18-2.68,1.73-2.41,3.16.43,2.27,1.04,4.5,1.84,6.67s1.65,4.45,3.03,6.28,3.6,2.82,5.88,1.93c2.16-.85,4.16-2.37,6.14-3.57,1.34-.81,1.7-2.81.51-3.93-4.25-4-9.47-6.84-15.17-8.14-1.91-.44-3.49,1.18-3.08,3.08,1.22,5.66,3.38,12.04,9.66,13.69.85.22,1.81,0,2.43-.64,2.09-2.18,4.05-4.88,3.19-8.08s-3.92-3.87-6.81-4.45c-2.64-.53-5.84-1.57-8.3.08-1.35.91-2.21,2.54-1.43,4.11.74,1.47,1.77,2.87,2.69,4.23,1.78,2.63,3.71,5.16,5.74,7.6s4.38,4.76,7.83,3.77c1.48-.42,2.78-1.33,4.08-2.13,1.41-.87,2.85-1.71,4.24-2.62,1.23-.8,2.43-1.78,2.95-3.21.26-.73.35-1.49.18-2.26-.26-1.18-1.02-1.69-1.99-2.3-5.9-3.66-12.29-6.52-18.92-8.57-1.69-.52-3.79,1.28-3.08,3.08,1.43,3.59,3.1,7.1,5.15,10.39,1.92,3.08,4.37,5.8,7.95,6.88s7.37.45,10.97-.04c4.11-.55,8.21-1.22,12.29-1.99.77-.14,1.62-.96,1.75-1.75.44-2.77-1.34-4.37-3.76-5.27s-4.98-1.69-7.47-2.53-4.82-1.72-7.26-2.44-4.76-.82-7.12.22c-1.69.74-1.57,3.53,0,4.32,4.86,2.41,8.78,6.38,13.77,8.54,2.63,1.14,5.4,1.75,8.28,1.4,3.37-.42,6.41-1.94,9.25-3.73,1.67-1.06,1.63-4.16-.6-4.57-10.51-1.94-21.07-3.64-31.67-5.1-1.34-.18-2.68.32-3.08,1.75s.47,2.63,1.75,3.08c6.94,2.44,13.2,6.64,20.38,8.45,8.29,2.08,16.65.2,24.75-1.84,2.37-.6,2.4-4.24,0-4.82-4.23-1.02-8.46-2.05-12.69-3.07l1.75,3.08c.43-1.45,1.04-2.77,1.87-4.03.37-.57.78-1.09,1.24-1.59.06-.06.83-.75.82-.83.01.32-1.26-.2-1.26-.21.03-.04.74,1.63.75,1.66.3.82.58,1.64.85,2.47.58,1.81,1.07,3.65,1.5,5.5l2.41-3.16c-1.22.04-2.57-1.87-3.38-2.66-1.32-1.28-2.62-2.57-3.9-3.88-2.63-2.68-5.19-5.41-7.69-8.21l-3.54,3.54c4.53,4.42,9.45,8.42,14.67,12l1.93-4.57c-7.57-2.8-15.35-4.97-23.28-6.5-2.06-.4-4.01,1.69-2.82,3.67,4.25,7.12,14.32,9.65,21.38,5.22,1.47-.92,1.78-3.48,0-4.32-4.03-1.89-8.56-2.3-12.81-.84-2.26.77-2.49,4.14,0,4.82,4.08,1.11,8.29,1.68,12.52,1.67,2.13,0,3.35-2.76,1.77-4.27-5.45-5.2-12.43-8.71-19.91-9.78-1.42-.2-2.58.34-3.08,1.75-1.04,2.94.07,6.18,2.14,8.38s5.14,3.22,8.03,3.83c6.93,1.46,14.05,1.58,21.11,1.66,2.79.03,3.43-4.23.66-4.91-6.46-1.58-13.38.29-18.13,4.94-1.23,1.21-.78,3.02.51,3.93,5.79,4.1,13.74,4.37,19.91.96,1.95-1.08,1.39-3.94-.6-4.57-3.19-1-6.79-.5-9.53,1.43-1.35.95-1.88,3.5,0,4.32,6.01,2.61,12.32,1.76,18.58.67,2.02-.35,2.53-3.73.6-4.57-1.8-.78-3.6-1.56-5.4-2.35-1.53-.66-3.11-.17-3.67,1.49l-.52,1.53c-.37,1.08.26,2.24,1.15,2.82,2.62,1.71,5.58,2.91,8.66,3.48,1.93.35,3.48-1.12,3.08-3.08-.75-3.69-3.96-6.83-7.72-7.34-1.39-.19-3.4.61-3.16,2.41.5,3.86,1.56,11.83,7.19,10.8,1.1-.2,2.1-.79,2.71-1.75.76-1.2.51-2.41.17-3.7-.62-2.31-1.61-4.53-2.87-6.55l-1.49,3.67c3.28-1.27,6.66-1.96,10.18-2.01,2.21-.03,3.25-2.69,1.77-4.27-1.39-1.48-3.85-1.03-4.78.73-1.13,2.13.63,4.11,2.3,5.23,2.78,1.86,6.5,1.85,9.38.27,1.29-.71,1.77-2.93.51-3.93-3.3-2.6-7.17-3.62-11.33-2.9-1.76.3-2.07,2.35-1.49,3.67,1.95,4.51,7.47,4.28,11.41,3.17,2.26-.64,4.56-1.24,6.79-1.97,2.09-.69,3.74-1.87,4.66-3.91.41-.9.66-1.85,1.06-2.75.42-.97,1.05-1.86,1.67-2.72,1.25-1.72,2.54-3.36,3.52-5.26,1.93-3.72,3.03-7.77,4.42-11.7.37-1.04.75-2.08,1.19-3.09.31-.7.58-1.65,1.27-2.02,1.05-.57,2.54-.77,3.69-1.12,1.41-.43,2.83-.85,4.24-1.28,1.72-.52,2.54-2.87,1.1-4.18-3.24-2.95-7.61-4.39-11.97-3.81-4.09.54-9.09,3.32-8.72,8.11l1.24-2.16c.51-.23.19.11-.13-.2-.21-.2-.44-.3-.64-.53-.54-.6-.91-1.37-1.38-2.03-1.16-1.66-2.56-2.84-4.49-3.49-3.95-1.34-8.57-1.11-12.63-.48-2.27.36-2.24,3.52-.6,4.57,2.91,1.86,5.73,3.85,8.4,6.03,1.23,1,2.5,2.01,3.61,3.15.74.76,1.45,1.67,1.07,2.77-.92,2.66-4.2,2.84-6.54,2.6-3.53-.35-6.89-1.61-10.48-1.29l2.5,2.5c-1.33-11.25-6.88-21.89-15.8-28.99-9.37-7.47-21.58-10.94-33.48-9.48-6.98.85-13.69,3.17-19.7,6.84l3.42.9c.07.24.06.46-.06.68l.17-.3c.23-.17.39-.43.62-.6.57-.43,1.33-.74,1.97-1.04,1.45-.7,2.97-1.23,4.52-1.66,3.26-.89,6.58-1.16,9.95-.9,1.35.1,2.5-1.22,2.5-2.5,0-1.44-1.15-2.4-2.5-2.5-4.64-.36-9.4.27-13.77,1.88-3.59,1.33-10.62,4.44-7.72,9.46.67,1.15,2.27,1.6,3.42.9,9.33-5.7,20.67-7.96,31.4-5.52,10.06,2.29,18.99,8.35,24.46,17.14,2.95,4.74,4.94,10.13,5.6,15.69.15,1.24,1.03,2.63,2.5,2.5,4.3-.39,8.38,1.57,12.68,1.35,4.01-.2,7.93-2.3,9.16-6.34,1.31-4.29-1.93-7.41-4.91-9.91-3.32-2.79-6.82-5.36-10.48-7.69l-.6,4.57c2.1-.33,4.26-.37,6.37-.19,1.54.13,3.66.23,4.77,1.46,1.28,1.42,1.93,3.16,3.53,4.34,1.78,1.31,3.78,1.53,5.79.62.73-.33,1.3-1.37,1.24-2.16-.17-2.26,3.15-3.15,4.97-3.24,2.63-.13,5.23.69,7.19,2.47l1.1-4.18c-2.2.66-4.4,1.33-6.6,1.99s-3.89,1.38-4.99,3.46c-1.82,3.43-2.84,7.25-4.09,10.91-.61,1.76-1.26,3.5-2.12,5.15-.91,1.76-2.09,3.32-3.27,4.91s-2.12,3.37-2.81,5.32c-.21.59-.41,1.3-.92,1.7-.61.48-1.64.62-2.35.83-2.36.68-4.74,1.53-7.16,2.01-1.53.3-3.26.27-3.95-1.33l-1.49,3.67c2.2-.38,4.7.22,6.46,1.61l.51-3.93c-1.33.73-4.01.77-4.82-.81l.34,1.26-.02-.37-.34,1.26.1-.2-.9.9-.19.05h-1.33l.2.04-1.1-.64.14.15,1.77-4.27c-3.94.06-7.84.77-11.51,2.19-1.45.56-2.42,2.19-1.49,3.67,1.29,2.07,2.16,4.25,2.67,6.63v-1.33c.37-1.23.87-.27,1.08-.68,0-.01-.55-1.26-.57-1.3-.48-1.51-.86-3.07-1.06-4.64l-3.16,2.41c2.19.3,3.78,1.66,4.23,3.85l3.08-3.08c-2.71-.5-5.16-1.47-7.46-2.97l1.15,2.82.52-1.53-3.67,1.49c1.8.78,3.6,1.56,5.4,2.35l.6-4.57c-4.74.83-10.14,1.83-14.73-.16v4.32c1.73-1.22,3.65-1.56,5.68-.92l-.6-4.57c-4.71,2.61-10.5,2.13-14.86-.96l.51,3.93c3.47-3.39,8.54-4.81,13.26-3.66l.66-4.91c-5.81-.07-11.69-.1-17.44-1.05-2.98-.49-10.69-1.75-9.02-6.5l-3.08,1.75c6.65.95,12.83,3.84,17.7,8.49l1.77-4.27c-3.8,0-7.52-.49-11.19-1.49v4.82c2.93-1,6.12-.99,8.95.34v-4.32c-4.7,2.95-11.6,1.49-14.53-3.43l-2.82,3.67c7.93,1.53,15.71,3.7,23.28,6.5,1.15.43,2.52-.38,2.95-1.45.48-1.2.03-2.4-1.02-3.12-4.87-3.34-9.42-7.09-13.65-11.21-2.32-2.26-5.67,1.15-3.54,3.54,2.82,3.15,5.72,6.23,8.7,9.23,1.46,1.47,2.94,2.93,4.44,4.36s3.18,2.7,5.36,2.63c1.67-.06,2.78-1.55,2.41-3.16-.58-2.55-1.3-5.07-2.18-7.53-.76-2.12-1.6-4.7-4.06-5.32-2.6-.65-4.56,1.65-5.96,3.48s-2.53,4.07-3.22,6.38c-.38,1.27.45,2.76,1.75,3.08,4.23,1.02,8.46,2.05,12.69,3.07v-4.82c-7.5,1.89-15.25,3.77-22.9,1.62-6.84-1.92-12.89-5.88-19.57-8.23l-1.33,4.82c10.59,1.46,21.15,3.16,31.67,5.1l-.6-4.57c-2.29,1.45-4.83,2.94-7.59,3.14-2.17.16-4.26-.43-6.19-1.42-4.4-2.25-8.04-5.73-12.47-7.93v4.32c1.16-.51,2.77.12,3.87.48,1.76.57,3.51,1.18,5.26,1.78s3.42,1.16,5.13,1.74c.93.32,1.87.63,2.8.95.32.11.65.25.98.33.77.18-.03.74.22-.89l1.75-1.75c-3.49.66-7,1.25-10.51,1.75-2.97.42-6.31,1.14-9.29.49-2.77-.61-4.43-2.65-5.85-4.96-1.77-2.87-3.29-5.9-4.54-9.03l-3.08,3.08c6.53,2.02,12.71,4.89,18.48,8.54l-1.15-1.49c-.14-.56.16-.34-.36-.1-.43.2-.83.52-1.23.77-1.2.74-2.4,1.48-3.61,2.23-.77.47-1.92,1.5-2.87,1.54-.74.03-1.28-.8-1.73-1.32-3.27-3.72-6.14-7.78-8.69-12.03v2.52c-.09.16-.44,0,.07,0,.46.01.86.01,1.29.08,1.58.26,3.16.61,4.72.94.31.06.61.13.91.22.14.04.59.35.33.11-.21-.21.07.14.07.23,0,.05.03.26.03.36-.03,1.09-1.24,2.13-1.93,2.85l2.43-.64c-4.36-1.14-5.35-6.43-6.17-10.19l-3.08,3.08c4.87,1.12,9.31,3.43,12.96,6.86l.51-3.93c-1.6.97-3.19,1.96-4.81,2.9l-.34.2c-.41.17-.47.22-.19.16.02.01.05-.03.03-.04-.42-.29-.69-1.02-.91-1.45-1.61-3.18-2.67-6.6-3.34-10.09l-2.41,3.16c4,.41,7.98,1.55,11.58,3.34.41.2.92.61,1.37.71.72.52.73-.02.03-1.62-.05.09-.12.15-.22.18-.97.4-1.92,1-2.87,1.47-2.11,1.05-4.21,2.11-6.32,3.16l3.67,1.49c-1.63-5.16-2.03-10.61-1.02-15.94l-2.41,1.84c6.06.3,12.11,1.63,17.7,4.02l-1.15-1.49c.21.57,1.01,2.25.56,2.79-.16.19-.73.2-.96.25-.84.18-1.7.31-2.55.44-3.43.53-6.89.79-10.36.85l2.41,1.84c-.39-1.46,1.25-3.05,2.09-4.08,1.33-1.64,2.66-3.28,4-4.92s2.66-3.28,4-4.92c.98-1.21,2.04-2.87,3.51-3.54s3.42.49,4.78,1.15c1.85.89,3.69,1.81,5.51,2.76,3.79,1.96,7.52,4.04,11.2,6.21l-.51-3.93c-1.78,2.16-4.07,3.61-6.52,4.91-2.18,1.16-4.9,3-7.49,2.55-1.31-.22-2.5-.91-3.65-1.55-1.37-.76-2.73-1.55-4.07-2.37-2.81-1.72-5.55-3.55-8.21-5.49l-.6,4.57c4.37-1.78,8.99-3.05,13.69-3.57,2.14-.24,4.49-.54,6.63-.28.73.09,1.42.3,1.92.85.08.09.2.42.18.33.02.1-.14.32-.13.31-.82.93-2.6,1.27-3.92,1.51-2.51.47-5.02.92-7.53,1.38s-5.18.95-7.77,1.43c-2.3.42-4.68,1.09-7.01,1.21-1.84.1-2.79-.62-3.45-2.27-.62-1.55-.78-3.4-.86-5.11l-1.84,2.41c4.63-.81,9.42-1.26,14.13-1.07,1.57.07,3.52.25,4.68,1.44.4.42.68.96.77,1.54.05.34.03.73-.19.98l1.77-.73c-8.6.97-17.28.94-25.88-.08l2.5,2.5c.03-4.11,3.7-5.92,7.36-6.02,4.65-.12,9.12,1.65,13.78,1.69l-2.5-2.5c-.08.65-1.17,1.11-1.69,1.27-1.3.39-2.71.34-4.06.38-1.58.05-3.15.11-4.73.16-1.44.05-3.14.36-4.57.11-.98-.17-1.25-1.26-1.64-2.08-.34-.7-.68-1.4-1.02-2.11-.16-.34-.68-1.95-1.02-2.11-.26-.12-.39.54-.32.58,0,0,.79-.52.75-.5.54-.32,1.09-.59,1.68-.8,1.27-.44,2.52-.63,3.86-.61l-2.16-1.24c.71,1.37,1.38,2.76,1.97,4.19.32.78.62,1.56.91,2.35.21.57.64,1.38.65,1.99,0,.93-1.37,1.81-2.06,2.31-.74.53-1.7,1.3-2.46.52-1.05-1.07-1.88-2.47-2.77-3.67s-2.12-2.44-2.71-3.8c-.41-.95.82-2.8,1.26-3.79.74-1.67,1.49-3.34,2.23-5.02l-2.82,1.15c3.49.9,5.07,4.49,5.14,7.84.02,1.23.02,4.39-.86,4.93-.73.44-2.05.51-2.9.6-1.23.13-2.46.11-3.69.02l2.41,1.84c-1.23-4.01-2.69-8.37-1.94-12.62.71-4,3.25-7.44,5.54-10.69,1.27-1.8,4.97-6.09,7.13-3.01,1.82,2.58.69,6.94-.37,9.57-.66,1.63-1.59,3.23-2.73,4.57-.96,1.14-2.26,2.62-3.85,2.81-1.38.17-2.57-.94-3.18-2.09-.92-1.74-.83-3.9-.63-5.8.39-3.53,1.86-6.79,4.75-8.95,1.3-.97,2.77-1.68,4.33-2.08.87-.22,2.93-.86,3.46.02.83,1.38.28,3.86-.15,5.27-.56,1.83-1.58,3.52-2.88,4.91s-3.04,2.8-5.03,3.13c-1.38.23-3.02-.16-3.81-1.38l.25,1.93c1.56-6.41,6.47-12.71,13.17-14.19,1.39-.31,3.02-.26,4.08.8.93.93,1.27,2.34,1.21,3.63-.17,3.47-3.18,6.78-5.77,8.82-3.1,2.44-7.4,3.64-10.94,1.4l1.24,2.16c.38-5.19,2.96-10.03,6.92-13.37,1.74-1.47,4.24-2.95,6.62-2.5,2.22.43,3.58,2.64,4.41,4.56.42.97,1.03,2.28.84,3.36-.22,1.2-1.38,2.29-2.18,3.14-1.72,1.86-3.74,3.59-6.24,4.23-1.74.45-3.82.16-5.26-.99-1.71-1.37-1.62-3.62-.69-5.47,2.25-4.47,7.61-7.3,12.51-7.38,3.89-.06,9.57,2.11,9.62,6.76.03,2.42-1.69,4.44-3.39,5.97-1.86,1.68-4.12,3.03-6.54,3.72-2.11.6-4.54.68-6.38-.7-1.95-1.46-2.77-4-2.69-6.35.16-4.87,3.97-10.31,8.68-11.79,2.38-.75,4.52-.24,6.56,1.13s4.15,3.53,5.52,5.69c1.22,1.93,1.88,4.08,1.36,6.34-.46,1.97-1.57,3.81-3.2,5.03-3.37,2.51-8.27,1.42-10.82-1.78-3.09-3.88-1.32-9.72,1.88-12.94,1.64-1.65,3.96-2.99,6.37-2.61,2.02.32,3.74,1.79,4.89,3.41,2.8,3.95,3.53,9.41,2,13.99-.71,2.12-2.2,4.57-4.39,5.38s-4.01-1.53-4.58-3.41c-.81-2.69-.73-5.79-.31-8.55s1.17-5.6,2.68-7.95c.96-1.5,2.71-3.35,4.64-2.67,2.09.74,3.38,3.43,4.18,5.32,1.02,2.42,1.53,5.05,1.55,7.67,0,1.27-.08,2.54-.32,3.78s-.51,2.78-1.19,3.87c-1.27,2.02-2.97-2.65-3.21-3.44-.94-3.02-1.45-6.14-1.49-9.3-.02-1.46.05-2.92.22-4.36.08-.68.13-2.14.76-2.52,2.75-1.66.24-5.98-2.52-4.32h0Z"/>
          <path class="cls-7" d="M51.88,66.83c-1.87,4.27-3.39,9.27.26,13.1,1.33,1.4,3.64.65,4.18-1.1,1.03-3.38,1.01-7.15-.22-10.47-.63-1.7-1.5-3.83-3.16-4.78-1.83-1.04-3.91-.41-5.14,1.21-2.03,2.7-2.63,6.92-2.62,10.2.01,3.7.97,7.32,2.72,10.58.93,1.73,3.34,1.51,4.32,0,1.69-2.59-.07-6.13-2.98-6.78-3.31-.74-5.96,1.9-6.96,4.78s-1.22,6.33-1.13,9.35c.07,2.58.55,5.34,1.99,7.53,1.6,2.43,4.61,4.44,7.61,3.45s4.12-4.64,3.09-7.44c-.97-2.62-3.37-5.45-5.78-6.86s-5.85-1.36-7.76.93c-2.31,2.78-.96,7.01,1,9.6,2.15,2.84,5.95,4.47,9.42,3.13,1.31-.51,2.07-1.64,1.75-3.08-.8-3.53-5.39-4.06-8.37-4.01-3.3.06-7.26,1-9.77,3.26-1.33,1.19-1.96,2.96-1.38,4.69s2.14,2.63,3.77,2.98c3.43.73,7.32-.43,10.34-2.02,1.05-.55,1.34-1.75,1.15-2.82-.26-1.5-1.4-2.67-2.76-3.26-1.64-.71-3.39-.42-5.06.03-2.96.81-5.99,2.13-7.12,5.24-.58,1.59-.46,3.18.89,4.3,1.05.87,2.32,1.52,3.67,1.78,2.87.54,5.7-.17,7.87-2.16,1.6-1.47.35-4.3-1.77-4.27-4.78.06-8.53,3.79-9,8.46-.12,1.17.88,2.03,1.84,2.41,3.02,1.2,6.56-.86,7.34-3.92.42-1.67-.78-3.04-2.41-3.16-2.39-.19-4.85.42-6.9,1.66s-4.6,3.51-4.56,5.99c.05,3.45,4.09,3.57,6.4,2.41s3.68-3.49,3.89-6.03c.12-1.43-1.25-2.38-2.5-2.5-3.55-.33-7.02,1.6-8.8,4.65-.66,1.12-.3,2.8.9,3.42,2.79,1.45,6.09,1.03,8.36-1.18,1.47-1.43.44-4.44-1.77-4.27-1.61.13-3.08.53-4.47,1.37s-1.6,2.74-.51,3.93c2.01,2.18,5.09,1.91,7.73,1.34s5.36-1.66,7.72-3.1,5.15-3.31,6.01-5.93c.96-2.92-1.66-6.5-4.86-5.4-2.73.94-2.15,4.66.66,4.91,9.06.79,17.35-3.59,25.25-7.39.98-.47,1.96-.96,2.96-1.39.7-.31,1.57-.73,2.36-.68.71.05,1.18.63,1.7,1.06.83.69,1.67,1.29,2.72,1.59,1.3.36,2.53.03,3.81-.23.14-.03.69-.17.72-.03-.19-.43-.39-.56-.6-.4.03.19.06.38.09.57.39,2.46.77,4.92,1.15,7.38l3.67-2.82c-2.57-1.79-6.02-2.24-8.95-1.13-1.58.6-2.25,2.12-1.49,3.67s1.35,3.2,2.24,4.61c1.12,1.76,3.63,1.46,5.19.51,3.35-2.04,3.15-6.03,2.38-9.37l-4.18,2.43c2.86,2.35,6.25,4.31,9.92,2.52,2.25-1.1,1.14-4.73-1.26-4.66l-7,.22c-2.77.09-3.46,4.17-.66,4.91,4.48,1.19,9.35,1.87,13.15-1.35,1.5-1.27.57-3.67-1.1-4.18l-6.41-1.93c-3.09-.93-4.41,3.89-1.33,4.82l6.41,1.93-1.1-4.18c-2.17,1.84-5.87.71-8.28.06l-.66,4.91,7-.22-1.26-4.66c-1.16.56-3.06-1.09-3.86-1.74-1.89-1.56-4.77-.13-4.18,2.43.2.85,1.06,3.95-.58,3.77l2.16,1.24c-.75-1.54-1.5-3.08-2.24-4.61l-1.49,3.67c1.82-.69,3.49-.49,5.09.63.8.56,2.06.38,2.78-.2.85-.67,1.06-1.59.9-2.63-.32-2.06-.64-4.12-.97-6.19-.3-1.93-.63-3.7-2.59-4.6-.74-.34-1.55-.47-2.36-.45s-2.03.65-2.79.47c-.42-.1-.83-.61-1.15-.88-.74-.63-1.49-1.19-2.4-1.54-3.65-1.38-7.6,1.18-10.79,2.73s-6.59,3.24-10.04,4.48c-3.85,1.38-7.79,2.2-11.9,1.84l.66,4.91c-1.18.4-.78-.53-1.22-.81.07-.25.05-.26-.06-.04-.04.1-.11.18-.19.26-.5.61-1.19,1.15-1.81,1.62-1.21.92-2.54,1.7-3.91,2.34s-2.84,1.1-4.32,1.41c-.8.17-2.25.61-2.87-.06l-.51,3.93c.62-.37,1.22-.63,1.95-.68l-1.77-4.27c-.62.61-1.52.8-2.3.4l.9,3.42c.96-1.64,2.63-2.34,4.49-2.17l-2.5-2.5c-.04.53-.39,1.02-.8,1.35-.15.12-.33.18-.49.31-.43.35-.38-.03-.1.18l.9.9-.13-.22.34,1.26c-.2.47-.18.49.06.06l.21-.3c.17-.22.37-.42.56-.61.51-.51,1.07-.9,1.71-1.24,1.22-.65,2.53-.82,3.9-.71l-2.41-3.16c-.09.34-.09.39-.49.56.17-.08-.46.02-.19.02.24,0-.48-.15-.5-.16l1.84,2.41c.19-1.95,2.14-3.44,4-3.46l-1.77-4.27c-1.37,1.26-3.64,1.2-4.97-.06l.73,1.77c0-1.2,1.44-1.78,2.42-2.1.78-.25,1.63-.55,2.44-.67.25-.04.51,0,.73,0-.16,0-.26-.75-.12,0l1.15-2.82c-1.77.94-3.74,1.49-5.75,1.52-.22,0-1.36-.11-1.31-.14.08-.05.61,1.3.15,1.06-.05-.02.99-.64.97-.63,1.56-.83,3.35-1.3,5.11-1.38.88-.04,1.78-.02,2.65.12.48.08.94.26,1.42.35.61.12,0,.27-.1-.15l1.75-3.08c-1.67.65-3.22,0-4.23-1.46-.52-.75-.99-1.75-1.07-2.67-.02-.28.2-.8-.05-.49-.06.08.3-.16.2-.15,1.53-.08,2.67,1.37,3.72,2.61.28.33,2.01,2.55,1.13,2.9-.29.12-.98-.56-1.19-.75-.5-.47-.83-1.09-1.08-1.72-.65-1.65-.71-3.45-.67-5.2.05-2.13.15-4.61.95-6.62.11-.28.24-.62.46-.84-.1.1.69-.68.67-.41,0,0-.56-.25-.33-.61h4.32c-2.22-4.13-2.63-9.04-1.18-13.49.14-.43.29-.87.48-1.29.04-.1.23-.4.21-.44s-1.56.19-1.45-.05c-.06.11.7,1.23.81,1.46.23.52.41,1.06.55,1.61.61,2.22.52,4.47-.15,6.66l4.18-1.1c-1.81-1.9-.35-5.05.52-7.04.54-1.24.36-2.68-.9-3.42-1.06-.62-2.88-.35-3.42.9h0Z"/>
          <path class="cls-7" d="M81.87,101.86l3.68,1.56c1.24.53,2.68.37,3.42-.9s.22-2.65-.9-3.42c-4.04-2.78-8.63-4.75-13.42-5.77-1.68-.36-3.03.73-3.16,2.41-.19,2.33,1.41,4.11,3.03,5.56,1.52,1.36,3.14,2.62,4.83,3.77,3.44,2.35,7.21,4.16,11.15,5.5,1.3.44,2.7-.51,3.08-1.75.9-2.98-1.67-5.09-3.57-6.96s-4-3.84-6.07-5.69-4.01-3.55-6.09-5.23-4.5-3.28-7.37-3.15c-1.67.08-2.78,1.53-2.41,3.16.89,3.93,2.87,7.56,5.61,10.51s6.38,5.45,10.23,6.18c2.41.46,4.82.13,6.72-1.51,1.65-1.42,2.48-3.57,2.67-5.69.21-2.29-.49-4.57-1.35-6.67s-1.87-4.35-2.94-6.47c-2.12-4.17-4.59-9.57-9-11.76-1.98-.98-4.15.63-3.67,2.82,1.79,8.23,6.08,15.9,12.1,21.78,1.52,1.49,3.17,2.85,4.89,4.11s3.79,2.73,6.05,1.89c2.79-1.03,2.46-4.05,1.58-6.28s-1.79-4.24-2.9-6.26c-2.46-4.51-5.62-8.66-9.28-12.27-1.51-1.49-4.32-.43-4.27,1.77.13,5.17,3.78,9.79,6.99,13.56,1.59,1.86,3.32,3.6,5.18,5.18,2.06,1.75,4.68,3.45,7.48,2.41,1.1-.41,1.77-1.23,1.84-2.41.27-4.74-2.48-8.85-5.21-12.48-2.55-3.38-5.85-6.87-10.45-6.67-1.24.05-2.64,1.11-2.5,2.5,1.03,9.95,7.92,18.61,17.48,21.65.8.26,1.87,0,2.43-.64,3.09-3.47.41-7.24-2.15-10.01-2.77-2.98-6.48-4.79-10.44-3.05-1.33.58-1.39,2.31-.9,3.42,1.51,3.39,4.4,6.2,7.87,7.55,3.2,1.25,7.53.73,9.13-2.68,2.12-4.52-1.92-8.08-4.97-10.73-1.6-1.4-3.34-3.32-5.71-2.61-1.01.3-1.8,1.01-2.62,1.65-.92.72-1.84,1.44-2.76,2.16s-.79,2.09-.39,3.03c.92,2.16,2.21,4.45,3.94,6.07,2.01,1.88,4.76,1.32,7.22.87s4.81-1.37,6.42-3.25c1.47-1.71,2.35-4.09,1.75-6.34-.68-2.52-4.51-3.3-6.78-3.71-2.66-.48-5.25-.61-7.11,1.68-1.46,1.79-3.26,4.15-3.67,6.47-.52,3,1.88,4.7,4.55,4.97,5.42.56,11.47-.28,13.83-5.87.5-1.19-.55-2.84-1.75-3.08-6.34-1.26-13.09,2.77-14.53,9.19-.27,1.19.36,2.87,1.75,3.08,5.72.83,11.02-1.45,15.2-5.31,1.94-1.79,4.1-4.15,3.95-6.98-.07-1.29-.6-2.63-1.55-3.52-.54-.5-1.23-.92-1.94-1.08-1.09-.26-1.87.21-2.73.82-2.57,1.82-5.17,3.61-7.7,5.47-2.34,1.73-4.47,4.5-3.02,7.53,2.37,4.97,10.04,2.2,13.52.13,4.66-2.77,8.22-7.49,9.29-12.83.25-1.26-.35-2.78-1.75-3.08-4.37-.94-9.31-1.47-12.7,2.1-3.16,3.34-5.01,8.3-6.01,12.71-.5,2.21,1.7,3.79,3.67,2.82,7.93-3.89,15.91-9.66,18.35-18.61.55-2.01-1.26-3.34-3.08-3.08-3.19.46-6.69,1.14-8.98,3.62s-3.1,6.05-1.33,8.96c.8,1.3,2.83,1.74,3.93.51,2.56-2.88,5.83-5.2,7.83-8.57s2.56-7.31.7-10.77c-.79-1.47-2.78-1.55-3.93-.51-2.79,2.55-5.2,5.48-7.22,8.67-1.11,1.76.39,3.56,2.16,3.76,5.8.67,11.28-4.71,10.96-10.48-.1-1.8-2.08-3.24-3.76-2.16-1.47.95-2.94,1.89-4.41,2.84-2.7,1.74-.33,5.84,2.52,4.32,2.52-1.35,4.84-3.16,6.69-5.34s3.16-5.57.14-7.36c-.86-.51-2.35-.46-3.03.39-.88,1.1-1.74,2.42-3.09,3-1.08.46-2.34.51-3.47.28-2.82-.56-4.98-2.65-6.79-4.74l-3.03,3.93c2.01,1.46,4.02,2.91,6.03,4.37.63.45,1.4.92,1.81,1.6.5.83.51,2.06.61,3,.24,2.38.33,4.78.26,7.17-.01.44-.07.89-.05,1.33.01.23-.19.59.13.28-.55.52-2.43.46-3.14.56-2.44.35-4.88.71-7.32,1.03-.87.11-1.84.29-2.72.15-1.03-.16-1.9-.9-2.7-1.52-1.89-1.46-3.72-3-5.51-4.58-1.66-1.45-3.64-2.92-4.98-4.69s-.96-4.47-.84-6.53c.16-2.71.6-5.38,1.08-8.05l-4.57.6c2.22,5.23,4.35,10.49,6.4,15.78l4.57-1.93c-2.91-4.09-5.57-8.34-7.99-12.74-1.55-2.83-5.79-.33-4.32,2.52,2.79,5.4,5.57,10.8,8.36,16.2l4.32-2.52c-4.33-7.43-8.67-14.86-13-22.29-.68-1.17-2.26-1.58-3.42-.9-1.26.74-1.46,2.19-.9,3.42,2.06,4.5,4.12,9.01,6.18,13.51l4.32-2.52c-5.36-10.94-15.44-18.57-27.13-21.61-1.2-.31-2.49.29-2.95,1.45-.42,1.05-.13,2.61,1.02,3.12,5.34,2.4,10.68,4.81,15.87,7.52,2.89,1.51,5.13-2.47,2.52-4.32-9.04-6.4-20.03-9.83-31.1-9.82-2.87,0-3.32,4.06-.66,4.91,6.77,2.16,13.8,3.42,20.89,3.81,1.23.07,2.32-1,2.46-2.17.16-1.3-.59-2.29-1.79-2.74-7.53-2.85-15.17-5.42-22.89-7.71-2.71-.8-4.41,3.18-1.93,4.57,4.46,2.49,9.36,4.04,14.18,5.68,5.15,1.75,10.3,3.51,15.46,5.26,1.17.4,2.51-.36,2.95-1.45.5-1.25,0-2.35-1.02-3.12-2.99-2.26-5.97-4.53-8.96-6.79-2.25-1.71-5.16,2.07-3.03,3.93,5.73,5.01,11.6,9.86,17.61,14.53,1.06.83,2.5,1.04,3.54,0,.97-.97.95-2.57,0-3.54-5.35-5.45-10.71-10.91-16.06-16.36-2.27-2.31-5.67,1.15-3.54,3.54,6.08,6.8,12.16,13.59,18.24,20.39l3.03-3.93c-5.1-3.04-9.82-6.58-14.16-10.63-2-1.87-5.52.55-3.93,3.03,4.8,7.47,9.68,15,16.08,21.22,2.34,2.28,5.59-1.11,3.54-3.54-6.63-7.83-13.27-15.67-19.9-23.5-1.81-2.14-5.6.72-3.93,3.03,5.9,8.15,11.81,16.3,17.71,24.45l3.93-3.03-24.5-24.67c-1.97-1.98-5.46.59-3.93,3.03,6.31,10.06,12.62,20.11,18.93,30.17,1.7,2.72,5.94.28,4.32-2.52-5.28-9.11-10.56-18.22-15.83-27.34-1.63-2.81-5.73-.34-4.32,2.52,2.8,5.65,5.59,11.3,8.39,16.95l4.08,8.25c1.23,2.48,2.28,5.39,4.38,7.29s5.21-.48,3.93-3.03c-5.24-10.39-10.51-20.76-15.82-31.12-1.03-2-3.96-1.35-4.57.6-1.79,5.67,1.32,11.39,3.44,16.51,2.28,5.51,4.56,11.03,6.84,16.54.43,1.04,1.21,1.84,2.41,1.84,1.06,0,2.17-.77,2.41-1.84.75-3.25-1.96-5.71-3.86-8s-4.02-4.69-6.13-6.96c-1.5-1.61-4.26-.34-4.27,1.77,0,2,.3,3.99.92,5.89.45,1.38,1.68,1.98,3.08,1.75,2.7-.46,4.55-2.99,4.94-5.57.49-3.22-1.17-6.06-2.96-8.6-1.1-1.56-4.17-1.72-4.57.6-.78,4.44-1.55,8.88-2.33,13.32-.36,2.08-1.04,4.38-.43,6.47s2.44,3.55,4.58,3.52c1.22-.02,2.68-1.14,2.5-2.5-.44-3.32-1.06-6.58-1.96-9.81-.55-1.99-3.56-2.55-4.57-.6-.85,1.65-1.09,3.97.29,5.44,1.23,1.31,3.2,1.51,4.78.8,3.81-1.71,3.03-6.65-.13-8.56-1.06-.64-2.88-.33-3.42.9-1.2,2.71-2.15,5.48-2.76,8.37-.53,2.52,2.26,4.05,4.18,2.43,2.5-2.11,3.61-5.21,4.03-8.36.2-1.55.25-3.11.21-4.67-.05-1.92-.07-3.94-.93-5.7-.73-1.49-2.03-2.6-3-3.92s-1.82-2.77-2.6-4.22c-1.55-2.85-2.9-5.83-4.77-8.49-1.08-1.53-2.28-2.97-3.7-4.19s-3.19-2.35-4.29-3.95l.25,1.93c.69-2.41,3.12-3.71,5.45-4.14,3.52-.64,7.21.74,10.53,1.74,1.51.45,3.09.74,4.32,1.79,1.35,1.15,2.6,2.46,3.85,3.72,2.55,2.57,4.89,5.27,6.61,8.48,1.52,2.84,5.84.32,4.32-2.52-1.66-3.11-3.91-5.86-6.33-8.4s-4.87-5.49-8.04-6.78c-1.46-.59-3-.98-4.51-1.43-1.77-.53-3.56-1.05-5.39-1.36-3.41-.57-6.76-.44-9.92,1.06-2.61,1.23-5.07,3.62-5.72,6.53-.41,1.85,1.26,3.41,2.5,4.54s2.54,2.02,3.7,3.15c4.34,4.23,5.96,10.44,9.52,15.24.91,1.23,2.52,2.48,2.93,3.98s.25,3.3.22,4.78c-.06,2.84-.5,5.76-2.78,7.69l4.18,2.43c.52-2.46,1.24-4.88,2.26-7.18l-3.42.9c.52.32.09.26.33.13.42-.23.41-.86,1.09-.22l.64,1.1c-.04-.09-.22-.35-.15-.49l-4.57-.6c.77,2.78,1.4,5.61,1.78,8.48l2.5-2.5c.56,0,.05.34.18-.02.18-.49.1-1.4.19-1.95.29-1.7.59-3.39.89-5.09.58-3.31,1.16-6.62,1.73-9.93l-4.57.6c.97,1.37,2.3,3,2.39,4.76.06,1.06-.43,1.9-1.38,2.06l3.08,1.75c-.5-1.51-.75-2.97-.74-4.56l-4.27,1.77c1.67,1.8,3.31,3.63,4.91,5.5.77.91,1.53,1.82,2.28,2.74.35.43.72.85,1.04,1.29.16.21.31.44.44.67.07.19.08.15.04-.11h4.82c-2.15-5.21-4.31-10.42-6.46-15.63-1.04-2.51-2.15-5-3.07-7.55-.85-2.35-1.51-4.76-.74-7.21l-4.57.6c5.31,10.36,10.58,20.73,15.82,31.12l3.93-3.03c-.81-.73-1.29-1.62-1.77-2.59-.69-1.37-1.36-2.76-2.05-4.13l-4.08-8.25c-2.72-5.5-5.44-11-8.17-16.5l-4.32,2.52c5.28,9.11,10.56,18.22,15.83,27.34l4.32-2.52c-6.31-10.06-12.62-20.11-18.93-30.17l-3.93,3.03c8.17,8.22,16.33,16.44,24.5,24.67,1.94,1.95,5.64-.67,3.93-3.03-5.9-8.15-11.81-16.3-17.71-24.45l-3.93,3.03c6.63,7.83,13.27,15.67,19.9,23.5l3.54-3.54c-6.1-5.94-10.72-13.09-15.3-20.21l-3.93,3.03c4.63,4.33,9.72,8.17,15.17,11.42,2.51,1.5,4.88-1.86,3.03-3.93-6.08-6.8-12.16-13.59-18.24-20.39l-3.54,3.54c5.35,5.45,10.71,10.91,16.06,16.36l3.54-3.54c-6.01-4.67-11.88-9.52-17.61-14.53l-3.03,3.93c2.99,2.26,5.97,4.53,8.96,6.79l1.93-4.57c-5-1.7-9.99-3.4-14.99-5.1-4.57-1.56-9.22-2.97-13.46-5.33l-1.93,4.57c7.72,2.28,15.36,4.85,22.89,7.71l.66-4.91c-6.66-.36-13.21-1.6-19.56-3.63l-.66,4.91c10.25,0,20.21,3.22,28.58,9.14l2.52-4.32c-5.19-2.72-10.53-5.13-15.87-7.52l-1.93,4.57c5.19,1.35,10.05,3.51,14.25,6.91s7.53,7.58,9.89,12.4c.59,1.21,2.32,1.54,3.42.9,1.26-.74,1.46-2.19.9-3.42-2.06-4.5-4.12-9.01-6.18-13.51l-4.32,2.52c4.33,7.43,8.67,14.86,13,22.29,1.63,2.79,5.79.33,4.32-2.52-2.79-5.4-5.57-10.8-8.36-16.2l-4.32,2.52c2.41,4.4,5.08,8.65,7.99,12.74.72,1.01,1.92,1.55,3.12,1.02,1.04-.46,1.9-1.77,1.45-2.95-2.21-5.7-4.52-11.35-6.91-16.98-.83-1.94-4.21-1.42-4.57.6-.54,3.02-1.04,6.07-1.24,9.13-.18,2.78-.32,5.89.99,8.44,1.22,2.38,3.6,4.19,5.56,5.93,2.2,1.95,4.46,3.83,6.78,5.64,1.1.86,2.19,1.65,3.51,2.13,1.49.54,3.08.5,4.63.31,2.98-.36,5.95-.81,8.92-1.24,2.75-.4,5.61-.83,6.43-3.96.69-2.65.37-5.82.18-8.52-.22-3.16-.35-6.64-2.86-8.91s-5.49-4.07-8.21-6.04c-1-.72-2.54-.27-3.23.64-.78,1.04-.64,2.32.2,3.28,2.59,2.98,5.88,5.6,9.9,6.18,1.97.28,3.94.12,5.79-.66,2.05-.86,3.39-2.36,4.74-4.06l-3.03.39c-.31-.34-.54-.72-.69-1.15h0c.11-.04-.58.79-.47.66-.54.64-1.13,1.25-1.74,1.82-1.19,1.1-2.52,1.98-3.94,2.74l2.52,4.32c1.47-.95,2.94-1.89,4.41-2.84l-3.76-2.16c.19,3.29-2.74,5.85-5.96,5.48l2.16,3.76c1.8-2.85,3.95-5.39,6.43-7.66l-3.93-.51c1.17,2.18.02,4.86-1.34,6.68-1.83,2.46-4.38,4.31-6.41,6.6l3.93.51c-.72-1.18.08-2.66,1.13-3.44,1.72-1.28,4.14-1.5,6.19-1.8l-3.08-3.08c-2.09,7.66-9.33,12.32-16.05,15.62l3.67,2.82c.78-3.48,2.09-7.09,4.26-9.96,2.03-2.68,5.42-1.97,8.29-1.35l-1.75-3.08c-.99,4.95-4.59,9.31-9.4,11-1.14.4-2.4.78-3.62.77-.03,0-.78-.03-.72-.09.16-.16.28.42.29.42-.26.03.69-1.02.6-.93,1.21-1.13,2.74-2.01,4.09-2.97,1.6-1.14,3.21-2.28,4.81-3.42l-1.93.25c-.58-.19.05-.34-.18.18-.27.61-.59,1.11-1.05,1.61-1.04,1.15-2.2,2.21-3.49,3.08-2.39,1.61-5.34,2.81-8.28,2.38l1.75,3.08c.82-3.64,4.62-6.45,8.38-5.7l-1.75-3.08c-.61,1.46-2.62,2.08-4.03,2.27-1.03.14-2.1.09-3.13.05-.5-.02-1.18-.19-1.67-.1-.07-.09-.18-.12-.33-.09.39-.06.55.29.49,1.06.2-.17.47-1,.62-1.26.3-.52.61-1.03.94-1.53.25-.37.5-.75.77-1.1.07-.1.52-.66.32-.55.64-.36,2.54.27,3.19.44,1.06.27,2.08.63,3.06,1.1l-1.15-1.49c.76,2.57-3.03,3.51-4.78,3.82-.65.11-1.43.31-2.1.27-.34-.02.18.44-.3-.14-.19-.23-.39-.44-.57-.68-.97-1.25-1.72-2.67-2.34-4.12l-.39,3.03c.98-.77,2.28-1.5,3.11-2.43.78-.87-.49.34-.57-.07.02.12.71.62.74.65.55.48,1.1.96,1.64,1.43.87.76,4.09,3.15,2.96,4.45-.05.06-.3.17-.58.23-.23.04-.68.07-1.06.02-.76-.09-1.52-.42-2.21-.83-1.94-1.13-3.3-2.83-4.2-4.86l-.9,3.42c1.46-.64,3.22,1.05,4.1,1.97.26.27,2.82,2.81,2.44,3.24l2.43-.64c-7.29-2.32-13.02-9.18-13.81-16.83l-2.5,2.5c2.92-.13,5.01,2.66,6.57,4.79,2.02,2.75,4.28,5.77,4.08,9.35l1.84-2.41c-1.38.51-2.99-1.43-3.91-2.27-1.48-1.36-2.87-2.82-4.17-4.37s-2.38-3.07-3.4-4.72c-.94-1.53-1.81-3.14-1.85-4.98l-4.27,1.77c2.57,2.54,4.86,5.33,6.8,8.38,1.01,1.58,1.92,3.22,2.75,4.91.36.74.71,1.49,1.03,2.25.16.38.31.77.46,1.16.07.19.15.39.22.59.28.82-.01.93.94,0,.9-.89.95-.55.27-.94-.38-.22-.74-.48-1.09-.73-.61-.43-1.22-.86-1.8-1.33-1.34-1.08-2.62-2.25-3.81-3.5-2.29-2.39-4.25-5.06-5.87-7.96-1.87-3.35-3.19-6.92-4.01-10.67l-3.67,2.82c1.74.87,2.83,2.36,3.84,3.98,1.3,2.07,2.48,4.22,3.57,6.4s2.1,4.26,2.85,6.5c.54,1.63,1.08,3.81-.11,5.31-1.07,1.35-2.99.74-4.34.19-1.73-.7-3.38-1.78-4.76-3.02-2.85-2.56-4.8-5.86-5.64-9.6l-2.41,3.16c1.8-.08,3.21,1.17,4.53,2.26,1.71,1.42,3.39,2.87,5.05,4.34s3.29,2.99,4.89,4.52c.8.77,1.6,1.54,2.38,2.33.34.33.68.66,1.01,1.01.14.13.26.27.38.42.13.17.14.11.05-.17l3.08-1.75c-3.14-1.07-6.11-2.51-8.9-4.3-1.36-.87-2.67-1.82-3.91-2.86-.74-.62-2.61-1.77-2.53-2.85l-3.16,2.41c4.43.94,8.5,2.7,12.23,5.27l2.52-4.32-3.68-1.56c-1.24-.53-2.68-.37-3.42.9-.61,1.05-.35,2.89.9,3.42h0Z"/>
          <path class="cls-7" d="M59.75,22.82c.16.02.56-.06.71-.09.54-.13.98-.48,1.31-.91.2-.25.36-.54.45-.85.04-.13,0,.08.05-.35.05-.39.08-.63-.05-1.06-.21-.63-.6-1.25-1.2-1.58-.16-.09-.46-.22-.64-.27-.06-.02-.62-.09-.68-.09-.12,0-.23.02-.35.05-.33.02-.64.11-.93.3-.18.11-.42.28-.57.43-.09.09-.34.42-.4.52s-.23.5-.26.62c0,.03-.02.06-.02.09-.03.12-.09.57-.09.69.01.25.04.55.11.79.08.31.24.61.37.9.06.13.12.27.19.39.34.65.81,1.26,1.3,1.81.19.21.39.4.61.58.02.02.05.04.07.06l.25.2c.16.15.34.26.55.32l.3.13c.33.1.66.12,1,.04.3-.04.23-.02.37-.06.46-.14.92-.41,1.25-.76.15-.17.32-.37.43-.57s.22-.45.28-.67c.06-.24.1-.53.1-.77,0-.05,0-.1,0-.16-.05-.67-.19-1.19-.51-1.78-.29-.55-.65-1.07-1.02-1.56-.56-.75-1.15-1.64-1.99-2.11-.2-.11-.48-.24-.7-.3-.04-.01-.07-.02-.11-.02-.15-.03-.54-.09-.69-.09-.65.01-1.23.21-1.75.6-.32.25-.6.53-.8.9-.27.52-.34.91-.4,1.49-.05.49.05,1.02.13,1.49.07.41.21.77.37,1.15.36.84.85,1.63,1.55,2.24.31.31.68.52,1.1.64.44.12.89.12,1.33,0,.42-.12.79-.33,1.1-.64.31-.31.52-.68.64-1.1.14-.36.18-.77.19-1.15,0-.19-.03-.38-.06-.57-.03-.2-.04-.4-.1-.59-.11-.35-.25-.71-.46-1.02-.37-.53-.7-.85-1.23-1.22-.29-.18-.6-.28-.93-.3-.33-.07-.66-.06-1,.04-.58.16-1.21.61-1.49,1.15-.31.58-.46,1.28-.25,1.93l.25.6c.22.38.52.67.9.9.03.02.06.04.08.06l-.51-.39c.08.07.15.14.22.22l-.39-.51c.07.1.14.2.19.31l-.25-.6c.05.13.09.26.11.4l-.09-.66c.01.12.02.24,0,.36l.09-.66c-.02.12-.05.24-.09.35l4.18-1.1c-.19-.16-.35-.34-.51-.53l.39.51c-.21-.28-.39-.58-.53-.9l.25.6c-.13-.32-.22-.66-.27-1.01l.09.66c-.03-.23-.05-.47-.01-.7l-.09.66c.01-.07.03-.14.06-.2l-.25.6s.05-.09.08-.13l-.39.51s.05-.05.07-.07l-.51.39.04-.03-.6.25s.07-.03.11-.04l-.66.09s.07,0,.11,0l-.66-.09c.06,0,.11.02.16.04l-.6-.25c.07.04.14.08.21.13l-.51-.39c.29.24.52.56.75.86l-.39-.51c.25.32.48.65.71.99.2.31.42.63.57.97l-.25-.6c.04.11.07.21.09.32l-.09-.66c0,.08.01.15,0,.23l.09-.66c0,.06-.02.11-.04.16l.25-.6s-.02.05-.04.07l.39-.51s-.05.06-.08.08l.51-.39s-.05.03-.07.04l.6-.25h-.04c.81.23,1.62.44,2.43.66-.37-.3-.71-.64-1.01-1.02l.39.51c-.33-.43-.61-.9-.82-1.4l.25.6c-.04-.09-.07-.17-.09-.27l.09.66s0-.07,0-.1l-.09.66s0-.06.02-.09l-.25.6.03-.04-.39.51.04-.03-.51.39h.03c-.42.1-.84.22-1.26.33h.03c-.22-.03-.44-.06-.66-.09h.02c-.2-.08-.4-.16-.6-.25h.02c-.17-.12-.34-.25-.51-.38l.02.02-.39-.51s.02.03.03.05l-.25-.6s.01.03.01.05l-.09-.66v.02c.03-.22.06-.44.09-.66v.02c.21-.37.42-.74.64-1.1h-.01c.37-.2.74-.42,1.1-.63h-.02c.22-.02.44-.05.66-.08h-.03c-.34-.02-.67.06-.96.21-.31.1-.58.27-.8.52-.43.43-.76,1.15-.73,1.77s.24,1.32.73,1.77l.51.39c.39.23.81.34,1.26.34h0Z"/>
          <path class="cls-7" d="M52.38,9.65c.14.92.37,1.82.69,2.69.08.33.23.61.45.85.18.27.41.49.7.64.29.18.6.28.93.3.33.07.66.06,1-.04.6-.2,1.19-.57,1.49-1.15l.25-.6c.12-.44.12-.89,0-1.33-.32-.87-.55-1.77-.69-2.69-.08-.33-.23-.61-.45-.85-.18-.27-.41-.49-.7-.64-.29-.18-.6-.28-.93-.3-.33-.07-.66-.06-1,.04-.6.2-1.19.57-1.49,1.15l-.25.6c-.12.44-.12.89,0,1.33h0Z"/>
          <path class="cls-7" d="M22.04,78.43c-2.28,1.5-3.69,3.96-3.77,6.7l3.16-2.41c-.17-.03-.34-.07-.5-.14l.6.25c-.19-.08-.36-.19-.52-.31l.51.39c-.16-.13-.3-.28-.42-.44l.39.51c-.12-.17-.22-.34-.3-.53l.25.6c-.06-.16-.11-.33-.14-.5l.09.66c-.02-.18-.02-.35,0-.52l-.09.66c.09-.65.38-1.27.6-1.88.23-.65.47-1.3.7-1.96.21-.58.05-1.41-.25-1.93s-.9-1.01-1.49-1.15c-.64-.15-1.36-.11-1.93.25s-.92.85-1.15,1.49c-.28.77-.55,1.54-.83,2.3-.3.83-.64,1.69-.57,2.59.1,1.19.52,2.17,1.29,3.07.59.68,1.55,1.25,2.44,1.4.82.13,1.51.07,2.18-.45.63-.49.96-1.16.99-1.96,0-.19.02-.38.04-.57l-.09.66c.07-.5.2-.99.4-1.46l-.25.6c.19-.44.43-.85.71-1.23l-.39.51c.29-.38.62-.71.99-1.01l-.51.39c.13-.1.25-.19.39-.28.54-.36.97-.85,1.15-1.49.16-.6.09-1.4-.25-1.93s-.86-1-1.49-1.15-1.36-.12-1.93.25h0Z"/>
          <path class="cls-2" d="M39.65,63.95c-1.83-.01-3.57,1.37-3.92,3.18-.33,1.7.3,3.5,1.6,4.65,2.08,1.84,5.15,2.15,7.58.8,1.31-.73,2.29-1.96,2.79-3.36.54-1.54.23-3.25-.59-4.63-1.3-2.18-3.7-4.14-6.24-4.56-1.54-.25-2.98-.08-4.38.65-1.08.56-2.06,1.53-2.59,2.63-.72,1.53-.7,3.12-.05,4.67.52,1.23,1.34,2.34,2.18,3.37s1.91,1.82,3.16,2.31c1.47.58,3.1.36,4.5-.3,1.24-.58,2.19-1.59,3-2.67.92-1.22,1.63-2.63,1.42-4.2-.39-2.92-2.94-5.18-5.6-6.13s-5.52-.26-7.46,1.66-2.58,5.06-1.22,7.59c1.27,2.38,3.92,3.68,6.5,3.95,2.77.29,5.83-.92,7.17-3.48,1.46-2.8.49-6.08-1.9-8.04-1.18-.97-2.5-1.65-3.92-2.22s-2.93-.75-4.35-.31c-2.74.85-4.56,3.39-4.77,6.2-.42,5.53,5.93,11.13,11.25,8.42,2.2-1.12,3.38-3.71,3.41-6.1.03-2.68-1.45-5.04-3.56-6.6-.91-.67-2.01-1.15-3.12-1.35-1.28-.24-2.76.35-3.08,1.75-.28,1.23.37,2.82,1.75,3.08.35.06.7.24,1.04.28-.42-.06-.38-.18-.17-.07.09.05.18.09.28.14.18.1.36.2.53.32.06.04.13.09.19.13.27.18-.37-.33-.14-.1.13.13.27.24.4.37s.24.27.36.4c.18.2-.16-.2-.16-.2.04.1.15.22.21.32.1.15.18.31.26.47.2.37-.17-.49.02.04.05.15.1.31.14.47.02.09.04.18.06.27.1.42,0-.49-.03-.19s0,.65,0,.97c0,.26.05-.33.04-.32-.03.06-.04.2-.05.27-.04.18-.09.35-.15.53-.03.08-.08.17-.09.26,0,0,.25-.48.11-.29-.09.12-.15.28-.23.41-.03.05-.13.16-.15.22.02-.05.41-.46.14-.2-.1.09-.32.26-.38.37,0,0,.45-.29.24-.19-.08.04-.15.1-.22.14-.06.03-.12.06-.17.1-.34.21.18-.11.23-.09-.06-.03-.45.12-.55.15-.26.07.25-.04.27-.03-.09-.03-.3.01-.4.01s-.45-.06-.07.01.08.01.01,0c-.21-.05-.43-.1-.64-.17-.08-.03-.16-.06-.23-.08-.26-.09.21.08.21.09-.1-.13-.52-.28-.66-.36-.07-.04-.14-.09-.21-.14-.36-.23.06.03.1.09-.1-.14-.31-.27-.44-.39-.14-.14-.28-.28-.42-.43-.06-.06-.16-.23-.22-.26.11.06.27.38.08.09-.11-.17-.22-.33-.32-.51-.07-.13-.16-.44-.28-.53.21.18.14.4.06.12-.03-.11-.07-.21-.11-.32-.02-.08-.18-.65-.16-.66.02,0,.04.53.03.25,0-.11-.02-.22-.02-.34,0-.08.03-.59.02-.59.03,0-.13.63-.02.2.02-.07.03-.15.05-.22.03-.13.25-.71.09-.34-.17.4.09-.15.14-.24s.11-.17.16-.25c.11-.18.25-.17-.12.15.11-.09.2-.23.3-.33.07-.07.15-.13.22-.2.31-.3-.35.22-.1.08.15-.08.29-.17.44-.26.37-.21-.51.16.01.02.07-.02.14-.04.21-.05.42-.12-.2.06-.23.02,0,0,.4-.01.34-.01.44-.02-.1,0-.09-.04,0,0,1.21.25,1.3.37-.11-.15-.34-.16-.06-.02.11.05.23.1.34.16.22.11.44.21.65.33.28.15.92.4,1.09.67-.02-.04-.43-.37-.08-.06.07.06.14.12.2.18.18.16.33.34.5.51.23.24-.24-.38-.08-.09.04.08.1.15.14.22.06.1.11.2.17.3.18.3-.11.04-.05-.12-.03.07.14.51.16.58.08.28-.06-.24-.03-.24s0,.4,0,.43c.02.27.03-.25.04-.27-.04.06-.05.22-.07.3-.03.09-.09.21-.1.29,0-.02.23-.45.09-.24-.04.05-.29.45-.29.47-.03-.04.42-.46.09-.14-.07.07-.14.15-.22.22.02-.02-.24.2-.24.21-.02-.05.52-.34.12-.12-.06.04-.41.19-.43.24.04-.14.45-.15.1-.05-.11.03-.23.07-.34.11-.09.02-.17.04-.26.06-.44.1-.09.12.05.01-.2.16-1.02.02-1.26,0s-.23-.14.13.02c-.06-.03-.16-.03-.22-.04-.2-.04-.39-.09-.59-.15-.1-.03-.19-.07-.29-.1-.25-.07.25.11.24.11-.17-.1-.37-.17-.55-.27-.15-.09-.31-.18-.45-.28-.06-.04-.12-.1-.18-.13.18.1.39.32.1.06-.13-.12-.24-.25-.37-.37-.3-.3.29.43,0-.02-.08-.12-.15-.34-.25-.44.03.04.2.58.08.19-.03-.09-.06-.19-.09-.28,0-.03-.03-.25-.06-.29.04.04.04.64.04.22,0-.12.06-.7-.02-.25s.04-.15.07-.24c.02-.07.05-.14.07-.21.08-.28-.27.5-.05.13.09-.15.16-.3.26-.44.3-.45-.29.28.01-.02.12-.12.24-.25.37-.37.07-.07.34-.28.03-.04-.34.26.06-.03.11-.06.13-.08.26-.15.39-.22.36-.2-.14.08-.19.07.04,0,.26-.09.28-.1.17-.05.34-.08.51-.12.25-.06-.27.04-.27.04.09.03.3-.02.4-.02.11,0,.5.09.56.03-.04.03-.63-.12-.19-.01.08.02.16.03.24.05.18.05.36.11.54.16.22.07.18.19-.14-.07.08.06.2.1.29.14.19.1.38.21.57.33.07.04.13.1.2.14.28.18-.36-.31-.11-.09.1.09.93.76.87.87,0,0-.36-.52-.09-.12.05.08.11.15.16.23.07.1.12.23.19.32.17.22-.05-.16-.05-.17.06.08.09.27.11.35s.14.33.01.03c-.17-.41-.02.32-.01-.13.03-.18.03-.21,0-.08-.06.18-.02.11.1-.2-.1.1-.17.33-.24.45-.11.19-.23.38-.36.56-.05.07-.1.13-.15.2-.19.28.31-.36.08-.11-.15.16-.29.34-.45.49-.06.06-.38.41-.42.39-.01,0,.52-.35.12-.09-.07.04-.13.09-.2.13-.16.1-.34.16-.49.26.43-.28.35-.13.16-.09-.08.02-.23.03-.3.08.35-.2.47-.02.2-.03-.06,0-.29-.02-.32,0,.01,0,.53.11.28.04-.1-.03-.2-.04-.3-.07-.07-.02-.15-.06-.22-.07.39.04.4.19.18.07-.07-.04-.49-.34-.52-.32.03-.02.47.41.14.1-.06-.05-.12-.11-.18-.16-.14-.13-.27-.26-.39-.4s-.25-.29-.37-.43c-.22-.25.28.39.09.12-.08-.11-.16-.22-.24-.33-.23-.33-.45-.66-.66-1-.11-.18-.19-.37-.31-.55-.14-.23.08.16.07.19.02-.06-.12-.34-.14-.42-.02-.09-.11-.47-.04-.1.06.33,0,.09.02.01s.02-.22.01-.29c0,.05-.13.5-.03.32.04-.07.07-.19.08-.27.04-.23-.1.26-.12.27.1-.1.23-.36.3-.49-.28.5-.25.3-.11.17.07-.06.14-.14.21-.2.29-.29-.47.31.02-.01.1-.06.41-.16.45-.25,0,.01-.5.18-.25.11.12-.03.23-.08.35-.11.08-.02.22-.03.29-.06,0,0-.56.04-.3.04.18,0,.37,0,.56,0,.44,0-.1,0-.17-.03.06.03.17.03.24.05.16.04.56.23.72.21,0,0-.45-.22-.21-.09.1.05.2.1.3.15.17.09.35.19.51.3.08.05.61.43.3.2-.27-.2-.04-.03.01.02.11.09.22.19.32.28.29.27.55.57.82.87.22.25-.25-.38-.08-.1.04.07.1.14.14.21.06.1.12.19.18.29.04.08.29.51.09.16s.03.28.06.34c-.03-.05,0-.48-.05-.25-.02.09-.03.47.02.07.06-.49-.06.31-.11.3-.05,0,.31-.56.04-.15-.03.05-.18.23-.17.28,0-.06.4-.43.08-.12-.06.06-.11.12-.17.18-.08.07-.36.3-.04.06.3-.23.09-.07.02-.03-.14.09-.29.16-.44.25-.27.15.5-.17.2-.09-.12.03-.23.08-.34.11-.1.03-.69.14-.23.06.43-.07-.11-.01-.24-.01-.07,0-.14,0-.21,0-.32,0,.55.11.24.04-.19-.04-.37-.08-.55-.13-.55-.16.35.22,0,0-.09-.05-.54-.38-.22-.11s-.1-.11-.17-.18c-.36-.35.09.1.07.1-.07,0-.27-.57-.12-.16.12.33.02.04,0-.02-.04-.16-.05-.44,0,.16,0-.07.01-.39-.02,0-.05.54.12-.32-.04.19-.1.31-.04.13.02.04-.13.22-.27.35-.48.48.2-.12.25-.06-.21.06-.04.01-.65.04-.23.04,1.31,0,2.56-1.16,2.5-2.5s-1.1-2.49-2.5-2.5h0Z"/>
          <path class="cls-2" d="M21.12,66.21c-1.43.03-2.8.85-3.42,2.15-.73,1.53-.59,3.28.63,4.53,1.03,1.05,2.55,1.39,3.96,1.48,1.12.07,2.31-.12,3.36-.53,1.62-.64,3.47-1.69,3.43-3.7-.02-.88-.46-1.65-.89-2.39-.27-.47-.56-.92-.87-1.36-.77-1.1-1.57-2.13-2.69-2.89s-2.7-1.02-4.02-.61-2.43,1.27-3.1,2.44-.85,2.68-.5,4.03c.29,1.15.99,2.27,1.9,3.03,1.17.97,2.51,1.45,4.02,1.56,2.5.18,5.78-1.17,6.25-3.91.26-1.51-.23-3.06-.98-4.38-.61-1.07-1.54-2.08-2.65-2.65-1.39-.71-3.07-1-4.57-.44s-2.86,1.85-3.23,3.5c-.76,3.38,2.19,6.01,5.21,6.78,1.27.32,2.77-.41,3.08-1.75s-.39-2.73-1.75-3.08c-.32-.08-.62-.18-.92-.31l.6.25c-.45-.2-.87-.44-1.26-.74l.51.39c-.31-.24-.59-.51-.83-.81l.39.51c-.13-.19-.25-.38-.34-.59l.25.6c-.07-.18-.12-.35-.15-.54l.09.66c-.02-.17-.02-.34,0-.51l-.09.66c.03-.2.08-.4.16-.59l-.25.6c.09-.19.19-.37.31-.54l-.39.51c.15-.19.32-.36.51-.52l-.51.39c.17-.12.35-.23.54-.31l-.6.25c.21-.08.42-.14.65-.18l-.66.09c.27-.03.53-.03.79,0l-.66-.09c.34.05.67.14.99.27l-.6-.25c.28.13.54.28.79.47l-.51-.39c.3.24.56.51.8.81l-.39-.51c.28.37.5.77.69,1.19l-.25-.6c.18.42.32.85.4,1.29l-.09-.66c.02.18.03.36.02.54l.09-.66c-.02.15-.05.29-.11.43l.25-.6c-.07.16-.15.3-.25.44l.39-.51c-.13.16-.28.3-.45.43l.51-.39c-.23.17-.48.3-.74.42l.6-.25c-.39.16-.8.26-1.22.32l.66-.09c-.43.06-.87.06-1.3.01l.66.09c-.39-.05-.77-.15-1.13-.29l.6.25c-.32-.14-.61-.3-.88-.51l.51.39c-.22-.18-.42-.38-.6-.6l.39.51c-.2-.26-.36-.53-.49-.82l.25.6c-.12-.3-.2-.6-.25-.91l.09.66c-.03-.25-.03-.49,0-.73l-.09.66c.04-.24.1-.47.19-.69l-.25.6c.1-.22.22-.41.36-.6l-.39.51c.15-.18.32-.35.5-.5l-.51.39c.19-.14.39-.26.6-.36l-.6.25c.22-.09.43-.15.67-.19l-.66.09c.2-.02.39-.03.59,0l-.66-.09c.22.03.42.09.62.17l-.6-.25c.25.11.47.25.69.41l-.51-.39c.43.35.79.77,1.13,1.21l-.39-.51c.69.9,1.38,1.88,1.84,2.92l-.25-.6c.03.07.05.14.06.21l-.09-.66v.11c.03-.22.06-.44.09-.66l-.02.11.25-.6c-.02.06-.05.12-.1.17l.39-.51c-.04.05-.09.1-.15.14l.51-.39c-.38.29-.79.52-1.22.71l.6-.25c-.52.22-1.05.37-1.61.45l.66-.09c-.52.06-1.03.07-1.55,0l.66.09c-.42-.06-.82-.14-1.21-.3l.6.25c-.17-.08-.32-.16-.46-.27l.51.39c-.11-.09-.21-.19-.3-.3l.39.51c-.05-.07-.09-.14-.12-.22l.25.6c-.04-.1-.07-.2-.09-.31l.09.66c-.02-.14-.01-.27,0-.41l-.09.66c.02-.14.06-.27.11-.4l-.25.6c.06-.13.13-.25.21-.36l-.39.51c.09-.11.18-.2.29-.29l-.51.39c.09-.06.18-.12.28-.17l-.6.25c.1-.04.2-.07.31-.09l-.66.09c.06,0,.11-.01.17,0,1.31-.02,2.56-1.13,2.5-2.5s-1.1-2.53-2.5-2.5h0Z"/>
          <path class="cls-2" d="M40.47,67.57c-.41.23-.83.63-1.07,1.04-.15.26-.28.55-.34.83-.19.84-.06,1.67.36,2.42.77,1.39,2.51,1.96,4,1.5,1.01-.31,1.86-.94,2.65-1.62.62-.52,1.16-1.17,1.58-1.85.58-.93.88-1.98.93-3.07.03-.62-.3-1.34-.73-1.77s-1.15-.76-1.77-.73-1.32.24-1.77.73-.7,1.08-.73,1.77c0,.11-.01.22-.03.33l.09-.66c-.05.3-.13.59-.24.87l.25-.6c-.16.36-.36.7-.6,1.01l.39-.51c-.35.44-.75.83-1.2,1.18l.51-.39c-.34.26-.69.51-1.09.68l.6-.25c-.14.05-.28.1-.42.12l.66-.09c-.12.01-.24.01-.36,0l.66.09c-.06-.01-.12-.03-.19-.05l.6.25c-.06-.03-.11-.06-.16-.1l.51.39s-.09-.09-.14-.14l.39.51c-.05-.07-.09-.13-.12-.21l.25.6c-.03-.07-.05-.15-.06-.23l.09.66c0-.06,0-.12,0-.18l-.09.66s.02-.08.03-.13l-.25.6s.04-.07.06-.11l-.39.51s.06-.06.09-.09l-.51.39s.05-.03.08-.05c.54-.3.99-.9,1.15-1.49s.09-1.4-.25-1.93-.86-1-1.49-1.15-1.32-.08-1.93.25h0Z"/>
          <path class="cls-2" d="M40.11,68.41c-.15.29-.3.61-.37.93-.05.26-.09.55-.11.82,0,.18.03.36.05.54s.03.34.08.51.12.32.19.47c.19.45.36.71.71,1.1.21.23.47.42.72.59s.58.29.87.39c.21.07.41.09.63.12s.44.07.67.06c.44-.03.91-.08,1.32-.25.27-.11.59-.23.86-.38.29-.17.55-.39.8-.6.09-.08.17-.16.25-.25.21-.25.42-.51.59-.79.26-.44.46-.94.58-1.44.21-.91.24-1.83.21-2.76-.02-.65-.26-1.3-.73-1.77-.23-.24-.49-.42-.8-.52-.3-.16-.62-.23-.96-.22-.65.03-1.32.24-1.77.73s-.76,1.1-.73,1.77c.02.55.03,1.1-.04,1.64l.09-.66c-.05.34-.12.68-.26.99l.25-.6c-.09.2-.19.39-.32.56l.39-.51c-.1.13-.22.24-.35.34l.51-.39c-.14.11-.3.2-.46.27l.6-.25c-.18.07-.36.13-.55.15l.66-.09c-.16.02-.31.02-.46,0l.66.09c-.12-.02-.24-.05-.35-.1l.6.25c-.09-.04-.17-.09-.25-.14l.51.39c-.08-.06-.15-.13-.21-.21l.39.51c-.06-.08-.12-.17-.16-.26l.25.6c-.05-.11-.08-.23-.1-.35l.09.66c-.01-.1-.01-.2,0-.31l-.09.66c.02-.1.04-.2.08-.3l-.25.6s.03-.06.05-.09c.31-.59.43-1.27.25-1.93-.16-.58-.61-1.21-1.15-1.49-.58-.31-1.28-.46-1.93-.25-.6.2-1.19.57-1.49,1.15h0Z"/>
          <path class="cls-8" d="M45.29,68.72c.23-.12.47-.29.64-.48.08-.08.15-.18.22-.28.07-.09.14-.18.21-.28.05-.1.1-.21.14-.32.06-.1.1-.21.13-.32.12-.38.12-.97,0-1.36-.06-.18-.18-.48-.26-.64-.18-.33-.58-.73-.91-.91-.11-.06-.5-.23-.63-.26l-.66-.09c-.23.01-.46.04-.68.09-.21.06-.66.28-.63.26-.39.22-.72.55-.95.94s-.35.82-.35,1.27c0,.5.06.6.21.97s.17.46.53.82.66.49,1.13.65l-1.84-2.41c-.02.39.04.79.14,1.16.08.27.21.54.32.79.04.08.08.16.13.24.2.3.42.62.7.86.21.18.45.38.7.53s.54.25.81.35c.44.12.89.12,1.33,0,.33-.08.61-.23.85-.45.27-.18.49-.41.64-.7.23-.39.34-.81.34-1.26.01-.45-.06-.91-.16-1.34-.03-.12-.06-.23-.1-.35-.11-.31-.24-.62-.39-.91-.2-.39-.49-.74-.78-1.07s-.67-.61-1.04-.85c-.29-.18-.6-.28-.93-.3-.33-.07-.66-.06-1,.04-.33.08-.61.23-.85.45-.27.18-.49.41-.64.7l-.25.6c-.12.44-.12.89,0,1.33l.25.6c.22.38.52.67.9.9.06.04.12.08.18.13l-.51-.39c.18.14.34.31.48.49l-.39-.51c.15.19.27.4.36.62l-.25-.6c.09.22.16.45.19.69l-.09-.66c.02.14.03.29.02.43l3.16-2.41s-.04-.02-.06-.03l.6.25c-.11-.05-.22-.11-.32-.19l.51.39c-.1-.08-.18-.16-.26-.26l.39.51c-.09-.12-.16-.24-.22-.38l.25.6c-.05-.13-.08-.25-.1-.39l.09.66c-.01-.09-.01-.18,0-.27l-.09-.66c-.08-.33-.23-.61-.45-.85-.11-.19-.26-.34-.45-.45-.24-.22-.52-.37-.85-.45h-.02c.37.21.74.42,1.1.64h-.01c.13.16.26.33.39.5h0c.11.41.23.83.34,1.25h0c-.11.41-.23.83-.34,1.25,0,0,0-.02.01-.02l-.39.51h.01c-.17.12-.34.25-.51.38,0,0,.02-.01.03-.02l-.6.25s.02,0,.03-.01l-.66.09h.02c-.22-.03-.44-.06-.66-.09h.02c-.2-.08-.4-.17-.6-.25h.01c-.17-.12-.34-.25-.51-.38h.01c-.13-.16-.26-.33-.39-.49v.02c-.08-.2-.16-.4-.24-.6v.03c-.02-.22-.05-.44-.08-.66v.03c.03-.22.06-.44.09-.66v.03c.08-.2.16-.4.24-.6,0,.02-.02.03-.03.05l.39-.51s-.03.03-.04.04l.51-.39s-.07.05-.11.07c-.29.16-.53.37-.7.64-.22.24-.37.52-.45.85-.1.33-.12.66-.04,1,.02.33.11.64.3.93l.39.51c.31.31.68.52,1.1.64l.66.09c.45,0,.87-.12,1.26-.34h0Z"/>
          <path class="cls-8" d="M23.03,68.13l.41,1.39.25.6.39.51.51.39c.29.18.6.28.93.3.22.06.44.06.66,0,.23,0,.44-.06.63-.17.21-.06.4-.17.55-.32.27-.18.49-.41.64-.7.12-.26.28-.56.33-.86.03-.18.1-.54.1-.79s-.07-.61-.1-.79c-.05-.3-.21-.6-.32-.86-.02-.04-.04-.09-.07-.13-.14-.21-.3-.41-.47-.61-.23-.24-.49-.42-.8-.52-.3-.16-.62-.23-.96-.22-.34-.01-.67.06-.96.22-.31.1-.58.27-.8.52l-.39.51c-.23.39-.34.81-.34,1.26l.09.66c.12.42.33.79.64,1.1.01.02.03.03.04.05l-.39-.51c.05.06.08.13.11.2l-.25-.6c.03.08.05.16.06.24l-.09-.66c0,.08,0,.17,0,.25l.09-.66c-.01.08-.03.15-.06.22l.25-.6s-.01.03-.02.04l4.57.6-.41-1.39c-.08-.33-.23-.61-.45-.85-.18-.27-.41-.49-.7-.64-.29-.18-.6-.28-.93-.3-.33-.07-.66-.06-1,.04l-.6.25c-.38.22-.67.52-.9.9l-.25.6c-.12.44-.12.89,0,1.33h0Z"/>
          <path class="cls-2" d="M42.06,69.37c.69-.14,1.33-.63,1.64-1.26.09-.18.09-.39-.04-.56s-.33-.23-.53-.18c-.66.16-1.23.56-1.62,1.11-.1.14-.08.36,0,.5s.26.26.43.25c.76-.03,1.51-.49,1.82-1.2.07-.17.1-.34,0-.5-.09-.16-.25-.24-.43-.25-.81-.04-1.65.45-2.01,1.18-.06.12-.09.25-.05.39.03.12.12.24.23.3.22.12.56.07.68-.18.05-.1.1-.19.17-.27l-.08.1c.09-.12.19-.22.31-.31l-.1.08c.12-.09.24-.16.38-.22l-.12.05c.14-.06.28-.1.42-.12l-.13.02c.1-.01.2-.02.3-.01l-.43-.75c-.05.11-.11.22-.19.32l.08-.1c-.09.11-.18.21-.29.29l.1-.08c-.12.09-.24.16-.38.22l.12-.05c-.13.05-.26.09-.4.11l.13-.02s-.09,0-.14.01l.43.75s.03-.04.04-.06l-.08.1c.12-.15.25-.28.4-.4l-.1.08c.16-.12.33-.22.51-.3l-.12.05c.12-.05.25-.09.37-.12l-.56-.73c-.06.11-.12.22-.2.32l.08-.1c-.1.13-.22.25-.35.35l.1-.08c-.14.11-.28.19-.44.26l.12-.05c-.12.05-.24.08-.36.11-.26.05-.43.37-.35.62.09.27.34.4.62.35h0Z"/>
          <path class="cls-2" d="M23.94,70.35c.5-.17.95-.46,1.31-.85.15-.16.2-.42.08-.61-.12-.18-.35-.3-.56-.23-.64.22-1.22.6-1.64,1.13-.13.17-.21.41-.08.61s.33.27.56.23c.79-.12,1.49-.82,1.62-1.61.03-.18,0-.35-.13-.49-.11-.11-.33-.19-.49-.13-.99.4-1.82,1.06-2.43,1.93-.15.21-.05.57.18.68.26.14.52.05.68-.18.03-.05.07-.09.1-.13.04-.06-.08.09,0,0,.02-.02.03-.04.05-.06.07-.09.14-.17.22-.25.15-.16.31-.31.49-.45.01-.01.04-.04.06-.05-.03,0-.07.05-.01.01.04-.03.09-.07.13-.1.09-.06.18-.12.28-.18s.19-.11.29-.16c.05-.02.1-.05.15-.07.02-.01.04-.02.07-.03.12-.05-.1.04.02,0l-.62-.62c-.01.07-.03.15-.05.22,0,.01-.05.14-.02.06s-.02.04-.03.06c-.01.02-.1.2-.12.19.01,0,.08-.09,0,0-.02.03-.05.06-.08.08s-.05.05-.08.08c-.01.01-.02.02-.04.03-.03.02-.02.01.04-.03,0,.02-.17.11-.19.12,0,0-.09.04-.09.04.07-.03.08-.03.03-.01-.02,0-.04.01-.06.02-.07.02-.15.04-.22.05l.49.84c.09-.11.18-.22.28-.31.05-.05.1-.09.15-.14.01-.01.03-.02.04-.04.03-.02.02-.02-.03.02,0-.01.08-.06.09-.07.11-.08.23-.15.34-.21.02-.01.2-.08.2-.1l-.05.02s.05-.02.07-.03c.03-.01.07-.03.1-.04l-.49-.84c-.07.07-.14.15-.21.21-.02.02-.04.03-.06.05-.05.04,0,.02.01,0-.02.04-.1.08-.14.1-.08.06-.17.11-.26.15-.02.01-.05.02-.07.03-.01,0-.09.04-.03.01s-.02,0-.03.01c-.03.01-.06.02-.09.03-.25.09-.44.35-.35.62.08.24.35.44.62.35h0Z"/>
          <path class="cls-9" d="M59.13,90.87c3.83,6.18,8.23,11.99,13.12,17.36l3.54-3.54c-5.85-4.62-9.55-12.46-17.83-13.09-2-.15-4.3.61-4.86,2.78s.93,3.89,2.79,4.61c3.78,1.46,7.61-1.53,8.94-4.91.47-1.18-.52-2.86-1.75-3.08-5.08-.91-10.04.41-13.98,3.74-1.6,1.35-.35,4.46,1.77,4.27,3.6-.33,6.75-1.62,9.57-3.87,2.01-1.6-.17-4.84-2.43-4.18-2.68.79-5.36,1.58-8.04,2.36s-5.3,1.35-8.13,1.14-5.52-.77-8.25-1.2c-2.95-.46-5.89-.93-8.84-1.39-1.63-.26-3.09.65-3.16,2.41-.13,3.06,2.13,5.19,4.3,6.98,2.37,1.95,4.85,3.77,7.45,5.41s5.05,3,7.71,4.21c2.51,1.14,5.82,1.26,6.85-1.88.37-1.12-.27-2.2-1.15-2.82-5.03-3.56-10.14-6.98-16-9.02-2.5-.87-4,2.46-2.43,4.18,3.26,3.59,7.16,6.64,11.46,8.91,2.15,1.14,4.41,2.1,6.73,2.86s5.11,1.15,6.52-1.32c.52-.92.44-2.3-.39-3.03-6.34-5.59-13.17-11.19-21.92-11.93-1.77-.15-3.28,2.29-2.16,3.76,3.82,5.01,9.24,7.88,15.16,9.76,2.8.89,5.68,1.63,8.55,2.21s6.54.5,8.25-2.47c.71-1.23.23-2.66-.9-3.42-6.26-4.23-13.44-7.06-20.9-8.22-1.62-.25-3.9,1.1-3.08,3.08,2.19,5.21,7.19,7.36,12.48,8.23,2.93.48,5.88.84,8.84,1.13,2.8.27,5.58.45,8.12-.98,1.56-.88,1.7-3.48,0-4.32-3.77-1.87-7.58-3.7-11.47-5.32-3.57-1.49-7.64-2.56-11.4-1.06-1.87.75-2.65,3.44-.6,4.57,4.44,2.45,9.01,4.65,13.69,6.62,3.9,1.64,8.66,3.38,12.55.72,1.54-1.05,1.68-3.3,0-4.32-5.64-3.41-11.45-6.53-17.41-9.32-1.15-.54-2.78-.4-3.42.9-2.83,5.75,4.18,8.67,8.35,10.34,4.78,1.91,9.84,3,14.97,3.39,2.31.18,3.09-2.78,1.77-4.27-4.67-5.26-10.56-9.21-17.13-11.72-2.28-.87-4.35,2.64-2.43,4.18,5.6,4.49,11.45,8.65,17.55,12.44,1.36.84,3.28.04,3.67-1.49.8-3.09.02-6.47-2.25-8.76-2.16-2.17-5.77-3.29-8.73-2.29-1.99.67-2.76,2.91-1.74,4.71.74,1.32,2.23,2.33,3.46,3.16,2.71,1.83,5.85,2.79,9.08,3.07,1.6.14,2.86-1.71,2.41-3.16-.74-2.38-2.35-4.41-4.62-5.49-1.02-.48-2.2-.44-3.03.39-.75.75-1,2.11-.39,3.03,1.92,2.89,4.23,5.3,6.98,7.4,1.78,1.36,4.26-.89,3.67-2.82-.97-3.19-3.08-5.88-6.01-7.51-2.54-1.41-4.9,1.82-3.03,3.93,2.08,2.34,4.36,4.49,6.81,6.45,2.21,1.77,5.18-.37,3.93-3.03-1.43-3.03-3.47-5.76-5.96-8.01s-5.7,1.14-3.54,3.54l7.05,7.79c1.87,2.07,5.59-.7,3.93-3.03l-5.22-7.31-4.32,2.52,4.43,6.15c.79,1.09,2.18,1.62,3.42.9,1.08-.63,1.69-2.32.9-3.42l-4.43-6.15c-.79-1.09-2.18-1.62-3.42-.9-1.08.63-1.69,2.32-.9,3.42,1.74,2.44,3.48,4.88,5.22,7.31l3.93-3.03-7.05-7.79-3.54,3.54c2.2,1.99,3.9,4.31,5.17,6.99l3.93-3.03c-2.45-1.96-4.72-4.11-6.81-6.45l-3.03,3.93c1.81,1,3.11,2.53,3.71,4.52l3.67-2.82c-2.03-1.55-3.78-3.49-5.19-5.61l-3.42,3.42c1.13.53,1.95,1.29,2.33,2.5l2.41-3.16c-1.53-.13-3.09-.54-4.48-1.2-.72-.34-1.41-.74-2.07-1.19-.26-.18-.52-.37-.77-.57-.2-.17-.4-.35-.6-.53-.49-.57-.52-.29-.07.83l-1.15,1.49c.91-.69,2.89.38,3.55,1.04,1.02,1.03,1.32,2.52.97,3.89l3.67-1.49c-5.73-3.56-11.27-7.43-16.54-11.65l-2.43,4.18c5.75,2.2,10.84,5.84,14.92,10.43l1.77-4.27c-3.78-.29-7.49-1.07-11.09-2.28-1.73-.58-3.42-1.26-5.07-2.06-.74-.36-1.56-.7-2.21-1.21-.18-.14-.33-.3-.48-.48-.33-.39.05-.61-.16-.18l-3.42.9c5.97,2.8,11.78,5.91,17.41,9.32v-4.32c-2.75,1.88-6.78-.39-9.42-1.54-4.02-1.74-7.94-3.69-11.78-5.8l-.6,4.57c3.02-1.21,6.13-.09,8.96,1.16,3.38,1.5,6.74,3.07,10.05,4.71v-4.32c-1.69.95-4.01.45-5.84.27-2.28-.23-4.56-.5-6.82-.85-3.24-.51-7.98-1.33-9.43-4.8l-3.08,3.08c7.09,1.1,13.76,3.69,19.7,7.71l-.9-3.42c-.21.36.02.15-.34.25-.39.1-.8.09-1.27.06-1.05-.06-2.11-.38-3.13-.62-2.4-.56-4.79-1.17-7.13-1.96-4.27-1.43-8.65-3.57-11.45-7.23l-2.16,3.76c7.25.62,13.17,5.88,18.38,10.47l-.39-3.03c.22-.3.48-.47.81-.52-.32,0-.4,0-.23-.02-.29-.17-.73-.21-1.06-.31-.9-.28-1.79-.6-2.66-.95-1.74-.69-3.41-1.56-5.02-2.52-3.25-1.94-6.14-4.34-8.68-7.14l-2.43,4.18c5.41,1.88,10.16,5.23,14.8,8.52l-1.15-2.82c.22-.6.59-.93,1.09-.98-.31,0-.37,0-.19-.01-.36-.13-.66-.22-1.01-.4-.92-.45-1.84-.9-2.75-1.39-1.87-1-3.7-2.09-5.48-3.26s-3.39-2.34-4.99-3.63c-1.06-.86-3.24-2.18-3.18-3.72l-3.16,2.41c3.03.48,6.06.95,9.09,1.43s6.21,1.1,9.34,1.34c5.95.45,11.88-2.03,17.5-3.68l-2.43-4.18c-1.7,1.36-3.88,2.21-6.04,2.41l1.77,4.27c2.47-2.08,5.93-3.02,9.12-2.45l-1.75-3.08c-.24.62-.85,1.15-1.45,1.4-.2.09-.61.18-.75.22.11-.03-.37-.01-.29-.09.39-.34.16,2.04.5,1.16l-.64,1.1c-.09-.11-.21-.1-.35.04.18-.01.36-.01.53,0,.37,0,.71.06,1.07.14.68.14,1.34.37,1.96.69,1.48.75,2.77,1.76,3.96,2.92,2.64,2.58,4.79,5.61,7.7,7.91,1.06.84,2.5,1.03,3.54,0s.91-2.53,0-3.54c-4.61-5.06-8.73-10.52-12.34-16.35-1.69-2.73-6.02-.22-4.32,2.52h0Z"/>
        </g>
        <g>
          <ellipse class="cls-4" cx="40.83" cy="67.3" rx="8.67" ry="8.18"/>
          <ellipse class="cls-4" cx="23.1" cy="67.77" rx="6.35" ry="5.99"/>
          <path class="cls-4" d="M21.99,61.77s.62-2.35,4.27-6.1c3.59-3.69,21.23-16.4,46.76-7.38"/>
          <path class="cls-4" d="M76.28,49.92c.42-.14,19.9,13.08,22.81,33.89.01.04.12,1.42.68,2.92.65,1.73,1.86,3.77,4.18,4.71"/>
          <path class="cls-4" d="M99.31,85.15s17.54,4.62,18.51-2.73-11.38-11.24-11.38-11.24c0,0-4.93-1.37-1.53-3.42,3.64-2.19,15.74-1.8,17.68,3.49,1.08,2.53-.66,3.64-.66,3.64"/>
          <path class="cls-4" d="M123.03,72.27s10.05-10.03,18.62-.29c.25.29.21.73-.09.96-1.93,1.49-10.4,2.77-12.82,6.71-2.86,4.66-2.52,12.92-5.7,18.74-4.04,7.39-11.63,11.26-27.14,12.7"/>
          <path class="cls-4" d="M98.02,100.01s-2.85.64-2.71,7.02.76,9.36-5.27,9.57-6.73-4.72-10.89-11.45-5.54-4.59-5.54-4.59"/>
          <path class="cls-4" d="M80.65,112.56s-37.61,3.52-51.79-7.68c-14.02-11.08-5.76-14.15-5.76-14.15"/>
          <path class="cls-4" d="M18.83,72.19c-.02.08-2.67,10.12-1.27,13.61,1.56,3.89,8.88,8.18,24.83,7.14,15.95-1.04,19.14-6.31,19.14-6.31"/>
          <path class="cls-4" d="M58.82,84.18s.01.05.02.07c.69,2.22,3.84,2.86,5.45,1.5"/>
          <path class="cls-4" d="M34.88,108.6c-.15-.07-7.11,5.05-5.65,8.45,1.26,2.95,10.48,1.04,12.88.48.4-.09,1.84-.54,2.22-.68,1.56-.61,4.75-2.09,5.8-4.27"/>
          <path class="cls-4" d="M62.57,40.52c-.16-.57,1.22-14.89,10.87-15.92,10.96-1.16,11.49,7.81,11.62,8.56.32,1.82.56,6.75-4.85,7.73-6.62,1.19-8.41-5.33-4.47-7.75"/>
          <path class="cls-4" d="M53.88,38.75s.45-13.74-7.2-13.97c-4.3-.12-6.43,2.31-7.16,4.57-.74,2.32-.21,4.92,1.3,6.82,1.38,1.73,3.76,2.99,7.61.44.87-.58,1.53-1.49,1.61-2.54.14-1.99-1.35-3.96-3.88-2.9"/>
          <path class="cls-4" d="M64.35,13.11s3.52-3.73,5.24,0c1.48,3.2-3.61,3.57-2.69.76"/>
          <ellipse class="cls-4" cx="55" cy="9.62" rx="1.12" ry="2.13" transform="translate(5.83 36.07) rotate(-38.2)"/>
          <ellipse class="cls-4" cx="59.51" cy="21.04" rx="3.17" ry="4.34" transform="translate(-.27 41.3) rotate(-38.2)"/>
        </g>
      </g>
    </g>
  </g>
  <g id="crab">
    <g class="cls-6">
      <rect class="cls-1" x="-42.82" y="119.07" width="226.03" height="226.03"/>
    </g>
  </g>
</svg>